<svg xmlns="http://www.w3.org/2000/svg" width="423" height="280.584" viewBox="0 0 423 280.584">
  <g id="Grupo_26682" data-name="Grupo 26682" transform="translate(-231.151 -137.85)">
    <path id="Trazado_3402" data-name="Trazado 3402" d="M304.7,417.66s-50.363-51.655-18.29-112.4,75.111-30.174,73.053-100.886,99.03-76.752,131.2-56.237,31.968,45.208,98.4,37.061,79.094,59.965,61.8,94.67c-24.536,49.241,68.037,41.15,9.674,137.912Z" transform="translate(-37.211 0)" fill="#ebf3fa"/>
    <path id="Trazado_3403" data-name="Trazado 3403" d="M1513.308,382.581a82.346,82.346,0,0,1-1.322,14.732,81.81,81.81,0,0,1-155.268,18.379,80.446,80.446,0,0,1-4.165-11.762,82.363,82.363,0,0,1-.963-38.753c.012-.065.028-.126.041-.192a82,82,0,0,1,31.923-48.654q2.521-1.83,5.189-3.468a81.348,81.348,0,0,1,42.779-12.072q3.121,0,6.181.232a81.232,81.232,0,0,1,40.507,14.4h0a82.1,82.1,0,0,1,22.434,23.425q1.879,2.968,3.508,6.1a81.413,81.413,0,0,1,9.151,37.635Z" transform="translate(-933.896 -136.039)" fill="#dce8ff"/>
    <path id="Trazado_3404" data-name="Trazado 3404" d="M1413.123,407.012c-3.264,5.169,1.363,14.144-8.428,11.7s-15.776-3.537-16.319,1.9,7.343,5.442,7.343,11.154-3.537,7.6-8.975,4.888-7-6.658-13.328-4.21-10,.816-11.423-4.08a7.158,7.158,0,0,0-1.016-2.142c.012-.065.028-.127.041-.192a82,82,0,0,1,31.923-48.654q2.521-1.83,5.189-3.468a10.758,10.758,0,0,1,8.2,4.275c5.711,7.074,9.518,3.537,8.159,11.7s.816,9.249,5.438,8.975,10.064-.273,10.607,3.264S1416.387,401.843,1413.123,407.012Z" transform="translate(-943.282 -197.081)" fill="#9fbdff" opacity="0.7"/>
    <path id="Trazado_3405" data-name="Trazado 3405" d="M1669.4,791.608s-7.208,2.312-9.111-2.72.272-6.12-6.12-7.615-6.935-5.847-11.015-5.3-2.04,2.176-6.8,5.712-9.111,1.9-8.975,8.431,7.208,7.547,8.635,11.831-1.02,6.119,2.04,9.383,8.771,1.836,6.119,6.323-6.731,7.955-4.692,14.891.612,7.343,4.08,12.239,10.2,6.527,11.219,3.264-4.692-7.547-2.856-10.811,4.9-1.02,6.119-5.916,6.188-4.9,6.6-8.3-5.983-8.567-3.536-10.743,7.344,3.944,11.151-1.5,1.224-9.791,5.168-14.959S1672.117,788.616,1669.4,791.608Z" transform="translate(-1165.695 -532.721)" fill="#9fbdff" opacity="0.7"/>
    <path id="Trazado_3406" data-name="Trazado 3406" d="M2021.326,621.827A82.345,82.345,0,0,1,2020,636.558a81.34,81.34,0,0,1-12.908,31.377,9.337,9.337,0,0,1-6.54-.176c-10.2-4.08-2.652-15.094,1.428-20.6s-6.323-3.06-13.871-8.159.816-18.766-6.935-16.523-17.135,5.1-21.622-2.448,4.08-8.771.2-15.095,2.244-10,9.995-10.607,6.731-6.12,16.319-6.935,9.383,11.423,19.99,10.607,10.13,1.632,10.13,1.632a4.943,4.943,0,0,1,2.215.465A81.946,81.946,0,0,1,2021.326,621.827Z" transform="translate(-1441.914 -375.285)" fill="#9fbdff" opacity="0.7"/>
    <path id="Trazado_3407" data-name="Trazado 3407" d="M2034.322,418.913c-8.82,4.292-12.361-7.38-19.9-3.872-7.6,3.537-6.271-3.264-12.251-7.617s-17.95,3.537-17.408-3.264,9.518-4.9,11.423-10.334,10.607-4.08,10.607-4.08a5.891,5.891,0,0,1,1.583-.359s0,0,0,0a82.1,82.1,0,0,1,22.434,23.425Q2032.692,415.782,2034.322,418.913Z" transform="translate(-1464.061 -210.006)" fill="#9fbdff" opacity="0.7"/>
    <path id="Trazado_3408" data-name="Trazado 3408" d="M1726.02,378.664s4.624-6.671-2.719-8.639-7.208.608-12.919,0-7.955,3.811-3.672,8.639,7.751,14.092,11.627,9.153S1721.464,379.14,1726.02,378.664Z" transform="translate(-1230.069 -193.211)" fill="#9fbdff" opacity="0.7"/>
    <path id="Trazado_3409" data-name="Trazado 3409" d="M2234.253,1461.242c3.252-10.369-13.429-17.134-13.429-17.134s-20.009,9-23.191,7.486,15.6-11.035,15.6-11.035c-5.356-4.2-24.374-6.493-24.374-6.493s-10.606,18.635-13.318,16.385,10.233-16.022,10.233-16.022c-6.583-1.871-15.856,1.281-15.856,1.281-13.15,6.38-8.094,29.315-16.548,34.028h0a25.3,25.3,0,0,0-4.046,2.456l1.506.962q.572-.487,1.156-.908a.013.013,0,0,1,.007,0l.017-.012c.252-.167.612-.4,1.055-.689h0c1.035-.607,1.771-1.074,2.274-1.429l0,0c3.185-1.947,9.384-4.6,9.342-4.29-.95,7.172,11.353,16.326,19.476,19.44s6.286-.911,4.519-6.669-10.424-10.067-11.995-12.885,2.751-1.873,7.3,1.554,3.889,9.744,11.153,15.421,22.449-5.107,22.449-5.107c-6.4-1.754-14.093-10.817-13.286-12.894s14.871,7.165,17.433,8.023S2231,1471.611,2234.253,1461.242Z" transform="translate(-1601.47 -1082.007)" fill="#dfebfd"/>
    <path id="Trazado_3410" data-name="Trazado 3410" d="M357.559,1310.053c1.552-13.854,24.634-13.156,24.634-13.156s18.824,20.924,23.342,20.795-12.6-21.032-12.6-21.032c8.46-2.154,31.97,5,31.97,5s2.8,27.364,7.146,26.127-3.714-24.1-3.714-24.1c8.7,1.213,17.947,9.714,17.947,9.714,12.13,14.3-5.681,38.6,1.8,48.506h0a32.438,32.438,0,0,1,3.478,4.978l-2.266.349q-.418-.869-.886-1.664a.014.014,0,0,0-.006-.01l-.014-.023c-.209-.326-.509-.79-.881-1.354v0s0,0,0,0c-.9-1.249-1.523-2.177-1.93-2.855l0-.006c-2.73-3.935-8.631-10.261-8.744-9.872-2.6,8.909-21.778,13.283-32.924,12.731s-6.906-4.325-1.85-10.167,17.447-6.417,20.75-8.911-2.26-3.623-9.378-1.958-9.61,9.422-21.075,12.323-23.7-17.619-23.7-17.619c8.419,1.255,22.142-5.4,22.269-8.253s-21.163.708-24.616.389S356.006,1323.906,357.559,1310.053Z" transform="translate(-105.348 -967.143)" fill="#dfebfd"/>
    <g id="Grupo_26647" data-name="Grupo 26647" transform="translate(568.293 319.522)">
      <path id="Trazado_3411" data-name="Trazado 3411" d="M2287.161,1271.321s5.98-21.327,19.135-32.561a2.459,2.459,0,0,1,4.008,2.309c-.007.038-.014.076-.021.114C2309.535,1245.038,2294.52,1259.448,2287.161,1271.321Z" transform="translate(-2284.839 -1238.169)" fill="#c5ddff" opacity="0.5"/>
      <path id="Trazado_3412" data-name="Trazado 3412" d="M2273.1,1299.822s15.327-25.433,36.151-34.494a2.61,2.61,0,0,1,3.393,1.205c.39.813.438,2-.407,3.7C2309.978,1274.775,2286.336,1287.563,2273.1,1299.822Z" transform="translate(-2273.096 -1260.659)" fill="#c5ddff" opacity="0.5"/>
    </g>
    <g id="Grupo_26648" data-name="Grupo 26648" transform="translate(279.193 296.172)">
      <path id="Trazado_3413" data-name="Trazado 3413" d="M631.961,1129.9s-5.979-21.327-19.134-32.561a2.46,2.46,0,0,0-4.008,2.309c.007.038.014.076.021.115C609.588,1103.613,624.6,1118.022,631.961,1129.9Z" transform="translate(-594.47 -1096.743)" fill="#c5ddff" opacity="0.5"/>
      <path id="Trazado_3414" data-name="Trazado 3414" d="M561.936,1158.4s-15.327-25.433-36.15-34.494a2.609,2.609,0,0,0-3.393,1.206c-.39.813-.438,2,.407,3.7C525.054,1133.349,548.7,1146.138,561.936,1158.4Z" transform="translate(-522.123 -1119.234)" fill="#c5ddff" opacity="0.5"/>
    </g>
    <path id="Trazado_3415" data-name="Trazado 3415" d="M1227.52,571.093l-.064,186.556a11.1,11.1,0,0,1-11.1,11.093l-97.521-.033a11.1,11.1,0,0,1-11.093-11.1l.064-186.556a11.1,11.1,0,0,1,11.1-11.091l97.522.034A11.1,11.1,0,0,1,1227.52,571.093Z" transform="translate(-731.859 -352.417)" fill="#c2cfff"/>
    <path id="Trazado_3416" data-name="Trazado 3416" d="M1209.312,763.089l-97.522-.034a12.5,12.5,0,0,1-12.485-12.493l.064-186.556a12.5,12.5,0,0,1,12.493-12.485l97.522.034a12.5,12.5,0,0,1,12.484,12.493L1221.8,750.6A12.5,12.5,0,0,1,1209.312,763.089Zm-97.45-208.782a9.715,9.715,0,0,0-9.707,9.7l-.064,186.556a9.715,9.715,0,0,0,9.7,9.707l97.522.033a9.714,9.714,0,0,0,9.707-9.7l.065-186.556a9.714,9.714,0,0,0-9.7-9.707Z" transform="translate(-724.815 -345.37)" fill="#163560"/>
    <g id="Grupo_26652" data-name="Grupo 26652" transform="translate(384.067 216.109)">
      <path id="Trazado_3417" data-name="Trazado 3417" d="M1201.719,663.048l-1.64,1.176-1.648-1.164a2.018,2.018,0,0,1,3.288-.012Z" transform="translate(-1191.641 -653.889)" fill="#fff"/>
      <g id="Grupo_26649" data-name="Grupo 26649" transform="translate(4.45 5.45)">
        <path id="Trazado_3418" data-name="Trazado 3418" d="M1188.249,644.841a4.873,4.873,0,0,0-3.99,2.071l1.041.731a3.6,3.6,0,0,1,5.879-.019l1.037-.743A4.876,4.876,0,0,0,1188.249,644.841Z" transform="translate(-1184.259 -644.841)" fill="#fff"/>
      </g>
      <g id="Grupo_26650" data-name="Grupo 26650" transform="translate(0 0)">
        <path id="Trazado_3419" data-name="Trazado 3419" d="M1165.747,611.833a10.31,10.31,0,0,0-8.441,4.381l1.04.731a9.05,9.05,0,0,1,14.761-.05l1.032-.743A10.312,10.312,0,0,0,1165.747,611.833Z" transform="translate(-1157.305 -611.833)" fill="#fff"/>
      </g>
      <g id="Grupo_26651" data-name="Grupo 26651" transform="translate(2.42 2.982)">
        <path id="Trazado_3420" data-name="Trazado 3420" d="M1177.985,629.894a7.375,7.375,0,0,0-6.02,3.107l1.041.731a6.114,6.114,0,0,1,9.931-.035l1.032-.739A7.373,7.373,0,0,0,1177.985,629.894Z" transform="translate(-1171.965 -629.894)" fill="#fff"/>
      </g>
    </g>
    <g id="Grupo_26653" data-name="Grupo 26653" transform="translate(358.947 162.529)">
      <path id="Trazado_3421" data-name="Trazado 3421" d="M1258.6,423.027a27.892,27.892,0,0,0-16.3-1.54s10.51-.718,16.741,5.952c0,0,4.358-6.683,11.562-8.215C1270.6,419.224,1265.234,418.584,1258.6,423.027Z" transform="translate(-1203.146 -397.419)" fill="#9fc1f4"/>
      <path id="Trazado_3422" data-name="Trazado 3422" d="M1155.927,408.181a21.572,21.572,0,0,0-12.6-1.265s8.131-.508,12.921,4.679c0,0,3.4-5.149,8.979-6.3C1165.228,405.295,1161.079,404.775,1155.927,408.181Z" transform="translate(-1120.516 -385.793)" fill="#9fc1f4"/>
      <path id="Trazado_3423" data-name="Trazado 3423" d="M1054.292,393.022a19.64,19.64,0,0,0-11.509-.665s7.377-.775,11.933,3.758c0,0,2.9-4.814,7.925-6.078C1062.641,390.038,1058.847,389.725,1054.292,393.022Z" transform="translate(-1036.572 -373.072)" fill="#9fc1f4"/>
      <path id="Trazado_3424" data-name="Trazado 3424" d="M1012.967,364.326a13.3,13.3,0,0,0-7.8.278s4.925-.988,8.284,1.782a9.876,9.876,0,0,1,4.96-4.6A9.242,9.242,0,0,0,1012.967,364.326Z" transform="translate(-1005.164 -349.492)" fill="#9fc1f4"/>
      <path id="Trazado_3425" data-name="Trazado 3425" d="M1227.982,289.575a13.3,13.3,0,0,0-7.807-.13s4.97-.73,8.18,2.211a9.875,9.875,0,0,1,5.193-4.333A9.241,9.241,0,0,0,1227.982,289.575Z" transform="translate(-1184.675 -287.323)" fill="#9fc1f4"/>
      <path id="Trazado_3426" data-name="Trazado 3426" d="M1315.012,361.642a19.378,19.378,0,0,0-11.3-1.287s7.31-.359,11.55,4.357c0,0,3.116-4.584,8.14-5.553C1323.4,359.16,1319.68,358.644,1315.012,361.642Z" transform="translate(-1254.417 -347.271)" fill="#9fc1f4"/>
      <path id="Trazado_3427" data-name="Trazado 3427" d="M1277.812,314.841a17.916,17.916,0,0,0-10.486-.794s6.741-.586,10.822,3.623c0,0,2.719-4.344,7.327-5.414C1285.476,312.255,1282.021,311.908,1277.812,314.841Z" transform="translate(-1224.041 -308.128)" fill="#9fc1f4"/>
    </g>
    <g id="Grupo_26654" data-name="Grupo 26654" transform="translate(540.821 224.38)">
      <path id="Trazado_3428" data-name="Trazado 3428" d="M2106.708,676.743c0,8.18,13.775,21.256,13.775,21.256s13.774-13.076,13.774-21.256-6.167-14.813-13.774-14.813S2106.708,668.563,2106.708,676.743Zm5.659-.869a8.117,8.117,0,1,1,8.117,8.117A8.131,8.131,0,0,1,2112.367,675.875Z" transform="translate(-2106.708 -661.93)" fill="#f78e48"/>
    </g>
    <g id="Grupo_26655" data-name="Grupo 26655" transform="translate(493.784 172.899)">
      <path id="Trazado_3429" data-name="Trazado 3429" d="M1821.823,364.356c0,7.857,13.231,20.417,13.231,20.417s13.231-12.559,13.231-20.417-5.923-14.229-13.231-14.229S1821.823,356.5,1821.823,364.356Zm5.435-.834a7.8,7.8,0,1,1,7.8,7.8A7.81,7.81,0,0,1,1827.258,363.521Z" transform="translate(-1821.823 -350.127)" fill="#f78e48"/>
    </g>
    <g id="Grupo_26657" data-name="Grupo 26657" transform="translate(536.388 341.177)">
      <path id="Rectángulo_4584" data-name="Rectángulo 4584" d="M0,0H43.545a0,0,0,0,1,0,0V.482A5.925,5.925,0,0,1,37.62,6.407H6.407A6.407,6.407,0,0,1,0,0V0A0,0,0,0,1,0,0Z" transform="translate(1.494 64.744)" fill="#163560"/>
      <path id="Trazado_3430" data-name="Trazado 3430" d="M2126.391,1394.033V1446a8.253,8.253,0,0,1-.2,1.825h-6.095a4.786,4.786,0,0,0-4.783,4.787v1.62h-23.879v-1.62a4.779,4.779,0,0,0-4.783-4.787h-6.588a8.267,8.267,0,0,1-.2-1.825v-51.968a8.227,8.227,0,0,1,8.224-8.231h30.085A8.227,8.227,0,0,1,2126.391,1394.033Z" transform="translate(-2079.858 -1383.082)" fill="#f78248"/>
      <g id="Grupo_26656" data-name="Grupo 26656" transform="translate(13.27)">
        <path id="Trazado_3431" data-name="Trazado 3431" d="M2178.988,1372.019c-10.777-4.248-18.295-.067-18.369-.025l-.389-.677a17.09,17.09,0,0,1,5.322-1.687,25.787,25.787,0,0,1,13.721,1.663Z" transform="translate(-2160.23 -1369.327)" fill="#163560"/>
      </g>
      <rect id="Rectángulo_4585" data-name="Rectángulo 4585" width="3.152" height="4.293" transform="translate(4.435 68.745)" fill="#163560"/>
      <path id="Trazado_3432" data-name="Trazado 3432" d="M2102.685,1804.282a2.242,2.242,0,1,1,2.242,2.244A2.244,2.244,0,0,1,2102.685,1804.282Z" transform="translate(-2098.916 -1730.594)" fill="#1f4777"/>
      <path id="Trazado_3433" data-name="Trazado 3433" d="M2108.022,1808.741a1.361,1.361,0,1,1,1.361,1.363A1.361,1.361,0,0,1,2108.022,1808.741Z" transform="translate(-2103.372 -1735.053)" fill="#163560"/>
      <rect id="Rectángulo_4586" data-name="Rectángulo 4586" width="3.152" height="4.293" transform="translate(36.85 68.745)" fill="#163560"/>
      <path id="Trazado_3434" data-name="Trazado 3434" d="M2299.012,1804.282a2.242,2.242,0,1,1,2.242,2.244A2.243,2.243,0,0,1,2299.012,1804.282Z" transform="translate(-2262.828 -1730.594)" fill="#1f4777"/>
      <path id="Trazado_3435" data-name="Trazado 3435" d="M2304.348,1808.741a1.362,1.362,0,1,1,1.361,1.363A1.362,1.362,0,0,1,2304.348,1808.741Z" transform="translate(-2267.282 -1735.053)" fill="#163560"/>
      <path id="Trazado_3436" data-name="Trazado 3436" d="M2130.869,1385.8v62.812a4.767,4.767,0,0,0-1.2-.57V1385.8Z" transform="translate(-2121.446 -1383.082)" fill="#e06832"/>
      <rect id="Rectángulo_4587" data-name="Rectángulo 4587" width="1.199" height="68.431" transform="translate(17.821 2.72)" fill="#e06832"/>
      <rect id="Rectángulo_4588" data-name="Rectángulo 4588" width="1.199" height="68.431" transform="translate(26.776 2.72)" fill="#e06832"/>
      <path id="Trazado_3437" data-name="Trazado 3437" d="M2301.912,1385.8v62.775a4.727,4.727,0,0,0-1.2,1.091V1385.8Z" transform="translate(-2264.248 -1383.082)" fill="#e06832"/>
    </g>
    <g id="Grupo_26659" data-name="Grupo 26659" transform="translate(505.635 277.637)">
      <path id="Trazado_3438" data-name="Trazado 3438" d="M1920.572,1206.993c0-.09,1.312-2.8.895-3.012s-1.165-.177-1.252.3A16.606,16.606,0,0,0,1920.572,1206.993Z" transform="translate(-1915.81 -1167.638)" fill="#ffb27d"/>
      <path id="Trazado_3439" data-name="Trazado 3439" d="M1898.855,1196.942c0-.266-.307-4.329-.993-5.137s-2.084-1.959-2.524-1.923a4.33,4.33,0,0,0-1.644,4.075,14.387,14.387,0,0,0,2.7,4.124Z" transform="translate(-1893.598 -1155.968)" fill="#ffb27d"/>
      <g id="Grupo_26658" data-name="Grupo 26658" transform="translate(0.473 27.955)">
        <path id="Trazado_3440" data-name="Trazado 3440" d="M1907.926,1161.894l-3.99,1.2a.25.25,0,0,1-.312-.167l-2.28-7.607a.25.25,0,0,1,.168-.312l3.99-1.2a.25.25,0,0,1,.312.168l2.28,7.607A.25.25,0,0,1,1907.926,1161.894Z" transform="translate(-1900.53 -1153.797)" fill="#f1a34f"/>
        <path id="Trazado_3441" data-name="Trazado 3441" d="M1902.825,1163.734l-3.619,1.085a.444.444,0,0,1-.553-.3l-2.169-7.236a.444.444,0,0,1,.3-.552l3.619-1.085a.444.444,0,0,1,.553.3l2.168,7.237A.443.443,0,0,1,1902.825,1163.734Z" transform="translate(-1896.466 -1155.326)" fill="#d86713"/>
      </g>
      <path id="Trazado_3442" data-name="Trazado 3442" d="M1901.642,1179.44s1.661-2.556,2.067-2.414c.58.2-1.506,3.447-1.506,3.447s1.545-2.424,1.787-2.241c.55.415-.325,1.938-1.194,3.105,0,0,1.554-1.423,1.6-1.167.177.9-1.706,3.073-1.706,3.073l-1.053-2.4Z" transform="translate(-1900.314 -1145.231)" fill="#ffb27d"/>
      <path id="Trazado_3443" data-name="Trazado 3443" d="M1894.094,1176.333c.08-.313.486-6.417.659-5.838s.587,3.78.587,3.78Z" transform="translate(-1894.012 -1139.751)" fill="#ffb27d"/>
      <path id="Trazado_3444" data-name="Trazado 3444" d="M1933.487,1151.536a45.226,45.226,0,0,1-2.088,11.993c-1.512,4.23-4.109,7.661-8.565,6.394q-.683-.195-1.325-.419l-.006,0a20.38,20.38,0,0,1-11.981-10.372,4.667,4.667,0,0,1,2.627-1.521c1.823.1,9.834,3.5,10.345,3.6,1.853.372,3.35-9.81,4.554-13.338s6.132-5.106,6.132-5.106Z" transform="translate(-1906.893 -1116.635)" fill="#739af0"/>
      <path id="Trazado_3445" data-name="Trazado 3445" d="M1992.188,1239.51l-.174,4.782c-1.512,4.23-4.109,7.661-8.565,6.394q-.684-.195-1.325-.419c.143.019,2.87.387,4.011-.754,1.173-1.175,1.05-5.065,3.211-7.659S1992.188,1239.51,1992.188,1239.51Z" transform="translate(-1967.508 -1197.398)" fill="#5283db"/>
      <path id="Trazado_3446" data-name="Trazado 3446" d="M2003.777,1764.372s2.228,2.033,1.793,3.478-2.445,2.408-2.717,4.174-1.358,2.729-2.337,2.729h-4.663s-.72-1.242,1.019-1.617,2.395-2.449,2.286-4.375a33.908,33.908,0,0,1,.163-4.495l3.695-.856Z" transform="translate(-1978.847 -1634.802)" fill="#133054"/>
      <path id="Trazado_3447" data-name="Trazado 3447" d="M1895.917,1776.453h13.73a.994.994,0,0,0,1-.965,7.006,7.006,0,0,0-.491-2.961c-.733-1.625-1.2-1.91,1.9-6.638-.931.958-3.441.52-5.558.235-.26.421-4.188,6.491-5.055,7.114C1900.481,1773.926,1896.212,1773.681,1895.917,1776.453Z" transform="translate(-1895.534 -1636.873)" fill="#163560"/>
      <path id="Trazado_3448" data-name="Trazado 3448" d="M1960.3,1361.193s-9.956,18.785-12.661,29.128c-2.1,8.029,10.715,39.093,10.715,39.093a10.262,10.262,0,0,0,2.756-.741,4.472,4.472,0,0,0,2.317-2.428s-.76-22.212-3.354-32.958c-.582-2.412,2.821-10.193,8.564-14.454s8.135-17.972,4.716-18.9S1960.3,1361.193,1960.3,1361.193Z" transform="translate(-1938.523 -1297.755)" fill="#163560"/>
      <path id="Trazado_3449" data-name="Trazado 3449" d="M1966.627,1336.407s-10.466,38.365-13.64,46.979-8.21,26.9-8.21,26.9a13.266,13.266,0,0,0,7.259.787s15.3-22.418,15.969-32.328c.308-4.58,15.7-22.736,13.985-34.576Z" transform="translate(-1936.327 -1278.302)" fill="#1c468a"/>
      <path id="Trazado_3450" data-name="Trazado 3450" d="M2035.865,1180.18a18.222,18.222,0,0,1-6.164,1.453h0c-4.508.378-11.259-.286-19.482-4.864,0,0-2.294-1.89.524-9.927,2.133-6.085,3.172-18.913,5.775-30.6,0,0,8.445-2.649,15.22-.359,5.177,1.751,4.662,9.7,5.618,17.968.089.773.191,1.547.312,2.32C2039.078,1165.222,2035.865,1180.18,2035.865,1180.18Z" transform="translate(-1990.226 -1110.104)" fill="#739af0"/>
      <path id="Trazado_3451" data-name="Trazado 3451" d="M2034.787,1007.932s5.764-9.382,10.228-4.554c0,0,2.918.745,4.589,5.289,1.706,4.635-.95,8.729-2.724,8.067-1.137-.424-1.67,1.536-1.67,1.536Z" transform="translate(-2011.475 -999.106)" fill="#233862"/>
      <path id="Trazado_3452" data-name="Trazado 3452" d="M2091.377,988.019s.4-3.885,6.073-3.507c0,0-2.684.048-3.26,1.168,0,0,1.952-1.258,3.375-.646s2.027,3.276,1.95,4.124-1.17,3.5-2.127,3.636a4.448,4.448,0,0,1-2.21-.539Z" transform="translate(-2058.722 -984.486)" fill="#233862"/>
      <path id="Trazado_3453" data-name="Trazado 3453" d="M2068.069,1101.48a26.178,26.178,0,0,1-1.965-7.451l-.341.12-5.729,2.018s.4,1.837.658,3.584c.1.715.18,1.99.229,3.1.05,1.139,1.17,1.246,2.309,1.194C2066.258,1103.909,2067.928,1102.779,2068.069,1101.48Z" transform="translate(-2032.554 -1075.943)" fill="#ffb27d"/>
      <path id="Trazado_3454" data-name="Trazado 3454" d="M2060.034,1096.772s.4,1.837.658,3.584c3.287-.569,4.6-3.831,5.072-5.6Z" transform="translate(-2032.554 -1076.548)" fill="#e8945b"/>
      <path id="Trazado_3455" data-name="Trazado 3455" d="M2040.984,1031.219a17.527,17.527,0,0,0,1.414-5.378c.056-1.711-1.685-7.772-7.771-5.986a8.528,8.528,0,0,0-3.31,1.828c-1.218,1.106-2.882,3.354.073,8.436l.828,1.741Z" transform="translate(-2007.258 -1013.743)" fill="#233862"/>
      <path id="Trazado_3456" data-name="Trazado 3456" d="M2034.823,1048.5s7.827-1,7.131-5.862-.154-8.27-5.181-7.839-5.73,2.425-5.893,4.105S2032.769,1048.636,2034.823,1048.5Z" transform="translate(-2008.206 -1026.464)" fill="#ffb27d"/>
      <path id="Trazado_3457" data-name="Trazado 3457" d="M2044.973,1030.75s2.96,5.4,6.363,5.769,4.7-.713,4.7-.713a9.388,9.388,0,0,1-3.831-5.051S2046.194,1027.8,2044.973,1030.75Z" transform="translate(-2019.98 -1022.018)" fill="#233862"/>
      <path id="Trazado_3458" data-name="Trazado 3458" d="M2030.391,1035.95a6.968,6.968,0,0,0-1.624,2.8c-.211,1.295-.018,3.87-.774,3.89,0,0-2.17-3.647-.676-6.1C2028.9,1033.934,2030.391,1035.95,2030.391,1035.95Z" transform="translate(-2004.801 -1026.832)" fill="#233862"/>
      <path id="Trazado_3459" data-name="Trazado 3459" d="M2046.959,1032.778s2.384,5.756,6.8,7.073c0,0-4.669-3.074-5.59-6.969S2046.959,1032.778,2046.959,1032.778Z" transform="translate(-2021.638 -1023.424)" fill="#233862"/>
      <path id="Trazado_3460" data-name="Trazado 3460" d="M2132.088,1272.495a18.217,18.217,0,0,1-6.164,1.453h0a6.9,6.9,0,0,1,.375-8.6c3.609-4.545-.282-12.931,2.5-17.492,1.934-3.174,3.817-2.434,4.783-1.693.089.773.191,1.547.312,2.32C2135.3,1257.537,2132.088,1272.495,2132.088,1272.495Z" transform="translate(-2086.449 -1202.419)" fill="#5283db"/>
      <path id="Trazado_3461" data-name="Trazado 3461" d="M2244.034,1368.084s.48,1.117,1.15,1.192a14.056,14.056,0,0,1,3.506,1.233c.887.527.827,2.883-.06,3.1s-1.33-1.756-4.1-2.285c-.94-.18-2.31.47-2.864-1.782Z" transform="translate(-2184.196 -1304.749)" fill="#ffb27d"/>
      <path id="Trazado_3462" data-name="Trazado 3462" d="M2136.589,1140.272c8.06,2.964,8.357,17.242,11.951,23.53,3.706,6.485,7.314,15.02,7.314,15.02s-.065.256-1.447.652a5.777,5.777,0,0,1-1.989.16s-7.614-6.888-9.683-9.606-6.947-15.324-6.947-15.324S2133.39,1139.095,2136.589,1140.272Z" transform="translate(-2095.08 -1114.497)" fill="#739af0"/>
      <path id="Trazado_3463" data-name="Trazado 3463" d="M2242.869,1380.32a3.05,3.05,0,0,0,1.384,1.736c1.188.776,2.142,1.552,2.256,1.072s-.662-1-.846-1.885S2242.869,1380.32,2242.869,1380.32Z" transform="translate(-2185.201 -1314.964)" fill="#ffb27d"/>
    </g>
    <rect id="Rectángulo_4589" data-name="Rectángulo 4589" width="116.959" height="84.667" transform="translate(377.276 295.446)" fill="#f78e48"/>
    <path id="Trazado_3464" data-name="Trazado 3464" d="M1350.372,1696.419v11.422c0,.14,0,.281-.009.419h-58.486c-.006-.138-.009-.278-.009-.419v-11.422c0-5.21,3.363-9.473,7.473-9.473H1342.9C1347.009,1686.946,1350.372,1691.209,1350.372,1696.419Z" transform="translate(-885.584 -1293.327)" fill="#f78248"/>
    <g id="Grupo_26662" data-name="Grupo 26662" transform="translate(428.584 397.352)">
      <g id="Grupo_26660" data-name="Grupo 26660" transform="translate(3.129 3.611)">
        <path id="Trazado_3465" data-name="Trazado 3465" d="M1449.644,1738.617l-3.765-3.371,1.058-1.181,2.432,2.177,3.365-4.814,1.3.908Z" transform="translate(-1445.879 -1731.428)" fill="#ffe3ca"/>
      </g>
      <g id="Grupo_26661" data-name="Grupo 26661" transform="translate(0 0)">
        <path id="Trazado_3466" data-name="Trazado 3466" d="M1434.136,1723.968a7.206,7.206,0,1,1,7.206-7.206A7.214,7.214,0,0,1,1434.136,1723.968Zm0-14.041a6.835,6.835,0,1,0,6.835,6.835A6.843,6.843,0,0,0,1434.136,1709.927Z" transform="translate(-1426.93 -1709.556)" fill="#ffe3ca"/>
      </g>
    </g>
    <path id="Trazado_3467" data-name="Trazado 3467" d="M1179.61,706.886s2.708-6.03,9.184-5.36c0,0,9.4-10.051,19.428-1.34,0,0,10.658-2.158,18.551,1.869,5.262,2.685,7,5.5,7,5.5Z" transform="translate(-791.861 -466.523)" fill="#ebf3fa"/>
    <path id="Trazado_3468" data-name="Trazado 3468" d="M1402.735,657.86l.1,0a1.679,1.679,0,0,0,1.109-.432c1.362-1.245,5.511-4.342,9.979-.784a1.62,1.62,0,0,0,1.244.329c1.726-.252,6.234-.661,9.764,1.23.1.052.19.1.282.155a1.632,1.632,0,0,1-.832,3.05l-21.6-.281A1.633,1.633,0,0,1,1402.735,657.86Z" transform="translate(-976.84 -431.753)" fill="#ebf3fa"/>
    <g id="Grupo_26663" data-name="Grupo 26663" transform="translate(449.367 304.135)">
      <path id="Trazado_3469" data-name="Trazado 3469" d="M1583.283,1208.533h-23.216a7.271,7.271,0,0,1-7.263-7.263V1152.24a7.271,7.271,0,0,1,7.263-7.263h23.216a7.271,7.271,0,0,1,7.263,7.263v49.029A7.271,7.271,0,0,1,1583.283,1208.533Zm-23.216-62.815a6.529,6.529,0,0,0-6.522,6.522v49.029a6.529,6.529,0,0,0,6.522,6.522h23.216a6.529,6.529,0,0,0,6.522-6.522V1152.24a6.529,6.529,0,0,0-6.522-6.522Z" transform="translate(-1552.804 -1144.977)" fill="#ffe3ca"/>
    </g>
    <path id="Rectángulo_4590" data-name="Rectángulo 4590" d="M15.794,0H28.435A15.794,15.794,0,0,1,44.229,15.794v0A15.794,15.794,0,0,1,28.435,31.588H15.794A15.794,15.794,0,0,1,0,15.794v0A15.794,15.794,0,0,1,15.794,0Z" transform="translate(399.953 304.506)" fill="#ffe3ca"/>
    <g id="Grupo_26664" data-name="Grupo 26664" transform="translate(399.582 340.934)">
      <path id="Trazado_3470" data-name="Trazado 3470" d="M1291.026,1394.61H1256.5a5.226,5.226,0,0,1-5.22-5.22v-16.316a5.226,5.226,0,0,1,5.22-5.22h34.53a5.226,5.226,0,0,1,5.22,5.22v16.316A5.226,5.226,0,0,1,1291.026,1394.61Zm-34.53-26.016a4.484,4.484,0,0,0-4.479,4.479v16.316a4.484,4.484,0,0,0,4.479,4.479h34.53a4.484,4.484,0,0,0,4.479-4.479v-16.316a4.484,4.484,0,0,0-4.479-4.479Z" transform="translate(-1251.276 -1367.853)" fill="#ffe3ca"/>
    </g>
    <g id="Grupo_26665" data-name="Grupo 26665" transform="translate(458.587 311.707)">
      <path id="Trazado_3471" data-name="Trazado 3471" d="M1608.644,1201.215c0,5.732,9.652,14.893,9.652,14.893s9.652-9.162,9.652-14.893-4.321-10.379-9.652-10.379S1608.644,1195.484,1608.644,1201.215Zm3.964-.609a5.687,5.687,0,1,1,5.687,5.687A5.7,5.7,0,0,1,1612.608,1200.607Z" transform="translate(-1608.644 -1190.836)" fill="#ffe3ca"/>
    </g>
    <path id="Trazado_3472" data-name="Trazado 3472" d="M1398.979,1243.029l-.457,0a.2.2,0,0,0-.047.007l-3.5.957a.187.187,0,0,1-.129-.012l-4.924-1.9c-.126-.061.636-.433.749-.515,1.231-.9,5.136-3.079,6.6-4.05a.321.321,0,0,0-.1-.58.7.7,0,0,0-.4.024l-7.173,2.6-.964-.611a.3.3,0,0,0-.416.093l-.472.748a.3.3,0,0,0,.086.411l-.924.335a.186.186,0,0,1-.135,0l-4.414-1.883a1.835,1.835,0,0,0-1.235-.074l-.508.149a.627.627,0,0,0-.415.8l.058.17a1.957,1.957,0,0,0,1.163,1.2l3.579,1.347a.185.185,0,0,1,.12.169l.032,1.547-.2-.13a.3.3,0,0,0-.416.094l-.473.748a.3.3,0,0,0,.094.416l1.036.657.05,2.414a.988.988,0,0,0,.177.544c.142.2.292.429.344.406a49.308,49.308,0,0,0,2.343-5.255c.031-.083.735.178.818.21l4.88,1.492a.185.185,0,0,1,.118.145l.217,1.424a.709.709,0,0,0,.221.415l0,0a.185.185,0,0,0,.28-.035l1.135-1.738a.185.185,0,0,1,.149-.084l.524-.016a.185.185,0,0,0,.122-.318l-.128-.123,2.648-1.879A.185.185,0,0,0,1398.979,1243.029Z" transform="translate(-959.302 -917.609)" fill="#f78e48"/>
    <g id="Grupo_26668" data-name="Grupo 26668" transform="translate(425.425 347.093)">
      <g id="Grupo_26666" data-name="Grupo 26666" transform="translate(0 0)">
        <path id="Trazado_3473" data-name="Trazado 3473" d="M1415.018,1419.6a7.219,7.219,0,1,1,7.219-7.219A7.227,7.227,0,0,1,1415.018,1419.6Zm0-13.647a6.428,6.428,0,1,0,6.428,6.428A6.436,6.436,0,0,0,1415.018,1405.948Z" transform="translate(-1407.799 -1405.157)" fill="#ffe3ca"/>
      </g>
      <g id="Grupo_26667" data-name="Grupo 26667" transform="translate(6.778 3.665)">
        <path id="Rectángulo_4591" data-name="Rectángulo 4591" d="M.3,0h0A.3.3,0,0,1,.6.3V4.223a.3.3,0,0,1-.3.3h0a.3.3,0,0,1-.3-.3V.3A.3.3,0,0,1,.3,0Z" transform="translate(0.094)" fill="#ffe3ca"/>
        <path id="Trazado_3474" data-name="Trazado 3474" d="M1450.464,1432.375l-.008-.009a.144.144,0,0,1,0-.2l4.013-4.013a.145.145,0,0,1,.2,0l.008.008a.145.145,0,0,1,0,.2l-4.014,4.013A.145.145,0,0,1,1450.464,1432.375Z" transform="translate(-1450.156 -1427.982)" fill="#ffe3ca"/>
        <path id="Trazado_3475" data-name="Trazado 3475" d="M1448.85,1451.083a.395.395,0,1,1,.395.395A.394.394,0,0,1,1448.85,1451.083Z" transform="translate(-1448.85 -1446.835)" fill="#ffe3ca"/>
      </g>
    </g>
    <g id="Grupo_26669" data-name="Grupo 26669" transform="translate(404.713 345.666)">
      <rect id="Rectángulo_4592" data-name="Rectángulo 4592" width="15.872" height="1.646" transform="translate(0)" fill="#ffe3ca"/>
      <rect id="Rectángulo_4593" data-name="Rectángulo 4593" width="15.872" height="1.658" transform="translate(0 3.758)" fill="#ffe3ca"/>
      <rect id="Rectángulo_4594" data-name="Rectángulo 4594" width="9.517" height="1.658" transform="translate(0 7.526)" fill="#ffe3ca"/>
    </g>
    <g id="Grupo_26670" data-name="Grupo 26670" transform="translate(460.302 345.736)">
      <rect id="Rectángulo_4595" data-name="Rectángulo 4595" width="15.872" height="1.646" transform="translate(0 0)" fill="#ffe3ca"/>
      <rect id="Rectángulo_4596" data-name="Rectángulo 4596" width="15.872" height="1.658" transform="translate(0 3.758)" fill="#ffe3ca"/>
      <rect id="Rectángulo_4597" data-name="Rectángulo 4597" width="9.517" height="1.658" transform="translate(0 7.527)" fill="#ffe3ca"/>
    </g>
    <g id="Grupo_26671" data-name="Grupo 26671" transform="translate(405.697 311.771)">
      <rect id="Rectángulo_4598" data-name="Rectángulo 4598" width="15.872" height="1.646" transform="translate(0 0)" fill="#f78e48"/>
      <rect id="Rectángulo_4599" data-name="Rectángulo 4599" width="15.872" height="1.658" transform="translate(0 3.758)" fill="#f78e48"/>
      <rect id="Rectángulo_4600" data-name="Rectángulo 4600" width="9.517" height="1.658" transform="translate(0 7.527)" fill="#f78e48"/>
    </g>
    <g id="Grupo_26672" data-name="Grupo 26672" transform="translate(508.252 150.108)">
      <path id="Trazado_3476" data-name="Trazado 3476" d="M1955.792,283.042a.371.371,0,0,1-.369-.337c0-.006-.06-.654-.182-1.8a.371.371,0,0,1,.737-.078c.123,1.151.183,1.8.183,1.81a.371.371,0,0,1-.335.4Zm-.381-3.595a.37.37,0,0,1-.367-.329c-.062-.542-.131-1.138-.209-1.783a.371.371,0,1,1,.736-.088c.078.647.148,1.245.209,1.788a.371.371,0,0,1-.326.41Zm-.429-3.568a.371.371,0,0,1-.367-.324q-.107-.849-.229-1.778a.37.37,0,1,1,.735-.1q.123.93.23,1.782a.37.37,0,0,1-.321.414A.351.351,0,0,1,1954.982,275.879Zm-.469-3.559a.371.371,0,0,1-.367-.32q-.119-.862-.249-1.774a.371.371,0,0,1,.734-.1q.131.914.249,1.778a.37.37,0,0,1-.317.418A.381.381,0,0,1,1954.512,272.32ZM1954,268.77a.371.371,0,0,1-.366-.316q-.13-.868-.269-1.771a.371.371,0,1,1,.732-.113q.14.9.269,1.775a.371.371,0,0,1-.312.421A.387.387,0,0,1,1954,268.77Zm-.548-3.544a.371.371,0,0,1-.365-.312q-.14-.871-.289-1.767a.371.371,0,0,1,.731-.122q.149.9.289,1.771a.371.371,0,0,1-.307.424A.362.362,0,0,1,1953.456,265.226Zm-.588-3.536a.37.37,0,0,1-.365-.308q-.151-.873-.31-1.763a.371.371,0,1,1,.729-.13q.16.892.311,1.768a.371.371,0,0,1-.3.428A.384.384,0,0,1,1952.868,261.689Zm-.632-3.529a.371.371,0,0,1-.364-.3q-.162-.873-.333-1.758a.371.371,0,0,1,.728-.14q.171.887.333,1.763a.371.371,0,0,1-.365.438Zm-.678-3.519a.37.37,0,0,1-.363-.3q-.174-.873-.357-1.753a.37.37,0,1,1,.725-.151q.183.882.358,1.759a.371.371,0,0,1-.291.436A.365.365,0,0,1,1951.559,254.641Zm-.728-3.509a.371.371,0,0,1-.362-.293q-.187-.87-.383-1.743a.371.371,0,0,1,.723-.162q.2.875.384,1.749a.371.371,0,0,1-.284.44A.377.377,0,0,1,1950.831,251.132Zm-.783-3.493a.371.371,0,0,1-.361-.286q-.2-.873-.415-1.745a.371.371,0,0,1,.72-.175q.212.875.417,1.751a.371.371,0,0,1-.361.455Zm-.848-3.487a.371.371,0,0,1-.359-.28q-.22-.868-.449-1.731a.371.371,0,0,1,.717-.19q.229.866.45,1.738a.371.371,0,0,1-.359.462Zm-.918-3.464a.371.371,0,0,1-.357-.272q-.239-.864-.487-1.72a.371.371,0,1,1,.712-.207q.249.859.49,1.728a.371.371,0,0,1-.258.456A.375.375,0,0,1,1948.282,240.688Zm-1-3.441a.37.37,0,0,1-.354-.263c-.174-.572-.354-1.145-.533-1.705a.371.371,0,0,1,.706-.226c.18.563.36,1.14.536,1.715a.371.371,0,0,1-.246.463A.375.375,0,0,1,1947.283,237.247Zm-1.095-3.412a.371.371,0,0,1-.351-.252c-.192-.567-.389-1.135-.587-1.686a.371.371,0,0,1,.7-.25c.2.556.4,1.127.591,1.7a.371.371,0,0,1-.351.489Zm-36.37-1.192a.371.371,0,0,1-.345-.506q.192-.49.384-.965a.371.371,0,1,1,.687.278q-.191.471-.381.957A.371.371,0,0,1,1909.818,232.643Zm35.161-2.18a.371.371,0,0,1-.346-.239c-.215-.564-.434-1.123-.652-1.66a.371.371,0,1,1,.687-.279c.22.542.442,1.106.658,1.675a.371.371,0,0,1-.346.5Zm-34.09-.432a.37.37,0,0,1-.34-.517c.24-.56.486-1.112.729-1.643a.37.37,0,1,1,.673.309c-.24.525-.483,1.073-.721,1.627A.37.37,0,0,1,1910.889,230.03Zm32.74-2.887a.371.371,0,0,1-.34-.223c-.243-.557-.49-1.1-.734-1.622a.371.371,0,1,1,.67-.316c.248.526.5,1.078.743,1.641a.371.371,0,0,1-.34.519Zm-31.249-.364a.366.366,0,0,1-.163-.038.37.37,0,0,1-.169-.5c.27-.549.545-1.088.818-1.6a.371.371,0,1,1,.655.347c-.27.508-.541,1.04-.807,1.583A.371.371,0,0,1,1912.38,226.779ZM1942.1,223.9a.37.37,0,0,1-.33-.2c-.276-.538-.558-1.064-.84-1.565a.371.371,0,0,1,.646-.364c.286.509.574,1.044.854,1.591a.371.371,0,0,1-.329.539Zm-28.043-.282a.37.37,0,0,1-.32-.556c.307-.532.62-1.051.932-1.544a.37.37,0,1,1,.626.4c-.306.484-.614.994-.916,1.517A.37.37,0,0,1,1914.058,223.622Zm26.282-2.835a.37.37,0,0,1-.314-.174c-.322-.513-.652-1.008-.98-1.472a.371.371,0,0,1,.6-.429c.337.475.674.981,1,1.507a.371.371,0,0,1-.313.568Zm-24.366-.182a.371.371,0,0,1-.3-.584c.357-.506.721-.994,1.083-1.449a.371.371,0,0,1,.58.461c-.353.444-.708.92-1.057,1.415A.371.371,0,0,1,1915.974,220.6Zm22.29-2.729a.37.37,0,0,1-.286-.135c-.385-.468-.779-.907-1.17-1.3a.371.371,0,1,1,.528-.52c.407.413.815.868,1.214,1.354a.37.37,0,0,1-.286.606Zm-20.061-.064a.371.371,0,0,1-.273-.621c.42-.459.852-.893,1.282-1.29a.371.371,0,0,1,.5.545c-.415.383-.832.8-1.238,1.245A.37.37,0,0,1,1918.2,217.811Zm2.633-2.411a.371.371,0,0,1-.222-.667,14.989,14.989,0,0,1,1.53-1.007.371.371,0,1,1,.368.643,14.286,14.286,0,0,0-1.454.957A.369.369,0,0,1,1920.837,215.4Zm14.918-.053a.369.369,0,0,1-.232-.082,11.821,11.821,0,0,0-1.412-.984.371.371,0,0,1,.377-.638,12.572,12.572,0,0,1,1.5,1.046.37.37,0,0,1-.233.659Zm-11.818-1.706a.371.371,0,0,1-.137-.715,11.913,11.913,0,0,1,1.761-.545.37.37,0,1,1,.163.723,11.216,11.216,0,0,0-1.651.512A.371.371,0,0,1,1923.937,213.641Zm8.759-.071a.367.367,0,0,1-.127-.023,8.2,8.2,0,0,0-.833-.254c-.284-.07-.566-.133-.839-.187a.371.371,0,0,1,.143-.727c.284.056.579.122.874.194a8.966,8.966,0,0,1,.909.278.371.371,0,0,1-.127.719Zm-3.5-.7h-.029a12.211,12.211,0,0,0-1.735-.011.371.371,0,0,1-.049-.74,12.954,12.954,0,0,1,1.84.012.371.371,0,0,1-.027.74Z" transform="translate(-1909.448 -212.09)" fill="#f78e48"/>
    </g>
    <path id="Trazado_3477" data-name="Trazado 3477" d="M653.636,1829.975l-421.971-.145a.516.516,0,0,1-.514-.514v-.263a.516.516,0,0,1,.514-.514l421.971.146a.516.516,0,0,1,.514.514v.263A.516.516,0,0,1,653.636,1829.975Z" transform="translate(0 -1411.541)" fill="#2e3552"/>
    <path id="Trazado_3478" data-name="Trazado 3478" d="M1116.225,864.653s5.049-.349,6.15,3.612c0,0,3.888-7.922,12.1-7.269s9.73,5.483,9.73,5.483,4.706-1.616,8.613.539a6.854,6.854,0,0,1,3.657,6.107s3.583-5.029,10.784-3.233c0,0-1.437-7.271,7.224-8.934s12.338,1.211,12.338,1.211,9.808-6.316,18.491,1.6c0,0,6.362-1.235,9.472,2.683,0,0,6.374-7.7,18.363-6.349V898.18H1116.175Z" transform="translate(-738.899 -602.734)" fill="#d7e2ff"/>
    <path id="Trazado_3479" data-name="Trazado 3479" d="M1116.223,1002.053s8.492-2.148,16.072,2.854c0,0,1.848-2.2,6.66-1.656a7.437,7.437,0,0,1,6.137,4.99s16.836-5.56,25.171,8.338h-54.088Z" transform="translate(-738.899 -721.133)" fill="#ebf3fa"/>
    <path id="Trazado_3480" data-name="Trazado 3480" d="M1506.517,936.3a11.828,11.828,0,0,1,9.327-10.559s-4.607-2.038-2.285-7.1,7.964-5.435,7.964-5.435.59-9.162,16.587-7.58c4.491.444,9.246,3.133,9.989,7.827a6.068,6.068,0,0,1,5.328-2.662s.445-5.21,5.613-5.165V936.3Z" transform="translate(-1064.792 -640.854)" fill="#ebf3fa"/>
    <g id="Grupo_26675" data-name="Grupo 26675" transform="translate(340.762 220.9)">
      <path id="Trazado_3481" data-name="Trazado 3481" d="M1628.127,647.81l-6.714,23.262-.212-.026-22.941-2.787s10.625-2.21,11.729-3.485c1.04-1.2,12.073-15.456,15.3-16.98a1.085,1.085,0,0,1,.5-.13Z" transform="translate(-1482.15 -646.539)" fill="#739af0"/>
      <path id="Trazado_3482" data-name="Trazado 3482" d="M1621.2,671.71l-22.941-2.787s10.625-2.21,11.729-3.485c1.04-1.2,12.073-15.456,15.3-16.979-2.857,4.149-9.479,14.12-9.2,17.019C1616.359,668.239,1619.589,670.664,1621.2,671.71Z" transform="translate(-1482.15 -647.203)" fill="#2b478b"/>
      <path id="Trazado_3483" data-name="Trazado 3483" d="M1226.836,753.158c-.783.268-3.123,1.005-6.334,1.94-9.232,2.685-25.654,7-32.9,6.464-6.5-.478-40.881-3.1-64.663-5.187,5.754-10.106,12.929-15.689,19.5-18.75,27.707,2.27,63.942,5.338,68.553,6.228,7.584,1.466,17.645,2.658,17.645,2.658s.068.308.133.8C1228.978,748.892,1229.157,752.36,1226.836,753.158Z" transform="translate(-1085.307 -721.647)" fill="#e58638"/>
      <path id="Trazado_3484" data-name="Trazado 3484" d="M1038.6,735.387c0,.057,0,.117,0,.175a4.8,4.8,0,0,1-1.168,3.479c-.03.028-.062.055-.093.082a2.447,2.447,0,0,1-.2.147h0v0l-.107.067c-.035.02-.072.042-.11.062h0c-.037.02-.075.038-.115.057s-.08.037-.121.053-.083.032-.125.047l-.038.012v0a.335.335,0,0,0-.04.013l-.042.013v0c-.015,0-.03.008-.045.013v0a.238.238,0,0,0-.047.015l-.048.015h0v0l-.05.017-.053.017h0l-.055.018-.057.018-.122.04h0l-.062.02h0v0l-.065.02-.048.015c-.173.057-.367.118-.578.185l-.12.037c-.555.175-1.229.383-2,.617l-.243.073q-.2.063-.415.125l-.092.027-.13.04-.132.039-.133.04-.135.04-.135.04-.138.042-.138.04a0,0,0,0,0,0,0l-.14.04-.1.032a.186.186,0,0,0-.04.012l-.143.04q-.36.107-.736.215c-.144.044-.29.085-.439.129l-.383.11-.292.085-1.173.333-.242.068-.422.118-.385.108-.432.12c-4.8,1.332-10.615,2.825-16.009,3.91l-.567.114-.28.055-.562.107c-.558.107-1.112.208-1.657.3-.182.032-.362.063-.542.093l-.268.045-.534.088c-.176.028-.353.055-.528.082s-.347.053-.52.078-.345.052-.513.075l-.507.07-.5.065-.247.03c-.327.04-.65.077-.965.11-.08.008-.158.017-.237.023l-.465.045c-.307.027-.607.052-.9.07-.22.017-.437.028-.648.038-.142.008-.282.013-.42.018-.207.008-.41.013-.607.015-.265,0-.522,0-.768,0-.125,0-.247-.007-.367-.012-.06,0-.118,0-.178-.008-.118-.005-.233-.012-.347-.02l-.127-.01-.03,0c-.027,0-.055-.005-.083-.007-.106-.008-.218-.015-.338-.025l-.1-.007-.122-.01-.192-.013-.1-.008c-.035,0-.072,0-.107-.008-.073-.005-.147-.01-.222-.017l-.23-.017-.12-.008-.3-.023-.145-.012-.313-.023c-.045,0-.09-.005-.137-.01l-.4-.03-1.219-.092-.16-.013-.327-.023-.5-.038-.208-.017-.492-.037c-.06,0-.122-.01-.182-.013-.113-.01-.228-.018-.345-.027l-.38-.03-.2-.015-.19-.015c-.1-.007-.2-.015-.307-.023l-1.847-.14c-.094-.009-.185-.015-.28-.022-.142-.012-.285-.023-.43-.033-.333-.027-.675-.052-1.02-.078-.027,0-.053-.005-.08-.007l-.91-.07a.4.4,0,0,0-.043,0l-5.89-.457-.317-.025-1.278-.1-.813-.065a.428.428,0,0,1-.045,0l-.938-.073c-.038,0-.077-.007-.117-.008l-1.677-.132-.435-.035-.133-.01-1.5-.118c-.22-.017-.438-.033-.658-.052-.146-.012-.292-.023-.438-.033-.3-.025-.593-.048-.892-.072q-.67-.053-1.345-.107c-.04,0-.08-.006-.12-.008-.187-.017-.371-.03-.557-.045l-.04,0-1.668-.132-.047,0-.173-.013c-.328-.025-.658-.052-.988-.078-.248-.02-.5-.038-.748-.06-.155-.012-.31-.023-.465-.037-.648-.05-1.3-.1-1.952-.155l-.017,0-3.263-.263c-.15-.012-.3-.023-.448-.037l-.031,0-1.44-.117c-.148-.012-.3-.023-.443-.037l-1.24-.1q-1.26-.1-2.522-.207l-1.594-.13c-.333-.028-.666-.057-1-.083l-2.377-.2-.113-.01-1.485-.123-2.105-.177-.838-.07-.255-.021-1.683-.142-.247-.02-1.145-.1q-2.418-.205-4.742-.407c-.187-.015-.372-.032-.558-.048-.113-.01-.227-.02-.338-.028-.152-.015-.3-.027-.453-.04l-.9-.078c-5.765-.505-10.909-.98-14.879-1.383-.405-.04-.8-.08-1.177-.12-.943-.1-1.807-.192-2.583-.282-2.2-.248-3.7-.457-4.293-.607a44.456,44.456,0,0,1-11.854-5.154c-1.98-1.335-3.2-2.7-2.75-3.825a5.931,5.931,0,0,1,3.125-2.932c1.118-.553,2.262-.933,3.01-1.367l.127-.075a2.61,2.61,0,0,0,.363-.27c.017-.017.033-.03.053-.05a18.824,18.824,0,0,1,1.465-1.228,17.857,17.857,0,0,1,1.675-1.113.044.044,0,0,0,.01-.007c2.873-1.682,7.679-3.462,15-2.933,0,0,14.327,1.132,32.2,2.6h0c1.782.145,3.6.3,5.438.447h0l1.848.152,2.8.232h0l4.712.392c.315.027.632.053.948.078q.948.08,1.9.158l3.8.32q.945.08,1.89.158c2.25.19,4.487.38,6.694.57h.01c6.372.547,12.484,1.08,17.9,1.572h0l.854.077c3.182.29,6.11.563,8.692.813,1.235.122,2.392.237,3.458.345,3.864.393,6.559.71,7.61.913,2.732.528,5.785,1.022,8.572,1.435q.345.053.684.1a.238.238,0,0,0,.035,0c.345.052.685.1,1.02.148l.03.005,1.133.16c.538.075,1.055.145,1.544.212l.618.083c2.407.32,4.009.51,4.009.51s.01.043.025.123l.005.02c0,.022.008.045.013.072.008.052.02.112.03.18.015.09.031.193.047.31a0,0,0,0,0,0,0c0,.028.008.058.011.088.013.1.027.2.038.311.008.077.017.158.025.24,0,.045.008.092.012.138s.008.1.011.155q.008.113.015.23c0,.032,0,.063,0,.095,0,.055,0,.112.006.167,0,.03,0,.058,0,.087,0,.057,0,.115,0,.172C1038.6,735.327,1038.6,735.357,1038.6,735.387Z" transform="translate(-895.022 -708.044)" fill="#d7e2ff"/>
      <path id="Trazado_3485" data-name="Trazado 3485" d="M1397.714,761.672c0,.057,0,.117,0,.175a4.8,4.8,0,0,1-1.168,3.479c-.03.028-.062.055-.093.082-.063.052-.13.1-.2.147h0v0l-.107.067c-.035.02-.072.042-.11.062h0c-.037.02-.075.038-.115.057s-.08.037-.122.053-.083.032-.125.047l-.038.012v0a.386.386,0,0,0-.04.013l-.042.013v0a.429.429,0,0,0-.045.013v0a.236.236,0,0,0-.047.015l-.048.015h0v0l-.05.017-.053.017h0l-.055.018-.057.018-.122.04h0l-.062.02h0v0l-.065.02-.048.015c-.174.057-.367.118-.579.185l-.12.037c-.555.175-1.229.383-2,.617l-.243.073q-.2.063-.415.125l-.092.027-.13.04-.132.039-.134.04-.135.04-.135.04-.138.042-.138.04a0,0,0,0,0,0,0l-.14.04-.1.032a.19.19,0,0,0-.04.012l-.143.04q-.36.107-.737.215c-.144.043-.29.085-.438.128l-.384.11-.291.085-1.174.334-.242.068-.421.118-.385.108-.432.12c-4.8,1.332-10.615,2.825-16.009,3.91l-.567.113-.28.055-.562.107q-.838.16-1.656.3c-.182.032-.362.063-.542.093l-.268.045-.534.088c-.176.028-.353.055-.528.082s-.347.053-.52.078-.345.052-.513.075l-.507.07-.5.065-.247.03c-.327.04-.65.077-.965.11-.08.008-.158.017-.237.023l-.465.045c-.307.027-.607.052-.9.07-.22.017-.437.028-.648.038-.142.008-.282.013-.42.018-.207.008-.41.013-.607.015-.265,0-.521,0-.768,0-.125,0-.247-.007-.367-.012-.06,0-.118,0-.178-.008-.118-.005-.233-.012-.347-.02l-.127-.01-.03,0c-.027,0-.055-.005-.083-.007-.106-.008-.218-.015-.338-.025l-.1-.007-.122-.01-.192-.013-.1-.008c-.035,0-.072,0-.107-.008-.073-.005-.147-.01-.222-.017l-.23-.017-.12-.009-.3-.023c-.048,0-.1-.007-.145-.012l-.313-.023c-.045,0-.09-.005-.137-.01l-.4-.03-1.219-.092-.16-.013-.326-.023-.5-.039-.208-.017-.492-.037c-.06-.005-.122-.01-.182-.013-.113-.01-.228-.018-.345-.027l-.38-.03-.2-.015-.19-.015c-.1-.007-.2-.015-.306-.023l-1.847-.14c-.094-.008-.185-.015-.28-.022-.142-.012-.285-.023-.43-.033-.333-.027-.675-.052-1.02-.078-.027,0-.053-.005-.08-.007l-.91-.07a.426.426,0,0,0-.043,0l-5.89-.457-.317-.025-1.279-.1-.813-.065c-.015,0-.03,0-.045,0l-.938-.073c-.038,0-.077-.007-.117-.008-.552-.043-1.112-.088-1.677-.132l-.435-.035-.133-.01-1.5-.118c-.22-.017-.438-.033-.658-.052-.147-.012-.292-.023-.438-.033-.3-.025-.594-.048-.892-.072q-.67-.053-1.345-.107c-.04,0-.08-.007-.12-.008-.186-.017-.371-.03-.556-.045l-.04,0-1.668-.132-.046,0-.174-.013a35.673,35.673,0,0,0,16.131-19.007h.01c6.372.547,12.484,1.08,17.9,1.572h0l.854.077c3.182.29,6.11.563,8.692.814,1.235.121,2.392.237,3.458.345,3.864.393,6.559.71,7.61.913,2.732.528,5.785,1.022,8.572,1.435q.345.053.684.1a.273.273,0,0,0,.035,0c.345.052.685.1,1.02.148l.03.005,1.133.16c.538.075,1.055.145,1.544.212l.618.083c2.407.32,4.009.51,4.009.51s.01.043.025.123l0,.02c0,.022.008.045.013.072.008.052.02.112.03.18.015.09.031.193.046.31,0,0,0,0,0,0,0,.028.008.058.011.088.013.1.026.2.038.312.008.077.017.158.025.24,0,.045.008.092.012.138s.008.1.011.155c.005.075.01.152.015.23,0,.032,0,.063,0,.1,0,.055.005.112.007.167,0,.03,0,.058,0,.087,0,.057,0,.115,0,.172C1397.712,761.612,1397.712,761.642,1397.714,761.672Z" transform="translate(-1254.139 -734.329)" fill="#f99746"/>
      <path id="Trazado_3486" data-name="Trazado 3486" d="M1697.295,802.115c-.783.269-3.124,1.006-6.334,1.94a10.224,10.224,0,0,0-4.527-6.362l12.789-1.429C1699.435,797.849,1699.616,801.318,1697.295,802.115Z" transform="translate(-1555.765 -770.605)" fill="#e27727" opacity="0.5"/>
      <g id="Grupo_26673" data-name="Grupo 26673" transform="translate(24.597 18.804)">
        <path id="Trazado_3487" data-name="Trazado 3487" d="M1334.581,782.658h0a.811.811,0,0,1-.682-.917l.082-.9a.819.819,0,0,1,.837-.786h0a.811.811,0,0,1,.682.917l-.082.9A.819.819,0,0,1,1334.581,782.658Z" transform="translate(-1286.03 -775.874)" fill="#2b478b"/>
        <path id="Trazado_3488" data-name="Trazado 3488" d="M1310.855,780.609h0a.811.811,0,0,1-.682-.917l.082-.9a.819.819,0,0,1,.836-.785h0a.811.811,0,0,1,.682.916l-.082.9A.819.819,0,0,1,1310.855,780.609Z" transform="translate(-1266.222 -774.163)" fill="#2b478b"/>
        <path id="Trazado_3489" data-name="Trazado 3489" d="M1287.13,778.56h0a.81.81,0,0,1-.682-.917l.082-.9a.819.819,0,0,1,.836-.785h0a.811.811,0,0,1,.682.917l-.082.9A.819.819,0,0,1,1287.13,778.56Z" transform="translate(-1246.414 -772.452)" fill="#2b478b"/>
        <path id="Trazado_3490" data-name="Trazado 3490" d="M1263.4,776.511h0a.81.81,0,0,1-.682-.916l.082-.9a.819.819,0,0,1,.836-.786h0a.811.811,0,0,1,.682.917l-.082.9A.819.819,0,0,1,1263.4,776.511Z" transform="translate(-1226.606 -770.742)" fill="#2b478b"/>
        <path id="Trazado_3491" data-name="Trazado 3491" d="M1239.68,774.463h0a.811.811,0,0,1-.682-.917l.082-.9a.819.819,0,0,1,.836-.785h0a.811.811,0,0,1,.682.917l-.082.9A.819.819,0,0,1,1239.68,774.463Z" transform="translate(-1206.798 -769.032)" fill="#2b478b"/>
        <path id="Trazado_3492" data-name="Trazado 3492" d="M1215.954,772.414h0a.811.811,0,0,1-.682-.917l.082-.9a.818.818,0,0,1,.836-.785h0a.811.811,0,0,1,.682.917l-.082.9A.819.819,0,0,1,1215.954,772.414Z" transform="translate(-1186.99 -767.321)" fill="#2b478b"/>
        <path id="Trazado_3493" data-name="Trazado 3493" d="M1192.229,770.365h0a.811.811,0,0,1-.682-.917l.082-.9a.819.819,0,0,1,.837-.785h0a.81.81,0,0,1,.682.917l-.082.9A.819.819,0,0,1,1192.229,770.365Z" transform="translate(-1167.181 -765.611)" fill="#2b478b"/>
        <path id="Trazado_3494" data-name="Trazado 3494" d="M1168.5,768.316h0a.811.811,0,0,1-.682-.917l.082-.9a.819.819,0,0,1,.836-.786h0a.811.811,0,0,1,.682.917l-.082.9A.819.819,0,0,1,1168.5,768.316Z" transform="translate(-1147.373 -763.9)" fill="#2b478b"/>
        <path id="Trazado_3495" data-name="Trazado 3495" d="M1144.778,766.268h0a.81.81,0,0,1-.682-.917l.082-.9a.819.819,0,0,1,.836-.785h0a.81.81,0,0,1,.682.917l-.082.9A.819.819,0,0,1,1144.778,766.268Z" transform="translate(-1127.565 -762.19)" fill="#2b478b"/>
        <path id="Trazado_3496" data-name="Trazado 3496" d="M1121.526,764.26h0a.811.811,0,0,1-.682-.917l.082-.9a.819.819,0,0,1,.837-.785h0a.811.811,0,0,1,.682.917l-.082.9A.819.819,0,0,1,1121.526,764.26Z" transform="translate(-1108.152 -760.513)" fill="#2b478b"/>
        <path id="Trazado_3497" data-name="Trazado 3497" d="M1097.8,762.211h0a.811.811,0,0,1-.682-.917l.082-.9a.819.819,0,0,1,.837-.786h0a.811.811,0,0,1,.682.917l-.082.9A.819.819,0,0,1,1097.8,762.211Z" transform="translate(-1088.344 -758.803)" fill="#2b478b"/>
        <path id="Trazado_3498" data-name="Trazado 3498" d="M1074.075,760.162h0a.81.81,0,0,1-.682-.916l.082-.9a.819.819,0,0,1,.836-.785h0a.81.81,0,0,1,.682.916l-.082.9A.818.818,0,0,1,1074.075,760.162Z" transform="translate(-1068.537 -757.092)" fill="#2b478b"/>
        <path id="Trazado_3499" data-name="Trazado 3499" d="M1044.684,757.348h0a.811.811,0,0,1-.682-.917l.082-.9a.819.819,0,0,1,.836-.785h0a.81.81,0,0,1,.682.917l-.082.9A.819.819,0,0,1,1044.684,757.348Z" transform="translate(-1043.997 -754.743)" fill="#2b478b"/>
      </g>
      <g id="Grupo_26674" data-name="Grupo 26674" transform="translate(107.367 26.454)">
        <path id="Trazado_3500" data-name="Trazado 3500" d="M1593.444,807.778h0a.811.811,0,0,1-.683-.917l.082-.9a.819.819,0,0,1,.836-.785h0a.811.811,0,0,1,.682.917l-.082.9A.819.819,0,0,1,1593.444,807.778Z" transform="translate(-1584.923 -804.496)" fill="#2b478b"/>
        <path id="Trazado_3501" data-name="Trazado 3501" d="M1569.72,805.729h0a.811.811,0,0,1-.682-.917l.082-.9a.819.819,0,0,1,.837-.785h0a.81.81,0,0,1,.682.917l-.082.9A.819.819,0,0,1,1569.72,805.729Z" transform="translate(-1565.116 -802.785)" fill="#2b478b"/>
        <path id="Trazado_3502" data-name="Trazado 3502" d="M1545.994,803.68h0a.811.811,0,0,1-.682-.917l.082-.9a.819.819,0,0,1,.837-.785h0a.811.811,0,0,1,.682.917l-.082.9A.819.819,0,0,1,1545.994,803.68Z" transform="translate(-1545.307 -801.075)" fill="#2b478b"/>
      </g>
      <path id="Trazado_3503" data-name="Trazado 3503" d="M937.784,739.719l-2.671,2.52-1.594.1a2.566,2.566,0,0,0,.364-.27c.018-.016.034-.031.054-.05a18.631,18.631,0,0,1,1.464-1.228,17.934,17.934,0,0,1,1.676-1.114l.01-.006Z" transform="translate(-927.163 -723.358)" fill="#2b478b"/>
      <path id="Trazado_3504" data-name="Trazado 3504" d="M949.687,740.5l-2.608,2.544,2.961.628.935-2.9Z" transform="translate(-938.484 -724.049)" fill="#2b478b"/>
      <path id="Trazado_3505" data-name="Trazado 3505" d="M968.881,742.673l-.688,2.728,2.194-.624.141-1.9Z" transform="translate(-956.112 -725.862)" fill="#2b478b"/>
      <path id="Trazado_3506" data-name="Trazado 3506" d="M1270.016,843.269a2.148,2.148,0,0,0,.5-3.312,6.514,6.514,0,0,0-3.719-1.828c-3.012-.218-1.789,5.914-.79,6.041A12.12,12.12,0,0,0,1270.016,843.269Z" transform="translate(-1203.825 -805.554)" fill="#2b478b"/>
      <path id="Trazado_3507" data-name="Trazado 3507" d="M1683.784,784.12c.121-.163,11.332-3.859,18.659-2.251l-7.057,4.443-11.345-.975A.752.752,0,0,1,1683.784,784.12Z" transform="translate(-1553.373 -758.248)" fill="#355daf"/>
      <path id="Trazado_3508" data-name="Trazado 3508" d="M1314.79,640.854s-7.5,16.584-8.933,19.1a12.526,12.526,0,0,1-4.551,4.124l-.018.007-19.884,8.078s-24.8-1.957-30.2-2.552h0c-.489-.054-.82-.1-.956-.127-1.64-.349-2.407-1.11-2.092-1.708s38.446-5.171,42.668-5.641l.12-.013c4.109-.484,4.491-1.883,4.491-1.883l15.732-18.031a2.159,2.159,0,0,1,.912-.773A7.373,7.373,0,0,1,1314.79,640.854Z" transform="translate(-1189.792 -640.854)" fill="#d7e2ff"/>
      <path id="Trazado_3509" data-name="Trazado 3509" d="M1312.079,644.382c-4.234,5.139-15.944,19.309-17.055,20.274-1.2,1.038-35.412,6.538-43.819,7.9h0c-.489-.054-.82-.1-.956-.127-1.64-.349-2.407-1.11-2.092-1.708s38.446-5.171,42.668-5.641,4.612-1.9,4.612-1.9l15.732-18.031A2.157,2.157,0,0,1,1312.079,644.382Z" transform="translate(-1189.792 -643.8)" fill="#739af0"/>
      <path id="Trazado_3510" data-name="Trazado 3510" d="M1531.505,640.854s-7.5,16.584-8.933,19.1a12.528,12.528,0,0,1-4.551,4.124l-.019.007a33.068,33.068,0,0,1-10.343-1.963c4.109-.484,4.491-1.883,4.491-1.883l15.732-18.031a2.158,2.158,0,0,1,.912-.773A7.375,7.375,0,0,1,1531.505,640.854Z" transform="translate(-1406.508 -640.854)" fill="#d7e2ff"/>
      <path id="Trazado_3511" data-name="Trazado 3511" d="M1198.527,818.381l-.755,8.365a22.776,22.776,0,0,1-8.2.884,17.767,17.767,0,0,1-6.219-1.33,6.589,6.589,0,0,1-1.052-.558l.791-8.77a2.878,2.878,0,0,1,1.151-.536c3.951-1.013,13.667,1.606,13.667,1.606Z" transform="translate(-1134.872 -787.252)" fill="#e9f0ff"/>
      <path id="Trazado_3512" data-name="Trazado 3512" d="M1184.247,817.615l-.89,9.864a6.589,6.589,0,0,1-1.052-.558l.791-8.77A2.878,2.878,0,0,1,1184.247,817.615Z" transform="translate(-1134.872 -788.43)" fill="#ff9843"/>
    </g>
    <g id="Grupo_26676" data-name="Grupo 26676" transform="translate(305.369 259.718)">
      <path id="Trazado_3513" data-name="Trazado 3513" d="M716.328,1018.791l58.748-15.681c1.244-.332,2.07-1.325,1.835-2.206l-32.94-123.837c-.234-.881-1.444-1.331-2.688-1l-58.748,15.681c-1.244.332-2.07,1.325-1.835,2.206l32.94,123.837C713.875,1018.673,715.084,1019.123,716.328,1018.791Z" transform="translate(-680.661 -875.958)" fill="#ffe3ca"/>
      <path id="Trazado_3514" data-name="Trazado 3514" d="M716.328,1092.119l4.83-1.289L687.366,963.788l-4.83,1.289c-1.244.332-2.07,1.325-1.835,2.206l32.94,123.837C713.875,1092,715.084,1092.451,716.328,1092.119Z" transform="translate(-680.661 -949.287)" fill="#f2be8f"/>
      <rect id="Rectángulo_4601" data-name="Rectángulo 4601" width="38.468" height="7.802" transform="matrix(0.257, 0.966, -0.966, 0.257, 42.977, 18.945)" fill="#eabc92" opacity="0.5"/>
      <rect id="Rectángulo_4602" data-name="Rectángulo 4602" width="54.753" height="7.802" transform="translate(59.698 14.482) rotate(75.105)" fill="#eabc92" opacity="0.5"/>
      <rect id="Rectángulo_4603" data-name="Rectángulo 4603" width="27.377" height="1.739" transform="matrix(0.257, 0.966, -0.966, 0.257, 50.242, 17.003)" fill="#f2be8f"/>
      <rect id="Rectángulo_4604" data-name="Rectángulo 4604" width="27.377" height="1.739" transform="translate(33.63 21.437) rotate(75.105)" fill="#f2be8f"/>
      <path id="Trazado_3515" data-name="Trazado 3515" d="M777.367,1022.013l.158.434a.177.177,0,0,0,.022.042l2.088,3.017a.188.188,0,0,1,.032.127l-.154,5.328c-.015.141-.625-.461-.742-.541-1.267-.873-4.658-3.861-6.074-4.933a.324.324,0,0,0-.517.294.705.705,0,0,0,.156.371l4.888,5.96-.259,1.124a.305.305,0,0,0,.229.365l.871.2a.306.306,0,0,0,.363-.22l.63.768a.187.187,0,0,1,.042.13l-.313,4.837a1.855,1.855,0,0,0,.344,1.2l.313.434a.633.633,0,0,0,.906.125l.142-.112a1.978,1.978,0,0,0,.752-1.51l.082-3.862a.187.187,0,0,1,.121-.171l1.463-.55-.055.239a.3.3,0,0,0,.228.365l.871.2a.306.306,0,0,0,.365-.229l.278-1.208,2.283-.857a1,1,0,0,0,.459-.351c.147-.2.311-.422.271-.464a49.881,49.881,0,0,0-5.793-.469c-.09,0-.076-.76-.075-.849l-.215-5.15a.187.187,0,0,1,.1-.161l1.284-.684a.717.717,0,0,0,.321-.349l0-.006a.186.186,0,0,0-.127-.255l-2.037-.5a.187.187,0,0,1-.13-.114l-.192-.494a.187.187,0,0,0-.344-.009l-.074.163-2.679-1.892A.187.187,0,0,0,777.367,1022.013Z" transform="translate(-757.067 -997.688)" fill="#f2be8f"/>
    </g>
    <g id="Grupo_26681" data-name="Grupo 26681" transform="translate(306.012 310.174)">
      <rect id="Rectángulo_4605" data-name="Rectángulo 4605" width="82.685" height="106.896" rx="7" transform="translate(0)" fill="#739af0"/>
      <g id="Grupo_26677" data-name="Grupo 26677" transform="translate(10.549 7.736)">
        <path id="Trazado_3516" data-name="Trazado 3516" d="M750.012,1234.82v3.348h-1.566v-9.011h3.448a4.213,4.213,0,0,1,1.4.214,2.963,2.963,0,0,1,1.031.6,2.545,2.545,0,0,1,.641.91,2.942,2.942,0,0,1,.22,1.145,3,3,0,0,1-.22,1.176,2.326,2.326,0,0,1-.641.879,2.913,2.913,0,0,1-1.031.551,4.649,4.649,0,0,1-1.4.192Zm0-1.256h1.881a2.4,2.4,0,0,0,.777-.112,1.41,1.41,0,0,0,.535-.316,1.215,1.215,0,0,0,.306-.486,1.9,1.9,0,0,0,.1-.616,1.921,1.921,0,0,0-.1-.607,1.393,1.393,0,0,0-.306-.517,1.491,1.491,0,0,0-.535-.359,2.048,2.048,0,0,0-.777-.133h-1.881Z" transform="translate(-748.446 -1229.033)" fill="#aec3ff"/>
        <path id="Trazado_3517" data-name="Trazado 3517" d="M791.82,1236.071h-3.491l-.73,2.1h-1.628l3.4-9.011h1.405l3.41,9.011h-1.634Zm-3.052-1.263h2.612l-1.306-3.738Z" transform="translate(-779.775 -1229.033)" fill="#aec3ff"/>
        <path id="Trazado_3518" data-name="Trazado 3518" d="M844.333,1235.222a1.374,1.374,0,0,0-.081-.486.961.961,0,0,0-.294-.393,2.449,2.449,0,0,0-.588-.344,9.1,9.1,0,0,0-.962-.344,9.245,9.245,0,0,1-1.188-.439,4.1,4.1,0,0,1-.938-.576,2.46,2.46,0,0,1-.616-.755,2.083,2.083,0,0,1-.223-.978,2.187,2.187,0,0,1,.232-1,2.376,2.376,0,0,1,.653-.792,3.1,3.1,0,0,1,1.009-.52,4.3,4.3,0,0,1,1.3-.186,4,4,0,0,1,1.368.22,3.064,3.064,0,0,1,1.024.6,2.605,2.605,0,0,1,.641.876,2.573,2.573,0,0,1,.223,1.062h-1.56a1.72,1.72,0,0,0-.1-.6,1.253,1.253,0,0,0-.313-.477,1.441,1.441,0,0,0-.532-.313,2.329,2.329,0,0,0-.761-.111,2.461,2.461,0,0,0-.718.093,1.431,1.431,0,0,0-.5.26,1.023,1.023,0,0,0-.3.4,1.268,1.268,0,0,0-.1.5.993.993,0,0,0,.473.835,5.041,5.041,0,0,0,1.445.619,8.426,8.426,0,0,1,1.318.5,3.779,3.779,0,0,1,.925.616,2.23,2.23,0,0,1,.548.773,2.5,2.5,0,0,1,.179.969,2.274,2.274,0,0,1-.226,1.025,2.188,2.188,0,0,1-.644.774,3.018,3.018,0,0,1-1.012.489,4.8,4.8,0,0,1-1.325.17,4.736,4.736,0,0,1-1.281-.177,3.618,3.618,0,0,1-1.133-.532,2.772,2.772,0,0,1-.808-.888,2.463,2.463,0,0,1-.306-1.25h1.566a1.637,1.637,0,0,0,.152.733,1.365,1.365,0,0,0,.415.5,1.737,1.737,0,0,0,.622.285,3.17,3.17,0,0,0,.774.09,1.931,1.931,0,0,0,1.229-.331A1.068,1.068,0,0,0,844.333,1235.222Z" transform="translate(-824.187 -1228.407)" fill="#aec3ff"/>
        <path id="Trazado_3519" data-name="Trazado 3519" d="M890.666,1235.222a1.371,1.371,0,0,0-.081-.486.956.956,0,0,0-.294-.393,2.447,2.447,0,0,0-.588-.344,9.083,9.083,0,0,0-.962-.344,9.261,9.261,0,0,1-1.189-.439,4.1,4.1,0,0,1-.937-.576,2.464,2.464,0,0,1-.616-.755,2.083,2.083,0,0,1-.223-.978,2.187,2.187,0,0,1,.232-1,2.377,2.377,0,0,1,.653-.792,3.105,3.105,0,0,1,1.009-.52,4.3,4.3,0,0,1,1.3-.186,4,4,0,0,1,1.368.22,3.064,3.064,0,0,1,1.025.6,2.6,2.6,0,0,1,.64.876,2.571,2.571,0,0,1,.223,1.062h-1.56a1.726,1.726,0,0,0-.1-.6,1.257,1.257,0,0,0-.312-.477,1.441,1.441,0,0,0-.532-.313,2.331,2.331,0,0,0-.761-.111,2.461,2.461,0,0,0-.718.093,1.433,1.433,0,0,0-.5.26,1.027,1.027,0,0,0-.3.4,1.265,1.265,0,0,0-.1.5.993.993,0,0,0,.474.835,5.037,5.037,0,0,0,1.445.619,8.435,8.435,0,0,1,1.318.5,3.771,3.771,0,0,1,.925.616,2.231,2.231,0,0,1,.548.773,2.5,2.5,0,0,1,.179.969,2.272,2.272,0,0,1-.226,1.025,2.19,2.19,0,0,1-.644.774,3.017,3.017,0,0,1-1.012.489,4.8,4.8,0,0,1-1.325.17,4.736,4.736,0,0,1-1.281-.177,3.62,3.62,0,0,1-1.133-.532,2.771,2.771,0,0,1-.808-.888,2.462,2.462,0,0,1-.306-1.25h1.566a1.632,1.632,0,0,0,.152.733,1.364,1.364,0,0,0,.415.5,1.736,1.736,0,0,0,.622.285,3.169,3.169,0,0,0,.773.09,1.932,1.932,0,0,0,1.229-.331A1.068,1.068,0,0,0,890.666,1235.222Z" transform="translate(-862.87 -1228.407)" fill="#aec3ff"/>
        <path id="Trazado_3520" data-name="Trazado 3520" d="M936.171,1234.82v3.348h-1.566v-9.011h3.448a4.213,4.213,0,0,1,1.4.214,2.966,2.966,0,0,1,1.031.6,2.546,2.546,0,0,1,.64.91,2.94,2.94,0,0,1,.22,1.145,2.992,2.992,0,0,1-.22,1.176,2.327,2.327,0,0,1-.64.879,2.915,2.915,0,0,1-1.031.551,4.649,4.649,0,0,1-1.4.192Zm0-1.256h1.882a2.4,2.4,0,0,0,.777-.112,1.413,1.413,0,0,0,.535-.316,1.217,1.217,0,0,0,.306-.486,1.9,1.9,0,0,0,.1-.616,1.928,1.928,0,0,0-.1-.607,1.394,1.394,0,0,0-.306-.517,1.5,1.5,0,0,0-.535-.359,2.049,2.049,0,0,0-.777-.133h-1.882Z" transform="translate(-903.869 -1229.033)" fill="#aec3ff"/>
        <path id="Trazado_3521" data-name="Trazado 3521" d="M989.428,1233.272a5.854,5.854,0,0,1-.269,1.841,4.014,4.014,0,0,1-.758,1.38,3.285,3.285,0,0,1-1.176.87,3.958,3.958,0,0,1-3.039,0,3.375,3.375,0,0,1-1.185-.87,4,4,0,0,1-.774-1.38,5.725,5.725,0,0,1-.275-1.841v-.458a5.755,5.755,0,0,1,.275-1.844,4.1,4.1,0,0,1,.768-1.386,3.3,3.3,0,0,1,1.179-.873,3.714,3.714,0,0,1,1.516-.3,3.752,3.752,0,0,1,1.526.3,3.3,3.3,0,0,1,1.182.873,4.017,4.017,0,0,1,.761,1.386,5.884,5.884,0,0,1,.269,1.844Zm-1.566-.471a5.5,5.5,0,0,0-.146-1.334,2.846,2.846,0,0,0-.424-.969,1.838,1.838,0,0,0-.684-.591,2.038,2.038,0,0,0-.919-.2,1.99,1.99,0,0,0-.9.2,1.868,1.868,0,0,0-.684.591,2.887,2.887,0,0,0-.433.969,5.282,5.282,0,0,0-.152,1.334v.471a5.317,5.317,0,0,0,.152,1.337,2.885,2.885,0,0,0,.436.975,1.873,1.873,0,0,0,.69.594,2.011,2.011,0,0,0,.907.2,1.842,1.842,0,0,0,1.6-.792,3.993,3.993,0,0,0,.56-2.315Z" transform="translate(-943.397 -1228.407)" fill="#aec3ff"/>
        <path id="Trazado_3522" data-name="Trazado 3522" d="M1039.993,1234.7h-1.745v3.472h-1.566v-9.011h3.169a4.935,4.935,0,0,1,1.38.177,2.841,2.841,0,0,1,1.024.52,2.208,2.208,0,0,1,.634.851,2.977,2.977,0,0,1,.217,1.176,2.533,2.533,0,0,1-.436,1.513,2.778,2.778,0,0,1-1.216.938l2.024,3.757v.08H1041.8Zm-1.745-1.256h1.609a2.207,2.207,0,0,0,.736-.111,1.465,1.465,0,0,0,.526-.31,1.261,1.261,0,0,0,.316-.47,1.654,1.654,0,0,0,.105-.6,1.889,1.889,0,0,0-.1-.628,1.25,1.25,0,0,0-.3-.483,1.352,1.352,0,0,0-.523-.31,2.392,2.392,0,0,0-.764-.108h-1.6Z" transform="translate(-989.092 -1229.033)" fill="#aec3ff"/>
        <path id="Trazado_3523" data-name="Trazado 3523" d="M1086,1230.42h-2.81v7.749h-1.553v-7.749h-2.785v-1.263H1086Z" transform="translate(-1024.302 -1229.033)" fill="#aec3ff"/>
      </g>
      <g id="Grupo_26678" data-name="Grupo 26678" transform="translate(25.608 93.976)">
        <path id="Trazado_3524" data-name="Trazado 3524" d="M906.431,1752.177H894a.725.725,0,0,1-.725-.725h0a.725.725,0,0,1,.725-.725h12.426a.725.725,0,0,1,.725.725h0A.725.725,0,0,1,906.431,1752.177Z" transform="translate(-884.426 -1750.727)" fill="#aec3ff"/>
        <path id="Trazado_3525" data-name="Trazado 3525" d="M870.514,1773.1H840.38a.725.725,0,0,1-.725-.725h0a.725.725,0,0,1,.725-.725h30.134a.725.725,0,0,1,.724.725h0A.725.725,0,0,1,870.514,1773.1Z" transform="translate(-839.655 -1768.194)" fill="#aec3ff"/>
      </g>
      <g id="Grupo_26679" data-name="Grupo 26679" transform="translate(11.926 25.918)">
        <path id="Trazado_3526" data-name="Trazado 3526" d="M786.262,1397.474a29.474,29.474,0,1,1,20.841-8.633A29.281,29.281,0,0,1,786.262,1397.474Zm0-58.623a29.149,29.149,0,1,0,20.612,8.538A28.959,28.959,0,0,0,786.262,1338.851Z" transform="translate(-756.788 -1338.527)" fill="#aec3ff"/>
      </g>
      <path id="Trazado_3527" data-name="Trazado 3527" d="M839.427,1397.537a23.783,23.783,0,0,1-.382,4.257,23.64,23.64,0,0,1-44.865,5.311,23.233,23.233,0,0,1-1.2-3.4,23.8,23.8,0,0,1-.278-11.2c0-.019.008-.037.012-.055a23.7,23.7,0,0,1,9.224-14.059q.729-.528,1.5-1A23.506,23.506,0,0,1,815.8,1373.9q.9,0,1.786.067a23.474,23.474,0,0,1,11.7,4.16h0a23.721,23.721,0,0,1,6.482,6.769q.543.858,1.014,1.762a23.527,23.527,0,0,1,2.644,10.875Z" transform="translate(-774.396 -1342.145)" fill="#aec3ff"/>
      <g id="Grupo_26680" data-name="Grupo 26680" transform="translate(18.303 35.026)">
        <path id="Trazado_3528" data-name="Trazado 3528" d="M810.478,1404.6c-.943,1.493.394,4.087-2.436,3.38s-4.559-1.022-4.715.549,2.122,1.573,2.122,3.223-1.022,2.2-2.593,1.412-2.024-1.924-3.851-1.216-2.888.236-3.3-1.179a2.071,2.071,0,0,0-.293-.619c0-.019.008-.037.012-.055a23.7,23.7,0,0,1,9.224-14.059q.729-.529,1.5-1a3.109,3.109,0,0,1,2.368,1.236c1.65,2.044,2.75,1.022,2.358,3.38s.236,2.673,1.571,2.594,2.908-.079,3.065.943S811.421,1403.1,810.478,1404.6Z" transform="translate(-795.41 -1394.809)" fill="#94b0ed"/>
        <path id="Trazado_3529" data-name="Trazado 3529" d="M884.53,1515.728s-2.083.668-2.633-.786.078-1.768-1.768-2.2-2-1.69-3.183-1.533-.589.629-1.965,1.651-2.633.55-2.593,2.436,2.083,2.181,2.5,3.418-.295,1.768.589,2.711,2.534.531,1.768,1.827-1.945,2.3-1.356,4.3.177,2.122,1.179,3.537,2.947,1.886,3.242.943-1.356-2.181-.825-3.124,1.415-.295,1.768-1.709,1.788-1.415,1.906-2.4-1.729-2.476-1.021-3.1,2.122,1.14,3.222-.432.354-2.829,1.493-4.323S885.316,1514.863,884.53,1515.728Z" transform="translate(-859.678 -1491.794)" fill="#94b0ed"/>
        <path id="Trazado_3530" data-name="Trazado 3530" d="M986.222,1466.669a23.783,23.783,0,0,1-.382,4.257,23.5,23.5,0,0,1-3.73,9.066,2.7,2.7,0,0,1-1.89-.051c-2.947-1.179-.766-4.362.413-5.953s-1.827-.884-4.008-2.358.236-5.423-2-4.774-4.951,1.473-6.248-.707,1.179-2.535.059-4.362.648-2.888,2.888-3.065,1.945-1.769,4.715-2,2.711,3.3,5.776,3.065,2.927.471,2.927.471a1.43,1.43,0,0,1,.64.135A23.674,23.674,0,0,1,986.222,1466.669Z" transform="translate(-939.493 -1446.302)" fill="#94b0ed"/>
        <path id="Trazado_3531" data-name="Trazado 3531" d="M989.977,1408.036c-2.549,1.24-3.572-2.133-5.75-1.119-2.2,1.022-1.812-.943-3.54-2.2s-5.187,1.022-5.03-.943,2.75-1.415,3.3-2.986,3.065-1.179,3.065-1.179a1.7,1.7,0,0,1,.457-.1s0,0,0,0a23.716,23.716,0,0,1,6.482,6.769Q989.506,1407.131,989.977,1408.036Z" transform="translate(-945.892 -1398.544)" fill="#94b0ed"/>
        <path id="Trazado_3532" data-name="Trazado 3532" d="M900.891,1396.4s1.336-1.927-.786-2.5-2.083.176-3.733,0-2.3,1.1-1.061,2.5,2.24,4.072,3.36,2.645S899.575,1396.542,900.891,1396.4Z" transform="translate(-878.279 -1393.691)" fill="#94b0ed"/>
      </g>
    </g>
  </g>
</svg>
