<svg xmlns="http://www.w3.org/2000/svg" width="175.748" height="40.935" viewBox="0 0 175.748 40.935">
  <g id="worldspan" transform="translate(-8.504 -73.783)" style="isolation: isolate">
    <path id="Trazado_2816" data-name="Trazado 2816" d="M71.455,85.762l.091-.55h.367c.275,0,.458.092.367.275,0,.183-.184.275-.458.275Zm.274.367.458.824h.274L72,86.036q.55-.137.55-.549.138-.549-.55-.55h-.825L71,86.953h.275l.092-.824h.367Zm-1.649-.184a1.458,1.458,0,0,0,1.466,1.741,1.928,1.928,0,0,0,1.925-1.741A1.466,1.466,0,0,0,72.005,84.2,1.875,1.875,0,0,0,70.08,85.945Zm.275,0c.183-1,.685-1.466,1.558-1.466a1.266,1.266,0,0,1,1.282,1.466,1.531,1.531,0,0,1-1.649,1.466,1.252,1.252,0,0,1-1.191-1.466ZM26.921,90.8l.826,11,4.764-11H39.2L30.312,108.67H23.44l-.917-10.446-4.4,10.446H11.253L8.5,90.8h6.964l.733,11h.091l4.673-11Zm142.212,0-.457,2.749a9.083,9.083,0,0,1,6.6-3.207c4.582,0,6.416,2.565,5.5,7.605l-1.832,10.721h-7.057l1.65-9.438c.367-2.29-.275-3.39-1.924-3.39-1.832,0-2.932,1.282-3.391,3.757l-1.648,9.071h-7.057L162.718,90.8h6.415Zm11.179,17.868.641-2.841h3.3l-.551,2.841h-3.389Z" fill="#3371ab" fill-rule="evenodd"/>
    <path id="Trazado_2817" data-name="Trazado 2817" d="M120.477,81.456a117.688,117.688,0,0,1,18.877-4.032c10.537-1.375,18.967-1.466,25.2-.458,4.949.825,7.789,2.108,8.432,3.94q.686,2.063-1.375,4.4l-2.658,2.475c4.766-2.475,6.873-5.131,6.322-7.789-.457-1.924-2.016-3.482-4.672-4.49-5.59-2.107-15.3-2.292-29.047-.458a109.246,109.246,0,0,0-21.625,5.131c-6.049,2.2-10.08,4.124-12.1,5.864a73.248,73.248,0,0,1,12.645-4.581Z" fill="#f2ca44" fill-rule="evenodd"/>
    <path id="Trazado_2818" data-name="Trazado 2818" d="M56.793,99.6c.641-3.391-.184-5.865-2.382-7.514a16,16,0,0,0-6.14,3.116,4.68,4.68,0,0,0-1.558,5.406c.733,1.924,3.115,3.665,7.056,5.131A11.468,11.468,0,0,0,56.793,99.6Z" fill="#3371ab" fill-rule="evenodd"/>
    <path id="Trazado_2819" data-name="Trazado 2819" d="M48.271,90.344a12.1,12.1,0,0,0-7.7,2.474,10.65,10.65,0,0,0-4.032,7.056c-.55,2.933,0,5.223,1.649,6.964,1.558,1.559,3.848,2.291,6.781,2.291l3.39-.366c-3.116-1.558-5.131-3.666-5.956-6.506q-.825-2.888,1.924-6.048c2.016-2.474,5.04-4.032,8.98-4.856a12.01,12.01,0,0,0-5.039-1.009Zm23.092,0c-2.657,0-4.765,1.374-6.231,4.123l.641-3.665H59.268l-2.749,15.761,6.872,1.374.917-5.5q.963-5.222,5.223-5.223L71,97.491l1.191-7.056-.825-.091Zm3.3-6.232L70.355,108.67H77.5l4.307-24.558ZM83.458,93a13.187,13.187,0,0,0-3.482,7.056,9.813,9.813,0,0,0,.458,5.5,5.513,5.513,0,0,0,3.482,3.207l14.662-1.1,4.123-23.55H95.645l-1.466,8.522a5.357,5.357,0,0,0-4.856-2.291A8.113,8.113,0,0,0,83.458,93Zm3.665,6.964c.458-2.841,1.649-4.215,3.666-4.215,2.107,0,2.84,1.375,2.291,4.124-.458,2.749-1.833,4.124-3.94,4.124-1.925,0-2.566-1.376-2.017-4.033Zm18.326-8.43a6.2,6.2,0,0,0-3.574,4.673c-.457,2.657,1.008,4.4,4.49,5.223l3.574.825c1.1.274,1.559.733,1.467,1.374q-.276,1.65-2.475,1.649a2.566,2.566,0,0,1-1.65-.55,1.663,1.663,0,0,1-.457-1.649h-6.781a4.727,4.727,0,0,0,1.559,4.307l4.488-.55L117.912,105a5.8,5.8,0,0,0,.732-2.108c.457-2.565-1.1-4.306-4.674-5.314l-3.756-.915c-1.1-.276-1.559-.734-1.467-1.192.092-.824.824-1.282,2.2-1.282a1.659,1.659,0,0,1,1.283.458,1.535,1.535,0,0,1,.549,1.283h6.416c.273-3.757-2.291-5.589-7.881-5.589a13.4,13.4,0,0,0-5.864,1.189ZM121.3,90.8l-2.381,14.02,8.338-1.741a4.2,4.2,0,0,1-.551-3.481,6.662,6.662,0,0,1,1.283-2.932,3.044,3.044,0,0,1,2.291-1.1c2.107,0,2.84,1.375,2.383,4.124a5.064,5.064,0,0,1-.916,2.29l7.971-2.107V99.6a9.364,9.364,0,0,0-.824-6.506q-1.65-2.75-5.5-2.749a8.594,8.594,0,0,0-3.3.733,6.637,6.637,0,0,0-2.84,2.382l.459-2.657H121.3Zm17.685,11.546a178.55,178.55,0,0,1-20.617,5.039l-1.191,7.331h7.057l1.373-7.881a4.444,4.444,0,0,0,4.125,2.291,9.452,9.452,0,0,0,5.223-1.558,10.143,10.143,0,0,0,4.03-5.222Zm13.2-12c-6.506,0-10.08,2.016-10.812,5.956h6.871c.275-1.191,1.191-1.741,2.75-1.741,1.1,0,1.74.275,2.016.825q3.289-1.336,6.506-2.84c-1.009-1.467-3.392-2.2-7.331-2.2Zm0,10.354q-.412,4.4-3.85,4.4c-1.465,0-2.107-.458-2.016-1.466q.276-1.374,2.2-1.924Zm-.643,7.972h7.332V108.3a2.974,2.974,0,0,1-.551-2.291l1.559-8.339a11.145,11.145,0,0,0,0-4.307,94.429,94.429,0,0,1-20.434,8.889l-.367,1.466a4.3,4.3,0,0,0,1.191,4.123,6.335,6.335,0,0,0,4.123,1.283,11.368,11.368,0,0,0,7.146-2.383v1.925h0Z" fill="#3371ab" fill-rule="evenodd"/>
  </g>
</svg>
