<svg xmlns="http://www.w3.org/2000/svg" width="328" height="443" viewBox="0 0 328 443">
  <g id="Grupo_31691" data-name="Grupo 31691" transform="translate(-559 -4641)">
    <path id="Trazado_33965" data-name="Trazado 33965" d="M0,0H328V46H0Z" transform="translate(559 4761)" fill="#e9f4ff"/>
    <path id="Trazado_33959" data-name="Trazado 33959" d="M0,0H328V46H0Z" transform="translate(559 4853)" fill="#e9f4ff"/>
    <path id="Trazado_33950" data-name="Trazado 33950" d="M0,0H328V46H0Z" transform="translate(559 4945)" fill="#e9f4ff"/>
    <path id="Trazado_33946" data-name="Trazado 33946" d="M0,0H328V46H0Z" transform="translate(559 5037)" fill="#e9f4ff"/>
    <path id="Trazado_33968" data-name="Trazado 33968" d="M0,0H328V46H0Z" transform="translate(559 4715)" fill="#f3f9ff"/>
    <path id="Trazado_33962" data-name="Trazado 33962" d="M0,0H328V46H0Z" transform="translate(559 4807)" fill="#f3f9ff"/>
    <path id="Trazado_33956" data-name="Trazado 33956" d="M0,0H328V46H0Z" transform="translate(559 4899)" fill="#f3f9ff"/>
    <path id="Trazado_33948" data-name="Trazado 33948" d="M0,0H328V46H0Z" transform="translate(559 4991)" fill="#f3f9ff"/>
    <path id="Trazado_33958" data-name="Trazado 33958" d="M8.675-5.15H3.99V0H1.02V-12.8H9.571v2.285H3.99v3.076H8.675Z" transform="translate(593 4928)" fill="#111e61"/>
    <path id="Trazado_33953" data-name="Trazado 33953" d="M11.654-5.247a5.347,5.347,0,0,1-1.5,3.9A5.23,5.23,0,0,1,6.24.185,5.3,5.3,0,0,1,2.294-1.349a5.322,5.322,0,0,1-1.512-3.9v-2.3A5.334,5.334,0,0,1,2.29-11.443a5.262,5.262,0,0,1,3.933-1.538,5.255,5.255,0,0,1,3.92,1.538A5.326,5.326,0,0,1,11.654-7.55ZM8.692-7.567a3.7,3.7,0,0,0-.646-2.25A2.131,2.131,0,0,0,6.223-10.7a2.138,2.138,0,0,0-1.841.875,3.734,3.734,0,0,0-.637,2.254v2.32A3.733,3.733,0,0,0,4.39-2.979,2.157,2.157,0,0,0,6.24-2.1a2.11,2.11,0,0,0,1.811-.879,3.751,3.751,0,0,0,.642-2.268ZM20.065-3.393a1.276,1.276,0,0,0-.448-1.05,5.814,5.814,0,0,0-1.626-.778,12.342,12.342,0,0,1-3.538-1.648A2.967,2.967,0,0,1,13.3-9.387a3.087,3.087,0,0,1,1.345-2.6,5.6,5.6,0,0,1,3.419-.993,5.641,5.641,0,0,1,3.524,1.024A3.319,3.319,0,0,1,22.878-9.07l-.018.053H19.978a1.614,1.614,0,0,0-.492-1.314A2.286,2.286,0,0,0,18-10.74a1.906,1.906,0,0,0-1.274.4,1.231,1.231,0,0,0-.466.976,1.051,1.051,0,0,0,.479.9,9.352,9.352,0,0,0,1.789.848,9.531,9.531,0,0,1,3.366,1.608,3.2,3.2,0,0,1,1.143,2.6A3.078,3.078,0,0,1,21.718-.769a5.841,5.841,0,0,1-3.5.954A6.392,6.392,0,0,1,14.542-.839a3.525,3.525,0,0,1-1.463-3.221l.018-.053h2.892a1.992,1.992,0,0,0,.549,1.586,2.542,2.542,0,0,0,1.683.47,2.184,2.184,0,0,0,1.389-.369A1.183,1.183,0,0,0,20.065-3.393ZM32.133-5.476H27.624v3.19h5.405V0H24.653V-12.8h8.385v2.285H27.624v2.751h4.509Z" transform="translate(593 4972)" fill="#111e61"/>
    <path id="Trazado_33954" data-name="Trazado 33954" d="M11.654-5.247a5.347,5.347,0,0,1-1.5,3.9A5.23,5.23,0,0,1,6.24.185,5.3,5.3,0,0,1,2.294-1.349a5.322,5.322,0,0,1-1.512-3.9v-2.3A5.334,5.334,0,0,1,2.29-11.443a5.262,5.262,0,0,1,3.933-1.538,5.255,5.255,0,0,1,3.92,1.538A5.326,5.326,0,0,1,11.654-7.55ZM8.692-7.567a3.7,3.7,0,0,0-.646-2.25A2.131,2.131,0,0,0,6.223-10.7a2.138,2.138,0,0,0-1.841.875,3.734,3.734,0,0,0-.637,2.254v2.32A3.733,3.733,0,0,0,4.39-2.979,2.157,2.157,0,0,0,6.24-2.1a2.11,2.11,0,0,0,1.811-.879,3.751,3.751,0,0,0,.642-2.268ZM24.135,0H21.173L16.488-8.051l-.053.018V0H13.465V-12.8h2.971L21.12-4.755l.053-.018V-12.8h2.962Zm2.039,0V-12.8h4.685a5.219,5.219,0,0,1,3.779,1.472A5.025,5.025,0,0,1,36.158-7.55v2.3a5.021,5.021,0,0,1-1.521,3.779A5.228,5.228,0,0,1,30.858,0Zm2.971-10.512v8.227h1.714a2.036,2.036,0,0,0,1.666-.826,3.335,3.335,0,0,0,.655-2.136v-2.32a3.306,3.306,0,0,0-.655-2.118,2.036,2.036,0,0,0-1.666-.826Z" transform="translate(593 5018)" fill="#111e61"/>
    <path id="Trazado_33955" data-name="Trazado 33955" d="M11.654-5.247a5.347,5.347,0,0,1-1.5,3.9A5.23,5.23,0,0,1,6.24.185,5.3,5.3,0,0,1,2.294-1.349a5.322,5.322,0,0,1-1.512-3.9v-2.3A5.334,5.334,0,0,1,2.29-11.443a5.262,5.262,0,0,1,3.933-1.538,5.255,5.255,0,0,1,3.92,1.538A5.326,5.326,0,0,1,11.654-7.55ZM8.692-7.567a3.7,3.7,0,0,0-.646-2.25A2.131,2.131,0,0,0,6.223-10.7a2.138,2.138,0,0,0-1.841.875,3.734,3.734,0,0,0-.637,2.254v2.32A3.733,3.733,0,0,0,4.39-2.979,2.157,2.157,0,0,0,6.24-2.1a2.11,2.11,0,0,0,1.811-.879,3.751,3.751,0,0,0,.642-2.268ZM24.135,0H21.173L16.488-8.051l-.053.018V0H13.465V-12.8h2.971L21.12-4.755l.053-.018V-12.8h2.962Zm8.64-3.393a1.276,1.276,0,0,0-.448-1.05A5.814,5.814,0,0,0,30.7-5.221a12.342,12.342,0,0,1-3.538-1.648,2.967,2.967,0,0,1-1.156-2.518,3.087,3.087,0,0,1,1.345-2.6,5.6,5.6,0,0,1,3.419-.993,5.641,5.641,0,0,1,3.524,1.024A3.319,3.319,0,0,1,35.587-9.07l-.018.053H32.687a1.614,1.614,0,0,0-.492-1.314,2.286,2.286,0,0,0-1.485-.409,1.906,1.906,0,0,0-1.274.4,1.231,1.231,0,0,0-.466.976,1.051,1.051,0,0,0,.479.9,9.352,9.352,0,0,0,1.789.848A9.531,9.531,0,0,1,34.6-6.012a3.2,3.2,0,0,1,1.143,2.6A3.078,3.078,0,0,1,34.427-.769a5.841,5.841,0,0,1-3.5.954A6.392,6.392,0,0,1,27.25-.839a3.525,3.525,0,0,1-1.463-3.221l.018-.053H28.7a1.992,1.992,0,0,0,.549,1.586,2.542,2.542,0,0,0,1.683.47,2.184,2.184,0,0,0,1.389-.369A1.183,1.183,0,0,0,32.774-3.393Z" transform="translate(593 5064)" fill="#111e61"/>
    <path id="Trazado_33969" data-name="Trazado 33969" d="M11.654-5.247a5.347,5.347,0,0,1-1.5,3.9A5.23,5.23,0,0,1,6.24.185,5.3,5.3,0,0,1,2.294-1.349a5.322,5.322,0,0,1-1.512-3.9v-2.3A5.334,5.334,0,0,1,2.29-11.443a5.262,5.262,0,0,1,3.933-1.538,5.255,5.255,0,0,1,3.92,1.538A5.326,5.326,0,0,1,11.654-7.55ZM8.692-7.567a3.7,3.7,0,0,0-.646-2.25A2.131,2.131,0,0,0,6.223-10.7a2.138,2.138,0,0,0-1.841.875,3.734,3.734,0,0,0-.637,2.254v2.32A3.733,3.733,0,0,0,4.39-2.979,2.157,2.157,0,0,0,6.24-2.1a2.11,2.11,0,0,0,1.811-.879,3.751,3.751,0,0,0,.642-2.268Z" transform="translate(593 4745)" fill="#111e61"/>
    <path id="Trazado_33963" data-name="Trazado 33963" d="M5.607-3.472l.088.466h.053l.088-.431,2.54-9.36h3.111L7.339,0H4.131L0-12.8H3.1Zm13.5.079a1.276,1.276,0,0,0-.448-1.05,5.814,5.814,0,0,0-1.626-.778A12.342,12.342,0,0,1,13.5-6.869,2.967,2.967,0,0,1,12.34-9.387a3.087,3.087,0,0,1,1.345-2.6,5.6,5.6,0,0,1,3.419-.993,5.641,5.641,0,0,1,3.524,1.024A3.319,3.319,0,0,1,21.92-9.07l-.018.053H19.02a1.614,1.614,0,0,0-.492-1.314,2.286,2.286,0,0,0-1.485-.409,1.906,1.906,0,0,0-1.274.4,1.231,1.231,0,0,0-.466.976,1.051,1.051,0,0,0,.479.9,9.352,9.352,0,0,0,1.789.848,9.531,9.531,0,0,1,3.366,1.608,3.2,3.2,0,0,1,1.143,2.6A3.078,3.078,0,0,1,20.76-.769a5.841,5.841,0,0,1-3.5.954A6.392,6.392,0,0,1,13.583-.839,3.525,3.525,0,0,1,12.12-4.061l.018-.053h2.892a1.992,1.992,0,0,0,.549,1.586,2.542,2.542,0,0,0,1.683.47,2.184,2.184,0,0,0,1.389-.369A1.183,1.183,0,0,0,19.107-3.393Z" transform="translate(593 4834)" fill="#111e61"/>
    <path id="Trazado_33966" data-name="Trazado 33966" d="M5.607-3.472l.088.466h.053l.088-.431,2.54-9.36h3.111L7.339,0H4.131L0-12.8H3.1Zm9.87,1.187h5.493V0H12.507V-12.8h2.971Z" transform="translate(593 4788)" fill="#111e61"/>
    <path id="Trazado_33960" data-name="Trazado 33960" d="M11.689,0H8.728L4.043-8.051l-.053.018V0H1.02V-12.8H3.99L8.675-4.755l.053-.018V-12.8h2.962Zm8.8-3.841h.053L23.432-12.8H27.36V0H24.39V-8.244l-.053-.009L21.516,0h-2L16.752-8.13l-.053.009V0H13.729V-12.8h3.894Z" transform="translate(593 4880)" fill="#111e61"/>
    <path id="Trazado_33970" data-name="Trazado 33970" d="M10.016-4.672A4.853,4.853,0,0,1,8.723-1.211,4.4,4.4,0,0,1,5.367.164,4.167,4.167,0,0,1,2.129-1.211,4.959,4.959,0,0,1,.883-4.672V-6.7a4.977,4.977,0,0,1,1.246-3.461,4.156,4.156,0,0,1,3.238-1.383A4.39,4.39,0,0,1,8.723-10.16,4.867,4.867,0,0,1,10.016-6.7ZM8.477-6.711a3.837,3.837,0,0,0-.844-2.562,2.813,2.813,0,0,0-2.266-1,2.606,2.606,0,0,0-2.145,1,3.972,3.972,0,0,0-.8,2.563v2.039a4,4,0,0,0,.8,2.578,2.606,2.606,0,0,0,2.145,1,2.815,2.815,0,0,0,2.27-1,3.869,3.869,0,0,0,.84-2.582Zm6.906,5.672a1.81,1.81,0,0,0,1.242-.473,1.494,1.494,0,0,0,.531-1.16h1.391l.023.047a2.428,2.428,0,0,1-.937,1.941,3.313,3.313,0,0,1-2.25.848,3.319,3.319,0,0,1-2.75-1.211,4.674,4.674,0,0,1-.969-3.016v-.328a4.654,4.654,0,0,1,.973-3,3.317,3.317,0,0,1,2.746-1.215,3.189,3.189,0,0,1,2.316.875,2.775,2.775,0,0,1,.871,2.148l-.016.047h-1.4a1.865,1.865,0,0,0-.5-1.316,1.658,1.658,0,0,0-1.27-.543,1.777,1.777,0,0,0-1.652.879,4.114,4.114,0,0,0-.52,2.129v.328a4.192,4.192,0,0,0,.512,2.148A1.776,1.776,0,0,0,15.383-1.039ZM25.766-1.25A2.863,2.863,0,0,1,24.742-.2,2.8,2.8,0,0,1,23.3.164a2.716,2.716,0,0,1-2.156-.883,4.1,4.1,0,0,1-.773-2.75V-8.453h1.539v5a3.147,3.147,0,0,0,.4,1.859,1.481,1.481,0,0,0,1.242.508A2.531,2.531,0,0,0,24.9-1.418a2.077,2.077,0,0,0,.809-.941V-8.453H27.25V0H25.867ZM36.7-3.906A4.659,4.659,0,0,1,35.82-.957,2.893,2.893,0,0,1,33.406.164,3.354,3.354,0,0,1,32.035-.1a2.622,2.622,0,0,1-1-.785V3.25H29.492v-11.7h1.18l.242,1.094a2.792,2.792,0,0,1,1.031-.93,3.078,3.078,0,0,1,1.438-.32,2.809,2.809,0,0,1,2.441,1.246A5.637,5.637,0,0,1,36.7-4.07ZM35.156-4.07a4.467,4.467,0,0,0-.566-2.363,1.835,1.835,0,0,0-1.668-.926,2.054,2.054,0,0,0-1.133.3,2.25,2.25,0,0,0-.758.824v4.086a2.186,2.186,0,0,0,.758.816,2.126,2.126,0,0,0,1.148.293,1.894,1.894,0,0,0,1.656-.8,3.516,3.516,0,0,0,.563-2.066ZM43.781,0Q43.7-.383,43.66-.676a4.96,4.96,0,0,1-.051-.59,3.589,3.589,0,0,1-1.121,1.02A2.867,2.867,0,0,1,41,.164a2.763,2.763,0,0,1-2.012-.676A2.486,2.486,0,0,1,38.3-2.375a2.183,2.183,0,0,1,.98-1.895,4.579,4.579,0,0,1,2.66-.684h1.672v-.836a1.551,1.551,0,0,0-.453-1.176A1.779,1.779,0,0,0,41.875-7.4a1.859,1.859,0,0,0-1.211.375,1.125,1.125,0,0,0-.461.9l-1.461.016-.016-.047a2.023,2.023,0,0,1,.863-1.687,3.578,3.578,0,0,1,2.371-.766,3.49,3.49,0,0,1,2.313.73,2.588,2.588,0,0,1,.875,2.105V-1.7a7.923,7.923,0,0,0,.047.875A4.5,4.5,0,0,0,45.367,0ZM41.227-1.125a2.739,2.739,0,0,0,1.508-.43,2.042,2.042,0,0,0,.875-.984V-3.914H41.883a2.24,2.24,0,0,0-1.488.469,1.4,1.4,0,0,0-.559,1.1,1.159,1.159,0,0,0,.352.891A1.472,1.472,0,0,0,41.227-1.125Zm5.8-2.945A5.641,5.641,0,0,1,47.9-7.359a2.807,2.807,0,0,1,2.441-1.25,3.027,3.027,0,0,1,1.316.273,2.7,2.7,0,0,1,.98.8v-4.648H54.18V0H53l-.234-1.07a2.743,2.743,0,0,1-1.023.922,3.058,3.058,0,0,1-1.414.313A2.9,2.9,0,0,1,47.906-.957a4.659,4.659,0,0,1-.875-2.949Zm1.539.164a3.588,3.588,0,0,0,.523,2.051,1.828,1.828,0,0,0,1.625.77A2.039,2.039,0,0,0,51.875-1.4a2.334,2.334,0,0,0,.766-.875V-6.219a2.37,2.37,0,0,0-.77-.832,2.033,2.033,0,0,0-1.137-.309,1.759,1.759,0,0,0-1.637.914A4.718,4.718,0,0,0,48.57-4.07ZM61.672,0q-.078-.383-.121-.676a4.96,4.96,0,0,1-.051-.59,3.589,3.589,0,0,1-1.121,1.02,2.867,2.867,0,0,1-1.488.41,2.763,2.763,0,0,1-2.012-.676,2.486,2.486,0,0,1-.691-1.863,2.183,2.183,0,0,1,.98-1.895,4.579,4.579,0,0,1,2.66-.684H61.5v-.836a1.551,1.551,0,0,0-.453-1.176A1.779,1.779,0,0,0,59.766-7.4a1.859,1.859,0,0,0-1.211.375,1.125,1.125,0,0,0-.461.9l-1.461.016-.016-.047a2.023,2.023,0,0,1,.863-1.687,3.578,3.578,0,0,1,2.371-.766,3.49,3.49,0,0,1,2.313.73,2.588,2.588,0,0,1,.875,2.105V-1.7a7.923,7.923,0,0,0,.047.875A4.5,4.5,0,0,0,63.258,0ZM59.117-1.125a2.739,2.739,0,0,0,1.508-.43,2.042,2.042,0,0,0,.875-.984V-3.914H59.773a2.24,2.24,0,0,0-1.488.469,1.4,1.4,0,0,0-.559,1.1,1.159,1.159,0,0,0,.352.891A1.472,1.472,0,0,0,59.117-1.125Z" transform="translate(671 4748)" fill="#111e61"/>
    <path id="Trazado_33967" data-name="Trazado 33967" d="M4.781-2.984l.258.945h.047l.258-.945,2.938-8.391H9.945L5.719,0H4.4L.172-11.375H1.844ZM16.07,0q-.078-.383-.121-.676a4.96,4.96,0,0,1-.051-.59,3.589,3.589,0,0,1-1.121,1.02,2.867,2.867,0,0,1-1.488.41,2.763,2.763,0,0,1-2.012-.676,2.486,2.486,0,0,1-.691-1.863,2.183,2.183,0,0,1,.98-1.895,4.579,4.579,0,0,1,2.66-.684H15.9v-.836a1.551,1.551,0,0,0-.453-1.176A1.779,1.779,0,0,0,14.164-7.4a1.859,1.859,0,0,0-1.211.375,1.125,1.125,0,0,0-.461.9l-1.461.016-.016-.047a2.023,2.023,0,0,1,.863-1.687,3.578,3.578,0,0,1,2.371-.766,3.49,3.49,0,0,1,2.313.73,2.588,2.588,0,0,1,.875,2.105V-1.7a7.923,7.923,0,0,0,.047.875A4.5,4.5,0,0,0,17.656,0ZM13.516-1.125a2.739,2.739,0,0,0,1.508-.43,2.042,2.042,0,0,0,.875-.984V-3.914H14.172a2.24,2.24,0,0,0-1.488.469,1.4,1.4,0,0,0-.559,1.1,1.159,1.159,0,0,0,.352.891A1.472,1.472,0,0,0,13.516-1.125Zm9.516.086a1.81,1.81,0,0,0,1.242-.473,1.494,1.494,0,0,0,.531-1.16H26.2l.023.047a2.428,2.428,0,0,1-.937,1.941,3.313,3.313,0,0,1-2.25.848,3.319,3.319,0,0,1-2.75-1.211,4.674,4.674,0,0,1-.969-3.016v-.328a4.654,4.654,0,0,1,.973-3,3.317,3.317,0,0,1,2.746-1.215,3.189,3.189,0,0,1,2.316.875,2.775,2.775,0,0,1,.871,2.148l-.016.047H24.8a1.865,1.865,0,0,0-.5-1.316,1.658,1.658,0,0,0-1.27-.543,1.777,1.777,0,0,0-1.652.879,4.114,4.114,0,0,0-.52,2.129v.328a4.192,4.192,0,0,0,.512,2.148A1.776,1.776,0,0,0,23.031-1.039ZM29.664,0H28.125V-8.453h1.539Zm-.023-11.875h1.8l.016.047L29.352-9.8H28.2ZM37.266,0q-.078-.383-.121-.676a4.96,4.96,0,0,1-.051-.59,3.589,3.589,0,0,1-1.121,1.02,2.867,2.867,0,0,1-1.488.41,2.763,2.763,0,0,1-2.012-.676,2.486,2.486,0,0,1-.691-1.863,2.183,2.183,0,0,1,.98-1.895,4.579,4.579,0,0,1,2.66-.684h1.672v-.836a1.551,1.551,0,0,0-.453-1.176A1.779,1.779,0,0,0,35.359-7.4a1.859,1.859,0,0,0-1.211.375,1.125,1.125,0,0,0-.461.9l-1.461.016-.016-.047a2.023,2.023,0,0,1,.863-1.687,3.578,3.578,0,0,1,2.371-.766,3.49,3.49,0,0,1,2.313.73,2.588,2.588,0,0,1,.875,2.105V-1.7a7.923,7.923,0,0,0,.047.875A4.5,4.5,0,0,0,38.852,0ZM34.711-1.125a2.739,2.739,0,0,0,1.508-.43,2.042,2.042,0,0,0,.875-.984V-3.914H35.367a2.24,2.24,0,0,0-1.488.469,1.4,1.4,0,0,0-.559,1.1,1.159,1.159,0,0,0,.352.891A1.472,1.472,0,0,0,34.711-1.125ZM46.594-1.2h5.547V0H45.055V-11.375h1.539ZM55.3,0H53.766V-8.453H55.3Zm0-10.617H53.766v-1.57H55.3Zm3.742,2.164.109,1.109a2.871,2.871,0,0,1,1.051-.934,3.158,3.158,0,0,1,1.48-.332,2.615,2.615,0,0,1,1.449.391,2.363,2.363,0,0,1,.91,1.172,3.162,3.162,0,0,1,1.059-1.145,2.769,2.769,0,0,1,1.527-.418,2.531,2.531,0,0,1,2.039.887,4.051,4.051,0,0,1,.75,2.668V0H67.883V-5.07a2.81,2.81,0,0,0-.43-1.77,1.567,1.567,0,0,0-1.281-.52,1.631,1.631,0,0,0-1.277.547A2.381,2.381,0,0,0,64.32-5.43V0H62.773V-5.07a2.772,2.772,0,0,0-.441-1.738,1.532,1.532,0,0,0-1.27-.551,2.115,2.115,0,0,0-1.156.289,1.867,1.867,0,0,0-.7.813V0H57.672V-8.453ZM78.859-3.906a4.659,4.659,0,0,1-.875,2.949A2.893,2.893,0,0,1,75.57.164,3.354,3.354,0,0,1,74.2-.1a2.622,2.622,0,0,1-1-.785V3.25H71.656v-11.7h1.18l.242,1.094a2.792,2.792,0,0,1,1.031-.93,3.078,3.078,0,0,1,1.438-.32,2.809,2.809,0,0,1,2.441,1.246,5.638,5.638,0,0,1,.871,3.293ZM77.32-4.07a4.467,4.467,0,0,0-.566-2.363,1.835,1.835,0,0,0-1.668-.926,2.054,2.054,0,0,0-1.133.3,2.25,2.25,0,0,0-.758.824v4.086a2.186,2.186,0,0,0,.758.816,2.126,2.126,0,0,0,1.148.293,1.894,1.894,0,0,0,1.656-.8,3.516,3.516,0,0,0,.563-2.066ZM82.414,0H80.875V-8.453h1.539Zm0-10.617H80.875v-1.57h1.539ZM89.977,0q-.078-.383-.121-.676a4.96,4.96,0,0,1-.051-.59,3.589,3.589,0,0,1-1.121,1.02A2.867,2.867,0,0,1,87.2.164a2.763,2.763,0,0,1-2.012-.676,2.486,2.486,0,0,1-.691-1.863,2.183,2.183,0,0,1,.98-1.895,4.579,4.579,0,0,1,2.66-.684H89.8v-.836a1.551,1.551,0,0,0-.453-1.176A1.779,1.779,0,0,0,88.07-7.4a1.859,1.859,0,0,0-1.211.375,1.125,1.125,0,0,0-.461.9l-1.461.016-.016-.047a2.023,2.023,0,0,1,.863-1.687,3.578,3.578,0,0,1,2.371-.766,3.49,3.49,0,0,1,2.313.73,2.588,2.588,0,0,1,.875,2.105V-1.7a7.923,7.923,0,0,0,.047.875A4.5,4.5,0,0,0,91.563,0ZM87.422-1.125a2.739,2.739,0,0,0,1.508-.43,2.042,2.042,0,0,0,.875-.984V-3.914H88.078a2.24,2.24,0,0,0-1.488.469,1.4,1.4,0,0,0-.559,1.1,1.159,1.159,0,0,0,.352.891A1.472,1.472,0,0,0,87.422-1.125Z" transform="translate(671 4785)" fill="#111e61"/>
    <path id="Trazado_33964" data-name="Trazado 33964" d="M4.781-2.984l.258.945h.047l.258-.945,2.938-8.391H9.945L5.719,0H4.4L.172-11.375H1.844ZM16.07,0q-.078-.383-.121-.676a4.96,4.96,0,0,1-.051-.59,3.589,3.589,0,0,1-1.121,1.02,2.867,2.867,0,0,1-1.488.41,2.763,2.763,0,0,1-2.012-.676,2.486,2.486,0,0,1-.691-1.863,2.183,2.183,0,0,1,.98-1.895,4.579,4.579,0,0,1,2.66-.684H15.9v-.836a1.551,1.551,0,0,0-.453-1.176A1.779,1.779,0,0,0,14.164-7.4a1.859,1.859,0,0,0-1.211.375,1.125,1.125,0,0,0-.461.9l-1.461.016-.016-.047a2.023,2.023,0,0,1,.863-1.687,3.578,3.578,0,0,1,2.371-.766,3.49,3.49,0,0,1,2.313.73,2.588,2.588,0,0,1,.875,2.105V-1.7a7.923,7.923,0,0,0,.047.875A4.5,4.5,0,0,0,17.656,0ZM13.516-1.125a2.739,2.739,0,0,0,1.508-.43,2.042,2.042,0,0,0,.875-.984V-3.914H14.172a2.24,2.24,0,0,0-1.488.469,1.4,1.4,0,0,0-.559,1.1,1.159,1.159,0,0,0,.352.891A1.472,1.472,0,0,0,13.516-1.125Zm9.516.086a1.81,1.81,0,0,0,1.242-.473,1.494,1.494,0,0,0,.531-1.16H26.2l.023.047a2.428,2.428,0,0,1-.937,1.941,3.313,3.313,0,0,1-2.25.848,3.319,3.319,0,0,1-2.75-1.211,4.674,4.674,0,0,1-.969-3.016v-.328a4.654,4.654,0,0,1,.973-3,3.317,3.317,0,0,1,2.746-1.215,3.189,3.189,0,0,1,2.316.875,2.775,2.775,0,0,1,.871,2.148l-.016.047H24.8a1.865,1.865,0,0,0-.5-1.316,1.658,1.658,0,0,0-1.27-.543,1.777,1.777,0,0,0-1.652.879,4.114,4.114,0,0,0-.52,2.129v.328a4.192,4.192,0,0,0,.512,2.148A1.776,1.776,0,0,0,23.031-1.039ZM29.664,0H28.125V-8.453h1.539Zm-.023-11.875h1.8l.016.047L29.352-9.8H28.2ZM37.266,0q-.078-.383-.121-.676a4.96,4.96,0,0,1-.051-.59,3.589,3.589,0,0,1-1.121,1.02,2.867,2.867,0,0,1-1.488.41,2.763,2.763,0,0,1-2.012-.676,2.486,2.486,0,0,1-.691-1.863,2.183,2.183,0,0,1,.98-1.895,4.579,4.579,0,0,1,2.66-.684h1.672v-.836a1.551,1.551,0,0,0-.453-1.176A1.779,1.779,0,0,0,35.359-7.4a1.859,1.859,0,0,0-1.211.375,1.125,1.125,0,0,0-.461.9l-1.461.016-.016-.047a2.023,2.023,0,0,1,.863-1.687,3.578,3.578,0,0,1,2.371-.766,3.49,3.49,0,0,1,2.313.73,2.588,2.588,0,0,1,.875,2.105V-1.7a7.923,7.923,0,0,0,.047.875A4.5,4.5,0,0,0,38.852,0ZM34.711-1.125a2.739,2.739,0,0,0,1.508-.43,2.042,2.042,0,0,0,.875-.984V-3.914H35.367a2.24,2.24,0,0,0-1.488.469,1.4,1.4,0,0,0-.559,1.1,1.159,1.159,0,0,0,.352.891A1.472,1.472,0,0,0,34.711-1.125ZM51.117-2.867a1.711,1.711,0,0,0-.555-1.3,4.62,4.62,0,0,0-1.953-.891A6.5,6.5,0,0,1,45.9-6.32a2.655,2.655,0,0,1-.973-2.1,2.8,2.8,0,0,1,1.047-2.227,4.05,4.05,0,0,1,2.719-.891,3.971,3.971,0,0,1,2.863,1.02,3.088,3.088,0,0,1,1.035,2.379l-.023.047H51.1a2.1,2.1,0,0,0-.676-1.6,2.431,2.431,0,0,0-1.73-.633,2.37,2.37,0,0,0-1.652.523,1.754,1.754,0,0,0-.574,1.359A1.518,1.518,0,0,0,47.1-7.207a5.8,5.8,0,0,0,2.043.871,5.8,5.8,0,0,1,2.617,1.313,2.857,2.857,0,0,1,.9,2.141A2.657,2.657,0,0,1,51.574-.672,4.491,4.491,0,0,1,48.75.164a4.8,4.8,0,0,1-2.91-.922,2.81,2.81,0,0,1-1.223-2.469l.016-.047H46.1a1.912,1.912,0,0,0,.813,1.652,3.076,3.076,0,0,0,1.836.582,2.761,2.761,0,0,0,1.73-.492A1.6,1.6,0,0,0,51.117-2.867ZM59.992-1.25A2.863,2.863,0,0,1,58.969-.2a2.8,2.8,0,0,1-1.445.367,2.716,2.716,0,0,1-2.156-.883,4.1,4.1,0,0,1-.773-2.75V-8.453h1.539v5a3.147,3.147,0,0,0,.4,1.859,1.481,1.481,0,0,0,1.242.508,2.531,2.531,0,0,0,1.355-.332,2.077,2.077,0,0,0,.809-.941V-8.453h1.539V0H60.094Zm7.086.211a1.81,1.81,0,0,0,1.242-.473,1.494,1.494,0,0,0,.531-1.16h1.391l.023.047a2.428,2.428,0,0,1-.937,1.941,3.313,3.313,0,0,1-2.25.848,3.319,3.319,0,0,1-2.75-1.211,4.674,4.674,0,0,1-.969-3.016v-.328a4.654,4.654,0,0,1,.973-3,3.317,3.317,0,0,1,2.746-1.215,3.189,3.189,0,0,1,2.316.875,2.775,2.775,0,0,1,.871,2.148l-.016.047h-1.4a1.865,1.865,0,0,0-.5-1.316,1.658,1.658,0,0,0-1.27-.543,1.777,1.777,0,0,0-1.652.879,4.114,4.114,0,0,0-.52,2.129v.328a4.192,4.192,0,0,0,.512,2.148A1.776,1.776,0,0,0,67.078-1.039ZM73.758,0H72.219V-8.453h1.539Zm0-10.617H72.219v-1.57h1.539ZM81.32,0q-.078-.383-.121-.676a4.96,4.96,0,0,1-.051-.59,3.589,3.589,0,0,1-1.121,1.02,2.867,2.867,0,0,1-1.488.41,2.763,2.763,0,0,1-2.012-.676,2.486,2.486,0,0,1-.691-1.863,2.183,2.183,0,0,1,.98-1.895,4.579,4.579,0,0,1,2.66-.684h1.672v-.836A1.551,1.551,0,0,0,80.7-6.965,1.779,1.779,0,0,0,79.414-7.4a1.859,1.859,0,0,0-1.211.375,1.125,1.125,0,0,0-.461.9l-1.461.016-.016-.047a2.023,2.023,0,0,1,.863-1.687A3.578,3.578,0,0,1,79.5-8.609a3.49,3.49,0,0,1,2.313.73,2.588,2.588,0,0,1,.875,2.105V-1.7a7.923,7.923,0,0,0,.047.875A4.5,4.5,0,0,0,82.906,0ZM78.766-1.125a2.739,2.739,0,0,0,1.508-.43,2.042,2.042,0,0,0,.875-.984V-3.914H79.422a2.24,2.24,0,0,0-1.488.469,1.4,1.4,0,0,0-.559,1.1,1.159,1.159,0,0,0,.352.891A1.472,1.472,0,0,0,78.766-1.125Z" transform="translate(671 4832)" fill="#111e61"/>
    <path id="Trazado_33961" data-name="Trazado 33961" d="M9.93,0H8.391L2.914-8.687l-.047.016V0H1.328V-11.375H2.867L8.344-2.7l.047-.016v-8.664H9.93Zm2.094-4.3a4.654,4.654,0,0,1,1.016-3.09A3.406,3.406,0,0,1,15.8-8.609,3.439,3.439,0,0,1,18.574-7.4,4.639,4.639,0,0,1,19.594-4.3v.172a4.631,4.631,0,0,1-1.016,3.094,3.429,3.429,0,0,1-2.766,1.2,3.436,3.436,0,0,1-2.77-1.207,4.623,4.623,0,0,1-1.02-3.09Zm1.539.172a4.009,4.009,0,0,0,.566,2.219,1.875,1.875,0,0,0,1.684.875,1.87,1.87,0,0,0,1.672-.875,3.988,3.988,0,0,0,.57-2.219V-4.3a3.976,3.976,0,0,0-.574-2.211A1.882,1.882,0,0,0,15.8-7.4a1.856,1.856,0,0,0-1.668.883A4.018,4.018,0,0,0,13.563-4.3Zm13.266-4.32.109,1.109a2.871,2.871,0,0,1,1.051-.934,3.158,3.158,0,0,1,1.48-.332,2.615,2.615,0,0,1,1.449.391,2.363,2.363,0,0,1,.91,1.172,3.162,3.162,0,0,1,1.059-1.145,2.769,2.769,0,0,1,1.527-.418,2.531,2.531,0,0,1,2.039.887,4.051,4.051,0,0,1,.75,2.668V0H35.664V-5.07a2.81,2.81,0,0,0-.43-1.77,1.567,1.567,0,0,0-1.281-.52,1.631,1.631,0,0,0-1.277.547A2.381,2.381,0,0,0,32.1-5.43V0H30.555V-5.07a2.772,2.772,0,0,0-.441-1.738,1.532,1.532,0,0,0-1.27-.551,2.115,2.115,0,0,0-1.156.289,1.867,1.867,0,0,0-.7.813V0H25.453V-8.453ZM39.078-4.3a4.654,4.654,0,0,1,1.016-3.09,3.406,3.406,0,0,1,2.758-1.215A3.439,3.439,0,0,1,45.629-7.4,4.639,4.639,0,0,1,46.648-4.3v.172a4.631,4.631,0,0,1-1.016,3.094,3.429,3.429,0,0,1-2.766,1.2A3.436,3.436,0,0,1,40.1-1.043a4.623,4.623,0,0,1-1.02-3.09Zm1.539.172a4.009,4.009,0,0,0,.566,2.219,1.875,1.875,0,0,0,1.684.875,1.87,1.87,0,0,0,1.672-.875,3.988,3.988,0,0,0,.57-2.219V-4.3a3.976,3.976,0,0,0-.574-2.211A1.882,1.882,0,0,0,42.852-7.4a1.856,1.856,0,0,0-1.668.883A4.018,4.018,0,0,0,40.617-4.3ZM50.2,0H48.656V-12.187H50.2Zm5.867.164A3.576,3.576,0,0,1,53.223-1,4.48,4.48,0,0,1,52.2-4.062v-.344a4.386,4.386,0,0,1,1.051-3.012A3.3,3.3,0,0,1,55.82-8.609a3.067,3.067,0,0,1,2.543,1.055,4.345,4.345,0,0,1,.848,2.8v.813H53.8l-.023.039a3.494,3.494,0,0,0,.563,2.066,1.965,1.965,0,0,0,1.719.793,3.872,3.872,0,0,0,1.371-.223,3.061,3.061,0,0,0,1.012-.613l.6,1a3.7,3.7,0,0,1-1.2.738A4.762,4.762,0,0,1,56.063.164ZM55.82-7.4a1.673,1.673,0,0,0-1.332.621,2.938,2.938,0,0,0-.645,1.59l.016.039h3.813v-.125A2.462,2.462,0,0,0,57.219-6.8,1.638,1.638,0,0,0,55.82-7.4ZM65.852-2.273a1.026,1.026,0,0,0-.387-.828A3.732,3.732,0,0,0,64-3.664a6.146,6.146,0,0,1-2.293-.9,1.814,1.814,0,0,1-.8-1.547,2.229,2.229,0,0,1,.879-1.766,3.433,3.433,0,0,1,2.277-.734,3.4,3.4,0,0,1,2.328.781,2.239,2.239,0,0,1,.852,1.82l-.016.047H65.758a1.331,1.331,0,0,0-.48-.992A1.717,1.717,0,0,0,64.063-7.4a1.751,1.751,0,0,0-1.215.367,1.146,1.146,0,0,0-.4.875.927.927,0,0,0,.348.773,3.848,3.848,0,0,0,1.434.5,6.058,6.058,0,0,1,2.359.93,1.872,1.872,0,0,1,.8,1.57,2.226,2.226,0,0,1-.91,1.836A3.754,3.754,0,0,1,64.1.164a3.715,3.715,0,0,1-2.547-.82,2.341,2.341,0,0,1-.883-1.914l.016-.047h1.469a1.424,1.424,0,0,0,.609,1.2,2.358,2.358,0,0,0,1.336.379,2.1,2.1,0,0,0,1.285-.348A1.063,1.063,0,0,0,65.852-2.273Zm5.594-8.219v2.039h1.6v1.141h-1.6V-2.18a1.149,1.149,0,0,0,.246.836.89.89,0,0,0,.652.242,1.43,1.43,0,0,0,.3-.035,2.2,2.2,0,0,0,.273-.074l.211,1.055a1.36,1.36,0,0,1-.508.23,2.562,2.562,0,0,1-.664.09A1.993,1.993,0,0,1,70.461-.4a2.46,2.46,0,0,1-.555-1.777V-7.312H68.563V-8.453h1.344v-2.039ZM79.891,0q-.078-.383-.121-.676a4.96,4.96,0,0,1-.051-.59A3.589,3.589,0,0,1,78.6-.246a2.867,2.867,0,0,1-1.488.41A2.763,2.763,0,0,1,75.1-.512a2.486,2.486,0,0,1-.691-1.863,2.183,2.183,0,0,1,.98-1.895,4.579,4.579,0,0,1,2.66-.684h1.672v-.836a1.551,1.551,0,0,0-.453-1.176A1.779,1.779,0,0,0,77.984-7.4a1.859,1.859,0,0,0-1.211.375,1.125,1.125,0,0,0-.461.9l-1.461.016-.016-.047A2.023,2.023,0,0,1,75.7-7.844a3.578,3.578,0,0,1,2.371-.766,3.49,3.49,0,0,1,2.313.73,2.588,2.588,0,0,1,.875,2.105V-1.7a7.923,7.923,0,0,0,.047.875A4.5,4.5,0,0,0,81.477,0ZM77.336-1.125a2.739,2.739,0,0,0,1.508-.43,2.042,2.042,0,0,0,.875-.984V-3.914H77.992a2.24,2.24,0,0,0-1.488.469,1.4,1.4,0,0,0-.559,1.1,1.159,1.159,0,0,0,.352.891A1.472,1.472,0,0,0,77.336-1.125ZM87.492-7.094,86.7-7.141a1.762,1.762,0,0,0-1.027.289,1.854,1.854,0,0,0-.645.813V0H83.492V-8.453h1.375l.148,1.234A2.934,2.934,0,0,1,85.9-8.242a2.073,2.073,0,0,1,1.215-.367,1.9,1.9,0,0,1,.328.027,2.175,2.175,0,0,1,.258.059Z" transform="translate(671 4880)" fill="#111e61"/>
    <path id="Trazado_33957" data-name="Trazado 33957" d="M11.641-5.031h-4.8V0H5.3V-11.375h7.133v1.211H6.844v3.922h4.8ZM19.117-1.25A2.863,2.863,0,0,1,18.094-.2a2.8,2.8,0,0,1-1.445.367,2.716,2.716,0,0,1-2.156-.883,4.1,4.1,0,0,1-.773-2.75V-8.453h1.539v5a3.147,3.147,0,0,0,.4,1.859,1.481,1.481,0,0,0,1.242.508,2.531,2.531,0,0,0,1.355-.332,2.077,2.077,0,0,0,.809-.941V-8.453H20.6V0H19.219ZM26.344.164A3.576,3.576,0,0,1,23.5-1a4.48,4.48,0,0,1-1.02-3.062v-.344a4.386,4.386,0,0,1,1.051-3.012A3.3,3.3,0,0,1,26.1-8.609a3.067,3.067,0,0,1,2.543,1.055,4.345,4.345,0,0,1,.848,2.8v.813H24.086l-.023.039a3.494,3.494,0,0,0,.563,2.066,1.965,1.965,0,0,0,1.719.793,3.872,3.872,0,0,0,1.371-.223,3.061,3.061,0,0,0,1.012-.613l.6,1a3.7,3.7,0,0,1-1.2.738A4.762,4.762,0,0,1,26.344.164ZM26.1-7.4a1.673,1.673,0,0,0-1.332.621,2.938,2.938,0,0,0-.645,1.59l.016.039h3.813v-.125A2.462,2.462,0,0,0,27.5-6.8,1.638,1.638,0,0,0,26.1-7.4Zm9.117.3-.789-.047a1.762,1.762,0,0,0-1.027.289,1.855,1.855,0,0,0-.645.813V0H31.219V-8.453h1.375l.148,1.234a2.934,2.934,0,0,1,.887-1.023,2.073,2.073,0,0,1,1.215-.367,1.9,1.9,0,0,1,.328.027,2.175,2.175,0,0,1,.258.059ZM42.016,0q-.078-.383-.121-.676a4.96,4.96,0,0,1-.051-.59,3.589,3.589,0,0,1-1.121,1.02,2.867,2.867,0,0,1-1.488.41,2.763,2.763,0,0,1-2.012-.676,2.486,2.486,0,0,1-.691-1.863,2.183,2.183,0,0,1,.98-1.895,4.579,4.579,0,0,1,2.66-.684h1.672v-.836a1.551,1.551,0,0,0-.453-1.176A1.779,1.779,0,0,0,40.109-7.4a1.859,1.859,0,0,0-1.211.375,1.125,1.125,0,0,0-.461.9l-1.461.016-.016-.047a2.023,2.023,0,0,1,.863-1.687A3.578,3.578,0,0,1,40.2-8.609a3.49,3.49,0,0,1,2.313.73,2.588,2.588,0,0,1,.875,2.105V-1.7a7.923,7.923,0,0,0,.047.875A4.5,4.5,0,0,0,43.6,0ZM39.461-1.125a2.739,2.739,0,0,0,1.508-.43,2.042,2.042,0,0,0,.875-.984V-3.914H40.117a2.24,2.24,0,0,0-1.488.469,1.4,1.4,0,0,0-.559,1.1,1.159,1.159,0,0,0,.352.891A1.472,1.472,0,0,0,39.461-1.125ZM49.242-4.07a5.641,5.641,0,0,1,.871-3.289,2.807,2.807,0,0,1,2.441-1.25,3.027,3.027,0,0,1,1.316.273,2.7,2.7,0,0,1,.98.8v-4.648h1.539V0h-1.18l-.234-1.07a2.743,2.743,0,0,1-1.023.922,3.058,3.058,0,0,1-1.414.313A2.9,2.9,0,0,1,50.117-.957a4.659,4.659,0,0,1-.875-2.949Zm1.539.164A3.588,3.588,0,0,0,51.3-1.855a1.828,1.828,0,0,0,1.625.77A2.039,2.039,0,0,0,54.086-1.4a2.334,2.334,0,0,0,.766-.875V-6.219a2.37,2.37,0,0,0-.77-.832,2.033,2.033,0,0,0-1.137-.309,1.759,1.759,0,0,0-1.637.914,4.718,4.718,0,0,0-.527,2.375ZM62.188.164A3.576,3.576,0,0,1,59.348-1a4.48,4.48,0,0,1-1.02-3.062v-.344a4.386,4.386,0,0,1,1.051-3.012,3.3,3.3,0,0,1,2.566-1.191,3.067,3.067,0,0,1,2.543,1.055,4.345,4.345,0,0,1,.848,2.8v.813H59.93l-.023.039a3.494,3.494,0,0,0,.563,2.066,1.965,1.965,0,0,0,1.719.793,3.872,3.872,0,0,0,1.371-.223,3.061,3.061,0,0,0,1.012-.613l.6,1a3.7,3.7,0,0,1-1.2.738A4.762,4.762,0,0,1,62.188.164ZM61.945-7.4a1.673,1.673,0,0,0-1.332.621,2.938,2.938,0,0,0-.645,1.59l.016.039H63.8v-.125A2.462,2.462,0,0,0,63.344-6.8,1.638,1.638,0,0,0,61.945-7.4ZM77.313-2.867a1.711,1.711,0,0,0-.555-1.3A4.62,4.62,0,0,0,74.8-5.055,6.5,6.5,0,0,1,72.1-6.32a2.655,2.655,0,0,1-.973-2.1,2.8,2.8,0,0,1,1.047-2.227,4.05,4.05,0,0,1,2.719-.891,3.971,3.971,0,0,1,2.863,1.02,3.088,3.088,0,0,1,1.035,2.379l-.023.047H77.3a2.1,2.1,0,0,0-.676-1.6,2.431,2.431,0,0,0-1.73-.633,2.37,2.37,0,0,0-1.652.523,1.754,1.754,0,0,0-.574,1.359,1.518,1.518,0,0,0,.629,1.238,5.8,5.8,0,0,0,2.043.871,5.8,5.8,0,0,1,2.617,1.313,2.857,2.857,0,0,1,.9,2.141A2.657,2.657,0,0,1,77.77-.672a4.491,4.491,0,0,1-2.824.836,4.8,4.8,0,0,1-2.91-.922,2.81,2.81,0,0,1-1.223-2.469l.016-.047H72.3a1.912,1.912,0,0,0,.813,1.652,3.076,3.076,0,0,0,1.836.582,2.761,2.761,0,0,0,1.73-.492A1.6,1.6,0,0,0,77.313-2.867ZM84.32.164A3.576,3.576,0,0,1,81.48-1a4.48,4.48,0,0,1-1.02-3.062v-.344a4.386,4.386,0,0,1,1.051-3.012,3.3,3.3,0,0,1,2.566-1.191,3.067,3.067,0,0,1,2.543,1.055,4.345,4.345,0,0,1,.848,2.8v.813H82.063l-.023.039A3.494,3.494,0,0,0,82.6-1.832a1.965,1.965,0,0,0,1.719.793,3.872,3.872,0,0,0,1.371-.223A3.061,3.061,0,0,0,86.7-1.875l.6,1a3.7,3.7,0,0,1-1.2.738A4.762,4.762,0,0,1,84.32.164ZM84.078-7.4a1.673,1.673,0,0,0-1.332.621,2.938,2.938,0,0,0-.645,1.59l.016.039H85.93v-.125A2.462,2.462,0,0,0,85.477-6.8,1.638,1.638,0,0,0,84.078-7.4Zm9.117.3-.789-.047a1.762,1.762,0,0,0-1.027.289,1.854,1.854,0,0,0-.645.813V0H89.2V-8.453H90.57l.148,1.234a2.934,2.934,0,0,1,.887-1.023,2.073,2.073,0,0,1,1.215-.367,1.9,1.9,0,0,1,.328.027,2.175,2.175,0,0,1,.258.059Zm4.563,4.6.133.594h.047l.148-.594,1.945-5.961h1.57L98.492,0H97.328L94.18-8.453h1.578ZM104.648,0h-1.539V-8.453h1.539Zm0-10.617h-1.539v-1.57h1.539Zm5.727,9.578a1.81,1.81,0,0,0,1.242-.473,1.494,1.494,0,0,0,.531-1.16h1.391l.023.047a2.428,2.428,0,0,1-.937,1.941,3.313,3.313,0,0,1-2.25.848,3.319,3.319,0,0,1-2.75-1.211,4.674,4.674,0,0,1-.969-3.016v-.328a4.654,4.654,0,0,1,.973-3,3.317,3.317,0,0,1,2.746-1.215,3.189,3.189,0,0,1,2.316.875,2.775,2.775,0,0,1,.871,2.148l-.016.047h-1.4a1.865,1.865,0,0,0-.5-1.316,1.658,1.658,0,0,0-1.27-.543,1.777,1.777,0,0,0-1.652.879,4.114,4.114,0,0,0-.52,2.129v.328a4.192,4.192,0,0,0,.512,2.148A1.776,1.776,0,0,0,110.375-1.039ZM117.055,0h-1.539V-8.453h1.539Zm0-10.617h-1.539v-1.57h1.539ZM119.063-4.3a4.654,4.654,0,0,1,1.016-3.09,3.406,3.406,0,0,1,2.758-1.215A3.439,3.439,0,0,1,125.613-7.4a4.639,4.639,0,0,1,1.02,3.094v.172a4.631,4.631,0,0,1-1.016,3.094,3.429,3.429,0,0,1-2.766,1.2,3.436,3.436,0,0,1-2.77-1.207,4.623,4.623,0,0,1-1.02-3.09Zm1.539.172a4.009,4.009,0,0,0,.566,2.219,1.875,1.875,0,0,0,1.684.875,1.87,1.87,0,0,0,1.672-.875,3.988,3.988,0,0,0,.57-2.219V-4.3a3.976,3.976,0,0,0-.574-2.211,1.882,1.882,0,0,0-1.684-.883,1.856,1.856,0,0,0-1.668.883A4.018,4.018,0,0,0,120.6-4.3Z" transform="translate(671 4926)" fill="#111e61"/>
    <path id="Trazado_33952" data-name="Trazado 33952" d="M10.016-4.672A4.853,4.853,0,0,1,8.723-1.211,4.4,4.4,0,0,1,5.367.164,4.167,4.167,0,0,1,2.129-1.211,4.959,4.959,0,0,1,.883-4.672V-6.7a4.977,4.977,0,0,1,1.246-3.461,4.156,4.156,0,0,1,3.238-1.383A4.39,4.39,0,0,1,8.723-10.16,4.867,4.867,0,0,1,10.016-6.7ZM8.477-6.711a3.837,3.837,0,0,0-.844-2.562,2.813,2.813,0,0,0-2.266-1,2.606,2.606,0,0,0-2.145,1,3.972,3.972,0,0,0-.8,2.563v2.039a4,4,0,0,0,.8,2.578,2.606,2.606,0,0,0,2.145,1,2.815,2.815,0,0,0,2.27-1,3.869,3.869,0,0,0,.84-2.582Zm6.906,5.672a1.81,1.81,0,0,0,1.242-.473,1.494,1.494,0,0,0,.531-1.16h1.391l.023.047a2.428,2.428,0,0,1-.937,1.941,3.313,3.313,0,0,1-2.25.848,3.319,3.319,0,0,1-2.75-1.211,4.674,4.674,0,0,1-.969-3.016v-.328a4.654,4.654,0,0,1,.973-3,3.317,3.317,0,0,1,2.746-1.215,3.189,3.189,0,0,1,2.316.875,2.775,2.775,0,0,1,.871,2.148l-.016.047h-1.4a1.865,1.865,0,0,0-.5-1.316,1.658,1.658,0,0,0-1.27-.543,1.777,1.777,0,0,0-1.652.879,4.114,4.114,0,0,0-.52,2.129v.328a4.192,4.192,0,0,0,.512,2.148A1.776,1.776,0,0,0,15.383-1.039ZM25.766-1.25A2.863,2.863,0,0,1,24.742-.2,2.8,2.8,0,0,1,23.3.164a2.716,2.716,0,0,1-2.156-.883,4.1,4.1,0,0,1-.773-2.75V-8.453h1.539v5a3.147,3.147,0,0,0,.4,1.859,1.481,1.481,0,0,0,1.242.508A2.531,2.531,0,0,0,24.9-1.418a2.077,2.077,0,0,0,.809-.941V-8.453H27.25V0H25.867ZM36.7-3.906A4.659,4.659,0,0,1,35.82-.957,2.893,2.893,0,0,1,33.406.164,3.354,3.354,0,0,1,32.035-.1a2.622,2.622,0,0,1-1-.785V3.25H29.492v-11.7h1.18l.242,1.094a2.792,2.792,0,0,1,1.031-.93,3.078,3.078,0,0,1,1.438-.32,2.809,2.809,0,0,1,2.441,1.246A5.637,5.637,0,0,1,36.7-4.07ZM35.156-4.07a4.467,4.467,0,0,0-.566-2.363,1.835,1.835,0,0,0-1.668-.926,2.054,2.054,0,0,0-1.133.3,2.25,2.25,0,0,0-.758.824v4.086a2.186,2.186,0,0,0,.758.816,2.126,2.126,0,0,0,1.148.293,1.894,1.894,0,0,0,1.656-.8,3.516,3.516,0,0,0,.563-2.066ZM43.781,0Q43.7-.383,43.66-.676a4.96,4.96,0,0,1-.051-.59,3.589,3.589,0,0,1-1.121,1.02A2.867,2.867,0,0,1,41,.164a2.763,2.763,0,0,1-2.012-.676A2.486,2.486,0,0,1,38.3-2.375a2.183,2.183,0,0,1,.98-1.895,4.579,4.579,0,0,1,2.66-.684h1.672v-.836a1.551,1.551,0,0,0-.453-1.176A1.779,1.779,0,0,0,41.875-7.4a1.859,1.859,0,0,0-1.211.375,1.125,1.125,0,0,0-.461.9l-1.461.016-.016-.047a2.023,2.023,0,0,1,.863-1.687,3.578,3.578,0,0,1,2.371-.766,3.49,3.49,0,0,1,2.313.73,2.588,2.588,0,0,1,.875,2.105V-1.7a7.923,7.923,0,0,0,.047.875A4.5,4.5,0,0,0,45.367,0ZM41.227-1.125a2.739,2.739,0,0,0,1.508-.43,2.042,2.042,0,0,0,.875-.984V-3.914H41.883a2.24,2.24,0,0,0-1.488.469,1.4,1.4,0,0,0-.559,1.1,1.159,1.159,0,0,0,.352.891A1.472,1.472,0,0,0,41.227-1.125Zm5.8-2.945A5.641,5.641,0,0,1,47.9-7.359a2.807,2.807,0,0,1,2.441-1.25,3.027,3.027,0,0,1,1.316.273,2.7,2.7,0,0,1,.98.8v-4.648H54.18V0H53l-.234-1.07a2.743,2.743,0,0,1-1.023.922,3.058,3.058,0,0,1-1.414.313A2.9,2.9,0,0,1,47.906-.957a4.659,4.659,0,0,1-.875-2.949Zm1.539.164a3.588,3.588,0,0,0,.523,2.051,1.828,1.828,0,0,0,1.625.77A2.039,2.039,0,0,0,51.875-1.4a2.334,2.334,0,0,0,.766-.875V-6.219a2.37,2.37,0,0,0-.77-.832,2.033,2.033,0,0,0-1.137-.309,1.759,1.759,0,0,0-1.637.914A4.718,4.718,0,0,0,48.57-4.07ZM61.672,0q-.078-.383-.121-.676a4.96,4.96,0,0,1-.051-.59,3.589,3.589,0,0,1-1.121,1.02,2.867,2.867,0,0,1-1.488.41,2.763,2.763,0,0,1-2.012-.676,2.486,2.486,0,0,1-.691-1.863,2.183,2.183,0,0,1,.98-1.895,4.579,4.579,0,0,1,2.66-.684H61.5v-.836a1.551,1.551,0,0,0-.453-1.176A1.779,1.779,0,0,0,59.766-7.4a1.859,1.859,0,0,0-1.211.375,1.125,1.125,0,0,0-.461.9l-1.461.016-.016-.047a2.023,2.023,0,0,1,.863-1.687,3.578,3.578,0,0,1,2.371-.766,3.49,3.49,0,0,1,2.313.73,2.588,2.588,0,0,1,.875,2.105V-1.7a7.923,7.923,0,0,0,.047.875A4.5,4.5,0,0,0,63.258,0ZM59.117-1.125a2.739,2.739,0,0,0,1.508-.43,2.042,2.042,0,0,0,.875-.984V-3.914H59.773a2.24,2.24,0,0,0-1.488.469,1.4,1.4,0,0,0-.559,1.1,1.159,1.159,0,0,0,.352.891A1.472,1.472,0,0,0,59.117-1.125ZM74.164-2.273a1.026,1.026,0,0,0-.387-.828,3.732,3.732,0,0,0-1.465-.562,6.146,6.146,0,0,1-2.293-.9,1.814,1.814,0,0,1-.8-1.547A2.229,2.229,0,0,1,70.1-7.875a3.433,3.433,0,0,1,2.277-.734,3.4,3.4,0,0,1,2.328.781,2.239,2.239,0,0,1,.852,1.82l-.016.047H74.07a1.331,1.331,0,0,0-.48-.992A1.717,1.717,0,0,0,72.375-7.4a1.751,1.751,0,0,0-1.215.367,1.146,1.146,0,0,0-.4.875.927.927,0,0,0,.348.773,3.848,3.848,0,0,0,1.434.5,6.058,6.058,0,0,1,2.359.93,1.872,1.872,0,0,1,.8,1.57,2.226,2.226,0,0,1-.91,1.836,3.754,3.754,0,0,1-2.379.711,3.715,3.715,0,0,1-2.547-.82,2.341,2.341,0,0,1-.883-1.914L69-2.617h1.469a1.424,1.424,0,0,0,.609,1.2,2.358,2.358,0,0,0,1.336.379A2.1,2.1,0,0,0,73.7-1.387,1.063,1.063,0,0,0,74.164-2.273ZM79.281,0H77.742V-8.453h1.539Zm0-10.617H77.742v-1.57h1.539Zm3.742,2.164L83.133-7.2a3.069,3.069,0,0,1,1.059-1.043,2.824,2.824,0,0,1,1.449-.371,2.759,2.759,0,0,1,2.117.8,3.515,3.515,0,0,1,.75,2.473V0H86.969V-5.3a2.287,2.287,0,0,0-.441-1.586,1.768,1.768,0,0,0-1.348-.469,2.386,2.386,0,0,0-1.207.285,2.072,2.072,0,0,0-.785.8V0H81.648V-8.453ZM98.219.164A3.576,3.576,0,0,1,95.379-1a4.48,4.48,0,0,1-1.02-3.062v-.344A4.386,4.386,0,0,1,95.41-7.418a3.3,3.3,0,0,1,2.566-1.191,3.067,3.067,0,0,1,2.543,1.055,4.345,4.345,0,0,1,.848,2.8v.813H95.961l-.023.039A3.494,3.494,0,0,0,96.5-1.832a1.965,1.965,0,0,0,1.719.793,3.872,3.872,0,0,0,1.371-.223,3.061,3.061,0,0,0,1.012-.613l.6,1a3.7,3.7,0,0,1-1.2.738A4.762,4.762,0,0,1,98.219.164ZM97.977-7.4a1.673,1.673,0,0,0-1.332.621A2.938,2.938,0,0,0,96-5.187l.016.039h3.813v-.125A2.462,2.462,0,0,0,99.375-6.8,1.638,1.638,0,0,0,97.977-7.4Zm4.766,3.328a5.641,5.641,0,0,1,.871-3.289,2.807,2.807,0,0,1,2.441-1.25,2.984,2.984,0,0,1,1.352.293,2.8,2.8,0,0,1,1,.848l.219-.984h1.18V3.25h-1.539V-.8a2.638,2.638,0,0,1-.961.719,3.135,3.135,0,0,1-1.266.242,2.9,2.9,0,0,1-2.422-1.121,4.659,4.659,0,0,1-.875-2.949Zm1.539.164a3.684,3.684,0,0,0,.527,2.074,1.811,1.811,0,0,0,1.621.793,2,2,0,0,0,1.082-.281,2.312,2.312,0,0,0,.754-.789V-6.375a2.329,2.329,0,0,0-.754-.75,2.011,2.011,0,0,0-1.066-.273,1.754,1.754,0,0,0-1.633.934,4.8,4.8,0,0,0-.531,2.395ZM117.555-1.25A2.863,2.863,0,0,1,116.531-.2a2.8,2.8,0,0,1-1.445.367,2.716,2.716,0,0,1-2.156-.883,4.1,4.1,0,0,1-.773-2.75V-8.453H113.7v5a3.147,3.147,0,0,0,.4,1.859,1.481,1.481,0,0,0,1.242.508,2.531,2.531,0,0,0,1.355-.332,2.077,2.077,0,0,0,.809-.941V-8.453h1.539V0h-1.383ZM122.945,0h-1.539V-8.453h1.539Zm0-10.617h-1.539v-1.57h1.539Zm9.57,6.711a4.659,4.659,0,0,1-.875,2.949A2.893,2.893,0,0,1,129.227.164,3.354,3.354,0,0,1,127.855-.1a2.622,2.622,0,0,1-1-.785V3.25h-1.539v-11.7h1.18l.242,1.094a2.792,2.792,0,0,1,1.031-.93,3.078,3.078,0,0,1,1.438-.32,2.809,2.809,0,0,1,2.441,1.246,5.637,5.637,0,0,1,.871,3.293Zm-1.539-.164a4.467,4.467,0,0,0-.566-2.363,1.836,1.836,0,0,0-1.668-.926,2.054,2.054,0,0,0-1.133.3,2.25,2.25,0,0,0-.758.824v4.086a2.186,2.186,0,0,0,.758.816,2.126,2.126,0,0,0,1.148.293,1.894,1.894,0,0,0,1.656-.8,3.516,3.516,0,0,0,.563-2.066ZM139.6,0q-.078-.383-.121-.676a4.96,4.96,0,0,1-.051-.59,3.588,3.588,0,0,1-1.121,1.02,2.867,2.867,0,0,1-1.488.41,2.763,2.763,0,0,1-2.012-.676,2.486,2.486,0,0,1-.691-1.863,2.183,2.183,0,0,1,.98-1.895,4.579,4.579,0,0,1,2.66-.684h1.672v-.836a1.551,1.551,0,0,0-.453-1.176A1.779,1.779,0,0,0,137.7-7.4a1.859,1.859,0,0,0-1.211.375,1.125,1.125,0,0,0-.461.9l-1.461.016-.016-.047a2.023,2.023,0,0,1,.863-1.687,3.578,3.578,0,0,1,2.371-.766,3.49,3.49,0,0,1,2.313.73,2.588,2.588,0,0,1,.875,2.105V-1.7a7.923,7.923,0,0,0,.047.875,4.5,4.5,0,0,0,.172.828Zm-2.555-1.125a2.739,2.739,0,0,0,1.508-.43,2.042,2.042,0,0,0,.875-.984V-3.914H137.7a2.24,2.24,0,0,0-1.488.469,1.4,1.4,0,0,0-.559,1.1,1.159,1.159,0,0,0,.352.891A1.472,1.472,0,0,0,137.047-1.125Zm7.93-7.328V.7a2.807,2.807,0,0,1-.672,2.012,2.452,2.452,0,0,1-1.867.707A2.549,2.549,0,0,1,142,3.379a3.49,3.49,0,0,1-.426-.105l.109-1.211a1.621,1.621,0,0,0,.313.066,2.608,2.608,0,0,0,.336.027,1.02,1.02,0,0,0,.809-.344,1.681,1.681,0,0,0,.3-1.117V-8.453Zm-.047-2.2h-1.539v-1.539h1.539ZM150.844.164A3.576,3.576,0,0,1,148-1a4.48,4.48,0,0,1-1.02-3.062v-.344a4.386,4.386,0,0,1,1.051-3.012A3.3,3.3,0,0,1,150.6-8.609a3.067,3.067,0,0,1,2.543,1.055,4.345,4.345,0,0,1,.848,2.8v.813h-5.406l-.023.039a3.494,3.494,0,0,0,.563,2.066,1.965,1.965,0,0,0,1.719.793,3.872,3.872,0,0,0,1.371-.223,3.061,3.061,0,0,0,1.012-.613l.6,1a3.7,3.7,0,0,1-1.2.738A4.762,4.762,0,0,1,150.844.164ZM150.6-7.4a1.673,1.673,0,0,0-1.332.621,2.938,2.938,0,0,0-.645,1.59l.016.039h3.813v-.125A2.462,2.462,0,0,0,152-6.8,1.638,1.638,0,0,0,150.6-7.4Z" transform="translate(671 4970)" fill="#111e61"/>
    <path id="Trazado_33949" data-name="Trazado 33949" d="M10.016-4.672A4.853,4.853,0,0,1,8.723-1.211,4.4,4.4,0,0,1,5.367.164,4.167,4.167,0,0,1,2.129-1.211,4.959,4.959,0,0,1,.883-4.672V-6.7a4.977,4.977,0,0,1,1.246-3.461,4.156,4.156,0,0,1,3.238-1.383A4.39,4.39,0,0,1,8.723-10.16,4.867,4.867,0,0,1,10.016-6.7ZM8.477-6.711a3.837,3.837,0,0,0-.844-2.562,2.813,2.813,0,0,0-2.266-1,2.606,2.606,0,0,0-2.145,1,3.972,3.972,0,0,0-.8,2.563v2.039a4,4,0,0,0,.8,2.578,2.606,2.606,0,0,0,2.145,1,2.815,2.815,0,0,0,2.27-1,3.869,3.869,0,0,0,.84-2.582Zm6.906,5.672a1.81,1.81,0,0,0,1.242-.473,1.494,1.494,0,0,0,.531-1.16h1.391l.023.047a2.428,2.428,0,0,1-.937,1.941,3.313,3.313,0,0,1-2.25.848,3.319,3.319,0,0,1-2.75-1.211,4.674,4.674,0,0,1-.969-3.016v-.328a4.654,4.654,0,0,1,.973-3,3.317,3.317,0,0,1,2.746-1.215,3.189,3.189,0,0,1,2.316.875,2.775,2.775,0,0,1,.871,2.148l-.016.047h-1.4a1.865,1.865,0,0,0-.5-1.316,1.658,1.658,0,0,0-1.27-.543,1.777,1.777,0,0,0-1.652.879,4.114,4.114,0,0,0-.52,2.129v.328a4.192,4.192,0,0,0,.512,2.148A1.776,1.776,0,0,0,15.383-1.039ZM25.766-1.25A2.863,2.863,0,0,1,24.742-.2,2.8,2.8,0,0,1,23.3.164a2.716,2.716,0,0,1-2.156-.883,4.1,4.1,0,0,1-.773-2.75V-8.453h1.539v5a3.147,3.147,0,0,0,.4,1.859,1.481,1.481,0,0,0,1.242.508A2.531,2.531,0,0,0,24.9-1.418a2.077,2.077,0,0,0,.809-.941V-8.453H27.25V0H25.867ZM36.7-3.906A4.659,4.659,0,0,1,35.82-.957,2.893,2.893,0,0,1,33.406.164,3.354,3.354,0,0,1,32.035-.1a2.622,2.622,0,0,1-1-.785V3.25H29.492v-11.7h1.18l.242,1.094a2.792,2.792,0,0,1,1.031-.93,3.078,3.078,0,0,1,1.438-.32,2.809,2.809,0,0,1,2.441,1.246A5.637,5.637,0,0,1,36.7-4.07ZM35.156-4.07a4.467,4.467,0,0,0-.566-2.363,1.835,1.835,0,0,0-1.668-.926,2.054,2.054,0,0,0-1.133.3,2.25,2.25,0,0,0-.758.824v4.086a2.186,2.186,0,0,0,.758.816,2.126,2.126,0,0,0,1.148.293,1.894,1.894,0,0,0,1.656-.8,3.516,3.516,0,0,0,.563-2.066ZM43.781,0Q43.7-.383,43.66-.676a4.96,4.96,0,0,1-.051-.59,3.589,3.589,0,0,1-1.121,1.02A2.867,2.867,0,0,1,41,.164a2.763,2.763,0,0,1-2.012-.676A2.486,2.486,0,0,1,38.3-2.375a2.183,2.183,0,0,1,.98-1.895,4.579,4.579,0,0,1,2.66-.684h1.672v-.836a1.551,1.551,0,0,0-.453-1.176A1.779,1.779,0,0,0,41.875-7.4a1.859,1.859,0,0,0-1.211.375,1.125,1.125,0,0,0-.461.9l-1.461.016-.016-.047a2.023,2.023,0,0,1,.863-1.687,3.578,3.578,0,0,1,2.371-.766,3.49,3.49,0,0,1,2.313.73,2.588,2.588,0,0,1,.875,2.105V-1.7a7.923,7.923,0,0,0,.047.875A4.5,4.5,0,0,0,45.367,0ZM41.227-1.125a2.739,2.739,0,0,0,1.508-.43,2.042,2.042,0,0,0,.875-.984V-3.914H41.883a2.24,2.24,0,0,0-1.488.469,1.4,1.4,0,0,0-.559,1.1,1.159,1.159,0,0,0,.352.891A1.472,1.472,0,0,0,41.227-1.125Zm5.8-2.945A5.641,5.641,0,0,1,47.9-7.359a2.807,2.807,0,0,1,2.441-1.25,3.027,3.027,0,0,1,1.316.273,2.7,2.7,0,0,1,.98.8v-4.648H54.18V0H53l-.234-1.07a2.743,2.743,0,0,1-1.023.922,3.058,3.058,0,0,1-1.414.313A2.9,2.9,0,0,1,47.906-.957a4.659,4.659,0,0,1-.875-2.949Zm1.539.164a3.588,3.588,0,0,0,.523,2.051,1.828,1.828,0,0,0,1.625.77A2.039,2.039,0,0,0,51.875-1.4a2.334,2.334,0,0,0,.766-.875V-6.219a2.37,2.37,0,0,0-.77-.832,2.033,2.033,0,0,0-1.137-.309,1.759,1.759,0,0,0-1.637.914A4.718,4.718,0,0,0,48.57-4.07ZM61.672,0q-.078-.383-.121-.676a4.96,4.96,0,0,1-.051-.59,3.589,3.589,0,0,1-1.121,1.02,2.867,2.867,0,0,1-1.488.41,2.763,2.763,0,0,1-2.012-.676,2.486,2.486,0,0,1-.691-1.863,2.183,2.183,0,0,1,.98-1.895,4.579,4.579,0,0,1,2.66-.684H61.5v-.836a1.551,1.551,0,0,0-.453-1.176A1.779,1.779,0,0,0,59.766-7.4a1.859,1.859,0,0,0-1.211.375,1.125,1.125,0,0,0-.461.9l-1.461.016-.016-.047a2.023,2.023,0,0,1,.863-1.687,3.578,3.578,0,0,1,2.371-.766,3.49,3.49,0,0,1,2.313.73,2.588,2.588,0,0,1,.875,2.105V-1.7a7.923,7.923,0,0,0,.047.875A4.5,4.5,0,0,0,63.258,0ZM59.117-1.125a2.739,2.739,0,0,0,1.508-.43,2.042,2.042,0,0,0,.875-.984V-3.914H59.773a2.24,2.24,0,0,0-1.488.469,1.4,1.4,0,0,0-.559,1.1,1.159,1.159,0,0,0,.352.891A1.472,1.472,0,0,0,59.117-1.125ZM70.625-8.453,70.734-7.2a3.069,3.069,0,0,1,1.059-1.043,2.824,2.824,0,0,1,1.449-.371,2.759,2.759,0,0,1,2.117.8,3.515,3.515,0,0,1,.75,2.473V0H74.57V-5.3a2.287,2.287,0,0,0-.441-1.586,1.768,1.768,0,0,0-1.348-.469,2.386,2.386,0,0,0-1.207.285,2.072,2.072,0,0,0-.785.8V0H69.25V-8.453ZM77.984-4.3A4.654,4.654,0,0,1,79-7.395a3.406,3.406,0,0,1,2.758-1.215A3.439,3.439,0,0,1,84.535-7.4,4.639,4.639,0,0,1,85.555-4.3v.172a4.631,4.631,0,0,1-1.016,3.094,3.429,3.429,0,0,1-2.766,1.2A3.436,3.436,0,0,1,79-1.043a4.623,4.623,0,0,1-1.02-3.09Zm1.539.172a4.009,4.009,0,0,0,.566,2.219,1.875,1.875,0,0,0,1.684.875,1.87,1.87,0,0,0,1.672-.875,3.988,3.988,0,0,0,.57-2.219V-4.3a3.976,3.976,0,0,0-.574-2.211A1.882,1.882,0,0,0,81.758-7.4a1.856,1.856,0,0,0-1.668.883A4.018,4.018,0,0,0,79.523-4.3Zm11.539.063a5.641,5.641,0,0,1,.871-3.289,2.807,2.807,0,0,1,2.441-1.25,3.027,3.027,0,0,1,1.316.273,2.7,2.7,0,0,1,.98.8v-4.648h1.539V0h-1.18L96.8-1.07a2.743,2.743,0,0,1-1.023.922,3.058,3.058,0,0,1-1.414.313A2.9,2.9,0,0,1,91.938-.957a4.659,4.659,0,0,1-.875-2.949Zm1.539.164a3.588,3.588,0,0,0,.523,2.051,1.828,1.828,0,0,0,1.625.77A2.039,2.039,0,0,0,95.906-1.4a2.334,2.334,0,0,0,.766-.875V-6.219a2.37,2.37,0,0,0-.77-.832,2.033,2.033,0,0,0-1.137-.309,1.759,1.759,0,0,0-1.637.914A4.718,4.718,0,0,0,92.6-4.07ZM105.875-1.25A2.863,2.863,0,0,1,104.852-.2a2.8,2.8,0,0,1-1.445.367,2.716,2.716,0,0,1-2.156-.883,4.1,4.1,0,0,1-.773-2.75V-8.453h1.539v5a3.147,3.147,0,0,0,.4,1.859,1.481,1.481,0,0,0,1.242.508,2.531,2.531,0,0,0,1.355-.332,2.077,2.077,0,0,0,.809-.941V-8.453h1.539V0h-1.383ZM113.6-7.094l-.789-.047a1.762,1.762,0,0,0-1.027.289,1.854,1.854,0,0,0-.645.813V0H109.6V-8.453h1.375l.148,1.234a2.934,2.934,0,0,1,.887-1.023,2.073,2.073,0,0,1,1.215-.367,1.9,1.9,0,0,1,.328.027,2.175,2.175,0,0,1,.258.059Zm2.977-1.359.109,1.109a2.871,2.871,0,0,1,1.051-.934,3.158,3.158,0,0,1,1.48-.332,2.615,2.615,0,0,1,1.449.391,2.363,2.363,0,0,1,.91,1.172,3.162,3.162,0,0,1,1.059-1.145,2.769,2.769,0,0,1,1.527-.418,2.531,2.531,0,0,1,2.039.887,4.051,4.051,0,0,1,.75,2.668V0h-1.539V-5.07a2.81,2.81,0,0,0-.43-1.77,1.567,1.567,0,0,0-1.281-.52,1.631,1.631,0,0,0-1.277.547,2.381,2.381,0,0,0-.574,1.383V0H120.3V-5.07a2.772,2.772,0,0,0-.441-1.738,1.532,1.532,0,0,0-1.27-.551,2.115,2.115,0,0,0-1.156.289,1.867,1.867,0,0,0-.7.813V0H115.2V-8.453ZM130.852,0h-1.539V-8.453h1.539Zm0-10.617h-1.539v-1.57h1.539ZM132.859-4.3a4.654,4.654,0,0,1,1.016-3.09,3.406,3.406,0,0,1,2.758-1.215A3.439,3.439,0,0,1,139.41-7.4,4.639,4.639,0,0,1,140.43-4.3v.172a4.631,4.631,0,0,1-1.016,3.094,3.429,3.429,0,0,1-2.766,1.2,3.436,3.436,0,0,1-2.77-1.207,4.623,4.623,0,0,1-1.02-3.09Zm1.539.172a4.009,4.009,0,0,0,.566,2.219,1.875,1.875,0,0,0,1.684.875,1.87,1.87,0,0,0,1.672-.875,3.988,3.988,0,0,0,.57-2.219V-4.3a3.976,3.976,0,0,0-.574-2.211,1.882,1.882,0,0,0-1.684-.883,1.856,1.856,0,0,0-1.668.883A4.018,4.018,0,0,0,134.4-4.3Zm2.992-7.906h1.8l.016.047-2.1,2.031h-1.156Z" transform="translate(671 5016)" fill="#111e61"/>
    <path id="Trazado_33947" data-name="Trazado 33947" d="M10.016-4.672A4.853,4.853,0,0,1,8.723-1.211,4.4,4.4,0,0,1,5.367.164,4.167,4.167,0,0,1,2.129-1.211,4.959,4.959,0,0,1,.883-4.672V-6.7a4.977,4.977,0,0,1,1.246-3.461,4.156,4.156,0,0,1,3.238-1.383A4.39,4.39,0,0,1,8.723-10.16,4.867,4.867,0,0,1,10.016-6.7ZM8.477-6.711a3.837,3.837,0,0,0-.844-2.562,2.813,2.813,0,0,0-2.266-1,2.606,2.606,0,0,0-2.145,1,3.972,3.972,0,0,0-.8,2.563v2.039a4,4,0,0,0,.8,2.578,2.606,2.606,0,0,0,2.145,1,2.815,2.815,0,0,0,2.27-1,3.869,3.869,0,0,0,.84-2.582Zm6.906,5.672a1.81,1.81,0,0,0,1.242-.473,1.494,1.494,0,0,0,.531-1.16h1.391l.023.047a2.428,2.428,0,0,1-.937,1.941,3.313,3.313,0,0,1-2.25.848,3.319,3.319,0,0,1-2.75-1.211,4.674,4.674,0,0,1-.969-3.016v-.328a4.654,4.654,0,0,1,.973-3,3.317,3.317,0,0,1,2.746-1.215,3.189,3.189,0,0,1,2.316.875,2.775,2.775,0,0,1,.871,2.148l-.016.047h-1.4a1.865,1.865,0,0,0-.5-1.316,1.658,1.658,0,0,0-1.27-.543,1.777,1.777,0,0,0-1.652.879,4.114,4.114,0,0,0-.52,2.129v.328a4.192,4.192,0,0,0,.512,2.148A1.776,1.776,0,0,0,15.383-1.039ZM25.766-1.25A2.863,2.863,0,0,1,24.742-.2,2.8,2.8,0,0,1,23.3.164a2.716,2.716,0,0,1-2.156-.883,4.1,4.1,0,0,1-.773-2.75V-8.453h1.539v5a3.147,3.147,0,0,0,.4,1.859,1.481,1.481,0,0,0,1.242.508A2.531,2.531,0,0,0,24.9-1.418a2.077,2.077,0,0,0,.809-.941V-8.453H27.25V0H25.867ZM36.7-3.906A4.659,4.659,0,0,1,35.82-.957,2.893,2.893,0,0,1,33.406.164,3.354,3.354,0,0,1,32.035-.1a2.622,2.622,0,0,1-1-.785V3.25H29.492v-11.7h1.18l.242,1.094a2.792,2.792,0,0,1,1.031-.93,3.078,3.078,0,0,1,1.438-.32,2.809,2.809,0,0,1,2.441,1.246A5.637,5.637,0,0,1,36.7-4.07ZM35.156-4.07a4.467,4.467,0,0,0-.566-2.363,1.835,1.835,0,0,0-1.668-.926,2.054,2.054,0,0,0-1.133.3,2.25,2.25,0,0,0-.758.824v4.086a2.186,2.186,0,0,0,.758.816,2.126,2.126,0,0,0,1.148.293,1.894,1.894,0,0,0,1.656-.8,3.516,3.516,0,0,0,.563-2.066ZM43.781,0Q43.7-.383,43.66-.676a4.96,4.96,0,0,1-.051-.59,3.589,3.589,0,0,1-1.121,1.02A2.867,2.867,0,0,1,41,.164a2.763,2.763,0,0,1-2.012-.676A2.486,2.486,0,0,1,38.3-2.375a2.183,2.183,0,0,1,.98-1.895,4.579,4.579,0,0,1,2.66-.684h1.672v-.836a1.551,1.551,0,0,0-.453-1.176A1.779,1.779,0,0,0,41.875-7.4a1.859,1.859,0,0,0-1.211.375,1.125,1.125,0,0,0-.461.9l-1.461.016-.016-.047a2.023,2.023,0,0,1,.863-1.687,3.578,3.578,0,0,1,2.371-.766,3.49,3.49,0,0,1,2.313.73,2.588,2.588,0,0,1,.875,2.105V-1.7a7.923,7.923,0,0,0,.047.875A4.5,4.5,0,0,0,45.367,0ZM41.227-1.125a2.739,2.739,0,0,0,1.508-.43,2.042,2.042,0,0,0,.875-.984V-3.914H41.883a2.24,2.24,0,0,0-1.488.469,1.4,1.4,0,0,0-.559,1.1,1.159,1.159,0,0,0,.352.891A1.472,1.472,0,0,0,41.227-1.125Zm5.8-2.945A5.641,5.641,0,0,1,47.9-7.359a2.807,2.807,0,0,1,2.441-1.25,3.027,3.027,0,0,1,1.316.273,2.7,2.7,0,0,1,.98.8v-4.648H54.18V0H53l-.234-1.07a2.743,2.743,0,0,1-1.023.922,3.058,3.058,0,0,1-1.414.313A2.9,2.9,0,0,1,47.906-.957a4.659,4.659,0,0,1-.875-2.949Zm1.539.164a3.588,3.588,0,0,0,.523,2.051,1.828,1.828,0,0,0,1.625.77A2.039,2.039,0,0,0,51.875-1.4a2.334,2.334,0,0,0,.766-.875V-6.219a2.37,2.37,0,0,0-.77-.832,2.033,2.033,0,0,0-1.137-.309,1.759,1.759,0,0,0-1.637.914A4.718,4.718,0,0,0,48.57-4.07ZM61.672,0q-.078-.383-.121-.676a4.96,4.96,0,0,1-.051-.59,3.589,3.589,0,0,1-1.121,1.02,2.867,2.867,0,0,1-1.488.41,2.763,2.763,0,0,1-2.012-.676,2.486,2.486,0,0,1-.691-1.863,2.183,2.183,0,0,1,.98-1.895,4.579,4.579,0,0,1,2.66-.684H61.5v-.836a1.551,1.551,0,0,0-.453-1.176A1.779,1.779,0,0,0,59.766-7.4a1.859,1.859,0,0,0-1.211.375,1.125,1.125,0,0,0-.461.9l-1.461.016-.016-.047a2.023,2.023,0,0,1,.863-1.687,3.578,3.578,0,0,1,2.371-.766,3.49,3.49,0,0,1,2.313.73,2.588,2.588,0,0,1,.875,2.105V-1.7a7.923,7.923,0,0,0,.047.875A4.5,4.5,0,0,0,63.258,0ZM59.117-1.125a2.739,2.739,0,0,0,1.508-.43,2.042,2.042,0,0,0,.875-.984V-3.914H59.773a2.24,2.24,0,0,0-1.488.469,1.4,1.4,0,0,0-.559,1.1,1.159,1.159,0,0,0,.352.891A1.472,1.472,0,0,0,59.117-1.125ZM70.625-8.453,70.734-7.2a3.069,3.069,0,0,1,1.059-1.043,2.824,2.824,0,0,1,1.449-.371,2.759,2.759,0,0,1,2.117.8,3.515,3.515,0,0,1,.75,2.473V0H74.57V-5.3a2.287,2.287,0,0,0-.441-1.586,1.768,1.768,0,0,0-1.348-.469,2.386,2.386,0,0,0-1.207.285,2.072,2.072,0,0,0-.785.8V0H69.25V-8.453ZM77.984-4.3A4.654,4.654,0,0,1,79-7.395a3.406,3.406,0,0,1,2.758-1.215A3.439,3.439,0,0,1,84.535-7.4,4.639,4.639,0,0,1,85.555-4.3v.172a4.631,4.631,0,0,1-1.016,3.094,3.429,3.429,0,0,1-2.766,1.2A3.436,3.436,0,0,1,79-1.043a4.623,4.623,0,0,1-1.02-3.09Zm1.539.172a4.009,4.009,0,0,0,.566,2.219,1.875,1.875,0,0,0,1.684.875,1.87,1.87,0,0,0,1.672-.875,3.988,3.988,0,0,0,.57-2.219V-4.3a3.976,3.976,0,0,0-.574-2.211A1.882,1.882,0,0,0,81.758-7.4a1.856,1.856,0,0,0-1.668.883A4.018,4.018,0,0,0,79.523-4.3ZM.766,13.93a5.641,5.641,0,0,1,.871-3.289,2.807,2.807,0,0,1,2.441-1.25,3.027,3.027,0,0,1,1.316.273,2.7,2.7,0,0,1,.98.8V5.813H7.914V18H6.734L6.5,16.93a2.743,2.743,0,0,1-1.023.922,3.058,3.058,0,0,1-1.414.313,2.9,2.9,0,0,1-2.422-1.121,4.659,4.659,0,0,1-.875-2.949Zm1.539.164a3.588,3.588,0,0,0,.523,2.051,1.828,1.828,0,0,0,1.625.77A2.039,2.039,0,0,0,5.609,16.6a2.334,2.334,0,0,0,.766-.875V11.781a2.37,2.37,0,0,0-.77-.832,2.033,2.033,0,0,0-1.137-.309,1.759,1.759,0,0,0-1.637.914A4.718,4.718,0,0,0,2.3,13.93Zm11.406,4.07A3.576,3.576,0,0,1,10.871,17a4.48,4.48,0,0,1-1.02-3.062v-.344A4.386,4.386,0,0,1,10.9,10.582a3.3,3.3,0,0,1,2.566-1.191,3.067,3.067,0,0,1,2.543,1.055,4.345,4.345,0,0,1,.848,2.8v.813H11.453l-.023.039a3.494,3.494,0,0,0,.563,2.066,1.965,1.965,0,0,0,1.719.793,3.872,3.872,0,0,0,1.371-.223,3.061,3.061,0,0,0,1.012-.613l.6,1a3.7,3.7,0,0,1-1.2.738A4.762,4.762,0,0,1,13.711,18.164ZM13.469,10.6a1.673,1.673,0,0,0-1.332.621,2.938,2.938,0,0,0-.645,1.59l.016.039H15.32v-.125a2.462,2.462,0,0,0-.453-1.523A1.638,1.638,0,0,0,13.469,10.6ZM23.5,15.727a1.026,1.026,0,0,0-.387-.828,3.732,3.732,0,0,0-1.465-.562,6.146,6.146,0,0,1-2.293-.9,1.814,1.814,0,0,1-.8-1.547,2.229,2.229,0,0,1,.879-1.766,3.433,3.433,0,0,1,2.277-.734,3.4,3.4,0,0,1,2.328.781,2.239,2.239,0,0,1,.852,1.82l-.016.047H23.406a1.331,1.331,0,0,0-.48-.992,1.717,1.717,0,0,0-1.215-.445,1.751,1.751,0,0,0-1.215.367,1.146,1.146,0,0,0-.4.875.927.927,0,0,0,.348.773,3.848,3.848,0,0,0,1.434.5,6.058,6.058,0,0,1,2.359.93,1.872,1.872,0,0,1,.8,1.57,2.226,2.226,0,0,1-.91,1.836,3.754,3.754,0,0,1-2.379.711,3.715,3.715,0,0,1-2.547-.82,2.341,2.341,0,0,1-.883-1.914l.016-.047H19.8a1.424,1.424,0,0,0,.609,1.2,2.358,2.358,0,0,0,1.336.379,2.1,2.1,0,0,0,1.285-.348A1.063,1.063,0,0,0,23.5,15.727Zm6.953,2.438A3.576,3.576,0,0,1,27.613,17a4.48,4.48,0,0,1-1.02-3.062v-.344a4.386,4.386,0,0,1,1.051-3.012,3.3,3.3,0,0,1,2.566-1.191,3.067,3.067,0,0,1,2.543,1.055,4.345,4.345,0,0,1,.848,2.8v.813H28.2l-.023.039a3.494,3.494,0,0,0,.563,2.066,1.965,1.965,0,0,0,1.719.793,3.872,3.872,0,0,0,1.371-.223,3.061,3.061,0,0,0,1.012-.613l.6,1a3.7,3.7,0,0,1-1.2.738A4.762,4.762,0,0,1,30.453,18.164ZM30.211,10.6a1.673,1.673,0,0,0-1.332.621,2.938,2.938,0,0,0-.645,1.59l.016.039h3.813v-.125a2.462,2.462,0,0,0-.453-1.523A1.638,1.638,0,0,0,30.211,10.6ZM40.523,18q-.078-.383-.121-.676a4.96,4.96,0,0,1-.051-.59,3.589,3.589,0,0,1-1.121,1.02,2.867,2.867,0,0,1-1.488.41,2.763,2.763,0,0,1-2.012-.676,2.486,2.486,0,0,1-.691-1.863,2.183,2.183,0,0,1,.98-1.895,4.579,4.579,0,0,1,2.66-.684h1.672v-.836a1.551,1.551,0,0,0-.453-1.176,1.779,1.779,0,0,0-1.281-.434,1.859,1.859,0,0,0-1.211.375,1.125,1.125,0,0,0-.461.9l-1.461.016-.016-.047a2.023,2.023,0,0,1,.863-1.687A3.578,3.578,0,0,1,38.7,9.391a3.49,3.49,0,0,1,2.313.73,2.588,2.588,0,0,1,.875,2.105V16.3a7.923,7.923,0,0,0,.047.875,4.5,4.5,0,0,0,.172.828Zm-2.555-1.125a2.739,2.739,0,0,0,1.508-.43,2.042,2.042,0,0,0,.875-.984V14.086H38.625a2.24,2.24,0,0,0-1.488.469,1.4,1.4,0,0,0-.559,1.1,1.159,1.159,0,0,0,.352.891A1.472,1.472,0,0,0,37.969,16.875Zm15.047-1.148a1.026,1.026,0,0,0-.387-.828,3.732,3.732,0,0,0-1.465-.562,6.146,6.146,0,0,1-2.293-.9,1.814,1.814,0,0,1-.8-1.547,2.229,2.229,0,0,1,.879-1.766,3.879,3.879,0,0,1,4.605.047,2.239,2.239,0,0,1,.852,1.82l-.016.047H52.922a1.331,1.331,0,0,0-.48-.992,1.717,1.717,0,0,0-1.215-.445,1.751,1.751,0,0,0-1.215.367,1.146,1.146,0,0,0-.4.875.927.927,0,0,0,.348.773,3.848,3.848,0,0,0,1.434.5,6.058,6.058,0,0,1,2.359.93,1.872,1.872,0,0,1,.8,1.57,2.226,2.226,0,0,1-.91,1.836,3.754,3.754,0,0,1-2.379.711,3.715,3.715,0,0,1-2.547-.82,2.341,2.341,0,0,1-.883-1.914l.016-.047H49.32a1.424,1.424,0,0,0,.609,1.2,2.358,2.358,0,0,0,1.336.379,2.1,2.1,0,0,0,1.285-.348A1.063,1.063,0,0,0,53.016,15.727Zm6.953,2.438A3.576,3.576,0,0,1,57.129,17a4.48,4.48,0,0,1-1.02-3.062v-.344a4.386,4.386,0,0,1,1.051-3.012,3.3,3.3,0,0,1,2.566-1.191,3.067,3.067,0,0,1,2.543,1.055,4.345,4.345,0,0,1,.848,2.8v.813H57.711l-.023.039a3.494,3.494,0,0,0,.563,2.066,1.965,1.965,0,0,0,1.719.793,3.872,3.872,0,0,0,1.371-.223,3.061,3.061,0,0,0,1.012-.613l.6,1a3.7,3.7,0,0,1-1.2.738A4.762,4.762,0,0,1,59.969,18.164ZM59.727,10.6a1.673,1.673,0,0,0-1.332.621,2.938,2.938,0,0,0-.645,1.59l.016.039h3.813v-.125a2.462,2.462,0,0,0-.453-1.523A1.638,1.638,0,0,0,59.727,10.6Zm9.117.3-.789-.047a1.762,1.762,0,0,0-1.027.289,1.854,1.854,0,0,0-.645.813V18H64.844V9.547h1.375l.148,1.234a2.934,2.934,0,0,1,.887-1.023,2.073,2.073,0,0,1,1.215-.367,1.9,1.9,0,0,1,.328.027,2.175,2.175,0,0,1,.258.059Zm4.563,4.6.133.594h.047l.148-.594L75.68,9.547h1.57L74.141,18H72.977L69.828,9.547h1.578ZM80.3,18H78.758V9.547H80.3Zm0-10.617H78.758V5.813H80.3Zm5.727,9.578a1.81,1.81,0,0,0,1.242-.473,1.494,1.494,0,0,0,.531-1.16h1.391l.023.047a2.428,2.428,0,0,1-.937,1.941,3.582,3.582,0,0,1-5-.363,4.674,4.674,0,0,1-.969-3.016v-.328a4.654,4.654,0,0,1,.973-3,3.317,3.317,0,0,1,2.746-1.215,3.189,3.189,0,0,1,2.316.875,2.775,2.775,0,0,1,.871,2.148l-.016.047H87.8a1.865,1.865,0,0,0-.5-1.316,1.658,1.658,0,0,0-1.27-.543,1.777,1.777,0,0,0-1.652.879,4.114,4.114,0,0,0-.52,2.129v.328a4.192,4.192,0,0,0,.512,2.148A1.776,1.776,0,0,0,86.023,16.961ZM92.7,18H91.164V9.547H92.7Zm0-10.617H91.164V5.813H92.7ZM94.711,13.7a4.654,4.654,0,0,1,1.016-3.09,3.764,3.764,0,0,1,5.535,0,4.639,4.639,0,0,1,1.02,3.094v.172a4.631,4.631,0,0,1-1.016,3.094,3.781,3.781,0,0,1-5.535,0,4.623,4.623,0,0,1-1.02-3.09Zm1.539.172a4.009,4.009,0,0,0,.566,2.219,2.046,2.046,0,0,0,3.355,0,3.988,3.988,0,0,0,.57-2.219V13.7a3.976,3.976,0,0,0-.574-2.211,1.882,1.882,0,0,0-1.684-.883,1.856,1.856,0,0,0-1.668.883A4.018,4.018,0,0,0,96.25,13.7Z" transform="translate(671 5055)" fill="#111e61"/>
    <path id="Trazado_33971" data-name="Trazado 33971" d="M10,0H318a10,10,0,0,1,10,10V74H0V10A10,10,0,0,1,10,0Z" transform="translate(559 4641)" fill="#ffc571"/>
    <path id="Trazado_33951" data-name="Trazado 33951" d="M0,0V368" transform="translate(651 4715)" fill="none" stroke="#111e61" stroke-linecap="round" stroke-width="2"/>
    <path id="Trazado_33972" data-name="Trazado 33972" d="M-102.29-4.795l.02.059a4.57,4.57,0,0,1-1.372,3.687,5.82,5.82,0,0,1-4,1.255,5.694,5.694,0,0,1-4.233-1.611,5.734,5.734,0,0,1-1.6-4.219V-8.594a5.861,5.861,0,0,1,1.538-4.214,5.354,5.354,0,0,1,4.067-1.616,6.268,6.268,0,0,1,4.185,1.26,4.441,4.441,0,0,1,1.44,3.662l-.029.059h-3.213a2.613,2.613,0,0,0-.557-1.875,2.484,2.484,0,0,0-1.826-.566,1.931,1.931,0,0,0-1.709.894,4.225,4.225,0,0,0-.6,2.378v2.988a3.977,3.977,0,0,0,.654,2.393,2.179,2.179,0,0,0,1.875.9,2.088,2.088,0,0,0,1.636-.566,2.84,2.84,0,0,0,.5-1.895Zm1.211-.586a5.585,5.585,0,0,1,1.348-3.882,4.8,4.8,0,0,1,3.76-1.5,4.808,4.808,0,0,1,3.77,1.5,5.585,5.585,0,0,1,1.348,3.882v.205A5.581,5.581,0,0,1-92.2-1.289,4.792,4.792,0,0,1-95.952.205a4.829,4.829,0,0,1-3.779-1.494,5.581,5.581,0,0,1-1.348-3.887Zm3.3.205a4.368,4.368,0,0,0,.415,2.085,1.477,1.477,0,0,0,1.411.757A1.459,1.459,0,0,0-94.565-3.1a4.331,4.331,0,0,0,.42-2.08v-.205a4.347,4.347,0,0,0-.42-2.065,1.471,1.471,0,0,0-1.406-.776,1.45,1.45,0,0,0-1.392.781,4.4,4.4,0,0,0-.415,2.061Zm11.416-5.391.127,1.484a3.825,3.825,0,0,1,1.279-1.235,3.31,3.31,0,0,1,1.7-.444A2.979,2.979,0,0,1-80.83-9.707a5.218,5.218,0,0,1,.874,3.35V0h-3.3V-6.367A2.421,2.421,0,0,0-83.579-7.8a1.1,1.1,0,0,0-.937-.425,2.32,2.32,0,0,0-.947.186,1.891,1.891,0,0,0-.7.527V0h-3.291V-10.566ZM-74.2-4.355l.2,1.123.059.01.215-1.133,1.4-6.211h3.467L-72.31,0h-3.35L-79.1-10.566h3.477ZM-63.315.205A4.906,4.906,0,0,1-67.08-1.25a5.174,5.174,0,0,1-1.362-3.682V-5.3a5.912,5.912,0,0,1,1.284-3.945,4.562,4.562,0,0,1,3.716-1.514,4.279,4.279,0,0,1,3.315,1.279A4.98,4.98,0,0,1-58.95-5.977v1.729H-65l-.02.059a2.052,2.052,0,0,0,.615,1.343,2.148,2.148,0,0,0,1.543.513,6.687,6.687,0,0,0,1.577-.156,9.942,9.942,0,0,0,1.44-.5l.791,2.012a6.04,6.04,0,0,1-1.836.84A8.473,8.473,0,0,1-63.315.205Zm-.127-8.428a1.362,1.362,0,0,0-1.167.5,2.523,2.523,0,0,0-.435,1.362l.02.049h2.852v-.254a2.2,2.2,0,0,0-.288-1.24A1.1,1.1,0,0,0-63.442-8.223Zm8.926-2.344.127,1.484a3.825,3.825,0,0,1,1.279-1.235,3.31,3.31,0,0,1,1.7-.444,2.979,2.979,0,0,1,2.427,1.055,5.218,5.218,0,0,1,.874,3.35V0h-3.3V-6.367A2.421,2.421,0,0,0-51.733-7.8a1.1,1.1,0,0,0-.937-.425,2.32,2.32,0,0,0-.947.186,1.891,1.891,0,0,0-.7.527V0h-3.291V-10.566Zm12.725,8.232A1.291,1.291,0,0,0-40.786-2.7a1.526,1.526,0,0,0,.332-1.06h3.008l.02.059a3.469,3.469,0,0,1-1.2,2.817A4.616,4.616,0,0,1-41.792.205a4.675,4.675,0,0,1-3.716-1.489,5.679,5.679,0,0,1-1.3-3.882v-.225a5.7,5.7,0,0,1,1.3-3.877,4.64,4.64,0,0,1,3.7-1.494,4.545,4.545,0,0,1,3.218,1.118,3.857,3.857,0,0,1,1.167,3.062l-.02.059h-3.008A2.045,2.045,0,0,0-40.8-7.749a1.172,1.172,0,0,0-1.016-.474,1.357,1.357,0,0,0-1.333.767,4.74,4.74,0,0,0-.376,2.065v.225a4.723,4.723,0,0,0,.376,2.08A1.378,1.378,0,0,0-41.792-2.334ZM-32.622,0h-3.311V-10.566h3.311Zm0-13.018h-3.311v-2.217h3.311Zm1.582,7.637a5.585,5.585,0,0,1,1.348-3.882,4.8,4.8,0,0,1,3.76-1.5,4.808,4.808,0,0,1,3.77,1.5,5.585,5.585,0,0,1,1.348,3.882v.205a5.581,5.581,0,0,1-1.348,3.887A4.792,4.792,0,0,1-25.913.205a4.829,4.829,0,0,1-3.779-1.494A5.581,5.581,0,0,1-31.04-5.176Zm3.3.205a4.368,4.368,0,0,0,.415,2.085,1.477,1.477,0,0,0,1.411.757A1.459,1.459,0,0,0-24.526-3.1a4.331,4.331,0,0,0,.42-2.08v-.205a4.347,4.347,0,0,0-.42-2.065,1.471,1.471,0,0,0-1.406-.776,1.45,1.45,0,0,0-1.392.781,4.4,4.4,0,0,0-.415,2.061Zm11.416-5.391.127,1.484a3.825,3.825,0,0,1,1.279-1.235,3.31,3.31,0,0,1,1.7-.444,2.979,2.979,0,0,1,2.427,1.055,5.218,5.218,0,0,1,.874,3.35V0h-3.3V-6.367A2.421,2.421,0,0,0-13.54-7.8a1.1,1.1,0,0,0-.937-.425,2.32,2.32,0,0,0-.947.186,1.891,1.891,0,0,0-.7.527V0h-3.291V-10.566ZM-3.433.205A4.906,4.906,0,0,1-7.2-1.25,5.174,5.174,0,0,1-8.56-4.932V-5.3A5.912,5.912,0,0,1-7.275-9.248,4.562,4.562,0,0,1-3.56-10.762,4.279,4.279,0,0,1-.244-9.482,4.98,4.98,0,0,1,.933-5.977v1.729H-5.122l-.02.059a2.052,2.052,0,0,0,.615,1.343,2.148,2.148,0,0,0,1.543.513A6.687,6.687,0,0,0-1.406-2.49a9.942,9.942,0,0,0,1.44-.5L.825-.977a6.04,6.04,0,0,1-1.836.84A8.473,8.473,0,0,1-3.433.205ZM-3.56-8.223a1.362,1.362,0,0,0-1.167.5,2.523,2.523,0,0,0-.435,1.362l.02.049H-2.29v-.254A2.2,2.2,0,0,0-2.578-7.8,1.1,1.1,0,0,0-3.56-8.223Zm11.4,5.254a.862.862,0,0,0-.444-.7,4.792,4.792,0,0,0-1.616-.552A6.38,6.38,0,0,1,2.993-5.337a2.533,2.533,0,0,1-.937-2.085A2.971,2.971,0,0,1,3.228-9.79,4.82,4.82,0,0,1,6.4-10.762a5.45,5.45,0,0,1,3.359.942,2.771,2.771,0,0,1,1.191,2.437l-.02.059h-3.2a1.309,1.309,0,0,0-.312-.947,1.383,1.383,0,0,0-1.025-.322,1.341,1.341,0,0,0-.869.283.888.888,0,0,0-.352.723.86.86,0,0,0,.405.713,4.584,4.584,0,0,0,1.636.527A6.571,6.571,0,0,1,10.083-5.21a2.609,2.609,0,0,1,.928,2.144A2.8,2.8,0,0,1,9.746-.718,5.547,5.547,0,0,1,6.4.205,5.016,5.016,0,0,1,2.988-.889a3.013,3.013,0,0,1-1.2-2.441l.02-.059H4.8A1.325,1.325,0,0,0,5.254-2.3a2,2,0,0,0,1.235.332A1.649,1.649,0,0,0,7.5-2.231.87.87,0,0,0,7.837-2.969ZM17.1-5.264a6.719,6.719,0,0,1,1.079-3.984,3.518,3.518,0,0,1,3.042-1.514,2.623,2.623,0,0,1,1.323.337,3.5,3.5,0,0,1,1.06.962v-5.771h3.3V0H24.019l-.225-1.289A3.553,3.553,0,0,1,22.676-.181a2.79,2.79,0,0,1-1.47.386A3.552,3.552,0,0,1,18.179-1.24,6.248,6.248,0,0,1,17.1-5.059Zm3.3.205a4.388,4.388,0,0,0,.376,2.007,1.314,1.314,0,0,0,1.265.718,2.081,2.081,0,0,0,.913-.19,1.636,1.636,0,0,0,.649-.562V-7.354A1.8,1.8,0,0,0,22.964-8a1.77,1.77,0,0,0-.9-.225,1.317,1.317,0,0,0-1.27.811,4.989,4.989,0,0,0-.391,2.148ZM33.472.205A4.906,4.906,0,0,1,29.707-1.25a5.174,5.174,0,0,1-1.362-3.682V-5.3a5.912,5.912,0,0,1,1.284-3.945,4.562,4.562,0,0,1,3.716-1.514A4.279,4.279,0,0,1,36.66-9.482a4.98,4.98,0,0,1,1.177,3.506v1.729H31.782l-.02.059a2.052,2.052,0,0,0,.615,1.343,2.148,2.148,0,0,0,1.543.513A6.687,6.687,0,0,0,35.5-2.49a9.942,9.942,0,0,0,1.44-.5l.791,2.012a6.04,6.04,0,0,1-1.836.84A8.473,8.473,0,0,1,33.472.205Zm-.127-8.428a1.362,1.362,0,0,0-1.167.5,2.523,2.523,0,0,0-.435,1.362l.02.049h2.852v-.254a2.2,2.2,0,0,0-.288-1.24A1.1,1.1,0,0,0,33.345-8.223ZM48.9.205A4.906,4.906,0,0,1,45.137-1.25a5.174,5.174,0,0,1-1.362-3.682V-5.3a5.912,5.912,0,0,1,1.284-3.945,4.562,4.562,0,0,1,3.716-1.514A4.279,4.279,0,0,1,52.09-9.482a4.98,4.98,0,0,1,1.177,3.506v1.729H47.212l-.02.059a2.052,2.052,0,0,0,.615,1.343,2.148,2.148,0,0,0,1.543.513,6.687,6.687,0,0,0,1.577-.156,9.942,9.942,0,0,0,1.44-.5l.791,2.012a6.04,6.04,0,0,1-1.836.84A8.473,8.473,0,0,1,48.9.205Zm-.127-8.428a1.362,1.362,0,0,0-1.167.5,2.523,2.523,0,0,0-.435,1.362l.02.049h2.852v-.254a2.2,2.2,0,0,0-.288-1.24A1.1,1.1,0,0,0,48.774-8.223Zm11.4,5.254a.862.862,0,0,0-.444-.7,4.792,4.792,0,0,0-1.616-.552,6.38,6.38,0,0,1-2.783-1.118,2.533,2.533,0,0,1-.937-2.085A2.971,2.971,0,0,1,55.562-9.79a4.82,4.82,0,0,1,3.174-.972,5.45,5.45,0,0,1,3.359.942,2.771,2.771,0,0,1,1.191,2.437l-.02.059h-3.2a1.309,1.309,0,0,0-.312-.947,1.383,1.383,0,0,0-1.025-.322,1.341,1.341,0,0,0-.869.283.888.888,0,0,0-.352.723.86.86,0,0,0,.405.713,4.584,4.584,0,0,0,1.636.527A6.571,6.571,0,0,1,62.417-5.21a2.609,2.609,0,0,1,.928,2.144A2.8,2.8,0,0,1,62.08-.718a5.547,5.547,0,0,1-3.345.923A5.016,5.016,0,0,1,55.322-.889a3.013,3.013,0,0,1-1.2-2.441l.02-.059h2.988A1.325,1.325,0,0,0,57.588-2.3a2,2,0,0,0,1.235.332,1.649,1.649,0,0,0,1.006-.259A.87.87,0,0,0,60.171-2.969Zm8.516-10.225v2.627h1.67v2.285h-1.67v4.844a1.185,1.185,0,0,0,.229.815.8.8,0,0,0,.62.249,3.318,3.318,0,0,0,.405-.02,3.509,3.509,0,0,0,.386-.078l.225,2.441a7.968,7.968,0,0,1-.9.181,7.236,7.236,0,0,1-.947.054A3.3,3.3,0,0,1,66.23-.664a3.836,3.836,0,0,1-.845-2.754V-8.281H63.911v-2.285h1.475v-2.627ZM78.062-.01a3.987,3.987,0,0,1-.317-.752,5.765,5.765,0,0,1-.2-.879A4.038,4.038,0,0,1,76.484-.3a2.558,2.558,0,0,1-1.646.5,3.659,3.659,0,0,1-2.583-.854,3.019,3.019,0,0,1-.923-2.329,2.817,2.817,0,0,1,1.182-2.427A6.126,6.126,0,0,1,76.1-6.26h1.357v-.752a1.505,1.505,0,0,0-.322-1.035,1.255,1.255,0,0,0-.986-.361,1.19,1.19,0,0,0-.854.269,1.114,1.114,0,0,0-.278.835l-3.2-.01-.02-.059A2.756,2.756,0,0,1,73-9.79a5.4,5.4,0,0,1,3.364-.972,4.921,4.921,0,0,1,3.179.977,3.375,3.375,0,0,1,1.216,2.793v3.984A8.129,8.129,0,0,0,80.9-1.445,8.367,8.367,0,0,0,81.323,0ZM75.737-2.148a2.011,2.011,0,0,0,1.069-.283,1.621,1.621,0,0,0,.649-.674V-4.5H76.128a1.492,1.492,0,0,0-1.143.381,1.37,1.37,0,0,0-.352.967.935.935,0,0,0,.308.728A1.141,1.141,0,0,0,75.737-2.148Zm6.387-3.115A6.719,6.719,0,0,1,83.2-9.248a3.518,3.518,0,0,1,3.042-1.514,2.623,2.623,0,0,1,1.323.337,3.5,3.5,0,0,1,1.06.962v-5.771h3.3V0H89.038l-.225-1.289A3.553,3.553,0,0,1,87.7-.181a2.79,2.79,0,0,1-1.47.386A3.552,3.552,0,0,1,83.2-1.24a6.248,6.248,0,0,1-1.074-3.818Zm3.3.205A4.388,4.388,0,0,0,85.8-3.052a1.314,1.314,0,0,0,1.265.718,2.081,2.081,0,0,0,.913-.19,1.636,1.636,0,0,0,.649-.562V-7.354A1.8,1.8,0,0,0,87.983-8a1.77,1.77,0,0,0-.9-.225,1.317,1.317,0,0,0-1.27.811,4.989,4.989,0,0,0-.391,2.148Zm7.939-.322a5.585,5.585,0,0,1,1.348-3.882,4.8,4.8,0,0,1,3.76-1.5,4.808,4.808,0,0,1,3.77,1.5,5.585,5.585,0,0,1,1.348,3.882v.205a5.581,5.581,0,0,1-1.348,3.887A4.792,4.792,0,0,1,98.491.205a4.829,4.829,0,0,1-3.779-1.494,5.581,5.581,0,0,1-1.348-3.887Zm3.3.205a4.368,4.368,0,0,0,.415,2.085,1.477,1.477,0,0,0,1.411.757A1.459,1.459,0,0,0,99.878-3.1a4.331,4.331,0,0,0,.42-2.08v-.205a4.347,4.347,0,0,0-.42-2.065,1.471,1.471,0,0,0-1.406-.776,1.45,1.45,0,0,0-1.392.781,4.4,4.4,0,0,0-.415,2.061Zm13.887,2.207a.862.862,0,0,0-.444-.7,4.792,4.792,0,0,0-1.616-.552,6.38,6.38,0,0,1-2.783-1.118,2.533,2.533,0,0,1-.937-2.085,2.971,2.971,0,0,1,1.172-2.368,4.82,4.82,0,0,1,3.174-.972,5.45,5.45,0,0,1,3.359.942,2.771,2.771,0,0,1,1.191,2.437l-.02.059h-3.2a1.309,1.309,0,0,0-.312-.947,1.383,1.383,0,0,0-1.025-.322,1.341,1.341,0,0,0-.869.283.888.888,0,0,0-.352.723.86.86,0,0,0,.405.713,4.584,4.584,0,0,0,1.636.527A6.571,6.571,0,0,1,112.8-5.21a2.609,2.609,0,0,1,.928,2.144,2.8,2.8,0,0,1-1.265,2.349,5.547,5.547,0,0,1-3.345.923A5.016,5.016,0,0,1,105.7-.889a3.013,3.013,0,0,1-1.2-2.441l.02-.059h2.988a1.325,1.325,0,0,0,.454,1.084,2,2,0,0,0,1.235.332,1.649,1.649,0,0,0,1.006-.259A.87.87,0,0,0,110.552-2.969ZM-115.576,21.736a6.719,6.719,0,0,1,1.079-3.984,3.518,3.518,0,0,1,3.042-1.514,2.623,2.623,0,0,1,1.323.337,3.5,3.5,0,0,1,1.06.962V11.766h3.3V27h-2.891l-.225-1.289A3.553,3.553,0,0,1-110,26.819a2.79,2.79,0,0,1-1.47.386A3.552,3.552,0,0,1-114.5,25.76a6.248,6.248,0,0,1-1.074-3.818Zm3.3.205a4.388,4.388,0,0,0,.376,2.007,1.314,1.314,0,0,0,1.265.718,2.081,2.081,0,0,0,.913-.19,1.636,1.636,0,0,0,.649-.562V19.646a1.8,1.8,0,0,0-.645-.645,1.77,1.77,0,0,0-.9-.225,1.317,1.317,0,0,0-1.27.811,4.989,4.989,0,0,0-.391,2.148Zm13.066,5.264a4.906,4.906,0,0,1-3.765-1.455,5.174,5.174,0,0,1-1.362-3.682V21.7a5.912,5.912,0,0,1,1.284-3.945,4.562,4.562,0,0,1,3.716-1.514,4.279,4.279,0,0,1,3.315,1.279,4.98,4.98,0,0,1,1.177,3.506v1.729H-100.9l-.02.059a2.052,2.052,0,0,0,.615,1.343,2.148,2.148,0,0,0,1.543.513,6.687,6.687,0,0,0,1.577-.156,9.942,9.942,0,0,0,1.44-.5l.791,2.012a6.04,6.04,0,0,1-1.836.84A8.473,8.473,0,0,1-99.209,27.205Zm-.127-8.428a1.362,1.362,0,0,0-1.167.5,2.523,2.523,0,0,0-.435,1.362l.02.049h2.852v-.254a2.2,2.2,0,0,0-.288-1.24A1.1,1.1,0,0,0-99.336,18.777Zm14.072-1.035A3.5,3.5,0,0,1-84.1,16.634a2.994,2.994,0,0,1,1.519-.4A3.154,3.154,0,0,1-80,17.381a5.534,5.534,0,0,1,.938,3.545V27h-3.3V20.906a3.169,3.169,0,0,0-.312-1.67,1.068,1.068,0,0,0-.947-.459,2.638,2.638,0,0,0-.967.161,1.749,1.749,0,0,0-.674.454V27h-3.3V11.766h3.3Zm14.141,9.248a3.987,3.987,0,0,1-.317-.752,5.765,5.765,0,0,1-.2-.879A4.038,4.038,0,0,1-72.7,26.7a2.558,2.558,0,0,1-1.646.5,3.659,3.659,0,0,1-2.583-.854,3.019,3.019,0,0,1-.923-2.329,2.817,2.817,0,0,1,1.182-2.427,6.126,6.126,0,0,1,3.584-.854h1.357v-.752a1.505,1.505,0,0,0-.322-1.035,1.255,1.255,0,0,0-.986-.361,1.19,1.19,0,0,0-.854.269,1.114,1.114,0,0,0-.278.835l-3.2-.01-.02-.059a2.756,2.756,0,0,1,1.206-2.417,5.4,5.4,0,0,1,3.364-.972,4.921,4.921,0,0,1,3.179.977,3.375,3.375,0,0,1,1.216,2.793v3.984a8.129,8.129,0,0,0,.142,1.563A8.367,8.367,0,0,0-67.861,27Zm-2.324-2.139a2.011,2.011,0,0,0,1.069-.283,1.621,1.621,0,0,0,.649-.674V22.5h-1.328a1.492,1.492,0,0,0-1.143.381,1.37,1.37,0,0,0-.352.967.935.935,0,0,0,.308.728A1.141,1.141,0,0,0-73.447,24.852Zm16.611-2.91a6.4,6.4,0,0,1-1.035,3.838,3.546,3.546,0,0,1-3.066,1.426,2.961,2.961,0,0,1-1.5-.371,3.271,3.271,0,0,1-1.1-1.074l-.2,1.24h-2.881V11.766h3.3v5.693a3.183,3.183,0,0,1,1.021-.9,2.757,2.757,0,0,1,1.343-.317,3.51,3.51,0,0,1,3.081,1.494,6.889,6.889,0,0,1,1.04,4Zm-3.291-.205a5.432,5.432,0,0,0-.352-2.183,1.306,1.306,0,0,0-1.309-.776,1.98,1.98,0,0,0-.923.2,1.5,1.5,0,0,0-.61.581V24a1.439,1.439,0,0,0,.62.5,2.354,2.354,0,0,0,.933.166,1.313,1.313,0,0,0,1.309-.679,4.849,4.849,0,0,0,.332-2.046Zm8.2,5.264h-3.311V16.434h3.311Zm0-13.018h-3.311V11.766h3.311Zm5.811-.176v2.627h1.67v2.285h-1.67v4.844a1.185,1.185,0,0,0,.229.815.8.8,0,0,0,.62.249,3.318,3.318,0,0,0,.405-.02,3.509,3.509,0,0,0,.386-.078l.225,2.441a7.968,7.968,0,0,1-.9.181,7.236,7.236,0,0,1-.947.054,3.3,3.3,0,0,1-2.476-.869,3.836,3.836,0,0,1-.845-2.754V18.719h-1.475V16.434h1.475V13.807Zm9.375,13.184a3.986,3.986,0,0,1-.317-.752,5.765,5.765,0,0,1-.2-.879,4.038,4.038,0,0,1-1.06,1.343,2.558,2.558,0,0,1-1.646.5,3.659,3.659,0,0,1-2.583-.854,3.019,3.019,0,0,1-.923-2.329,2.817,2.817,0,0,1,1.182-2.427A6.126,6.126,0,0,1-38.7,20.74h1.357v-.752a1.505,1.505,0,0,0-.322-1.035,1.255,1.255,0,0,0-.986-.361,1.19,1.19,0,0,0-.854.269,1.114,1.114,0,0,0-.278.835l-3.2-.01-.02-.059A2.756,2.756,0,0,1-41.8,17.21a5.4,5.4,0,0,1,3.364-.972,4.921,4.921,0,0,1,3.179.977,3.375,3.375,0,0,1,1.216,2.793v3.984a8.128,8.128,0,0,0,.142,1.563A8.368,8.368,0,0,0-33.477,27Zm-2.324-2.139a2.011,2.011,0,0,0,1.069-.283,1.621,1.621,0,0,0,.649-.674V22.5h-1.328a1.492,1.492,0,0,0-1.143.381,1.37,1.37,0,0,0-.352.967.935.935,0,0,0,.308.728A1.141,1.141,0,0,0-39.062,24.852Zm11.348-.186a1.291,1.291,0,0,0,1.006-.366,1.526,1.526,0,0,0,.332-1.06h3.008l.02.059a3.469,3.469,0,0,1-1.2,2.817,4.616,4.616,0,0,1-3.169,1.089,4.675,4.675,0,0,1-3.716-1.489,5.679,5.679,0,0,1-1.3-3.882v-.225a5.7,5.7,0,0,1,1.3-3.877,4.64,4.64,0,0,1,3.7-1.494,4.545,4.545,0,0,1,3.218,1.118,3.857,3.857,0,0,1,1.167,3.062l-.02.059h-3.008a2.045,2.045,0,0,0-.342-1.226,1.172,1.172,0,0,0-1.016-.474,1.357,1.357,0,0,0-1.333.767,4.741,4.741,0,0,0-.376,2.065v.225a4.723,4.723,0,0,0,.376,2.08A1.378,1.378,0,0,0-27.715,24.666ZM-18.545,27h-3.311V16.434h3.311Zm0-13.018h-3.311V11.766h3.311Zm1.582,7.637a5.585,5.585,0,0,1,1.348-3.882,4.8,4.8,0,0,1,3.76-1.5,4.808,4.808,0,0,1,3.77,1.5,5.585,5.585,0,0,1,1.348,3.882v.205a5.581,5.581,0,0,1-1.348,3.887,4.792,4.792,0,0,1-3.75,1.494,4.829,4.829,0,0,1-3.779-1.494,5.581,5.581,0,0,1-1.348-3.887Zm3.3.205a4.368,4.368,0,0,0,.415,2.085,1.477,1.477,0,0,0,1.411.757,1.459,1.459,0,0,0,1.387-.762,4.331,4.331,0,0,0,.42-2.08v-.205a4.347,4.347,0,0,0-.42-2.065,1.471,1.471,0,0,0-1.406-.776,1.45,1.45,0,0,0-1.392.781,4.4,4.4,0,0,0-.415,2.061Zm11.416-5.391.127,1.484A3.825,3.825,0,0,1-.84,16.683a3.31,3.31,0,0,1,1.7-.444,2.979,2.979,0,0,1,2.427,1.055,5.218,5.218,0,0,1,.874,3.35V27H.859V20.633A2.421,2.421,0,0,0,.537,19.2,1.1,1.1,0,0,0-.4,18.777a2.32,2.32,0,0,0-.947.186,1.891,1.891,0,0,0-.7.527V27H-5.342V16.434ZM10.645,27.205A4.906,4.906,0,0,1,6.88,25.75a5.174,5.174,0,0,1-1.362-3.682V21.7A5.912,5.912,0,0,1,6.8,17.752a4.562,4.562,0,0,1,3.716-1.514,4.279,4.279,0,0,1,3.315,1.279,4.98,4.98,0,0,1,1.177,3.506v1.729H8.955l-.02.059a2.052,2.052,0,0,0,.615,1.343,2.148,2.148,0,0,0,1.543.513,6.687,6.687,0,0,0,1.577-.156,9.942,9.942,0,0,0,1.44-.5l.791,2.012a6.04,6.04,0,0,1-1.836.84A8.473,8.473,0,0,1,10.645,27.205Zm-.127-8.428a1.362,1.362,0,0,0-1.167.5,2.523,2.523,0,0,0-.435,1.362l.02.049h2.852v-.254A2.2,2.2,0,0,0,11.5,19.2,1.1,1.1,0,0,0,10.518,18.777Zm11.4,5.254a.862.862,0,0,0-.444-.7,4.792,4.792,0,0,0-1.616-.552,6.38,6.38,0,0,1-2.783-1.118,2.533,2.533,0,0,1-.937-2.085A2.971,2.971,0,0,1,17.3,17.21a4.82,4.82,0,0,1,3.174-.972,5.45,5.45,0,0,1,3.359.942,2.771,2.771,0,0,1,1.191,2.437l-.02.059h-3.2a1.309,1.309,0,0,0-.312-.947,1.383,1.383,0,0,0-1.025-.322,1.341,1.341,0,0,0-.869.283.888.888,0,0,0-.352.723.86.86,0,0,0,.405.713,4.584,4.584,0,0,0,1.636.527A6.571,6.571,0,0,1,24.16,21.79a2.609,2.609,0,0,1,.928,2.144,2.8,2.8,0,0,1-1.265,2.349,5.547,5.547,0,0,1-3.345.923,5.016,5.016,0,0,1-3.413-1.094,3.013,3.013,0,0,1-1.2-2.441l.02-.059h2.988a1.325,1.325,0,0,0,.454,1.084,2,2,0,0,0,1.235.332,1.649,1.649,0,0,0,1.006-.259A.87.87,0,0,0,21.914,24.031Zm9.941-2.812a13.254,13.254,0,0,1,1.445-6.44,6.946,6.946,0,0,1,3.4-3.394h.059l.6,1.553a6.555,6.555,0,0,0-2.061,2.969,14.589,14.589,0,0,0-.811,5.293v.313a14.581,14.581,0,0,0,.811,5.3,6.556,6.556,0,0,0,2.061,2.964l-.6,1.553H36.7a6.948,6.948,0,0,1-3.4-3.389,13.248,13.248,0,0,1-1.445-6.445Zm15.371-.3h-5.01v3.545h6.006V27H38.916V12.781h9.316V15.32H42.217v3.057h5.01Zm8.164,3.115a.862.862,0,0,0-.444-.7,4.792,4.792,0,0,0-1.616-.552,6.38,6.38,0,0,1-2.783-1.118,2.533,2.533,0,0,1-.937-2.085,2.971,2.971,0,0,1,1.172-2.368,4.82,4.82,0,0,1,3.174-.972,5.45,5.45,0,0,1,3.359.942,2.771,2.771,0,0,1,1.191,2.437l-.02.059h-3.2a1.309,1.309,0,0,0-.312-.947,1.383,1.383,0,0,0-1.025-.322,1.341,1.341,0,0,0-.869.283.888.888,0,0,0-.352.723.86.86,0,0,0,.405.713,4.584,4.584,0,0,0,1.636.527,6.571,6.571,0,0,1,2.871,1.138,2.609,2.609,0,0,1,.928,2.144A2.8,2.8,0,0,1,57.3,26.282a5.547,5.547,0,0,1-3.345.923,5.016,5.016,0,0,1-3.413-1.094,3.013,3.013,0,0,1-1.2-2.441l.02-.059h2.988a1.325,1.325,0,0,0,.454,1.084,2,2,0,0,0,1.235.332,1.649,1.649,0,0,0,1.006-.259A.87.87,0,0,0,55.391,24.031ZM69.9,21.941a6.243,6.243,0,0,1-1.074,3.823,3.556,3.556,0,0,1-3.027,1.44,2.882,2.882,0,0,1-2.383-1.143v5h-3.3V16.434h3.115l.1,1.152a3.211,3.211,0,0,1,1.05-1,2.757,2.757,0,0,1,1.4-.352,3.518,3.518,0,0,1,3.042,1.514A6.719,6.719,0,0,1,69.9,21.736Zm-3.291-.205a4.989,4.989,0,0,0-.391-2.148,1.3,1.3,0,0,0-1.25-.811,1.986,1.986,0,0,0-.942.205,1.513,1.513,0,0,0-.61.6v4.414a1.414,1.414,0,0,0,.62.508,2.411,2.411,0,0,0,.952.166,1.3,1.3,0,0,0,1.245-.718,4.388,4.388,0,0,0,.376-2.007Zm10.85,5.254a3.987,3.987,0,0,1-.317-.752,5.765,5.765,0,0,1-.2-.879,4.038,4.038,0,0,1-1.06,1.343,2.558,2.558,0,0,1-1.646.5,3.659,3.659,0,0,1-2.583-.854,3.019,3.019,0,0,1-.923-2.329,2.817,2.817,0,0,1,1.182-2.427A6.126,6.126,0,0,1,75.5,20.74h1.357v-.752a1.505,1.505,0,0,0-.322-1.035,1.255,1.255,0,0,0-.986-.361,1.19,1.19,0,0,0-.854.269,1.114,1.114,0,0,0-.278.835l-3.2-.01-.02-.059A2.756,2.756,0,0,1,72.4,17.21a5.4,5.4,0,0,1,3.364-.972,4.921,4.921,0,0,1,3.179.977,3.375,3.375,0,0,1,1.216,2.793v3.984a8.129,8.129,0,0,0,.142,1.563A8.367,8.367,0,0,0,80.723,27Zm-2.324-2.139a2.011,2.011,0,0,0,1.069-.283,1.621,1.621,0,0,0,.649-.674V22.5H75.527a1.492,1.492,0,0,0-1.143.381,1.37,1.37,0,0,0-.352.967.935.935,0,0,0,.308.728A1.141,1.141,0,0,0,75.137,24.852ZM85,16.434l.127,1.484a3.825,3.825,0,0,1,1.279-1.235,3.31,3.31,0,0,1,1.7-.444,2.979,2.979,0,0,1,2.427,1.055,5.218,5.218,0,0,1,.874,3.35V27h-3.3V20.633a2.421,2.421,0,0,0-.322-1.431,1.1,1.1,0,0,0-.937-.425,2.32,2.32,0,0,0-.947.186,1.891,1.891,0,0,0-.7.527V27H81.9V16.434Zm5.439-4.463a2.355,2.355,0,0,1-.586,1.606,1.867,1.867,0,0,1-1.465.669,4.066,4.066,0,0,1-1.606-.41,3.877,3.877,0,0,0-1.431-.41.633.633,0,0,0-.537.317,1.318,1.318,0,0,0-.215.757l-1.738-.488a2.378,2.378,0,0,1,.581-1.6,1.842,1.842,0,0,1,1.46-.679,4.449,4.449,0,0,1,1.538.405,4.429,4.429,0,0,0,1.5.405.656.656,0,0,0,.532-.312,1.251,1.251,0,0,0,.229-.762Zm2.324,9.648a5.585,5.585,0,0,1,1.348-3.882,5.477,5.477,0,0,1,7.529,0,5.585,5.585,0,0,1,1.348,3.882v.205a5.581,5.581,0,0,1-1.348,3.887,5.49,5.49,0,0,1-7.529,0,5.581,5.581,0,0,1-1.348-3.887Zm3.3.205a4.368,4.368,0,0,0,.415,2.085,1.477,1.477,0,0,0,1.411.757,1.459,1.459,0,0,0,1.387-.762,4.331,4.331,0,0,0,.42-2.08v-.205a4.347,4.347,0,0,0-.42-2.065,1.471,1.471,0,0,0-1.406-.776,1.45,1.45,0,0,0-1.392.781,4.4,4.4,0,0,0-.415,2.061ZM107.9,27H104.59V11.766H107.9Zm7.236-5.508a12.761,12.761,0,0,1-1.533,6.372,7.175,7.175,0,0,1-3.535,3.462h-.059l-.6-1.553a6.772,6.772,0,0,0,2.051-2.974,14.391,14.391,0,0,0,.82-5.288V21.2a14.431,14.431,0,0,0-.82-5.293,6.7,6.7,0,0,0-2.051-2.969l.6-1.553h.059a7.174,7.174,0,0,1,3.535,3.467,12.768,12.768,0,0,1,1.533,6.367Z" transform="translate(723 4670)" fill="#111e61"/>
  </g>
</svg>
