<svg xmlns="http://www.w3.org/2000/svg" width="92" height="92" viewBox="0 0 92 92">
  <g id="Grupo_31687" data-name="Grupo 31687" transform="translate(-783 -5932)">
    <rect id="Rect치ngulo_4508" data-name="Rect치ngulo 4508" width="92" height="92" rx="10" transform="translate(783 5932)" fill="#ffe2b8"/>
    <rect id="Rect치ngulo_4513" data-name="Rect치ngulo 4513" width="76" height="76" rx="10" transform="translate(791 5940)" fill="#fff1db"/>
    <g id="reserva" transform="translate(793.519 5947.36)">
      <path id="Trazado_19235" data-name="Trazado 19235" d="M9.935,57.655a30.74,30.74,0,1,1,53.13-.889A4.018,4.018,0,0,1,59.557,58.8H11.983a2.394,2.394,0,0,1-2.048-1.15Z" transform="translate(0 -9.62)" fill="#55a4f9"/>
      <path id="Trazado_19236" data-name="Trazado 19236" d="M40.165,0a1.882,1.882,0,0,0-1.882,1.882V51.463a2.132,2.132,0,0,1-3.7,1.449,30.858,30.858,0,0,1-3.707-4.95V11.292H30.5a1,1,0,0,1-1-1V6.023a1,1,0,0,1,1-1h.376V1.882A1.882,1.882,0,0,1,32.762,0Z" transform="translate(-20.988)" fill="#453d83"/>
      <path id="Trazado_19237" data-name="Trazado 19237" d="M105.974,11.292V13.8h.125a1,1,0,0,1,1,1v4.266a1,1,0,0,1-1,1h-.125V50.238A11.511,11.511,0,0,1,92.161,61.544a7.192,7.192,0,0,1-.742-.191,30.7,30.7,0,0,1-10.888-6.258A3.1,3.1,0,0,1,79.5,52.78V1.882A1.882,1.882,0,0,1,81.382,0h22.71a1.882,1.882,0,0,1,1.882,1.882V5.019h.125a1,1,0,0,1,1,1v4.266a1,1,0,0,1-1,1Z" transform="translate(-64.715 0)" fill="#51489a"/>
      <path id="Trazado_19238" data-name="Trazado 19238" d="M93.59,96.882v39.523a1.882,1.882,0,0,1-1.882,1.882h-19.8a30.922,30.922,0,0,1-2.412-2.369V96.882A1.882,1.882,0,0,1,71.382,95H91.708A1.882,1.882,0,0,1,93.59,96.882Z" transform="translate(-55.969 -83.08)" fill="#e9f3fe"/>
      <path id="Trazado_19239" data-name="Trazado 19239" d="M69.5,57.528V51.882A1.882,1.882,0,0,1,71.382,50H91.708a1.882,1.882,0,0,1,1.882,1.882v5.646Z" transform="translate(-55.969 -43.726)" fill="#82cd64"/>
      <path id="Trazado_19240" data-name="Trazado 19240" d="M112.066,131.255a1.255,1.255,0,0,1-1.255,1.255H95.755a1.255,1.255,0,1,1,0-2.509h15.056A1.255,1.255,0,0,1,112.066,131.255Zm-8.783,3.764H95.755a1.255,1.255,0,1,0,0,2.509h7.528a1.255,1.255,0,0,0,0-2.509Z" transform="translate(-77.833 -113.689)" fill="#c0e6b1"/>
      <path id="Trazado_19241" data-name="Trazado 19241" d="M97.009,131.255A1.255,1.255,0,1,1,95.755,130,1.255,1.255,0,0,1,97.009,131.255ZM99.519,130a1.255,1.255,0,1,0,1.255,1.255A1.255,1.255,0,0,0,99.519,130Zm3.764,0a1.255,1.255,0,1,0,1.255,1.255A1.255,1.255,0,0,0,103.283,130Zm3.764,0a1.255,1.255,0,1,0,1.255,1.255A1.255,1.255,0,0,0,107.047,130Zm3.764,0a1.255,1.255,0,1,0,1.255,1.255A1.255,1.255,0,0,0,110.811,130Zm-15.056,5.019a1.255,1.255,0,1,0,1.255,1.255A1.255,1.255,0,0,0,95.755,135.019Zm3.764,0a1.255,1.255,0,1,0,1.255,1.255A1.255,1.255,0,0,0,99.519,135.019Zm3.764,0a1.255,1.255,0,1,0,1.255,1.255A1.255,1.255,0,0,0,103.283,135.019Z" transform="translate(-77.833 -113.689)" fill="#6dc54a"/>
      <path id="Trazado_19242" data-name="Trazado 19242" d="M108.3,171.255A1.255,1.255,0,1,1,107.047,170,1.255,1.255,0,0,1,108.3,171.255ZM110.811,170a1.255,1.255,0,1,0,1.255,1.255A1.255,1.255,0,0,0,110.811,170Zm-15.056,5.019a1.255,1.255,0,1,0,1.255,1.255A1.255,1.255,0,0,0,95.755,175.019Zm3.764,0a1.255,1.255,0,1,0,1.255,1.255A1.255,1.255,0,0,0,99.519,175.019Zm3.764,0a1.255,1.255,0,1,0,1.255,1.255A1.255,1.255,0,0,0,103.283,175.019Zm-7.528,5.019a1.255,1.255,0,1,0,1.255,1.255A1.255,1.255,0,0,0,95.755,180.038Zm3.764,0a1.255,1.255,0,1,0,1.255,1.255A1.255,1.255,0,0,0,99.519,180.038Zm3.764,0a1.255,1.255,0,1,0,1.255,1.255A1.255,1.255,0,0,0,103.283,180.038Z" transform="translate(-77.833 -148.67)" fill="#a7d0fc"/>
      <path id="Trazado_19243" data-name="Trazado 19243" d="M138.342,19.382H135.08a.941.941,0,0,1,0-1.882h3.262a.941.941,0,1,1,0,1.882Zm-5.96-.941a.941.941,0,1,0-.941.941A.941.941,0,0,0,132.382,18.441Zm4.266,54.58h-3.764a1.883,1.883,0,0,0-1.845,1.507,30.56,30.56,0,0,0,5.382,2.257h.227a1.882,1.882,0,0,0,0-3.764Z" transform="translate(-109.316 -15.304)" fill="#19305c"/>
      <path id="Trazado_19244" data-name="Trazado 19244" d="M106.043,74.008H95.5A1,1,0,0,1,95.5,72h10.54a1,1,0,0,1,0,2.008Z" transform="translate(-77.833 -62.966)" fill="#5db33a"/>
      <path id="Trazado_19245" data-name="Trazado 19245" d="M100.9,326.273H97.637a3.137,3.137,0,1,1,0-6.274H100.9a3.137,3.137,0,0,1,0,6.274Z" transform="translate(-77.833 -279.849)" fill="#c50048"/>
      <path id="Trazado_19246" data-name="Trazado 19246" d="M135.165,326.273h-7.528a3.137,3.137,0,1,1,0-6.274h7.528a3.137,3.137,0,1,1,0,6.274Z" transform="translate(-104.069 -279.849)" fill="#f44545"/>
      <path id="Trazado_19247" data-name="Trazado 19247" d="M228.377,248.24A30.793,30.793,0,0,1,194.5,263.2V230h33.877Z" transform="translate(-165.286 -201.142)" fill="#ffe1aa"/>
      <path id="Trazado_19248" data-name="Trazado 19248" d="M174.5,230h5.019v33.673a30.546,30.546,0,0,1-5.019-1.178Z" transform="translate(-147.795 -201.142)" fill="#ffd993"/>
      <path id="Trazado_19249" data-name="Trazado 19249" d="M179.535,211.292H174.5v-9.41A1.882,1.882,0,0,1,176.382,200H181.4a1.882,1.882,0,0,1,1.882,1.882v5.662A3.748,3.748,0,0,1,179.535,211.292Z" transform="translate(-147.795 -174.906)" fill="#c50048"/>
      <path id="Trazado_19250" data-name="Trazado 19250" d="M245.868,211.292H214.5v-9.41A1.882,1.882,0,0,1,216.382,200h27.6a1.882,1.882,0,0,1,1.882,1.882Z" transform="translate(-182.776 -174.906)" fill="#f44545"/>
      <path id="Trazado_19251" data-name="Trazado 19251" d="M227.009,181.255v7.528a1.255,1.255,0,0,1-2.509,0v-7.528a1.255,1.255,0,0,1,2.509,0ZM248.339,180a1.255,1.255,0,0,0-1.255,1.255v7.528a1.255,1.255,0,1,0,2.509,0v-7.528A1.255,1.255,0,0,0,248.339,180Z" transform="translate(-191.522 -157.415)" fill="#ffc14f"/>
      <path id="Trazado_19252" data-name="Trazado 19252" d="M263.321,319.41a9.41,9.41,0,1,1-9.41-9.41A9.41,9.41,0,0,1,263.321,319.41Z" transform="translate(-209.012 -271.104)" fill="#82cd64"/>
      <path id="Trazado_19253" data-name="Trazado 19253" d="M262.389,329.991a9.412,9.412,0,1,1-12.566-12.566,9.414,9.414,0,0,0,12.566,12.566Z" transform="translate(-209.012 -277.598)" fill="#6dc54a"/>
      <path id="Trazado_19254" data-name="Trazado 19254" d="M284.937,314.086l-11.092,11.764a.941.941,0,0,1-1.369,0l-5.22-5.536a.941.941,0,1,1,1.369-1.291l4.535,4.81L283.568,312.8a.941.941,0,1,1,1.369,1.291Z" transform="translate(-228.689 -273.29)" fill="#fff5f5"/>
    </g>
  </g>
</svg>
