<svg xmlns="http://www.w3.org/2000/svg" width="92" height="92" viewBox="0 0 92 92">
  <g id="Grupo_31688" data-name="Grupo 31688" transform="translate(-783 -6038)">
    <rect id="Rect치ngulo_4509" data-name="Rect치ngulo 4509" width="92" height="92" rx="10" transform="translate(783 6038)" fill="#ffe2b8"/>
    <rect id="Rect치ngulo_4514" data-name="Rect치ngulo 4514" width="76" height="76" rx="10" transform="translate(791 6046)" fill="#fff1db"/>
    <g id="reserva_1_" data-name="reserva (1)" transform="translate(794.282 6052.981)">
      <path id="Trazado_19255" data-name="Trazado 19255" d="M166.353,396.813v4.834l2.783,3.732H141.907l2.783-3.732v-9.063h21.548Z" transform="translate(-120.742 -344.263)" fill="#d7d0d6"/>
      <path id="Trazado_19256" data-name="Trazado 19256" d="M166.353,396.813l-.114-4.23H144.69v9.063l-2.783,3.732h9.021l1.819-2.439a1.439,1.439,0,0,0,.286-.861v-.33a1.858,1.858,0,0,1,1.858-1.858h11.462v-3.078Z" transform="translate(-120.742 -344.263)" fill="#c9bfc8"/>
      <path id="Trazado_19257" data-name="Trazado 19257" d="M60.09,302.582H13.583L4.218,312.45v1.918a3.524,3.524,0,0,0,3.523,3.523H61.7a3.524,3.524,0,0,0,3.523-3.523V312.45Z" transform="translate(0 -265.34)" fill="#e5e1e5"/>
      <g id="Grupo_29243" data-name="Grupo 29243" transform="translate(4.218 0)">
        <g id="XMLID_520_" transform="translate(0 10.019)">
          <g id="Grupo_29240" data-name="Grupo 29240">
            <path id="Trazado_19258" data-name="Trazado 19258" d="M65.219,84.923v33.569h-61V84.923A3.523,3.523,0,0,1,7.742,81.4H61.7A3.523,3.523,0,0,1,65.219,84.923Z" transform="translate(-4.219 -81.402)" fill="#99e6fc"/>
          </g>
        </g>
        <path id="Trazado_19259" data-name="Trazado 19259" d="M19.736,314.368V302.583H13.582l-9.364,9.868v1.918a3.524,3.524,0,0,0,3.523,3.523H23.259a3.524,3.524,0,0,1-3.522-3.523Z" transform="translate(-4.218 -265.34)" fill="#d7d0d6"/>
        <g id="Grupo_29241" data-name="Grupo 29241" transform="translate(14.446 60.192)">
          <path id="Trazado_19260" data-name="Trazado 19260" d="M153.03,490.884H122.512a.923.923,0,0,1,0-1.846H153.03a.923.923,0,1,1,0,1.846Z" transform="translate(-121.589 -489.038)" fill="#e5e1e5"/>
        </g>
        <path id="Trazado_19261" data-name="Trazado 19261" d="M23.26,81.4H7.742a3.523,3.523,0,0,0-3.523,3.523v33.568H19.737V84.923a3.5,3.5,0,0,1,.677-2.074.737.737,0,0,1,1.329.325A13.1,13.1,0,0,0,47.815,81.4Z" transform="translate(-4.219 -71.383)" fill="#62dbfb"/>
        <circle id="Elipse_252" data-name="Elipse 252" cx="10.019" cy="10.019" r="10.019" transform="translate(20.481)" fill="#fef056"/>
        <path id="Trazado_19262" data-name="Trazado 19262" d="M178.293,10.019A10.023,10.023,0,0,1,184.477.761a10.019,10.019,0,1,0,0,18.514,10.023,10.023,0,0,1-6.185-9.257Z" transform="translate(-150.139 0)" fill="#fee903"/>
        <g id="Grupo_29242" data-name="Grupo 29242" transform="translate(25.863 6.652)">
          <path id="Trazado_19263" data-name="Trazado 19263" d="M217.762,62.232a.921.921,0,0,1-.621-.24l-2.49-2.264a.923.923,0,0,1,1.242-1.366l1.85,1.682,5.942-5.737a.923.923,0,0,1,1.282,1.328L218.4,61.973a.921.921,0,0,1-.641.259Z" transform="translate(-214.349 -54.047)" fill="#f9f7f8"/>
        </g>
        <path id="Trazado_19264" data-name="Trazado 19264" d="M216.8,88.213l-.9-.822a.923.923,0,0,0-1.242,1.366l2.49,2.264a.908.908,0,0,0,.73.233A9.944,9.944,0,0,1,216.8,88.213Z" transform="translate(-188.485 -76.424)" fill="#efedef"/>
        <path id="Trazado_19265" data-name="Trazado 19265" d="M137.112,217.528a1.481,1.481,0,0,0,1.481-1.481v-5.455a1.481,1.481,0,0,0-1.481-1.481H103.035a1.481,1.481,0,0,0-1.481,1.481v5.455a1.481,1.481,0,0,0,1.481,1.481Z" transform="translate(-89.574 -183.373)" fill="#dff6fd"/>
        <path id="Trazado_19266" data-name="Trazado 19266" d="M105.092,209.111h-2.057a1.481,1.481,0,0,0-1.481,1.481v5.455a1.481,1.481,0,0,0,1.481,1.481h2.057Z" transform="translate(-89.574 -183.373)" fill="#c8effe"/>
        <path id="Trazado_19267" data-name="Trazado 19267" d="M272.031,266.6l-6.958-2.217a.567.567,0,0,0-.739.508l-.426,7.29a.567.567,0,0,0,.888.5l2.138-1.469,2.215,3.223a.537.537,0,0,0,.746.138l2.223-1.527a.537.537,0,0,0,.138-.746l-2.215-3.223,2.138-1.469A.567.567,0,0,0,272.031,266.6Z" transform="translate(-231.944 -231.817)" fill="#f47c7c"/>
      </g>
    </g>
  </g>
</svg>
