<svg xmlns="http://www.w3.org/2000/svg" width="92" height="92" viewBox="0 0 92 92">
  <g id="Grupo_31686" data-name="Grupo 31686" transform="translate(-783 -5825)">
    <rect id="Rect치ngulo_4507" data-name="Rect치ngulo 4507" width="92" height="92" rx="10" transform="translate(783 5825)" fill="#ffe2b8"/>
    <rect id="Rect치ngulo_4512" data-name="Rect치ngulo 4512" width="76" height="76" rx="10" transform="translate(791 5833)" fill="#fff1db"/>
    <g id="reservado" transform="translate(796.518 5819.356)">
      <path id="Trazado_19219" data-name="Trazado 19219" d="M237.457,278.148h3.921v24.018h-3.921Z" transform="translate(-207.328 -219.694)" fill="#bfbfbf"/>
      <path id="Trazado_19220" data-name="Trazado 19220" d="M61.7,58.5H3.268A3.268,3.268,0,0,1,0,55.228V29.8a3.268,3.268,0,0,1,3.268-3.268H61.7A3.268,3.268,0,0,1,64.964,29.8V55.228A3.268,3.268,0,0,1,61.7,58.5Z" transform="translate(0)" fill="#f47c7c"/>
      <path id="Trazado_19221" data-name="Trazado 19221" d="M185.278,453.991H167.631a2.287,2.287,0,1,1,0-4.575h17.646a2.287,2.287,0,0,1,0,4.575Z" transform="translate(-144.365 -369.231)" fill="#838383"/>
      <g id="Grupo_29239" data-name="Grupo 29239" transform="translate(2.843 37.173)">
        <path id="Trazado_19222" data-name="Trazado 19222" d="M142.781,112.386a1.181,1.181,0,0,1,1.176,1.182.98.98,0,1,0,1.961,0,3.137,3.137,0,1,0-6.274,0v.038a3.144,3.144,0,0,0,3.137,3.143,1.181,1.181,0,0,1,1.176,1.182v.038a1.176,1.176,0,1,1-2.353,0,.98.98,0,1,0-1.961,0,3.137,3.137,0,1,0,6.274,0v-.038a3.144,3.144,0,0,0-3.137-3.143,1.181,1.181,0,0,1-1.176-1.182v-.038A1.181,1.181,0,0,1,142.781,112.386Z" transform="translate(-124.769 -110.425)" fill="#fff2e2"/>
        <path id="Trazado_19223" data-name="Trazado 19223" d="M26.049,110.425H24a1.591,1.591,0,0,0-1.588,1.59v3.751s0,0,0,0v4.364a.98.98,0,1,0,1.961,0V116.75h.83l1.117,3.669a.98.98,0,1,0,1.876-.571l-1.021-3.353a2.638,2.638,0,0,0,1.511-2.382v-1.051A2.638,2.638,0,0,0,26.049,110.425Zm.671,3.688a.675.675,0,0,1-.672.676H24.368v-2.4h1.681a.675.675,0,0,1,.672.676v1.051Z" transform="translate(-22.407 -110.425)" fill="#fff2e2"/>
        <path id="Trazado_19224" data-name="Trazado 19224" d="M87.173,112.387a.98.98,0,1,0,0-1.961H83.251a.98.98,0,0,0-.98.98v8.728a.98.98,0,0,0,.98.98h3.921a.98.98,0,1,0,0-1.961H84.232v-1.76h2.941a.98.98,0,1,0,0-1.961H84.232v-3.046h2.941Z" transform="translate(-74.675 -110.426)" fill="#fff2e2"/>
        <path id="Trazado_19225" data-name="Trazado 19225" d="M206.532,112.387a.98.98,0,0,0,0-1.961H202.61a.98.98,0,0,0-.98.98v8.728a.98.98,0,0,0,.98.98h3.921a.98.98,0,0,0,0-1.961h-2.941v-1.76h2.941a.98.98,0,0,0,0-1.961h-2.941v-3.046h2.941Z" transform="translate(-178.89 -110.426)" fill="#fff2e2"/>
        <path id="Trazado_19226" data-name="Trazado 19226" d="M262.657,110.425H260.6a1.591,1.591,0,0,0-1.588,1.59v3.751s0,0,0,0v4.364a.98.98,0,1,0,1.961,0V116.75h.83l1.117,3.669a.98.98,0,1,0,1.876-.571l-1.021-3.353a2.638,2.638,0,0,0,1.511-2.382v-1.051A2.638,2.638,0,0,0,262.657,110.425Zm.672,3.688a.675.675,0,0,1-.672.676h-1.681v-2.4h1.681a.675.675,0,0,1,.672.676Z" transform="translate(-228.994 -110.425)" fill="#fff2e2"/>
        <path id="Trazado_19227" data-name="Trazado 19227" d="M321.116,110.471a.98.98,0,0,0-1.234.633L318,116.933l-1.877-5.83a.98.98,0,1,0-1.866.6l2.81,8.728a.98.98,0,0,0,1.866,0l2.81-8.728A.981.981,0,0,0,321.116,110.471Z" transform="translate(-277.189 -110.423)" fill="#fff2e2"/>
        <path id="Trazado_19228" data-name="Trazado 19228" d="M387.539,112.387a.98.98,0,0,0,0-1.961h-3.921a.98.98,0,0,0-.98.98v8.728a.98.98,0,0,0,.98.98h3.921a.98.98,0,0,0,0-1.961H384.6v-1.76h2.941a.98.98,0,0,0,0-1.961H384.6v-3.046h2.941Z" transform="translate(-336.93 -110.426)" fill="#fff2e2"/>
      </g>
      <path id="Trazado_19229" data-name="Trazado 19229" d="M453.189,26.528h-4.8a3.268,3.268,0,0,1,3.268,3.268V55.228a3.268,3.268,0,0,1-3.268,3.268h4.8a3.268,3.268,0,0,0,3.268-3.268V29.8a3.268,3.268,0,0,0-3.268-3.268Z" transform="translate(-391.493)" fill="#ee6161"/>
      <path id="Trazado_19230" data-name="Trazado 19230" d="M441.391,110.425a1.248,1.248,0,0,0-1.247,1.247v8.2a1.248,1.248,0,0,0,1.247,1.247,5.033,5.033,0,0,0,5.027-5.027v-.634A5.033,5.033,0,0,0,441.391,110.425Zm3.067,5.661a3.072,3.072,0,0,1-2.353,2.983v-6.6a3.072,3.072,0,0,1,2.353,2.983Z" transform="translate(-384.298 -73.252)" fill="#fff2e2"/>
      <path id="Trazado_19231" data-name="Trazado 19231" d="M474.14,118.683v8.593a5.021,5.021,0,0,0,1.961-3.98v-.634A5.021,5.021,0,0,0,474.14,118.683Z" transform="translate(-413.98 -80.462)" fill="#fee8c7"/>
      <path id="Trazado_19232" data-name="Trazado 19232" d="M237.457,278.148h3.921v8.5h-3.921Z" transform="translate(-207.328 -219.694)" fill="#acacac"/>
      <path id="Trazado_19233" data-name="Trazado 19233" d="M201.895,239.446h-14.9a1.046,1.046,0,0,1-1.046-1.046v-9.019a1.046,1.046,0,0,1,1.046-1.046h14.9a1.046,1.046,0,0,1,1.046,1.046V238.4A1.046,1.046,0,0,1,201.895,239.446Z" transform="translate(-162.354 -176.202)" fill="#e2e2e2"/>
      <path id="Trazado_19234" data-name="Trazado 19234" d="M291.851,449.415H287.4a2.287,2.287,0,1,1,0,4.575h4.446a2.287,2.287,0,1,0,0-4.575Z" transform="translate(-250.938 -369.23)" fill="#5a5a5a"/>
    </g>
  </g>
</svg>
