<svg xmlns="http://www.w3.org/2000/svg" width="328" height="350" viewBox="0 0 328 350">
  <g id="Grupo_31690" data-name="Grupo 31690" transform="translate(-181 -4641)">
    <path id="Trazado_33927" data-name="Trazado 33927" d="M0,0H328V46H0Z" transform="translate(181 4715)" fill="#e9f4ff"/>
    <path id="Trazado_33934" data-name="Trazado 33934" d="M0,0H328V46H0Z" transform="translate(181 4807)" fill="#e9f4ff"/>
    <path id="Trazado_33940" data-name="Trazado 33940" d="M0,0H328V46H0Z" transform="translate(181 4899)" fill="#e9f4ff"/>
    <path id="Trazado_33931" data-name="Trazado 33931" d="M0,0H328V46H0Z" transform="translate(181 4761)" fill="#f3f9ff"/>
    <path id="Trazado_33937" data-name="Trazado 33937" d="M0,0H328V46H0Z" transform="translate(181 4853)" fill="#f3f9ff"/>
    <path id="Trazado_33943" data-name="Trazado 33943" d="M0,0H328V46H0Z" transform="translate(181 4945)" fill="#f3f9ff"/>
    <path id="Trazado_33942" data-name="Trazado 33942" d="M11.654-5.247a5.347,5.347,0,0,1-1.5,3.9A5.23,5.23,0,0,1,6.24.185,5.3,5.3,0,0,1,2.294-1.349a5.322,5.322,0,0,1-1.512-3.9v-2.3A5.334,5.334,0,0,1,2.29-11.443a5.262,5.262,0,0,1,3.933-1.538,5.255,5.255,0,0,1,3.92,1.538A5.326,5.326,0,0,1,11.654-7.55ZM8.692-7.567a3.7,3.7,0,0,0-.646-2.25A2.131,2.131,0,0,0,6.223-10.7a2.138,2.138,0,0,0-1.841.875,3.734,3.734,0,0,0-.637,2.254v2.32A3.733,3.733,0,0,0,4.39-2.979,2.157,2.157,0,0,0,6.24-2.1a2.11,2.11,0,0,0,1.811-.879,3.751,3.751,0,0,0,.642-2.268ZM20.065-3.393a1.276,1.276,0,0,0-.448-1.05,5.814,5.814,0,0,0-1.626-.778,12.342,12.342,0,0,1-3.538-1.648A2.967,2.967,0,0,1,13.3-9.387a3.087,3.087,0,0,1,1.345-2.6,5.6,5.6,0,0,1,3.419-.993,5.641,5.641,0,0,1,3.524,1.024A3.319,3.319,0,0,1,22.878-9.07l-.018.053H19.978a1.614,1.614,0,0,0-.492-1.314A2.286,2.286,0,0,0,18-10.74a1.906,1.906,0,0,0-1.274.4,1.231,1.231,0,0,0-.466.976,1.051,1.051,0,0,0,.479.9,9.352,9.352,0,0,0,1.789.848,9.531,9.531,0,0,1,3.366,1.608,3.2,3.2,0,0,1,1.143,2.6A3.078,3.078,0,0,1,21.718-.769a5.841,5.841,0,0,1-3.5.954A6.392,6.392,0,0,1,14.542-.839a3.525,3.525,0,0,1-1.463-3.221l.018-.053h2.892a1.992,1.992,0,0,0,.549,1.586,2.542,2.542,0,0,0,1.683.47,2.184,2.184,0,0,0,1.389-.369A1.183,1.183,0,0,0,20.065-3.393Z" transform="translate(208 4930)" fill="#111e61"/>
    <path id="Trazado_33945" data-name="Trazado 33945" d="M1.02,0V-12.8H5.7a5.219,5.219,0,0,1,3.779,1.472A5.025,5.025,0,0,1,11-7.55v2.3A5.021,5.021,0,0,1,9.483-1.468,5.228,5.228,0,0,1,5.7,0ZM3.99-10.512v8.227H5.7A2.036,2.036,0,0,0,7.37-3.111a3.335,3.335,0,0,0,.655-2.136v-2.32A3.306,3.306,0,0,0,7.37-9.686,2.036,2.036,0,0,0,5.7-10.512ZM23.449,0H20.487L15.8-8.051l-.053.018V0H12.779V-12.8H15.75l4.685,8.042.053-.018V-12.8h2.962Zm2.039,0V-12.8h4.685a5.219,5.219,0,0,1,3.779,1.472A5.025,5.025,0,0,1,35.473-7.55v2.3a5.021,5.021,0,0,1-1.521,3.779A5.228,5.228,0,0,1,30.173,0Zm2.971-10.512v8.227h1.714a2.036,2.036,0,0,0,1.666-.826,3.335,3.335,0,0,0,.655-2.136v-2.32a3.306,3.306,0,0,0-.655-2.118,2.036,2.036,0,0,0-1.666-.826Z" transform="translate(208 4974)" fill="#111e61"/>
    <path id="Trazado_33929" data-name="Trazado 33929" d="M11.654-5.247a5.347,5.347,0,0,1-1.5,3.9A5.23,5.23,0,0,1,6.24.185,5.3,5.3,0,0,1,2.294-1.349a5.322,5.322,0,0,1-1.512-3.9v-2.3A5.334,5.334,0,0,1,2.29-11.443a5.262,5.262,0,0,1,3.933-1.538,5.255,5.255,0,0,1,3.92,1.538A5.326,5.326,0,0,1,11.654-7.55ZM8.692-7.567a3.7,3.7,0,0,0-.646-2.25A2.131,2.131,0,0,0,6.223-10.7a2.138,2.138,0,0,0-1.841.875,3.734,3.734,0,0,0-.637,2.254v2.32A3.733,3.733,0,0,0,4.39-2.979,2.157,2.157,0,0,0,6.24-2.1a2.11,2.11,0,0,0,1.811-.879,3.751,3.751,0,0,0,.642-2.268Zm14.6,3.252.018.053A4.113,4.113,0,0,1,22.074-.945a5.238,5.238,0,0,1-3.6,1.129,5.124,5.124,0,0,1-3.81-1.45,5.16,5.16,0,0,1-1.437-3.8V-7.734a5.275,5.275,0,0,1,1.384-3.792,4.819,4.819,0,0,1,3.661-1.455,5.641,5.641,0,0,1,3.766,1.134,4,4,0,0,1,1.3,3.3l-.026.053H20.417a2.352,2.352,0,0,0-.5-1.687,2.235,2.235,0,0,0-1.644-.51,1.738,1.738,0,0,0-1.538.8,3.8,3.8,0,0,0-.536,2.14v2.689a3.579,3.579,0,0,0,.589,2.153,1.961,1.961,0,0,0,1.688.809,1.879,1.879,0,0,0,1.472-.51A2.556,2.556,0,0,0,20.4-4.315Z" transform="translate(208 4747)" fill="#111e61"/>
    <path id="Trazado_33935" data-name="Trazado 33935" d="M1.02,0V-12.8H5.7a5.219,5.219,0,0,1,3.779,1.472A5.025,5.025,0,0,1,11-7.55v2.3A5.021,5.021,0,0,1,9.483-1.468,5.228,5.228,0,0,1,5.7,0ZM3.99-10.512v8.227H5.7A2.036,2.036,0,0,0,7.37-3.111a3.335,3.335,0,0,0,.655-2.136v-2.32A3.306,3.306,0,0,0,7.37-9.686,2.036,2.036,0,0,0,5.7-10.512Zm13.184,7.04.088.466h.053l.088-.431,2.54-9.36h3.111L18.905,0H15.7L11.566-12.8h3.1Z" transform="translate(208 4836)" fill="#111e61"/>
    <path id="Trazado_33932" data-name="Trazado 33932" d="M1.02,0V-12.8H5.212a6.673,6.673,0,0,1,3.713.883,2.951,2.951,0,0,1,1.332,2.632A3.1,3.1,0,0,1,9.835-7.66,2.6,2.6,0,0,1,8.517-6.592a2.66,2.66,0,0,1,1.692,1.02,3,3,0,0,1,.549,1.784A3.337,3.337,0,0,1,9.5-.958,5.851,5.851,0,0,1,5.9,0ZM3.99-5.493v3.208H5.9a2.277,2.277,0,0,0,1.424-.374A1.37,1.37,0,0,0,7.8-3.806a1.691,1.691,0,0,0-.417-1.239A1.96,1.96,0,0,0,6-5.493H3.99Zm0-1.969H5.159a2.779,2.779,0,0,0,1.6-.374,1.274,1.274,0,0,0,.527-1.112,1.377,1.377,0,0,0-.51-1.191,2.654,2.654,0,0,0-1.564-.374H3.99ZM12.5,0V-12.8h4.685a5.219,5.219,0,0,1,3.779,1.472A5.025,5.025,0,0,1,22.482-7.55v2.3a5.021,5.021,0,0,1-1.521,3.779A5.228,5.228,0,0,1,17.183,0Zm2.971-10.512v8.227h1.714a2.036,2.036,0,0,0,1.666-.826A3.335,3.335,0,0,0,19.5-5.247v-2.32a3.306,3.306,0,0,0-.655-2.118,2.036,2.036,0,0,0-1.666-.826Z" transform="translate(208 4790)" fill="#111e61"/>
    <path id="Trazado_33938" data-name="Trazado 33938" d="M5.607-3.472l.088.466h.053l.088-.431,2.54-9.36h3.111L7.339,0H4.131L0-12.8H3.1Zm16.611-.844.018.053A4.113,4.113,0,0,1,21-.945,5.238,5.238,0,0,1,17.4.185a5.124,5.124,0,0,1-3.81-1.45,5.16,5.16,0,0,1-1.437-3.8V-7.734a5.275,5.275,0,0,1,1.384-3.792A4.819,4.819,0,0,1,17.2-12.981a5.641,5.641,0,0,1,3.766,1.134,4,4,0,0,1,1.3,3.3l-.026.053H19.345a2.352,2.352,0,0,0-.5-1.687A2.235,2.235,0,0,0,17.2-10.7a1.738,1.738,0,0,0-1.538.8,3.8,3.8,0,0,0-.536,2.14v2.689a3.579,3.579,0,0,0,.589,2.153A1.961,1.961,0,0,0,17.4-2.1a1.879,1.879,0,0,0,1.472-.51,2.556,2.556,0,0,0,.453-1.705Z" transform="translate(208 4882)" fill="#111e61"/>
    <path id="Trazado_33930" data-name="Trazado 33930" d="M1.328,0V-11.375H5.039a4.5,4.5,0,0,1,2.789.77A2.722,2.722,0,0,1,8.836-8.3,2.087,2.087,0,0,1,8.383-6.98a2.845,2.845,0,0,1-1.2.887,2.646,2.646,0,0,1,1.77.969A2.965,2.965,0,0,1,9.6-3.211,2.9,2.9,0,0,1,8.586-.824,4.238,4.238,0,0,1,5.836,0ZM2.867-5.336V-1.2H5.836a2.374,2.374,0,0,0,1.637-.52A1.871,1.871,0,0,0,8.055-3.2a2.03,2.03,0,0,0-.594-1.523,2.334,2.334,0,0,0-1.6-.617H2.867Zm0-1.2H5.359a2.044,2.044,0,0,0,1.4-.473A1.659,1.659,0,0,0,7.3-8.328a1.645,1.645,0,0,0-.582-1.379,2.664,2.664,0,0,0-1.676-.457H2.867ZM16.656-1.25A2.863,2.863,0,0,1,15.633-.2a2.8,2.8,0,0,1-1.445.367,2.716,2.716,0,0,1-2.156-.883,4.1,4.1,0,0,1-.773-2.75V-8.453H12.8v5a3.147,3.147,0,0,0,.4,1.859,1.481,1.481,0,0,0,1.242.508,2.531,2.531,0,0,0,1.355-.332,2.077,2.077,0,0,0,.809-.941V-8.453h1.539V0H16.758ZM25.3-2.273A1.026,1.026,0,0,0,24.91-3.1a3.732,3.732,0,0,0-1.465-.562,6.146,6.146,0,0,1-2.293-.9,1.814,1.814,0,0,1-.8-1.547,2.229,2.229,0,0,1,.879-1.766,3.433,3.433,0,0,1,2.277-.734,3.4,3.4,0,0,1,2.328.781,2.239,2.239,0,0,1,.852,1.82l-.016.047H25.2a1.331,1.331,0,0,0-.48-.992A1.717,1.717,0,0,0,23.508-7.4a1.751,1.751,0,0,0-1.215.367,1.146,1.146,0,0,0-.4.875.927.927,0,0,0,.348.773,3.848,3.848,0,0,0,1.434.5,6.058,6.058,0,0,1,2.359.93,1.872,1.872,0,0,1,.8,1.57,2.226,2.226,0,0,1-.91,1.836,3.754,3.754,0,0,1-2.379.711A3.715,3.715,0,0,1,21-.656a2.341,2.341,0,0,1-.883-1.914l.016-.047H21.6a1.424,1.424,0,0,0,.609,1.2,2.358,2.358,0,0,0,1.336.379,2.1,2.1,0,0,0,1.285-.348A1.063,1.063,0,0,0,25.3-2.273Zm6.039-.859.273,1.063h.047l2.078-6.383h1.711L31.891,1.3a4.383,4.383,0,0,1-.918,1.484,2.113,2.113,0,0,1-1.613.633,3.363,3.363,0,0,1-.477-.043q-.289-.043-.445-.082l.156-1.211a2.062,2.062,0,0,1,.277.016q.324.023.41.023a.95.95,0,0,0,.8-.437,4.542,4.542,0,0,0,.523-.969l.367-.883L27.836-8.453h1.719ZM49.1-3.641l.016.047a3.417,3.417,0,0,1-1.125,2.68A4.3,4.3,0,0,1,44.938.164,4.012,4.012,0,0,1,41.793-1.2a5.028,5.028,0,0,1-1.215-3.469V-6.7a5.043,5.043,0,0,1,1.215-3.473,4.006,4.006,0,0,1,3.145-1.371,4.416,4.416,0,0,1,3.07,1.027,3.4,3.4,0,0,1,1.109,2.723l-.016.047H47.625a2.539,2.539,0,0,0-.7-1.891,2.7,2.7,0,0,0-1.984-.7,2.424,2.424,0,0,0-2.055,1.039,4.227,4.227,0,0,0-.766,2.578v2.039a4.254,4.254,0,0,0,.766,2.594,2.424,2.424,0,0,0,2.055,1.039,2.71,2.71,0,0,0,1.984-.691,2.557,2.557,0,0,0,.7-1.91ZM52.57,0H51.031V-12.187H52.57Zm5.867.164A3.576,3.576,0,0,1,55.6-1a4.48,4.48,0,0,1-1.02-3.062v-.344a4.386,4.386,0,0,1,1.051-3.012A3.3,3.3,0,0,1,58.2-8.609a3.067,3.067,0,0,1,2.543,1.055,4.345,4.345,0,0,1,.848,2.8v.813H56.18l-.023.039a3.494,3.494,0,0,0,.563,2.066,1.965,1.965,0,0,0,1.719.793,3.872,3.872,0,0,0,1.371-.223,3.061,3.061,0,0,0,1.012-.613l.6,1a3.7,3.7,0,0,1-1.2.738A4.762,4.762,0,0,1,58.438.164ZM58.2-7.4a1.673,1.673,0,0,0-1.332.621,2.938,2.938,0,0,0-.645,1.59l.016.039h3.813v-.125A2.462,2.462,0,0,0,59.594-6.8,1.638,1.638,0,0,0,58.2-7.4ZM68.508,0q-.078-.383-.121-.676a4.96,4.96,0,0,1-.051-.59,3.589,3.589,0,0,1-1.121,1.02,2.867,2.867,0,0,1-1.488.41,2.763,2.763,0,0,1-2.012-.676,2.486,2.486,0,0,1-.691-1.863A2.183,2.183,0,0,1,64-4.27a4.579,4.579,0,0,1,2.66-.684h1.672v-.836a1.551,1.551,0,0,0-.453-1.176A1.779,1.779,0,0,0,66.6-7.4a1.859,1.859,0,0,0-1.211.375,1.125,1.125,0,0,0-.461.9l-1.461.016-.016-.047a2.023,2.023,0,0,1,.863-1.687,3.578,3.578,0,0,1,2.371-.766A3.49,3.49,0,0,1,69-7.879a2.588,2.588,0,0,1,.875,2.105V-1.7a7.923,7.923,0,0,0,.047.875A4.5,4.5,0,0,0,70.094,0ZM65.953-1.125a2.739,2.739,0,0,0,1.508-.43,2.042,2.042,0,0,0,.875-.984V-3.914H66.609a2.24,2.24,0,0,0-1.488.469,1.4,1.4,0,0,0-.559,1.1,1.159,1.159,0,0,0,.352.891A1.472,1.472,0,0,0,65.953-1.125Zm7.531-7.328L73.594-7.2a3.069,3.069,0,0,1,1.059-1.043A2.824,2.824,0,0,1,76.1-8.609a2.759,2.759,0,0,1,2.117.8,3.515,3.515,0,0,1,.75,2.473V0H77.43V-5.3a2.287,2.287,0,0,0-.441-1.586,1.768,1.768,0,0,0-1.348-.469,2.386,2.386,0,0,0-1.207.285,2.072,2.072,0,0,0-.785.8V0H72.109V-8.453Z" transform="translate(294 4750)" fill="#111e61"/>
    <path id="Trazado_33933" data-name="Trazado 33933" d="M1.328,0V-11.375H5.039a4.5,4.5,0,0,1,2.789.77A2.722,2.722,0,0,1,8.836-8.3,2.087,2.087,0,0,1,8.383-6.98a2.845,2.845,0,0,1-1.2.887,2.646,2.646,0,0,1,1.77.969A2.965,2.965,0,0,1,9.6-3.211,2.9,2.9,0,0,1,8.586-.824,4.238,4.238,0,0,1,5.836,0ZM2.867-5.336V-1.2H5.836a2.374,2.374,0,0,0,1.637-.52A1.871,1.871,0,0,0,8.055-3.2a2.03,2.03,0,0,0-.594-1.523,2.334,2.334,0,0,0-1.6-.617H2.867Zm0-1.2H5.359a2.044,2.044,0,0,0,1.4-.473A1.659,1.659,0,0,0,7.3-8.328a1.645,1.645,0,0,0-.582-1.379,2.664,2.664,0,0,0-1.676-.457H2.867ZM16.656-1.25A2.863,2.863,0,0,1,15.633-.2a2.8,2.8,0,0,1-1.445.367,2.716,2.716,0,0,1-2.156-.883,4.1,4.1,0,0,1-.773-2.75V-8.453H12.8v5a3.147,3.147,0,0,0,.4,1.859,1.481,1.481,0,0,0,1.242.508,2.531,2.531,0,0,0,1.355-.332,2.077,2.077,0,0,0,.809-.941V-8.453h1.539V0H16.758ZM25.3-2.273A1.026,1.026,0,0,0,24.91-3.1a3.732,3.732,0,0,0-1.465-.562,6.146,6.146,0,0,1-2.293-.9,1.814,1.814,0,0,1-.8-1.547,2.229,2.229,0,0,1,.879-1.766,3.433,3.433,0,0,1,2.277-.734,3.4,3.4,0,0,1,2.328.781,2.239,2.239,0,0,1,.852,1.82l-.016.047H25.2a1.331,1.331,0,0,0-.48-.992A1.717,1.717,0,0,0,23.508-7.4a1.751,1.751,0,0,0-1.215.367,1.146,1.146,0,0,0-.4.875.927.927,0,0,0,.348.773,3.848,3.848,0,0,0,1.434.5,6.058,6.058,0,0,1,2.359.93,1.872,1.872,0,0,1,.8,1.57,2.226,2.226,0,0,1-.91,1.836,3.754,3.754,0,0,1-2.379.711A3.715,3.715,0,0,1,21-.656a2.341,2.341,0,0,1-.883-1.914l.016-.047H21.6a1.424,1.424,0,0,0,.609,1.2,2.358,2.358,0,0,0,1.336.379,2.1,2.1,0,0,0,1.285-.348A1.063,1.063,0,0,0,25.3-2.273Zm6.039-.859.273,1.063h.047l2.078-6.383h1.711L31.891,1.3a4.383,4.383,0,0,1-.918,1.484,2.113,2.113,0,0,1-1.613.633,3.363,3.363,0,0,1-.477-.043q-.289-.043-.445-.082l.156-1.211a2.062,2.062,0,0,1,.277.016q.324.023.41.023a.95.95,0,0,0,.8-.437,4.542,4.542,0,0,0,.523-.969l.367-.883L27.836-8.453h1.719ZM40.984,0V-11.375h3.578A4.812,4.812,0,0,1,48.145-10,4.824,4.824,0,0,1,49.5-6.461v1.555a4.808,4.808,0,0,1-1.355,3.543A4.827,4.827,0,0,1,44.563,0Zm1.539-10.164V-1.2h2.039a3.137,3.137,0,0,0,2.488-1.039,3.9,3.9,0,0,0,.91-2.664v-1.57a3.873,3.873,0,0,0-.91-2.648,3.137,3.137,0,0,0-2.488-1.039ZM53.273,0H51.734V-8.453h1.539Zm0-10.617H51.734v-1.57h1.539Zm6.367,3.523-.789-.047a1.762,1.762,0,0,0-1.027.289,1.855,1.855,0,0,0-.645.813V0H55.641V-8.453h1.375l.148,1.234a2.934,2.934,0,0,1,.887-1.023,2.073,2.073,0,0,1,1.215-.367,1.9,1.9,0,0,1,.328.027,2.175,2.175,0,0,1,.258.059Zm3.875-3.4v2.039h1.6v1.141h-1.6V-2.18a1.149,1.149,0,0,0,.246.836.89.89,0,0,0,.652.242,1.43,1.43,0,0,0,.3-.035,2.2,2.2,0,0,0,.273-.074L65.2-.156a1.36,1.36,0,0,1-.508.23,2.562,2.562,0,0,1-.664.09A1.993,1.993,0,0,1,62.531-.4a2.46,2.46,0,0,1-.555-1.777V-7.312H60.633V-8.453h1.344v-2.039Zm5.836,7.359.273,1.063h.047L71.75-8.453h1.711L69.906,1.3a4.383,4.383,0,0,1-.918,1.484,2.113,2.113,0,0,1-1.613.633,3.363,3.363,0,0,1-.477-.043q-.289-.043-.445-.082l.156-1.211a2.062,2.062,0,0,1,.277.016q.324.023.41.023a.95.95,0,0,0,.8-.437,4.542,4.542,0,0,0,.523-.969l.367-.883L65.852-8.453H67.57Z" transform="translate(294 4787)" fill="#111e61"/>
    <path id="Trazado_33936" data-name="Trazado 33936" d="M1.328,0V-11.375H4.906A4.812,4.812,0,0,1,8.488-10,4.824,4.824,0,0,1,9.844-6.461v1.555A4.808,4.808,0,0,1,8.488-1.363,4.827,4.827,0,0,1,4.906,0ZM2.867-10.164V-1.2H4.906A3.137,3.137,0,0,0,7.395-2.242,3.9,3.9,0,0,0,8.3-4.906v-1.57a3.873,3.873,0,0,0-.91-2.648,3.137,3.137,0,0,0-2.488-1.039ZM13.617,0H12.078V-8.453h1.539Zm0-10.617H12.078v-1.57h1.539Zm6.367,3.523L19.2-7.141a1.762,1.762,0,0,0-1.027.289,1.854,1.854,0,0,0-.645.813V0H15.984V-8.453h1.375l.148,1.234a2.934,2.934,0,0,1,.887-1.023,2.073,2.073,0,0,1,1.215-.367,1.9,1.9,0,0,1,.328.027,2.175,2.175,0,0,1,.258.059Zm3.875-3.4v2.039h1.6v1.141h-1.6V-2.18a1.149,1.149,0,0,0,.246.836.89.89,0,0,0,.652.242,1.429,1.429,0,0,0,.3-.035,2.2,2.2,0,0,0,.273-.074l.211,1.055a1.36,1.36,0,0,1-.508.23,2.562,2.562,0,0,1-.664.09A1.993,1.993,0,0,1,22.875-.4,2.46,2.46,0,0,1,22.32-2.18V-7.312H20.977V-8.453H22.32v-2.039ZM29.7-3.133l.273,1.063h.047l2.078-6.383H33.8L30.25,1.3a4.383,4.383,0,0,1-.918,1.484,2.113,2.113,0,0,1-1.613.633,3.363,3.363,0,0,1-.477-.043q-.289-.043-.445-.082l.156-1.211a2.062,2.062,0,0,1,.277.016q.324.023.41.023a.95.95,0,0,0,.8-.437,4.542,4.542,0,0,0,.523-.969l.367-.883L26.2-8.453h1.719Zm13.1.148.258.945H43.1l.258-.945L46.3-11.375h1.664L43.734,0h-1.32L38.188-11.375h1.672ZM54.086,0q-.078-.383-.121-.676a4.96,4.96,0,0,1-.051-.59,3.589,3.589,0,0,1-1.121,1.02A2.867,2.867,0,0,1,51.3.164a2.763,2.763,0,0,1-2.012-.676A2.486,2.486,0,0,1,48.6-2.375a2.183,2.183,0,0,1,.98-1.895,4.579,4.579,0,0,1,2.66-.684h1.672v-.836a1.551,1.551,0,0,0-.453-1.176A1.779,1.779,0,0,0,52.18-7.4a1.859,1.859,0,0,0-1.211.375,1.125,1.125,0,0,0-.461.9l-1.461.016-.016-.047a2.023,2.023,0,0,1,.863-1.687,3.578,3.578,0,0,1,2.371-.766,3.49,3.49,0,0,1,2.313.73,2.588,2.588,0,0,1,.875,2.105V-1.7a7.923,7.923,0,0,0,.047.875A4.5,4.5,0,0,0,55.672,0ZM51.531-1.125a2.739,2.739,0,0,0,1.508-.43,2.042,2.042,0,0,0,.875-.984V-3.914H52.188a2.24,2.24,0,0,0-1.488.469,1.4,1.4,0,0,0-.559,1.1,1.159,1.159,0,0,0,.352.891A1.472,1.472,0,0,0,51.531-1.125Zm9.516.086a1.81,1.81,0,0,0,1.242-.473,1.494,1.494,0,0,0,.531-1.16h1.391l.023.047A2.428,2.428,0,0,1,63.3-.684a3.312,3.312,0,0,1-2.25.848A3.319,3.319,0,0,1,58.3-1.047a4.674,4.674,0,0,1-.969-3.016v-.328a4.654,4.654,0,0,1,.973-3,3.317,3.317,0,0,1,2.746-1.215,3.189,3.189,0,0,1,2.316.875,2.775,2.775,0,0,1,.871,2.148l-.016.047h-1.4a1.865,1.865,0,0,0-.5-1.316,1.658,1.658,0,0,0-1.27-.543,1.777,1.777,0,0,0-1.652.879,4.114,4.114,0,0,0-.52,2.129v.328a4.192,4.192,0,0,0,.512,2.148A1.776,1.776,0,0,0,61.047-1.039ZM71.258,0q-.078-.383-.121-.676a4.96,4.96,0,0,1-.051-.59,3.589,3.589,0,0,1-1.121,1.02,2.867,2.867,0,0,1-1.488.41,2.763,2.763,0,0,1-2.012-.676,2.486,2.486,0,0,1-.691-1.863,2.183,2.183,0,0,1,.98-1.895,4.579,4.579,0,0,1,2.66-.684h1.672v-.836a1.551,1.551,0,0,0-.453-1.176A1.779,1.779,0,0,0,69.352-7.4a1.859,1.859,0,0,0-1.211.375,1.125,1.125,0,0,0-.461.9l-1.461.016L66.2-6.156a2.023,2.023,0,0,1,.863-1.687,3.578,3.578,0,0,1,2.371-.766,3.49,3.49,0,0,1,2.313.73,2.588,2.588,0,0,1,.875,2.105V-1.7a7.923,7.923,0,0,0,.047.875A4.5,4.5,0,0,0,72.844,0ZM68.7-1.125a2.739,2.739,0,0,0,1.508-.43,2.042,2.042,0,0,0,.875-.984V-3.914H69.359a2.24,2.24,0,0,0-1.488.469,1.4,1.4,0,0,0-.559,1.1,1.159,1.159,0,0,0,.352.891A1.472,1.472,0,0,0,68.7-1.125Zm7.531-7.328L76.344-7.2A3.069,3.069,0,0,1,77.4-8.238a2.824,2.824,0,0,1,1.449-.371,2.759,2.759,0,0,1,2.117.8,3.515,3.515,0,0,1,.75,2.473V0H80.18V-5.3a2.287,2.287,0,0,0-.441-1.586,1.768,1.768,0,0,0-1.348-.469,2.386,2.386,0,0,0-1.207.285,2.072,2.072,0,0,0-.785.8V0H74.859V-8.453ZM87.313-1.039a1.81,1.81,0,0,0,1.242-.473,1.494,1.494,0,0,0,.531-1.16h1.391l.023.047a2.428,2.428,0,0,1-.937,1.941,3.313,3.313,0,0,1-2.25.848,3.319,3.319,0,0,1-2.75-1.211,4.674,4.674,0,0,1-.969-3.016v-.328a4.654,4.654,0,0,1,.973-3,3.317,3.317,0,0,1,2.746-1.215,3.189,3.189,0,0,1,2.316.875A2.775,2.775,0,0,1,90.5-5.586l-.016.047h-1.4a1.865,1.865,0,0,0-.5-1.316,1.658,1.658,0,0,0-1.27-.543,1.777,1.777,0,0,0-1.652.879,4.114,4.114,0,0,0-.52,2.129v.328a4.192,4.192,0,0,0,.512,2.148A1.776,1.776,0,0,0,87.313-1.039Zm7.6-2.094.273,1.063h.047l2.078-6.383h1.711L95.469,1.3a4.383,4.383,0,0,1-.918,1.484,2.113,2.113,0,0,1-1.613.633,3.363,3.363,0,0,1-.477-.043q-.289-.043-.445-.082l.156-1.211a2.062,2.062,0,0,1,.277.016q.324.023.41.023a.95.95,0,0,0,.8-.437,4.542,4.542,0,0,0,.523-.969l.367-.883L91.414-8.453h1.719Z" transform="translate(294 4834)" fill="#111e61"/>
    <path id="Trazado_33939" data-name="Trazado 33939" d="M9.445-3.641l.016.047A3.417,3.417,0,0,1,8.336-.914,4.3,4.3,0,0,1,5.281.164,4.012,4.012,0,0,1,2.137-1.2,5.028,5.028,0,0,1,.922-4.672V-6.7a5.043,5.043,0,0,1,1.215-3.473,4.006,4.006,0,0,1,3.145-1.371,4.416,4.416,0,0,1,3.07,1.027A3.4,3.4,0,0,1,9.461-7.789l-.016.047H7.969a2.539,2.539,0,0,0-.7-1.891,2.7,2.7,0,0,0-1.984-.7A2.424,2.424,0,0,0,3.227-9.289a4.227,4.227,0,0,0-.766,2.578v2.039a4.254,4.254,0,0,0,.766,2.594A2.424,2.424,0,0,0,5.281-1.039,2.71,2.71,0,0,0,7.266-1.73a2.557,2.557,0,0,0,.7-1.91ZM12.914,0H11.375V-12.187h1.539Zm5.867.164A3.576,3.576,0,0,1,15.941-1a4.48,4.48,0,0,1-1.02-3.062v-.344a4.386,4.386,0,0,1,1.051-3.012,3.3,3.3,0,0,1,2.566-1.191,3.067,3.067,0,0,1,2.543,1.055,4.345,4.345,0,0,1,.848,2.8v.813H16.523L16.5-3.9a3.494,3.494,0,0,0,.563,2.066,1.965,1.965,0,0,0,1.719.793,3.872,3.872,0,0,0,1.371-.223,3.061,3.061,0,0,0,1.012-.613l.6,1a3.7,3.7,0,0,1-1.2.738A4.762,4.762,0,0,1,18.781.164ZM18.539-7.4a1.673,1.673,0,0,0-1.332.621,2.938,2.938,0,0,0-.645,1.59l.016.039h3.813v-.125A2.462,2.462,0,0,0,19.938-6.8,1.638,1.638,0,0,0,18.539-7.4ZM28.852,0q-.078-.383-.121-.676a4.96,4.96,0,0,1-.051-.59,3.589,3.589,0,0,1-1.121,1.02,2.867,2.867,0,0,1-1.488.41,2.763,2.763,0,0,1-2.012-.676,2.486,2.486,0,0,1-.691-1.863,2.183,2.183,0,0,1,.98-1.895,4.579,4.579,0,0,1,2.66-.684H28.68v-.836a1.551,1.551,0,0,0-.453-1.176A1.779,1.779,0,0,0,26.945-7.4a1.859,1.859,0,0,0-1.211.375,1.125,1.125,0,0,0-.461.9l-1.461.016L23.8-6.156a2.023,2.023,0,0,1,.863-1.687,3.578,3.578,0,0,1,2.371-.766,3.49,3.49,0,0,1,2.313.73,2.588,2.588,0,0,1,.875,2.105V-1.7a7.923,7.923,0,0,0,.047.875A4.5,4.5,0,0,0,30.438,0ZM26.3-1.125a2.739,2.739,0,0,0,1.508-.43,2.042,2.042,0,0,0,.875-.984V-3.914H26.953a2.24,2.24,0,0,0-1.488.469,1.4,1.4,0,0,0-.559,1.1,1.159,1.159,0,0,0,.352.891A1.472,1.472,0,0,0,26.3-1.125Zm7.531-7.328L33.938-7.2A3.069,3.069,0,0,1,35-8.238a2.824,2.824,0,0,1,1.449-.371,2.759,2.759,0,0,1,2.117.8,3.515,3.515,0,0,1,.75,2.473V0H37.773V-5.3a2.287,2.287,0,0,0-.441-1.586,1.768,1.768,0,0,0-1.348-.469,2.386,2.386,0,0,0-1.207.285,2.072,2.072,0,0,0-.785.8V0H32.453V-8.453ZM48.344-2.492l.133.594h.047l.148-.594,1.945-5.961h1.57L49.078,0H47.914L44.766-8.453h1.578ZM58.648,0q-.078-.383-.121-.676a4.96,4.96,0,0,1-.051-.59,3.589,3.589,0,0,1-1.121,1.02,2.867,2.867,0,0,1-1.488.41,2.763,2.763,0,0,1-2.012-.676,2.486,2.486,0,0,1-.691-1.863,2.183,2.183,0,0,1,.98-1.895,4.579,4.579,0,0,1,2.66-.684h1.672v-.836a1.551,1.551,0,0,0-.453-1.176A1.779,1.779,0,0,0,56.742-7.4a1.859,1.859,0,0,0-1.211.375,1.125,1.125,0,0,0-.461.9l-1.461.016-.016-.047a2.023,2.023,0,0,1,.863-1.687,3.578,3.578,0,0,1,2.371-.766,3.49,3.49,0,0,1,2.313.73,2.588,2.588,0,0,1,.875,2.105V-1.7a7.923,7.923,0,0,0,.047.875A4.5,4.5,0,0,0,60.234,0ZM56.094-1.125a2.739,2.739,0,0,0,1.508-.43,2.042,2.042,0,0,0,.875-.984V-3.914H56.75a2.24,2.24,0,0,0-1.488.469,1.4,1.4,0,0,0-.559,1.1,1.159,1.159,0,0,0,.352.891A1.472,1.472,0,0,0,56.094-1.125Zm9.516.086a1.81,1.81,0,0,0,1.242-.473,1.494,1.494,0,0,0,.531-1.16h1.391l.023.047a2.428,2.428,0,0,1-.937,1.941,3.313,3.313,0,0,1-2.25.848,3.319,3.319,0,0,1-2.75-1.211,4.674,4.674,0,0,1-.969-3.016v-.328a4.654,4.654,0,0,1,.973-3,3.317,3.317,0,0,1,2.746-1.215,3.189,3.189,0,0,1,2.316.875A2.775,2.775,0,0,1,68.8-5.586l-.016.047h-1.4a1.865,1.865,0,0,0-.5-1.316,1.658,1.658,0,0,0-1.27-.543,1.777,1.777,0,0,0-1.652.879,4.114,4.114,0,0,0-.52,2.129v.328a4.192,4.192,0,0,0,.512,2.148A1.776,1.776,0,0,0,65.609-1.039ZM75.82,0q-.078-.383-.121-.676a4.96,4.96,0,0,1-.051-.59,3.589,3.589,0,0,1-1.121,1.02,2.867,2.867,0,0,1-1.488.41,2.763,2.763,0,0,1-2.012-.676,2.486,2.486,0,0,1-.691-1.863,2.183,2.183,0,0,1,.98-1.895,4.579,4.579,0,0,1,2.66-.684h1.672v-.836A1.551,1.551,0,0,0,75.2-6.965,1.779,1.779,0,0,0,73.914-7.4a1.859,1.859,0,0,0-1.211.375,1.125,1.125,0,0,0-.461.9l-1.461.016-.016-.047a2.023,2.023,0,0,1,.863-1.687A3.578,3.578,0,0,1,74-8.609a3.49,3.49,0,0,1,2.313.73,2.588,2.588,0,0,1,.875,2.105V-1.7a7.923,7.923,0,0,0,.047.875A4.5,4.5,0,0,0,77.406,0ZM73.266-1.125a2.739,2.739,0,0,0,1.508-.43,2.042,2.042,0,0,0,.875-.984V-3.914H73.922a2.24,2.24,0,0,0-1.488.469,1.4,1.4,0,0,0-.559,1.1,1.159,1.159,0,0,0,.352.891A1.472,1.472,0,0,0,73.266-1.125ZM80.8-8.453,80.906-7.2a3.069,3.069,0,0,1,1.059-1.043,2.824,2.824,0,0,1,1.449-.371,2.759,2.759,0,0,1,2.117.8,3.515,3.515,0,0,1,.75,2.473V0H84.742V-5.3A2.287,2.287,0,0,0,84.3-6.891a1.768,1.768,0,0,0-1.348-.469,2.386,2.386,0,0,0-1.207.285,2.072,2.072,0,0,0-.785.8V0H79.422V-8.453ZM91.875-1.039a1.81,1.81,0,0,0,1.242-.473,1.494,1.494,0,0,0,.531-1.16h1.391l.023.047a2.428,2.428,0,0,1-.937,1.941,3.313,3.313,0,0,1-2.25.848,3.319,3.319,0,0,1-2.75-1.211,4.674,4.674,0,0,1-.969-3.016v-.328a4.654,4.654,0,0,1,.973-3,3.317,3.317,0,0,1,2.746-1.215,3.189,3.189,0,0,1,2.316.875,2.775,2.775,0,0,1,.871,2.148l-.016.047h-1.4a1.865,1.865,0,0,0-.5-1.316,1.658,1.658,0,0,0-1.27-.543,1.777,1.777,0,0,0-1.652.879,4.114,4.114,0,0,0-.52,2.129v.328a4.192,4.192,0,0,0,.512,2.148A1.776,1.776,0,0,0,91.875-1.039Zm7.6-2.094L99.75-2.07H99.8l2.078-6.383h1.711L100.031,1.3a4.383,4.383,0,0,1-.918,1.484,2.113,2.113,0,0,1-1.613.633,3.363,3.363,0,0,1-.477-.043q-.289-.043-.445-.082l.156-1.211a2.062,2.062,0,0,1,.277.016q.324.023.41.023a.95.95,0,0,0,.8-.437A4.542,4.542,0,0,0,98.75.711l.367-.883L95.977-8.453H97.7Z" transform="translate(294 4882)" fill="#111e61"/>
    <path id="Trazado_33941" data-name="Trazado 33941" d="M10.016-4.672A4.853,4.853,0,0,1,8.723-1.211,4.4,4.4,0,0,1,5.367.164,4.167,4.167,0,0,1,2.129-1.211,4.959,4.959,0,0,1,.883-4.672V-6.7a4.977,4.977,0,0,1,1.246-3.461,4.156,4.156,0,0,1,3.238-1.383A4.39,4.39,0,0,1,8.723-10.16,4.867,4.867,0,0,1,10.016-6.7ZM8.477-6.711a3.837,3.837,0,0,0-.844-2.562,2.813,2.813,0,0,0-2.266-1,2.606,2.606,0,0,0-2.145,1,3.972,3.972,0,0,0-.8,2.563v2.039a4,4,0,0,0,.8,2.578,2.606,2.606,0,0,0,2.145,1,2.815,2.815,0,0,0,2.27-1,3.869,3.869,0,0,0,.84-2.582ZM17.391-1.25A2.863,2.863,0,0,1,16.367-.2a2.8,2.8,0,0,1-1.445.367,2.716,2.716,0,0,1-2.156-.883,4.1,4.1,0,0,1-.773-2.75V-8.453h1.539v5a3.147,3.147,0,0,0,.4,1.859,1.481,1.481,0,0,0,1.242.508,2.531,2.531,0,0,0,1.355-.332,2.077,2.077,0,0,0,.809-.941V-8.453h1.539V0H17.492Zm5.867-9.242v2.039h1.6v1.141h-1.6V-2.18a1.149,1.149,0,0,0,.246.836.89.89,0,0,0,.652.242,1.429,1.429,0,0,0,.3-.035,2.2,2.2,0,0,0,.273-.074l.211,1.055a1.36,1.36,0,0,1-.508.23,2.562,2.562,0,0,1-.664.09A1.993,1.993,0,0,1,22.273-.4a2.46,2.46,0,0,1-.555-1.777V-7.312H20.375V-8.453h1.344v-2.039ZM30.125-4.3a4.654,4.654,0,0,1,1.016-3.09A3.406,3.406,0,0,1,33.9-8.609,3.439,3.439,0,0,1,36.676-7.4,4.639,4.639,0,0,1,37.7-4.3v.172A4.631,4.631,0,0,1,36.68-1.039a3.429,3.429,0,0,1-2.766,1.2,3.436,3.436,0,0,1-2.77-1.207,4.623,4.623,0,0,1-1.02-3.09Zm1.539.172a4.009,4.009,0,0,0,.566,2.219,1.875,1.875,0,0,0,1.684.875,1.87,1.87,0,0,0,1.672-.875,3.988,3.988,0,0,0,.57-2.219V-4.3a3.976,3.976,0,0,0-.574-2.211A1.882,1.882,0,0,0,33.9-7.4a1.856,1.856,0,0,0-1.668.883A4.018,4.018,0,0,0,31.664-4.3ZM40.219,0V-7.312H38.9V-8.453h1.32v-1.07a2.9,2.9,0,0,1,.707-2.09,2.6,2.6,0,0,1,1.973-.738,3.4,3.4,0,0,1,.535.043q.27.043.6.121l-.187,1.172q-.141-.031-.34-.055a3.579,3.579,0,0,0-.418-.023,1.215,1.215,0,0,0-1,.4,1.809,1.809,0,0,0-.328,1.168v1.07h1.531v1.141H41.758V0ZM53.734-2.273a1.026,1.026,0,0,0-.387-.828,3.732,3.732,0,0,0-1.465-.562,6.146,6.146,0,0,1-2.293-.9,1.814,1.814,0,0,1-.8-1.547,2.229,2.229,0,0,1,.879-1.766,3.433,3.433,0,0,1,2.277-.734,3.4,3.4,0,0,1,2.328.781,2.239,2.239,0,0,1,.852,1.82l-.016.047H53.641a1.331,1.331,0,0,0-.48-.992A1.717,1.717,0,0,0,51.945-7.4a1.751,1.751,0,0,0-1.215.367,1.146,1.146,0,0,0-.4.875.927.927,0,0,0,.348.773,3.848,3.848,0,0,0,1.434.5,6.058,6.058,0,0,1,2.359.93,1.872,1.872,0,0,1,.8,1.57,2.226,2.226,0,0,1-.91,1.836,3.754,3.754,0,0,1-2.379.711,3.715,3.715,0,0,1-2.547-.82,2.341,2.341,0,0,1-.883-1.914l.016-.047h1.469a1.424,1.424,0,0,0,.609,1.2,2.358,2.358,0,0,0,1.336.379,2.1,2.1,0,0,0,1.285-.348A1.063,1.063,0,0,0,53.734-2.273ZM60.688.164A3.576,3.576,0,0,1,57.848-1a4.48,4.48,0,0,1-1.02-3.062v-.344a4.386,4.386,0,0,1,1.051-3.012,3.3,3.3,0,0,1,2.566-1.191,3.067,3.067,0,0,1,2.543,1.055,4.345,4.345,0,0,1,.848,2.8v.813H58.43l-.023.039a3.494,3.494,0,0,0,.563,2.066,1.965,1.965,0,0,0,1.719.793,3.872,3.872,0,0,0,1.371-.223,3.061,3.061,0,0,0,1.012-.613l.6,1a3.7,3.7,0,0,1-1.2.738A4.762,4.762,0,0,1,60.688.164ZM60.445-7.4a1.673,1.673,0,0,0-1.332.621,2.938,2.938,0,0,0-.645,1.59l.016.039H62.3v-.125A2.462,2.462,0,0,0,61.844-6.8,1.638,1.638,0,0,0,60.445-7.4Zm9.117.3-.789-.047a1.762,1.762,0,0,0-1.027.289,1.854,1.854,0,0,0-.645.813V0H65.563V-8.453h1.375l.148,1.234a2.934,2.934,0,0,1,.887-1.023,2.073,2.073,0,0,1,1.215-.367,1.9,1.9,0,0,1,.328.027,2.175,2.175,0,0,1,.258.059Zm4.563,4.6.133.594H74.3l.148-.594L76.4-8.453h1.57L74.859,0H73.7L70.547-8.453h1.578ZM81.016,0H79.477V-8.453h1.539Zm0-10.617H79.477v-1.57h1.539Zm5.727,9.578a1.81,1.81,0,0,0,1.242-.473,1.494,1.494,0,0,0,.531-1.16h1.391l.023.047a2.428,2.428,0,0,1-.937,1.941,3.313,3.313,0,0,1-2.25.848,3.319,3.319,0,0,1-2.75-1.211,4.674,4.674,0,0,1-.969-3.016v-.328a4.654,4.654,0,0,1,.973-3,3.317,3.317,0,0,1,2.746-1.215,3.189,3.189,0,0,1,2.316.875,2.775,2.775,0,0,1,.871,2.148l-.016.047h-1.4a1.865,1.865,0,0,0-.5-1.316,1.658,1.658,0,0,0-1.27-.543,1.777,1.777,0,0,0-1.652.879,4.114,4.114,0,0,0-.52,2.129v.328a4.192,4.192,0,0,0,.512,2.148A1.776,1.776,0,0,0,86.742-1.039Zm8.516,1.2A3.576,3.576,0,0,1,92.418-1,4.48,4.48,0,0,1,91.4-4.062v-.344a4.386,4.386,0,0,1,1.051-3.012,3.3,3.3,0,0,1,2.566-1.191,3.067,3.067,0,0,1,2.543,1.055,4.345,4.345,0,0,1,.848,2.8v.813H93l-.023.039a3.494,3.494,0,0,0,.563,2.066,1.965,1.965,0,0,0,1.719.793,3.872,3.872,0,0,0,1.371-.223,3.061,3.061,0,0,0,1.012-.613l.6,1a3.7,3.7,0,0,1-1.2.738A4.762,4.762,0,0,1,95.258.164ZM95.016-7.4a1.673,1.673,0,0,0-1.332.621,2.938,2.938,0,0,0-.645,1.59l.016.039h3.813v-.125A2.462,2.462,0,0,0,96.414-6.8,1.638,1.638,0,0,0,95.016-7.4ZM1.031,13.383A10.458,10.458,0,0,1,2.273,8.125,7.19,7.19,0,0,1,4.883,5.219l.047.008.3.906a6.665,6.665,0,0,0-1.863,2.68,11.54,11.54,0,0,0-.793,4.555v.1a11.591,11.591,0,0,0,.789,4.555,7.25,7.25,0,0,0,1.867,2.75l-.3.844H4.883a7.193,7.193,0,0,1-2.609-2.9,10.452,10.452,0,0,1-1.242-5.262ZM7.063,18V10.688H5.742V9.547h1.32V8.477a2.9,2.9,0,0,1,.707-2.09,2.6,2.6,0,0,1,1.973-.738,3.4,3.4,0,0,1,.535.043q.27.043.6.121l-.187,1.172q-.141-.031-.34-.055a3.579,3.579,0,0,0-.418-.023,1.215,1.215,0,0,0-1,.4A1.809,1.809,0,0,0,8.6,8.477v1.07h1.531v1.141H8.6V18Zm9.992-1.25A2.863,2.863,0,0,1,16.031,17.8a2.8,2.8,0,0,1-1.445.367,2.716,2.716,0,0,1-2.156-.883,4.1,4.1,0,0,1-.773-2.75V9.547H13.2v5a3.147,3.147,0,0,0,.4,1.859,1.481,1.481,0,0,0,1.242.508,2.531,2.531,0,0,0,1.355-.332A2.077,2.077,0,0,0,17,15.641V9.547h1.539V18H17.156Zm7.227,1.414A3.576,3.576,0,0,1,21.441,17a4.48,4.48,0,0,1-1.02-3.062v-.344a4.386,4.386,0,0,1,1.051-3.012,3.3,3.3,0,0,1,2.566-1.191,3.067,3.067,0,0,1,2.543,1.055,4.345,4.345,0,0,1,.848,2.8v.813H22.023L22,14.1a3.494,3.494,0,0,0,.563,2.066,1.965,1.965,0,0,0,1.719.793,3.872,3.872,0,0,0,1.371-.223,3.061,3.061,0,0,0,1.012-.613l.6,1a3.7,3.7,0,0,1-1.2.738A4.762,4.762,0,0,1,24.281,18.164ZM24.039,10.6a1.673,1.673,0,0,0-1.332.621,2.938,2.938,0,0,0-.645,1.59l.016.039h3.813v-.125a2.462,2.462,0,0,0-.453-1.523A1.638,1.638,0,0,0,24.039,10.6Zm9.117.3-.789-.047a1.762,1.762,0,0,0-1.027.289,1.854,1.854,0,0,0-.645.813V18H29.156V9.547h1.375l.148,1.234a2.934,2.934,0,0,1,.887-1.023,2.073,2.073,0,0,1,1.215-.367,1.9,1.9,0,0,1,.328.027,2.175,2.175,0,0,1,.258.059ZM39.953,18q-.078-.383-.121-.676a4.96,4.96,0,0,1-.051-.59,3.589,3.589,0,0,1-1.121,1.02,2.867,2.867,0,0,1-1.488.41,2.763,2.763,0,0,1-2.012-.676,2.486,2.486,0,0,1-.691-1.863,2.183,2.183,0,0,1,.98-1.895,4.579,4.579,0,0,1,2.66-.684h1.672v-.836a1.551,1.551,0,0,0-.453-1.176,1.779,1.779,0,0,0-1.281-.434,1.859,1.859,0,0,0-1.211.375,1.125,1.125,0,0,0-.461.9l-1.461.016-.016-.047a2.023,2.023,0,0,1,.863-1.687,3.578,3.578,0,0,1,2.371-.766,3.49,3.49,0,0,1,2.313.73,2.588,2.588,0,0,1,.875,2.105V16.3a7.923,7.923,0,0,0,.047.875,4.5,4.5,0,0,0,.172.828ZM37.4,16.875a2.739,2.739,0,0,0,1.508-.43,2.042,2.042,0,0,0,.875-.984V14.086H38.055a2.24,2.24,0,0,0-1.488.469,1.4,1.4,0,0,0-.559,1.1,1.159,1.159,0,0,0,.352.891A1.472,1.472,0,0,0,37.4,16.875ZM47.18,13.93a5.641,5.641,0,0,1,.871-3.289,2.807,2.807,0,0,1,2.441-1.25,3.027,3.027,0,0,1,1.316.273,2.7,2.7,0,0,1,.98.8V5.813h1.539V18h-1.18l-.234-1.07a2.743,2.743,0,0,1-1.023.922,3.058,3.058,0,0,1-1.414.313,2.9,2.9,0,0,1-2.422-1.121,4.659,4.659,0,0,1-.875-2.949Zm1.539.164a3.588,3.588,0,0,0,.523,2.051,1.828,1.828,0,0,0,1.625.77,2.039,2.039,0,0,0,1.156-.312,2.334,2.334,0,0,0,.766-.875V11.781a2.37,2.37,0,0,0-.77-.832,2.033,2.033,0,0,0-1.137-.309,1.759,1.759,0,0,0-1.637.914,4.718,4.718,0,0,0-.527,2.375Zm11.406,4.07A3.576,3.576,0,0,1,57.285,17a4.48,4.48,0,0,1-1.02-3.062v-.344a4.386,4.386,0,0,1,1.051-3.012,3.3,3.3,0,0,1,2.566-1.191,3.067,3.067,0,0,1,2.543,1.055,4.345,4.345,0,0,1,.848,2.8v.813H57.867l-.023.039a3.494,3.494,0,0,0,.563,2.066,1.965,1.965,0,0,0,1.719.793,3.872,3.872,0,0,0,1.371-.223,3.061,3.061,0,0,0,1.012-.613l.6,1a3.7,3.7,0,0,1-1.2.738A4.762,4.762,0,0,1,60.125,18.164ZM59.883,10.6a1.673,1.673,0,0,0-1.332.621,2.938,2.938,0,0,0-.645,1.59l.016.039h3.813v-.125a2.462,2.462,0,0,0-.453-1.523A1.638,1.638,0,0,0,59.883,10.6Zm14.008,5.125A1.026,1.026,0,0,0,73.5,14.9a3.732,3.732,0,0,0-1.465-.562,6.146,6.146,0,0,1-2.293-.9,1.814,1.814,0,0,1-.8-1.547,2.229,2.229,0,0,1,.879-1.766,3.879,3.879,0,0,1,4.605.047,2.239,2.239,0,0,1,.852,1.82l-.016.047H73.8a1.331,1.331,0,0,0-.48-.992A1.717,1.717,0,0,0,72.1,10.6a1.751,1.751,0,0,0-1.215.367,1.146,1.146,0,0,0-.4.875.927.927,0,0,0,.348.773,3.848,3.848,0,0,0,1.434.5,6.058,6.058,0,0,1,2.359.93,1.872,1.872,0,0,1,.8,1.57,2.226,2.226,0,0,1-.91,1.836,3.754,3.754,0,0,1-2.379.711,3.715,3.715,0,0,1-2.547-.82,2.341,2.341,0,0,1-.883-1.914l.016-.047H70.2a1.424,1.424,0,0,0,.609,1.2,2.358,2.358,0,0,0,1.336.379,2.1,2.1,0,0,0,1.285-.348A1.063,1.063,0,0,0,73.891,15.727Zm6.953,2.438A3.576,3.576,0,0,1,78,17a4.48,4.48,0,0,1-1.02-3.062v-.344a4.386,4.386,0,0,1,1.051-3.012A3.3,3.3,0,0,1,80.6,9.391a3.067,3.067,0,0,1,2.543,1.055,4.345,4.345,0,0,1,.848,2.8v.813H78.586l-.023.039a3.494,3.494,0,0,0,.563,2.066,1.965,1.965,0,0,0,1.719.793,3.872,3.872,0,0,0,1.371-.223,3.061,3.061,0,0,0,1.012-.613l.6,1a3.7,3.7,0,0,1-1.2.738A4.762,4.762,0,0,1,80.844,18.164ZM80.6,10.6a1.673,1.673,0,0,0-1.332.621,2.938,2.938,0,0,0-.645,1.59l.016.039h3.813v-.125A2.462,2.462,0,0,0,82,11.2,1.638,1.638,0,0,0,80.6,10.6Zm9.117.3-.789-.047a1.762,1.762,0,0,0-1.027.289,1.854,1.854,0,0,0-.645.813V18H85.719V9.547h1.375l.148,1.234a2.934,2.934,0,0,1,.887-1.023,2.073,2.073,0,0,1,1.215-.367,1.9,1.9,0,0,1,.328.027,2.175,2.175,0,0,1,.258.059Zm4.563,4.6.133.594h.047l.148-.594,1.945-5.961h1.57L95.016,18H93.852L90.7,9.547h1.578ZM101.172,18H99.633V9.547h1.539Zm0-10.617H99.633V5.813h1.539Zm5.727,9.578a1.81,1.81,0,0,0,1.242-.473,1.494,1.494,0,0,0,.531-1.16h1.391l.023.047a2.428,2.428,0,0,1-.937,1.941,3.582,3.582,0,0,1-5-.363,4.674,4.674,0,0,1-.969-3.016v-.328a4.654,4.654,0,0,1,.973-3A3.317,3.317,0,0,1,106.9,9.391a3.189,3.189,0,0,1,2.316.875,2.775,2.775,0,0,1,.871,2.148l-.016.047h-1.4a1.865,1.865,0,0,0-.5-1.316,1.658,1.658,0,0,0-1.27-.543,1.777,1.777,0,0,0-1.652.879,4.114,4.114,0,0,0-.52,2.129v.328a4.192,4.192,0,0,0,.512,2.148A1.776,1.776,0,0,0,106.9,16.961ZM113.578,18h-1.539V9.547h1.539Zm0-10.617h-1.539V5.813h1.539Zm2.008,6.313a4.654,4.654,0,0,1,1.016-3.09,3.764,3.764,0,0,1,5.535,0,4.639,4.639,0,0,1,1.02,3.094v.172a4.631,4.631,0,0,1-1.016,3.094,3.781,3.781,0,0,1-5.535,0,4.623,4.623,0,0,1-1.02-3.09Zm1.539.172a4.009,4.009,0,0,0,.566,2.219,2.046,2.046,0,0,0,3.355,0,3.988,3.988,0,0,0,.57-2.219V13.7a3.976,3.976,0,0,0-.574-2.211,1.882,1.882,0,0,0-1.684-.883,1.856,1.856,0,0,0-1.668.883,4.018,4.018,0,0,0-.566,2.211Zm11.039-.414a10.426,10.426,0,0,1-1.246,5.262,7.244,7.244,0,0,1-2.605,2.9h-.047l-.3-.844a6.653,6.653,0,0,0,1.855-2.7,11.749,11.749,0,0,0,.8-4.605v-.1a11.354,11.354,0,0,0-.824-4.559,7.532,7.532,0,0,0-1.832-2.746l.3-.844h.047a7.241,7.241,0,0,1,2.605,2.906,10.431,10.431,0,0,1,1.246,5.258Z" transform="translate(294 4919)" fill="#111e61"/>
    <path id="Trazado_33944" data-name="Trazado 33944" d="M2.867-4.562V0H1.328V-11.375H5.68a4.009,4.009,0,0,1,2.832.938A3.207,3.207,0,0,1,9.523-7.969,3.2,3.2,0,0,1,8.512-5.492a4.031,4.031,0,0,1-2.832.93Zm0-1.2H5.68a2.231,2.231,0,0,0,1.727-.621,2.227,2.227,0,0,0,.57-1.566A2.26,2.26,0,0,0,7.4-9.531a2.21,2.21,0,0,0-1.723-.633H2.867ZM12.953,0H11.414V-12.187h1.539ZM18.82.164A3.576,3.576,0,0,1,15.98-1a4.48,4.48,0,0,1-1.02-3.062v-.344a4.386,4.386,0,0,1,1.051-3.012,3.3,3.3,0,0,1,2.566-1.191,3.067,3.067,0,0,1,2.543,1.055,4.345,4.345,0,0,1,.848,2.8v.813H16.563l-.023.039A3.494,3.494,0,0,0,17.1-1.832a1.965,1.965,0,0,0,1.719.793,3.872,3.872,0,0,0,1.371-.223A3.061,3.061,0,0,0,21.2-1.875l.6,1a3.7,3.7,0,0,1-1.2.738A4.762,4.762,0,0,1,18.82.164ZM18.578-7.4a1.673,1.673,0,0,0-1.332.621,2.938,2.938,0,0,0-.645,1.59l.016.039H20.43v-.125A2.462,2.462,0,0,0,19.977-6.8,1.638,1.638,0,0,0,18.578-7.4ZM28.891,0q-.078-.383-.121-.676a4.96,4.96,0,0,1-.051-.59A3.589,3.589,0,0,1,27.6-.246a2.867,2.867,0,0,1-1.488.41A2.763,2.763,0,0,1,24.1-.512a2.486,2.486,0,0,1-.691-1.863,2.183,2.183,0,0,1,.98-1.895,4.579,4.579,0,0,1,2.66-.684h1.672v-.836a1.551,1.551,0,0,0-.453-1.176A1.779,1.779,0,0,0,26.984-7.4a1.859,1.859,0,0,0-1.211.375,1.125,1.125,0,0,0-.461.9l-1.461.016-.016-.047A2.023,2.023,0,0,1,24.7-7.844a3.578,3.578,0,0,1,2.371-.766,3.49,3.49,0,0,1,2.313.73,2.588,2.588,0,0,1,.875,2.105V-1.7a7.923,7.923,0,0,0,.047.875A4.5,4.5,0,0,0,30.477,0ZM26.336-1.125a2.739,2.739,0,0,0,1.508-.43,2.042,2.042,0,0,0,.875-.984V-3.914H26.992a2.24,2.24,0,0,0-1.488.469,1.4,1.4,0,0,0-.559,1.1,1.159,1.159,0,0,0,.352.891A1.472,1.472,0,0,0,26.336-1.125Zm11.07-1.148A1.026,1.026,0,0,0,37.02-3.1a3.732,3.732,0,0,0-1.465-.562,6.146,6.146,0,0,1-2.293-.9,1.814,1.814,0,0,1-.8-1.547,2.229,2.229,0,0,1,.879-1.766,3.433,3.433,0,0,1,2.277-.734,3.4,3.4,0,0,1,2.328.781,2.239,2.239,0,0,1,.852,1.82l-.016.047H37.313a1.331,1.331,0,0,0-.48-.992A1.717,1.717,0,0,0,35.617-7.4a1.751,1.751,0,0,0-1.215.367,1.146,1.146,0,0,0-.4.875.927.927,0,0,0,.348.773,3.848,3.848,0,0,0,1.434.5,6.058,6.058,0,0,1,2.359.93,1.872,1.872,0,0,1,.8,1.57,2.226,2.226,0,0,1-.91,1.836,3.754,3.754,0,0,1-2.379.711,3.715,3.715,0,0,1-2.547-.82,2.341,2.341,0,0,1-.883-1.914l.016-.047h1.469a1.424,1.424,0,0,0,.609,1.2,2.358,2.358,0,0,0,1.336.379,2.1,2.1,0,0,0,1.285-.348A1.063,1.063,0,0,0,37.406-2.273ZM44.359.164A3.576,3.576,0,0,1,41.52-1,4.48,4.48,0,0,1,40.5-4.062v-.344a4.386,4.386,0,0,1,1.051-3.012,3.3,3.3,0,0,1,2.566-1.191A3.067,3.067,0,0,1,46.66-7.555a4.345,4.345,0,0,1,.848,2.8v.813H42.1l-.023.039a3.494,3.494,0,0,0,.563,2.066,1.965,1.965,0,0,0,1.719.793,3.872,3.872,0,0,0,1.371-.223,3.061,3.061,0,0,0,1.012-.613l.6,1a3.7,3.7,0,0,1-1.2.738A4.762,4.762,0,0,1,44.359.164ZM44.117-7.4a1.673,1.673,0,0,0-1.332.621,2.938,2.938,0,0,0-.645,1.59l.016.039h3.813v-.125A2.462,2.462,0,0,0,45.516-6.8,1.638,1.638,0,0,0,44.117-7.4ZM52.859-4.07a5.641,5.641,0,0,1,.871-3.289,2.807,2.807,0,0,1,2.441-1.25,3.027,3.027,0,0,1,1.316.273,2.7,2.7,0,0,1,.98.8v-4.648h1.539V0h-1.18l-.234-1.07a2.743,2.743,0,0,1-1.023.922,3.058,3.058,0,0,1-1.414.313A2.9,2.9,0,0,1,53.734-.957a4.659,4.659,0,0,1-.875-2.949Zm1.539.164a3.588,3.588,0,0,0,.523,2.051,1.828,1.828,0,0,0,1.625.77A2.039,2.039,0,0,0,57.7-1.4a2.334,2.334,0,0,0,.766-.875V-6.219a2.37,2.37,0,0,0-.77-.832,2.033,2.033,0,0,0-1.137-.309,1.759,1.759,0,0,0-1.637.914A4.718,4.718,0,0,0,54.4-4.07Zm7.547-.4a4.654,4.654,0,0,1,1.016-3.09,3.406,3.406,0,0,1,2.758-1.215A3.439,3.439,0,0,1,68.5-7.4,4.639,4.639,0,0,1,69.516-4.3v.172A4.631,4.631,0,0,1,68.5-1.039a3.429,3.429,0,0,1-2.766,1.2,3.436,3.436,0,0,1-2.77-1.207,4.623,4.623,0,0,1-1.02-3.09Zm1.539.172a4.009,4.009,0,0,0,.566,2.219,1.875,1.875,0,0,0,1.684.875,1.87,1.87,0,0,0,1.672-.875,3.988,3.988,0,0,0,.57-2.219V-4.3A3.976,3.976,0,0,0,67.4-6.516,1.882,1.882,0,0,0,65.719-7.4a1.856,1.856,0,0,0-1.668.883A4.018,4.018,0,0,0,63.484-4.3ZM76.75-8.453,76.859-7.2a3.069,3.069,0,0,1,1.059-1.043,2.824,2.824,0,0,1,1.449-.371,2.759,2.759,0,0,1,2.117.8,3.515,3.515,0,0,1,.75,2.473V0H80.7V-5.3a2.287,2.287,0,0,0-.441-1.586,1.768,1.768,0,0,0-1.348-.469,2.386,2.386,0,0,0-1.207.285,2.072,2.072,0,0,0-.785.8V0H75.375V-8.453ZM84.109-4.3a4.654,4.654,0,0,1,1.016-3.09,3.406,3.406,0,0,1,2.758-1.215A3.439,3.439,0,0,1,90.66-7.4,4.639,4.639,0,0,1,91.68-4.3v.172a4.631,4.631,0,0,1-1.016,3.094A3.429,3.429,0,0,1,87.9.164a3.436,3.436,0,0,1-2.77-1.207,4.623,4.623,0,0,1-1.02-3.09Zm1.539.172a4.009,4.009,0,0,0,.566,2.219,1.875,1.875,0,0,0,1.684.875,1.87,1.87,0,0,0,1.672-.875,3.988,3.988,0,0,0,.57-2.219V-4.3a3.976,3.976,0,0,0-.574-2.211A1.882,1.882,0,0,0,87.883-7.4a1.856,1.856,0,0,0-1.668.883A4.018,4.018,0,0,0,85.648-4.3ZM95.7-10.492v2.039h1.6v1.141H95.7V-2.18a1.149,1.149,0,0,0,.246.836A.89.89,0,0,0,96.6-1.1a1.43,1.43,0,0,0,.3-.035,2.2,2.2,0,0,0,.273-.074l.211,1.055a1.36,1.36,0,0,1-.508.23,2.562,2.562,0,0,1-.664.09A1.993,1.993,0,0,1,94.719-.4a2.46,2.46,0,0,1-.555-1.777V-7.312H92.82V-8.453h1.344v-2.039Zm6.875,6.422a5.641,5.641,0,0,1,.871-3.289,2.807,2.807,0,0,1,2.441-1.25,3.027,3.027,0,0,1,1.316.273,2.7,2.7,0,0,1,.98.8v-4.648h1.539V0h-1.18l-.234-1.07a2.743,2.743,0,0,1-1.023.922,3.058,3.058,0,0,1-1.414.313,2.9,2.9,0,0,1-2.422-1.121,4.659,4.659,0,0,1-.875-2.949Zm1.539.164a3.588,3.588,0,0,0,.523,2.051,1.828,1.828,0,0,0,1.625.77,2.039,2.039,0,0,0,1.156-.312,2.334,2.334,0,0,0,.766-.875V-6.219a2.37,2.37,0,0,0-.77-.832,2.033,2.033,0,0,0-1.137-.309,1.759,1.759,0,0,0-1.637.914,4.718,4.718,0,0,0-.527,2.375ZM113.688,0h-1.539V-8.453h1.539Zm0-10.617h-1.539v-1.57h1.539Zm7.281,8.344a1.026,1.026,0,0,0-.387-.828,3.732,3.732,0,0,0-1.465-.562,6.146,6.146,0,0,1-2.293-.9,1.814,1.814,0,0,1-.8-1.547,2.229,2.229,0,0,1,.879-1.766,3.433,3.433,0,0,1,2.277-.734,3.4,3.4,0,0,1,2.328.781,2.239,2.239,0,0,1,.852,1.82l-.016.047h-1.469a1.331,1.331,0,0,0-.48-.992A1.717,1.717,0,0,0,119.18-7.4a1.751,1.751,0,0,0-1.215.367,1.146,1.146,0,0,0-.4.875.927.927,0,0,0,.348.773,3.848,3.848,0,0,0,1.434.5,6.058,6.058,0,0,1,2.359.93,1.872,1.872,0,0,1,.8,1.57,2.226,2.226,0,0,1-.91,1.836,3.754,3.754,0,0,1-2.379.711,3.715,3.715,0,0,1-2.547-.82,2.341,2.341,0,0,1-.883-1.914l.016-.047h1.469a1.424,1.424,0,0,0,.609,1.2,2.358,2.358,0,0,0,1.336.379,2.1,2.1,0,0,0,1.285-.348A1.063,1.063,0,0,0,120.969-2.273Zm5.594-8.219v2.039h1.6v1.141h-1.6V-2.18a1.149,1.149,0,0,0,.246.836.89.89,0,0,0,.652.242,1.43,1.43,0,0,0,.3-.035,2.2,2.2,0,0,0,.273-.074l.211,1.055a1.36,1.36,0,0,1-.508.23,2.562,2.562,0,0,1-.664.09A1.993,1.993,0,0,1,125.578-.4a2.46,2.46,0,0,1-.555-1.777V-7.312H123.68V-8.453h1.344v-2.039ZM135.18-1.25A2.863,2.863,0,0,1,134.156-.2a2.8,2.8,0,0,1-1.445.367,2.716,2.716,0,0,1-2.156-.883,4.1,4.1,0,0,1-.773-2.75V-8.453h1.539v5a3.147,3.147,0,0,0,.4,1.859,1.481,1.481,0,0,0,1.242.508,2.531,2.531,0,0,0,1.355-.332,2.077,2.077,0,0,0,.809-.941V-8.453h1.539V0h-1.383Zm7.727-5.844-.789-.047a1.762,1.762,0,0,0-1.027.289,1.855,1.855,0,0,0-.645.813V0h-1.539V-8.453h1.375l.148,1.234a2.934,2.934,0,0,1,.887-1.023,2.073,2.073,0,0,1,1.215-.367,1.9,1.9,0,0,1,.328.027,2.174,2.174,0,0,1,.258.059Zm8.82,3.188a4.645,4.645,0,0,1-.879,2.949A2.9,2.9,0,0,1,148.43.164a3.064,3.064,0,0,1-1.465-.332,2.719,2.719,0,0,1-1.027-.98L145.688,0h-1.18V-12.187h1.539v4.734a2.671,2.671,0,0,1,.988-.859,3.03,3.03,0,0,1,1.379-.3,2.809,2.809,0,0,1,2.438,1.25,5.622,5.622,0,0,1,.875,3.289Zm-1.539-.164a4.666,4.666,0,0,0-.535-2.371,1.762,1.762,0,0,0-1.629-.918,2.014,2.014,0,0,0-1.2.348,2.452,2.452,0,0,0-.777.934v3.664a2.517,2.517,0,0,0,.777.977,2,2,0,0,0,1.215.352,1.829,1.829,0,0,0,1.617-.773,3.552,3.552,0,0,0,.531-2.047ZM1.031,13.383A10.458,10.458,0,0,1,2.273,8.125,7.19,7.19,0,0,1,4.883,5.219l.047.008.3.906a6.665,6.665,0,0,0-1.863,2.68,11.54,11.54,0,0,0-.793,4.555v.1a11.591,11.591,0,0,0,.789,4.555,7.25,7.25,0,0,0,1.867,2.75l-.3.844H4.883a7.193,7.193,0,0,1-2.609-2.9,10.452,10.452,0,0,1-1.242-5.262Zm11.938-.414h-4.8V18H6.633V6.625h7.133V7.836H8.172v3.922h4.8ZM20.18,18q-.078-.383-.121-.676a4.96,4.96,0,0,1-.051-.59,3.589,3.589,0,0,1-1.121,1.02,2.867,2.867,0,0,1-1.488.41,2.763,2.763,0,0,1-2.012-.676,2.486,2.486,0,0,1-.691-1.863,2.183,2.183,0,0,1,.98-1.895,4.579,4.579,0,0,1,2.66-.684h1.672v-.836a1.551,1.551,0,0,0-.453-1.176,1.779,1.779,0,0,0-1.281-.434,1.859,1.859,0,0,0-1.211.375,1.125,1.125,0,0,0-.461.9l-1.461.016-.016-.047a2.023,2.023,0,0,1,.863-1.687,3.578,3.578,0,0,1,2.371-.766,3.49,3.49,0,0,1,2.313.73,2.588,2.588,0,0,1,.875,2.105V16.3a7.923,7.923,0,0,0,.047.875,4.5,4.5,0,0,0,.172.828Zm-2.555-1.125a2.739,2.739,0,0,0,1.508-.43,2.042,2.042,0,0,0,.875-.984V14.086H18.281a2.24,2.24,0,0,0-1.488.469,1.4,1.4,0,0,0-.559,1.1,1.159,1.159,0,0,0,.352.891A1.472,1.472,0,0,0,17.625,16.875Zm8.859-1.367.133.594h.047l.148-.594,1.945-5.961h1.57L27.219,18H26.055L22.906,9.547h1.578Zm4.75-1.812a4.654,4.654,0,0,1,1.016-3.09,3.764,3.764,0,0,1,5.535,0A4.639,4.639,0,0,1,38.8,13.7v.172a4.631,4.631,0,0,1-1.016,3.094,3.781,3.781,0,0,1-5.535,0,4.623,4.623,0,0,1-1.02-3.09Zm1.539.172a4.009,4.009,0,0,0,.566,2.219,2.046,2.046,0,0,0,3.355,0,3.988,3.988,0,0,0,.57-2.219V13.7a3.976,3.976,0,0,0-.574-2.211,1.882,1.882,0,0,0-1.684-.883,1.856,1.856,0,0,0-1.668.883,4.018,4.018,0,0,0-.566,2.211Zm11.914-2.961-.789-.047a1.762,1.762,0,0,0-1.027.289,1.855,1.855,0,0,0-.645.813V18H40.688V9.547h1.375l.148,1.234A2.934,2.934,0,0,1,43.1,9.758a2.073,2.073,0,0,1,1.215-.367,1.9,1.9,0,0,1,.328.027,2.175,2.175,0,0,1,.258.059Zm6.953-1.359L51.75,10.8a3.069,3.069,0,0,1,1.059-1.043,2.824,2.824,0,0,1,1.449-.371,2.759,2.759,0,0,1,2.117.8,3.515,3.515,0,0,1,.75,2.473V18H55.586V12.7a2.287,2.287,0,0,0-.441-1.586,1.768,1.768,0,0,0-1.348-.469,2.386,2.386,0,0,0-1.207.285,2.072,2.072,0,0,0-.785.8V18H50.266V9.547ZM59,13.7a4.654,4.654,0,0,1,1.016-3.09,3.764,3.764,0,0,1,5.535,0A4.639,4.639,0,0,1,66.57,13.7v.172a4.631,4.631,0,0,1-1.016,3.094,3.781,3.781,0,0,1-5.535,0A4.623,4.623,0,0,1,59,13.867Zm1.539.172a4.009,4.009,0,0,0,.566,2.219,2.046,2.046,0,0,0,3.355,0,3.988,3.988,0,0,0,.57-2.219V13.7a3.976,3.976,0,0,0-.574-2.211,1.882,1.882,0,0,0-1.684-.883,1.856,1.856,0,0,0-1.668.883,4.018,4.018,0,0,0-.566,2.211ZM73.8,9.547l.109,1.109a2.871,2.871,0,0,1,1.051-.934,3.158,3.158,0,0,1,1.48-.332,2.615,2.615,0,0,1,1.449.391,2.363,2.363,0,0,1,.91,1.172,3.162,3.162,0,0,1,1.059-1.145,2.769,2.769,0,0,1,1.527-.418,2.531,2.531,0,0,1,2.039.887,4.051,4.051,0,0,1,.75,2.668V18H82.641V12.93a2.81,2.81,0,0,0-.43-1.77,1.567,1.567,0,0,0-1.281-.52,1.631,1.631,0,0,0-1.277.547,2.381,2.381,0,0,0-.574,1.383V18H77.531V12.93a2.772,2.772,0,0,0-.441-1.738,1.532,1.532,0,0,0-1.27-.551,2.115,2.115,0,0,0-1.156.289,1.867,1.867,0,0,0-.7.813V18H72.43V9.547ZM86.055,13.7a4.654,4.654,0,0,1,1.016-3.09,3.764,3.764,0,0,1,5.535,0,4.639,4.639,0,0,1,1.02,3.094v.172a4.631,4.631,0,0,1-1.016,3.094,3.781,3.781,0,0,1-5.535,0,4.623,4.623,0,0,1-1.02-3.09Zm1.539.172a4.009,4.009,0,0,0,.566,2.219,2.046,2.046,0,0,0,3.355,0,3.988,3.988,0,0,0,.57-2.219V13.7a3.976,3.976,0,0,0-.574-2.211,1.882,1.882,0,0,0-1.684-.883,1.856,1.856,0,0,0-1.668.883,4.018,4.018,0,0,0-.566,2.211ZM97.172,18H95.633V5.813h1.539Zm5.867.164A3.576,3.576,0,0,1,100.2,17a4.48,4.48,0,0,1-1.02-3.062v-.344a4.386,4.386,0,0,1,1.051-3.012A3.3,3.3,0,0,1,102.8,9.391a3.067,3.067,0,0,1,2.543,1.055,4.345,4.345,0,0,1,.848,2.8v.813h-5.406l-.023.039a3.494,3.494,0,0,0,.563,2.066,1.965,1.965,0,0,0,1.719.793,3.872,3.872,0,0,0,1.371-.223,3.061,3.061,0,0,0,1.012-.613l.6,1a3.7,3.7,0,0,1-1.2.738A4.762,4.762,0,0,1,103.039,18.164ZM102.8,10.6a1.673,1.673,0,0,0-1.332.621,2.938,2.938,0,0,0-.645,1.59l.016.039h3.813v-.125A2.462,2.462,0,0,0,104.2,11.2,1.638,1.638,0,0,0,102.8,10.6Zm10.031,5.125a1.026,1.026,0,0,0-.387-.828,3.732,3.732,0,0,0-1.465-.562,6.146,6.146,0,0,1-2.293-.9,1.814,1.814,0,0,1-.8-1.547,2.229,2.229,0,0,1,.879-1.766,3.879,3.879,0,0,1,4.605.047,2.239,2.239,0,0,1,.852,1.82l-.016.047h-1.469a1.331,1.331,0,0,0-.48-.992,1.717,1.717,0,0,0-1.215-.445,1.751,1.751,0,0,0-1.215.367,1.146,1.146,0,0,0-.4.875.927.927,0,0,0,.348.773,3.848,3.848,0,0,0,1.434.5,6.058,6.058,0,0,1,2.359.93,1.872,1.872,0,0,1,.8,1.57,2.226,2.226,0,0,1-.91,1.836,3.754,3.754,0,0,1-2.379.711,3.715,3.715,0,0,1-2.547-.82,2.341,2.341,0,0,1-.883-1.914l.016-.047h1.469a1.424,1.424,0,0,0,.609,1.2,2.358,2.358,0,0,0,1.336.379,2.1,2.1,0,0,0,1.285-.348A1.063,1.063,0,0,0,112.828,15.727Zm5.594-8.219V9.547h1.6v1.141h-1.6V15.82a1.149,1.149,0,0,0,.246.836.89.89,0,0,0,.652.242,1.43,1.43,0,0,0,.3-.035,2.2,2.2,0,0,0,.273-.074l.211,1.055a1.36,1.36,0,0,1-.508.23,2.562,2.562,0,0,1-.664.09,1.993,1.993,0,0,1-1.492-.566,2.46,2.46,0,0,1-.555-1.777V10.688h-1.344V9.547h1.344V7.508ZM126.867,18q-.078-.383-.121-.676a4.96,4.96,0,0,1-.051-.59,3.589,3.589,0,0,1-1.121,1.02,2.867,2.867,0,0,1-1.488.41,2.763,2.763,0,0,1-2.012-.676,2.486,2.486,0,0,1-.691-1.863,2.183,2.183,0,0,1,.98-1.895,4.579,4.579,0,0,1,2.66-.684H126.7v-.836a1.551,1.551,0,0,0-.453-1.176,1.779,1.779,0,0,0-1.281-.434,1.859,1.859,0,0,0-1.211.375,1.125,1.125,0,0,0-.461.9l-1.461.016-.016-.047a2.023,2.023,0,0,1,.863-1.687,3.578,3.578,0,0,1,2.371-.766,3.49,3.49,0,0,1,2.313.73,2.588,2.588,0,0,1,.875,2.105V16.3a7.923,7.923,0,0,0,.047.875,4.5,4.5,0,0,0,.172.828Zm-2.555-1.125a2.739,2.739,0,0,0,1.508-.43,2.042,2.042,0,0,0,.875-.984V14.086h-1.727a2.24,2.24,0,0,0-1.488.469,1.4,1.4,0,0,0-.559,1.1,1.159,1.159,0,0,0,.352.891A1.472,1.472,0,0,0,124.313,16.875Zm10.156-5.969-.789-.047a1.762,1.762,0,0,0-1.027.289,1.855,1.855,0,0,0-.645.813V18h-1.539V9.547h1.375l.148,1.234a2.934,2.934,0,0,1,.887-1.023,2.073,2.073,0,0,1,1.215-.367,1.9,1.9,0,0,1,.328.027,2.174,2.174,0,0,1,.258.059Zm4.727,2.547a10.426,10.426,0,0,1-1.246,5.262,7.244,7.244,0,0,1-2.605,2.9H135.3l-.3-.844a6.653,6.653,0,0,0,1.855-2.7,11.749,11.749,0,0,0,.8-4.605v-.1a11.354,11.354,0,0,0-.824-4.559A7.532,7.532,0,0,0,135,6.063l.3-.844h.047a7.241,7.241,0,0,1,2.605,2.906,10.431,10.431,0,0,1,1.246,5.258Z" transform="translate(294 4965)" fill="#111e61"/>
    <path id="Trazado_33925" data-name="Trazado 33925" d="M10,0H318a10,10,0,0,1,10,10V74H0V10A10,10,0,0,1,10,0Z" transform="translate(181 4641)" fill="#ffc571"/>
    <path id="Trazado_33928" data-name="Trazado 33928" d="M0,0V272" transform="translate(273 4715)" fill="none" stroke="#111e61" stroke-linecap="round" stroke-width="2"/>
    <path id="Trazado_33926" data-name="Trazado 33926" d="M-102.29-4.795l.02.059a4.57,4.57,0,0,1-1.372,3.687,5.82,5.82,0,0,1-4,1.255,5.694,5.694,0,0,1-4.233-1.611,5.734,5.734,0,0,1-1.6-4.219V-8.594a5.861,5.861,0,0,1,1.538-4.214,5.354,5.354,0,0,1,4.067-1.616,6.268,6.268,0,0,1,4.185,1.26,4.441,4.441,0,0,1,1.44,3.662l-.029.059h-3.213a2.613,2.613,0,0,0-.557-1.875,2.484,2.484,0,0,0-1.826-.566,1.931,1.931,0,0,0-1.709.894,4.225,4.225,0,0,0-.6,2.378v2.988a3.977,3.977,0,0,0,.654,2.393,2.179,2.179,0,0,0,1.875.9,2.088,2.088,0,0,0,1.636-.566,2.84,2.84,0,0,0,.5-1.895Zm1.211-.586a5.585,5.585,0,0,1,1.348-3.882,4.8,4.8,0,0,1,3.76-1.5,4.808,4.808,0,0,1,3.77,1.5,5.585,5.585,0,0,1,1.348,3.882v.205A5.581,5.581,0,0,1-92.2-1.289,4.792,4.792,0,0,1-95.952.205a4.829,4.829,0,0,1-3.779-1.494,5.581,5.581,0,0,1-1.348-3.887Zm3.3.205a4.368,4.368,0,0,0,.415,2.085,1.477,1.477,0,0,0,1.411.757A1.459,1.459,0,0,0-94.565-3.1a4.331,4.331,0,0,0,.42-2.08v-.205a4.347,4.347,0,0,0-.42-2.065,1.471,1.471,0,0,0-1.406-.776,1.45,1.45,0,0,0-1.392.781,4.4,4.4,0,0,0-.415,2.061Zm11.416-5.391.127,1.484a3.825,3.825,0,0,1,1.279-1.235,3.31,3.31,0,0,1,1.7-.444A2.979,2.979,0,0,1-80.83-9.707a5.218,5.218,0,0,1,.874,3.35V0h-3.3V-6.367A2.421,2.421,0,0,0-83.579-7.8a1.1,1.1,0,0,0-.937-.425,2.32,2.32,0,0,0-.947.186,1.891,1.891,0,0,0-.7.527V0h-3.291V-10.566ZM-74.2-4.355l.2,1.123.059.01.215-1.133,1.4-6.211h3.467L-72.31,0h-3.35L-79.1-10.566h3.477ZM-63.315.205A4.906,4.906,0,0,1-67.08-1.25a5.174,5.174,0,0,1-1.362-3.682V-5.3a5.912,5.912,0,0,1,1.284-3.945,4.562,4.562,0,0,1,3.716-1.514,4.279,4.279,0,0,1,3.315,1.279A4.98,4.98,0,0,1-58.95-5.977v1.729H-65l-.02.059a2.052,2.052,0,0,0,.615,1.343,2.148,2.148,0,0,0,1.543.513,6.687,6.687,0,0,0,1.577-.156,9.942,9.942,0,0,0,1.44-.5l.791,2.012a6.04,6.04,0,0,1-1.836.84A8.473,8.473,0,0,1-63.315.205Zm-.127-8.428a1.362,1.362,0,0,0-1.167.5,2.523,2.523,0,0,0-.435,1.362l.02.049h2.852v-.254a2.2,2.2,0,0,0-.288-1.24A1.1,1.1,0,0,0-63.442-8.223Zm8.926-2.344.127,1.484a3.825,3.825,0,0,1,1.279-1.235,3.31,3.31,0,0,1,1.7-.444,2.979,2.979,0,0,1,2.427,1.055,5.218,5.218,0,0,1,.874,3.35V0h-3.3V-6.367A2.421,2.421,0,0,0-51.733-7.8a1.1,1.1,0,0,0-.937-.425,2.32,2.32,0,0,0-.947.186,1.891,1.891,0,0,0-.7.527V0h-3.291V-10.566Zm12.725,8.232A1.291,1.291,0,0,0-40.786-2.7a1.526,1.526,0,0,0,.332-1.06h3.008l.02.059a3.469,3.469,0,0,1-1.2,2.817A4.616,4.616,0,0,1-41.792.205a4.675,4.675,0,0,1-3.716-1.489,5.679,5.679,0,0,1-1.3-3.882v-.225a5.7,5.7,0,0,1,1.3-3.877,4.64,4.64,0,0,1,3.7-1.494,4.545,4.545,0,0,1,3.218,1.118,3.857,3.857,0,0,1,1.167,3.062l-.02.059h-3.008A2.045,2.045,0,0,0-40.8-7.749a1.172,1.172,0,0,0-1.016-.474,1.357,1.357,0,0,0-1.333.767,4.74,4.74,0,0,0-.376,2.065v.225a4.723,4.723,0,0,0,.376,2.08A1.378,1.378,0,0,0-41.792-2.334ZM-32.622,0h-3.311V-10.566h3.311Zm0-13.018h-3.311v-2.217h3.311Zm1.582,7.637a5.585,5.585,0,0,1,1.348-3.882,4.8,4.8,0,0,1,3.76-1.5,4.808,4.808,0,0,1,3.77,1.5,5.585,5.585,0,0,1,1.348,3.882v.205a5.581,5.581,0,0,1-1.348,3.887A4.792,4.792,0,0,1-25.913.205a4.829,4.829,0,0,1-3.779-1.494A5.581,5.581,0,0,1-31.04-5.176Zm3.3.205a4.368,4.368,0,0,0,.415,2.085,1.477,1.477,0,0,0,1.411.757A1.459,1.459,0,0,0-24.526-3.1a4.331,4.331,0,0,0,.42-2.08v-.205a4.347,4.347,0,0,0-.42-2.065,1.471,1.471,0,0,0-1.406-.776,1.45,1.45,0,0,0-1.392.781,4.4,4.4,0,0,0-.415,2.061Zm11.416-5.391.127,1.484a3.825,3.825,0,0,1,1.279-1.235,3.31,3.31,0,0,1,1.7-.444,2.979,2.979,0,0,1,2.427,1.055,5.218,5.218,0,0,1,.874,3.35V0h-3.3V-6.367A2.421,2.421,0,0,0-13.54-7.8a1.1,1.1,0,0,0-.937-.425,2.32,2.32,0,0,0-.947.186,1.891,1.891,0,0,0-.7.527V0h-3.291V-10.566ZM-3.433.205A4.906,4.906,0,0,1-7.2-1.25,5.174,5.174,0,0,1-8.56-4.932V-5.3A5.912,5.912,0,0,1-7.275-9.248,4.562,4.562,0,0,1-3.56-10.762,4.279,4.279,0,0,1-.244-9.482,4.98,4.98,0,0,1,.933-5.977v1.729H-5.122l-.02.059a2.052,2.052,0,0,0,.615,1.343,2.148,2.148,0,0,0,1.543.513A6.687,6.687,0,0,0-1.406-2.49a9.942,9.942,0,0,0,1.44-.5L.825-.977a6.04,6.04,0,0,1-1.836.84A8.473,8.473,0,0,1-3.433.205ZM-3.56-8.223a1.362,1.362,0,0,0-1.167.5,2.523,2.523,0,0,0-.435,1.362l.02.049H-2.29v-.254A2.2,2.2,0,0,0-2.578-7.8,1.1,1.1,0,0,0-3.56-8.223Zm11.4,5.254a.862.862,0,0,0-.444-.7,4.792,4.792,0,0,0-1.616-.552A6.38,6.38,0,0,1,2.993-5.337a2.533,2.533,0,0,1-.937-2.085A2.971,2.971,0,0,1,3.228-9.79,4.82,4.82,0,0,1,6.4-10.762a5.45,5.45,0,0,1,3.359.942,2.771,2.771,0,0,1,1.191,2.437l-.02.059h-3.2a1.309,1.309,0,0,0-.312-.947,1.383,1.383,0,0,0-1.025-.322,1.341,1.341,0,0,0-.869.283.888.888,0,0,0-.352.723.86.86,0,0,0,.405.713,4.584,4.584,0,0,0,1.636.527A6.571,6.571,0,0,1,10.083-5.21a2.609,2.609,0,0,1,.928,2.144A2.8,2.8,0,0,1,9.746-.718,5.547,5.547,0,0,1,6.4.205,5.016,5.016,0,0,1,2.988-.889a3.013,3.013,0,0,1-1.2-2.441l.02-.059H4.8A1.325,1.325,0,0,0,5.254-2.3a2,2,0,0,0,1.235.332A1.649,1.649,0,0,0,7.5-2.231.87.87,0,0,0,7.837-2.969ZM17.1-5.264a6.719,6.719,0,0,1,1.079-3.984,3.518,3.518,0,0,1,3.042-1.514,2.623,2.623,0,0,1,1.323.337,3.5,3.5,0,0,1,1.06.962v-5.771h3.3V0H24.019l-.225-1.289A3.553,3.553,0,0,1,22.676-.181a2.79,2.79,0,0,1-1.47.386A3.552,3.552,0,0,1,18.179-1.24,6.248,6.248,0,0,1,17.1-5.059Zm3.3.205a4.388,4.388,0,0,0,.376,2.007,1.314,1.314,0,0,0,1.265.718,2.081,2.081,0,0,0,.913-.19,1.636,1.636,0,0,0,.649-.562V-7.354A1.8,1.8,0,0,0,22.964-8a1.77,1.77,0,0,0-.9-.225,1.317,1.317,0,0,0-1.27.811,4.989,4.989,0,0,0-.391,2.148ZM33.472.205A4.906,4.906,0,0,1,29.707-1.25a5.174,5.174,0,0,1-1.362-3.682V-5.3a5.912,5.912,0,0,1,1.284-3.945,4.562,4.562,0,0,1,3.716-1.514A4.279,4.279,0,0,1,36.66-9.482a4.98,4.98,0,0,1,1.177,3.506v1.729H31.782l-.02.059a2.052,2.052,0,0,0,.615,1.343,2.148,2.148,0,0,0,1.543.513A6.687,6.687,0,0,0,35.5-2.49a9.942,9.942,0,0,0,1.44-.5l.791,2.012a6.04,6.04,0,0,1-1.836.84A8.473,8.473,0,0,1,33.472.205Zm-.127-8.428a1.362,1.362,0,0,0-1.167.5,2.523,2.523,0,0,0-.435,1.362l.02.049h2.852v-.254a2.2,2.2,0,0,0-.288-1.24A1.1,1.1,0,0,0,33.345-8.223ZM48.9.205A4.906,4.906,0,0,1,45.137-1.25a5.174,5.174,0,0,1-1.362-3.682V-5.3a5.912,5.912,0,0,1,1.284-3.945,4.562,4.562,0,0,1,3.716-1.514A4.279,4.279,0,0,1,52.09-9.482a4.98,4.98,0,0,1,1.177,3.506v1.729H47.212l-.02.059a2.052,2.052,0,0,0,.615,1.343,2.148,2.148,0,0,0,1.543.513,6.687,6.687,0,0,0,1.577-.156,9.942,9.942,0,0,0,1.44-.5l.791,2.012a6.04,6.04,0,0,1-1.836.84A8.473,8.473,0,0,1,48.9.205Zm-.127-8.428a1.362,1.362,0,0,0-1.167.5,2.523,2.523,0,0,0-.435,1.362l.02.049h2.852v-.254a2.2,2.2,0,0,0-.288-1.24A1.1,1.1,0,0,0,48.774-8.223Zm11.4,5.254a.862.862,0,0,0-.444-.7,4.792,4.792,0,0,0-1.616-.552,6.38,6.38,0,0,1-2.783-1.118,2.533,2.533,0,0,1-.937-2.085A2.971,2.971,0,0,1,55.562-9.79a4.82,4.82,0,0,1,3.174-.972,5.45,5.45,0,0,1,3.359.942,2.771,2.771,0,0,1,1.191,2.437l-.02.059h-3.2a1.309,1.309,0,0,0-.312-.947,1.383,1.383,0,0,0-1.025-.322,1.341,1.341,0,0,0-.869.283.888.888,0,0,0-.352.723.86.86,0,0,0,.405.713,4.584,4.584,0,0,0,1.636.527A6.571,6.571,0,0,1,62.417-5.21a2.609,2.609,0,0,1,.928,2.144A2.8,2.8,0,0,1,62.08-.718a5.547,5.547,0,0,1-3.345.923A5.016,5.016,0,0,1,55.322-.889a3.013,3.013,0,0,1-1.2-2.441l.02-.059h2.988A1.325,1.325,0,0,0,57.588-2.3a2,2,0,0,0,1.235.332,1.649,1.649,0,0,0,1.006-.259A.87.87,0,0,0,60.171-2.969Zm8.516-10.225v2.627h1.67v2.285h-1.67v4.844a1.185,1.185,0,0,0,.229.815.8.8,0,0,0,.62.249,3.318,3.318,0,0,0,.405-.02,3.509,3.509,0,0,0,.386-.078l.225,2.441a7.968,7.968,0,0,1-.9.181,7.236,7.236,0,0,1-.947.054A3.3,3.3,0,0,1,66.23-.664a3.836,3.836,0,0,1-.845-2.754V-8.281H63.911v-2.285h1.475v-2.627ZM78.062-.01a3.987,3.987,0,0,1-.317-.752,5.765,5.765,0,0,1-.2-.879A4.038,4.038,0,0,1,76.484-.3a2.558,2.558,0,0,1-1.646.5,3.659,3.659,0,0,1-2.583-.854,3.019,3.019,0,0,1-.923-2.329,2.817,2.817,0,0,1,1.182-2.427A6.126,6.126,0,0,1,76.1-6.26h1.357v-.752a1.505,1.505,0,0,0-.322-1.035,1.255,1.255,0,0,0-.986-.361,1.19,1.19,0,0,0-.854.269,1.114,1.114,0,0,0-.278.835l-3.2-.01-.02-.059A2.756,2.756,0,0,1,73-9.79a5.4,5.4,0,0,1,3.364-.972,4.921,4.921,0,0,1,3.179.977,3.375,3.375,0,0,1,1.216,2.793v3.984A8.129,8.129,0,0,0,80.9-1.445,8.367,8.367,0,0,0,81.323,0ZM75.737-2.148a2.011,2.011,0,0,0,1.069-.283,1.621,1.621,0,0,0,.649-.674V-4.5H76.128a1.492,1.492,0,0,0-1.143.381,1.37,1.37,0,0,0-.352.967.935.935,0,0,0,.308.728A1.141,1.141,0,0,0,75.737-2.148Zm6.387-3.115A6.719,6.719,0,0,1,83.2-9.248a3.518,3.518,0,0,1,3.042-1.514,2.623,2.623,0,0,1,1.323.337,3.5,3.5,0,0,1,1.06.962v-5.771h3.3V0H89.038l-.225-1.289A3.553,3.553,0,0,1,87.7-.181a2.79,2.79,0,0,1-1.47.386A3.552,3.552,0,0,1,83.2-1.24a6.248,6.248,0,0,1-1.074-3.818Zm3.3.205A4.388,4.388,0,0,0,85.8-3.052a1.314,1.314,0,0,0,1.265.718,2.081,2.081,0,0,0,.913-.19,1.636,1.636,0,0,0,.649-.562V-7.354A1.8,1.8,0,0,0,87.983-8a1.77,1.77,0,0,0-.9-.225,1.317,1.317,0,0,0-1.27.811,4.989,4.989,0,0,0-.391,2.148Zm7.939-.322a5.585,5.585,0,0,1,1.348-3.882,4.8,4.8,0,0,1,3.76-1.5,4.808,4.808,0,0,1,3.77,1.5,5.585,5.585,0,0,1,1.348,3.882v.205a5.581,5.581,0,0,1-1.348,3.887A4.792,4.792,0,0,1,98.491.205a4.829,4.829,0,0,1-3.779-1.494,5.581,5.581,0,0,1-1.348-3.887Zm3.3.205a4.368,4.368,0,0,0,.415,2.085,1.477,1.477,0,0,0,1.411.757A1.459,1.459,0,0,0,99.878-3.1a4.331,4.331,0,0,0,.42-2.08v-.205a4.347,4.347,0,0,0-.42-2.065,1.471,1.471,0,0,0-1.406-.776,1.45,1.45,0,0,0-1.392.781,4.4,4.4,0,0,0-.415,2.061Zm13.887,2.207a.862.862,0,0,0-.444-.7,4.792,4.792,0,0,0-1.616-.552,6.38,6.38,0,0,1-2.783-1.118,2.533,2.533,0,0,1-.937-2.085,2.971,2.971,0,0,1,1.172-2.368,4.82,4.82,0,0,1,3.174-.972,5.45,5.45,0,0,1,3.359.942,2.771,2.771,0,0,1,1.191,2.437l-.02.059h-3.2a1.309,1.309,0,0,0-.312-.947,1.383,1.383,0,0,0-1.025-.322,1.341,1.341,0,0,0-.869.283.888.888,0,0,0-.352.723.86.86,0,0,0,.405.713,4.584,4.584,0,0,0,1.636.527A6.571,6.571,0,0,1,112.8-5.21a2.609,2.609,0,0,1,.928,2.144,2.8,2.8,0,0,1-1.265,2.349,5.547,5.547,0,0,1-3.345.923A5.016,5.016,0,0,1,105.7-.889a3.013,3.013,0,0,1-1.2-2.441l.02-.059h2.988a1.325,1.325,0,0,0,.454,1.084,2,2,0,0,0,1.235.332,1.649,1.649,0,0,0,1.006-.259A.87.87,0,0,0,110.552-2.969ZM-109.771,21.736a6.719,6.719,0,0,1,1.079-3.984,3.518,3.518,0,0,1,3.042-1.514,2.623,2.623,0,0,1,1.323.337,3.5,3.5,0,0,1,1.06.962V11.766h3.3V27h-2.891l-.225-1.289a3.553,3.553,0,0,1-1.118,1.108,2.79,2.79,0,0,1-1.47.386A3.552,3.552,0,0,1-108.7,25.76a6.248,6.248,0,0,1-1.074-3.818Zm3.3.205a4.388,4.388,0,0,0,.376,2.007,1.314,1.314,0,0,0,1.265.718,2.081,2.081,0,0,0,.913-.19,1.636,1.636,0,0,0,.649-.562V19.646a1.8,1.8,0,0,0-.645-.645,1.77,1.77,0,0,0-.9-.225,1.317,1.317,0,0,0-1.27.811,4.989,4.989,0,0,0-.391,2.148ZM-93.4,27.205a4.906,4.906,0,0,1-3.765-1.455,5.174,5.174,0,0,1-1.362-3.682V21.7a5.912,5.912,0,0,1,1.284-3.945,4.562,4.562,0,0,1,3.716-1.514,4.279,4.279,0,0,1,3.315,1.279,4.98,4.98,0,0,1,1.177,3.506v1.729h-6.055l-.02.059a2.052,2.052,0,0,0,.615,1.343,2.148,2.148,0,0,0,1.543.513,6.687,6.687,0,0,0,1.577-.156,9.942,9.942,0,0,0,1.44-.5l.791,2.012a6.04,6.04,0,0,1-1.836.84A8.473,8.473,0,0,1-93.4,27.205Zm-.127-8.428a1.362,1.362,0,0,0-1.167.5,2.523,2.523,0,0,0-.435,1.362l.02.049h2.852v-.254a2.2,2.2,0,0,0-.288-1.24A1.1,1.1,0,0,0-93.53,18.777Zm14.072-1.035a3.5,3.5,0,0,1,1.167-1.108,2.994,2.994,0,0,1,1.519-.4,3.154,3.154,0,0,1,2.578,1.143,5.534,5.534,0,0,1,.938,3.545V27h-3.3V20.906a3.169,3.169,0,0,0-.312-1.67,1.068,1.068,0,0,0-.947-.459,2.638,2.638,0,0,0-.967.161,1.749,1.749,0,0,0-.674.454V27h-3.3V11.766h3.3Zm14.141,9.248a3.987,3.987,0,0,1-.317-.752,5.765,5.765,0,0,1-.2-.879,4.038,4.038,0,0,1-1.06,1.343,2.558,2.558,0,0,1-1.646.5,3.659,3.659,0,0,1-2.583-.854,3.019,3.019,0,0,1-.923-2.329,2.817,2.817,0,0,1,1.182-2.427,6.126,6.126,0,0,1,3.584-.854h1.357v-.752a1.505,1.505,0,0,0-.322-1.035,1.255,1.255,0,0,0-.986-.361,1.19,1.19,0,0,0-.854.269,1.114,1.114,0,0,0-.278.835l-3.2-.01-.02-.059a2.756,2.756,0,0,1,1.206-2.417,5.4,5.4,0,0,1,3.364-.972,4.921,4.921,0,0,1,3.179.977,3.375,3.375,0,0,1,1.216,2.793v3.984a8.128,8.128,0,0,0,.142,1.563A8.368,8.368,0,0,0-62.056,27Zm-2.324-2.139a2.011,2.011,0,0,0,1.069-.283,1.621,1.621,0,0,0,.649-.674V22.5h-1.328a1.492,1.492,0,0,0-1.143.381,1.37,1.37,0,0,0-.352.967.935.935,0,0,0,.308.728A1.141,1.141,0,0,0-67.642,24.852Zm16.611-2.91a6.4,6.4,0,0,1-1.035,3.838,3.546,3.546,0,0,1-3.066,1.426,2.961,2.961,0,0,1-1.5-.371,3.271,3.271,0,0,1-1.1-1.074l-.2,1.24h-2.881V11.766h3.3v5.693a3.183,3.183,0,0,1,1.021-.9,2.757,2.757,0,0,1,1.343-.317,3.51,3.51,0,0,1,3.081,1.494,6.889,6.889,0,0,1,1.04,4Zm-3.291-.205a5.432,5.432,0,0,0-.352-2.183,1.306,1.306,0,0,0-1.309-.776,1.98,1.98,0,0,0-.923.2,1.5,1.5,0,0,0-.61.581V24a1.439,1.439,0,0,0,.62.5,2.354,2.354,0,0,0,.933.166,1.313,1.313,0,0,0,1.309-.679,4.849,4.849,0,0,0,.332-2.046Zm8.2,5.264h-3.311V16.434h3.311Zm0-13.018h-3.311V11.766h3.311Zm5.811-.176v2.627h1.67v2.285h-1.67v4.844a1.185,1.185,0,0,0,.229.815.8.8,0,0,0,.62.249,3.318,3.318,0,0,0,.405-.02,3.509,3.509,0,0,0,.386-.078l.225,2.441a7.968,7.968,0,0,1-.9.181,7.236,7.236,0,0,1-.947.054,3.3,3.3,0,0,1-2.476-.869,3.836,3.836,0,0,1-.845-2.754V18.719h-1.475V16.434h1.475V13.807Zm9.375,13.184a3.986,3.986,0,0,1-.317-.752,5.765,5.765,0,0,1-.2-.879A4.038,4.038,0,0,1-32.51,26.7a2.558,2.558,0,0,1-1.646.5,3.659,3.659,0,0,1-2.583-.854,3.019,3.019,0,0,1-.923-2.329,2.817,2.817,0,0,1,1.182-2.427A6.126,6.126,0,0,1-32.9,20.74h1.357v-.752a1.505,1.505,0,0,0-.322-1.035,1.255,1.255,0,0,0-.986-.361,1.19,1.19,0,0,0-.854.269,1.114,1.114,0,0,0-.278.835l-3.2-.01-.02-.059A2.756,2.756,0,0,1-36,17.21a5.4,5.4,0,0,1,3.364-.972,4.921,4.921,0,0,1,3.179.977,3.375,3.375,0,0,1,1.216,2.793v3.984a8.128,8.128,0,0,0,.142,1.563A8.368,8.368,0,0,0-27.671,27Zm-2.324-2.139a2.011,2.011,0,0,0,1.069-.283,1.621,1.621,0,0,0,.649-.674V22.5h-1.328a1.492,1.492,0,0,0-1.143.381,1.37,1.37,0,0,0-.352.967.935.935,0,0,0,.308.728A1.141,1.141,0,0,0-33.257,24.852Zm11.348-.186A1.291,1.291,0,0,0-20.9,24.3a1.526,1.526,0,0,0,.332-1.06h3.008l.02.059a3.469,3.469,0,0,1-1.2,2.817,4.616,4.616,0,0,1-3.169,1.089,4.675,4.675,0,0,1-3.716-1.489,5.679,5.679,0,0,1-1.3-3.882v-.225a5.7,5.7,0,0,1,1.3-3.877,4.64,4.64,0,0,1,3.7-1.494,4.545,4.545,0,0,1,3.218,1.118,3.857,3.857,0,0,1,1.167,3.062l-.02.059h-3.008a2.045,2.045,0,0,0-.342-1.226,1.172,1.172,0,0,0-1.016-.474,1.357,1.357,0,0,0-1.333.767,4.741,4.741,0,0,0-.376,2.065v.225a4.723,4.723,0,0,0,.376,2.08A1.378,1.378,0,0,0-21.909,24.666ZM-12.739,27H-16.05V16.434h3.311Zm0-13.018H-16.05V11.766h3.311Zm1.582,7.637A5.585,5.585,0,0,1-9.81,17.737a4.8,4.8,0,0,1,3.76-1.5,4.808,4.808,0,0,1,3.77,1.5A5.585,5.585,0,0,1-.933,21.619v.205A5.581,5.581,0,0,1-2.28,25.711a4.792,4.792,0,0,1-3.75,1.494A4.829,4.829,0,0,1-9.81,25.711a5.581,5.581,0,0,1-1.348-3.887Zm3.3.205a4.368,4.368,0,0,0,.415,2.085,1.477,1.477,0,0,0,1.411.757A1.459,1.459,0,0,0-4.644,23.9a4.331,4.331,0,0,0,.42-2.08v-.205a4.347,4.347,0,0,0-.42-2.065,1.471,1.471,0,0,0-1.406-.776,1.45,1.45,0,0,0-1.392.781,4.4,4.4,0,0,0-.415,2.061ZM3.56,16.434l.127,1.484a3.825,3.825,0,0,1,1.279-1.235,3.31,3.31,0,0,1,1.7-.444,2.979,2.979,0,0,1,2.427,1.055,5.218,5.218,0,0,1,.874,3.35V27h-3.3V20.633A2.421,2.421,0,0,0,6.343,19.2a1.1,1.1,0,0,0-.937-.425,2.32,2.32,0,0,0-.947.186,1.891,1.891,0,0,0-.7.527V27H.464V16.434ZM16.45,27.205a4.906,4.906,0,0,1-3.765-1.455,5.174,5.174,0,0,1-1.362-3.682V21.7a5.912,5.912,0,0,1,1.284-3.945,4.562,4.562,0,0,1,3.716-1.514,4.279,4.279,0,0,1,3.315,1.279,4.98,4.98,0,0,1,1.177,3.506v1.729H14.761l-.02.059a2.052,2.052,0,0,0,.615,1.343,2.148,2.148,0,0,0,1.543.513,6.687,6.687,0,0,0,1.577-.156,9.942,9.942,0,0,0,1.44-.5l.791,2.012a6.04,6.04,0,0,1-1.836.84A8.473,8.473,0,0,1,16.45,27.205Zm-.127-8.428a1.362,1.362,0,0,0-1.167.5,2.523,2.523,0,0,0-.435,1.362l.02.049h2.852v-.254A2.2,2.2,0,0,0,17.3,19.2,1.1,1.1,0,0,0,16.323,18.777Zm11.4,5.254a.862.862,0,0,0-.444-.7,4.792,4.792,0,0,0-1.616-.552,6.38,6.38,0,0,1-2.783-1.118,2.533,2.533,0,0,1-.937-2.085A2.971,2.971,0,0,1,23.11,17.21a4.82,4.82,0,0,1,3.174-.972,5.45,5.45,0,0,1,3.359.942,2.771,2.771,0,0,1,1.191,2.437l-.02.059h-3.2a1.309,1.309,0,0,0-.312-.947,1.383,1.383,0,0,0-1.025-.322,1.341,1.341,0,0,0-.869.283.888.888,0,0,0-.352.723.86.86,0,0,0,.405.713,4.584,4.584,0,0,0,1.636.527,6.571,6.571,0,0,1,2.871,1.138,2.609,2.609,0,0,1,.928,2.144,2.8,2.8,0,0,1-1.265,2.349,5.547,5.547,0,0,1-3.345.923,5.016,5.016,0,0,1-3.413-1.094,3.013,3.013,0,0,1-1.2-2.441l.02-.059h2.988a1.325,1.325,0,0,0,.454,1.084,2,2,0,0,0,1.235.332,1.649,1.649,0,0,0,1.006-.259A.87.87,0,0,0,27.72,24.031Zm9.941-2.812a13.254,13.254,0,0,1,1.445-6.44,6.946,6.946,0,0,1,3.4-3.394h.059l.6,1.553A6.555,6.555,0,0,0,41.1,15.906a14.589,14.589,0,0,0-.811,5.293v.313a14.581,14.581,0,0,0,.811,5.3,6.556,6.556,0,0,0,2.061,2.964l-.6,1.553H42.5a6.948,6.948,0,0,1-3.4-3.389,13.248,13.248,0,0,1-1.445-6.445ZM53.2,27H49.907V12.781H53.2Zm5.313-10.566.127,1.484a3.825,3.825,0,0,1,1.279-1.235,3.31,3.31,0,0,1,1.7-.444,2.979,2.979,0,0,1,2.427,1.055,5.218,5.218,0,0,1,.874,3.35V27h-3.3V20.633a2.421,2.421,0,0,0-.322-1.431,1.1,1.1,0,0,0-.937-.425,2.32,2.32,0,0,0-.947.186,1.891,1.891,0,0,0-.7.527V27H55.415V16.434Zm7.754,5.3a6.719,6.719,0,0,1,1.079-3.984,3.518,3.518,0,0,1,3.042-1.514,2.712,2.712,0,0,1,1.465.4,3.492,3.492,0,0,1,1.094,1.118l.215-1.318h2.91V26.883a3.913,3.913,0,0,1-1.431,3.237,6.133,6.133,0,0,1-3.94,1.147,7.086,7.086,0,0,1-1.719-.225,9.6,9.6,0,0,1-1.719-.605L67.827,28a7.845,7.845,0,0,0,1.362.464,6.6,6.6,0,0,0,1.489.151,2.443,2.443,0,0,0,1.567-.42,1.618,1.618,0,0,0,.513-1.328v-.82a2.865,2.865,0,0,1-2.393,1.162,3.552,3.552,0,0,1-3.027-1.445,6.248,6.248,0,0,1-1.074-3.818Zm3.291.205a4.388,4.388,0,0,0,.376,2.007,1.322,1.322,0,0,0,1.274.718,2.326,2.326,0,0,0,.923-.166,1.506,1.506,0,0,0,.63-.5V19.559a1.643,1.643,0,0,0-.625-.581,1.928,1.928,0,0,0-.908-.2,1.326,1.326,0,0,0-1.274.815,4.942,4.942,0,0,0-.4,2.144ZM81.411,27H78.1V11.766h3.311Zm6.709.205a4.906,4.906,0,0,1-3.765-1.455,5.174,5.174,0,0,1-1.362-3.682V21.7a5.912,5.912,0,0,1,1.284-3.945,4.562,4.562,0,0,1,3.716-1.514,4.279,4.279,0,0,1,3.315,1.279,4.98,4.98,0,0,1,1.177,3.506v1.729H86.431l-.02.059a2.052,2.052,0,0,0,.615,1.343,2.148,2.148,0,0,0,1.543.513,6.687,6.687,0,0,0,1.577-.156,9.942,9.942,0,0,0,1.44-.5l.791,2.012a6.04,6.04,0,0,1-1.836.84A8.473,8.473,0,0,1,88.12,27.205Zm-.127-8.428a1.362,1.362,0,0,0-1.167.5,2.523,2.523,0,0,0-.435,1.362l.02.049h2.852v-.254a2.2,2.2,0,0,0-.288-1.24A1.1,1.1,0,0,0,87.993,18.777Zm11.4,5.254a.862.862,0,0,0-.444-.7,4.792,4.792,0,0,0-1.616-.552,6.38,6.38,0,0,1-2.783-1.118,2.533,2.533,0,0,1-.937-2.085A2.971,2.971,0,0,1,94.78,17.21a4.82,4.82,0,0,1,3.174-.972,5.45,5.45,0,0,1,3.359.942,2.771,2.771,0,0,1,1.191,2.437l-.02.059h-3.2a1.309,1.309,0,0,0-.312-.947,1.383,1.383,0,0,0-1.025-.322,1.341,1.341,0,0,0-.869.283.888.888,0,0,0-.352.723.86.86,0,0,0,.405.713,4.584,4.584,0,0,0,1.636.527,6.571,6.571,0,0,1,2.871,1.138,2.609,2.609,0,0,1,.928,2.144,2.8,2.8,0,0,1-1.265,2.349,5.547,5.547,0,0,1-3.345.923,5.016,5.016,0,0,1-3.413-1.094,3.013,3.013,0,0,1-1.2-2.441l.02-.059h2.988a1.325,1.325,0,0,0,.454,1.084,2,2,0,0,0,1.235.332,1.649,1.649,0,0,0,1.006-.259A.87.87,0,0,0,99.39,24.031Zm9.941-2.539a12.761,12.761,0,0,1-1.533,6.372,7.175,7.175,0,0,1-3.535,3.462H104.2l-.6-1.553a6.772,6.772,0,0,0,2.051-2.974,14.391,14.391,0,0,0,.82-5.288V21.2a14.431,14.431,0,0,0-.82-5.293,6.7,6.7,0,0,0-2.051-2.969l.6-1.553h.059a7.174,7.174,0,0,1,3.535,3.467,12.768,12.768,0,0,1,1.533,6.367Z" transform="translate(352 4670)" fill="#111e61"/>
  </g>
</svg>
