<svg xmlns="http://www.w3.org/2000/svg" width="448.57" height="109" viewBox="0 0 448.57 109">
  <g id="Grupo_31681" data-name="Grupo 31681" transform="translate(-362.5 -2430)">
    <path id="Trazado_33919" data-name="Trazado 33919" d="M15,0H57a15,15,0,0,1,0,30H15A15,15,0,0,1,15,0Z" transform="translate(415 2430)" fill="#ffe2b8"/>
    <path id="Trazado_33920" data-name="Trazado 33920" d="M15,0H57a15,15,0,0,1,0,30H15A15,15,0,0,1,15,0Z" transform="translate(415 2470)" fill="#ffe2b8"/>
    <path id="Trazado_33921" data-name="Trazado 33921" d="M15,0H57a15,15,0,0,1,0,30H15A15,15,0,0,1,15,0Z" transform="translate(415 2509)" fill="#ffe2b8"/>
    <path id="Trazado_33922" data-name="Trazado 33922" d="M6.969-2.133h.047l3.633-9.242h1.914V0H11.023V-8.523l-.047-.008L7.531,0H6.461L2.914-8.812,2.867-8.8V0H1.328V-11.375H3.352ZM23.344-3.641l.016.047a3.417,3.417,0,0,1-1.125,2.68A4.3,4.3,0,0,1,19.18.164,4.012,4.012,0,0,1,16.035-1.2,5.028,5.028,0,0,1,14.82-4.672V-6.7a5.043,5.043,0,0,1,1.215-3.473,4.006,4.006,0,0,1,3.145-1.371,4.416,4.416,0,0,1,3.07,1.027,3.4,3.4,0,0,1,1.109,2.723l-.016.047H21.867a2.539,2.539,0,0,0-.7-1.891,2.7,2.7,0,0,0-1.984-.7,2.424,2.424,0,0,0-2.055,1.039,4.227,4.227,0,0,0-.766,2.578v2.039a4.254,4.254,0,0,0,.766,2.594A2.424,2.424,0,0,0,19.18-1.039a2.71,2.71,0,0,0,1.984-.691,2.557,2.557,0,0,0,.7-1.91Zm10.7-1.031a4.853,4.853,0,0,1-1.293,3.461A4.4,4.4,0,0,1,29.4.164,4.167,4.167,0,0,1,26.16-1.211a4.959,4.959,0,0,1-1.246-3.461V-6.7a4.977,4.977,0,0,1,1.246-3.461A4.156,4.156,0,0,1,29.4-11.539a4.39,4.39,0,0,1,3.355,1.379A4.867,4.867,0,0,1,34.047-6.7ZM32.508-6.711a3.837,3.837,0,0,0-.844-2.562,2.813,2.813,0,0,0-2.266-1,2.606,2.606,0,0,0-2.145,1,3.972,3.972,0,0,0-.8,2.563v2.039a4,4,0,0,0,.8,2.578,2.606,2.606,0,0,0,2.145,1,2.815,2.815,0,0,0,2.27-1,3.869,3.869,0,0,0,.84-2.582Z" transform="translate(434 2451)" fill="#111e61"/>
    <path id="Trazado_33913" data-name="Trazado 33913" d="M10.016-4.672A4.853,4.853,0,0,1,8.723-1.211,4.4,4.4,0,0,1,5.367.164,4.167,4.167,0,0,1,2.129-1.211,4.959,4.959,0,0,1,.883-4.672V-6.7a4.977,4.977,0,0,1,1.246-3.461,4.156,4.156,0,0,1,3.238-1.383A4.39,4.39,0,0,1,8.723-10.16,4.867,4.867,0,0,1,10.016-6.7ZM8.477-6.711a3.837,3.837,0,0,0-.844-2.562,2.813,2.813,0,0,0-2.266-1,2.606,2.606,0,0,0-2.145,1,3.972,3.972,0,0,0-.8,2.563v2.039a4,4,0,0,0,.8,2.578,2.606,2.606,0,0,0,2.145,1,2.815,2.815,0,0,0,2.27-1,3.869,3.869,0,0,0,.84-2.582Zm7.547-.383-.789-.047a1.762,1.762,0,0,0-1.027.289,1.855,1.855,0,0,0-.645.813V0H12.023V-8.453H13.4l.148,1.234a2.934,2.934,0,0,1,.887-1.023,2.073,2.073,0,0,1,1.215-.367,1.9,1.9,0,0,1,.328.027,2.175,2.175,0,0,1,.258.059Zm1.1,3.023A5.641,5.641,0,0,1,18-7.359a2.807,2.807,0,0,1,2.441-1.25,3.027,3.027,0,0,1,1.316.273,2.7,2.7,0,0,1,.98.8v-4.648h1.539V0h-1.18l-.234-1.07a2.743,2.743,0,0,1-1.023.922,3.058,3.058,0,0,1-1.414.313A2.9,2.9,0,0,1,18-.957a4.659,4.659,0,0,1-.875-2.949Zm1.539.164a3.588,3.588,0,0,0,.523,2.051,1.828,1.828,0,0,0,1.625.77A2.039,2.039,0,0,0,21.969-1.4a2.334,2.334,0,0,0,.766-.875V-6.219a2.37,2.37,0,0,0-.77-.832,2.033,2.033,0,0,0-1.137-.309,1.759,1.759,0,0,0-1.637.914,4.718,4.718,0,0,0-.527,2.375ZM30.07.164A3.576,3.576,0,0,1,27.23-1a4.48,4.48,0,0,1-1.02-3.062v-.344a4.386,4.386,0,0,1,1.051-3.012,3.3,3.3,0,0,1,2.566-1.191,3.067,3.067,0,0,1,2.543,1.055,4.345,4.345,0,0,1,.848,2.8v.813H27.813l-.023.039a3.494,3.494,0,0,0,.563,2.066,1.965,1.965,0,0,0,1.719.793,3.872,3.872,0,0,0,1.371-.223,3.061,3.061,0,0,0,1.012-.613l.6,1a3.7,3.7,0,0,1-1.2.738A4.762,4.762,0,0,1,30.07.164ZM29.828-7.4a1.673,1.673,0,0,0-1.332.621,2.938,2.938,0,0,0-.645,1.59l.016.039H31.68v-.125A2.462,2.462,0,0,0,31.227-6.8,1.638,1.638,0,0,0,29.828-7.4ZM36.32-8.453,36.43-7.2a3.069,3.069,0,0,1,1.059-1.043,2.824,2.824,0,0,1,1.449-.371,2.759,2.759,0,0,1,2.117.8,3.515,3.515,0,0,1,.75,2.473V0H40.266V-5.3a2.287,2.287,0,0,0-.441-1.586,1.768,1.768,0,0,0-1.348-.469,2.386,2.386,0,0,0-1.207.285,2.072,2.072,0,0,0-.785.8V0H34.945V-8.453ZM47.664-4.07a5.641,5.641,0,0,1,.871-3.289,2.807,2.807,0,0,1,2.441-1.25,3.027,3.027,0,0,1,1.316.273,2.7,2.7,0,0,1,.98.8v-4.648h1.539V0h-1.18L53.4-1.07a2.743,2.743,0,0,1-1.023.922,3.058,3.058,0,0,1-1.414.313A2.9,2.9,0,0,1,48.539-.957a4.659,4.659,0,0,1-.875-2.949Zm1.539.164a3.588,3.588,0,0,0,.523,2.051,1.828,1.828,0,0,0,1.625.77A2.039,2.039,0,0,0,52.508-1.4a2.334,2.334,0,0,0,.766-.875V-6.219a2.37,2.37,0,0,0-.77-.832,2.033,2.033,0,0,0-1.137-.309,1.759,1.759,0,0,0-1.637.914A4.718,4.718,0,0,0,49.2-4.07ZM60.609.164A3.576,3.576,0,0,1,57.77-1a4.48,4.48,0,0,1-1.02-3.062v-.344A4.386,4.386,0,0,1,57.8-7.418a3.3,3.3,0,0,1,2.566-1.191A3.067,3.067,0,0,1,62.91-7.555a4.345,4.345,0,0,1,.848,2.8v.813H58.352l-.023.039a3.494,3.494,0,0,0,.563,2.066,1.965,1.965,0,0,0,1.719.793,3.872,3.872,0,0,0,1.371-.223,3.061,3.061,0,0,0,1.012-.613l.6,1a3.7,3.7,0,0,1-1.2.738A4.762,4.762,0,0,1,60.609.164ZM60.367-7.4a1.673,1.673,0,0,0-1.332.621,2.938,2.938,0,0,0-.645,1.59l.016.039h3.813v-.125A2.462,2.462,0,0,0,61.766-6.8,1.638,1.638,0,0,0,60.367-7.4ZM72.82-1.039a1.81,1.81,0,0,0,1.242-.473,1.494,1.494,0,0,0,.531-1.16h1.391l.023.047A2.428,2.428,0,0,1,75.07-.684a3.313,3.313,0,0,1-2.25.848,3.319,3.319,0,0,1-2.75-1.211A4.674,4.674,0,0,1,69.1-4.062v-.328a4.654,4.654,0,0,1,.973-3A3.317,3.317,0,0,1,72.82-8.609a3.189,3.189,0,0,1,2.316.875,2.775,2.775,0,0,1,.871,2.148l-.016.047h-1.4a1.865,1.865,0,0,0-.5-1.316A1.658,1.658,0,0,0,72.82-7.4a1.777,1.777,0,0,0-1.652.879,4.114,4.114,0,0,0-.52,2.129v.328a4.192,4.192,0,0,0,.512,2.148A1.776,1.776,0,0,0,72.82-1.039ZM83.031,0q-.078-.383-.121-.676a4.96,4.96,0,0,1-.051-.59,3.589,3.589,0,0,1-1.121,1.02,2.867,2.867,0,0,1-1.488.41,2.763,2.763,0,0,1-2.012-.676,2.486,2.486,0,0,1-.691-1.863,2.183,2.183,0,0,1,.98-1.895,4.579,4.579,0,0,1,2.66-.684h1.672v-.836a1.551,1.551,0,0,0-.453-1.176A1.779,1.779,0,0,0,81.125-7.4a1.859,1.859,0,0,0-1.211.375,1.125,1.125,0,0,0-.461.9l-1.461.016-.016-.047a2.023,2.023,0,0,1,.863-1.687,3.578,3.578,0,0,1,2.371-.766,3.49,3.49,0,0,1,2.313.73A2.588,2.588,0,0,1,84.4-5.773V-1.7a7.923,7.923,0,0,0,.047.875A4.5,4.5,0,0,0,84.617,0ZM80.477-1.125a2.739,2.739,0,0,0,1.508-.43,2.042,2.042,0,0,0,.875-.984V-3.914H81.133a2.24,2.24,0,0,0-1.488.469,1.4,1.4,0,0,0-.559,1.1,1.159,1.159,0,0,0,.352.891A1.472,1.472,0,0,0,80.477-1.125ZM90.633-7.094l-.789-.047a1.762,1.762,0,0,0-1.027.289,1.854,1.854,0,0,0-.645.813V0H86.633V-8.453h1.375l.148,1.234a2.934,2.934,0,0,1,.887-1.023,2.073,2.073,0,0,1,1.215-.367,1.9,1.9,0,0,1,.328.027,2.175,2.175,0,0,1,.258.059Zm1.18,3.023a5.641,5.641,0,0,1,.871-3.289,2.8,2.8,0,0,1,2.434-1.25,2.966,2.966,0,0,1,1.414.324,2.845,2.845,0,0,1,1.023.934l.188-1.1h1.227v8.5a3.225,3.225,0,0,1-.945,2.5,3.884,3.884,0,0,1-2.727.871,5.716,5.716,0,0,1-1.316-.168,5.147,5.147,0,0,1-1.246-.457l.234-1.2a4.45,4.45,0,0,0,1.074.379,5.517,5.517,0,0,0,1.238.145,2.242,2.242,0,0,0,1.637-.512A2.12,2.12,0,0,0,97.43.047V-.914a2.725,2.725,0,0,1-.992.8A3.091,3.091,0,0,1,95.1.164,2.89,2.89,0,0,1,92.684-.957a4.674,4.674,0,0,1-.871-2.949Zm1.539.164a3.592,3.592,0,0,0,.523,2.047,1.817,1.817,0,0,0,1.617.773A2.034,2.034,0,0,0,96.656-1.4,2.4,2.4,0,0,0,97.43-2.3V-6.187a2.388,2.388,0,0,0-.773-.855,2.029,2.029,0,0,0-1.148-.316,1.752,1.752,0,0,0-1.629.914,4.718,4.718,0,0,0-.527,2.375Zm7.469-.4a4.654,4.654,0,0,1,1.016-3.09,3.406,3.406,0,0,1,2.758-1.215A3.439,3.439,0,0,1,107.371-7.4a4.639,4.639,0,0,1,1.02,3.094v.172a4.631,4.631,0,0,1-1.016,3.094,3.429,3.429,0,0,1-2.766,1.2,3.436,3.436,0,0,1-2.77-1.207,4.623,4.623,0,0,1-1.02-3.09Zm1.539.172a4.009,4.009,0,0,0,.566,2.219,1.875,1.875,0,0,0,1.684.875,1.87,1.87,0,0,0,1.672-.875,3.988,3.988,0,0,0,.57-2.219V-4.3a3.976,3.976,0,0,0-.574-2.211,1.882,1.882,0,0,0-1.684-.883,1.856,1.856,0,0,0-1.668.883,4.018,4.018,0,0,0-.566,2.211ZM113.9-4.07a5.641,5.641,0,0,1,.871-3.289,2.807,2.807,0,0,1,2.441-1.25,3.027,3.027,0,0,1,1.316.273,2.7,2.7,0,0,1,.98.8v-4.648h1.539V0h-1.18l-.234-1.07a2.743,2.743,0,0,1-1.023.922A3.058,3.058,0,0,1,117.2.164a2.9,2.9,0,0,1-2.422-1.121,4.659,4.659,0,0,1-.875-2.949Zm1.539.164a3.588,3.588,0,0,0,.523,2.051,1.828,1.828,0,0,0,1.625.77,2.039,2.039,0,0,0,1.156-.312,2.334,2.334,0,0,0,.766-.875V-6.219a2.37,2.37,0,0,0-.77-.832,2.033,2.033,0,0,0-1.137-.309,1.759,1.759,0,0,0-1.637.914,4.718,4.718,0,0,0-.527,2.375ZM126.844.164A3.576,3.576,0,0,1,124-1a4.48,4.48,0,0,1-1.02-3.062v-.344a4.386,4.386,0,0,1,1.051-3.012A3.3,3.3,0,0,1,126.6-8.609a3.067,3.067,0,0,1,2.543,1.055,4.345,4.345,0,0,1,.848,2.8v.813h-5.406l-.023.039a3.494,3.494,0,0,0,.563,2.066,1.965,1.965,0,0,0,1.719.793,3.872,3.872,0,0,0,1.371-.223,3.061,3.061,0,0,0,1.012-.613l.6,1a3.7,3.7,0,0,1-1.2.738A4.762,4.762,0,0,1,126.844.164ZM126.6-7.4a1.673,1.673,0,0,0-1.332.621,2.938,2.938,0,0,0-.645,1.59l.016.039h3.813v-.125A2.462,2.462,0,0,0,128-6.8,1.638,1.638,0,0,0,126.6-7.4ZM139.2.164A3.576,3.576,0,0,1,136.355-1a4.48,4.48,0,0,1-1.02-3.062v-.344a4.386,4.386,0,0,1,1.051-3.012,3.3,3.3,0,0,1,2.566-1.191A3.067,3.067,0,0,1,141.5-7.555a4.345,4.345,0,0,1,.848,2.8v.813h-5.406l-.023.039a3.494,3.494,0,0,0,.563,2.066,1.965,1.965,0,0,0,1.719.793,3.872,3.872,0,0,0,1.371-.223,3.061,3.061,0,0,0,1.012-.613l.6,1a3.7,3.7,0,0,1-1.2.738A4.762,4.762,0,0,1,139.2.164ZM138.953-7.4a1.673,1.673,0,0,0-1.332.621,2.938,2.938,0,0,0-.645,1.59l.016.039H140.8v-.125a2.462,2.462,0,0,0-.453-1.523A1.638,1.638,0,0,0,138.953-7.4Zm6.492-1.055.109,1.109a2.871,2.871,0,0,1,1.051-.934,3.158,3.158,0,0,1,1.48-.332,2.615,2.615,0,0,1,1.449.391,2.363,2.363,0,0,1,.91,1.172A3.162,3.162,0,0,1,151.5-8.191a2.769,2.769,0,0,1,1.527-.418,2.531,2.531,0,0,1,2.039.887,4.051,4.051,0,0,1,.75,2.668V0h-1.539V-5.07a2.81,2.81,0,0,0-.43-1.77,1.567,1.567,0,0,0-1.281-.52,1.631,1.631,0,0,0-1.277.547,2.381,2.381,0,0,0-.574,1.383V0h-1.547V-5.07a2.772,2.772,0,0,0-.441-1.738,1.532,1.532,0,0,0-1.27-.551,2.115,2.115,0,0,0-1.156.289,1.867,1.867,0,0,0-.7.813V0H144.07V-8.453ZM159.719,0H158.18V-8.453h1.539Zm0-10.617H158.18v-1.57h1.539ZM167-2.273a1.026,1.026,0,0,0-.387-.828,3.732,3.732,0,0,0-1.465-.562,6.146,6.146,0,0,1-2.293-.9,1.814,1.814,0,0,1-.8-1.547,2.229,2.229,0,0,1,.879-1.766,3.433,3.433,0,0,1,2.277-.734,3.4,3.4,0,0,1,2.328.781,2.239,2.239,0,0,1,.852,1.82l-.016.047h-1.469a1.331,1.331,0,0,0-.48-.992,1.717,1.717,0,0,0-1.215-.445A1.751,1.751,0,0,0,164-7.031a1.146,1.146,0,0,0-.4.875.927.927,0,0,0,.348.773,3.848,3.848,0,0,0,1.434.5,6.058,6.058,0,0,1,2.359.93,1.872,1.872,0,0,1,.8,1.57,2.226,2.226,0,0,1-.91,1.836,3.754,3.754,0,0,1-2.379.711,3.715,3.715,0,0,1-2.547-.82,2.341,2.341,0,0,1-.883-1.914l.016-.047H163.3a1.424,1.424,0,0,0,.609,1.2,2.358,2.358,0,0,0,1.336.379,2.1,2.1,0,0,0,1.285-.348A1.063,1.063,0,0,0,167-2.273ZM172.117,0h-1.539V-8.453h1.539Zm0-10.617h-1.539v-1.57h1.539ZM174.125-4.3a4.654,4.654,0,0,1,1.016-3.09A3.406,3.406,0,0,1,177.9-8.609,3.439,3.439,0,0,1,180.676-7.4,4.639,4.639,0,0,1,181.7-4.3v.172a4.631,4.631,0,0,1-1.016,3.094,3.429,3.429,0,0,1-2.766,1.2,3.436,3.436,0,0,1-2.77-1.207,4.623,4.623,0,0,1-1.02-3.09Zm1.539.172a4.009,4.009,0,0,0,.566,2.219,1.875,1.875,0,0,0,1.684.875,1.87,1.87,0,0,0,1.672-.875,3.988,3.988,0,0,0,.57-2.219V-4.3a3.976,3.976,0,0,0-.574-2.211A1.882,1.882,0,0,0,177.9-7.4a1.856,1.856,0,0,0-1.668.883,4.018,4.018,0,0,0-.566,2.211Zm2.992-7.906h1.8l.016.047-2.1,2.031h-1.156Zm6.3,3.586.109,1.258a3.069,3.069,0,0,1,1.059-1.043,2.824,2.824,0,0,1,1.449-.371,2.759,2.759,0,0,1,2.117.8,3.515,3.515,0,0,1,.75,2.473V0H188.9V-5.3a2.287,2.287,0,0,0-.441-1.586,1.768,1.768,0,0,0-1.348-.469,2.386,2.386,0,0,0-1.207.285,2.072,2.072,0,0,0-.785.8V0h-1.539V-8.453ZM196.375-4.07a5.641,5.641,0,0,1,.871-3.289,2.8,2.8,0,0,1,2.434-1.25,2.966,2.966,0,0,1,1.414.324,2.845,2.845,0,0,1,1.023.934l.188-1.1h1.227v8.5a3.225,3.225,0,0,1-.945,2.5,3.884,3.884,0,0,1-2.727.871,5.717,5.717,0,0,1-1.316-.168,5.147,5.147,0,0,1-1.246-.457l.234-1.2a4.451,4.451,0,0,0,1.074.379,5.517,5.517,0,0,0,1.238.145,2.242,2.242,0,0,0,1.637-.512,2.12,2.12,0,0,0,.512-1.559V-.914a2.725,2.725,0,0,1-.992.8,3.091,3.091,0,0,1-1.336.273,2.89,2.89,0,0,1-2.418-1.121,4.674,4.674,0,0,1-.871-2.949Zm1.539.164a3.592,3.592,0,0,0,.523,2.047,1.817,1.817,0,0,0,1.617.773,2.034,2.034,0,0,0,1.164-.316,2.4,2.4,0,0,0,.773-.895V-6.187a2.388,2.388,0,0,0-.773-.855,2.029,2.029,0,0,0-1.148-.316,1.752,1.752,0,0,0-1.629.914,4.718,4.718,0,0,0-.527,2.375ZM209.242.164A3.576,3.576,0,0,1,206.4-1a4.48,4.48,0,0,1-1.02-3.062v-.344a4.386,4.386,0,0,1,1.051-3.012A3.3,3.3,0,0,1,209-8.609a3.067,3.067,0,0,1,2.543,1.055,4.345,4.345,0,0,1,.848,2.8v.813h-5.406l-.023.039a3.494,3.494,0,0,0,.563,2.066,1.965,1.965,0,0,0,1.719.793,3.872,3.872,0,0,0,1.371-.223,3.061,3.061,0,0,0,1.012-.613l.6,1a3.7,3.7,0,0,1-1.2.738A4.762,4.762,0,0,1,209.242.164ZM209-7.4a1.673,1.673,0,0,0-1.332.621,2.938,2.938,0,0,0-.645,1.59l.016.039h3.813v-.125A2.462,2.462,0,0,0,210.4-6.8,1.638,1.638,0,0,0,209-7.4Zm6.492-1.055L215.6-7.2a3.069,3.069,0,0,1,1.059-1.043,2.824,2.824,0,0,1,1.449-.371,2.759,2.759,0,0,1,2.117.8,3.515,3.515,0,0,1,.75,2.473V0h-1.539V-5.3A2.287,2.287,0,0,0,219-6.891a1.768,1.768,0,0,0-1.348-.469,2.386,2.386,0,0,0-1.207.285,2.072,2.072,0,0,0-.785.8V0h-1.539V-8.453ZM226.711.164A3.576,3.576,0,0,1,223.871-1a4.48,4.48,0,0,1-1.02-3.062v-.344A4.386,4.386,0,0,1,223.9-7.418a3.3,3.3,0,0,1,2.566-1.191,3.067,3.067,0,0,1,2.543,1.055,4.345,4.345,0,0,1,.848,2.8v.813h-5.406l-.023.039a3.494,3.494,0,0,0,.563,2.066,1.965,1.965,0,0,0,1.719.793,3.872,3.872,0,0,0,1.371-.223,3.061,3.061,0,0,0,1.012-.613l.6,1a3.7,3.7,0,0,1-1.2.738A4.762,4.762,0,0,1,226.711.164ZM226.469-7.4a1.673,1.673,0,0,0-1.332.621,2.938,2.938,0,0,0-.645,1.59l.016.039h3.813v-.125a2.462,2.462,0,0,0-.453-1.523A1.638,1.638,0,0,0,226.469-7.4Zm.578-4.648h1.8l.016.047-2.1,2.031H225.6Zm8.539,4.953-.789-.047a1.762,1.762,0,0,0-1.027.289,1.855,1.855,0,0,0-.645.813V0h-1.539V-8.453h1.375l.148,1.234A2.934,2.934,0,0,1,234-8.242a2.073,2.073,0,0,1,1.215-.367,1.9,1.9,0,0,1,.328.027,2.174,2.174,0,0,1,.258.059ZM238.852,0h-1.539V-8.453h1.539Zm0-10.617h-1.539v-1.57h1.539Zm5.727,9.578a1.81,1.81,0,0,0,1.242-.473,1.493,1.493,0,0,0,.531-1.16h1.391l.023.047a2.428,2.428,0,0,1-.937,1.941,3.312,3.312,0,0,1-2.25.848,3.319,3.319,0,0,1-2.75-1.211,4.674,4.674,0,0,1-.969-3.016v-.328a4.654,4.654,0,0,1,.973-3,3.317,3.317,0,0,1,2.746-1.215,3.189,3.189,0,0,1,2.316.875,2.775,2.775,0,0,1,.871,2.148l-.016.047h-1.4a1.865,1.865,0,0,0-.5-1.316,1.658,1.658,0,0,0-1.27-.543,1.777,1.777,0,0,0-1.652.879,4.114,4.114,0,0,0-.52,2.129v.328a4.192,4.192,0,0,0,.512,2.148A1.776,1.776,0,0,0,244.578-1.039ZM254.789,0q-.078-.383-.121-.676a4.96,4.96,0,0,1-.051-.59A3.588,3.588,0,0,1,253.5-.246a2.867,2.867,0,0,1-1.488.41A2.763,2.763,0,0,1,250-.512a2.486,2.486,0,0,1-.691-1.863,2.183,2.183,0,0,1,.98-1.895,4.579,4.579,0,0,1,2.66-.684h1.672v-.836a1.551,1.551,0,0,0-.453-1.176,1.779,1.779,0,0,0-1.281-.434,1.859,1.859,0,0,0-1.211.375,1.125,1.125,0,0,0-.461.9l-1.461.016-.016-.047a2.023,2.023,0,0,1,.863-1.687,3.578,3.578,0,0,1,2.371-.766,3.49,3.49,0,0,1,2.313.73,2.588,2.588,0,0,1,.875,2.105V-1.7a7.923,7.923,0,0,0,.047.875,4.5,4.5,0,0,0,.172.828Zm-2.555-1.125a2.739,2.739,0,0,0,1.508-.43,2.042,2.042,0,0,0,.875-.984V-3.914h-1.727a2.24,2.24,0,0,0-1.488.469,1.4,1.4,0,0,0-.559,1.1,1.159,1.159,0,0,0,.352.891A1.472,1.472,0,0,0,252.234-1.125ZM260.07,0h-1.539V-1.578h1.539Z" transform="translate(551 2450)" fill="#111e61"/>
    <path id="Trazado_33924" data-name="Trazado 33924" d="M7.391-2.867a1.711,1.711,0,0,0-.555-1.3,4.62,4.62,0,0,0-1.953-.891A6.5,6.5,0,0,1,2.176-6.32a2.655,2.655,0,0,1-.973-2.1A2.8,2.8,0,0,1,2.25-10.648a4.05,4.05,0,0,1,2.719-.891,3.971,3.971,0,0,1,2.863,1.02A3.088,3.088,0,0,1,8.867-8.141l-.023.047H7.375A2.1,2.1,0,0,0,6.7-9.7a2.431,2.431,0,0,0-1.73-.633A2.37,2.37,0,0,0,3.316-9.8a1.754,1.754,0,0,0-.574,1.359,1.518,1.518,0,0,0,.629,1.238,5.8,5.8,0,0,0,2.043.871A5.8,5.8,0,0,1,8.031-5.023a2.857,2.857,0,0,1,.9,2.141A2.657,2.657,0,0,1,7.848-.672,4.491,4.491,0,0,1,5.023.164a4.8,4.8,0,0,1-2.91-.922A2.81,2.81,0,0,1,.891-3.227l.016-.047H2.375a1.912,1.912,0,0,0,.813,1.652,3.076,3.076,0,0,0,1.836.582,2.761,2.761,0,0,0,1.73-.492A1.6,1.6,0,0,0,7.391-2.867Zm7.172-.117.258.945h.047l.258-.945,2.938-8.391h1.664L15.5,0H14.18L9.953-11.375h1.672Zm14.68-.656.016.047a3.417,3.417,0,0,1-1.125,2.68A4.3,4.3,0,0,1,25.078.164,4.012,4.012,0,0,1,21.934-1.2a5.028,5.028,0,0,1-1.215-3.469V-6.7a5.043,5.043,0,0,1,1.215-3.473,4.006,4.006,0,0,1,3.145-1.371,4.416,4.416,0,0,1,3.07,1.027,3.4,3.4,0,0,1,1.109,2.723l-.016.047H27.766a2.539,2.539,0,0,0-.7-1.891,2.7,2.7,0,0,0-1.984-.7,2.424,2.424,0,0,0-2.055,1.039,4.227,4.227,0,0,0-.766,2.578v2.039a4.254,4.254,0,0,0,.766,2.594,2.424,2.424,0,0,0,2.055,1.039,2.71,2.71,0,0,0,1.984-.691,2.557,2.557,0,0,0,.7-1.91Z" transform="translate(436 2491)" fill="#111e61"/>
    <path id="Trazado_33914" data-name="Trazado 33914" d="M9.445-3.641l.016.047A3.417,3.417,0,0,1,8.336-.914,4.3,4.3,0,0,1,5.281.164,4.012,4.012,0,0,1,2.137-1.2,5.028,5.028,0,0,1,.922-4.672V-6.7a5.043,5.043,0,0,1,1.215-3.473,4.006,4.006,0,0,1,3.145-1.371,4.416,4.416,0,0,1,3.07,1.027A3.4,3.4,0,0,1,9.461-7.789l-.016.047H7.969a2.539,2.539,0,0,0-.7-1.891,2.7,2.7,0,0,0-1.984-.7A2.424,2.424,0,0,0,3.227-9.289a4.227,4.227,0,0,0-.766,2.578v2.039a4.254,4.254,0,0,0,.766,2.594A2.424,2.424,0,0,0,5.281-1.039,2.71,2.71,0,0,0,7.266-1.73a2.557,2.557,0,0,0,.7-1.91Zm7,3.641q-.078-.383-.121-.676a4.96,4.96,0,0,1-.051-.59,3.589,3.589,0,0,1-1.121,1.02,2.867,2.867,0,0,1-1.488.41,2.763,2.763,0,0,1-2.012-.676,2.486,2.486,0,0,1-.691-1.863,2.183,2.183,0,0,1,.98-1.895,4.579,4.579,0,0,1,2.66-.684h1.672v-.836a1.551,1.551,0,0,0-.453-1.176A1.779,1.779,0,0,0,14.539-7.4a1.859,1.859,0,0,0-1.211.375,1.125,1.125,0,0,0-.461.9l-1.461.016-.016-.047a2.023,2.023,0,0,1,.863-1.687,3.578,3.578,0,0,1,2.371-.766,3.49,3.49,0,0,1,2.313.73,2.588,2.588,0,0,1,.875,2.105V-1.7a7.923,7.923,0,0,0,.047.875A4.5,4.5,0,0,0,18.031,0ZM13.891-1.125a2.739,2.739,0,0,0,1.508-.43,2.042,2.042,0,0,0,.875-.984V-3.914H14.547a2.24,2.24,0,0,0-1.488.469,1.4,1.4,0,0,0-.559,1.1,1.159,1.159,0,0,0,.352.891A1.472,1.472,0,0,0,13.891-1.125ZM24.047-7.094l-.789-.047a1.762,1.762,0,0,0-1.027.289,1.854,1.854,0,0,0-.645.813V0H20.047V-8.453h1.375l.148,1.234a2.934,2.934,0,0,1,.887-1.023,2.073,2.073,0,0,1,1.215-.367A1.9,1.9,0,0,1,24-8.582a2.175,2.175,0,0,1,.258.059Zm1.18,3.023A5.641,5.641,0,0,1,26.1-7.359a2.8,2.8,0,0,1,2.434-1.25,2.966,2.966,0,0,1,1.414.324,2.845,2.845,0,0,1,1.023.934l.188-1.1h1.227v8.5a3.225,3.225,0,0,1-.945,2.5,3.884,3.884,0,0,1-2.727.871,5.716,5.716,0,0,1-1.316-.168,5.147,5.147,0,0,1-1.246-.457l.234-1.2a4.45,4.45,0,0,0,1.074.379,5.517,5.517,0,0,0,1.238.145,2.242,2.242,0,0,0,1.637-.512A2.12,2.12,0,0,0,30.844.047V-.914a2.725,2.725,0,0,1-.992.8,3.091,3.091,0,0,1-1.336.273A2.89,2.89,0,0,1,26.1-.957a4.674,4.674,0,0,1-.871-2.949Zm1.539.164a3.592,3.592,0,0,0,.523,2.047,1.817,1.817,0,0,0,1.617.773A2.034,2.034,0,0,0,30.07-1.4a2.4,2.4,0,0,0,.773-.895V-6.187a2.388,2.388,0,0,0-.773-.855,2.029,2.029,0,0,0-1.148-.316,1.752,1.752,0,0,0-1.629.914,4.718,4.718,0,0,0-.527,2.375Zm7.469-.4a4.654,4.654,0,0,1,1.016-3.09,3.406,3.406,0,0,1,2.758-1.215A3.439,3.439,0,0,1,40.785-7.4,4.639,4.639,0,0,1,41.8-4.3v.172a4.631,4.631,0,0,1-1.016,3.094,3.429,3.429,0,0,1-2.766,1.2,3.436,3.436,0,0,1-2.77-1.207,4.623,4.623,0,0,1-1.02-3.09Zm1.539.172a4.009,4.009,0,0,0,.566,2.219,1.875,1.875,0,0,0,1.684.875A1.87,1.87,0,0,0,39.7-1.914a3.988,3.988,0,0,0,.57-2.219V-4.3a3.976,3.976,0,0,0-.574-2.211A1.882,1.882,0,0,0,38.008-7.4a1.856,1.856,0,0,0-1.668.883A4.018,4.018,0,0,0,35.773-4.3ZM48.6-2.273a1.026,1.026,0,0,0-.387-.828,3.732,3.732,0,0,0-1.465-.562,6.146,6.146,0,0,1-2.293-.9,1.814,1.814,0,0,1-.8-1.547,2.229,2.229,0,0,1,.879-1.766,3.433,3.433,0,0,1,2.277-.734,3.4,3.4,0,0,1,2.328.781,2.239,2.239,0,0,1,.852,1.82l-.016.047H48.508a1.331,1.331,0,0,0-.48-.992A1.717,1.717,0,0,0,46.813-7.4a1.751,1.751,0,0,0-1.215.367,1.146,1.146,0,0,0-.4.875.927.927,0,0,0,.348.773,3.848,3.848,0,0,0,1.434.5,6.058,6.058,0,0,1,2.359.93,1.872,1.872,0,0,1,.8,1.57,2.226,2.226,0,0,1-.91,1.836,3.754,3.754,0,0,1-2.379.711A3.715,3.715,0,0,1,44.3-.656a2.341,2.341,0,0,1-.883-1.914l.016-.047h1.469a1.424,1.424,0,0,0,.609,1.2,2.358,2.358,0,0,0,1.336.379,2.1,2.1,0,0,0,1.285-.348A1.063,1.063,0,0,0,48.6-2.273ZM63.234-3.906a4.659,4.659,0,0,1-.875,2.949A2.893,2.893,0,0,1,59.945.164,3.354,3.354,0,0,1,58.574-.1a2.622,2.622,0,0,1-1-.785V3.25H56.031v-11.7h1.18l.242,1.094a2.792,2.792,0,0,1,1.031-.93,3.078,3.078,0,0,1,1.438-.32,2.809,2.809,0,0,1,2.441,1.246,5.637,5.637,0,0,1,.871,3.293ZM61.7-4.07a4.467,4.467,0,0,0-.566-2.363,1.835,1.835,0,0,0-1.668-.926,2.054,2.054,0,0,0-1.133.3,2.25,2.25,0,0,0-.758.824v4.086a2.186,2.186,0,0,0,.758.816,2.126,2.126,0,0,0,1.148.293,1.894,1.894,0,0,0,1.656-.8A3.516,3.516,0,0,0,61.7-3.906Zm3.07-.234a4.654,4.654,0,0,1,1.016-3.09,3.406,3.406,0,0,1,2.758-1.215A3.439,3.439,0,0,1,71.316-7.4,4.639,4.639,0,0,1,72.336-4.3v.172A4.631,4.631,0,0,1,71.32-1.039a3.429,3.429,0,0,1-2.766,1.2,3.436,3.436,0,0,1-2.77-1.207,4.623,4.623,0,0,1-1.02-3.09Zm1.539.172a4.009,4.009,0,0,0,.566,2.219,1.875,1.875,0,0,0,1.684.875,1.87,1.87,0,0,0,1.672-.875,3.988,3.988,0,0,0,.57-2.219V-4.3a3.976,3.976,0,0,0-.574-2.211A1.882,1.882,0,0,0,68.539-7.4a1.856,1.856,0,0,0-1.668.883A4.018,4.018,0,0,0,66.3-4.3ZM78.219-7.094l-.789-.047a1.762,1.762,0,0,0-1.027.289,1.854,1.854,0,0,0-.645.813V0H74.219V-8.453h1.375l.148,1.234a2.934,2.934,0,0,1,.887-1.023,2.073,2.073,0,0,1,1.215-.367,1.9,1.9,0,0,1,.328.027,2.175,2.175,0,0,1,.258.059ZM87.3.164A3.576,3.576,0,0,1,84.457-1a4.48,4.48,0,0,1-1.02-3.062v-.344a4.386,4.386,0,0,1,1.051-3.012,3.3,3.3,0,0,1,2.566-1.191A3.067,3.067,0,0,1,89.6-7.555a4.345,4.345,0,0,1,.848,2.8v.813H85.039l-.023.039a3.494,3.494,0,0,0,.563,2.066,1.965,1.965,0,0,0,1.719.793,3.872,3.872,0,0,0,1.371-.223,3.061,3.061,0,0,0,1.012-.613l.6,1a3.7,3.7,0,0,1-1.2.738A4.762,4.762,0,0,1,87.3.164ZM87.055-7.4a1.673,1.673,0,0,0-1.332.621,2.938,2.938,0,0,0-.645,1.59l.016.039h3.813v-.125A2.462,2.462,0,0,0,88.453-6.8,1.638,1.638,0,0,0,87.055-7.4Zm6.492-1.055.109,1.109a2.871,2.871,0,0,1,1.051-.934,3.158,3.158,0,0,1,1.48-.332,2.615,2.615,0,0,1,1.449.391,2.363,2.363,0,0,1,.91,1.172,3.162,3.162,0,0,1,1.059-1.145,2.769,2.769,0,0,1,1.527-.418,2.531,2.531,0,0,1,2.039.887,4.051,4.051,0,0,1,.75,2.668V0h-1.539V-5.07a2.81,2.81,0,0,0-.43-1.77,1.567,1.567,0,0,0-1.281-.52,1.631,1.631,0,0,0-1.277.547A2.381,2.381,0,0,0,98.82-5.43V0H97.273V-5.07a2.772,2.772,0,0,0-.441-1.738,1.532,1.532,0,0,0-1.27-.551,2.115,2.115,0,0,0-1.156.289,1.867,1.867,0,0,0-.7.813V0H92.172V-8.453ZM107.82,0h-1.539V-8.453h1.539Zm0-10.617h-1.539v-1.57h1.539ZM115.1-2.273a1.026,1.026,0,0,0-.387-.828,3.732,3.732,0,0,0-1.465-.562,6.146,6.146,0,0,1-2.293-.9,1.814,1.814,0,0,1-.8-1.547,2.229,2.229,0,0,1,.879-1.766,3.433,3.433,0,0,1,2.277-.734,3.4,3.4,0,0,1,2.328.781,2.239,2.239,0,0,1,.852,1.82l-.016.047h-1.469a1.331,1.331,0,0,0-.48-.992,1.717,1.717,0,0,0-1.215-.445,1.751,1.751,0,0,0-1.215.367,1.146,1.146,0,0,0-.4.875.927.927,0,0,0,.348.773,3.848,3.848,0,0,0,1.434.5,6.058,6.058,0,0,1,2.359.93,1.872,1.872,0,0,1,.8,1.57,2.226,2.226,0,0,1-.91,1.836,3.754,3.754,0,0,1-2.379.711,3.715,3.715,0,0,1-2.547-.82,2.341,2.341,0,0,1-.883-1.914l.016-.047h1.469a1.424,1.424,0,0,0,.609,1.2,2.358,2.358,0,0,0,1.336.379,2.1,2.1,0,0,0,1.285-.348A1.063,1.063,0,0,0,115.1-2.273ZM120.219,0H118.68V-8.453h1.539Zm0-10.617H118.68v-1.57h1.539ZM122.227-4.3a4.654,4.654,0,0,1,1.016-3.09A3.406,3.406,0,0,1,126-8.609,3.439,3.439,0,0,1,128.777-7.4,4.639,4.639,0,0,1,129.8-4.3v.172a4.631,4.631,0,0,1-1.016,3.094,3.429,3.429,0,0,1-2.766,1.2,3.436,3.436,0,0,1-2.77-1.207,4.623,4.623,0,0,1-1.02-3.09Zm1.539.172a4.009,4.009,0,0,0,.566,2.219,1.875,1.875,0,0,0,1.684.875,1.87,1.87,0,0,0,1.672-.875,3.988,3.988,0,0,0,.57-2.219V-4.3a3.976,3.976,0,0,0-.574-2.211A1.882,1.882,0,0,0,126-7.4a1.856,1.856,0,0,0-1.668.883,4.018,4.018,0,0,0-.566,2.211Zm2.992-7.906h1.8l.016.047-2.1,2.031h-1.156Zm6.3,3.586.109,1.258a3.069,3.069,0,0,1,1.059-1.043,2.824,2.824,0,0,1,1.449-.371,2.759,2.759,0,0,1,2.117.8,3.515,3.515,0,0,1,.75,2.473V0H137V-5.3a2.287,2.287,0,0,0-.441-1.586,1.768,1.768,0,0,0-1.348-.469A2.386,2.386,0,0,0,134-7.074a2.072,2.072,0,0,0-.785.8V0H131.68V-8.453ZM142.453,0h-1.539V-1.578h1.539Z" transform="translate(551 2486)" fill="#111e61"/>
    <path id="Trazado_33923" data-name="Trazado 33923" d="M5.078-6.937l2.656-4.437H9.594L5.984-5.734,9.672,0H7.836L5.109-4.516,2.375,0H.516L4.2-5.734.594-11.375H2.438Zm12.43,4.07a1.711,1.711,0,0,0-.555-1.3A4.62,4.62,0,0,0,15-5.055,6.5,6.5,0,0,1,12.293-6.32a2.655,2.655,0,0,1-.973-2.1,2.8,2.8,0,0,1,1.047-2.227,4.05,4.05,0,0,1,2.719-.891,3.971,3.971,0,0,1,2.863,1.02,3.088,3.088,0,0,1,1.035,2.379l-.023.047H17.492a2.1,2.1,0,0,0-.676-1.6,2.431,2.431,0,0,0-1.73-.633,2.37,2.37,0,0,0-1.652.523,1.754,1.754,0,0,0-.574,1.359,1.518,1.518,0,0,0,.629,1.238,5.8,5.8,0,0,0,2.043.871,5.8,5.8,0,0,1,2.617,1.313,2.857,2.857,0,0,1,.9,2.141A2.657,2.657,0,0,1,17.965-.672a4.491,4.491,0,0,1-2.824.836,4.8,4.8,0,0,1-2.91-.922,2.81,2.81,0,0,1-1.223-2.469l.016-.047h1.469A1.912,1.912,0,0,0,13.3-1.621a3.076,3.076,0,0,0,1.836.582,2.761,2.761,0,0,0,1.73-.492A1.6,1.6,0,0,0,17.508-2.867ZM21.227,0V-11.375h3.711a4.5,4.5,0,0,1,2.789.77A2.722,2.722,0,0,1,28.734-8.3a2.087,2.087,0,0,1-.453,1.316,2.845,2.845,0,0,1-1.2.887,2.646,2.646,0,0,1,1.77.969A2.965,2.965,0,0,1,29.5-3.211,2.9,2.9,0,0,1,28.484-.824,4.238,4.238,0,0,1,25.734,0Zm1.539-5.336V-1.2h2.969a2.374,2.374,0,0,0,1.637-.52A1.871,1.871,0,0,0,27.953-3.2a2.03,2.03,0,0,0-.594-1.523,2.334,2.334,0,0,0-1.6-.617H22.766Zm0-1.2h2.492a2.044,2.044,0,0,0,1.4-.473A1.659,1.659,0,0,0,27.2-8.328a1.645,1.645,0,0,0-.582-1.379,2.664,2.664,0,0,0-1.676-.457H22.766Z" transform="translate(436 2529)" fill="#111e61"/>
    <path id="Trazado_33915" data-name="Trazado 33915" d="M7.539-5.273H2.867V-1.2H8.336V0H1.328V-11.375H8.25v1.211H2.867v3.68H7.539Zm5.273-.062,1.8-3.117h1.8l-2.742,4.18L16.484,0H14.719L12.844-3.2,10.969,0H9.188l2.82-4.273L9.266-8.453h1.773Zm8.383,4.3a1.81,1.81,0,0,0,1.242-.473,1.494,1.494,0,0,0,.531-1.16h1.391l.023.047a2.428,2.428,0,0,1-.937,1.941A3.313,3.313,0,0,1,21.2.164a3.319,3.319,0,0,1-2.75-1.211,4.674,4.674,0,0,1-.969-3.016v-.328a4.654,4.654,0,0,1,.973-3A3.317,3.317,0,0,1,21.2-8.609a3.189,3.189,0,0,1,2.316.875,2.775,2.775,0,0,1,.871,2.148l-.016.047h-1.4a1.865,1.865,0,0,0-.5-1.316A1.658,1.658,0,0,0,21.2-7.4a1.777,1.777,0,0,0-1.652.879,4.114,4.114,0,0,0-.52,2.129v.328a4.192,4.192,0,0,0,.512,2.148A1.776,1.776,0,0,0,21.2-1.039Zm8.516,1.2A3.576,3.576,0,0,1,26.871-1a4.48,4.48,0,0,1-1.02-3.062v-.344A4.386,4.386,0,0,1,26.9-7.418a3.3,3.3,0,0,1,2.566-1.191,3.067,3.067,0,0,1,2.543,1.055,4.345,4.345,0,0,1,.848,2.8v.813H27.453L27.43-3.9a3.494,3.494,0,0,0,.563,2.066,1.965,1.965,0,0,0,1.719.793,3.872,3.872,0,0,0,1.371-.223,3.061,3.061,0,0,0,1.012-.613l.6,1a3.7,3.7,0,0,1-1.2.738A4.762,4.762,0,0,1,29.711.164ZM29.469-7.4a1.673,1.673,0,0,0-1.332.621,2.938,2.938,0,0,0-.645,1.59l.016.039H31.32v-.125A2.462,2.462,0,0,0,30.867-6.8,1.638,1.638,0,0,0,29.469-7.4ZM39.5-2.273a1.026,1.026,0,0,0-.387-.828,3.732,3.732,0,0,0-1.465-.562,6.146,6.146,0,0,1-2.293-.9,1.814,1.814,0,0,1-.8-1.547,2.229,2.229,0,0,1,.879-1.766,3.433,3.433,0,0,1,2.277-.734,3.4,3.4,0,0,1,2.328.781,2.239,2.239,0,0,1,.852,1.82l-.016.047H39.406a1.331,1.331,0,0,0-.48-.992A1.717,1.717,0,0,0,37.711-7.4a1.751,1.751,0,0,0-1.215.367,1.146,1.146,0,0,0-.4.875.927.927,0,0,0,.348.773,3.848,3.848,0,0,0,1.434.5,6.058,6.058,0,0,1,2.359.93,1.872,1.872,0,0,1,.8,1.57,2.226,2.226,0,0,1-.91,1.836A3.754,3.754,0,0,1,37.75.164,3.715,3.715,0,0,1,35.2-.656,2.341,2.341,0,0,1,34.32-2.57l.016-.047H35.8a1.424,1.424,0,0,0,.609,1.2,2.358,2.358,0,0,0,1.336.379,2.1,2.1,0,0,0,1.285-.348A1.063,1.063,0,0,0,39.5-2.273ZM42.594-4.3a4.654,4.654,0,0,1,1.016-3.09,3.406,3.406,0,0,1,2.758-1.215A3.439,3.439,0,0,1,49.145-7.4,4.639,4.639,0,0,1,50.164-4.3v.172a4.631,4.631,0,0,1-1.016,3.094,3.429,3.429,0,0,1-2.766,1.2,3.436,3.436,0,0,1-2.77-1.207,4.623,4.623,0,0,1-1.02-3.09Zm1.539.172A4.009,4.009,0,0,0,44.7-1.914a1.875,1.875,0,0,0,1.684.875,1.87,1.87,0,0,0,1.672-.875,3.988,3.988,0,0,0,.57-2.219V-4.3a3.976,3.976,0,0,0-.574-2.211A1.882,1.882,0,0,0,46.367-7.4a1.856,1.856,0,0,0-1.668.883A4.018,4.018,0,0,0,44.133-4.3Zm11.539.063a5.641,5.641,0,0,1,.871-3.289,2.807,2.807,0,0,1,2.441-1.25,3.027,3.027,0,0,1,1.316.273,2.7,2.7,0,0,1,.98.8v-4.648H62.82V0h-1.18l-.234-1.07a2.743,2.743,0,0,1-1.023.922,3.058,3.058,0,0,1-1.414.313A2.9,2.9,0,0,1,56.547-.957a4.659,4.659,0,0,1-.875-2.949Zm1.539.164a3.588,3.588,0,0,0,.523,2.051,1.828,1.828,0,0,0,1.625.77A2.039,2.039,0,0,0,60.516-1.4a2.334,2.334,0,0,0,.766-.875V-6.219a2.37,2.37,0,0,0-.77-.832,2.033,2.033,0,0,0-1.137-.309,1.759,1.759,0,0,0-1.637.914,4.718,4.718,0,0,0-.527,2.375ZM68.617.164A3.576,3.576,0,0,1,65.777-1a4.48,4.48,0,0,1-1.02-3.062v-.344a4.386,4.386,0,0,1,1.051-3.012,3.3,3.3,0,0,1,2.566-1.191,3.067,3.067,0,0,1,2.543,1.055,4.345,4.345,0,0,1,.848,2.8v.813H66.359l-.023.039A3.494,3.494,0,0,0,66.9-1.832a1.965,1.965,0,0,0,1.719.793,3.872,3.872,0,0,0,1.371-.223A3.061,3.061,0,0,0,71-1.875l.6,1a3.7,3.7,0,0,1-1.2.738A4.762,4.762,0,0,1,68.617.164ZM68.375-7.4a1.673,1.673,0,0,0-1.332.621,2.938,2.938,0,0,0-.645,1.59l.016.039h3.813v-.125A2.462,2.462,0,0,0,69.773-6.8,1.638,1.638,0,0,0,68.375-7.4ZM80.969.164A3.576,3.576,0,0,1,78.129-1a4.48,4.48,0,0,1-1.02-3.062v-.344A4.386,4.386,0,0,1,78.16-7.418a3.3,3.3,0,0,1,2.566-1.191A3.067,3.067,0,0,1,83.27-7.555a4.345,4.345,0,0,1,.848,2.8v.813H78.711l-.023.039a3.494,3.494,0,0,0,.563,2.066,1.965,1.965,0,0,0,1.719.793,3.872,3.872,0,0,0,1.371-.223,3.061,3.061,0,0,0,1.012-.613l.6,1a3.7,3.7,0,0,1-1.2.738A4.762,4.762,0,0,1,80.969.164ZM80.727-7.4a1.673,1.673,0,0,0-1.332.621,2.938,2.938,0,0,0-.645,1.59l.016.039h3.813v-.125A2.462,2.462,0,0,0,82.125-6.8,1.638,1.638,0,0,0,80.727-7.4ZM85.492-4.07a5.641,5.641,0,0,1,.871-3.289A2.807,2.807,0,0,1,88.8-8.609a2.984,2.984,0,0,1,1.352.293,2.8,2.8,0,0,1,1,.848l.219-.984h1.18V3.25H91.016V-.8a2.638,2.638,0,0,1-.961.719,3.135,3.135,0,0,1-1.266.242A2.9,2.9,0,0,1,86.367-.957a4.659,4.659,0,0,1-.875-2.949Zm1.539.164a3.684,3.684,0,0,0,.527,2.074,1.811,1.811,0,0,0,1.621.793,2,2,0,0,0,1.082-.281,2.312,2.312,0,0,0,.754-.789V-6.375a2.329,2.329,0,0,0-.754-.75A2.011,2.011,0,0,0,89.2-7.4a1.754,1.754,0,0,0-1.633.934,4.8,4.8,0,0,0-.531,2.395ZM100.3-1.25A2.863,2.863,0,0,1,99.281-.2a2.8,2.8,0,0,1-1.445.367A2.716,2.716,0,0,1,95.68-.719a4.1,4.1,0,0,1-.773-2.75V-8.453h1.539v5a3.147,3.147,0,0,0,.4,1.859,1.481,1.481,0,0,0,1.242.508,2.531,2.531,0,0,0,1.355-.332,2.077,2.077,0,0,0,.809-.941V-8.453h1.539V0h-1.383ZM105.7,0h-1.539V-8.453H105.7Zm0-10.617h-1.539v-1.57H105.7Zm9.57,6.711a4.659,4.659,0,0,1-.875,2.949A2.893,2.893,0,0,1,111.977.164,3.354,3.354,0,0,1,110.605-.1a2.622,2.622,0,0,1-1-.785V3.25h-1.539v-11.7h1.18l.242,1.094a2.792,2.792,0,0,1,1.031-.93,3.078,3.078,0,0,1,1.438-.32,2.809,2.809,0,0,1,2.441,1.246,5.638,5.638,0,0,1,.871,3.293Zm-1.539-.164a4.467,4.467,0,0,0-.566-2.363,1.835,1.835,0,0,0-1.668-.926,2.054,2.054,0,0,0-1.133.3,2.25,2.25,0,0,0-.758.824v4.086a2.186,2.186,0,0,0,.758.816,2.126,2.126,0,0,0,1.148.293,1.894,1.894,0,0,0,1.656-.8,3.516,3.516,0,0,0,.563-2.066ZM122.352,0q-.078-.383-.121-.676a4.96,4.96,0,0,1-.051-.59,3.589,3.589,0,0,1-1.121,1.02,2.867,2.867,0,0,1-1.488.41,2.763,2.763,0,0,1-2.012-.676,2.486,2.486,0,0,1-.691-1.863,2.183,2.183,0,0,1,.98-1.895,4.579,4.579,0,0,1,2.66-.684h1.672v-.836a1.551,1.551,0,0,0-.453-1.176,1.779,1.779,0,0,0-1.281-.434,1.859,1.859,0,0,0-1.211.375,1.125,1.125,0,0,0-.461.9l-1.461.016-.016-.047a2.023,2.023,0,0,1,.863-1.687,3.578,3.578,0,0,1,2.371-.766,3.49,3.49,0,0,1,2.313.73,2.588,2.588,0,0,1,.875,2.105V-1.7a7.923,7.923,0,0,0,.047.875,4.5,4.5,0,0,0,.172.828ZM119.8-1.125a2.739,2.739,0,0,0,1.508-.43,2.042,2.042,0,0,0,.875-.984V-3.914h-1.727a2.24,2.24,0,0,0-1.488.469,1.4,1.4,0,0,0-.559,1.1,1.159,1.159,0,0,0,.352.891A1.472,1.472,0,0,0,119.8-1.125Zm7.93-7.328V.7a2.807,2.807,0,0,1-.672,2.012,2.452,2.452,0,0,1-1.867.707,2.549,2.549,0,0,1-.441-.035,3.49,3.49,0,0,1-.426-.105l.109-1.211a1.621,1.621,0,0,0,.313.066,2.608,2.608,0,0,0,.336.027,1.02,1.02,0,0,0,.809-.344,1.681,1.681,0,0,0,.3-1.117V-8.453Zm-.047-2.2h-1.539v-1.539h1.539ZM133.594.164A3.576,3.576,0,0,1,130.754-1a4.48,4.48,0,0,1-1.02-3.062v-.344a4.386,4.386,0,0,1,1.051-3.012,3.3,3.3,0,0,1,2.566-1.191,3.067,3.067,0,0,1,2.543,1.055,4.345,4.345,0,0,1,.848,2.8v.813h-5.406l-.023.039a3.494,3.494,0,0,0,.563,2.066,1.965,1.965,0,0,0,1.719.793,3.872,3.872,0,0,0,1.371-.223,3.061,3.061,0,0,0,1.012-.613l.6,1a3.7,3.7,0,0,1-1.2.738A4.762,4.762,0,0,1,133.594.164ZM133.352-7.4a1.673,1.673,0,0,0-1.332.621,2.938,2.938,0,0,0-.645,1.59l.016.039H135.2v-.125A2.462,2.462,0,0,0,134.75-6.8,1.638,1.638,0,0,0,133.352-7.4Zm6.8,7.4h-1.539V-1.578h1.539Z" transform="translate(551 2529)" fill="#111e61"/>
    <path id="Trazado_2804" data-name="Trazado 2804" d="M7174,2252.667h-25.334l.406,46.311v33.356H7174" transform="translate(-6759 191.167)" fill="none" stroke="#111e61" stroke-linecap="round" stroke-width="2"/>
    <path id="Trazado_2803" data-name="Trazado 2803" d="M7104.167,2287.333h-51.5" transform="translate(-6689.167 197.667)" fill="none" stroke="#111e61" stroke-linecap="round" stroke-width="2"/>
    <path id="Trazado_2805" data-name="Trazado 2805" d="M7089.667,2287.333h-37" transform="translate(-6556.667 196.333)" fill="none" stroke="#111e61" stroke-linecap="round" stroke-width="2"/>
    <path id="Trazado_2806" data-name="Trazado 2806" d="M7089.667,2287.333h-37" transform="translate(-6556.667 156.5)" fill="none" stroke="#111e61" stroke-linecap="round" stroke-width="2"/>
    <path id="Trazado_2807" data-name="Trazado 2807" d="M7089.667,2287.333h-37" transform="translate(-6556.667 236.167)" fill="none" stroke="#111e61" stroke-linecap="round" stroke-width="2"/>
    <path id="Trazado_33916" data-name="Trazado 33916" d="M2.5,0A2.5,2.5,0,1,1,0,2.5,2.5,2.5,0,0,1,2.5,0Z" transform="translate(531 2441)" fill="#111e61"/>
    <path id="Trazado_33917" data-name="Trazado 33917" d="M2.5,0A2.5,2.5,0,1,1,0,2.5,2.5,2.5,0,0,1,2.5,0Z" transform="translate(531 2521)" fill="#111e61"/>
    <path id="Trazado_33918" data-name="Trazado 33918" d="M2.5,0A2.5,2.5,0,1,1,0,2.5,2.5,2.5,0,0,1,2.5,0Z" transform="translate(531 2481)" fill="#111e61"/>
  </g>
</svg>
