<svg xmlns="http://www.w3.org/2000/svg" width="346.5" height="124" viewBox="0 0 346.5 124">
  <g id="Grupo_31682" data-name="Grupo 31682" transform="translate(-361.5 -2584)">
    <text id="Forma_de_pago" data-name="Forma de pago" transform="translate(439 2599)" fill="#111e61" font-size="16" font-family="Roboto-Regular, Roboto"><tspan x="0" y="0">Forma de pago</tspan></text>
    <text id="Compañía_validadora" data-name="Compañía validadora" transform="translate(439 2634)" fill="#111e61" font-size="16" font-family="Roboto-Regular, Roboto"><tspan x="0" y="0">Compañía validadora</tspan></text>
    <text id="Comisión" transform="translate(439 2669)" fill="#111e61" font-size="16" font-family="Roboto-Regular, Roboto"><tspan x="0" y="0">Comisión</tspan></text>
    <text id="Código_de_tour_cuando_es_necesario_" data-name="Código de tour (cuando es necesario)" transform="translate(439 2704)" fill="#111e61" font-size="16" font-family="Roboto-Regular, Roboto"><tspan x="0" y="0">Código de tour (cuando es necesario)</tspan></text>
    <path id="Trazado_2809" data-name="Trazado 2809" d="M7182,2252.667h-33.333l.534,61.425v44.242H7182" transform="translate(-6759 340.167)" fill="none" stroke="#111e61" stroke-linecap="round" stroke-width="2"/>
    <path id="Trazado_2808" data-name="Trazado 2808" d="M7084.667,2287.333h-32" transform="translate(-6661.667 341.167)" fill="none" stroke="#111e61" stroke-linecap="round" stroke-width="2"/>
    <path id="Trazado_2813" data-name="Trazado 2813" d="M7085.167,2287.333h-32.5" transform="translate(-6661.667 376.833)" fill="none" stroke="#111e61" stroke-linecap="round" stroke-width="2"/>
    <path id="Trazado_2814" data-name="Trazado 2814" d="M7080.167,2287.333h-27.5" transform="translate(-6690.167 358.333)" fill="none" stroke="#111e61" stroke-linecap="round" stroke-width="2"/>
    <circle id="Elipse_217" data-name="Elipse 217" cx="2.5" cy="2.5" r="2.5" transform="translate(421 2590)" fill="#111e61"/>
    <circle id="Elipse_218" data-name="Elipse 218" cx="2.5" cy="2.5" r="2.5" transform="translate(421 2626)" fill="#111e61"/>
    <circle id="Elipse_220" data-name="Elipse 220" cx="2.5" cy="2.5" r="2.5" transform="translate(421 2696)" fill="#111e61"/>
    <circle id="Elipse_219" data-name="Elipse 219" cx="2.5" cy="2.5" r="2.5" transform="translate(421 2661)" fill="#111e61"/>
  </g>
</svg>
