<svg xmlns="http://www.w3.org/2000/svg" width="74.962" height="70" viewBox="0 0 74.962 70">
  <g id="Grupo_133" data-name="Grupo 133" transform="translate(-137.038 -3138)">
    <circle id="Elipse_76" data-name="Elipse 76" cx="35" cy="35" r="35" transform="translate(142 3138)" fill="#cfe5fb"/>
    <g id="Grupo_10" data-name="Grupo 10" transform="translate(-640 2983.205)">
      <path id="Unión_1" data-name="Unión 1" d="M20.822,39.382H14.5A14.5,14.5,0,0,1,0,24.882V14.5A14.5,14.5,0,0,1,14.5,0H37A14.5,14.5,0,0,1,51.5,14.5V24.882A14.5,14.5,0,0,1,37,39.382H30.728l-4.953,4.953Z" transform="translate(791.5 167.5)" fill="#ffb74d" stroke="#ff9800" stroke-width="2"/>
      <g id="user" transform="translate(806.337 177.226)">
        <path id="Trazado_4" data-name="Trazado 4" d="M23.826,20.643v1a2.213,2.213,0,0,1-2.183,2.183H4.183A2.213,2.213,0,0,1,2,21.644v-1c0-2.637,3.092-4.274,6-5.547l.273-.136A.729.729,0,0,1,8.957,15a7.056,7.056,0,0,0,3.911,1.182A7.32,7.32,0,0,0,16.778,15a.729.729,0,0,1,.682-.045l.273.136C20.734,16.369,23.826,17.96,23.826,20.643ZM12.913,2c3,0,5.411,2.683,5.411,6s-2.41,6-5.411,6S7.5,11.322,7.5,8,9.912,2,12.913,2Z" transform="translate(-2 -2)" fill="#fff"/>
      </g>
    </g>
    <path id="Trazado_26" data-name="Trazado 26" d="M246.154,3303.847H231.538" transform="translate(-92 -146)" fill="none" stroke="#ffee58" stroke-linecap="round" stroke-width="5"/>
    <path id="Trazado_27" data-name="Trazado 27" d="M238.846,3303.847h-7.308" transform="translate(-84.692 -138)" fill="none" stroke="#ffee58" stroke-linecap="round" stroke-width="5"/>
  </g>
</svg>
