<svg xmlns="http://www.w3.org/2000/svg" width="74.961" height="70" viewBox="0 0 74.961 70">
  <g id="Grupo_26394" data-name="Grupo 26394" transform="translate(-137.039 -3138)">
    <circle id="Elipse_76" data-name="Elipse 76" cx="35" cy="35" r="35" transform="translate(142 3138)" fill="#cfe5fb"/>
    <g id="Grupo_10" data-name="Grupo 10" transform="translate(-640 2983.205)">
      <path id="Unión_1" data-name="Unión 1" d="M20.822,39.382H14.5A14.5,14.5,0,0,1,0,24.882V14.5A14.5,14.5,0,0,1,14.5,0H37A14.5,14.5,0,0,1,51.5,14.5V24.882A14.5,14.5,0,0,1,37,39.382H30.728l-4.953,4.953Z" transform="translate(791.5 167.5)" fill="#ffb74d" stroke="#ff9800" stroke-width="2"/>
      <g id="user" transform="translate(808.295 183.005)">
        <path id="Trazado_4" data-name="Trazado 4" d="M19.91,17.3v.821a1.816,1.816,0,0,1-1.791,1.791H3.791A1.816,1.816,0,0,1,2,18.119V17.3c0-2.164,2.537-3.507,4.925-4.552l.224-.112a.6.6,0,0,1,.56.037,5.79,5.79,0,0,0,3.209.97,6.006,6.006,0,0,0,3.209-.97.6.6,0,0,1,.56-.037l.224.112C17.372,13.791,19.91,15.1,19.91,17.3ZM10.955,2a4.692,4.692,0,0,1,4.44,4.925,4.692,4.692,0,0,1-4.44,4.925,4.692,4.692,0,0,1-4.44-4.925A4.692,4.692,0,0,1,10.955,2Z" transform="translate(-2 -2)" fill="#fff"/>
      </g>
      <g id="user-2" data-name="user" transform="translate(797.628 177.364)">
        <path id="Trazado_4-2" data-name="Trazado 4" d="M19.91,17.3v.821a1.816,1.816,0,0,1-1.791,1.791H3.791A1.816,1.816,0,0,1,2,18.119V17.3c0-2.164,2.537-3.507,4.925-4.552l.224-.112a.6.6,0,0,1,.56.037,5.79,5.79,0,0,0,3.209.97,6.006,6.006,0,0,0,3.209-.97.6.6,0,0,1,.56-.037l.224.112C17.372,13.791,19.91,15.1,19.91,17.3ZM10.955,2a4.692,4.692,0,0,1,4.44,4.925,4.692,4.692,0,0,1-4.44,4.925,4.692,4.692,0,0,1-4.44-4.925A4.692,4.692,0,0,1,10.955,2Z" transform="translate(-2 -2)" fill="#fff"/>
      </g>
      <g id="user-3" data-name="user" transform="translate(818.962 177.364)">
        <path id="Trazado_4-3" data-name="Trazado 4" d="M19.91,17.3v.821a1.816,1.816,0,0,1-1.791,1.791H3.791A1.816,1.816,0,0,1,2,18.119V17.3c0-2.164,2.537-3.507,4.925-4.552l.224-.112a.6.6,0,0,1,.56.037,5.79,5.79,0,0,0,3.209.97,6.006,6.006,0,0,0,3.209-.97.6.6,0,0,1,.56-.037l.224.112C17.372,13.791,19.91,15.1,19.91,17.3ZM10.955,2a4.692,4.692,0,0,1,4.44,4.925,4.692,4.692,0,0,1-4.44,4.925,4.692,4.692,0,0,1-4.44-4.925A4.692,4.692,0,0,1,10.955,2Z" transform="translate(-2 -2)" fill="#fff"/>
      </g>
    </g>
    <path id="Trazado_26" data-name="Trazado 26" d="M246.154,3303.847H231.538" transform="translate(-92 -146)" fill="none" stroke="#ffee58" stroke-linecap="round" stroke-width="5"/>
    <path id="Trazado_27" data-name="Trazado 27" d="M238.846,3303.847h-7.308" transform="translate(-84.692 -138)" fill="none" stroke="#ffee58" stroke-linecap="round" stroke-width="5"/>
  </g>
</svg>
