<svg xmlns="http://www.w3.org/2000/svg" width="70" height="70" viewBox="0 0 70 70">
  <g id="Grupo_135" data-name="Grupo 135" transform="translate(-934 -3138)">
    <circle id="Elipse_80" data-name="Elipse 80" cx="35" cy="35" r="35" transform="translate(934 3138)" fill="#cfe5fb"/>
    <path id="Unión_4" data-name="Unión 4" d="M1714.5-109.617H1690a11,11,0,0,1-11-11V-138a11,11,0,0,1,11-11h29.5a11,11,0,0,1,11,11v17.382a10.952,10.952,0,0,1-1.231,5.061l.012,0-.033.038a11.056,11.056,0,0,1-3.522,3.967L1714.5-98.9Z" transform="translate(-735.5 3302)" fill="#ffb74d" stroke="#ff9800" stroke-width="2"/>
    <path id="Trazado_127" data-name="Trazado 127" d="M4,0A4,4,0,1,1,0,4,4,4,0,0,1,4,0Z" transform="translate(955 3168)" fill="#111e61"/>
    <circle id="Elipse_35" data-name="Elipse 35" cx="4" cy="4" r="4" transform="translate(967 3168)" fill="#fff"/>
    <circle id="Elipse_36" data-name="Elipse 36" cx="4" cy="4" r="4" transform="translate(978 3168)" fill="#fff"/>
  </g>
</svg>
