<svg xmlns="http://www.w3.org/2000/svg" width="92" height="92" viewBox="0 0 92 92">
  <g id="Grupo_31685" data-name="Grupo 31685" transform="translate(-783 -5719)">
    <g id="Grupo_31684" data-name="Grupo 31684">
      <rect id="Rect치ngulo_4506" data-name="Rect치ngulo 4506" width="92" height="92" rx="10" transform="translate(783 5719)" fill="#ffe2b8"/>
      <rect id="Rect치ngulo_4511" data-name="Rect치ngulo 4511" width="76" height="76" rx="10" transform="translate(791 5727)" fill="#fff1db"/>
    </g>
    <g id="reserva-en-linea1" transform="translate(777.479 5733.212)">
      <path id="Trazado_19193" data-name="Trazado 19193" d="M77.563,43.552H23.193A3.653,3.653,0,0,1,19.54,39.9V3.653A3.653,3.653,0,0,1,23.193,0h54.37a3.653,3.653,0,0,1,3.653,3.653V39.9A3.653,3.653,0,0,1,77.563,43.552Z" fill="#365e7d"/>
      <path id="Trazado_19194" data-name="Trazado 19194" d="M426.611,0H424.13a3.653,3.653,0,0,1,3.653,3.653V39.9a3.653,3.653,0,0,1-3.653,3.653h2.481a3.653,3.653,0,0,0,3.653-3.653V3.653A3.653,3.653,0,0,0,426.611,0Z" transform="translate(-349.047)" fill="#2b4d66"/>
      <path id="Trazado_19195" data-name="Trazado 19195" d="M116.449,35.425h-50a.2.2,0,0,0-.2.21V69.041a.2.2,0,0,0,.2.21h50a.2.2,0,0,0,.2-.21V35.635A.2.2,0,0,0,116.449,35.425Z" transform="translate(-40.295 -30.562)" fill="#cbe2ff"/>
      <path id="Trazado_19196" data-name="Trazado 19196" d="M411.69,35.425h-3.222a.2.2,0,0,1,.2.21V69.041a.2.2,0,0,1-.2.21h3.222a.2.2,0,0,0,.2-.21V35.635A.2.2,0,0,0,411.69,35.425Z" transform="translate(-335.535 -30.562)" fill="#9dc6fb"/>
      <g id="Grupo_29227" data-name="Grupo 29227" transform="translate(21.717 19.849)">
        <path id="Trazado_19197" data-name="Trazado 19197" d="M36.457,148.443a1.061,1.061,0,0,1-1.061-1.061V145.65a1.061,1.061,0,0,1,2.121,0v1.732A1.061,1.061,0,0,1,36.457,148.443Z" transform="translate(-35.396 -144.589)" fill="#2b4d66"/>
      </g>
      <path id="Trazado_19198" data-name="Trazado 19198" d="M321.969,184.3H311.91a1.479,1.479,0,0,1-1.479-1.479v-4.051a1.479,1.479,0,0,1,1.479-1.479h10.059a1.479,1.479,0,0,1,1.479,1.479v4.051A1.479,1.479,0,0,1,321.969,184.3Z" transform="translate(-250.957 -152.95)" fill="#b3e59f"/>
      <path id="Trazado_19199" data-name="Trazado 19199" d="M375.566,177.288h-3.009a1.479,1.479,0,0,1,1.479,1.479v4.051a1.479,1.479,0,0,1-1.479,1.479h3.009a1.479,1.479,0,0,0,1.479-1.479v-4.051A1.479,1.479,0,0,0,375.566,177.288Z" transform="translate(-304.554 -152.95)" fill="#95d6a4"/>
      <g id="Grupo_29228" data-name="Grupo 29228" transform="translate(55.366 44.865)">
        <path id="Trazado_19200" data-name="Trazado 19200" d="M305.166,352.235a.653.653,0,0,0,.653-.653v-6.412a4.946,4.946,0,0,1,.74-2.619l2.115-3.379a6.3,6.3,0,0,0,.589-5.345l-1-2.913-1.937-4.1H292.012l-2.831,3.532a.915.915,0,0,1-1.114.25l-4.265-2.077a2.19,2.19,0,0,0-2.622.553,2.774,2.774,0,0,0,.03,3.654l6.381,6.909a4.394,4.394,0,0,1,1.133,2.977v8.972a.653.653,0,0,0,.653.653Z" transform="translate(-280.508 -326.812)" fill="#f1d0a5"/>
      </g>
      <g id="Grupo_29229" data-name="Grupo 29229" transform="translate(78.016 44.786)">
        <path id="Trazado_19201" data-name="Trazado 19201" d="M451.6,333.33l-1-2.913-1.937-4.1-2.252-.079,1.746,4.181.783,2.913a6.3,6.3,0,0,1-.589,5.345l-2.115,3.379a4.946,4.946,0,0,0-.74,2.618v7.065h2.009a.653.653,0,0,0,.653-.653v-6.412a4.945,4.945,0,0,1,.74-2.618l2.115-3.379A6.3,6.3,0,0,0,451.6,333.33Z" transform="translate(-445.498 -326.236)" fill="#f1b986"/>
      </g>
      <g id="Grupo_29230" data-name="Grupo 29230" transform="translate(63.582 28.053)">
        <path id="Trazado_19202" data-name="Trazado 19202" d="M345.238,225.259V207.035a2.454,2.454,0,1,0-4.884,0v18.224Z" transform="translate(-340.354 -204.344)" fill="#f1d0a5"/>
        <path id="Trazado_19203" data-name="Trazado 19203" d="M380.818,296.925v-7.878a1.74,1.74,0,0,0-1.83-1.633h-1.224a1.74,1.74,0,0,0-1.83,1.633v7.878Z" transform="translate(-371.049 -276.011)" fill="#f1d0a5"/>
        <path id="Trazado_19204" data-name="Trazado 19204" d="M416.4,296.925v-7.878a1.74,1.74,0,0,0-1.83-1.633h-1.224a1.74,1.74,0,0,0-1.83,1.633v7.878Z" transform="translate(-401.746 -276.011)" fill="#f1d0a5"/>
        <path id="Trazado_19205" data-name="Trazado 19205" d="M451.979,296.925v-7.878a1.74,1.74,0,0,0-1.83-1.633h-1.224a1.74,1.74,0,0,0-1.83,1.633v7.878Z" transform="translate(-432.441 -276.011)" fill="#f1d0a5"/>
      </g>
      <path id="Trazado_19206" data-name="Trazado 19206" d="M457.823,287.415H456.6a2.024,2.024,0,0,0-.609.095,1.656,1.656,0,0,1,1.221,1.538v7.878h2.442v-7.878A1.74,1.74,0,0,0,457.823,287.415Z" transform="translate(-376.534 -247.958)" fill="#f1b986"/>
      <g id="Grupo_29231" data-name="Grupo 29231" transform="translate(67.406 40.029)">
        <path id="Trazado_19207" data-name="Trazado 19207" d="M369.269,301.581a1.061,1.061,0,0,1-1.061-1.061v-7.878a1.061,1.061,0,0,1,2.121,0v7.878A1.061,1.061,0,0,1,369.269,301.581Z" transform="translate(-368.208 -291.582)" fill="#f1b986"/>
      </g>
      <g id="Grupo_29232" data-name="Grupo 29232" transform="translate(72.29 40.029)">
        <path id="Trazado_19208" data-name="Trazado 19208" d="M404.849,301.581a1.061,1.061,0,0,1-1.061-1.061v-7.878a1.061,1.061,0,0,1,2.121,0v7.878A1.06,1.06,0,0,1,404.849,301.581Z" transform="translate(-403.788 -291.582)" fill="#f1b986"/>
      </g>
      <g id="Grupo_29233" data-name="Grupo 29233" transform="translate(77.175 40.029)">
        <path id="Trazado_19209" data-name="Trazado 19209" d="M440.43,301.581a1.061,1.061,0,0,1-1.061-1.061v-7.878a1.061,1.061,0,1,1,2.121,0v7.878A1.061,1.061,0,0,1,440.43,301.581Z" transform="translate(-439.369 -291.582)" fill="#f1b986"/>
      </g>
      <path id="Trazado_19210" data-name="Trazado 19210" d="M124.719,160.592H106.662v-4.044a2.258,2.258,0,0,1,2.258-2.258h13.54a2.258,2.258,0,0,1,2.258,2.258v4.044Z" transform="translate(-75.162 -133.109)" fill="#f9f6f9"/>
      <path id="Trazado_19211" data-name="Trazado 19211" d="M199.3,154.29h-3.571a2.258,2.258,0,0,1,2.258,2.258v4.044h3.571v-4.044A2.258,2.258,0,0,0,199.3,154.29Z" transform="translate(-152.006 -133.109)" fill="#dddaec"/>
      <path id="Trazado_19212" data-name="Trazado 19212" d="M140,104.314H127.727v-6.6a1.349,1.349,0,0,1,1.349-1.349h9.575A1.349,1.349,0,0,1,140,97.71v6.6Z" transform="translate(-93.335 -83.132)" fill="#eab14d"/>
      <path id="Trazado_19213" data-name="Trazado 19213" d="M185.389,96.361H181.9a1.349,1.349,0,0,1,1.349,1.349v6.6h3.487v-6.6a1.349,1.349,0,0,0-1.349-1.349Z" transform="translate(-140.073 -83.132)" fill="#e7a52e"/>
      <g id="Grupo_29234" data-name="Grupo 29234" transform="translate(28.749 26.423)">
        <path id="Trazado_19214" data-name="Trazado 19214" d="M109.118,194.593H87.679a1.061,1.061,0,1,1,0-2.121h21.439a1.061,1.061,0,1,1,0,2.121Z" transform="translate(-86.618 -192.472)" fill="#eab14d"/>
      </g>
      <g id="Grupo_29235" data-name="Grupo 29235" transform="translate(36.449 31.483)">
        <path id="Trazado_19215" data-name="Trazado 19215" d="M149.809,231.452H143.77a1.061,1.061,0,0,1,0-2.121h6.039a1.061,1.061,0,1,1,0,2.121Z" transform="translate(-142.709 -229.331)" fill="#2b4d66"/>
      </g>
      <g id="Grupo_29236" data-name="Grupo 29236" transform="translate(58.667 9.061)">
        <path id="Trazado_19216" data-name="Trazado 19216" d="M318.122,68.121h-12.51a1.061,1.061,0,1,1,0-2.121h12.51a1.061,1.061,0,1,1,0,2.121Z" transform="translate(-304.552 -66)" fill="#2b4d66"/>
      </g>
      <g id="Grupo_29237" data-name="Grupo 29237" transform="translate(58.667 13.496)">
        <path id="Trazado_19217" data-name="Trazado 19217" d="M318.122,100.432h-12.51a1.061,1.061,0,1,1,0-2.121h12.51a1.061,1.061,0,1,1,0,2.121Z" transform="translate(-304.552 -98.311)" fill="#2b4d66"/>
      </g>
      <g id="Grupo_29238" data-name="Grupo 29238" transform="translate(58.667 17.932)">
        <path id="Trazado_19218" data-name="Trazado 19218" d="M318.122,132.742h-12.51a1.061,1.061,0,1,1,0-2.121h12.51a1.061,1.061,0,1,1,0,2.121Z" transform="translate(-304.552 -130.621)" fill="#2b4d66"/>
      </g>
    </g>
  </g>
</svg>
