<?xml version="1.0" encoding="UTF-8" standalone="no"?><!DOCTYPE svg PUBLIC "-//W3C//DTD SVG 1.1//EN" "http://www.w3.org/Graphics/SVG/1.1/DTD/svg11.dtd"><svg width="100%" height="100%" viewBox="0 0 93 93" version="1.1" xmlns="http://www.w3.org/2000/svg" xmlns:xlink="http://www.w3.org/1999/xlink" xml:space="preserve" xmlns:serif="http://www.serif.com/" style="fill-rule:evenodd;clip-rule:evenodd;stroke-linejoin:round;stroke-miterlimit:2;"><g id="seleccionar"></g><rect id="Mesa-de-trabajo1" serif:id="Mesa de trabajo1" x="0" y="0" width="93" height="93" style="fill:none;"/><clipPath id="_clip1"><rect x="0" y="0" width="93" height="93"/></clipPath><g clip-path="url(#_clip1)"><g><path id="Trazado_2748" d="M12.336,72.276l-0,-19.774l-3,-0l0,19.774c-1.793,0.635 -3,2.34 -3,4.243c0,2.468 2.031,4.499 4.5,4.499c2.468,0 4.5,-2.031 4.5,-4.499c-0,-1.903 -1.207,-3.608 -3,-4.243Zm-1.5,5.724c-0.823,0 -1.5,-0.677 -1.5,-1.499c0,-0.823 0.677,-1.5 1.5,-1.5c0.823,-0 1.5,0.677 1.5,1.5c-0.001,0.822 -0.677,1.499 -1.5,1.499Z" style="fill:#ffb74d;fill-rule:nonzero;"/><path id="Trazado_2749" d="M19.849,52.502l-0.025,-0c-2.463,-0 -4.489,2.026 -4.489,4.488c0,1.901 1.208,3.605 3.001,4.235l0,19.775l3,0l0,-19.775c1.794,-0.63 3.002,-2.334 3.002,-4.235c-0,-2.462 -2.027,-4.488 -4.489,-4.488Zm-0.013,5.999c-0.822,0 -1.5,-0.677 -1.5,-1.5c0,-0.822 0.678,-1.5 1.5,-1.5c0.823,0 1.5,0.678 1.5,1.5c-0,0.823 -0.677,1.5 -1.5,1.5Z" style="fill:#ffb74d;fill-rule:nonzero;"/><path id="Trazado_2750" d="M78.334,72.276l0,-19.774l-2.999,-0l-0,19.774c-1.794,0.635 -3,2.34 -3,4.243c-0,2.468 2.031,4.499 4.5,4.499c2.468,0 4.499,-2.031 4.499,-4.499c0,-1.903 -1.206,-3.608 -3,-4.243Zm-1.499,5.724c-0.823,0 -1.5,-0.677 -1.5,-1.499c-0,-0.823 0.677,-1.5 1.5,-1.5c0.822,-0 1.499,0.677 1.499,1.5c-0,0.822 -0.677,1.499 -1.499,1.499Z" style="fill:#ffb74d;fill-rule:nonzero;"/><path id="Trazado_2751" d="M85.846,52.502l-0.025,-0c-2.462,-0 -4.488,2.026 -4.488,4.488c-0,1.901 1.207,3.605 3.001,4.235l0,19.775l3,0l-0,-19.775c1.793,-0.63 3.001,-2.334 3.001,-4.235c0,-2.462 -2.026,-4.488 -4.489,-4.488Zm-0.012,5.999c-0.823,0 -1.5,-0.677 -1.5,-1.5c0,-0.822 0.677,-1.5 1.5,-1.5c0.823,0 1.5,0.678 1.5,1.5c-0.001,0.823 -0.677,1.5 -1.5,1.5Z" style="fill:#ffb74d;fill-rule:nonzero;"/><path id="Trazado_2752" d="M64.835,48.002c-0.574,0.002 -1.142,0.114 -1.674,0.33c-0.512,-1.955 -2.293,-3.329 -4.314,-3.329c-1.114,0 -2.188,0.417 -3.01,1.169c-1.207,-1.125 -2.954,-1.472 -4.5,-0.895l0,-12.905c6.213,-1.783 10.837,-7.047 11.803,-13.438l6.342,3.489c-3.724,2.776 -5.923,7.157 -5.923,11.802c-0,8.075 6.645,14.72 14.72,14.72c8.076,0 14.721,-6.645 14.721,-14.72c0,-8.075 -6.645,-14.72 -14.721,-14.72c-1.975,0 -3.931,0.398 -5.749,1.169l-9.241,-5.084c-0.469,-8.692 -7.749,-15.59 -16.453,-15.59c-8.705,0 -15.985,6.898 -16.454,15.59l-9.241,5.081c-1.887,-0.808 -3.919,-1.225 -5.973,-1.225c-8.321,-0 -15.168,6.847 -15.168,15.168c-0,8.32 6.847,15.167 15.168,15.167c8.321,0 15.168,-6.847 15.168,-15.167c0,-4.806 -2.284,-9.337 -6.148,-12.195l6.344,-3.489c0.963,6.394 5.59,11.661 11.806,13.441l-0,27.65c-0,0.686 -0.157,1.362 -0.459,1.978l-1.26,-6.29c-0.91,-4.495 -4.893,-7.76 -9.48,-7.771c-0,0 -0.001,0 -0.001,0c-2.086,0 -3.802,1.716 -3.802,3.802c0,0.751 0.223,1.485 0.639,2.109l1.544,2.316c0.573,0.861 0.939,1.844 1.068,2.87l1.039,8.304c0.16,1.344 0.587,2.643 1.255,3.821l4.953,10.185l0,2.655l-2.999,-0l0,9l33,0l0,-8.999l-3,-0l0,-2.501l2.4,-3.199c1.359,-1.819 2.096,-4.029 2.1,-6.3l0,-19.494c-0.003,-2.467 -2.032,-4.497 -4.5,-4.5l0,-0.005Zm13.499,-1.5c-2.594,-0 -5.118,-0.848 -7.188,-2.413c1.699,-2.256 4.364,-3.586 7.188,-3.586c2.824,0 5.489,1.33 7.188,3.586c-2.069,1.565 -4.594,2.412 -7.188,2.413Zm-4.494,-13.499c-0,-0.001 -0,-0.001 -0,-0.001c-0,-2.469 2.031,-4.5 4.499,-4.5c2.469,-0 4.5,2.031 4.5,4.5c0,2.468 -2.031,4.499 -4.5,4.499c-0.001,0 -0.003,0 -0.005,0c-2.465,-0.006 -4.49,-2.034 -4.494,-4.498Zm4.499,-10.499c0.005,-0.001 0.011,-0.001 0.016,-0.001c6.575,0 11.986,5.411 11.986,11.986c-0,2.735 -0.936,5.39 -2.652,7.52c-1.179,-1.468 -2.686,-2.637 -4.4,-3.414c1.619,-1.423 2.548,-3.477 2.548,-5.632c-0,-4.114 -3.385,-7.5 -7.5,-7.5c-4.114,0 -7.499,3.386 -7.499,7.5c-0,2.155 0.929,4.209 2.548,5.632c-1.713,0.779 -3.219,1.949 -4.396,3.417c-1.716,-2.13 -2.652,-4.785 -2.652,-7.52c-0,-6.575 5.411,-11.986 11.986,-11.986c0.005,0 0.01,0 0.015,0l0,-0.002Zm-63.002,23.998c-2.595,-0 -5.119,-0.848 -7.189,-2.413c1.699,-2.256 4.364,-3.586 7.188,-3.586c2.824,0 5.489,1.33 7.188,3.586c-2.069,1.565 -4.593,2.412 -7.187,2.413Zm-4.501,-13.499c-0,-0.001 -0,-0.001 -0,-0.001c-0,-2.469 2.031,-4.5 4.5,-4.5c2.468,-0 4.499,2.031 4.499,4.5c0,2.468 -2.03,4.499 -4.498,4.499c-2.468,-0.003 -4.497,-2.031 -4.501,-4.498Zm16.5,1.499c0.001,2.731 -0.936,5.381 -2.652,7.506c-1.177,-1.468 -2.683,-2.639 -4.396,-3.417c1.619,-1.423 2.548,-3.477 2.548,-5.632c0,-4.114 -3.385,-7.5 -7.499,-7.5c-4.114,0 -7.5,3.386 -7.5,7.5c0,2.155 0.929,4.209 2.548,5.632c-1.712,0.779 -3.218,1.949 -4.396,3.417c-1.71,-2.13 -2.643,-4.78 -2.643,-7.511c0,-6.58 5.415,-11.995 11.996,-11.995c6.58,-0 11.995,5.415 11.995,11.995c-0,0.002 -0,0.004 -0,0.005l-0.001,0Zm5.999,-18.002c0,-0.012 0,-0.024 0,-0.037c0,-7.405 6.095,-13.499 13.5,-13.499c7.406,-0 13.501,6.094 13.501,13.499c-0,2.957 -0.972,5.834 -2.764,8.185c-1.223,-2.467 -3.262,-4.437 -5.769,-5.575c1.606,-1.422 2.526,-3.468 2.526,-5.613c0,-4.114 -3.385,-7.499 -7.499,-7.499c-4.115,-0 -7.5,3.385 -7.5,7.499c0,2.145 0.921,4.191 2.526,5.613c-2.507,1.138 -4.546,3.109 -5.768,5.577c-1.787,-2.341 -2.757,-5.204 -2.762,-8.149l0.009,-0.001Zm18.003,-3c0,2.469 -2.031,4.5 -4.499,4.5c-2.469,-0 -4.5,-2.031 -4.5,-4.5c-0,-2.468 2.031,-4.499 4.5,-4.499c2.467,0.005 4.495,2.036 4.496,4.503l0.003,-0.004Zm-12.959,13.508c1.256,-3.582 4.658,-5.995 8.455,-5.995c3.796,-0 7.198,2.413 8.454,5.995c-1.331,1.082 -2.858,1.898 -4.497,2.404c-0.766,-1.476 -2.296,-2.405 -3.959,-2.405c-1.663,-0 -3.193,0.929 -3.959,2.405c-1.638,-0.506 -3.164,-1.322 -4.494,-2.404Zm26.457,62.992l-27.002,0l0,-2.999l27.001,-0l0.001,2.999Zm1.5,-18.002c-0.003,1.622 -0.529,3.2 -1.5,4.5l-2.999,4l-0,3.499l-21.001,-0l-0,-3.341l-5.304,-10.9c-0.493,-0.857 -0.809,-1.804 -0.93,-2.785l-1.038,-8.305c-0.187,-1.487 -0.718,-2.91 -1.548,-4.157l-1.542,-2.322c-0.088,-0.131 -0.135,-0.287 -0.135,-0.445c-0,-0.44 0.362,-0.803 0.802,-0.803c3.163,0.009 5.908,2.26 6.536,5.36l1.929,9.64l3.657,-0l1.281,-2.563c0.52,-1.041 0.793,-2.189 0.796,-3.353l-0,-28.52c-0,-0.823 0.677,-1.5 1.5,-1.5c0.822,-0 1.499,0.677 1.499,1.5l0,24l3,0l0,-6.001c0,-0.823 0.677,-1.5 1.5,-1.5c0.823,0 1.5,0.677 1.5,1.5l0,6.001l3,0l-0,-6.001c-0,-0.823 0.677,-1.5 1.5,-1.5c0.823,0 1.5,0.677 1.5,1.5l-0,6.001l2.999,0l0,-3.001c0,-0.823 0.677,-1.5 1.5,-1.5c0.823,-0 1.5,0.677 1.5,1.5l-0.002,19.496Z" style="fill:#ffb74d;fill-rule:nonzero;"/></g></g></svg>