<?xml version="1.0" encoding="UTF-8" standalone="no"?><!DOCTYPE svg PUBLIC "-//W3C//DTD SVG 1.1//EN" "http://www.w3.org/Graphics/SVG/1.1/DTD/svg11.dtd"><svg width="100%" height="100%" viewBox="0 0 93 93" version="1.1" xmlns="http://www.w3.org/2000/svg" xmlns:xlink="http://www.w3.org/1999/xlink" xml:space="preserve" xmlns:serif="http://www.serif.com/" style="fill-rule:evenodd;clip-rule:evenodd;stroke-linejoin:round;stroke-miterlimit:2;"><rect id="Mesa-de-trabajo1" serif:id="Mesa de trabajo1" x="0" y="0" width="93" height="93" style="fill:none;"/><g><path id="Trazado_2753" d="M72.104,11.574c-0,-0.991 -0.816,-1.806 -1.806,-1.806l-0.01,-0c-0.987,0.006 -1.796,0.819 -1.796,1.806c0,0.991 0.816,1.806 1.807,1.806c0.99,0 1.806,-0.815 1.806,-1.806l-0.001,0Z" style="fill:#ffb74d;fill-rule:nonzero;"/><path id="Trazado_2754" d="M81.853,11.574c0,-0.991 -0.815,-1.806 -1.806,-1.806l-0.01,-0c-0.987,0.006 -1.795,0.819 -1.795,1.806c-0,0.991 0.815,1.806 1.806,1.806c0.991,0 1.806,-0.815 1.806,-1.806l-0.001,0Z" style="fill:#ffb74d;fill-rule:nonzero;"/><path id="Trazado_2755" d="M62.358,11.574c0,-0.991 -0.815,-1.806 -1.806,-1.806l-0.01,-0c-0.986,0.006 -1.795,0.819 -1.795,1.806c0,0.991 0.815,1.806 1.806,1.806c0.991,0 1.806,-0.815 1.806,-1.806l-0.001,0Z" style="fill:#ffb74d;fill-rule:nonzero;"/><path id="Trazado_2756" d="M11.142,11.574c-0,0.991 0.815,1.806 1.806,1.806l27.144,0c0.991,0 1.806,-0.815 1.806,-1.806c0,-0.991 -0.815,-1.806 -1.806,-1.806l-27.144,-0c-0.991,-0 -1.806,0.815 -1.806,1.806Z" style="fill:#ffb74d;fill-rule:nonzero;"/><path id="Trazado_2757" d="M86.948,0.259l-56.544,-0c-0.991,-0 -1.806,0.815 -1.806,1.806c-0,0.991 0.815,1.806 1.806,1.806l56.544,0c1.197,0.002 2.181,0.986 2.183,2.183l-0,13.227l-85.263,-0l0,-13.226c0.002,-1.198 0.986,-2.183 2.184,-2.184l8.126,0c0.991,0 1.806,-0.815 1.806,-1.806c-0,-0.991 -0.815,-1.806 -1.806,-1.806l-8.126,-0c-3.179,0.003 -5.793,2.617 -5.796,5.796l-0,66.888c0.003,3.178 2.617,5.792 5.796,5.795l22.579,0c4.369,4.147 10.05,6.644 16.06,7.059l-0,5.144c-0,0.991 0.815,1.806 1.806,1.806c0.991,0 1.806,-0.815 1.806,-1.806l0,-5.144c6.011,-0.415 11.693,-2.912 16.064,-7.059l22.581,0c3.179,-0.003 5.793,-2.617 5.796,-5.795l0,-66.888c-0.003,-3.179 -2.617,-5.793 -5.796,-5.796Zm-62.786,61.381l5.902,0c0.853,7.67 6.958,13.776 14.627,14.632l-0,5.902c-10.898,-0.898 -19.634,-9.635 -20.529,-20.534Zm38.776,-3.612c-0.855,-7.67 -6.963,-13.776 -14.634,-14.628l0,-5.902c10.899,0.896 19.636,9.631 20.534,20.529l-5.9,0.001Zm-16.441,14.731c-7.088,-0.002 -12.92,-5.835 -12.92,-12.923c0,-7.089 5.834,-12.923 12.923,-12.923c7.088,0 12.922,5.833 12.923,12.921c-0.007,7.088 -5.838,12.918 -12.926,12.925Zm-1.806,-29.359c-7.668,0.854 -13.773,6.959 -14.627,14.627l-5.902,-0c0.897,-10.897 9.632,-19.632 20.529,-20.529l-0,5.902Zm3.612,32.872c7.671,-0.854 13.779,-6.961 14.633,-14.632l5.902,0c-0.899,10.899 -9.635,19.636 -20.534,20.535l-0.001,-5.903Zm38.651,-1.148l-19.41,-0c2.877,-3.941 4.581,-8.617 4.915,-13.485l5.144,0c0.991,0 1.806,-0.815 1.806,-1.806c-0,-0.991 -0.815,-1.806 -1.806,-1.806l-5.144,-0c-0.915,-12.882 -11.274,-23.239 -24.156,-24.151l0,-5.144c0,-0.99 -0.815,-1.806 -1.806,-1.806c-0.991,0 -1.806,0.816 -1.806,1.806l-0,5.144c-12.881,0.913 -23.238,11.27 -24.151,24.151l-5.144,-0c-0.991,-0 -1.806,0.815 -1.806,1.806c0,0.991 0.815,1.806 1.806,1.806l5.144,0c0.334,4.868 2.038,9.544 4.914,13.485l-19.402,-0c-1.197,-0.002 -2.181,-0.986 -2.183,-2.182l0,-50.053l85.268,0l-0,50.053c-0.002,1.196 -0.986,2.18 -2.183,2.182Z" style="fill:#ffb74d;fill-rule:nonzero;"/><path id="Trazado_2758" d="M52.722,54.501c-0.325,-0.272 -0.736,-0.422 -1.16,-0.422c-0.535,0 -1.042,0.237 -1.385,0.647l-5.45,6.504l-2.126,-1.801c-0.327,-0.277 -0.741,-0.429 -1.168,-0.429c-0.991,0 -1.807,0.816 -1.807,1.807c0,0.531 0.234,1.035 0.639,1.378l3.513,2.976c0.326,0.276 0.74,0.428 1.167,0.428c0.533,-0.006 1.038,-0.242 1.385,-0.646l6.615,-7.895c0.273,-0.326 0.422,-0.737 0.422,-1.161c0,-0.534 -0.236,-1.042 -0.646,-1.385l0.001,-0.001Z" style="fill:#ffb74d;fill-rule:nonzero;"/><path id="Trazado_2759" d="M22.293,3.871l0.005,0c0.991,-0.001 1.807,-0.817 1.807,-1.809c-0,-0.992 -0.817,-1.809 -1.81,-1.809c-0.992,-0 -1.809,0.817 -1.809,1.809c0,0.992 0.815,1.808 1.807,1.809Z" style="fill:#ffb74d;fill-rule:nonzero;"/></g></svg>