<?xml version="1.0" encoding="UTF-8" standalone="no"?><!DOCTYPE svg PUBLIC "-//W3C//DTD SVG 1.1//EN" "http://www.w3.org/Graphics/SVG/1.1/DTD/svg11.dtd"><svg width="100%" height="100%" viewBox="0 0 93 93" version="1.1" xmlns="http://www.w3.org/2000/svg" xmlns:xlink="http://www.w3.org/1999/xlink" xml:space="preserve" xmlns:serif="http://www.serif.com/" style="fill-rule:evenodd;clip-rule:evenodd;stroke-linejoin:round;stroke-miterlimit:2;"><g id="Grupo_26348"></g><g id="Grupo_26350"></g><g id="Grupo_26352"></g><g id="Grupo_26354"></g><g id="Grupo_26356"></g><g id="Grupo_26358"></g><g id="Grupo_26360"></g><g id="Grupo_26362"></g><g id="Grupo_26364"></g><g id="Grupo_26366"></g><g id="Grupo_26368"></g><g id="Grupo_26370"></g><g id="Grupo_26372"></g><g id="Grupo_26374"></g><g id="Grupo_26376"></g><g id="Grupo_26378"></g><g id="Grupo_26380"></g><rect id="Mesa-de-trabajo1" serif:id="Mesa de trabajo1" x="0" y="0" width="93" height="93" style="fill:none;"/><g><g id="Grupo_26347"><path id="Trazado_2760" d="M87,30c-3.29,0.003 -5.997,2.71 -6,6l0,16.74c-0,1.313 -0.575,2.563 -1.572,3.417l-6.718,5.76c-0.815,0.699 -1.854,1.083 -2.928,1.083l-5.275,0l5.8,-6.53c1.09,-1.223 1.692,-2.805 1.693,-4.443l0,-0.34c0,-3.669 -3.019,-6.688 -6.688,-6.688c-1.895,0 -3.704,0.806 -4.972,2.215l-8.1,9c-2.731,3.027 -4.243,6.964 -4.24,11.041l0,16.745l-3,0l0,-16.745c0.002,-4.075 -1.508,-8.01 -4.236,-11.037l-8.1,-9c-1.268,-1.411 -3.078,-2.218 -4.975,-2.218c-3.669,0 -6.688,3.019 -6.689,6.688l0,0.338c-0,1.638 0.601,3.22 1.689,4.444l5.8,6.53l-5.27,-0c-1.074,-0 -2.113,-0.384 -2.928,-1.083l-6.719,-5.76c-0.997,-0.854 -1.572,-2.104 -1.572,-3.417l0,-16.74c0,-3.292 -2.708,-6 -6,-6c-3.292,-0 -6,2.708 -6,6l0,18.9c0.004,4.622 1.946,9.037 5.35,12.164l10.218,9.366c1.547,1.422 2.43,3.429 2.432,5.53l0,2.04l-3,-0l0,9l63,-0l0,-9l-3,-0l0,-2.04c0.002,-2.101 0.885,-4.108 2.433,-5.529l10.218,-9.366c3.403,-3.128 5.345,-7.543 5.349,-12.165l0,-18.9c-0.003,-3.29 -2.71,-5.997 -6,-6Zm-42,60l-27,-0l0,-3l18,-0l0,-3l-15,-0l0,-2.04c-0.003,-2.942 -1.239,-5.752 -3.405,-7.742l-10.218,-9.366c-2.785,-2.558 -4.374,-6.17 -4.377,-9.952l0,-18.9c0,-1.646 1.354,-3 3,-3c1.646,0 3,1.354 3,3l0,16.74c-0.001,2.188 0.957,4.271 2.619,5.694l6.72,5.76c1.359,1.165 3.09,1.806 4.88,1.806l7.939,0l2.22,2.5l2.242,-2l-10.688,-12.021c-0.6,-0.675 -0.932,-1.548 -0.932,-2.452l-0,-0.337c-0,-2.024 1.665,-3.689 3.689,-3.689c1.045,-0 2.042,0.444 2.741,1.22l8.1,9c2.235,2.477 3.473,5.698 3.47,9.034l0,16.745l-3,0l0,3l6,0l0,3Zm45,-35.1c-0.003,3.781 -1.592,7.393 -4.377,9.951l-10.223,9.367c-2.164,1.991 -3.398,4.801 -3.4,7.742l0,2.04l-15,-0l0,3l18,-0l0,3l-27,-0l0,-3l6,-0l0,-3l-3,-0l0,-16.745c-0.002,-3.334 1.233,-6.554 3.465,-9.031l8.1,-9c0.7,-0.778 1.698,-1.222 2.744,-1.222c2.023,-0 3.688,1.663 3.691,3.686l0,0.338c0,0.904 -0.332,1.776 -0.933,2.451l-10.689,12.023l2.242,2l2.22,-2.5l7.94,-0c1.79,-0 3.522,-0.641 4.881,-1.806l6.718,-5.76c1.664,-1.422 2.622,-3.505 2.621,-5.694l0,-16.74c0,-1.646 1.354,-3 3,-3c1.646,-0 3,1.354 3,3l0,18.9Z" style="fill:#ffb74d;fill-rule:nonzero;"/></g><g id="Grupo_26349"><path id="Trazado_2761" d="M46.5,18c-1.646,0 -3,-1.354 -3,-3c0,-1.646 1.354,-3 3,-3c1.646,0 3,1.354 3,3l3,0c-0.01,-2.719 -1.867,-5.107 -4.5,-5.787l0,-3.213l-3,0l0,3.213c-2.641,0.676 -4.502,3.074 -4.502,5.8c-0,3.284 2.702,5.987 5.987,5.987c0.005,0 0.01,0 0.015,0c1.646,0 3,1.354 3,3c0,1.646 -1.354,3 -3,3c-1.646,0 -3,-1.354 -3,-3l-3,0c0.01,2.719 1.867,5.107 4.5,5.787l0,3.213l3,0l0,-3.213c2.641,-0.676 4.502,-3.074 4.502,-5.8c0,-3.284 -2.702,-5.987 -5.987,-5.987c-0.005,-0 -0.01,-0 -0.015,0Z" style="fill:#ffb74d;fill-rule:nonzero;"/></g><g id="Grupo_26351"><path id="Trazado_2762" d="M46.5,0c-10.697,0 -19.5,8.803 -19.5,19.5c0,10.697 8.803,19.5 19.5,19.5c10.697,0 19.5,-8.803 19.5,-19.5c-0.013,-10.693 -8.807,-19.487 -19.5,-19.5Zm0,36c-9.052,0 -16.5,-7.448 -16.5,-16.5c0,-9.052 7.448,-16.5 16.5,-16.5c9.052,0 16.5,7.448 16.5,16.5c-0.01,9.048 -7.452,16.49 -16.5,16.5Z" style="fill:#ffb74d;fill-rule:nonzero;"/></g><g id="Grupo_26353"><path id="Trazado_2763" d="M82.5,6c-5.76,0 -10.5,4.74 -10.5,10.5c0,5.76 4.74,10.5 10.5,10.5c5.76,0 10.5,-4.74 10.5,-10.5c-0.007,-5.758 -4.742,-10.493 -10.5,-10.5Zm0,18c-4.114,0 -7.5,-3.386 -7.5,-7.5c0,-4.114 3.386,-7.5 7.5,-7.5c4.114,0 7.5,3.386 7.5,7.5c-0.005,4.113 -3.387,7.495 -7.5,7.5Z" style="fill:#ffb74d;fill-rule:nonzero;"/></g><g id="Grupo_26355"><path id="Trazado_2764" d="M84,15l0,-3l-3,0l0,3l-3,0l0,3l3,0l0,3l3,0l0,-3l3,0l0,-3l-3,0Z" style="fill:#ffb74d;fill-rule:nonzero;"/></g><g id="Grupo_26357"><path id="Trazado_2765" d="M10.5,6c-5.76,0 -10.5,4.74 -10.5,10.5c0,5.76 4.74,10.5 10.5,10.5c5.76,0 10.5,-4.74 10.5,-10.5c-0.007,-5.758 -4.742,-10.493 -10.5,-10.5Zm0,18c-4.114,0 -7.5,-3.386 -7.5,-7.5c-0,-4.114 3.386,-7.5 7.5,-7.5c4.114,0 7.5,3.386 7.5,7.5c-0.005,4.113 -3.387,7.495 -7.5,7.5Z" style="fill:#ffb74d;fill-rule:nonzero;"/></g><g id="Grupo_26359"><path id="Trazado_2766" d="M12,15l0,-3l-3,0l0,3l-3,0l0,3l3,0l0,3l3,0l0,-3l3,0l0,-3l-3,0Z" style="fill:#ffb74d;fill-rule:nonzero;"/></g><g id="Grupo_26361"><rect id="Rectángulo_2866" x="57" y="18" width="3" height="3" style="fill:#ffb74d;"/></g><g id="Grupo_26363"><rect id="Rectángulo_2867" x="33.001" y="18" width="3" height="3" style="fill:#ffb74d;"/></g><g id="Grupo_26365"><rect id="Rectángulo_2868" x="23" y="0" width="2" height="3" style="fill:#ffb74d;"/></g><g id="Grupo_26367"><rect id="Rectángulo_2869" x="23" y="6" width="2" height="3" style="fill:#ffb74d;"/></g><g id="Grupo_26369"><rect id="Rectángulo_2870" x="25" y="3" width="4" height="3" style="fill:#ffb74d;"/></g><g id="Grupo_26371"><rect id="Rectángulo_2871" x="20" y="3" width="3" height="3" style="fill:#ffb74d;"/></g><g id="Grupo_26373"><rect id="Rectángulo_2872" x="69" y="30" width="3" height="3" style="fill:#ffb74d;"/></g><g id="Grupo_26375"><rect id="Rectángulo_2873" x="69" y="36" width="3" height="3" style="fill:#ffb74d;"/></g><g id="Grupo_26377"><rect id="Rectángulo_2874" x="72" y="33.001" width="3" height="3" style="fill:#ffb74d;"/></g><g id="Grupo_26379"><rect id="Rectángulo_2875" x="66" y="33.001" width="3" height="3" style="fill:#ffb74d;"/></g></g></svg>