<?xml version="1.0" encoding="UTF-8" standalone="no"?><!DOCTYPE svg PUBLIC "-//W3C//DTD SVG 1.1//EN" "http://www.w3.org/Graphics/SVG/1.1/DTD/svg11.dtd"><svg width="100%" height="100%" viewBox="0 0 93 93" version="1.1" xmlns="http://www.w3.org/2000/svg" xmlns:xlink="http://www.w3.org/1999/xlink" xml:space="preserve" xmlns:serif="http://www.serif.com/" style="fill-rule:evenodd;clip-rule:evenodd;stroke-linejoin:round;stroke-miterlimit:2;"><g id="procedimiento"></g><rect id="Mesa-de-trabajo1" serif:id="Mesa de trabajo1" x="0" y="0" width="93" height="93" style="fill:none;"/><clipPath id="_clip1"><rect x="0" y="0" width="93" height="93"/></clipPath><g clip-path="url(#_clip1)"><g><g id="Grupo_26389"><path id="Trazado_2774" d="M83.333,71.516c-3,0 -5.469,2.469 -5.469,5.47c0,3 2.469,5.469 5.469,5.469c3.001,-0 5.47,-2.469 5.47,-5.469c-0.006,-2.999 -2.471,-5.464 -5.47,-5.47Zm0,8.213c-1.505,-0 -2.743,-1.239 -2.743,-2.743c0,-1.506 1.239,-2.744 2.744,-2.744c1.505,-0 2.744,1.238 2.744,2.744c-0.002,1.504 -1.24,2.742 -2.745,2.743Z" style="fill:#ffb74d;fill-rule:nonzero;"/><path id="Trazado_2775" d="M84.696,67.415l0,-17.617l4.211,-5.857c0.166,-0.231 0.256,-0.509 0.256,-0.795c-0,-0.747 -0.615,-1.362 -1.362,-1.362l-3.105,-0l0,-16.489c4.742,-0.676 8.302,-4.78 8.302,-9.57c0,-5.302 -4.363,-9.666 -9.666,-9.666c-4.559,0 -8.528,3.225 -9.461,7.688l-4.51,-0l-0,-5.697c0.001,-1.209 -0.993,-2.205 -2.202,-2.207l-41.666,0c-1.208,0.003 -2.201,0.998 -2.2,2.207l0,5.697l-9.449,-0c-3.048,0.003 -5.556,2.511 -5.559,5.559l-0,18.851c-4.734,0.683 -8.285,4.783 -8.285,9.566c0,4.783 3.551,8.883 8.285,9.567l-0,4.994l-4.211,5.856c-0.167,0.232 -0.256,0.51 -0.256,0.795c-0,0.747 0.615,1.363 1.362,1.363l3.105,-0l-0,3.402c0.003,3.049 2.511,5.556 5.559,5.56l9.449,-0l0,5.697c0.003,1.206 0.995,2.197 2.2,2.199l5.74,0c0.012,0.001 0.023,0.001 0.034,0.001c0.748,-0 1.363,-0.615 1.363,-1.363c0,-0.748 -0.615,-1.363 -1.363,-1.363c-0.011,0 -0.022,0 -0.034,0.001l-5.218,-0l0,-14.289l40.621,0l-0,14.289l-29.047,-0c-0.011,-0.001 -0.023,-0.001 -0.034,-0.001c-0.748,0 -1.363,0.615 -1.363,1.363c0,0.748 0.615,1.363 1.363,1.363c0.011,-0 0.023,-0 0.034,-0.001l29.569,0c1.207,-0.001 2.2,-0.994 2.202,-2.202l-0,-5.697l4.578,0c1.046,4.324 4.948,7.394 9.396,7.394c5.303,0 9.666,-4.363 9.666,-9.666c0,-4.791 -3.561,-8.895 -8.304,-9.57Zm0.447,-22.908l-1.809,2.515l-1.809,-2.515l3.618,-0Zm-1.809,-35.725c3.808,-0 6.942,3.133 6.942,6.941c-0,3.809 -3.134,6.942 -6.942,6.942c-3.808,0 -6.941,-3.133 -6.941,-6.942c0.005,-3.805 3.135,-6.935 6.94,-6.939l0.001,-0.002Zm-75.495,58.791l1.809,-2.516l1.809,2.516l-3.618,0Zm37.125,-0.152l-19.471,0c-1.207,0.002 -2.2,0.995 -2.202,2.202l0,6.912l-9.447,0c-1.554,-0.002 -2.833,-1.28 -2.835,-2.835l0,-3.402l3.106,-0c0.747,-0 1.362,-0.616 1.362,-1.363c-0,-0.285 -0.09,-0.563 -0.256,-0.795l-4.212,-5.856l0,-4.986c3.177,-0.439 5.931,-2.442 7.327,-5.329c0.102,-0.195 0.155,-0.412 0.155,-0.632c0,-0.748 -0.615,-1.363 -1.362,-1.363c-0.533,0 -1.019,0.313 -1.24,0.798c-1.162,2.381 -3.59,3.898 -6.24,3.898c-3.809,0 -6.944,-3.134 -6.944,-6.943c0,-3.809 3.135,-6.944 6.944,-6.944c2.952,0 5.596,1.884 6.562,4.674c0.189,0.548 0.708,0.918 1.288,0.918c0.747,-0 1.362,-0.616 1.362,-1.363c0,-0.152 -0.025,-0.302 -0.074,-0.445c-1.185,-3.422 -4.196,-5.903 -7.78,-6.412l-0,-18.848c0.001,-1.554 1.28,-2.833 2.835,-2.835l9.451,0l0,6.912c0.002,1.206 0.994,2.198 2.2,2.201l19.47,-0l0,8.464l-19.47,-0c-1.207,0.002 -2.199,0.996 -2.2,2.204l0,21.005c0.002,1.208 0.995,2.201 2.202,2.202l19.468,0l0.001,7.961Zm21.672,-30.645l-0,19.96l-40.62,-0l-0,-19.96l40.62,0Zm7.044,39.76l-4.319,-0l-0,-6.912c-0.002,-1.207 -0.995,-2.201 -2.202,-2.202l-19.47,-0l-0,-7.961l19.47,0c1.207,-0.001 2.2,-0.994 2.202,-2.202l-0,-21.006c-0.002,-1.208 -0.995,-2.201 -2.202,-2.202l-19.47,-0l-0,-8.466l8.435,-0c0.012,-0 0.023,-0 0.035,-0c0.747,-0 1.363,-0.615 1.363,-1.363c-0,-0.747 -0.616,-1.363 -1.363,-1.363c-0.012,0 -0.023,0.001 -0.035,0.001l-30.108,-0l-0,-14.288l40.62,0l-0,14.289l-4.156,-0c-0.735,0.018 -1.329,0.627 -1.329,1.362c0,0.735 0.594,1.344 1.329,1.362l4.679,0c1.207,-0.001 2.2,-0.994 2.202,-2.202l-0,-6.911l4.337,0c0.354,4.498 3.807,8.18 8.273,8.823l-0,16.489l-3.107,-0c-0.747,0 -1.362,0.615 -1.362,1.362c0,0.286 0.09,0.564 0.256,0.795l4.211,5.857l-0,17.617c-4.575,0.658 -8.071,4.505 -8.291,9.121l0.002,-0Zm9.653,7.392c-3.808,0 -6.941,-3.133 -6.941,-6.942c-0,-3.808 3.133,-6.941 6.941,-6.941c3.806,-0 6.939,3.13 6.942,6.936c-0.002,3.808 -3.134,6.942 -6.942,6.946l0,0.001Z" style="fill:#ffb74d;fill-rule:nonzero;"/><path id="Trazado_2776" d="M83.333,21.195c3.001,0 5.47,-2.469 5.47,-5.469c-0,-3 -2.469,-5.469 -5.47,-5.469c-3,-0 -5.469,2.469 -5.469,5.469c0.005,2.998 2.471,5.464 5.469,5.469Zm0,-8.214c1.506,0 2.744,1.239 2.744,2.744c0,1.505 -1.238,2.744 -2.744,2.744c-1.505,0 -2.743,-1.238 -2.743,-2.743c0.001,-1.505 1.239,-2.743 2.743,-2.745Z" style="fill:#ffb74d;fill-rule:nonzero;"/><path id="Trazado_2777" d="M9.658,42.256c-3.001,-0 -5.47,2.469 -5.47,5.469c0,3 2.469,5.469 5.47,5.469c3,0 5.469,-2.469 5.469,-5.469c-0.005,-2.998 -2.471,-5.464 -5.469,-5.469Zm-0,8.214c-1.506,-0 -2.745,-1.239 -2.745,-2.745c0,-1.506 1.239,-2.745 2.745,-2.745c1.505,0 2.744,1.239 2.744,2.745c-0.001,1.505 -1.239,2.743 -2.744,2.745Z" style="fill:#ffb74d;fill-rule:nonzero;"/><path id="Trazado_2778" d="M31.09,43.006l30.474,-0c0.734,-0.019 1.328,-0.628 1.328,-1.363c0,-0.734 -0.594,-1.344 -1.328,-1.362l-30.474,-0c-0.012,-0 -0.023,-0.001 -0.035,-0.001c-0.747,0 -1.363,0.616 -1.363,1.363c0,0.748 0.616,1.363 1.363,1.363c0.012,-0 0.023,-0 0.035,-0Z" style="fill:#ffb74d;fill-rule:nonzero;"/><path id="Trazado_2779" d="M31.09,48.118l30.474,0c0.012,0.001 0.023,0.001 0.034,0.001c0.748,-0 1.363,-0.616 1.363,-1.363c0,-0.748 -0.615,-1.363 -1.363,-1.363c-0.011,0 -0.022,0 -0.034,0.001l-30.474,-0c-0.012,-0.001 -0.023,-0.001 -0.035,-0.001c-0.747,0 -1.363,0.615 -1.363,1.363c0,0.747 0.616,1.363 1.363,1.363c0.012,-0 0.023,-0 0.035,-0.001Z" style="fill:#ffb74d;fill-rule:nonzero;"/><path id="Trazado_2780" d="M55.015,50.505l-17.378,0c-0.011,0 -0.023,-0 -0.034,-0c-0.748,-0 -1.363,0.615 -1.363,1.363c0,0.747 0.615,1.362 1.363,1.362c0.011,0 0.023,0 0.034,0l17.378,0c0.734,-0.018 1.328,-0.628 1.328,-1.362c0,-0.735 -0.594,-1.344 -1.328,-1.363Z" style="fill:#ffb74d;fill-rule:nonzero;"/><path id="Trazado_2781" d="M62.926,13.008c-0,-0.747 -0.615,-1.362 -1.363,-1.362l-30.474,-0c-0.012,-0.001 -0.023,-0.001 -0.035,-0.001c-0.747,0 -1.362,0.615 -1.362,1.363c-0,0.748 0.615,1.363 1.362,1.363c0.012,-0 0.023,-0 0.035,-0.001l30.474,0c0.747,0 1.362,-0.614 1.363,-1.362Z" style="fill:#ffb74d;fill-rule:nonzero;"/><path id="Trazado_2782" d="M54.581,16.758l-16.51,0c-0.734,0.019 -1.328,0.628 -1.328,1.363c-0,0.734 0.594,1.343 1.328,1.362l16.51,0c0.734,-0.019 1.328,-0.628 1.328,-1.362c0,-0.735 -0.594,-1.344 -1.328,-1.363Z" style="fill:#ffb74d;fill-rule:nonzero;"/><path id="Trazado_2783" d="M39.744,80.653l-0,-6.575c-0.004,-1.045 -0.863,-1.903 -1.908,-1.907l-6.574,0c-1.045,0.004 -1.904,0.862 -1.907,1.907l-0,6.575c0.003,1.045 0.862,1.904 1.907,1.907l6.574,0c1.045,-0.003 1.904,-0.862 1.908,-1.907Zm-2.725,-0.818l-4.939,0l0,-4.938l4.939,-0l-0,4.938Z" style="fill:#ffb74d;fill-rule:nonzero;"/><path id="Trazado_2784" d="M43.803,76.205l18.132,-0c0.012,-0 0.023,0 0.035,0c0.747,0 1.363,-0.615 1.363,-1.363c-0,-0.747 -0.616,-1.362 -1.363,-1.362c-0.012,-0 -0.023,-0 -0.035,0l-18.132,0c-0.011,-0 -0.023,-0 -0.034,-0c-0.748,-0 -1.363,0.615 -1.363,1.362c-0,0.748 0.615,1.363 1.363,1.363c0.011,0 0.023,-0 0.034,-0Z" style="fill:#ffb74d;fill-rule:nonzero;"/><path id="Trazado_2785" d="M43.803,80.878l18.132,0c0.012,0 0.023,0.001 0.035,0.001c0.747,-0 1.363,-0.616 1.363,-1.363c-0,-0.748 -0.616,-1.363 -1.363,-1.363c-0.012,0 -0.023,0 -0.035,0.001l-18.132,-0c-0.011,-0.001 -0.023,-0.001 -0.034,-0.001c-0.748,0 -1.363,0.615 -1.363,1.363c-0,0.747 0.615,1.363 1.363,1.363c0.011,-0 0.023,-0.001 0.034,-0.001Z" style="fill:#ffb74d;fill-rule:nonzero;"/></g></g></g></svg>