<?xml version="1.0" encoding="UTF-8" standalone="no"?><!DOCTYPE svg PUBLIC "-//W3C//DTD SVG 1.1//EN" "http://www.w3.org/Graphics/SVG/1.1/DTD/svg11.dtd"><svg width="100%" height="100%" viewBox="0 0 93 93" version="1.1" xmlns="http://www.w3.org/2000/svg" xmlns:xlink="http://www.w3.org/1999/xlink" xml:space="preserve" xmlns:serif="http://www.serif.com/" style="fill-rule:evenodd;clip-rule:evenodd;stroke-linejoin:round;stroke-miterlimit:2;"><g id="vinculo-de-retroceso"></g><rect id="Mesa-de-trabajo1" serif:id="Mesa de trabajo1" x="0" y="0" width="93" height="93" style="fill:none;"/><clipPath id="_clip1"><rect x="0" y="0" width="93" height="93"/></clipPath><g clip-path="url(#_clip1)"><path id="Trazado_2786" d="M89.091,23.115c-0.618,-2.346 -1.553,-4.596 -2.778,-6.69l1.846,-3.691l-7.894,-7.895l-3.69,1.848c-2.094,-1.224 -4.345,-2.159 -6.69,-2.778l-1.304,-3.909l-11.161,0l-1.3,3.909c-2.346,0.618 -4.596,1.553 -6.69,2.778l-3.697,-1.847l-7.894,7.894l1.846,3.691c-1.224,2.094 -2.159,4.345 -2.778,6.69l-3.907,1.303l0,11.157l3.214,1.09l-8.046,8.046c-0.753,0.756 -1.419,1.595 -1.984,2.5c-0.893,0.557 -1.721,1.212 -2.47,1.951l-19.547,19.55c-2.627,2.662 -4.102,6.255 -4.102,9.995c0,7.805 6.423,14.228 14.228,14.228c3.74,-0 7.333,-1.475 9.995,-4.102l19.543,-19.544c0.753,-0.756 1.419,-1.595 1.984,-2.5c0.893,-0.557 1.721,-1.212 2.47,-1.951l8.015,-8.018l1.145,3.18l11.136,0l1.3,-3.909c2.346,-0.618 4.596,-1.553 6.69,-2.778l3.691,1.846l7.894,-7.894l-1.846,-3.691c1.224,-2.094 2.159,-4.345 2.778,-6.69l3.912,-1.303l-0,-11.161l-3.909,-1.305Zm-56.528,44.715l-14.64,14.64c-0.98,0.98 -2.31,1.531 -3.696,1.531c-2.868,-0 -5.227,-2.36 -5.227,-5.227c-0,-1.386 0.551,-2.717 1.531,-3.697l14.637,-14.638c1.428,3.318 4.076,5.965 7.395,7.391Zm9.148,-0.663l-19.544,19.545c-2.105,2.105 -4.963,3.289 -7.939,3.289c-6.16,-0 -11.229,-5.069 -11.229,-11.229c0,-2.976 1.184,-5.834 3.289,-7.939l17.833,-17.833c-0.077,0.588 -0.117,1.179 -0.121,1.772c0.001,0.801 0.068,1.601 0.2,2.392l-15.791,15.791c-1.505,1.537 -2.349,3.605 -2.349,5.757c-0,4.513 3.714,8.228 8.228,8.228c2.151,-0 4.219,-0.844 5.756,-2.349l19.545,-19.545c1.543,-1.542 2.411,-3.637 2.411,-5.818c-0,-4.215 -3.239,-7.782 -7.434,-8.188l2.506,-2.506c4.695,1.437 7.923,5.8 7.923,10.71c-0,2.971 -1.182,5.823 -3.284,7.923Zm-8.641,-13.115c0.273,-0.045 0.549,-0.067 0.825,-0.067c2.801,-0 5.106,2.305 5.106,5.106c0,0.287 -0.024,0.573 -0.072,0.856c-0.273,0.045 -0.549,0.067 -0.825,0.067c-2.801,0 -5.106,-2.305 -5.106,-5.106c-0,-0.287 0.024,-0.573 0.072,-0.856Zm6.366,-7.882l14.64,-14.64c0.98,-0.98 2.31,-1.531 3.696,-1.531c2.868,0 5.227,2.36 5.227,5.227c0,1.386 -0.551,2.717 -1.531,3.697l-14.637,14.637c-1.428,-3.318 -4.076,-5.964 -7.395,-7.39Zm8.442,14.83c0.077,-0.588 0.118,-1.18 0.122,-1.773c-0.001,-0.801 -0.068,-1.601 -0.2,-2.392l15.79,-15.79c1.505,-1.537 2.349,-3.605 2.349,-5.757c0,-4.513 -3.714,-8.228 -8.228,-8.228c-2.151,0 -4.219,0.844 -5.756,2.349l-19.545,19.545c-1.542,1.542 -2.41,3.636 -2.41,5.817c0,4.215 3.238,7.782 7.433,8.188l-2.506,2.507c-4.695,-1.437 -7.923,-5.8 -7.923,-10.71c0,-2.971 1.182,-5.823 3.284,-7.923l19.543,-19.544c2.109,-2.135 4.987,-3.337 7.988,-3.337c6.159,-0 11.228,5.068 11.228,11.228c-0,2.999 -1.202,5.877 -3.336,7.986l-17.833,17.834Zm-2.718,-33.282c1.139,-8.943 8.833,-15.719 17.848,-15.719c9.87,0 17.992,8.122 17.992,17.992c-0,9.015 -6.776,16.709 -15.719,17.848l2.55,-2.55c2.727,-2.675 4.265,-6.338 4.265,-10.158c0,-7.805 -6.422,-14.228 -14.228,-14.228c-3.819,0 -7.481,1.538 -10.156,4.264l-2.552,2.551Zm44.84,5.7l-3.441,1.147l-0.189,0.822c-0.597,2.593 -1.624,5.068 -3.039,7.321l-0.447,0.715l1.626,3.25l-4.836,4.836l-3.25,-1.626l-0.715,0.447c-2.253,1.415 -4.728,2.442 -7.321,3.039l-0.822,0.189l-1.148,3.442l-6.864,0l-0.909,-2.524l3.508,-3.508c0.282,0.01 0.561,0.033 0.846,0.033c0,0 0.001,0 0.001,0c11.52,0 21,-9.48 21,-21c-0,-11.52 -9.48,-21 -21,-21c-11.52,0 -20.999,9.479 -21,20.999c0,0.285 0.021,0.564 0.031,0.847l-3.451,3.453l-2.58,-0.876l0,-6.844l3.441,-1.147l0.189,-0.822c0.597,-2.593 1.624,-5.068 3.039,-7.321l0.447,-0.715l-1.626,-3.249l4.836,-4.836l3.25,1.626l0.716,-0.447c2.253,-1.415 4.728,-2.442 7.321,-3.039l0.822,-0.189l1.146,-3.441l6.839,0l1.147,3.441l0.822,0.189c2.593,0.597 5.068,1.624 7.321,3.039l0.715,0.447l3.25,-1.626l4.836,4.836l-1.626,3.25l0.447,0.715c1.415,2.253 2.442,4.728 3.039,7.321l0.189,0.822l3.44,1.147l-0,6.837Z" style="fill:#ffb74d;fill-rule:nonzero;"/><path id="Trazado_2787" d="M76.5,60c-9.052,0 -16.5,7.448 -16.5,16.5c0,9.052 7.448,16.5 16.5,16.5c9.052,0 16.5,-7.448 16.5,-16.5c-0.01,-9.048 -7.452,-16.49 -16.5,-16.5Zm0,30c-7.406,0 -13.5,-6.094 -13.5,-13.5c0,-7.406 6.094,-13.5 13.5,-13.5c7.406,0 13.5,6.094 13.5,13.5c-0.008,7.403 -6.097,13.492 -13.5,13.5Z" style="fill:#ffb74d;fill-rule:nonzero;"/><path id="Trazado_2788" d="M73.499,81.878l-3.439,-3.439l-2.121,2.121l5.56,5.56l13.06,-13.06l-2.121,-2.121l-10.939,10.939Z" style="fill:#ffb74d;fill-rule:nonzero;"/><path id="Trazado_2789" d="M7.5,46.5l3,0l-0,-25.5l-2.379,0l5.379,-5.379l5.379,5.379l-2.379,0l-0,25.5l3,0l-0,-22.5l6.621,0l-12.621,-12.621l-12.621,12.621l6.621,0l-0,22.5Z" style="fill:#ffb74d;fill-rule:nonzero;"/><path id="Trazado_2790" d="M66.331,15.37c-1.093,-0.246 -2.21,-0.37 -3.331,-0.37l-0,3c0.898,0 1.793,0.101 2.668,0.3l0.663,-2.93Z" style="fill:#ffb74d;fill-rule:nonzero;"/><path id="Trazado_2791" d="M75,29.999l3,0c0.011,-5.608 -3.133,-10.77 -8.121,-13.333l-1.377,2.665c3.991,2.051 6.507,6.181 6.498,10.668Z" style="fill:#ffb74d;fill-rule:nonzero;"/></g></svg>