<svg id="Grupo_1164" data-name="Grupo 1164" xmlns="http://www.w3.org/2000/svg" width="62.667" height="62.633" viewBox="0 0 62.667 62.633">
  <ellipse id="Elipse_32" data-name="Elipse 32" cx="31.273" cy="31.272" rx="31.273" ry="31.272" transform="translate(0 0.089)" fill="#311a6b"/>
  <ellipse id="Elipse_33" data-name="Elipse 33" cx="27.147" cy="27.145" rx="27.147" ry="27.145" transform="translate(4.127 4.216)" fill="#f0f0f0"/>
  <path id="Trazado_605" data-name="Trazado 605" d="M111.256,133.643a21.436,21.436,0,1,1,21.437-21.436A21.461,21.461,0,0,1,111.256,133.643Z" transform="translate(-79.982 -80.846)" fill="#ff4a69"/>
  <path id="Trazado_606" data-name="Trazado 606" d="M154.38,167.762a12.429,12.429,0,1,1,12.429-12.429A12.443,12.443,0,0,1,154.38,167.762Z" transform="translate(-123.12 -123.962)" fill="#f0f0f0"/>
  <path id="Trazado_607" data-name="Trazado 607" d="M200.8,208.477a6.72,6.72,0,1,1,6.72-6.72A6.728,6.728,0,0,1,200.8,208.477Z" transform="translate(-169.54 -170.389)" fill="#ff4a69"/>
  <path id="Trazado_608" data-name="Trazado 608" d="M265.572,48.664,243.6,70.633a1.545,1.545,0,0,1-2.185,0h0a1.545,1.545,0,0,1,0-2.185l21.969-21.969Z" transform="translate(-207.98 -41.404)" fill="#7dd3e9"/>
  <path id="Trazado_609" data-name="Trazado 609" d="M269.252,57.547,247.283,79.516a1.545,1.545,0,0,1-2.185,0h0l23.061-23.061Z" transform="translate(-211.659 -50.288)" fill="#0f94a5"/>
  <path id="Trazado_610" data-name="Trazado 610" d="M350.457,8.6,358.914.14l1.973,5.075-8.458,8.458Z" transform="translate(-305.48 -0.14)" fill="#ff4a69"/>
  <g id="Grupo_1162" data-name="Grupo 1162" transform="translate(49.135 7.259)">
    <path id="Trazado_613" data-name="Trazado 613" d="M396.887,66.431l-8.458,8.458,5.075,1.973,8.458-8.458Z" transform="translate(-388.429 -66.431)" fill="#ff4a69"/>
  </g>
</svg>
