<svg xmlns="http://www.w3.org/2000/svg" width="103.334" height="103.334" viewBox="0 0 103.334 103.334">
  <g id="advertir" transform="translate(0 0.001)">
    <path id="Trazado_1053" data-name="Trazado 1053" d="M103.334,51.666a51.66,51.66,0,0,1-51.328,51.665c-.034,0-.071,0-.1,0-.076,0-.155,0-.234,0a51.666,51.666,0,0,1-36.533-88.2A51.329,51.329,0,0,1,51.667,0c.079,0,.155,0,.234,0,.036,0,.073,0,.109,0a51.662,51.662,0,0,1,51.324,51.663Zm0,0" transform="translate(0)" fill="#ff6f00"/>
    <path id="Trazado_1054" data-name="Trazado 1054" d="M308.593,51.676a51.66,51.66,0,0,1-51.328,51.665c-.034,0-.071,0-.1,0V.011c.036,0,.073,0,.109,0a51.662,51.662,0,0,1,51.324,51.663Zm0,0" transform="translate(-205.259 -0.01)" fill="#ff5e00"/>
    <path id="Trazado_1055" data-name="Trazado 1055" d="M257.187,107.8C257.271,107.8,257.113,107.8,257.187,107.8Zm0,0" transform="translate(-205.264 -86.045)"/>
    <path id="Trazado_1056" data-name="Trazado 1056" d="M231.828,116.411v23.1a8.619,8.619,0,0,1-8.608,8.61H223.2a9.112,9.112,0,0,1-6.067-2.52,8.559,8.559,0,0,1-2.521-6.089v-23.1a8.762,8.762,0,0,1,8.588-8.61h.022a8.619,8.619,0,0,1,8.608,8.61Zm0,0" transform="translate(-171.296 -86.045)" fill="#fff"/>
    <path id="Trazado_1057" data-name="Trazado 1057" d="M257.182,307.563C257.109,307.563,257.256,307.565,257.182,307.563Zm0,0" transform="translate(-205.26 -245.49)"/>
    <path id="Trazado_1058" data-name="Trazado 1058" d="M233.188,329.418a8.157,8.157,0,0,1-8.149,8.149h-.021a8.149,8.149,0,0,1,0-16.3h.021A8.157,8.157,0,0,1,233.188,329.418Zm0,0" transform="translate(-173.117 -256.431)" fill="#fff"/>
    <g id="Grupo_25785" data-name="Grupo 25785" transform="translate(51.901 21.756)">
      <path id="Trazado_1059" data-name="Trazado 1059" d="M265.33,329.418a8.157,8.157,0,0,1-8.149,8.149h-.02v-16.3h.02A8.157,8.157,0,0,1,265.33,329.418Zm0,0" transform="translate(-257.16 -278.187)" fill="#ddebf0"/>
      <path id="Trazado_1060" data-name="Trazado 1060" d="M265.791,116.411v23.1a8.619,8.619,0,0,1-8.608,8.61h-.022V107.8h.022a8.619,8.619,0,0,1,8.608,8.61Zm0,0" transform="translate(-257.16 -107.801)" fill="#ddebf0"/>
    </g>
  </g>
</svg>
