<svg xmlns="http://www.w3.org/2000/svg" width="146" height="149.891" viewBox="0 0 146 149.891">
  <g id="Grupo_31680" data-name="Grupo 31680" transform="translate(-393 -1560)">
    <rect id="Rectángulo_2665" data-name="Rectángulo 2665" width="146" height="130" rx="20" transform="translate(393 1560)" fill="#f3f9ff"/>
    <g id="Grupo_26824" data-name="Grupo 26824" transform="translate(163.001 1463.373)">
      <g id="Grupo_26802" data-name="Grupo 26802" transform="translate(359.319 207.739)">
        <path id="Trazado_3889" data-name="Trazado 3889" d="M329.469,186.392c1.253-.08,1.12,1.093,1.013,2.035-.008.072-.015.145-.023.214l-.143.061q.01-.106.024-.216c.106-.945.228-2.013-.934-1.938Z" transform="translate(-329.407 -186.388)" fill="#931818"/>
      </g>
      <path id="Trazado_3890" data-name="Trazado 3890" d="M331.279,186.591l-1.334.727V189.7l1.334-.727Z" transform="translate(30.104 21.423)" fill="#931818"/>
      <path id="Trazado_3891" data-name="Trazado 3891" d="M337.252,199.184l-6.055-3.523,3.639,4.716Z" transform="translate(30.551 24.664)" fill="#a51c1c"/>
      <path id="Trazado_3892" data-name="Trazado 3892" d="M261.4,184.893l8.818-6.02-8.153-4.424-2.851,5.706Z" transform="translate(4.835 17.085)" fill="#a51c1c"/>
      <path id="Trazado_3893" data-name="Trazado 3893" d="M308.075,211.832l8.818-6.019-8.152-4.425-2.853,5.706Z" transform="translate(21.509 26.71)" fill="#a51c1c"/>
      <path id="Trazado_3894" data-name="Trazado 3894" d="M249.2,141.3l24.191-13.973s1.748-1.31,3.232-.175L251.3,142.52Z" transform="translate(1.257 0.021)" fill="#ff5050"/>
      <path id="Trazado_3895" data-name="Trazado 3895" d="M334.682,206.027a10.908,10.908,0,0,0-4.95-8.539c-2.734-1.577-4.95-.314-4.95,2.823a10.912,10.912,0,0,0,4.95,8.539C332.465,210.429,334.682,209.164,334.682,206.027Z" transform="translate(28.26 25.074)" fill="#604349"/>
      <path id="Trazado_3896" data-name="Trazado 3896" d="M364.077,177.736l-88.886-51.108-24.865,14.3L340.081,192.9Z" transform="translate(1.659)" fill="#ef4743"/>
      <path id="Trazado_3897" data-name="Trazado 3897" d="M272.71,127.678l-22.384,12.872,22.384,12.962Z" transform="translate(1.659 0.375)" fill="#f94e4e"/>
      <g id="Grupo_26803" data-name="Grupo 26803" transform="translate(305.566 143.138)">
        <path id="Trazado_3898" data-name="Trazado 3898" d="M324.929,158.989v15.082l12.5-7.9Z" transform="translate(-277.254 -131.576)" fill="#f94e4e"/>
        <path id="Trazado_3899" data-name="Trazado 3899" d="M315.069,153.32,289.8,138.792v28.815l25.265,14.631Z" transform="translate(-289.803 -138.792)" fill="#f94e4e"/>
      </g>
      <path id="Trazado_3900" data-name="Trazado 3900" d="M251.079,136.635l-.54.357,88.437,51.323,1.125-.008Z" transform="translate(1.735 3.576)" fill="#ff5050"/>
      <path id="Trazado_3901" data-name="Trazado 3901" d="M340.617,164.238l-24.8,14.44,1.278,26.405,1,22.329,22.488-13.187.116-5.736-7.628-4.279v-8.239l8.647-5.166Z" transform="translate(25.058 13.437)" fill="#b52824"/>
      <path id="Trazado_3902" data-name="Trazado 3902" d="M333.061,198.779l-.084,5.766s4.068-1.52,4.149-4.716C337.21,196.5,333.061,198.779,333.061,198.779Z" transform="translate(31.187 25.505)" fill="#a51c1c"/>
      <path id="Trazado_3903" data-name="Trazado 3903" d="M335.673,200.359a1.675,1.675,0,0,0,.214-1.785c-.295-.457-.866-.4-1.277.13a1.686,1.686,0,0,0-.213,1.785C334.691,200.945,335.262,200.888,335.673,200.359Z" transform="translate(31.634 25.594)" fill="#4f2832"/>
      <path id="Trazado_3904" data-name="Trazado 3904" d="M325.858,206.021l-4.367-2.751,11.047-5.721,3.291.786Z" transform="translate(27.084 25.338)" fill="#d13f34"/>
      <path id="Trazado_3905" data-name="Trazado 3905" d="M324.31,203.365l-2.819-1.634,3.5,1.045Z" transform="translate(27.084 26.832)" fill="#ef4743"/>
      <path id="Trazado_3906" data-name="Trazado 3906" d="M337.95,196.8c-2.645.865-3.753.38-6.066,1.665-2.655,1.479-4.992,3.966-8.316,6.656v9.216c5.349-1.068,10.471-4.446,14.382-8.321Z" transform="translate(27.826 25.072)" fill="#b52824"/>
      <g id="Grupo_26804" data-name="Grupo 26804" transform="translate(266.775 197.16)">
        <path id="Trazado_3907" data-name="Trazado 3907" d="M273.607,187.12a10,10,0,0,0-4.448-7.88,3.135,3.135,0,0,0-3.324-.293l-2.913,1.622c-1.019.358-1.68,1.425-1.7,3.051a10,10,0,0,0,4.451,7.879c1.412.836,2.679.833,3.522.149l2.788-1.507C272.961,189.757,273.589,188.7,273.607,187.12Z" transform="translate(-261.223 -178.594)" fill="#493336"/>
        <path id="Trazado_3908" data-name="Trazado 3908" d="M272.721,187.12a10,10,0,0,0-4.448-7.88c-2.491-1.475-4.537-.339-4.57,2.535a10,10,0,0,0,4.449,7.88C270.643,191.133,272.688,190,272.721,187.12Z" transform="translate(-260.337 -178.594)" fill="#493336"/>
        <path id="Trazado_3909" data-name="Trazado 3909" d="M270.241,188.478a9.995,9.995,0,0,0-4.448-7.88c-2.492-1.475-4.536-.341-4.57,2.537a10,10,0,0,0,4.451,7.879C268.164,192.491,270.21,191.355,270.241,188.478Z" transform="translate(-261.223 -178.109)" fill="#493336"/>
        <path id="Trazado_3910" data-name="Trazado 3910" d="M266.744,189.331l3.6-1.948-2.638-1.576Z" transform="translate(-259.25 -176.017)" fill="#493336"/>
        <path id="Trazado_3911" data-name="Trazado 3911" d="M268.294,187.421a7.026,7.026,0,0,0-3.124-5.535c-1.75-1.037-3.187-.239-3.21,1.782a7.013,7.013,0,0,0,3.126,5.532C266.834,190.238,268.271,189.44,268.294,187.421Z" transform="translate(-260.959 -177.58)" fill="#af979b"/>
        <path id="Trazado_3912" data-name="Trazado 3912" d="M266.579,187.2a8.621,8.621,0,0,1,1.284,1.775,2.715,2.715,0,0,0,.432-1.553,7.026,7.026,0,0,0-3.124-5.535c-1.75-1.037-3.187-.239-3.21,1.782a5.142,5.142,0,0,0,.121,1.125A7.063,7.063,0,0,1,266.579,187.2Z" transform="translate(-260.959 -177.58)" fill="#997f85"/>
        <path id="Trazado_3913" data-name="Trazado 3913" d="M266.66,186.213a4.163,4.163,0,0,0-1.851-3.276c-1.033-.615-1.883-.143-1.895,1.055a4.163,4.163,0,0,0,1.85,3.275C265.8,187.88,266.648,187.408,266.66,186.213Z" transform="translate(-260.618 -177.138)" fill="#ceb2b8"/>
        <path id="Trazado_3914" data-name="Trazado 3914" d="M268.736,179.24a3.135,3.135,0,0,0-3.324-.293l-2.913,1.622c-.033.012-.062.024-.094.038,2.33-1.162,9.651,5.011,6.879,10.764l2.276-1.23c.977-.384,1.606-1.437,1.623-3.021A10,10,0,0,0,268.736,179.24Z" transform="translate(-260.8 -178.594)" fill="#382428"/>
      </g>
      <g id="Grupo_26805" data-name="Grupo 26805" transform="translate(330.353 232.966)">
        <path id="Trazado_3915" data-name="Trazado 3915" d="M320.451,213.5A10,10,0,0,0,316,205.622a3.129,3.129,0,0,0-3.323-.293l-2.913,1.622c-1.021.356-1.68,1.424-1.7,3.05a10,10,0,0,0,4.45,7.879c1.413.837,2.681.833,3.522.151l2.789-1.508C319.8,216.14,320.434,215.085,320.451,213.5Z" transform="translate(-308.066 -204.975)" fill="#493336"/>
        <path id="Trazado_3916" data-name="Trazado 3916" d="M319.565,213.5a10,10,0,0,0-4.451-7.879c-2.489-1.477-4.536-.341-4.567,2.537A10,10,0,0,0,315,216.038C317.487,217.515,319.532,216.379,319.565,213.5Z" transform="translate(-307.179 -204.975)" fill="#493336"/>
        <path id="Trazado_3917" data-name="Trazado 3917" d="M317.085,214.861a10.008,10.008,0,0,0-4.449-7.882c-2.491-1.477-4.537-.339-4.57,2.537a10,10,0,0,0,4.45,7.879C315.007,218.872,317.053,217.736,317.085,214.861Z" transform="translate(-308.066 -204.49)" fill="#493336"/>
        <path id="Trazado_3918" data-name="Trazado 3918" d="M313.587,215.711l3.6-1.946-2.637-1.576Z" transform="translate(-306.093 -202.398)" fill="#493336"/>
        <path id="Trazado_3919" data-name="Trazado 3919" d="M312.069,207.994l-3.075-.842,3.578-1.994Z" transform="translate(-307.734 -204.91)" fill="#493336"/>
        <path id="Trazado_3920" data-name="Trazado 3920" d="M315.137,213.8a7.02,7.02,0,0,0-3.124-5.534c-1.75-1.037-3.187-.239-3.21,1.782a7.019,7.019,0,0,0,3.126,5.532C313.677,216.619,315.116,215.821,315.137,213.8Z" transform="translate(-307.802 -203.961)" fill="#af979b"/>
        <path id="Trazado_3921" data-name="Trazado 3921" d="M313.422,213.579a8.741,8.741,0,0,1,1.287,1.775,2.725,2.725,0,0,0,.429-1.553,7.02,7.02,0,0,0-3.124-5.534c-1.75-1.037-3.187-.239-3.21,1.782a5.006,5.006,0,0,0,.121,1.125A7.063,7.063,0,0,1,313.422,213.579Z" transform="translate(-307.802 -203.961)" fill="#997f85"/>
        <path id="Trazado_3922" data-name="Trazado 3922" d="M313.5,212.594a4.167,4.167,0,0,0-1.85-3.276c-1.034-.613-1.884-.141-1.895,1.055a4.158,4.158,0,0,0,1.85,3.276C312.641,214.262,313.489,213.79,313.5,212.594Z" transform="translate(-307.461 -203.52)" fill="#ceb2b8"/>
        <path id="Trazado_3923" data-name="Trazado 3923" d="M315.578,205.622a3.129,3.129,0,0,0-3.323-.293l-2.913,1.622c-.031.01-.061.024-.094.037,2.33-1.16,9.652,5.011,6.879,10.764l2.277-1.23c.976-.383,1.606-1.437,1.623-3.021A10,10,0,0,0,315.578,205.622Z" transform="translate(-307.643 -204.975)" fill="#382428"/>
        <path id="Trazado_3924" data-name="Trazado 3924" d="M311.531,210.592a3.1,3.1,0,0,1,1.247,1.663,1.774,1.774,0,0,0,.027-.266,3.126,3.126,0,0,0-1.386-2.454c-.774-.46-1.41-.106-1.418.79a2.485,2.485,0,0,0,.134.789C310.26,210.421,310.84,210.181,311.531,210.592Z" transform="translate(-307.374 -203.418)" fill="#e8cfd5"/>
      </g>
      <path id="Trazado_3925" data-name="Trazado 3925" d="M341.126,188.372,252.943,137c-7.534-1.378-7.062,23.076-7.062,49.339l20.425,11.781a9.316,9.316,0,0,1-.181-1.771c0-3.747,2.649-5.258,5.915-3.371a13.032,13.032,0,0,1,5.916,10.2,6.407,6.407,0,0,1-.179,1.558l51.449,29.675.153.009a10.5,10.5,0,0,1-.263-2.256c0-4.142,2.926-5.81,6.535-3.727a14.538,14.538,0,0,1,6.01,8.023l1.482.855Z" transform="translate(0.069 3.686)" fill="#d13f34"/>
      <path id="Trazado_3926" data-name="Trazado 3926" d="M318.3,223.887l-2.018-48.946-.86-.4Z" transform="translate(24.915 17.116)" fill="#ef4743"/>
      <g id="Grupo_26806" data-name="Grupo 26806" transform="translate(245.871 174.329)">
        <path id="Trazado_3927" data-name="Trazado 3927" d="M342.776,218.953l-96.955-56.769.044-.411,96.911,56.767Z" transform="translate(-245.821 -161.773)" fill="#ef4743"/>
      </g>
      <g id="Grupo_26807" data-name="Grupo 26807" transform="translate(246.546 155.945)">
        <path id="Trazado_3928" data-name="Trazado 3928" d="M341.812,204.4,246.319,148.64l.045-.412,95.449,55.764Z" transform="translate(-246.319 -148.228)" fill="#ef4743"/>
      </g>
      <path id="Trazado_3929" data-name="Trazado 3929" d="M307.625,179.7l-.908-1.451-36.729-20.1v8.1l37.637,21.548Z" transform="translate(8.683 11.263)" fill="#b52824"/>
      <path id="Trazado_3930" data-name="Trazado 3930" d="M342.314,206.828l-96.631-55.79,0,2.2,96.733,55.85Z" transform="translate(0 8.721)" fill="#b52824"/>
      <path id="Trazado_3931" data-name="Trazado 3931" d="M307.117,203.458l-29.843-17.244.023.641L307.139,204.1Z" transform="translate(11.286 21.288)" fill="#ffb399"/>
      <path id="Trazado_3932" data-name="Trazado 3932" d="M320.245,213.142l-50.526-29.171.039,1.084,50.525,29.172Z" transform="translate(8.587 20.487)" fill="#ffb399"/>
      <path id="Trazado_3933" data-name="Trazado 3933" d="M335.117,187.863l-76.295-44.226v7.931l76.295,44.047Z" transform="translate(4.694 6.077)" fill="#6d3d4a"/>
      <path id="Trazado_3934" data-name="Trazado 3934" d="M321.782,198.484l-60.138-34.721V171.2l60.138,34.72Z" transform="translate(5.702 13.267)" fill="#6d3d4a"/>
      <path id="Trazado_3935" data-name="Trazado 3935" d="M319.33,195.427l-12.445-7.239v9.687l12.445,7.254Z" transform="translate(21.865 21.993)" fill="#6d3d4a"/>
      <path id="Trazado_3936" data-name="Trazado 3936" d="M342.177,206.3l-96.431-55.617v2.2l96.533,55.676Z" transform="translate(0.023 8.595)" fill="#f9b653"/>
      <path id="Trazado_3937" data-name="Trazado 3937" d="M324.345,203.448l-2.853-1.717.07,9.229,2.768,1.484Z" transform="translate(27.084 26.832)" fill="#d13f34"/>
      <path id="Trazado_3938" data-name="Trazado 3938" d="M327.164,189.741l-8.994,5.135.5,9.714,8.993-5.135Z" transform="translate(25.897 22.548)" fill="#4f2832"/>
      <path id="Trazado_3939" data-name="Trazado 3939" d="M341.344,181.3l-24.6,14.1.159,2.27,24.443-14.061Z" transform="translate(25.387 19.533)" fill="#ce9036"/>
      <path id="Trazado_3940" data-name="Trazado 3940" d="M323.7,203.171l-.087,7.992s-6.477,4.729-6.372,1.516C317.354,209.333,323.7,203.171,323.7,203.171Z" transform="translate(25.566 27.346)" fill="#d13f34"/>
      <path id="Trazado_3941" data-name="Trazado 3941" d="M324.525,203.4l1.2,1.338-.262,7.241-.947-.589s-6.3,4.668-6.2,1.455C318.422,209.506,324.525,203.4,324.525,203.4Z" transform="translate(25.95 27.43)" fill="#b52824"/>
      <path id="Trazado_3942" data-name="Trazado 3942" d="M265.727,183.718,245.88,172.3v1.614l20.078,11.571A9.711,9.711,0,0,1,265.727,183.718Z" transform="translate(0.071 16.316)" fill="#ffdad4"/>
      <path id="Trazado_3943" data-name="Trazado 3943" d="M269.339,187.444l51.716,29.9L321,215.63l-51.427-29.69A5.983,5.983,0,0,1,269.339,187.444Z" transform="translate(8.452 21.19)" fill="#ffdad4"/>
      <path id="Trazado_3944" data-name="Trazado 3944" d="M330.914,196.987V186.9l-5.24,3.1.48,5.282.916-.546Z" transform="translate(28.578 21.533)" fill="#931818"/>
      <g id="Grupo_26808" data-name="Grupo 26808" transform="translate(354.252 208.841)">
        <path id="Trazado_3945" data-name="Trazado 3945" d="M330.225,187.2l-4.55,2.693.412,4.536,4.138-2.363Z" transform="translate(-325.674 -187.2)" fill="#4f2832"/>
      </g>
      <path id="Trazado_3946" data-name="Trazado 3946" d="M320.107,213.769l.5-.254c-.837-3.76-3.1-7.735-5.924-9.783-3.933-2.852-7.541-1.251-8.058,3.572a21.039,21.039,0,0,0,.707,4.436l.485-.24a11.093,11.093,0,0,1-.058-2.666c.46-4.294,3.718-5.439,7.217-2.9C317.162,207.517,319.188,210.878,320.107,213.769Z" transform="translate(21.767 27.042)" fill="#b52824"/>
      <path id="Trazado_3947" data-name="Trazado 3947" d="M319.511,213.269l.755.44c-.837-3.761-3.1-7.736-5.926-9.785-3.932-2.85-7.54-1.251-8.057,3.574a12.939,12.939,0,0,0,.159,3.594l1.032.6a11.174,11.174,0,0,1-.057-2.667c.46-4.293,3.716-5.439,7.217-2.9A14.285,14.285,0,0,1,319.511,213.269Z" transform="translate(21.629 27.111)" fill="#e5504c"/>
      <path id="Trazado_3948" data-name="Trazado 3948" d="M261.281,183.985a7.739,7.739,0,0,1-.182-1.608c0-3.853,2.523-5.338,5.88-3.4,3.984,2.3,6.927,8.828,5.983,12.647l.8-.246c.928-4.453-.934-10.975-6.348-13.945-3.9-2.142-7.358.039-7.358,4.465a9.028,9.028,0,0,0,.48,2.522Z" transform="translate(5.136 17.855)" fill="#b52824"/>
      <path id="Trazado_3949" data-name="Trazado 3949" d="M260.695,184.359a9.5,9.5,0,0,1-.179-1.788c0-3.853,2.523-5.338,5.881-3.4,3.982,2.3,6.591,7.943,5.648,11.762l1.135.641c.931-4.452-.931-10.976-6.345-13.945-3.906-2.14-7.221-.005-7.221,4.421a10.812,10.812,0,0,0,.155,1.774Z" transform="translate(4.977 17.922)" fill="#e5504c"/>
      <path id="Trazado_3950" data-name="Trazado 3950" d="M338.745,167.532l-21.018,12.11.349,7.452,21.019-12.11Z" transform="translate(25.739 14.614)" fill="#4f2832"/>
      <path id="Trazado_3951" data-name="Trazado 3951" d="M332.481,177.991a.566.566,0,0,0-.848-.464L323.875,182a.768.768,0,0,0-.385.7l.167,3.58a.525.525,0,0,0,.786.43l7.739-4.459a.921.921,0,0,0,.46-.842Z" transform="translate(27.797 18.157)" fill="#4f2832"/>
      <path id="Trazado_3952" data-name="Trazado 3952" d="M333.748,181.226a.213.213,0,0,0-.109-.175.208.208,0,0,0-.2,0l-10.091,5.866a.286.286,0,0,0-.144.262l.061,1.326a.2.2,0,0,0,.1.162.2.2,0,0,0,.191,0l10.085-5.862a.343.343,0,0,0,.168-.312Z" transform="translate(27.694 19.434)" fill="#4f2832"/>
      <path id="Trazado_3953" data-name="Trazado 3953" d="M337.7,168.411,318.287,179.6l.29,6.057,19.415-11.186Z" transform="translate(25.939 14.928)" fill="#523e41"/>
      <path id="Trazado_3954" data-name="Trazado 3954" d="M321.492,204.967l6.638-6.68-.481-5.067.916-.546,10.127,5.605-5.847,1.536-.786-.306Z" transform="translate(27.084 23.596)" fill="#a51c1c"/>
      <path id="Trazado_3955" data-name="Trazado 3955" d="M320.684,210.075a1.685,1.685,0,0,0,.212-1.785c-.293-.457-.865-.4-1.277.13a1.683,1.683,0,0,0-.213,1.785C319.7,210.663,320.27,210.6,320.684,210.075Z" transform="translate(26.278 29.065)" fill="#4f2832"/>
      <path id="Trazado_3956" data-name="Trazado 3956" d="M334.8,200.168c-1.568.46-2.223.08-3.593.839-1.574.871-2.959,2.438-4.928,4.094v6.2c3.169-.47,6.2-2.5,8.521-4.931Z" transform="translate(28.793 26.274)" fill="#e2a3a3"/>
      <path id="Trazado_3957" data-name="Trazado 3957" d="M334.169,201.16a.353.353,0,0,0-.13-.276.357.357,0,0,0-.3-.072,7.344,7.344,0,0,0-2.681.616,29.106,29.106,0,0,0-4.012,3.328.721.721,0,0,0-.25.546v4.764a.231.231,0,0,0,.083.178.234.234,0,0,0,.19.05,13.521,13.521,0,0,0,6.8-3.921,1.008,1.008,0,0,0,.293-.71Z" transform="translate(28.98 26.501)" fill="#a51c1c"/>
      <path id="Trazado_3958" data-name="Trazado 3958" d="M306.735,178.341,269.847,157.3v8.1l36.888,21.043Z" transform="translate(8.633 10.958)" fill="#ffb399"/>
      <path id="Trazado_3959" data-name="Trazado 3959" d="M305.415,178.209,270.581,158.39v6.45l34.835,19.819Z" transform="translate(8.895 11.348)" fill="#b25757"/>
      <path id="Trazado_3960" data-name="Trazado 3960" d="M326.568,190.185l-8.022,4.717.4,8.8,8.072-4.589Z" transform="translate(26.032 22.707)" fill="#523e41"/>
      <g id="Grupo_26809" data-name="Grupo 26809" transform="translate(354.288 209.042)">
        <path id="Trazado_3961" data-name="Trazado 3961" d="M329.889,187.348l-4.189,2.478.38,4.175,3.809-2.175Z" transform="translate(-325.7 -187.348)" fill="#523e41"/>
      </g>
      <path id="Trazado_3962" data-name="Trazado 3962" d="M329.818,191.826l-3.919-2.19,3.919-2.288Z" transform="translate(28.659 21.694)" fill="#604b50"/>
      <path id="Trazado_3963" data-name="Trazado 3963" d="M327.69,194.868l-9.49,5.5v.612l9.49-5.5Z" transform="translate(25.908 24.38)" fill="#b52824"/>
      <path id="Trazado_3964" data-name="Trazado 3964" d="M320.6,209.85a1.357,1.357,0,0,0,.172-1.44c-.236-.368-.7-.322-1.03.1a1.355,1.355,0,0,0-.172,1.439C319.8,210.324,320.266,210.278,320.6,209.85Z" transform="translate(26.347 29.13)" fill="#e2a3a3"/>
      <path id="Trazado_3965" data-name="Trazado 3965" d="M335.572,200.189a1.355,1.355,0,0,0,.174-1.44c-.238-.368-.7-.32-1.03.106a1.358,1.358,0,0,0-.174,1.44C334.779,200.664,335.241,200.615,335.572,200.189Z" transform="translate(31.698 25.678)" fill="#e2a3a3"/>
      <path id="Trazado_3966" data-name="Trazado 3966" d="M334.269,174.486l-5.442-3.172,5.2-2.882Z" transform="translate(29.705 14.936)" fill="#604b50"/>
      <path id="Trazado_3967" data-name="Trazado 3967" d="M333.984,187.819l-74.6-43.311V151l74.6,43.139Z" transform="translate(4.897 6.388)" fill="#7e676b"/>
      <path id="Trazado_3968" data-name="Trazado 3968" d="M294.572,165.1l-19-10.991,8.524,10.649,19,10.992Z" transform="translate(10.68 9.82)" fill="#968387" opacity="0.5"/>
      <path id="Trazado_3969" data-name="Trazado 3969" d="M306.249,171.425l-1.981-1.191v7.149l1.981,1.191Z" transform="translate(20.931 15.579)" fill="#6d3d4a"/>
      <path id="Trazado_3970" data-name="Trazado 3970" d="M296.742,166.021l-1.98-1.191v7.149l1.98,1.191Z" transform="translate(17.534 13.648)" fill="#6d3d4a"/>
      <path id="Trazado_3971" data-name="Trazado 3971" d="M287.234,160.358l-1.98-1.191v7.149l1.98,1.192Z" transform="translate(14.138 11.625)" fill="#6d3d4a"/>
      <path id="Trazado_3972" data-name="Trazado 3972" d="M277.727,155.017l-1.979-1.191v7.149l1.979,1.192Z" transform="translate(10.741 9.717)" fill="#6d3d4a"/>
      <path id="Trazado_3973" data-name="Trazado 3973" d="M268.22,149.484l-1.979-1.192v7.15l1.979,1.19Z" transform="translate(7.345 7.74)" fill="#6d3d4a"/>
      <path id="Trazado_3974" data-name="Trazado 3974" d="M305.4,170.332l-.756-.73v8.993l.756.73Z" transform="translate(21.065 15.353)" fill="#d13f34"/>
      <path id="Trazado_3975" data-name="Trazado 3975" d="M295.877,164.883l-.756-.729v8.993l.756.73Z" transform="translate(17.663 13.407)" fill="#d13f34"/>
      <path id="Trazado_3976" data-name="Trazado 3976" d="M286.4,159.478l-.757-.73v9l.757.729Z" transform="translate(14.276 11.476)" fill="#d13f34"/>
      <path id="Trazado_3977" data-name="Trazado 3977" d="M276.875,153.945l-.756-.73v8.993l.756.73Z" transform="translate(10.874 9.499)" fill="#d13f34"/>
      <path id="Trazado_3978" data-name="Trazado 3978" d="M267.437,148.5l-.756-.729v8.994l.756.729Z" transform="translate(7.502 7.553)" fill="#d13f34"/>
      <path id="Trazado_3979" data-name="Trazado 3979" d="M326.723,171.712l-1.5.855.259,6.965,1.5-.856Z" transform="translate(28.418 16.107)" fill="#4f2832"/>
      <path id="Trazado_3980" data-name="Trazado 3980" d="M325.481,170.3h.7l.48,11.4h-.7Z" transform="translate(28.509 15.602)" fill="#b52824"/>
      <path id="Trazado_3981" data-name="Trazado 3981" d="M325.862,178.43h.448l.309,6.867h-.449Z" transform="translate(28.645 18.507)" fill="#b52824"/>
      <path id="Trazado_3982" data-name="Trazado 3982" d="M318.524,195.324l-11.168-6.494v8.691l11.169,6.508Z" transform="translate(22.034 22.223)" fill="#7e676b"/>
      <path id="Trazado_3983" data-name="Trazado 3983" d="M311.6,190.824l-1.789-.578v9.106l1.789.806Z" transform="translate(22.912 22.729)" fill="#6d3d4a"/>
      <path id="Trazado_3984" data-name="Trazado 3984" d="M310.886,190.526l-.655-.633v9.989l.655.884Z" transform="translate(23.061 22.602)" fill="#d13f34"/>
      <path id="Trazado_3985" data-name="Trazado 3985" d="M320.944,198.569l-58.9-34.029v6.011l58.9,34.03Z" transform="translate(5.847 13.545)" fill="#7e676b"/>
      <path id="Trazado_3986" data-name="Trazado 3986" d="M291.669,181.688l-19-10.991,8.524,10.648,19,10.992Z" transform="translate(9.643 15.744)" fill="#968387" opacity="0.5"/>
      <path id="Trazado_3987" data-name="Trazado 3987" d="M296.806,184.1l-1.979-1.193v7.15l1.979,1.191Z" transform="translate(17.557 20.108)" fill="#6d3d4a"/>
      <path id="Trazado_3988" data-name="Trazado 3988" d="M295.941,182.964l-.756-.729v8.994l.756.729Z" transform="translate(17.686 19.867)" fill="#d13f34"/>
      <path id="Trazado_3989" data-name="Trazado 3989" d="M286.06,177.925l-1.979-1.191v7.149l1.979,1.191Z" transform="translate(13.718 17.901)" fill="#6d3d4a"/>
      <path id="Trazado_3990" data-name="Trazado 3990" d="M285.2,176.786l-.756-.729v8.994l.756.73Z" transform="translate(13.847 17.66)" fill="#d13f34"/>
      <path id="Trazado_3991" data-name="Trazado 3991" d="M275.7,172.068l-1.979-1.19v7.149l1.979,1.191Z" transform="translate(10.017 15.809)" fill="#6d3d4a"/>
      <path id="Trazado_3992" data-name="Trazado 3992" d="M274.837,170.932l-.757-.729V179.2l.757.73Z" transform="translate(10.146 15.568)" fill="#d13f34"/>
      <g id="Grupo_26810" data-name="Grupo 26810" transform="translate(264.371 140.09)">
        <path id="Trazado_3993" data-name="Trazado 3993" d="M339.449,183.541l-80-46.694.176-.3,80,46.693Z" transform="translate(-259.452 -136.546)" fill="#ff5050"/>
      </g>
      <g id="Grupo_26811" data-name="Grupo 26811" transform="translate(271.124 136.422)">
        <rect id="Rectángulo_4642" data-name="Rectángulo 4642" width="0.349" height="92.629" transform="translate(0 0.301) rotate(-59.729)" fill="#ff5050"/>
      </g>
      <g id="Grupo_26812" data-name="Grupo 26812" transform="translate(276.539 133.103)">
        <path id="Trazado_3994" data-name="Trazado 3994" d="M348.414,178.394l-80-46.695.177-.3,80,46.695Z" transform="translate(-268.417 -131.398)" fill="#ff5050"/>
      </g>
      <path id="Trazado_3995" data-name="Trazado 3995" d="M330.42,200.736l-.735.541v7.8l.735-.539Z" transform="translate(30.011 26.476)" fill="#e2a3a3"/>
      <path id="Trazado_3996" data-name="Trazado 3996" d="M329.631,201.068l.438,1.077.466-1.572Z" transform="translate(29.992 26.418)" fill="#592e38"/>
      <path id="Trazado_3997" data-name="Trazado 3997" d="M315.547,195.022l-1.913,1.041v3.416l.361.064,1.834-4.411Z" transform="translate(24.277 24.435)" fill="#ffb399"/>
      <g id="Grupo_26813" data-name="Grupo 26813" transform="translate(338.842 217.454)">
        <path id="Trazado_3998" data-name="Trazado 3998" d="M314.346,196.509c-.224-1.682,1.04-2.326,2.056-2.845l.232-.118.081.155-.235.118c-1.018.52-2.169,1.108-1.963,2.667Z" transform="translate(-314.32 -193.546)" fill="#ffb399"/>
      </g>
      <path id="Trazado_3999" data-name="Trazado 3999" d="M311.773,195.035l-5-2.8v.546l5,2.8Z" transform="translate(21.825 23.441)" fill="#e8423f"/>
      <path id="Trazado_4000" data-name="Trazado 4000" d="M311.644,196.421l-5-2.8v.546l5,2.8Z" transform="translate(21.779 23.936)" fill="#e8423f"/>
      <g id="Grupo_26814" data-name="Grupo 26814" transform="translate(285.071 174.103)">
        <path id="Trazado_4001" data-name="Trazado 4001" d="M274.7,161.606l.448.255v3.673l1.486.844v.447l-1.934-1.1Z" transform="translate(-274.703 -161.606)" fill="#ffdad4"/>
        <path id="Trazado_4002" data-name="Trazado 4002" d="M279.375,166.111c0,1.417-.727,1.755-1.615,1.25a3.487,3.487,0,0,1-1.564-2.978c0-1.307.685-1.773,1.615-1.245A3.462,3.462,0,0,1,279.375,166.111Zm-2.7-1.467a2.726,2.726,0,0,0,1.11,2.3c.711.406,1.114-.143,1.114-1.076a2.737,2.737,0,0,0-1.11-2.3C277.047,163.138,276.675,163.739,276.675,164.643Z" transform="translate(-274.17 -161.135)" fill="#ffdad4"/>
        <path id="Trazado_4003" data-name="Trazado 4003" d="M278.966,164.07a7.261,7.261,0,0,1,.954.457,3.733,3.733,0,0,1,1.409,1.312,3.336,3.336,0,0,1,.49,1.758,1.445,1.445,0,0,1-.5,1.317c-.324.2-.862.1-1.538-.281-.32-.182-.588-.353-.814-.512Zm.448,3.9a4.091,4.091,0,0,0,.455.288c.96.546,1.481.206,1.481-.905a2.654,2.654,0,0,0-1.409-2.389,2.8,2.8,0,0,0-.527-.244Z" transform="translate(-273.18 -160.726)" fill="#ffdad4"/>
        <path id="Trazado_4004" data-name="Trazado 4004" d="M284.523,169.037c0,1.417-.728,1.755-1.615,1.25a3.485,3.485,0,0,1-1.564-2.978c0-1.307.687-1.773,1.615-1.245A3.459,3.459,0,0,1,284.523,169.037Zm-2.7-1.467a2.725,2.725,0,0,0,1.109,2.3c.713.406,1.114-.141,1.114-1.076a2.74,2.74,0,0,0-1.109-2.3C282.2,166.064,281.824,166.665,281.824,167.569Z" transform="translate(-272.33 -160.089)" fill="#ffdad4"/>
        <path id="Trazado_4005" data-name="Trazado 4005" d="M284.114,171.074v-4.118l.491.278,1.114,2.717c.258.628.459,1.177.624,1.693h.01c-.041-.574-.052-1.08-.052-1.722V168.2l.423.24v4.118l-.455-.258-1.1-2.717c-.243-.6-.475-1.2-.65-1.744l-.015,0c.026.533.035,1.034.035,1.718v1.76Z" transform="translate(-271.341 -159.695)" fill="#ffdad4"/>
        <path id="Trazado_4006" data-name="Trazado 4006" d="M287.42,168.875a4.847,4.847,0,0,1,.821.381,2.6,2.6,0,0,1,.954.842,1.566,1.566,0,0,1,.289.892c0,.4-.223.619-.589.569v.012a2.031,2.031,0,0,1,.718,1.44.693.693,0,0,1-.295.658c-.243.125-.635.024-1.2-.3a7.079,7.079,0,0,1-.7-.445Zm.449,1.941.407.232c.475.27.753.134.753-.262a1.292,1.292,0,0,0-.764-1.106,2.124,2.124,0,0,0-.4-.189Zm0,1.973a3.414,3.414,0,0,0,.376.239c.464.265.893.305.893-.293a1.585,1.585,0,0,0-.9-1.3l-.372-.212Z" transform="translate(-270.16 -159.009)" fill="#ffdad4"/>
        <path id="Trazado_4007" data-name="Trazado 4007" d="M289.929,170.261V172.7a1.916,1.916,0,0,0,.81,1.774c.516.293.847.077.847-.832V171.2l.453.259v2.4c0,1.266-.562,1.466-1.315,1.037a2.638,2.638,0,0,1-1.249-2.469V170Z" transform="translate(-269.425 -158.606)" fill="#ffdad4"/>
        <path id="Trazado_4008" data-name="Trazado 4008" d="M291.922,174.752a2.941,2.941,0,0,0,.8.726c.459.261.728.126.728-.289A1.717,1.717,0,0,0,292.8,174a2.5,2.5,0,0,1-.919-1.688c0-.642.449-.863,1.125-.479a2.776,2.776,0,0,1,.768.639l-.124.364a2.49,2.49,0,0,0-.661-.571c-.474-.27-.656-.037-.656.246,0,.384.212.694.692,1.186a2.449,2.449,0,0,1,.888,1.714c0,.635-.4.96-1.219.493a3.2,3.2,0,0,1-.886-.767Z" transform="translate(-268.592 -158.021)" fill="#ffdad4"/>
      </g>
      <path id="Trazado_4009" data-name="Trazado 4009" d="M315.761,195.087l-1.913,1.041v3.416l1.913-1.042Z" transform="translate(24.353 24.458)" fill="#ea8c73"/>
      <path id="Trazado_4010" data-name="Trazado 4010" d="M308.224,174.165l-12.663-7.109v.656l12.663,7.106Z" transform="translate(17.82 14.444)" fill="#e8423f"/>
      <path id="Trazado_4011" data-name="Trazado 4011" d="M299.051,187.181l-14.236-8.156v.655l14.236,8.154Z" transform="translate(13.981 18.72)" fill="#e8423f"/>
      <path id="Trazado_4012" data-name="Trazado 4012" d="M298.541,168.751l-12.664-7.107v.654l12.664,7.107Z" transform="translate(14.36 12.51)" fill="#e8423f"/>
      <path id="Trazado_4013" data-name="Trazado 4013" d="M328.878,173.446l-11.236,6.4v.51l11.236-6.4Z" transform="translate(25.709 16.727)" fill="#b52824"/>
      <g id="Grupo_26815" data-name="Grupo 26815" transform="translate(356.297 230.681)">
        <rect id="Rectángulo_4643" data-name="Rectángulo 4643" width="0.212" height="6.246" fill="#e2a3a3"/>
      </g>
      <g id="Grupo_26816" data-name="Grupo 26816" transform="translate(356.957 230.066)">
        <rect id="Rectángulo_4644" data-name="Rectángulo 4644" width="0.212" height="6.773" fill="#e2a3a3"/>
      </g>
      <g id="Grupo_26817" data-name="Grupo 26817" transform="translate(357.617 229.508)">
        <rect id="Rectángulo_4645" data-name="Rectángulo 4645" width="0.212" height="7.066" fill="#e2a3a3"/>
      </g>
      <g id="Grupo_26818" data-name="Grupo 26818" transform="translate(358.276 228.98)">
        <rect id="Rectángulo_4646" data-name="Rectángulo 4646" width="0.212" height="7.241" fill="#e2a3a3"/>
      </g>
      <g id="Grupo_26819" data-name="Grupo 26819" transform="translate(358.937 228.276)">
        <rect id="Rectángulo_4647" data-name="Rectángulo 4647" width="0.212" height="7.595" fill="#e2a3a3"/>
      </g>
      <g id="Grupo_26820" data-name="Grupo 26820" transform="translate(360.637 226.957)">
        <rect id="Rectángulo_4648" data-name="Rectángulo 4648" width="0.212" height="7.859" fill="#e2a3a3"/>
      </g>
      <g id="Grupo_26821" data-name="Grupo 26821" transform="translate(361.297 227.073)">
        <rect id="Rectángulo_4649" data-name="Rectángulo 4649" width="0.212" height="7.243" fill="#e2a3a3"/>
      </g>
      <g id="Grupo_26822" data-name="Grupo 26822" transform="translate(361.958 226.928)">
        <rect id="Rectángulo_4650" data-name="Rectángulo 4650" width="0.212" height="6.92" fill="#e2a3a3"/>
      </g>
      <g id="Grupo_26823" data-name="Grupo 26823" transform="translate(362.617 226.928)">
        <rect id="Rectángulo_4651" data-name="Rectángulo 4651" width="0.212" height="6.393" fill="#e2a3a3"/>
      </g>
      <path id="Trazado_4014" data-name="Trazado 4014" d="M322.891,203.4v8.056l.938.524.094-7.384Z" transform="translate(27.584 27.43)" fill="#a51c1c"/>
      <rect id="Rectángulo_4652" data-name="Rectángulo 4652" width="0.294" height="6.321" transform="translate(327.052 187.392)" fill="#e8423f"/>
      <path id="Trazado_4015" data-name="Trazado 4015" d="M314.572,176.4l-.307-.163.022,6.583.285.14Z" transform="translate(24.502 17.724)" fill="#e8423f"/>
      <path id="Trazado_4016" data-name="Trazado 4016" d="M317.584,178.471l-.039-.342-11.752-6.879-.16.215Z" transform="translate(21.418 15.942)" fill="#e8423f"/>
      <path id="Trazado_4017" data-name="Trazado 4017" d="M317.684,183.156l-.029-.345-11.833-6.916-.185.223Z" transform="translate(21.42 17.601)" fill="#e8423f"/>
    </g>
  </g>
</svg>
