<svg xmlns="http://www.w3.org/2000/svg" xmlns:xlink="http://www.w3.org/1999/xlink" width="106.879" height="105.651" viewBox="0 0 106.879 105.651">
  <defs>
    <linearGradient id="linear-gradient" x1="0.528" y1="0.385" x2="0.455" y2="0.579" gradientUnits="objectBoundingBox">
      <stop offset="0.138" stop-color="#c69e5e"/>
      <stop offset="0.153" stop-color="#e0c684"/>
      <stop offset="0.193" stop-color="#e0c684"/>
      <stop offset="0.439" stop-color="#e0c684"/>
      <stop offset="0.439" stop-color="#dec381"/>
      <stop offset="0.442" stop-color="#d3b271"/>
      <stop offset="0.446" stop-color="#cba666"/>
      <stop offset="0.451" stop-color="#c79f5f"/>
      <stop offset="0.466" stop-color="#c69e5e"/>
      <stop offset="0.793" stop-color="#c69e5e"/>
      <stop offset="0.814" stop-color="#996337"/>
      <stop offset="0.834" stop-color="#996337"/>
    </linearGradient>
  </defs>
  <g id="Grupo_29318" data-name="Grupo 29318" transform="translate(-448.28 -14.536)">
    <g id="Grupo_29287" data-name="Grupo 29287" transform="translate(496.241 14.536)">
      <path id="Trazado_19420" data-name="Trazado 19420" d="M502.924,71.992l-2.686-1.551V16.216l2.686,1.551Z" transform="translate(-500.238 -14.665)" fill="#85562e"/>
      <path id="Trazado_19421" data-name="Trazado 19421" d="M502.924,17.637l-2.686-1.551,2.686-1.551,2.686,1.551Z" transform="translate(-500.238 -14.536)" fill="#f2d49c"/>
      <path id="Trazado_19422" data-name="Trazado 19422" d="M503.148,71.992l2.686-1.551V16.216l-2.686,1.551Z" transform="translate(-500.462 -14.665)" fill="#d6b372"/>
    </g>
    <g id="Grupo_29288" data-name="Grupo 29288" transform="translate(499.487 19.184)">
      <path id="Trazado_19423" data-name="Trazado 19423" d="M503.755,20.521v3.1l51.283,29.64v-3.1Z" transform="translate(-503.755 -19.645)" fill="#85562e"/>
      <path id="Trazado_19424" data-name="Trazado 19424" d="M559.312,52.559v3.1l1.452-.876v-3.1Z" transform="translate(-508.029 -22.042)" fill="#f2d49c"/>
      <path id="Trazado_19425" data-name="Trazado 19425" d="M503.755,20.448l1.452-.876,51.283,29.64-1.452.876Z" transform="translate(-503.755 -19.572)" fill="#f2d49c"/>
    </g>
    <g id="Grupo_29289" data-name="Grupo 29289" transform="translate(469.535 19.964)">
      <path id="Trazado_19426" data-name="Trazado 19426" d="M500.34,21.366v3.1l-27.461,15.8v-3.1Z" transform="translate(-471.427 -20.49)" fill="#e5c385"/>
      <path id="Trazado_19427" data-name="Trazado 19427" d="M472.758,38.407v3.1l-1.452-.876v-3.1Z" transform="translate(-471.306 -21.733)" fill="#f2d49c"/>
      <path id="Trazado_19428" data-name="Trazado 19428" d="M500.219,21.293l-1.452-.876-27.461,15.8,1.452.876Z" transform="translate(-471.306 -20.417)" fill="#f2d49c"/>
    </g>
    <g id="Grupo_29290" data-name="Grupo 29290" transform="translate(468.766 47.891)">
      <path id="Trazado_19429" data-name="Trazado 19429" d="M506.676,51.62v3.1l-34.63,19.992v-3.1Z" transform="translate(-470.594 -50.744)" fill="#e5c385"/>
      <path id="Trazado_19430" data-name="Trazado 19430" d="M471.924,73.206v3.1l-1.452-.876v-3.1Z" transform="translate(-470.473 -52.337)" fill="#f2d49c"/>
      <path id="Trazado_19431" data-name="Trazado 19431" d="M506.555,51.547l-1.452-.876-34.63,19.992,1.452.876Z" transform="translate(-470.473 -50.671)" fill="#f2d49c"/>
    </g>
    <g id="Grupo_29291" data-name="Grupo 29291" transform="translate(516.14 60.426)">
      <path id="Trazado_19432" data-name="Trazado 19432" d="M521.8,65.2v3.1l34.63,19.992v-3.1Z" transform="translate(-521.796 -64.324)" fill="#85562e"/>
      <path id="Trazado_19433" data-name="Trazado 19433" d="M559.312,86.785v3.1l1.452-.876v-3.1Z" transform="translate(-524.682 -65.917)" fill="#f2d49c"/>
      <path id="Trazado_19434" data-name="Trazado 19434" d="M521.8,65.127l1.452-.876,34.63,19.992-1.452.876Z" transform="translate(-521.796 -64.251)" fill="#d6b372"/>
    </g>
    <g id="Grupo_29292" data-name="Grupo 29292" transform="translate(549.788 45.451)">
      <path id="Trazado_19435" data-name="Trazado 19435" d="M560.934,105.484l-2.686-1.551V49.708l2.686,1.551Z" transform="translate(-558.248 -48.157)" fill="#85562e"/>
      <path id="Trazado_19436" data-name="Trazado 19436" d="M560.934,51.129l-2.686-1.551,2.686-1.551,2.686,1.551Z" transform="translate(-558.248 -48.028)" fill="#f2d49c"/>
      <path id="Trazado_19437" data-name="Trazado 19437" d="M561.157,105.484l2.686-1.551V49.708l-2.686,1.551Z" transform="translate(-558.472 -48.157)" fill="#d6b372"/>
    </g>
    <path id="Trazado_19438" data-name="Trazado 19438" d="M500.135,120.226l22.242,4.043L487.56,67.6,448.28,90.287Z" transform="translate(0 -4.082)" fill="#d1d0be"/>
    <path id="Trazado_19439" data-name="Trazado 19439" d="M555.708,97.7V92.061l.507-.3V97.4Z" transform="translate(-8.265 -5.941)" fill="#e37c4b"/>
    <path id="Trazado_19440" data-name="Trazado 19440" d="M528.552,123.854,555.963,108v-5.482l-27.411,15.858Z" transform="translate(-6.175 -6.768)" fill="#e5c385"/>
    <path id="Trazado_19441" data-name="Trazado 19441" d="M524.313,122.728,473.453,93.363V87.881l50.861,29.365Z" transform="translate(-1.937 -5.643)" fill="#9b6b42"/>
    <path id="Trazado_19442" data-name="Trazado 19442" d="M524.313,115.924l27.411-15.858L500.864,70.7,473.453,86.56Z" transform="translate(-1.937 -4.321)" fill="#744e2c"/>
    <path id="Trazado_19443" data-name="Trazado 19443" d="M528.685,116.608l28.159-16.29V94.729l-28.159,16.29Z" transform="translate(-6.186 -6.169)" fill="#cfcfcf"/>
    <path id="Trazado_19444" data-name="Trazado 19444" d="M524.364,115.471,472.509,85.532V79.943l51.855,29.938Z" transform="translate(-1.864 -5.032)" fill="#acacac"/>
    <path id="Trazado_19445" data-name="Trazado 19445" d="M524.364,108.524l28.159-16.29L500.668,62.3l-28.16,16.29Z" transform="translate(-1.864 -3.674)" fill="#efefef"/>
    <g id="Grupo_29298" data-name="Grupo 29298" transform="translate(478.21 60.69)">
      <g id="Grupo_29294" data-name="Grupo 29294" transform="translate(0 2.411)">
        <g id="Grupo_29293" data-name="Grupo 29293">
          <path id="Trazado_19446" data-name="Trazado 19446" d="M491.31,81.69a80.035,80.035,0,0,0,14.58-8.417,31.15,31.15,0,0,0-10.606-6.124,80.069,80.069,0,0,0-14.58,8.417A31.12,31.12,0,0,0,491.31,81.69Z" transform="translate(-480.704 -67.149)" fill="#acacac"/>
        </g>
      </g>
      <g id="Grupo_29295" data-name="Grupo 29295" transform="translate(0.141)">
        <path id="Trazado_19447" data-name="Trazado 19447" d="M508.234,71.191a87.093,87.093,0,0,1-15.848,9.15,33.875,33.875,0,0,1-11.529-6.654q2.023-1.488,4.185-2.873l.013-.007a91.654,91.654,0,0,1,11.65-6.27A33.875,33.875,0,0,1,508.234,71.191Z" transform="translate(-480.857 -64.537)" fill="#52b1cc"/>
      </g>
      <g id="Grupo_29296" data-name="Grupo 29296" transform="translate(2.754)">
        <path id="Trazado_19448" data-name="Trazado 19448" d="M492.384,77.293a72.953,72.953,0,0,0,12.982-7.785c-2.531-2.282-4.9-3.509-8.856-4.971a70.378,70.378,0,0,0-12.822,7.4A24.278,24.278,0,0,0,492.384,77.293Z" transform="translate(-483.688 -64.537)" fill="#72d6e8"/>
      </g>
      <path id="Trazado_19449" data-name="Trazado 19449" d="M492.386,80.828a33.875,33.875,0,0,1-11.529-6.654q2.023-1.488,4.185-2.873l.013-.007a5.921,5.921,0,0,1,.871-.4c1.45-.461,6.809,3.933,6.809,3.933A12.176,12.176,0,0,0,492.386,80.828Z" transform="translate(-480.716 -65.023)" fill="#70bdd1" style="mix-blend-mode: multiply;isolation: isolate"/>
      <g id="Grupo_29297" data-name="Grupo 29297" transform="translate(5.212 0.464)">
        <path id="Trazado_19450" data-name="Trazado 19450" d="M493.159,74.376a51.385,51.385,0,0,0,9.362-5.4,20,20,0,0,0-6.81-3.931,51.391,51.391,0,0,0-9.361,5.4A19.978,19.978,0,0,0,493.159,74.376Z" transform="translate(-486.35 -65.04)" fill="#7cdbec"/>
      </g>
    </g>
    <g id="Grupo_29299" data-name="Grupo 29299" transform="translate(485.929 67.156)">
      <path id="Trazado_19451" data-name="Trazado 19451" d="M521.388,107.372l29.7-17.17L518.767,71.541l-29.7,17.17Z" transform="translate(-489.067 -71.541)" fill="#72d6e8"/>
    </g>
    <path id="Trazado_19452" data-name="Trazado 19452" d="M521.388,114.442V108.8L489.067,90.142v5.64Z" transform="translate(-3.138 -5.816)" fill="#1985ae"/>
    <g id="Grupo_29300" data-name="Grupo 29300" transform="translate(485.929 67.156)">
      <path id="Trazado_19453" data-name="Trazado 19453" d="M523.2,74.08l-4.436-2.539-29.7,17.17,4.436,2.539Z" transform="translate(-489.067 -71.541)" fill="#b1ebf5"/>
      <path id="Trazado_19454" data-name="Trazado 19454" d="M533.273,79.9l-4.436-2.539-29.7,17.17,4.436,2.539Z" transform="translate(-489.841 -71.989)" fill="#b1ebf5"/>
      <path id="Trazado_19455" data-name="Trazado 19455" d="M543.343,85.724l-4.436-2.539-29.7,17.17,4.436,2.539Z" transform="translate(-490.616 -72.437)" fill="#b1ebf5"/>
      <path id="Trazado_19456" data-name="Trazado 19456" d="M553.412,91.545l-4.436-2.539-29.7,17.17,4.436,2.539Z" transform="translate(-491.391 -72.885)" fill="#b1ebf5"/>
    </g>
    <g id="Grupo_29301" data-name="Grupo 29301" transform="translate(485.929 84.326)">
      <path id="Trazado_19457" data-name="Trazado 19457" d="M493.5,92.682l-4.436-2.539v5.64l4.436,2.539Z" transform="translate(-489.067 -90.142)" fill="#53a4ad"/>
      <path id="Trazado_19458" data-name="Trazado 19458" d="M503.572,98.5l-4.436-2.539V101.6l4.436,2.539Z" transform="translate(-489.841 -90.59)" fill="#53a4ad"/>
      <path id="Trazado_19459" data-name="Trazado 19459" d="M513.642,104.325l-4.436-2.539v5.639l4.436,2.539Z" transform="translate(-490.616 -91.038)" fill="#53a4ad"/>
      <path id="Trazado_19460" data-name="Trazado 19460" d="M523.712,110.147l-4.436-2.539v5.64l4.436,2.539Z" transform="translate(-491.391 -91.486)" fill="#53a4ad"/>
    </g>
    <path id="Trazado_19461" data-name="Trazado 19461" d="M524.082,115.972v-5.639l.507-.3v5.639Z" transform="translate(-5.831 -7.346)" fill="#52b1cc"/>
    <path id="Trazado_19462" data-name="Trazado 19462" d="M553.782,91.757l-29.7,17.17,0,.591,29.7-17.17Z" transform="translate(-5.831 -5.941)" fill="#52b1cc"/>
    <path id="Trazado_19463" data-name="Trazado 19463" d="M555.708,64.193V58.554l.507-.3v5.64Z" transform="translate(-8.265 -3.363)" fill="#52b1cc"/>
    <path id="Trazado_19464" data-name="Trazado 19464" d="M528.552,90.347l27.411-15.858V69.007L528.552,84.865Z" transform="translate(-6.175 -4.191)" fill="#e5c385"/>
    <path id="Trazado_19465" data-name="Trazado 19465" d="M524.313,89.221,473.453,59.856V54.374l50.861,29.365Z" transform="translate(-1.937 -3.065)" fill="#9b6b42"/>
    <path id="Trazado_19466" data-name="Trazado 19466" d="M524.313,82.417,551.724,66.56,500.864,37.2,473.453,53.053Z" transform="translate(-1.937 -1.743)" fill="#744e2c"/>
    <path id="Trazado_19467" data-name="Trazado 19467" d="M528.685,83.1l28.159-16.29V61.222l-28.159,16.29Z" transform="translate(-6.186 -3.592)" fill="#cfcfcf"/>
    <path id="Trazado_19468" data-name="Trazado 19468" d="M524.364,81.964,472.509,52.026V46.436l51.855,29.938Z" transform="translate(-1.864 -2.454)" fill="#acacac"/>
    <path id="Trazado_19469" data-name="Trazado 19469" d="M524.364,75.017l28.159-16.29L500.668,28.789l-28.16,16.29Z" transform="translate(-1.864 -1.096)" fill="#efefef"/>
    <g id="Grupo_29307" data-name="Grupo 29307" transform="translate(478.21 29.761)">
      <g id="Grupo_29303" data-name="Grupo 29303" transform="translate(0 2.411)">
        <g id="Grupo_29302" data-name="Grupo 29302">
          <path id="Trazado_19470" data-name="Trazado 19470" d="M491.31,48.183a80.036,80.036,0,0,0,14.58-8.417,31.151,31.151,0,0,0-10.606-6.124,80.122,80.122,0,0,0-14.58,8.417A31.121,31.121,0,0,0,491.31,48.183Z" transform="translate(-480.704 -33.642)" fill="#acacac"/>
        </g>
      </g>
      <g id="Grupo_29304" data-name="Grupo 29304" transform="translate(0.141 0)">
        <path id="Trazado_19471" data-name="Trazado 19471" d="M508.234,37.684a87.038,87.038,0,0,1-15.848,9.15,33.875,33.875,0,0,1-11.529-6.654q2.023-1.488,4.185-2.873l.013-.006a91.54,91.54,0,0,1,11.65-6.271A33.876,33.876,0,0,1,508.234,37.684Z" transform="translate(-480.857 -31.03)" fill="#52b1cc"/>
      </g>
      <g id="Grupo_29305" data-name="Grupo 29305" transform="translate(2.754 0)">
        <path id="Trazado_19472" data-name="Trazado 19472" d="M492.384,43.786A72.9,72.9,0,0,0,505.366,36c-2.531-2.282-4.9-3.51-8.856-4.971a70.378,70.378,0,0,0-12.822,7.4A24.265,24.265,0,0,0,492.384,43.786Z" transform="translate(-483.688 -31.03)" fill="#72d6e8"/>
      </g>
      <path id="Trazado_19473" data-name="Trazado 19473" d="M492.386,47.321a33.875,33.875,0,0,1-11.529-6.654q2.023-1.488,4.185-2.873l.013-.006a5.849,5.849,0,0,1,.871-.4c1.45-.461,6.809,3.933,6.809,3.933A12.176,12.176,0,0,0,492.386,47.321Z" transform="translate(-480.716 -31.516)" fill="#70bdd1" style="mix-blend-mode: multiply;isolation: isolate"/>
      <g id="Grupo_29306" data-name="Grupo 29306" transform="translate(5.212 0.464)">
        <path id="Trazado_19474" data-name="Trazado 19474" d="M493.159,40.869a51.331,51.331,0,0,0,9.362-5.4,20,20,0,0,0-6.81-3.931,51.391,51.391,0,0,0-9.361,5.4A19.978,19.978,0,0,0,493.159,40.869Z" transform="translate(-486.35 -31.533)" fill="#7cdbec"/>
      </g>
    </g>
    <g id="Grupo_29308" data-name="Grupo 29308" transform="translate(485.929 36.226)">
      <path id="Trazado_19475" data-name="Trazado 19475" d="M521.388,73.865l29.7-17.17L518.767,38.034l-29.7,17.17Z" transform="translate(-489.067 -38.034)" fill="#72d6e8"/>
    </g>
    <path id="Trazado_19476" data-name="Trazado 19476" d="M521.388,80.936V75.3L489.067,56.635v5.64Z" transform="translate(-3.138 -3.239)" fill="#1985ae"/>
    <g id="Grupo_29309" data-name="Grupo 29309" transform="translate(485.929 36.226)">
      <path id="Trazado_19477" data-name="Trazado 19477" d="M523.2,40.573l-4.436-2.539-29.7,17.17,4.436,2.539Z" transform="translate(-489.067 -38.034)" fill="#b1ebf5"/>
      <path id="Trazado_19478" data-name="Trazado 19478" d="M533.273,46.4l-4.436-2.539-29.7,17.17,4.436,2.539Z" transform="translate(-489.841 -38.482)" fill="#b1ebf5"/>
      <path id="Trazado_19479" data-name="Trazado 19479" d="M543.343,52.217l-4.436-2.539-29.7,17.17,4.436,2.539Z" transform="translate(-490.616 -38.93)" fill="#b1ebf5"/>
      <path id="Trazado_19480" data-name="Trazado 19480" d="M553.412,58.038,548.976,55.5l-29.7,17.17,4.436,2.539Z" transform="translate(-491.391 -39.378)" fill="#b1ebf5"/>
    </g>
    <g id="Grupo_29310" data-name="Grupo 29310" transform="translate(485.929 53.397)">
      <path id="Trazado_19481" data-name="Trazado 19481" d="M493.5,59.175l-4.436-2.539v5.639l4.436,2.539Z" transform="translate(-489.067 -56.636)" fill="#53a4ad"/>
      <path id="Trazado_19482" data-name="Trazado 19482" d="M503.572,65l-4.436-2.539V68.1l4.436,2.539Z" transform="translate(-489.841 -57.083)" fill="#53a4ad"/>
      <path id="Trazado_19483" data-name="Trazado 19483" d="M513.642,70.818l-4.436-2.539v5.639l4.436,2.539Z" transform="translate(-490.616 -57.531)" fill="#53a4ad"/>
      <path id="Trazado_19484" data-name="Trazado 19484" d="M523.712,76.64,519.276,74.1V79.74l4.436,2.539Z" transform="translate(-491.391 -57.979)" fill="#53a4ad"/>
    </g>
    <path id="Trazado_19485" data-name="Trazado 19485" d="M524.082,82.465V76.826l.507-.3v5.64Z" transform="translate(-5.831 -4.769)" fill="#52b1cc"/>
    <path id="Trazado_19486" data-name="Trazado 19486" d="M553.782,58.25l-29.7,17.17,0,.591,29.7-17.17Z" transform="translate(-5.831 -3.363)" fill="#52b1cc"/>
    <g id="Grupo_29311" data-name="Grupo 29311" transform="translate(523.065 81.179)">
      <path id="Trazado_19487" data-name="Trazado 19487" d="M558.3,87.683v3.1l-27.433,15.739v-3.1Z" transform="translate(-529.419 -86.807)" fill="#e5c385"/>
      <path id="Trazado_19488" data-name="Trazado 19488" d="M530.75,104.661v3.1l-1.452-.876v-3.1Z" transform="translate(-529.298 -88.045)" fill="#f2d49c"/>
      <path id="Trazado_19489" data-name="Trazado 19489" d="M558.183,87.61l-1.452-.876L529.3,102.473l1.452.876Z" transform="translate(-529.298 -86.733)" fill="#f2d49c"/>
    </g>
    <g id="Grupo_29312" data-name="Grupo 29312" transform="translate(523.065 49.586)">
      <path id="Trazado_19490" data-name="Trazado 19490" d="M558.3,53.456v3.1L530.871,72.3V69.2Z" transform="translate(-529.419 -52.58)" fill="#e5c385"/>
      <path id="Trazado_19491" data-name="Trazado 19491" d="M530.75,70.434v3.1l-1.452-.876v-3.1Z" transform="translate(-529.298 -53.818)" fill="#f2d49c"/>
      <path id="Trazado_19492" data-name="Trazado 19492" d="M558.183,53.383l-1.452-.876L529.3,68.246l1.452.876Z" transform="translate(-529.298 -52.507)" fill="#f2d49c"/>
    </g>
    <g id="Grupo_29313" data-name="Grupo 29313" transform="translate(466.145 31.944)">
      <path id="Trazado_19493" data-name="Trazado 19493" d="M470.319,90.852,467.633,89.3V35.075l2.686,1.551Z" transform="translate(-467.633 -33.524)" fill="#85562e"/>
      <path id="Trazado_19494" data-name="Trazado 19494" d="M470.319,36.5l-2.686-1.551,2.686-1.551L473,34.946Z" transform="translate(-467.633 -33.395)" fill="#f2d49c"/>
      <path id="Trazado_19495" data-name="Trazado 19495" d="M470.543,90.852l2.686-1.551V35.075l-2.686,1.551Z" transform="translate(-467.857 -33.524)" fill="#d6b372"/>
    </g>
    <g id="Grupo_29314" data-name="Grupo 29314" transform="translate(469.517 70.787)">
      <path id="Trazado_19496" data-name="Trazado 19496" d="M471.287,76.424v3.1l34.63,19.992v-3.1Z" transform="translate(-471.287 -75.548)" fill="#9b6b42"/>
      <path id="Trazado_19497" data-name="Trazado 19497" d="M508.8,98.01v3.1l1.452-.876v-3.1Z" transform="translate(-474.173 -77.141)" fill="#f2d49c"/>
      <path id="Trazado_19498" data-name="Trazado 19498" d="M471.287,76.351l1.452-.876,34.63,19.992-1.452.876Z" transform="translate(-471.287 -75.475)" fill="#f2d49c"/>
    </g>
    <g id="Grupo_29315" data-name="Grupo 29315" transform="translate(469.517 37.722)">
      <path id="Trazado_19499" data-name="Trazado 19499" d="M471.287,40.6v3.1L505.917,63.7V60.6Z" transform="translate(-471.287 -39.727)" fill="#9b6b42"/>
      <path id="Trazado_19500" data-name="Trazado 19500" d="M508.8,62.189v3.1l1.452-.876v-3.1Z" transform="translate(-474.173 -41.321)" fill="#f2d49c"/>
      <path id="Trazado_19501" data-name="Trazado 19501" d="M471.287,40.531l1.452-.876,34.63,19.992-1.452.876Z" transform="translate(-471.287 -39.654)" fill="#f2d49c"/>
    </g>
    <g id="Grupo_29316" data-name="Grupo 29316" transform="translate(503.174 53.337)">
      <path id="Trazado_19502" data-name="Trazado 19502" d="M510.435,114.027l-2.686-1.551V58.251l2.686,1.551Z" transform="translate(-507.749 -56.7)" fill="#85562e"/>
      <path id="Trazado_19503" data-name="Trazado 19503" d="M510.435,59.672l-2.686-1.551,2.686-1.551,2.686,1.551Z" transform="translate(-507.749 -56.571)" fill="#f2d49c"/>
      <path id="Trazado_19504" data-name="Trazado 19504" d="M510.659,114.027l2.686-1.551V58.251L510.659,59.8Z" transform="translate(-507.973 -56.7)" fill="#d6b372"/>
    </g>
    <path id="Trazado_19505" data-name="Trazado 19505" d="M526.425,118.532l-14.979-8.645a.561.561,0,0,1-.241-.527c0-.007,0-.011,0-.018a1.7,1.7,0,0,1,.344-.948,1.412,1.412,0,0,1,.479-.462.57.57,0,0,1,.581-.062l.007,0,14.971,8.642Z" transform="translate(-4.841 -7.176)" fill="url(#linear-gradient)"/>
    <path id="Trazado_19506" data-name="Trazado 19506" d="M526.425,109.04l-14.979-8.645a.561.561,0,0,1-.241-.527c0-.007,0-.011,0-.018a1.7,1.7,0,0,1,.344-.947,1.412,1.412,0,0,1,.479-.462.57.57,0,0,1,.581-.062l.007,0,14.971,8.642Z" transform="translate(-4.841 -6.446)" fill="url(#linear-gradient)"/>
    <path id="Trazado_19507" data-name="Trazado 19507" d="M526.425,99.548,511.446,90.9a.561.561,0,0,1-.241-.527c0-.007,0-.011,0-.018a1.7,1.7,0,0,1,.344-.947,1.412,1.412,0,0,1,.479-.462.57.57,0,0,1,.581-.062l.007,0,14.971,8.642Z" transform="translate(-4.841 -5.716)" fill="url(#linear-gradient)"/>
    <path id="Trazado_19508" data-name="Trazado 19508" d="M526.425,90.056,511.446,81.41a.561.561,0,0,1-.241-.527c0-.007,0-.011,0-.018a1.7,1.7,0,0,1,.344-.947,1.412,1.412,0,0,1,.479-.462.57.57,0,0,1,.581-.062l.007,0,14.971,8.642Z" transform="translate(-4.841 -4.985)" fill="url(#linear-gradient)"/>
    <path id="Trazado_19509" data-name="Trazado 19509" d="M526.425,80.564l-14.979-8.645a.561.561,0,0,1-.241-.527c0-.007,0-.011,0-.018a1.7,1.7,0,0,1,.344-.947,1.412,1.412,0,0,1,.479-.462.57.57,0,0,1,.581-.062l.007,0,14.971,8.642Z" transform="translate(-4.841 -4.255)" fill="url(#linear-gradient)"/>
    <g id="Grupo_29317" data-name="Grupo 29317" transform="translate(519.691 62.859)">
      <path id="Trazado_19510" data-name="Trazado 19510" d="M528.329,124.343l-2.686-1.551V68.567l2.686,1.551Z" transform="translate(-525.643 -67.016)" fill="#85562e"/>
      <path id="Trazado_19511" data-name="Trazado 19511" d="M528.329,69.988l-2.686-1.551,2.686-1.551,2.686,1.551Z" transform="translate(-525.643 -66.887)" fill="#f2d49c"/>
      <path id="Trazado_19512" data-name="Trazado 19512" d="M528.552,124.343l2.686-1.551V68.567l-2.686,1.551Z" transform="translate(-525.867 -67.016)" fill="#d6b372"/>
    </g>
  </g>
</svg>
