<svg xmlns="http://www.w3.org/2000/svg" xmlns:xlink="http://www.w3.org/1999/xlink" width="69.112" height="115.594" viewBox="0 0 69.112 115.594">
  <defs>
    <radialGradient id="radial-gradient" cx="0.58" cy="0.168" r="0.176" gradientTransform="translate(-0.442) scale(1.885 1)" gradientUnits="objectBoundingBox">
      <stop offset="0" stop-color="#cdcfd0"/>
      <stop offset="1" stop-color="#f1f1f1"/>
    </radialGradient>
    <linearGradient id="linear-gradient" x1="6.375" y1="0.5" x2="7.375" y2="0.5" gradientUnits="objectBoundingBox">
      <stop offset="0" stop-color="#731f1b"/>
      <stop offset="1" stop-color="#751f1b"/>
    </linearGradient>
    <linearGradient id="linear-gradient-2" y1="0.5" x2="1" y2="0.5" gradientUnits="objectBoundingBox">
      <stop offset="0" stop-color="#b6b5b3"/>
      <stop offset="1" stop-color="#d2d1ce"/>
    </linearGradient>
    <linearGradient id="linear-gradient-3" y1="0.5" x2="1" y2="0.5" gradientUnits="objectBoundingBox">
      <stop offset="0" stop-color="#6b3529"/>
      <stop offset="1" stop-color="#773c2c"/>
    </linearGradient>
    <linearGradient id="linear-gradient-4" x1="0" y1="0.5" x2="1" y2="0.5" xlink:href="#linear-gradient-2"/>
    <linearGradient id="linear-gradient-5" y1="0.5" x2="1" y2="0.5" gradientUnits="objectBoundingBox">
      <stop offset="0" stop-color="#eae8e3"/>
      <stop offset="1" stop-color="#f5f3ee"/>
    </linearGradient>
    <linearGradient id="linear-gradient-11" x1="0" y1="0.5" x2="1" y2="0.5" xlink:href="#linear-gradient-2"/>
    <linearGradient id="linear-gradient-12" x1="0" y1="0.5" x2="1" y2="0.5" xlink:href="#linear-gradient-3"/>
    <linearGradient id="linear-gradient-13" x1="0" y1="0.5" x2="1" y2="0.5" xlink:href="#linear-gradient-2"/>
    <linearGradient id="linear-gradient-14" x1="0" y1="0.5" x2="1" y2="0.5" xlink:href="#linear-gradient-2"/>
    <linearGradient id="linear-gradient-15" x1="0" y1="0.5" x2="1" y2="0.5" xlink:href="#linear-gradient-3"/>
    <linearGradient id="linear-gradient-17" x1="0" y1="0.5" x2="1" y2="0.5" xlink:href="#linear-gradient-2"/>
    <linearGradient id="linear-gradient-18" x1="0" y1="0.5" x2="1" y2="0.5" xlink:href="#linear-gradient-3"/>
    <linearGradient id="linear-gradient-19" x1="0" y1="0.5" x2="1" y2="0.5" xlink:href="#linear-gradient-2"/>
    <linearGradient id="linear-gradient-20" x1="0.526" y1="0.019" x2="0.439" y2="1.61" gradientUnits="objectBoundingBox">
      <stop offset="0" stop-color="#e0dfdb"/>
      <stop offset="1" stop-color="#d5d4d1"/>
    </linearGradient>
    <radialGradient id="radial-gradient-2" cx="0.706" cy="0.475" r="0.878" gradientTransform="translate(0.114) scale(0.772 1)" gradientUnits="objectBoundingBox">
      <stop offset="0" stop-color="#e0dfdb"/>
      <stop offset="0.507" stop-color="#d1d0cd"/>
      <stop offset="1" stop-color="#b9b8b6"/>
    </radialGradient>
    <linearGradient id="linear-gradient-21" x1="0.932" y1="0.236" x2="-0.083" y2="0.857" xlink:href="#linear-gradient-20"/>
    <linearGradient id="linear-gradient-22" x1="-0.656" y1="1.781" x2="-0.772" y2="3.356" gradientUnits="objectBoundingBox">
      <stop offset="0" stop-color="#e0dfdb"/>
      <stop offset="0.178" stop-color="#a8a8a5"/>
      <stop offset="0.392" stop-color="#6d6c6a"/>
      <stop offset="0.589" stop-color="#3e3d3c"/>
      <stop offset="0.762" stop-color="#1c1c1b"/>
      <stop offset="0.905" stop-color="#070707"/>
      <stop offset="1"/>
    </linearGradient>
    <linearGradient id="linear-gradient-23" x1="-49.099" y1="-37.54" x2="-47.593" y2="-37.54" gradientUnits="objectBoundingBox">
      <stop offset="0.059" stop-color="#f3bc97"/>
      <stop offset="1" stop-color="#efb289"/>
    </linearGradient>
    <linearGradient id="linear-gradient-24" x1="0.011" y1="0.5" x2="1.339" y2="0.5" gradientUnits="objectBoundingBox">
      <stop offset="0" stop-color="#301414"/>
      <stop offset="1" stop-color="#351616"/>
    </linearGradient>
    <linearGradient id="linear-gradient-25" y1="0.5" x2="1" y2="0.5" gradientUnits="objectBoundingBox">
      <stop offset="0" stop-color="#090f0a"/>
      <stop offset="1" stop-color="#1c2e1d"/>
    </linearGradient>
    <radialGradient id="radial-gradient-3" cx="0.847" cy="0.286" r="0.322" gradientTransform="translate(-1.232) scale(3.464 1)" gradientUnits="objectBoundingBox">
      <stop offset="0" stop-color="#416b44"/>
      <stop offset="0.02" stop-color="#3f6842"/>
      <stop offset="0.477" stop-color="#1d301e"/>
      <stop offset="0.817" stop-color="#080d08"/>
      <stop offset="1"/>
    </radialGradient>
    <linearGradient id="linear-gradient-27" x1="297.87" y1="0.5" x2="300.778" y2="0.5" gradientUnits="objectBoundingBox">
      <stop offset="0"/>
      <stop offset="1" stop-color="#454c38"/>
    </linearGradient>
    <linearGradient id="linear-gradient-28" y1="0.5" x2="1" y2="0.5" gradientUnits="objectBoundingBox">
      <stop offset="0" stop-color="#bf7b1d"/>
      <stop offset="1" stop-color="#c38b1e"/>
    </linearGradient>
    <linearGradient id="linear-gradient-29" x1="0" y1="0.5" x2="1" y2="0.5" xlink:href="#linear-gradient-28"/>
    <linearGradient id="linear-gradient-30" x1="0" y1="0.5" x2="1" y2="0.5" xlink:href="#linear-gradient-28"/>
    <linearGradient id="linear-gradient-31" x1="225.416" y1="0.5" x2="228.553" y2="0.5" xlink:href="#linear-gradient-27"/>
    <linearGradient id="linear-gradient-32" x1="1.192" y1="0.5" x2="-0.747" y2="0.5" gradientUnits="objectBoundingBox">
      <stop offset="0" stop-color="#ebd188"/>
      <stop offset="0.042" stop-color="#e4cb84"/>
      <stop offset="0.497" stop-color="#a4925f"/>
      <stop offset="0.829" stop-color="#7c6e48"/>
      <stop offset="1" stop-color="#6d6140"/>
    </linearGradient>
    <linearGradient id="linear-gradient-33" x1="0.443" y1="0.202" x2="0.648" y2="1.187" gradientUnits="objectBoundingBox">
      <stop offset="0" stop-color="#b2e4e2"/>
      <stop offset="1"/>
    </linearGradient>
    <radialGradient id="radial-gradient-4" cx="0.733" cy="0.772" r="0.972" gradientTransform="translate(0.143) scale(0.715 1)" xlink:href="#linear-gradient-33"/>
    <linearGradient id="linear-gradient-34" x1="0.443" y1="0.202" x2="0.648" y2="1.187" xlink:href="#linear-gradient-33"/>
    <radialGradient id="radial-gradient-5" cx="0.733" cy="0.772" r="0.972" gradientTransform="translate(0.143) scale(0.714 1)" xlink:href="#linear-gradient-33"/>
  </defs>
  <g id="Grupo_31434" data-name="Grupo 31434" transform="translate(-347.022 -154.29)">
    <g id="Grupo_31353" data-name="Grupo 31353">
      <g id="Grupo_31345" data-name="Grupo 31345">
        <g id="Grupo_31342" data-name="Grupo 31342">
          <g id="Grupo_31341" data-name="Grupo 31341">
            <path id="Trazado_33535" data-name="Trazado 33535" d="M348.777,226.111a4.83,4.83,0,0,0-1.69,2.455c-.131.358-.209,1.307,1.282,2.462,2.319,1.795,4.913,4.825,7.51,4.516a3.085,3.085,0,0,0,1.255-.562,1.4,1.4,0,0,0,.392-1.391c-.468-1.061-2.323-2.11-3.057-2.732-1-.847-3.645-3.512-4.252-4.171A3.446,3.446,0,0,0,348.777,226.111Z" fill="#714823"/>
            <path id="Trazado_33536" data-name="Trazado 33536" d="M348.008,226.72l1.886-2.151a3.44,3.44,0,0,1,3.685.6l1.32,1.424c-.014-.015-1.587,1.409-1.664,1.512,0,0,.688.669,1.216,1.185.2.2,1.563,1.559,1.957,2.036,1.522,1.842,1.421,2.821.794,3.3-1.212.935-2.707.459-5.31-1.487-.586-.438-1.232-.947-1.945-1.53-.421-.346-.939-.758-1.413-1.218a3.446,3.446,0,0,1-1.119-1.666A2.34,2.34,0,0,1,348.008,226.72Z" fill="#232020"/>
          </g>
          <path id="Trazado_33537" data-name="Trazado 33537" d="M361.121,196.129s-1.172,7.064-3.113,17.425c-1.647,2.051-7.483,8.773-9.262,12.177-.931,1.223,2.841,5.258,4.784,3.58l11.144-12.516a6.492,6.492,0,0,0,1.1-1.71,48.621,48.621,0,0,0,3.913-17.057c.01-.275.029-.437.03-.44C370.139,192.39,361.571,192.666,361.121,196.129Z" fill="#262322"/>
        </g>
        <g id="Grupo_31344" data-name="Grupo 31344">
          <g id="Grupo_31343" data-name="Grupo 31343">
            <path id="Trazado_33538" data-name="Trazado 33538" d="M360.2,241.3c.044.424.1,2.029.457,2.325a10.637,10.637,0,0,0,2.627,1.385,24.863,24.863,0,0,0,3.66,1.84c4.093.8,4.782-.041,4.847-1.308.038-.756-1.145-1.458-1.217-1.506-.619-.418-3.032-.5-4.3-1.074-1.344-.61-2.7-1.175-4-1.836A2.888,2.888,0,0,0,360.2,241.3Z" fill="#714823"/>
            <path id="Trazado_33539" data-name="Trazado 33539" d="M360.876,242.772c-1.126-.941-.551-2.719-.478-4.184.041-.8,4.961-.145,5.128.574.124.534.376.633.756,1.029.748.779,3.4,2.507,4.869,3.868,1.76,1.635.021,2.36-1.144,2.308a12.858,12.858,0,0,1-4.9-1.2,28.243,28.243,0,0,0-2.828-1.6A5.609,5.609,0,0,1,360.876,242.772Z" fill="#232020"/>
          </g>
          <path id="Trazado_33540" data-name="Trazado 33540" d="M356.409,218.443c.009,1.181-.066,2.362-.057,3.543.04,5.029,3.276,11.792,3.7,17.867.183,2.627,6.47,2.942,6.263.689-.6-6.476-1.908-17.988-1.818-19.22.057-.77.285-24.138.1-24.481-.255-.472-10.038-.619-10.265.661,0,0-.512,7.439.288,11.085A82.1,82.1,0,0,1,356.409,218.443Z" fill="#262322"/>
        </g>
      </g>
      <g id="Grupo_31346" data-name="Grupo 31346">
        <path id="Trazado_33541" data-name="Trazado 33541" d="M372.365,182.916c-.348-3.382-1.505-14.939-4.228-15.992a3.477,3.477,0,0,0-2,.023,3,3,0,0,0-1.9,1.75c-.613,1.582-1.256,1.153-.762,2.6S368.3,183.4,368.88,184C369.258,184.385,372.365,182.916,372.365,182.916Z" fill="#f1f1f1"/>
      </g>
      <g id="Grupo_31348" data-name="Grupo 31348">
        <path id="Trazado_33542" data-name="Trazado 33542" d="M355.859,190.682c.053,1.325-1.467,6.928-1.467,6.928.83,2.43,14,2.264,15.291-1.875-.967-8.194.5-27.946-2.609-28.627-1.3-.286-12.9,3.614-13.937,6.523C351.215,179.043,355.558,183.2,355.859,190.682Z" fill="url(#radial-gradient)"/>
        <path id="Trazado_33543" data-name="Trazado 33543" d="M369.484,186.138c-.461-11.183-.1-16.454-2.309-18.659a1.784,1.784,0,0,0-1.81-.38c-.354.115-.683.271-.753.464,4.034,2.159,1.136,15.252,1.136,15.252-1.177-2.356-5.18-9.65-8.849-11.477a1.67,1.67,0,0,0-1.539.034,3.829,3.829,0,0,0-1.314,1.072c4.477-.151,5.527,8.338,3.633,11.271-1.1,1.708-3.952.572-3.952.572.715,3.367,1.6,5.342.445,13.609,0,0,1.206,2.365,8.641,2.365l3.357-2.874,3.722.471S369.632,189.733,369.484,186.138Z" fill="url(#linear-gradient)"/>
        <g id="Grupo_31347" data-name="Grupo 31347">
          <path id="Trazado_33544" data-name="Trazado 33544" d="M358.143,165.337c.31-.5,1.232-.314,1.79-.324.876-.016,1.755-.028,2.629.021.216.012,1.3-.02,1.368.3.12.554.848,1.726.906,2.29.271,1.392.77,2.664.194,3.536a2.794,2.794,0,0,1-.634-.13l-.565.945-.731-.264c-1.4.762-3.9.75-4.843-1.235.179-2.064-.334-4.1-.206-4.878A.709.709,0,0,1,358.143,165.337Z" fill="#efb289"/>
        </g>
      </g>
      <g id="Grupo_31349" data-name="Grupo 31349">
        <path id="Trazado_33545" data-name="Trazado 33545" d="M365.022,168.436s.148,1.084.164,1.262a1.49,1.49,0,0,1-.79,1.329,19.652,19.652,0,0,1,1.894,1.149,7.581,7.581,0,0,0-.546-2.4A6.962,6.962,0,0,0,365.022,168.436Z" fill="#f1f1f1"/>
        <path id="Trazado_33546" data-name="Trazado 33546" d="M363.1,171.708l-.733,2.646c-4.217-.891-5.1-2.95-5.377-3.807.105-.891.932-2.17,1.256-2.2,0,0,.03.359.075.95.257,1.028,1.6,1.7,2.4,1.982A6.653,6.653,0,0,0,363.1,171.708Z" fill="#f1f1f1"/>
      </g>
      <g id="Grupo_31352" data-name="Grupo 31352">
        <g id="Grupo_31351" data-name="Grupo 31351">
          <path id="Trazado_33547" data-name="Trazado 33547" d="M365.67,167.726c-.215.892-.423,2.085-1.289,2.271-1.585.34-4.973-.519-5.4-1.7-.713-1.983-1.4-4.026-.507-6.579a6.5,6.5,0,0,1,1.89-2.815,8.457,8.457,0,0,1,2.109-1.207c2.133-.927,3.976-.819,4.091,1.369a20.368,20.368,0,0,1-.02,3.449A33,33,0,0,1,365.67,167.726Z" fill="#f3bc97"/>
          <g id="Grupo_31350" data-name="Grupo 31350">
            <path id="Trazado_33548" data-name="Trazado 33548" d="M364.1,154.762a4.513,4.513,0,0,0-1.835-.456,6.067,6.067,0,0,0-2.964.521c-2.1,1.079-2.395,2.315-2.218,2.959a.881.881,0,0,0-.919.544,2.559,2.559,0,0,0-.259,1.254,10.962,10.962,0,0,0,.312,3.115,11.18,11.18,0,0,0,2.067,4.449c.074.089.377.314.4.415,0,0-.191-.914-.376-1.689-.207-.869-.446-1.83.157-2.408.581-.556,1.158-.109,1.437.334a.185.185,0,0,0,.337-.048c.225-.822.094-2.146,1.43-3.27,3.434-2.244,4.913-1.792,4.912-1.27C367.07,158.495,366.611,156.155,364.1,154.762Z" fill="#352920"/>
          </g>
        </g>
      </g>
      <path id="Trazado_33549" data-name="Trazado 33549" d="M365.883,169.957l-1.3,1.668a.55.55,0,0,0-.551.055l-.347.2a1.127,1.127,0,0,0-.425.493l-1.134-.178a.288.288,0,0,0-.278.111,3.3,3.3,0,0,0-.082,2.678.192.192,0,0,0,.288-.03l1.2-1.577a.332.332,0,0,0,.429.011l.347-.2a1.594,1.594,0,0,0,.555-.593l1.221.155a.212.212,0,0,0,.222-.11,5.165,5.165,0,0,0,.04-2.68A.112.112,0,0,0,365.883,169.957Z" fill="#28282a"/>
      <path id="Trazado_33550" data-name="Trazado 33550" d="M364.581,171.625a.55.55,0,0,0-.551.055l-.347.2a1.127,1.127,0,0,0-.425.493,1.349,1.349,0,0,1,0,1,.332.332,0,0,0,.429.011l.347-.2a1.594,1.594,0,0,0,.555-.593A1.187,1.187,0,0,0,364.581,171.625Z" fill="#363638"/>
      <path id="Trazado_33551" data-name="Trazado 33551" d="M366.183,183.851a.641.641,0,0,1-.214.534c-.15.127-.3.1-.327-.072a.641.641,0,0,1,.214-.534C366.005,183.651,366.152,183.683,366.183,183.851Zm-.327,2.419a.641.641,0,0,0-.214.534c.031.167.177.2.327.072a.641.641,0,0,0,.214-.534C366.152,186.174,366.005,186.142,365.856,186.27Zm0,2.491a.641.641,0,0,0-.214.534c.031.167.177.2.327.072a.642.642,0,0,0,.214-.535C366.152,188.665,366.005,188.633,365.856,188.761Zm0,2.491a.638.638,0,0,0-.214.534c.031.167.177.2.327.072a.642.642,0,0,0,.214-.535C366.152,191.156,366.005,191.124,365.856,191.252Zm0,2.491a.638.638,0,0,0-.214.534c.031.167.177.2.327.071a.64.64,0,0,0,.214-.534C366.152,193.647,366.005,193.615,365.856,193.743Zm0,2.491a.638.638,0,0,0-.214.534c.031.167.177.2.327.071a.64.64,0,0,0,.214-.534C366.152,196.138,366.005,196.106,365.856,196.234Z" fill="#fca931"/>
    </g>
    <g id="_4" data-name="4">
      <g id="Grupo_31418" data-name="Grupo 31418">
        <g id="Grupo_31407" data-name="Grupo 31407">
          <g id="Grupo_31361" data-name="Grupo 31361">
            <g id="Grupo_31359" data-name="Grupo 31359">
              <g id="Grupo_31358" data-name="Grupo 31358">
                <g id="Grupo_31357" data-name="Grupo 31357">
                  <g id="Grupo_31354" data-name="Grupo 31354" style="isolation: isolate">
                    <path id="Trazado_33552" data-name="Trazado 33552" d="M382.393,237.918l-.322-1.613-.2.116.227,1.955.2-.116C382.385,238.21,382.426,238.087,382.393,237.918Z" fill="#b6b5b3"/>
                    <path id="Trazado_33553" data-name="Trazado 33553" d="M382.193,238.034l-.321-1.613-1.433-.827v.3a2.085,2.085,0,0,0,.353,1.08l.641.991a1.13,1.13,0,0,0,.365.364l.047.027C382.079,238.486,382.252,238.331,382.193,238.034Z" fill="#b6b5b3"/>
                  </g>
                  <path id="Trazado_33554" data-name="Trazado 33554" d="M379.662,236.33l.088-.051a1.388,1.388,0,0,1,1.418.046c1.256.793,2.106,2.937.788,3.75l-.088.051a1.293,1.293,0,0,1-.918.15,2.807,2.807,0,0,1-1.837-1.982A1.641,1.641,0,0,1,379.662,236.33Z" fill="#262322"/>
                  <g id="Grupo_31355" data-name="Grupo 31355" style="isolation: isolate">
                    <path id="Trazado_33555" data-name="Trazado 33555" d="M380.817,238.828l-.322-1.613-.2.116.227,1.955.2-.116C380.809,239.12,380.85,239,380.817,238.828Z" fill="#b6b5b3"/>
                    <path id="Trazado_33556" data-name="Trazado 33556" d="M380.617,238.944l-.321-1.613-1.433-.827v.295a2.076,2.076,0,0,0,.353,1.08l.641.991a1.128,1.128,0,0,0,.364.364l.047.027C380.5,239.4,380.676,239.24,380.617,238.944Z" fill="#b6b5b3"/>
                  </g>
                  <g id="Grupo_31356" data-name="Grupo 31356" style="isolation: isolate">
                    <path id="Trazado_33557" data-name="Trazado 33557" d="M382.017,236.421l-.768.446a1.555,1.555,0,0,1-1.412,0l-.893-.516a.5.5,0,0,1-.3-.412v.346a.5.5,0,0,0,.295.413l.893.515a1.555,1.555,0,0,0,1.412,0l.768-.447a.5.5,0,0,0,.291-.406v-.347A.5.5,0,0,1,382.017,236.421Z" fill="#b6b5b3"/>
                    <path id="Trazado_33558" data-name="Trazado 33558" d="M382.012,235.6a.433.433,0,0,1,.005.819l-.768.446a1.555,1.555,0,0,1-1.412,0l-.893-.516a.432.432,0,0,1-.006-.818l.769-.446a1.557,1.557,0,0,1,1.413,0Z" fill="#d2d1ce"/>
                  </g>
                </g>
              </g>
            </g>
            <g id="Grupo_31360" data-name="Grupo 31360">
              <g id="Axonometric_Cylinder" data-name="Axonometric Cylinder">
                <path id="Cylinder_face" data-name="Cylinder face" d="M381.249,231.738a1.619,1.619,0,0,1-1.469,0,.447.447,0,0,1,0-.848,1.625,1.625,0,0,1,1.469,0A.447.447,0,0,1,381.249,231.738Z" fill="#93513a"/>
                <path id="Cylinder_body" data-name="Cylinder body" d="M381.553,231.309v4.544a.513.513,0,0,1-.3.43,1.625,1.625,0,0,1-1.469,0,.517.517,0,0,1-.3-.419V231.32a.516.516,0,0,0,.3.418,1.619,1.619,0,0,0,1.469,0A.511.511,0,0,0,381.553,231.309Z" fill="url(#linear-gradient-2)"/>
              </g>
              <path id="Cylinder_body-2" data-name="Cylinder body" d="M381.553,209.845v21.48a.511.511,0,0,1-.3.429,1.619,1.619,0,0,1-1.469,0,.516.516,0,0,1-.3-.418v-21.48a.517.517,0,0,0,.3.419,1.625,1.625,0,0,0,1.469,0A.512.512,0,0,0,381.553,209.845Z" fill="url(#linear-gradient-3)"/>
              <g id="Axonometric_Cylinder-2" data-name="Axonometric Cylinder">
                <ellipse id="Cylinder_face-2" data-name="Cylinder face" cx="1.039" cy="0.6" rx="1.039" ry="0.6" transform="translate(379.476 206.796)" fill="#e1e0dc"/>
                <path id="Cylinder_body-3" data-name="Cylinder body" d="M381.553,207.391v2.7a.514.514,0,0,1-.3.43,1.625,1.625,0,0,1-1.469,0,.517.517,0,0,1-.3-.419V207.4a.515.515,0,0,0,.3.418,1.619,1.619,0,0,0,1.469,0A.511.511,0,0,0,381.553,207.391Z" fill="url(#linear-gradient-4)"/>
              </g>
            </g>
          </g>
          <g id="Axonometric_Cube" data-name="Axonometric Cube">
            <path id="Cube_face_-_left" data-name="Cube face - left" d="M396.31,261.427,363.349,242.4v1.3l32.961,19.03Z" fill="#b6b5b3"/>
            <path id="Cube_face_-_right" data-name="Cube face - right" d="M413.47,252.823l-17.16,9.908v-1.3l17.16-9.908Z" fill="#d2d1ce"/>
            <path id="Trazado_33559" data-name="Trazado 33559" d="M380.943,232.739h-.868L363.349,242.4l32.961,19.03,17.16-9.908Z" fill="#e1e0dc"/>
            <path id="Trazado_33560" data-name="Trazado 33560" d="M364.406,242.4l16.1-9.3,31.9,18.42-16.1,9.3Z" fill="#93513a"/>
          </g>
          <g id="Grupo_31382" data-name="Grupo 31382">
            <g id="Grupo_31371" data-name="Grupo 31371">
              <g id="Grupo_31363" data-name="Grupo 31363">
                <g id="Grupo_31362" data-name="Grupo 31362">
                  <path id="Trazado_33561" data-name="Trazado 33561" d="M385.778,239.807a10.543,10.543,0,0,0-9.567-.1c-2.679,1.5-2.74,3.984-.135,5.541a10.541,10.541,0,0,0,9.566.1C388.321,243.845,388.382,241.364,385.778,239.807Zm-1.438,4.887a7.633,7.633,0,0,1-6.926-.07c-1.885-1.127-1.841-2.923.1-4.012a7.628,7.628,0,0,1,6.925.071C386.324,241.809,386.28,243.6,384.34,244.694Z" fill="url(#linear-gradient-5)"/>
                </g>
                <path id="Trazado_33562" data-name="Trazado 33562" d="M387.689,242.4l-.008-.084c.107,1.1-.575,2.208-2.039,3.029a10.541,10.541,0,0,1-9.566-.1,3.218,3.218,0,0,1-1.9-2.971l-.009.084a3.222,3.222,0,0,0,1.9,2.975,10.556,10.556,0,0,0,9.579.1C387.113,244.614,387.8,243.5,387.689,242.4Z" fill="#e3e1dc"/>
              </g>
              <g id="Grupo_31365" data-name="Grupo 31365">
                <g id="Grupo_31364" data-name="Grupo 31364">
                  <path id="Trazado_33563" data-name="Trazado 33563" d="M385.778,239.313a10.543,10.543,0,0,0-9.567-.1c-2.679,1.5-2.74,3.985-.135,5.541a10.541,10.541,0,0,0,9.566.1C388.321,243.351,388.382,240.87,385.778,239.313ZM384.34,244.2a7.634,7.634,0,0,1-6.926-.07c-1.885-1.127-1.841-2.923.1-4.012a7.631,7.631,0,0,1,6.925.07C386.324,241.315,386.28,243.111,384.34,244.2Z" fill="url(#linear-gradient-5)"/>
                </g>
                <path id="Trazado_33564" data-name="Trazado 33564" d="M387.689,241.909l-.008-.084c.107,1.094-.575,2.207-2.039,3.029a10.541,10.541,0,0,1-9.566-.1,3.216,3.216,0,0,1-1.9-2.97l-.009.084a3.22,3.22,0,0,0,1.9,2.974,10.553,10.553,0,0,0,9.579.1C387.113,244.12,387.8,243.005,387.689,241.909Z" fill="#e3e1dc"/>
              </g>
              <g id="Grupo_31367" data-name="Grupo 31367">
                <g id="Grupo_31366" data-name="Grupo 31366">
                  <path id="Trazado_33565" data-name="Trazado 33565" d="M385.778,238.819a10.543,10.543,0,0,0-9.567-.1c-2.679,1.5-2.74,3.984-.135,5.541a10.541,10.541,0,0,0,9.566.1C388.321,242.856,388.382,240.376,385.778,238.819Zm-1.438,4.886a7.63,7.63,0,0,1-6.926-.07c-1.885-1.127-1.841-2.923.1-4.011a7.631,7.631,0,0,1,6.925.07C386.324,240.821,386.28,242.617,384.34,243.705Z" fill="url(#linear-gradient-5)"/>
                </g>
                <path id="Trazado_33566" data-name="Trazado 33566" d="M387.689,241.415l-.008-.085c.107,1.1-.575,2.208-2.039,3.03a10.541,10.541,0,0,1-9.566-.1,3.217,3.217,0,0,1-1.9-2.971l-.009.085a3.222,3.222,0,0,0,1.9,2.974,10.556,10.556,0,0,0,9.579.1C387.113,243.626,387.8,242.511,387.689,241.415Z" fill="#e3e1dc"/>
              </g>
              <g id="Grupo_31370" data-name="Grupo 31370">
                <g id="Grupo_31368" data-name="Grupo 31368">
                  <path id="Trazado_33567" data-name="Trazado 33567" d="M384.438,239.2a7.63,7.63,0,0,0-6.926-.07c-1.939,1.088-1.983,2.884-.1,4.011l.062.036a7.647,7.647,0,0,0,6.864.034C386.28,242.123,386.324,240.327,384.438,239.2Z" fill="#ebe9e5"/>
                  <path id="Trazado_33568" data-name="Trazado 33568" d="M384.107,239.614a6.913,6.913,0,0,0-6.274-.063c-1.758.986-1.8,2.613-.089,3.634l.055.033a6.869,6.869,0,0,0,6.219.031C385.776,242.263,385.816,240.635,384.107,239.614Zm-.245,3.617a6.565,6.565,0,0,1-5.958-.061c-1.622-.969-1.585-2.514.084-3.451a6.57,6.57,0,0,1,5.959.06C385.569,240.749,385.531,242.294,383.862,243.231Z" fill="#e3e1dc"/>
                  <path id="Trazado_33569" data-name="Trazado 33569" d="M385.778,238.325a10.543,10.543,0,0,0-9.567-.1c-2.679,1.5-2.74,3.984-.135,5.541a10.538,10.538,0,0,0,9.566.1C388.321,242.362,388.382,239.881,385.778,238.325Zm-1.438,4.886a7.634,7.634,0,0,1-6.926-.07c-1.885-1.127-1.841-2.923.1-4.011a7.628,7.628,0,0,1,6.925.07C386.324,240.327,386.28,242.123,384.34,243.211Z" fill="#f5f3ee"/>
                </g>
                <g id="Grupo_31369" data-name="Grupo 31369">
                  <path id="Trazado_33570" data-name="Trazado 33570" d="M383.862,243.231a6.565,6.565,0,0,1-5.958-.061c-1.622-.969-1.585-2.514.084-3.451a6.57,6.57,0,0,1,5.959.06C385.569,240.749,385.531,242.294,383.862,243.231Z" fill="#f5f3ee"/>
                </g>
                <path id="Trazado_33571" data-name="Trazado 33571" d="M387.689,240.921l-.008-.085c.107,1.1-.575,2.208-2.039,3.029a10.538,10.538,0,0,1-9.566-.1,3.217,3.217,0,0,1-1.9-2.971l-.009.085a3.222,3.222,0,0,0,1.9,2.974,10.556,10.556,0,0,0,9.579.1C387.113,243.131,387.8,242.017,387.689,240.921Z" fill="#e3e1dc"/>
              </g>
            </g>
            <g id="Grupo_31381" data-name="Grupo 31381">
              <g id="Grupo_31373" data-name="Grupo 31373">
                <g id="Grupo_31372" data-name="Grupo 31372">
                  <path id="Trazado_33572" data-name="Trazado 33572" d="M399.387,247.665a10.543,10.543,0,0,0-9.567-.1c-2.679,1.5-2.74,3.984-.135,5.541a10.541,10.541,0,0,0,9.566.1C401.93,251.7,401.991,249.221,399.387,247.665Zm-1.438,4.886a7.633,7.633,0,0,1-6.926-.07c-1.885-1.127-1.841-2.923.1-4.011a7.628,7.628,0,0,1,6.925.07C399.933,249.667,399.889,251.463,397.949,252.551Z" fill="url(#linear-gradient-5)"/>
                </g>
                <path id="Trazado_33573" data-name="Trazado 33573" d="M401.3,250.261l-.008-.085c.107,1.1-.575,2.208-2.039,3.029a10.541,10.541,0,0,1-9.566-.1,3.217,3.217,0,0,1-1.9-2.971l-.009.085a3.222,3.222,0,0,0,1.9,2.974,10.556,10.556,0,0,0,9.579.1C400.722,252.471,401.4,251.357,401.3,250.261Z" fill="#e3e1dc"/>
              </g>
              <g id="Grupo_31375" data-name="Grupo 31375">
                <g id="Grupo_31374" data-name="Grupo 31374">
                  <path id="Trazado_33574" data-name="Trazado 33574" d="M399.387,247.17a10.54,10.54,0,0,0-9.567-.1c-2.679,1.5-2.74,3.984-.135,5.54a10.538,10.538,0,0,0,9.566.1C401.93,251.208,401.991,248.727,399.387,247.17Zm-1.438,4.887a7.634,7.634,0,0,1-6.926-.07c-1.885-1.127-1.841-2.923.1-4.012a7.631,7.631,0,0,1,6.925.07C399.933,249.172,399.889,250.968,397.949,252.057Z" fill="url(#linear-gradient-5)"/>
                </g>
                <path id="Trazado_33575" data-name="Trazado 33575" d="M401.3,249.766l-.008-.084c.107,1.094-.575,2.208-2.039,3.029a10.538,10.538,0,0,1-9.566-.1,3.215,3.215,0,0,1-1.9-2.97l-.009.084a3.222,3.222,0,0,0,1.9,2.975,10.556,10.556,0,0,0,9.579.1C400.722,251.977,401.4,250.862,401.3,249.766Z" fill="#e3e1dc"/>
              </g>
              <g id="Grupo_31377" data-name="Grupo 31377">
                <g id="Grupo_31376" data-name="Grupo 31376">
                  <path id="Trazado_33576" data-name="Trazado 33576" d="M399.387,246.676a10.543,10.543,0,0,0-9.567-.1c-2.679,1.5-2.74,3.984-.135,5.541a10.541,10.541,0,0,0,9.566.1C401.93,250.713,401.991,248.233,399.387,246.676Zm-1.438,4.887a7.634,7.634,0,0,1-6.926-.07c-1.885-1.128-1.841-2.924.1-4.012a7.631,7.631,0,0,1,6.925.07C399.933,248.678,399.889,250.474,397.949,251.563Z" fill="url(#linear-gradient-5)"/>
                </g>
                <path id="Trazado_33577" data-name="Trazado 33577" d="M401.3,249.272l-.008-.085c.107,1.1-.575,2.208-2.039,3.03a10.541,10.541,0,0,1-9.566-.1,3.216,3.216,0,0,1-1.9-2.97l-.009.084a3.221,3.221,0,0,0,1.9,2.974,10.556,10.556,0,0,0,9.579.1C400.722,251.483,401.4,250.368,401.3,249.272Z" fill="#e3e1dc"/>
              </g>
              <g id="Grupo_31380" data-name="Grupo 31380">
                <g id="Grupo_31378" data-name="Grupo 31378">
                  <path id="Trazado_33578" data-name="Trazado 33578" d="M398.047,247.057a7.628,7.628,0,0,0-6.925-.07c-1.94,1.088-1.984,2.884-.1,4.011l.062.036a7.647,7.647,0,0,0,6.864.034C399.889,249.98,399.933,248.184,398.047,247.057Z" fill="#ebe9e5"/>
                  <path id="Trazado_33579" data-name="Trazado 33579" d="M397.716,247.471a6.913,6.913,0,0,0-6.274-.063c-1.757.986-1.8,2.613-.089,3.634l.055.033a6.869,6.869,0,0,0,6.219.031C399.385,250.12,399.425,248.493,397.716,247.471Zm-.245,3.617a6.568,6.568,0,0,1-5.958-.06c-1.622-.97-1.585-2.515.084-3.452a6.567,6.567,0,0,1,5.959.061C399.178,248.606,399.14,250.151,397.471,251.088Z" fill="#e3e1dc"/>
                  <path id="Trazado_33580" data-name="Trazado 33580" d="M399.387,246.182a10.543,10.543,0,0,0-9.567-.1c-2.679,1.5-2.74,3.984-.135,5.541a10.541,10.541,0,0,0,9.566.1C401.93,250.219,401.991,247.738,399.387,246.182Zm-1.438,4.886a7.63,7.63,0,0,1-6.926-.07c-1.885-1.127-1.841-2.923.1-4.011a7.628,7.628,0,0,1,6.925.07C399.933,248.184,399.889,249.98,397.949,251.068Z" fill="#f5f3ee"/>
                </g>
                <g id="Grupo_31379" data-name="Grupo 31379">
                  <path id="Trazado_33581" data-name="Trazado 33581" d="M397.471,251.088a6.568,6.568,0,0,1-5.958-.06c-1.622-.97-1.585-2.515.084-3.452a6.567,6.567,0,0,1,5.959.061C399.178,248.606,399.14,250.151,397.471,251.088Z" fill="#f5f3ee"/>
                </g>
                <path id="Trazado_33582" data-name="Trazado 33582" d="M401.3,248.778l-.008-.085c.107,1.1-.575,2.208-2.039,3.03a10.541,10.541,0,0,1-9.566-.1,3.216,3.216,0,0,1-1.9-2.97l-.009.084a3.222,3.222,0,0,0,1.9,2.974,10.556,10.556,0,0,0,9.579.1C400.722,250.988,401.4,249.874,401.3,248.778Z" fill="#e3e1dc"/>
              </g>
            </g>
          </g>
          <g id="Axonometric_Cube-2" data-name="Axonometric Cube">
            <path id="Cube_face_-_left-2" data-name="Cube face - left" d="M396.31,236.954l-32.961-19.03v1.3l32.961,19.03Z" fill="#b6b5b3"/>
            <path id="Cube_face_-_right-2" data-name="Cube face - right" d="M413.47,228.351l-17.16,9.908v-1.3l17.16-9.908Z" fill="#d2d1ce"/>
            <path id="Trazado_33583" data-name="Trazado 33583" d="M381,208.3h-.985l-16.668,9.623,32.961,19.03,17.16-9.908Z" fill="#e1e0dc"/>
            <path id="Trazado_33584" data-name="Trazado 33584" d="M364.406,217.924l16.1-9.3,31.9,18.42-16.1,9.3Z" fill="#93513a"/>
          </g>
          <g id="Grupo_31390" data-name="Grupo 31390">
            <g id="Grupo_31388" data-name="Grupo 31388">
              <g id="Grupo_31387" data-name="Grupo 31387">
                <g id="Grupo_31386" data-name="Grupo 31386">
                  <g id="Grupo_31383" data-name="Grupo 31383" style="isolation: isolate">
                    <path id="Trazado_33585" data-name="Trazado 33585" d="M398.189,267.5l-.322-1.614-.2.116.228,1.955.2-.116C398.18,267.791,398.222,267.667,398.189,267.5Z" fill="#b6b5b3"/>
                    <path id="Trazado_33586" data-name="Trazado 33586" d="M397.989,267.615,397.667,266l-1.432-.827v.295a2.073,2.073,0,0,0,.353,1.08l.64.991a1.12,1.12,0,0,0,.365.364l.047.027C397.874,268.067,398.048,267.911,397.989,267.615Z" fill="#b6b5b3"/>
                  </g>
                  <path id="Trazado_33587" data-name="Trazado 33587" d="M395.457,265.911l.089-.052a1.385,1.385,0,0,1,1.417.047c1.256.793,2.107,2.937.789,3.749l-.089.052a1.284,1.284,0,0,1-.917.149,2.8,2.8,0,0,1-1.837-1.981A1.638,1.638,0,0,1,395.457,265.911Z" fill="#262322"/>
                  <g id="Grupo_31384" data-name="Grupo 31384" style="isolation: isolate">
                    <path id="Trazado_33588" data-name="Trazado 33588" d="M396.612,268.409l-.321-1.614-.2.116.228,1.955.2-.116C396.6,268.7,396.646,268.577,396.612,268.409Z" fill="#b6b5b3"/>
                    <path id="Trazado_33589" data-name="Trazado 33589" d="M396.413,268.525l-.322-1.614-1.432-.827v.295a2.065,2.065,0,0,0,.353,1.08l.64.991a1.12,1.12,0,0,0,.365.364l.047.027C396.3,268.977,396.472,268.821,396.413,268.525Z" fill="#b6b5b3"/>
                  </g>
                  <g id="Grupo_31385" data-name="Grupo 31385" style="isolation: isolate">
                    <path id="Trazado_33590" data-name="Trazado 33590" d="M397.813,266l-.768.447a1.557,1.557,0,0,1-1.413,0l-.892-.515a.5.5,0,0,1-.3-.412v.346a.5.5,0,0,0,.3.412l.892.516a1.557,1.557,0,0,0,1.413,0l.768-.446a.5.5,0,0,0,.29-.407V265.6A.5.5,0,0,1,397.813,266Z" fill="#b6b5b3"/>
                    <path id="Trazado_33591" data-name="Trazado 33591" d="M397.808,265.183a.432.432,0,0,1,0,.818l-.768.447a1.557,1.557,0,0,1-1.413,0l-.892-.515a.432.432,0,0,1-.006-.818l.768-.447a1.559,1.559,0,0,1,1.414,0Z" fill="#d2d1ce"/>
                  </g>
                </g>
              </g>
            </g>
            <g id="Grupo_31389" data-name="Grupo 31389">
              <g id="Axonometric_Cylinder-3" data-name="Axonometric Cylinder">
                <ellipse id="Cylinder_face-3" data-name="Cylinder face" cx="1.039" cy="0.6" rx="1.039" ry="0.6" transform="translate(395.271 260.295)" fill="#93513a"/>
                <path id="Cylinder_body-4" data-name="Cylinder body" d="M397.349,260.889v4.545a.513.513,0,0,1-.3.429,1.621,1.621,0,0,1-1.47,0,.519.519,0,0,1-.3-.418V260.9a.522.522,0,0,0,.3.419,1.627,1.627,0,0,0,1.47,0A.514.514,0,0,0,397.349,260.889Z" fill="url(#linear-gradient-11)"/>
              </g>
              <path id="Cylinder_body-5" data-name="Cylinder body" d="M397.349,239.426V260.9a.513.513,0,0,1-.3.43,1.627,1.627,0,0,1-1.47,0,.522.522,0,0,1-.3-.419V239.437a.52.52,0,0,0,.3.418,1.621,1.621,0,0,0,1.47,0A.513.513,0,0,0,397.349,239.426Z" fill="url(#linear-gradient-12)"/>
              <g id="Axonometric_Cylinder-4" data-name="Axonometric Cylinder">
                <ellipse id="Cylinder_face-4" data-name="Cylinder face" cx="1.039" cy="0.6" rx="1.039" ry="0.6" transform="translate(395.271 236.377)" fill="#e1e0dc"/>
                <path id="Cylinder_body-6" data-name="Cylinder body" d="M397.349,236.971v2.705a.513.513,0,0,1-.3.43,1.627,1.627,0,0,1-1.47,0,.522.522,0,0,1-.3-.418v-2.706a.522.522,0,0,0,.3.419,1.627,1.627,0,0,0,1.47,0A.514.514,0,0,0,397.349,236.971Z" fill="url(#linear-gradient-13)"/>
              </g>
            </g>
          </g>
          <g id="Grupo_31398" data-name="Grupo 31398">
            <g id="Grupo_31396" data-name="Grupo 31396">
              <g id="Grupo_31395" data-name="Grupo 31395">
                <g id="Grupo_31394" data-name="Grupo 31394">
                  <g id="Grupo_31391" data-name="Grupo 31391" style="isolation: isolate">
                    <path id="Trazado_33592" data-name="Trazado 33592" d="M415.908,257.268l-.321-1.613-.2.116.228,1.955.2-.116C415.9,257.56,415.942,257.437,415.908,257.268Z" fill="#b6b5b3"/>
                    <path id="Trazado_33593" data-name="Trazado 33593" d="M415.709,257.384l-.322-1.613-1.432-.827v.295a2.067,2.067,0,0,0,.353,1.08l.64.991a1.13,1.13,0,0,0,.365.364l.047.027C415.594,257.836,415.768,257.681,415.709,257.384Z" fill="#b6b5b3"/>
                  </g>
                  <path id="Trazado_33594" data-name="Trazado 33594" d="M413.177,255.681l.089-.052a1.388,1.388,0,0,1,1.417.046c1.256.793,2.107,2.937.789,3.75l-.089.051a1.29,1.29,0,0,1-.917.15,2.8,2.8,0,0,1-1.837-1.982A1.637,1.637,0,0,1,413.177,255.681Z" fill="#262322"/>
                  <g id="Grupo_31392" data-name="Grupo 31392" style="isolation: isolate">
                    <path id="Trazado_33595" data-name="Trazado 33595" d="M414.332,258.178l-.321-1.613-.2.116.228,1.955.2-.116C414.324,258.47,414.366,258.347,414.332,258.178Z" fill="#b6b5b3"/>
                    <path id="Trazado_33596" data-name="Trazado 33596" d="M414.132,258.294l-.321-1.613-1.432-.827v.295a2.065,2.065,0,0,0,.353,1.08l.64.991a1.13,1.13,0,0,0,.365.364l.047.027C414.018,258.746,414.191,258.591,414.132,258.294Z" fill="#b6b5b3"/>
                  </g>
                  <g id="Grupo_31393" data-name="Grupo 31393" style="isolation: isolate">
                    <path id="Trazado_33597" data-name="Trazado 33597" d="M415.532,255.771l-.768.446a1.555,1.555,0,0,1-1.412,0l-.893-.516a.5.5,0,0,1-.3-.412v.346a.5.5,0,0,0,.3.413l.893.515a1.555,1.555,0,0,0,1.412,0l.768-.447a.5.5,0,0,0,.291-.406v-.347A.5.5,0,0,1,415.532,255.771Z" fill="#b6b5b3"/>
                    <path id="Trazado_33598" data-name="Trazado 33598" d="M415.528,254.952a.433.433,0,0,1,0,.819l-.768.446a1.555,1.555,0,0,1-1.412,0l-.893-.516a.432.432,0,0,1-.005-.818l.768-.446a1.557,1.557,0,0,1,1.413,0Z" fill="#d2d1ce"/>
                  </g>
                </g>
              </g>
            </g>
            <g id="Grupo_31397" data-name="Grupo 31397">
              <g id="Axonometric_Cylinder-5" data-name="Axonometric Cylinder">
                <ellipse id="Cylinder_face-5" data-name="Cylinder face" cx="1.039" cy="0.6" rx="1.039" ry="0.6" transform="translate(412.991 250.065)" fill="#93513a"/>
                <path id="Cylinder_body-7" data-name="Cylinder body" d="M415.069,250.659V255.2a.514.514,0,0,1-.3.43,1.625,1.625,0,0,1-1.469,0,.52.52,0,0,1-.3-.419V250.67a.517.517,0,0,0,.3.418,1.619,1.619,0,0,0,1.469,0A.513.513,0,0,0,415.069,250.659Z" fill="url(#linear-gradient-14)"/>
              </g>
              <path id="Cylinder_body-8" data-name="Cylinder body" d="M415.069,229.2v21.48a.515.515,0,0,1-.3.43,1.625,1.625,0,0,1-1.469,0,.52.52,0,0,1-.3-.419v-21.48a.52.52,0,0,0,.3.419,1.625,1.625,0,0,0,1.469,0A.514.514,0,0,0,415.069,229.2Z" fill="url(#linear-gradient-15)"/>
              <g id="Axonometric_Cylinder-6" data-name="Axonometric Cylinder">
                <ellipse id="Cylinder_face-6" data-name="Cylinder face" cx="1.039" cy="0.6" rx="1.039" ry="0.6" transform="translate(412.991 226.147)" fill="#e1e0dc"/>
                <path id="Cylinder_body-9" data-name="Cylinder body" d="M415.069,226.741v2.705a.515.515,0,0,1-.3.43,1.625,1.625,0,0,1-1.469,0,.52.52,0,0,1-.3-.419v-2.705a.52.52,0,0,0,.3.419,1.625,1.625,0,0,0,1.469,0A.515.515,0,0,0,415.069,226.741Z" fill="url(#linear-gradient-14)"/>
              </g>
            </g>
          </g>
          <g id="Grupo_31406" data-name="Grupo 31406">
            <g id="Grupo_31404" data-name="Grupo 31404">
              <g id="Grupo_31403" data-name="Grupo 31403">
                <g id="Grupo_31402" data-name="Grupo 31402">
                  <g id="Grupo_31399" data-name="Grupo 31399" style="isolation: isolate">
                    <path id="Trazado_33599" data-name="Trazado 33599" d="M364.673,248.149l-.321-1.614-.2.116.228,1.955.2-.116C364.665,248.441,364.707,248.317,364.673,248.149Z" fill="#b6b5b3"/>
                    <path id="Trazado_33600" data-name="Trazado 33600" d="M364.474,248.265l-.322-1.614-1.432-.827v.295a2.064,2.064,0,0,0,.353,1.08l.64.991a1.12,1.12,0,0,0,.365.364l.047.027C364.359,248.717,364.532,248.561,364.474,248.265Z" fill="#b6b5b3"/>
                  </g>
                  <path id="Trazado_33601" data-name="Trazado 33601" d="M361.942,246.561l.089-.052a1.385,1.385,0,0,1,1.417.047c1.256.793,2.107,2.937.789,3.749l-.089.051a1.284,1.284,0,0,1-.917.15,2.8,2.8,0,0,1-1.837-1.981A1.638,1.638,0,0,1,361.942,246.561Z" fill="#262322"/>
                  <g id="Grupo_31400" data-name="Grupo 31400" style="isolation: isolate">
                    <path id="Trazado_33602" data-name="Trazado 33602" d="M363.1,249.059l-.321-1.614-.2.116.228,1.955.2-.116C363.089,249.351,363.131,249.227,363.1,249.059Z" fill="#b6b5b3"/>
                    <path id="Trazado_33603" data-name="Trazado 33603" d="M362.9,249.175l-.321-1.614-1.433-.827v.3a2.064,2.064,0,0,0,.353,1.08l.64.991a1.121,1.121,0,0,0,.365.364l.047.027C362.783,249.627,362.956,249.471,362.9,249.175Z" fill="#b6b5b3"/>
                  </g>
                  <g id="Grupo_31401" data-name="Grupo 31401" style="isolation: isolate">
                    <path id="Trazado_33604" data-name="Trazado 33604" d="M364.3,246.651l-.768.447a1.555,1.555,0,0,1-1.412,0l-.893-.515a.5.5,0,0,1-.3-.413v.347a.5.5,0,0,0,.295.412l.893.515a1.552,1.552,0,0,0,1.412,0L364.3,247a.5.5,0,0,0,.291-.407v-.346A.5.5,0,0,1,364.3,246.651Z" fill="#b6b5b3"/>
                    <path id="Trazado_33605" data-name="Trazado 33605" d="M364.293,245.833a.432.432,0,0,1,0,.818l-.768.447a1.555,1.555,0,0,1-1.412,0l-.893-.515a.432.432,0,0,1-.005-.818l.768-.447a1.557,1.557,0,0,1,1.413,0Z" fill="#d2d1ce"/>
                  </g>
                </g>
              </g>
            </g>
            <g id="Grupo_31405" data-name="Grupo 31405">
              <g id="Axonometric_Cylinder-7" data-name="Axonometric Cylinder">
                <ellipse id="Cylinder_face-7" data-name="Cylinder face" cx="1.039" cy="0.6" rx="1.039" ry="0.6" transform="translate(361.756 240.945)" fill="#93513a"/>
                <path id="Cylinder_body-10" data-name="Cylinder body" d="M363.834,241.539v4.545a.513.513,0,0,1-.305.429,1.619,1.619,0,0,1-1.469,0,.518.518,0,0,1-.3-.418V241.55a.52.52,0,0,0,.3.419,1.625,1.625,0,0,0,1.469,0A.515.515,0,0,0,363.834,241.539Z" fill="url(#linear-gradient-17)"/>
              </g>
              <path id="Cylinder_body-11" data-name="Cylinder body" d="M363.834,220.076v21.479a.513.513,0,0,1-.305.43,1.625,1.625,0,0,1-1.469,0,.52.52,0,0,1-.3-.419V220.087a.518.518,0,0,0,.3.418,1.625,1.625,0,0,0,1.469,0A.513.513,0,0,0,363.834,220.076Z" fill="url(#linear-gradient-18)"/>
              <g id="Axonometric_Cylinder-8" data-name="Axonometric Cylinder">
                <ellipse id="Cylinder_face-8" data-name="Cylinder face" cx="1.039" cy="0.6" rx="1.039" ry="0.6" transform="translate(361.756 217.027)" fill="#e1e0dc"/>
                <path id="Cylinder_body-12" data-name="Cylinder body" d="M363.834,217.621v2.705a.514.514,0,0,1-.305.43,1.625,1.625,0,0,1-1.469,0,.52.52,0,0,1-.3-.419v-2.705a.52.52,0,0,0,.3.419,1.625,1.625,0,0,0,1.469,0A.514.514,0,0,0,363.834,217.621Z" fill="url(#linear-gradient-19)"/>
              </g>
            </g>
          </g>
        </g>
        <path id="Trazado_33606" data-name="Trazado 33606" d="M413.6,222.525v4.226a.19.19,0,0,0,.112.154.6.6,0,0,0,.542,0,.189.189,0,0,0,.112-.158v-4.222Z" fill="#d2d1ce"/>
        <g id="Grupo_31408" data-name="Grupo 31408">
          <path id="Trazado_33607" data-name="Trazado 33607" d="M395.942,232.711v4.225a.191.191,0,0,0,.112.155.6.6,0,0,0,.542,0,.188.188,0,0,0,.112-.158v-4.222Z" fill="#d2d1ce"/>
          <path id="Trazado_33608" data-name="Trazado 33608" d="M362.515,213.408v4.225a.192.192,0,0,0,.112.155.6.6,0,0,0,.542,0,.19.19,0,0,0,.112-.159v-4.221Z" fill="#d2d1ce"/>
          <path id="Trazado_33609" data-name="Trazado 33609" d="M380.141,203.231v4.226a.2.2,0,0,0,.112.154.6.6,0,0,0,.542,0,.188.188,0,0,0,.112-.159v-4.221Z" fill="#d2d1ce"/>
        </g>
        <g id="Grupo_31410" data-name="Grupo 31410">
          <g id="Axonometric_Cylinder-9" data-name="Axonometric Cylinder">
            <path id="Cylinder_face-9" data-name="Cylinder face" d="M399.531,228.647c3.624-2.092,3.624-5.484,0-7.577a14.5,14.5,0,0,0-13.123,0c-3.624,2.093-3.624,5.485,0,7.577A14.5,14.5,0,0,0,399.531,228.647Z" fill="url(#linear-gradient-20)"/>
            <path id="Cylinder_body-13" data-name="Cylinder body" d="M383.691,224.809v.142c-.022,1.387.884,2.779,2.717,3.838a14.5,14.5,0,0,0,13.123,0c1.79-1.034,2.7-2.385,2.718-3.739v-.142c-.022,1.355-.928,2.705-2.718,3.739a14.5,14.5,0,0,1-13.123,0C384.575,227.588,383.669,226.2,383.691,224.809Z" fill="#b9b8b6"/>
          </g>
          <g id="Grupo_31409" data-name="Grupo 31409">
            <path id="Trazado_33610" data-name="Trazado 33610" d="M397.526,217.323a9.08,9.08,0,0,0-8.982-.12,8.247,8.247,0,0,0-4.267,7.189c0,1.263.81,2.528,2.449,3.508a13.491,13.491,0,0,0,12.241.124c1.743-.978,2.62-2.279,2.624-3.583A8.311,8.311,0,0,0,397.526,217.323Z" fill="url(#radial-gradient-2)"/>
            <path id="Trazado_33611" data-name="Trazado 33611" d="M393.608,217.591a1.429,1.429,0,0,0-1.294-.013c-.362.2-.371.539-.018.75a1.429,1.429,0,0,0,1.294.013C393.952,218.137,393.96,217.8,393.608,217.591Z" fill="#b9b8b6"/>
            <path id="Trazado_33612" data-name="Trazado 33612" d="M392.452,217.361v.5a.24.24,0,0,0,.141.2.756.756,0,0,0,.681,0,.241.241,0,0,0,.141-.194v-.5Z" fill="#9d9b99"/>
            <g id="Axonometric_Cylinder-10" data-name="Axonometric Cylinder">
              <path id="Trazado_33613" data-name="Trazado 33613" d="M391.686,216.925v.219a.618.618,0,0,0,.365.516,1.953,1.953,0,0,0,1.765,0,.623.623,0,0,0,.365-.5v-.219Z" fill="#b9b8b6"/>
              <ellipse id="Cylinder_face-10" data-name="Cylinder face" cx="1.248" cy="0.72" rx="1.248" ry="0.72" transform="translate(391.686 216.211)" fill="url(#linear-gradient-21)"/>
            </g>
            <path id="Trazado_33614" data-name="Trazado 33614" d="M395.753,221.648c-1.192.379-1.937,1.383-1.663,2.242s1.462,1.248,2.654.868,1.937-1.384,1.664-2.243S396.946,221.268,395.753,221.648Z" opacity="0.4" fill="url(#linear-gradient-22)" style="mix-blend-mode: screen;isolation: isolate"/>
          </g>
        </g>
        <g id="Grupo_31415" data-name="Grupo 31415" style="isolation: isolate">
          <g id="Grupo_31411" data-name="Grupo 31411">
            <path id="Trazado_33615" data-name="Trazado 33615" d="M380.845,202.988v.526l-17.236,10v-.526Z" fill="#773c2c"/>
          </g>
          <g id="Grupo_31412" data-name="Grupo 31412">
            <path id="Trazado_33616" data-name="Trazado 33616" d="M413.544,221.867v.526l-32.7-18.879v-.526Z" fill="#6b3529"/>
          </g>
          <g id="Grupo_31413" data-name="Grupo 31413">
            <path id="Trazado_33617" data-name="Trazado 33617" d="M396.314,232.926v.526l-34.53-19.936v-.526Z" fill="#6b3529"/>
          </g>
          <g id="Grupo_31414" data-name="Grupo 31414">
            <path id="Trazado_33618" data-name="Trazado 33618" d="M415.364,221.867v.526l-19.051,11.059v-.526Z" fill="#773c2c"/>
          </g>
          <path id="Trazado_33619" data-name="Trazado 33619" d="M380.834,201.931,361.783,212.99l34.531,19.936,19.05-11.059Zm15.474,29.94-32.7-18.878,17.236-10,32.7,18.879Z" fill="#93513a"/>
        </g>
        <g id="Grupo_31416" data-name="Grupo 31416">
          <path id="Trazado_33620" data-name="Trazado 33620" d="M413.3,216.972a3.071,3.071,0,0,0-3.04.321l-4.416,2.55L399.67,223.4a7.734,7.734,0,0,0-3.713,5.885v2.9c0,.368.746.328.746,0v-2.9a6.913,6.913,0,0,1,3.34-5.24l10.585-6.111a2.383,2.383,0,0,1,2.294-.321,1.594,1.594,0,0,1,.674,1.488v2.9c0,.315.745.306.745,0v-2.9A2.319,2.319,0,0,0,413.3,216.972Z" fill="#d2d1ce"/>
          <path id="Trazado_33621" data-name="Trazado 33621" d="M410.632,217.383a.093.093,0,0,0-.127-.034L399.92,223.46a.093.093,0,0,0,.046.174c.047-.012,10.632-6.124,10.632-6.124A.093.093,0,0,0,410.632,217.383Z" fill="#e1e0dc"/>
        </g>
        <g id="Grupo_31417" data-name="Grupo 31417">
          <path id="Trazado_33622" data-name="Trazado 33622" d="M379.86,197.668a3.071,3.071,0,0,0-3.04.321L366.235,204.1a7.734,7.734,0,0,0-3.713,5.885v2.9c0,.368.745.327.745,0v-2.9a6.915,6.915,0,0,1,3.341-5.24l10.585-6.111a2.383,2.383,0,0,1,2.294-.321,1.6,1.6,0,0,1,.674,1.489v2.9c0,.315.745.306.745,0v-2.9A2.32,2.32,0,0,0,379.86,197.668Z" fill="#d2d1ce"/>
          <path id="Trazado_33623" data-name="Trazado 33623" d="M377.218,198.091a.094.094,0,0,0-.127-.034l-10.585,6.111a.1.1,0,0,0-.035.128.094.094,0,0,0,.081.046c.047-.012,10.632-6.123,10.632-6.123A.1.1,0,0,0,377.218,198.091Z" fill="#e1e0dc"/>
        </g>
      </g>
      <g id="Grupo_31419" data-name="Grupo 31419">
        <path id="Trazado_33624" data-name="Trazado 33624" d="M375.8,192.782c-.374-1.06-2.971-10.891-4-12.977-.556-1.124-1.818,2.221-2.43,3.217.033.989.069,2.015.114,3.116.018.444.038.957.059,1.516l2.822,6.1c.157.228.322.553.592.615C374.7,194.774,376.136,193.727,375.8,192.782Z" fill="#f1f1f1"/>
        <path id="Trazado_33625" data-name="Trazado 33625" d="M373.6,197.092a7.927,7.927,0,0,0-.381-2.322,3.086,3.086,0,0,1-.243-.606c-.088-.664,2.067-1.937,2.681-.945.253.411.5.823.76,1.232a3.582,3.582,0,0,1,.624,1.006,4.786,4.786,0,0,1-.179,2.949c-.858,1.658-1.21,1.556-2.021,1.36C374.206,199.613,373.844,198.488,373.6,197.092Z" fill="url(#linear-gradient-23)"/>
      </g>
      <g id="Grupo_31430" data-name="Grupo 31430">
        <g id="_1" data-name="1">
          <path id="Trazado_33626" data-name="Trazado 33626" d="M377.368,212.636a2.1,2.1,0,0,0,1.07,1.491,3.8,3.8,0,0,0,3.571.04,2.112,2.112,0,0,0,1.128-1.5C383.137,210.608,377.365,210.592,377.368,212.636Z" fill="#202d23"/>
          <path id="Trazado_33627" data-name="Trazado 33627" d="M383.016,200.846H377.5c-.013.091-.025.183-.029.274l0,11.339a1.328,1.328,0,0,0,.765,1.077,4.41,4.41,0,0,0,3.989.04,1.355,1.355,0,0,0,.821-1.1l.005-11.339a.956.956,0,0,0-.017-.167C383.027,200.927,383.02,200.887,383.016,200.846Z" fill="url(#linear-gradient-24)"/>
          <path id="Trazado_33628" data-name="Trazado 33628" d="M382.228,199.9a1.2,1.2,0,0,1,0,2.271,4.347,4.347,0,0,1-3.933,0,1.2,1.2,0,0,1,0-2.271A4.347,4.347,0,0,1,382.228,199.9Z" fill="#4f2020"/>
          <path id="Trazado_33629" data-name="Trazado 33629" d="M383.162,201.136a1.035,1.035,0,0,0-.016-.175,2.772,2.772,0,0,0-.325-1.147,2.853,2.853,0,0,0-1.478-1.327v-4.464a.542.542,0,0,1-.326.446,1.677,1.677,0,0,1-1.522-.016.528.528,0,0,1-.3-.436V198.5a3.1,3.1,0,0,0-1.125.8,2.689,2.689,0,0,0-.674,1.487,2.832,2.832,0,0,0-.034.336l-.006,11.339a1.433,1.433,0,0,0,.822,1.176,4.524,4.524,0,0,0,4.105.042,1.461,1.461,0,0,0,.879-1.2l0-11.339Z" opacity="0.9" fill="url(#linear-gradient-25)"/>
          <path id="Trazado_33630" data-name="Trazado 33630" d="M383.162,201.136a1.035,1.035,0,0,0-.016-.175,2.772,2.772,0,0,0-.325-1.147,2.853,2.853,0,0,0-1.478-1.327v-4.464a.542.542,0,0,1-.326.446,1.677,1.677,0,0,1-1.522-.016.528.528,0,0,1-.3-.436V198.5a3.1,3.1,0,0,0-1.125.8,2.689,2.689,0,0,0-.674,1.487,2.832,2.832,0,0,0-.034.336l-.006,11.339a1.433,1.433,0,0,0,.822,1.176,4.524,4.524,0,0,0,4.105.042,1.461,1.461,0,0,0,.879-1.2l0-11.339Z" opacity="0.3" fill="url(#radial-gradient-3)" style="mix-blend-mode: screen;isolation: isolate"/>
          <g id="Grupo_31420" data-name="Grupo 31420" opacity="0.3">
            <path id="Trazado_33631" data-name="Trazado 33631" d="M383.016,200.846H377.5c-.013.091-.025.183-.029.274l0,11.339a1.328,1.328,0,0,0,.765,1.077,4.41,4.41,0,0,0,3.989.04,1.355,1.355,0,0,0,.821-1.1l.005-11.339a.956.956,0,0,0-.017-.167C383.027,200.927,383.02,200.887,383.016,200.846Z" fill="url(#linear-gradient-24)"/>
            <path id="Trazado_33632" data-name="Trazado 33632" d="M382.228,199.9a1.2,1.2,0,0,1,0,2.271,4.347,4.347,0,0,1-3.933,0,1.2,1.2,0,0,1,0-2.271A4.347,4.347,0,0,1,382.228,199.9Z" fill="#4f2020"/>
          </g>
          <path id="Trazado_33633" data-name="Trazado 33633" d="M381.269,198.512c0,.344-.724.5-.724.2v-4.6h.724Z" fill="url(#linear-gradient-27)" style="mix-blend-mode: screen;isolation: isolate"/>
          <g id="Grupo_31421" data-name="Grupo 31421">
            <path id="Trazado_33634" data-name="Trazado 33634" d="M381.032,194.426a1.709,1.709,0,0,1-1.552-.016.543.543,0,0,1-.311-.445v2.029a.543.543,0,0,0,.311.445,1.712,1.712,0,0,0,1.552.016.554.554,0,0,0,.333-.454v-2.03A.554.554,0,0,1,381.032,194.426Z" fill="url(#linear-gradient-28)"/>
            <path id="Trazado_33635" data-name="Trazado 33635" d="M381.177,193.012a1.972,1.972,0,0,0-1.792-.018c-.5.282-.513.746-.025,1.038a1.972,1.972,0,0,0,1.792.018C381.654,193.768,381.665,193.3,381.177,193.012Z" fill="#e9b148"/>
            <path id="Trazado_33636" data-name="Trazado 33636" d="M381.152,194.05a1.972,1.972,0,0,1-1.792-.018.625.625,0,0,1-.359-.513v.5a.623.623,0,0,0,.358.513,1.972,1.972,0,0,0,1.792.018.634.634,0,0,0,.384-.524l0-.5A.638.638,0,0,1,381.152,194.05Z" fill="url(#linear-gradient-29)"/>
            <path id="Trazado_33637" data-name="Trazado 33637" d="M381.018,193.511a1.675,1.675,0,0,1-1.518-.016.527.527,0,0,1-.3-.435l0,.459a.533.533,0,0,0,.3.435,1.669,1.669,0,0,0,1.517.015.538.538,0,0,0,.325-.444l0-.459A.543.543,0,0,1,381.018,193.511Z" fill="url(#linear-gradient-30)"/>
            <path id="Trazado_33638" data-name="Trazado 33638" d="M381.039,192.632a1.672,1.672,0,0,0-1.517-.016c-.425.239-.435.632-.022.879a1.675,1.675,0,0,0,1.518.016C381.442,193.272,381.452,192.879,381.039,192.632Z" fill="#e9b148"/>
            <path id="Trazado_33639" data-name="Trazado 33639" d="M380.89,192.71c-.824-.474-2.03.235-1.241.689C380.474,193.873,381.678,193.162,380.89,192.71Zm-1.223.66c-.747-.43.429-1.078,1.205-.631C381.62,193.168,380.444,193.816,379.667,193.37Z" fill="#c2881e" opacity="0.3" style="mix-blend-mode: multiply;isolation: isolate"/>
          </g>
          <path id="Trazado_33640" data-name="Trazado 33640" d="M382.641,213.125a2.49,2.49,0,0,1-.959.542v-11.2c0-.943.959-1.486.959-.6Z" opacity="0.9" fill="url(#linear-gradient-31)" style="mix-blend-mode: screen;isolation: isolate"/>
          <path id="Trazado_33641" data-name="Trazado 33641" d="M382.278,203.356a4.521,4.521,0,0,1-4.105-.041c-.025-.015-.046-.031-.07-.046V209.8c.024.015.045.031.07.045a4.524,4.524,0,0,0,4.105.042,1.461,1.461,0,0,0,.879-1.2v-6.526A1.46,1.46,0,0,1,382.278,203.356Z" fill="url(#linear-gradient-32)"/>
        </g>
        <g id="Grupo_31425" data-name="Grupo 31425">
          <g id="Grupo_31424" data-name="Grupo 31424">
            <g id="Grupo_31423" data-name="Grupo 31423">
              <g id="Axonometric_Cylinder-11" data-name="Axonometric Cylinder">
                <path id="Cylinder_face-11" data-name="Cylinder face" d="M385.5,218.263c.6-.345.755-.848.473-1.276a1.391,1.391,0,0,0-.473-.421,3.25,3.25,0,0,0-2.938,0,.9.9,0,0,0,0,1.7,2.9,2.9,0,0,0,1.27.346A3.087,3.087,0,0,0,385.5,218.263Z" fill="#7bb6b5" opacity="0.2"/>
                <ellipse id="Cylinder_face-12" data-name="Cylinder face" cx="0.401" cy="0.231" rx="0.401" ry="0.231" transform="translate(383.629 217.017)" fill="#9ecbd2"/>
                <path id="Cylinder_body-14" data-name="Cylinder body" d="M381.952,217.4v.1a1.026,1.026,0,0,0,.609.86,3.249,3.249,0,0,0,2.938,0,1.041,1.041,0,0,0,.609-.838v-.1a1.039,1.039,0,0,1-.609.837,3.243,3.243,0,0,1-2.938,0A1.026,1.026,0,0,1,381.952,217.4Z" fill="#9ecbd2"/>
              </g>
              <g id="Grupo_31422" data-name="Grupo 31422">
                <path id="Trazado_33642" data-name="Trazado 33642" d="M387.106,211.061c0-.013,0-.029-.008-.056-.029-.171-.114-.616-.41-2.2l-.107.007a1.368,1.368,0,0,0-.708-.873,3.983,3.983,0,0,0-3.614-.037,1.392,1.392,0,0,0-.759.895l-.107-.007c-.064.329-.361,1.873-.419,2.17a2.914,2.914,0,0,0,2.745,3.412,3.235,3.235,0,0,0,.622.005,3.317,3.317,0,0,0,1.339-.406A2.808,2.808,0,0,0,387.106,211.061Z" fill="#7bb6b5" opacity="0.2"/>
                <path id="Trazado_33643" data-name="Trazado 33643" d="M387.094,210.977a1.121,1.121,0,0,1,.015.128,1.139,1.139,0,0,0-.015-.129l-.406-2.169a1.058,1.058,0,0,1-.37.967,2.113,2.113,0,0,1-.422.3,3.447,3.447,0,0,1-1.105.372,4.107,4.107,0,0,1-2.661-.41,1.231,1.231,0,0,1-.737-1.249l-.418,2.167a.517.517,0,0,0-.008.055.5.5,0,0,1,.008-.054,2.943,2.943,0,0,0,3.049,3.432,3.334,3.334,0,0,0,1.651-.416A2.822,2.822,0,0,0,387.094,210.977Z" fill="#7bb6b5" opacity="0.2"/>
                <path id="Trazado_33644" data-name="Trazado 33644" d="M385.95,207.9a4.151,4.151,0,0,0-3.767-.038c-1.054.592-1.078,1.569-.053,2.182a4.149,4.149,0,0,0,3.766.038C386.951,209.487,386.975,208.51,385.95,207.9Zm-.129,2.137a3.983,3.983,0,0,1-3.614-.037c-.983-.588-.96-1.525.052-2.093a3.983,3.983,0,0,1,3.614.037C386.856,208.529,386.833,209.466,385.821,210.034Z" fill="#9ecbd2"/>
              </g>
            </g>
          </g>
          <path id="Trazado_33645" data-name="Trazado 33645" d="M384.024,213.537c-.118,0-.225-.011-.339-.023l0,3.689a.164.164,0,0,0,.1.151.538.538,0,0,0,.488,0,.164.164,0,0,0,.1-.151l0-3.684A3.064,3.064,0,0,1,384.024,213.537Z" fill="#9ecbd2" opacity="0.5"/>
          <path id="Trazado_33646" data-name="Trazado 33646" d="M384.1,214.392v2.9c0,.093.209,0,.209-.085v-2.833C384.244,214.382,384.178,214.391,384.1,214.392Z" fill="#b2e4e2" opacity="0.8" style="mix-blend-mode: screen;isolation: isolate"/>
          <path id="Trazado_33647" data-name="Trazado 33647" d="M385.9,210.079a3.447,3.447,0,0,1-1.105.372c-.115.019-.231.034-.349.044l.089,1.493c.081.82.828.984,1.5.581a1.182,1.182,0,0,0,.559-1.127l-.173-1.772c-.031.035-.064.07-.1.1A2.113,2.113,0,0,1,385.9,210.079Z" opacity="0.8" fill="url(#linear-gradient-33)" style="mix-blend-mode: screen;isolation: isolate"/>
          <ellipse id="Cylinder_face-13" data-name="Cylinder face" cx="0.346" cy="0.199" rx="0.346" ry="0.199" transform="translate(383.685 213.314)" fill="#9ecbd2"/>
          <path id="Trazado_33648" data-name="Trazado 33648" d="M385.828,216.886a.814.814,0,0,1,.108.483,1.1,1.1,0,0,1-.68.8,2.9,2.9,0,0,1-1.06.31,4.121,4.121,0,0,1-.51.032,2.746,2.746,0,0,0,.514.016,2.976,2.976,0,0,0,1.1-.279,1.17,1.17,0,0,0,.687-.872A.776.776,0,0,0,385.828,216.886Z" opacity="0.8" fill="url(#radial-gradient-4)" style="mix-blend-mode: screen;isolation: isolate"/>
        </g>
        <g id="Grupo_31429" data-name="Grupo 31429">
          <g id="Grupo_31428" data-name="Grupo 31428">
            <g id="Grupo_31427" data-name="Grupo 31427">
              <g id="Axonometric_Cylinder-12" data-name="Axonometric Cylinder">
                <path id="Cylinder_face-14" data-name="Cylinder face" d="M378.316,218.636c.6-.345.755-.847.473-1.276a1.379,1.379,0,0,0-.473-.42,3.243,3.243,0,0,0-2.938,0,.9.9,0,0,0,0,1.7,2.889,2.889,0,0,0,1.27.346A3.087,3.087,0,0,0,378.316,218.636Z" fill="#7bb6b5" opacity="0.2"/>
                <path id="Cylinder_face-15" data-name="Cylinder face" d="M377.13,217.785a.172.172,0,0,0,0-.327.627.627,0,0,0-.566,0,.172.172,0,0,0,0,.327A.621.621,0,0,0,377.13,217.785Z" fill="#9ecbd2"/>
                <path id="Cylinder_body-15" data-name="Cylinder body" d="M374.769,217.777v.105a1.025,1.025,0,0,0,.609.859,3.243,3.243,0,0,0,2.938,0,1.039,1.039,0,0,0,.609-.837V217.8a1.039,1.039,0,0,1-.609.837,3.243,3.243,0,0,1-2.938,0A1.025,1.025,0,0,1,374.769,217.777Z" fill="#9ecbd2"/>
              </g>
              <g id="Grupo_31426" data-name="Grupo 31426">
                <path id="Trazado_33649" data-name="Trazado 33649" d="M379.923,211.435c0-.013,0-.03-.008-.057-.029-.17-.114-.616-.41-2.2l-.107.007a1.367,1.367,0,0,0-.709-.873,3.98,3.98,0,0,0-3.613-.036,1.389,1.389,0,0,0-.759.9l-.107-.008c-.064.33-.361,1.873-.419,2.171a2.913,2.913,0,0,0,2.745,3.411,3.157,3.157,0,0,0,.622.005,3.317,3.317,0,0,0,1.339-.406A2.809,2.809,0,0,0,379.923,211.435Z" fill="#7bb6b5" opacity="0.2"/>
                <path id="Trazado_33650" data-name="Trazado 33650" d="M379.911,211.35a1.141,1.141,0,0,1,.015.128,1.089,1.089,0,0,0-.015-.128l-.406-2.17a1.056,1.056,0,0,1-.371.967,2.077,2.077,0,0,1-.421.3,3.408,3.408,0,0,1-1.105.372,4.107,4.107,0,0,1-2.661-.41,1.229,1.229,0,0,1-.737-1.249l-.418,2.168a.507.507,0,0,0-.008.054.507.507,0,0,1,.008-.054,2.943,2.943,0,0,0,3.049,3.433,3.332,3.332,0,0,0,1.651-.417A2.822,2.822,0,0,0,379.911,211.35Z" fill="#7bb6b5" opacity="0.2"/>
                <path id="Trazado_33651" data-name="Trazado 33651" d="M378.767,208.271a4.151,4.151,0,0,0-3.767-.038c-1.055.591-1.078,1.568-.053,2.181a4.149,4.149,0,0,0,3.766.038C379.768,209.86,379.792,208.883,378.767,208.271Zm-.129,2.136a3.983,3.983,0,0,1-3.614-.036c-.984-.588-.961-1.526.052-2.093a3.98,3.98,0,0,1,3.613.036C379.673,208.9,379.65,209.839,378.638,210.407Z" fill="#9ecbd2"/>
              </g>
            </g>
          </g>
          <path id="Trazado_33652" data-name="Trazado 33652" d="M376.841,213.91c-.118,0-.226-.011-.339-.023l0,3.689a.163.163,0,0,0,.1.151.538.538,0,0,0,.488,0,.163.163,0,0,0,.1-.151l0-3.684A2.851,2.851,0,0,1,376.841,213.91Z" fill="#9ecbd2" opacity="0.5"/>
          <path id="Trazado_33653" data-name="Trazado 33653" d="M376.921,214.766v2.9c0,.093.209,0,.209-.084V214.75C377.061,214.755,376.995,214.765,376.921,214.766Z" fill="#b2e4e2" opacity="0.8" style="mix-blend-mode: screen;isolation: isolate"/>
          <path id="Trazado_33654" data-name="Trazado 33654" d="M378.713,210.452a3.408,3.408,0,0,1-1.105.372c-.115.019-.231.034-.349.044l.089,1.493c.08.82.828.984,1.5.581a1.182,1.182,0,0,0,.559-1.127l-.173-1.772c-.031.035-.064.07-.1.1A2.077,2.077,0,0,1,378.713,210.452Z" opacity="0.8" fill="url(#linear-gradient-34)" style="mix-blend-mode: screen;isolation: isolate"/>
          <ellipse id="Cylinder_face-16" data-name="Cylinder face" cx="0.346" cy="0.2" rx="0.346" ry="0.2" transform="translate(376.501 213.688)" fill="#9ecbd2"/>
          <path id="Trazado_33655" data-name="Trazado 33655" d="M378.645,217.26a.808.808,0,0,1,.108.482,1.107,1.107,0,0,1-.68.8,2.905,2.905,0,0,1-1.061.31,4.253,4.253,0,0,1-.509.033,2.7,2.7,0,0,0,.514.015,2.957,2.957,0,0,0,1.1-.279,1.171,1.171,0,0,0,.687-.872A.77.77,0,0,0,378.645,217.26Z" opacity="0.8" fill="url(#radial-gradient-5)" style="mix-blend-mode: screen;isolation: isolate"/>
        </g>
      </g>
    </g>
    <g id="Grupo_31433" data-name="Grupo 31433">
      <g id="Grupo_31432" data-name="Grupo 31432">
        <g id="Grupo_31431" data-name="Grupo 31431">
          <path id="Trazado_33656" data-name="Trazado 33656" d="M365.452,197.3c-.25-.563-5.051-10.186-5.051-10.186s-2.519-11.16-4.01-13.475a2.154,2.154,0,0,0-2.664-1.163c-4.541,1.242,1.933,17.443,1.933,17.443s4.859,7.427,6.7,9.393C362.792,200.028,365.935,198.386,365.452,197.3Z" fill="#f1f1f1"/>
          <path id="Trazado_33657" data-name="Trazado 33657" d="M362.806,199.257c.048.442.707.687,1,1.321a9.591,9.591,0,0,0,1.567,1.9c.285.32.2.392.656,1.216.772,1.378,2.814.112,2.666-1.309a6.357,6.357,0,0,0-1.33-2.865,15.817,15.817,0,0,0-2.253-2.049C363.552,197.417,362.663,199.019,362.806,199.257Z" fill="#f3bc97"/>
        </g>
      </g>
    </g>
  </g>
</svg>
