<svg xmlns="http://www.w3.org/2000/svg" width="90.308" height="118.85" viewBox="0 0 90.308 118.85">
  <g id="Grupo_29286" data-name="Grupo 29286" transform="translate(-99.073 -257.697)">
    <path id="Trazado_19277" data-name="Trazado 19277" d="M170.518,276.454l-17.831,10.4.205.12c-11.255-1.674-23.7.014-32.5,5.1-9.6,5.539-12.252,13.563-7.959,20.488l-13.357,7.644,18.862,10.889,12.679-7.257c12.471,3.194,27.584,1.869,37.806-4.036,11.023-6.367,12.868-16.017,5.563-23.5l15.4-8.958Z" transform="translate(0 45.452)" opacity="0.3"/>
    <g id="Grupo_29255" data-name="Grupo 29255" transform="translate(152.689 270.121)">
      <g id="Grupo_29245" data-name="Grupo 29245" transform="translate(16.15)">
        <path id="Trazado_19278" data-name="Trazado 19278" d="M119.453,313.413l1.68.969,1.682-.969v-51.8h-3.362Z" transform="translate(-119.453 -260.638)" fill="#3c2415"/>
        <path id="Trazado_19279" data-name="Trazado 19279" d="M119.453,313.413l1.68.969V262.573l-1.68-.963Z" transform="translate(-119.453 -260.638)" fill="#603913"/>
        <path id="Trazado_19280" data-name="Trazado 19280" d="M119.453,262.3l1.68.962,1.682-.962-1.682-.973Z" transform="translate(-119.453 -261.326)" fill="#754c29"/>
      </g>
      <g id="Grupo_29246" data-name="Grupo 29246" transform="translate(18.197 2.587)">
        <path id="Trazado_19281" data-name="Trazado 19281" d="M120.051,262.5v1.942l17.189,9.922.722-2.356-17.189-9.922Z" transform="translate(-120.051 -262.082)" fill="#3c2415"/>
        <path id="Trazado_19282" data-name="Trazado 19282" d="M120.051,262.5l17.189,9.922.722-.414-17.189-9.922Z" transform="translate(-120.051 -262.082)" fill="#603913"/>
        <path id="Trazado_19283" data-name="Trazado 19283" d="M125.073,267.337l.722-.418v-1.939l-.722.414Z" transform="translate(-107.883 -255.059)" fill="#754c29"/>
      </g>
      <g id="Grupo_29247" data-name="Grupo 29247" transform="translate(18.197 6.141)">
        <path id="Trazado_19284" data-name="Trazado 19284" d="M120.051,263.538v1.939l17.189,9.925.722-2.36-17.189-9.922Z" transform="translate(-120.051 -263.12)" fill="#3c2415"/>
        <path id="Trazado_19285" data-name="Trazado 19285" d="M120.051,263.538l17.189,9.922.722-.418-17.189-9.922Z" transform="translate(-120.051 -263.12)" fill="#603913"/>
        <path id="Trazado_19286" data-name="Trazado 19286" d="M125.073,268.379l.722-.415v-1.945l-.722.418Z" transform="translate(-107.883 -256.097)" fill="#754c29"/>
      </g>
      <g id="Grupo_29248" data-name="Grupo 29248" transform="translate(18.197 9.698)">
        <path id="Trazado_19287" data-name="Trazado 19287" d="M120.051,264.574v1.939l17.189,9.925.722-2.36-17.189-9.918Z" transform="translate(-120.051 -264.159)" fill="#3c2415"/>
        <path id="Trazado_19288" data-name="Trazado 19288" d="M120.051,264.574l17.189,9.922.722-.418-17.189-9.918Z" transform="translate(-120.051 -264.159)" fill="#603913"/>
        <path id="Trazado_19289" data-name="Trazado 19289" d="M125.073,269.417l.722-.418v-1.942l-.722.418Z" transform="translate(-107.883 -257.138)" fill="#754c29"/>
      </g>
      <g id="Grupo_29249" data-name="Grupo 29249" transform="translate(18.197 13.248)">
        <path id="Trazado_19290" data-name="Trazado 19290" d="M120.051,265.611v1.942l17.189,9.925.722-2.357L120.773,265.2Z" transform="translate(-120.051 -265.196)" fill="#3c2415"/>
        <path id="Trazado_19291" data-name="Trazado 19291" d="M120.051,265.611l17.189,9.929.722-.418L120.773,265.2Z" transform="translate(-120.051 -265.196)" fill="#603913"/>
        <path id="Trazado_19292" data-name="Trazado 19292" d="M125.073,270.453l.722-.418V268.1l-.722.418Z" transform="translate(-107.883 -258.171)" fill="#754c29"/>
      </g>
      <g id="Grupo_29250" data-name="Grupo 29250" transform="translate(33.331 9.898)">
        <path id="Trazado_19293" data-name="Trazado 19293" d="M124.472,316.31l1.681.969,1.68-.969V264.5h-3.361Z" transform="translate(-124.472 -263.532)" fill="#3c2415"/>
        <path id="Trazado_19294" data-name="Trazado 19294" d="M124.472,316.31l1.681.969v-51.8l-1.681-.976Z" transform="translate(-124.472 -263.532)" fill="#603913"/>
        <path id="Trazado_19295" data-name="Trazado 19295" d="M124.472,265.187l1.681.976,1.68-.976-1.68-.969Z" transform="translate(-124.472 -264.218)" fill="#754c29"/>
      </g>
      <g id="Grupo_29251" data-name="Grupo 29251" transform="translate(0 41.369)">
        <path id="Trazado_19296" data-name="Trazado 19296" d="M114.735,293.538l1.676.973,1.681-.973V273.694h-3.358Z" transform="translate(-114.735 -272.725)" fill="#3c2415"/>
        <path id="Trazado_19297" data-name="Trazado 19297" d="M114.735,293.538l1.676.973v-19.85l-1.676-.966Z" transform="translate(-114.735 -272.725)" fill="#603913"/>
        <path id="Trazado_19298" data-name="Trazado 19298" d="M114.735,274.381l1.676.966,1.681-.966-1.681-.969Z" transform="translate(-114.735 -273.411)" fill="#754c29"/>
      </g>
      <g id="Grupo_29252" data-name="Grupo 29252" transform="translate(17.164 51.277)">
        <path id="Trazado_19299" data-name="Trazado 19299" d="M119.75,296.436l1.68.969,1.68-.969V276.589h-3.36Z" transform="translate(-119.75 -275.62)" fill="#3c2415"/>
        <path id="Trazado_19300" data-name="Trazado 19300" d="M119.75,296.436l1.68.969V277.558l-1.68-.969Z" transform="translate(-119.75 -275.62)" fill="#603913"/>
        <path id="Trazado_19301" data-name="Trazado 19301" d="M119.75,277.275l1.68.969,1.68-.969-1.68-.97Z" transform="translate(-119.75 -276.306)" fill="#754c29"/>
      </g>
      <g id="Grupo_29253" data-name="Grupo 29253" transform="translate(0 30.314)">
        <path id="Trazado_19302" data-name="Trazado 19302" d="M114.735,275.59l18.859,10.888,16.153-9.35v-2.674l-35.012-1.541Z" transform="translate(-114.735 -263.565)" fill="#3c2415"/>
        <path id="Trazado_19303" data-name="Trazado 19303" d="M114.735,279.529l18.859,10.892,16.153-9.35-18.863-10.888Z" transform="translate(-114.735 -270.182)" fill="#754c29"/>
      </g>
      <g id="Grupo_29254" data-name="Grupo 29254" transform="translate(4.095 31.28)">
        <path id="Trazado_19304" data-name="Trazado 19304" d="M115.932,273.684l14.926,8.615,12.782-7.391v-1.063l-27.708-1.22Z" transform="translate(-115.932 -265.23)" fill="#ba6000"/>
        <path id="Trazado_19305" data-name="Trazado 19305" d="M115.932,277.858l14.926,8.618,12.782-7.4-14.925-8.615Z" transform="translate(-115.932 -270.464)" fill="#ff9d26"/>
      </g>
    </g>
    <g id="Grupo_29256" data-name="Grupo 29256" transform="translate(141.053 296.013)">
      <path id="Trazado_19306" data-name="Trazado 19306" d="M116.83,281.745s-2.519,1.9-4.659,3.793c-1.825,1.609-.308,4.252,1.219,4.18s3.18-1.479,4.094-2.211,1.551-1.893,2.105-2.287,2.927-1.051,4.015-1.982c.346-.3,0-2.739,0-2.739Z" transform="translate(-111.336 -240.759)" fill="#fff"/>
      <path id="Trazado_19307" data-name="Trazado 19307" d="M116.83,281.61s-2.519,1.9-4.659,3.793c-1.825,1.612-.308,4.255,1.219,4.18s3.18-1.479,4.094-2.211,1.551-1.89,2.105-2.283,2.927-1.058,4.015-1.985c.346-.3,0-2.738,0-2.738Z" transform="translate(-111.336 -241.087)" fill="#2a4e68"/>
      <path id="Trazado_19308" data-name="Trazado 19308" d="M113.262,286.522c-.257.353-.219,1.3,0,1.445a6.3,6.3,0,0,0,7.346.014,47.156,47.156,0,0,0,5.7-4.82,2.332,2.332,0,0,0,.021-.691C126.287,281.866,113.511,286.169,113.262,286.522Z" transform="translate(-107.104 -236.126)" fill="#fff"/>
      <path id="Trazado_19309" data-name="Trazado 19309" d="M119.783,281.8c-.585.719-6.271,5.395-6.521,5.748s-.219,1.3,0,1.445a6.31,6.31,0,0,0,7.346.014,46.8,46.8,0,0,0,5.7-4.823,8.723,8.723,0,0,0-.144-2.023S120.248,281.747,119.783,281.8Z" transform="translate(-107.104 -237.608)" fill="#2a4e68"/>
      <path id="Trazado_19310" data-name="Trazado 19310" d="M133.16,268.89c-6.833,2.708-16.63,14.8-18.978,16.284-1.534.965-1.794,5.6-1.7,6.579.6,6.453,1.979,12.577.948,16.376s8.517,3.033,8.164,0,.938-11.368-1.284-18.174c.51-.274,15.7-8.435,19.577-12.738l-.072-6.4Z" transform="translate(-108.603 -268.89)" fill="#e6e7e8"/>
      <path id="Trazado_19311" data-name="Trazado 19311" d="M127.651,269.233a16.213,16.213,0,0,0,3.581,6.559c-4.7,3.834-12.44,11.533-13.83,12.693s-2.153,5.645-2.064,6.617c.6,6.456.6,13.392-.431,17.191s8.513,3.036,8.161,0,1.513-12.426-.168-18.66c.51-.277,15.7-8.438,19.57-12.741s2.139-11.659,2.139-11.659S127.829,268.744,127.651,269.233Z" transform="translate(-102.875 -268.586)" fill="#fff"/>
    </g>
    <g id="Grupo_29267" data-name="Grupo 29267" transform="translate(100.756 290.264)">
      <g id="Grupo_29257" data-name="Grupo 29257" transform="translate(12.938 16.95)">
        <path id="Trazado_19312" data-name="Trazado 19312" d="M104.049,272.564h-.705v42.108a.821.821,0,0,0,.486.678,2.6,2.6,0,0,0,2.338,0,.815.815,0,0,0,.483-.678V272.564h-.7A2.681,2.681,0,0,0,104.049,272.564Z" transform="translate(-103.344 -271.612)" fill="#522d13"/>
        <path id="Trazado_19313" data-name="Trazado 19313" d="M106.168,272.439a2.6,2.6,0,0,0-2.338,0,.716.716,0,0,0,0,1.355,2.625,2.625,0,0,0,2.338,0A.717.717,0,0,0,106.168,272.439Z" transform="translate(-103.343 -272.162)" fill="#f5b400"/>
      </g>
      <g id="Grupo_29258" data-name="Grupo 29258" transform="translate(42.892 34.242)">
        <path id="Trazado_19314" data-name="Trazado 19314" d="M112.8,277.618h-.7v42.1a.814.814,0,0,0,.486.678,2.554,2.554,0,0,0,2.335,0,.811.811,0,0,0,.486-.678v-42.1h-.7A2.646,2.646,0,0,0,112.8,277.618Z" transform="translate(-112.093 -276.662)" fill="#522d13"/>
        <path id="Trazado_19315" data-name="Trazado 19315" d="M114.917,277.5a2.554,2.554,0,0,0-2.335,0,.71.71,0,0,0,0,1.349,2.574,2.574,0,0,0,2.335,0A.711.711,0,0,0,114.917,277.5Z" transform="translate(-112.095 -277.214)" fill="#f5b400"/>
      </g>
      <g id="Grupo_29259" data-name="Grupo 29259" transform="translate(70.303 18.418)">
        <path id="Trazado_19316" data-name="Trazado 19316" d="M120.807,272.993H120.1V315.1a.823.823,0,0,0,.49.674,2.581,2.581,0,0,0,2.338,0,.814.814,0,0,0,.483-.674V272.993h-.7A2.69,2.69,0,0,0,120.807,272.993Z" transform="translate(-120.102 -272.041)" fill="#522d13"/>
        <path id="Trazado_19317" data-name="Trazado 19317" d="M122.927,272.868a2.6,2.6,0,0,0-2.338,0,.711.711,0,0,0,0,1.349,2.582,2.582,0,0,0,2.338,0A.712.712,0,0,0,122.927,272.868Z" transform="translate(-120.099 -272.591)" fill="#f5b400"/>
      </g>
      <g id="Grupo_29264" data-name="Grupo 29264" transform="translate(0 35.86)">
        <path id="Trazado_19318" data-name="Trazado 19318" d="M108.161,285.623a11.51,11.51,0,0,0-1.068,3.995c.024.425.989,1.116,2.318.8,1.407-.332,2.068-1.516,2.872-2a22.036,22.036,0,0,1,2.567-1.133v-2.554a7.7,7.7,0,0,1-2.793-.466Z" transform="translate(-81.335 -261.73)" fill="#fff"/>
        <path id="Trazado_19319" data-name="Trazado 19319" d="M108.161,285.5a11.536,11.536,0,0,0-1.068,4c.024.424.989,1.116,2.318.8,1.407-.332,2.068-1.517,2.872-2a22.262,22.262,0,0,1,2.567-1.137v-2.55a7.742,7.742,0,0,1-2.793-.469Z" transform="translate(-81.335 -262.038)" fill="#ff4d75"/>
        <path id="Trazado_19320" data-name="Trazado 19320" d="M114.019,280.2a87.817,87.817,0,0,0-2.314,13.5c-.161,2.335-4.406,2.119-4.3,1.352.541-4.05.486-9.181,1.085-12.686Z" transform="translate(-80.577 -271.592)" fill="#e6e7e8"/>
        <path id="Trazado_19321" data-name="Trazado 19321" d="M113.869,285.16c3.214.2,4.012-.158,4.323.038a1.747,1.747,0,0,1,.11,3.03,51.589,51.589,0,0,1-6.7,3.019c-1.732.469-2.783-.236-2.985-.815a20.976,20.976,0,0,1,.924-3.707S112.815,285.1,113.869,285.16Z" transform="translate(-77.657 -259.631)" fill="#fff"/>
        <path id="Trazado_19322" data-name="Trazado 19322" d="M113.869,285.049c3.214.2,4.012-.161,4.323.041a1.744,1.744,0,0,1,.11,3.026,51.127,51.127,0,0,1-6.7,3.019c-1.732.469-2.783-.236-2.985-.818a21.088,21.088,0,0,1,.924-3.7S112.815,284.984,113.869,285.049Z" transform="translate(-77.657 -259.9)" fill="#ff4d75"/>
        <path id="Trazado_19323" data-name="Trazado 19323" d="M118.1,279.554c0,3.095-4.121,10.523-4.5,19.18-.075,1.736-4.9,1.992-4.721,1.068,1.229-6.511.291-8.606,1.383-13.7l3.225-5.789Z" transform="translate(-76.997 -273.16)" fill="#fff"/>
        <path id="Trazado_19324" data-name="Trazado 19324" d="M109.283,284.924c2.2-.243,6.292-4.885,6.292-4.885S112.076,282.757,109.283,284.924Z" transform="translate(-76.015 -271.985)" fill="#d1d3d4"/>
        <g id="Grupo_29260" data-name="Grupo 29260" transform="translate(14.488 9.402)">
          <path id="Trazado_19325" data-name="Trazado 19325" d="M103.8,300.562l1.675.969,1.681-.969V280.715H103.8Z" transform="translate(-103.797 -279.749)" fill="#3c2415"/>
          <path id="Trazado_19326" data-name="Trazado 19326" d="M103.8,300.562l1.675.969V281.688l-1.675-.973Z" transform="translate(-103.797 -279.749)" fill="#603913"/>
          <path id="Trazado_19327" data-name="Trazado 19327" d="M103.8,281.4l1.675.973,1.681-.973-1.681-.966Z" transform="translate(-103.797 -280.433)" fill="#754c29"/>
        </g>
        <g id="Grupo_29261" data-name="Grupo 29261" transform="translate(31.651 19.31)">
          <path id="Trazado_19328" data-name="Trazado 19328" d="M108.811,303.457l1.682.969,1.68-.969V283.61h-3.362Z" transform="translate(-108.811 -282.641)" fill="#3c2415"/>
          <path id="Trazado_19329" data-name="Trazado 19329" d="M108.811,303.457l1.682.969V284.58l-1.682-.969Z" transform="translate(-108.811 -282.641)" fill="#603913"/>
          <path id="Trazado_19330" data-name="Trazado 19330" d="M108.811,284.3l1.682.969,1.68-.969-1.68-.97Z" transform="translate(-108.811 -283.327)" fill="#754c29"/>
        </g>
        <g id="Grupo_29262" data-name="Grupo 29262" transform="translate(0 6.714)">
          <path id="Trazado_19331" data-name="Trazado 19331" d="M99.565,285.059l18.862,10.888,16.15-9.35v-2.675l-35.012-1.545Z" transform="translate(-99.565 -273.031)" fill="#3c2415"/>
          <path id="Trazado_19332" data-name="Trazado 19332" d="M99.565,288.994l18.862,10.892,16.15-9.347-18.861-10.891Z" transform="translate(-99.565 -279.648)" fill="#754c29"/>
        </g>
        <g id="Grupo_29263" data-name="Grupo 29263" transform="translate(3.939 7.77)">
          <path id="Trazado_19333" data-name="Trazado 19333" d="M100.715,283.176l14.925,8.615,12.782-7.391v-1.063l-27.707-1.22Z" transform="translate(-100.715 -274.722)" fill="#ba6000"/>
          <path id="Trazado_19334" data-name="Trazado 19334" d="M100.715,287.351l14.925,8.618,12.782-7.4L113.5,279.956Z" transform="translate(-100.715 -279.956)" fill="#ff9d26"/>
        </g>
        <path id="Trazado_19335" data-name="Trazado 19335" d="M113.484,288.458c-.387-.113-7.36-2.174-7.36-2.174s-2.437-5.053,1.273-6.234c4.015-1.273,10.061-2.54,10.766-2.345a4.576,4.576,0,0,1,2.061,3.129,53.016,53.016,0,0,1-1.208,5.46Z" transform="translate(-85.573 -277.686)" fill="#e6e7e8"/>
        <path id="Trazado_19336" data-name="Trazado 19336" d="M128.51,288.156c-.3.164-10.66,7.569-14.792,7.654S102.2,291.3,101.58,288.724c-1.291-5.4,3.231-9.715,3.231-9.715l13.077,2.708a1.956,1.956,0,0,0,.127.914c5.21-2.646,15.367-4.094,15.945-3.909s2.386,2.122,2.389,2.889Z" transform="translate(-95.242 -275.216)" fill="#fff"/>
        <path id="Trazado_19337" data-name="Trazado 19337" d="M106.627,280.5l.294,5.634-.873-6.216s.366-.346.452-.332A2.04,2.04,0,0,0,106.627,280.5Z" transform="translate(-83.854 -273.085)" fill="#d1d3d4"/>
      </g>
      <g id="Grupo_29266" data-name="Grupo 29266" transform="translate(9.682)">
        <path id="Trazado_19338" data-name="Trazado 19338" d="M102.394,275.619c-.014,5.018,3.3,10.044,9.948,13.878,13.258,7.654,34.769,7.654,48.031,0,6.627-3.834,9.941-8.846,9.941-13.867v-2.694H102.394Z" transform="translate(-102.391 -253.339)" fill="#3c2415"/>
        <path id="Trazado_19339" data-name="Trazado 19339" d="M160.375,272.956c-13.268-7.661-34.773-7.661-48.031,0s-13.272,20.07,0,27.728,34.769,7.658,48.031,0S173.629,280.611,160.375,272.956Z" transform="translate(-102.393 -267.211)" fill="#754c29"/>
        <g id="Grupo_29265" data-name="Grupo 29265" transform="translate(4.56 2.025)">
          <path id="Trazado_19340" data-name="Trazado 19340" d="M103.725,275.807l3.18,9.729,7.51-3.18C107.046,279.716,103.725,275.807,103.725,275.807Z" transform="translate(-103.725 -248.405)" fill="#ff8400"/>
          <path id="Trazado_19341" data-name="Trazado 19341" d="M118.092,267.8s-8.921,1.985-14.367,7.764V295.2s3.18,3.721,10.691,6.548h37.426c5.761-1.794,10.691-6.545,10.691-6.545V275.562c-5.371-5.607-14.36-7.76-14.36-7.76Z" transform="translate(-103.725 -267.802)" fill="#ff9d26"/>
          <path id="Trazado_19342" data-name="Trazado 19342" d="M124.963,284.972l3.509-9.164a31.658,31.658,0,0,1-10.691,6.545C118.651,282.665,124.963,284.972,124.963,284.972Z" transform="translate(-69.665 -248.402)" fill="#ff8400"/>
        </g>
      </g>
    </g>
    <g id="Grupo_29268" data-name="Grupo 29268" transform="translate(152.063 257.697)">
      <path id="Trazado_19343" data-name="Trazado 19343" d="M127.55,260.548s-1.982.4-3.981,3.44a89.511,89.511,0,0,1-8.722,10.821c.229.705,5.381.863,5.381.863l9.746-9.8Z" transform="translate(-113.84 -250.788)" fill="#2b5e85"/>
      <path id="Trazado_19344" data-name="Trazado 19344" d="M126.91,261.58a9.923,9.923,0,0,0,.325,2.564l1.3,1.373-.288,2.407-.887,1.5-2.855,1.284h-2.786l-1.845-.671-.613-3.2,1.157-4.139,4.375-2.331S126.516,261.31,126.91,261.58Z" transform="translate(-103.132 -251.231)" fill="#c7a496"/>
      <path id="Trazado_19345" data-name="Trazado 19345" d="M130.52,261.469a3.755,3.755,0,0,1-.3,3.947,5.316,5.316,0,0,1-5.665,1.766c-1.458-.712-.736-4.4-.736-4.4l-2.91.561s-2.831,3.036-2.964,5.857c-.291,6,1.664,7.664,1.664,7.664l.359,10s.654,3.817,10.2,3.806c7.63,0,7.014-3.806,7.014-3.806s1.229-19.961.565-20.436C133.724,262.137,130.52,261.469,130.52,261.469Z" transform="translate(-106.417 -248.556)" fill="#3576ab"/>
      <path id="Trazado_19346" data-name="Trazado 19346" d="M128.44,261.07c-.25-.668-3.108,1.157-3.392,1.544a11.279,11.279,0,0,0-.763,2.769c-.072.514.284,3.362-.024,3.9-.185.171-6.911,3.451-8.37,4.3a3.083,3.083,0,0,0-.753,4.262c1.229,1.212,3.639.815,4.7-.055s3.789-4.337,5.758-6.309c.246-.243.746-.271,1.075-.507a2.188,2.188,0,0,0,1-1.445,3.413,3.413,0,0,0,1.544-1.872c.435-.733,1.66-2.831,1.082-3.262s-1.643,2.023-2.287,1.431a2.954,2.954,0,0,1-.8-1.722C127.3,263.548,128.7,261.738,128.44,261.07Z" transform="translate(-114.479 -249.875)" fill="#f0c6b4"/>
      <path id="Trazado_19347" data-name="Trazado 19347" d="M120.374,258.936a8.089,8.089,0,0,0-2.256,5.508c.024.171.537.709.537.709s-.185,1.075-.219,1.5a37.709,37.709,0,0,0,1.109,5.289,2.675,2.675,0,0,0,1.7,1.017,11.677,11.677,0,0,0,5.6-2.872,6.539,6.539,0,0,0,.561-1.951s2.061-.585,2.294-2.04a22.4,22.4,0,0,0,.709-2.372l-1.393-3.817-3.156-1.352S121.117,258.286,120.374,258.936Z" transform="translate(-105.92 -255.749)" fill="#f0c6b4"/>
      <path id="Trazado_19348" data-name="Trazado 19348" d="M119.284,262.915c1.852.825,5.539-1.469,6.244-.558s-.955,1.948-1.191,2.975.264,3.4.938,3.4c1.486,0,.948-2.047,2.078-2.263s.924,1.167.941,1.578c.722-.6,1.694-2.157,1.03-5.624a5.542,5.542,0,0,0-6.778-4.594C118.555,258.824,118.062,262.275,119.284,262.915Z" transform="translate(-104.515 -257.697)" fill="#603913"/>
      <path id="Trazado_19349" data-name="Trazado 19349" d="M137.756,272.466c-3.095-.6-8.637-.229-13.576-.5-.431-.024-3.615-3.649-3.615-3.649s-1.941-1.164-2.694-1.054c-.561.079-4.176,4.683-3.129,5.415.229.164.691.106,1.643-.5a8.06,8.06,0,0,0,1.41.722s3.327,2.187,4.1,2.28a7.924,7.924,0,0,0,1.647-.147c5.963,1.366,7.973,3.587,13.919,3.4l2.061-3.255S138.352,272.657,137.756,272.466Z" transform="translate(-114.553 -234.536)" fill="#f0c6b4"/>
      <path id="Trazado_19350" data-name="Trazado 19350" d="M130.038,262.92s-4.108,1.054-5.193,9.91a40.043,40.043,0,0,0-2.927,10.139c-1.044.8-1.058,6.145-.291,5.97,1.886-.435,4.248-.452,5.121-2.674,2.3-5.874,4.207-8.212,6.268-15.151S130.038,262.92,130.038,262.92Z" transform="translate(-98.715 -245.04)" fill="#2b5e85"/>
    </g>
    <g id="Grupo_29270" data-name="Grupo 29270" transform="translate(129.196 307.786)">
      <path id="Trazado_19351" data-name="Trazado 19351" d="M111.607,276.946a3.184,3.184,0,0,1-2.889,0,.877.877,0,0,1,0-1.664,3.184,3.184,0,0,1,2.889,0A.879.879,0,0,1,111.607,276.946Z" transform="translate(-107.275 -266.012)" fill="#0d0d0d" opacity="0.3"/>
      <path id="Trazado_19352" data-name="Trazado 19352" d="M112.577,275.043a4.279,4.279,0,0,1-3.858,0,1.178,1.178,0,0,1,0-2.232,4.3,4.3,0,0,1,3.858,0A1.178,1.178,0,0,1,112.577,275.043Z" transform="translate(-107.762 -272.267)" fill="#d9d9d9" opacity="0.3"/>
      <path id="Trazado_19353" data-name="Trazado 19353" d="M110.759,274.4c-2.725-.109-2.886-1.677-2.886-1.561.024,3.286,1.311,3.937,1.287,8.185a.791.791,0,0,0,.469.647,2.473,2.473,0,0,0,2.256,0,.791.791,0,0,0,.469-.647c-.021-4.248,1.267-4.9,1.291-8.185C113.645,272.723,113.48,274.291,110.759,274.4Z" transform="translate(-107.871 -271.107)" fill="#a7a9ac"/>
      <g id="Grupo_29269" data-name="Grupo 29269" transform="translate(0.315 0.857)">
        <path id="Trazado_19354" data-name="Trazado 19354" d="M108.106,273.9a12.768,12.768,0,0,1,.664,4.32.709.709,0,0,0,.418.585,2.233,2.233,0,0,0,2.009,0,.713.713,0,0,0,.418-.585,12.857,12.857,0,0,1,.664-4.32Z" transform="translate(-107.622 -269.392)" fill="#7a4100"/>
        <path id="Trazado_19355" data-name="Trazado 19355" d="M109.763,274.979l-.1,0a2.158,2.158,0,0,0-1.065.253,1.186,1.186,0,0,0-.3.247.845.845,0,0,0,.021.246C108.579,275.027,109.763,274.979,109.763,274.979Z" transform="translate(-107.153 -266.772)" fill="#0d0d0d" opacity="0.3"/>
        <path id="Trazado_19356" data-name="Trazado 19356" d="M113.107,273.033c0-.1-.147,1.294-2.571,1.39-2.424-.1-2.571-1.493-2.571-1.39a9.888,9.888,0,0,0,.483,2.964h0a1.162,1.162,0,0,0,.6.691,3.3,3.3,0,0,0,2.975,0,1.15,1.15,0,0,0,.6-.691h0A9.876,9.876,0,0,0,113.107,273.033Z" transform="translate(-107.963 -271.494)" fill="#d1d3d4"/>
        <path id="Trazado_19357" data-name="Trazado 19357" d="M112.355,273.016a4,4,0,0,0-3.635,0,1.1,1.1,0,0,0,0,2.095,4,4,0,0,0,3.635,0A1.105,1.105,0,0,0,112.355,273.016Z" transform="translate(-107.965 -272.579)" fill="#fff"/>
      </g>
      <path id="Trazado_19358" data-name="Trazado 19358" d="M112.687,275.105a4.278,4.278,0,0,1-3.858,0,1.178,1.178,0,0,1,0-2.232,4.3,4.3,0,0,1,3.858,0A1.178,1.178,0,0,1,112.687,275.105Zm.11-2.283a4.462,4.462,0,0,0-4.077,0,1.24,1.24,0,0,0,0,2.352,4.462,4.462,0,0,0,4.077,0A1.238,1.238,0,0,0,112.8,272.822Z" transform="translate(-107.873 -272.329)" fill="#a7a9ac"/>
    </g>
    <g id="Grupo_29277" data-name="Grupo 29277" transform="translate(99.073 293.756)">
      <path id="Trazado_19359" data-name="Trazado 19359" d="M101.661,274.423a20.8,20.8,0,0,0-1.133,2.249c-.353.9.017,1.558,1.325,1.92a16.856,16.856,0,0,0,3.642.325l.154-2.982Z" transform="translate(-95.852 -253.225)" fill="#f0c6b4"/>
      <path id="Trazado_19360" data-name="Trazado 19360" d="M107.678,273.243c-2.906-1.7-4.234-.092-5.066,1.626s-.866,2.318-1.636,3.677c-1.287,2.28,3.553,5,5.142,1.927C106.531,279.669,110.054,274.64,107.678,273.243Z" transform="translate(-94.984 -257.834)" fill="#ff2456"/>
      <path id="Trazado_19361" data-name="Trazado 19361" d="M102.36,278.78s.045,1.065,0,1.5,4.132,3.8,9.013,4.227c2.951.264,4.074-1.1,4.063-1.52a5.932,5.932,0,0,1,.127-1.489l-12.036-3.317Z" transform="translate(-91.108 -244.119)" fill="#303033"/>
      <path id="Trazado_19362" data-name="Trazado 19362" d="M114.324,275.82a11.319,11.319,0,0,0,3.266,3.557s3.461,6.367,2.975,7.291a5.467,5.467,0,0,1-1.575,1.636s-1.291,5.34-1.362,5.95-1.547,1.814-4.005,1.811c-2.1,0-9.195-3.218-9.53-4.3-.25-.808-2.335-9.243-2.437-12.009s-.264-4.885,1.362-6.186a3.958,3.958,0,0,1,3.5-.678S113.674,275.632,114.324,275.82Z" transform="translate(-92.96 -257.302)" fill="#ff4d75"/>
      <path id="Trazado_19363" data-name="Trazado 19363" d="M112.052,284.925s.055-3.047.178-6.723c-.226-.055-2.348-.531-3.033-.709s-1.739-1.842-1.448-2.15,1.626,1.263,2.242.578c.37-.411-1.191-1.592-1.41-1.736s-2.492-.021-2.533-.832,3.618-1.407,4.05-1.3,3.762,4.2,3.762,4.2,3.454,13.159,3.255,13.747a2.783,2.783,0,0,1-1.825,1.386,20.825,20.825,0,0,1-3.707-1.4l-1.232-3.03Z" transform="translate(-82.171 -258.996)" fill="#f0c6b4"/>
      <path id="Trazado_19364" data-name="Trazado 19364" d="M108.263,275.848a8.66,8.66,0,0,1,2.821,2.27,7.045,7.045,0,0,0-2.964-1.749Z" transform="translate(-77.152 -249.772)" fill="#c7a496"/>
      <path id="Trazado_19365" data-name="Trazado 19365" d="M115.069,270.153s.935-.034,1.393,2.711c.911,5.409-1.328,13.2.561,14.127-.5.171-3.95,1.492-5.46.079-.414.329-.1.907,0,1.051-1.688.579-9.688.541-9.219-5.025s2.708-13.539,5.569-14.281C115.069,266.949,115.069,270.153,115.069,270.153Z" transform="translate(-91.192 -268.231)" fill="#944f00"/>
      <path id="Trazado_19366" data-name="Trazado 19366" d="M104.222,271.527a15.737,15.737,0,0,1,6.251-2.711A7.265,7.265,0,0,0,104.222,271.527Z" transform="translate(-86.595 -266.894)" fill="#7a4100"/>
      <path id="Trazado_19367" data-name="Trazado 19367" d="M106.21,275.853c-1.777,2.858-.178,4.45,1.52,5.326s2.468,1.075,4.306,2.194c2.239,1.362,5.344-3.587,2.311-5.248a13.5,13.5,0,0,1-2.865-1.958C110.468,275.237,107.658,273.511,106.21,275.853Z" transform="translate(-83.661 -252.608)" fill="#ff2456"/>
      <g id="Grupo_29271" data-name="Grupo 29271" transform="translate(0 19.145)">
        <path id="Trazado_19368" data-name="Trazado 19368" d="M99.073,325.911l1.68.973,1.683-.973V274.106H99.073Z" transform="translate(-99.073 -273.139)" fill="#3c2415"/>
        <path id="Trazado_19369" data-name="Trazado 19369" d="M99.073,325.911l1.68.973V275.075l-1.68-.969Z" transform="translate(-99.073 -273.139)" fill="#603913"/>
        <path id="Trazado_19370" data-name="Trazado 19370" d="M99.073,274.789l1.68.97,1.683-.97-1.68-.966Z" transform="translate(-99.073 -273.823)" fill="#754c29"/>
      </g>
      <g id="Grupo_29272" data-name="Grupo 29272" transform="translate(2.049 21.729)">
        <path id="Trazado_19371" data-name="Trazado 19371" d="M99.671,275v1.942l17.184,9.922.727-2.357-17.189-9.925Z" transform="translate(-99.671 -274.578)" fill="#3c2415"/>
        <path id="Trazado_19372" data-name="Trazado 19372" d="M99.671,275l17.191,9.922.72-.415-17.189-9.925Z" transform="translate(-99.671 -274.578)" fill="#603913"/>
        <path id="Trazado_19373" data-name="Trazado 19373" d="M104.691,279.834l.727-.418v-1.939l-.72.415Z" transform="translate(-87.507 -267.552)" fill="#754c29"/>
      </g>
      <g id="Grupo_29273" data-name="Grupo 29273" transform="translate(2.049 25.286)">
        <path id="Trazado_19374" data-name="Trazado 19374" d="M99.671,276.035v1.939l17.184,9.922.727-2.357-17.189-9.922Z" transform="translate(-99.671 -275.617)" fill="#3c2415"/>
        <path id="Trazado_19375" data-name="Trazado 19375" d="M99.671,276.035l17.191,9.922.72-.418-17.189-9.922Z" transform="translate(-99.671 -275.617)" fill="#603913"/>
        <path id="Trazado_19376" data-name="Trazado 19376" d="M104.691,280.873l.727-.415v-1.942l-.72.418Z" transform="translate(-87.507 -268.594)" fill="#754c29"/>
      </g>
      <g id="Grupo_29274" data-name="Grupo 29274" transform="translate(2.049 28.836)">
        <path id="Trazado_19377" data-name="Trazado 19377" d="M99.671,277.072v1.939l17.184,9.925.727-2.357-17.189-9.925Z" transform="translate(-99.671 -276.654)" fill="#3c2415"/>
        <path id="Trazado_19378" data-name="Trazado 19378" d="M99.671,277.072,116.863,287l.72-.418-17.189-9.925Z" transform="translate(-99.671 -276.654)" fill="#603913"/>
        <path id="Trazado_19379" data-name="Trazado 19379" d="M104.691,281.91l.727-.414v-1.942l-.72.418Z" transform="translate(-87.507 -269.629)" fill="#754c29"/>
      </g>
      <g id="Grupo_29275" data-name="Grupo 29275" transform="translate(2.049 32.39)">
        <path id="Trazado_19380" data-name="Trazado 19380" d="M99.671,278.113v1.939l17.184,9.922.727-2.357-17.189-9.925Z" transform="translate(-99.671 -277.692)" fill="#3c2415"/>
        <path id="Trazado_19381" data-name="Trazado 19381" d="M99.671,278.113l17.191,9.922.72-.418-17.189-9.925Z" transform="translate(-99.671 -277.692)" fill="#603913"/>
        <path id="Trazado_19382" data-name="Trazado 19382" d="M104.691,282.949l.727-.415v-1.942l-.72.418Z" transform="translate(-87.507 -270.667)" fill="#754c29"/>
      </g>
      <g id="Grupo_29276" data-name="Grupo 29276" transform="translate(17.183 29.043)">
        <path id="Trazado_19383" data-name="Trazado 19383" d="M104.092,328.8l1.68.969,1.683-.973V277h-3.363Z" transform="translate(-104.092 -276.026)" fill="#3c2415"/>
        <path id="Trazado_19384" data-name="Trazado 19384" d="M104.092,328.8l1.68.969V277.969l-1.68-.969Z" transform="translate(-104.092 -276.026)" fill="#603913"/>
        <path id="Trazado_19385" data-name="Trazado 19385" d="M104.092,277.688l1.68.969,1.683-.969-1.683-.973Z" transform="translate(-104.092 -276.715)" fill="#754c29"/>
      </g>
    </g>
    <g id="Grupo_29279" data-name="Grupo 29279" transform="translate(155.356 290.599)">
      <path id="Trazado_19386" data-name="Trazado 19386" d="M119.246,271.925a3.177,3.177,0,0,1-2.886,0,.878.878,0,0,1,0-1.664,3.177,3.177,0,0,1,2.886,0A.877.877,0,0,1,119.246,271.925Z" transform="translate(-114.914 -260.992)" fill="#0d0d0d" opacity="0.3"/>
      <path id="Trazado_19387" data-name="Trazado 19387" d="M120.22,270.022a4.236,4.236,0,0,1-3.858,0,1.173,1.173,0,0,1,0-2.225,4.236,4.236,0,0,1,3.858,0A1.174,1.174,0,0,1,120.22,270.022Z" transform="translate(-115.402 -267.25)" fill="#d9d9d9" opacity="0.3"/>
      <path id="Trazado_19388" data-name="Trazado 19388" d="M118.4,269.377c-2.725-.113-2.889-1.677-2.889-1.557.027,3.279,1.311,3.933,1.294,8.174a.792.792,0,0,0,.466.657,2.516,2.516,0,0,0,2.256,0,.8.8,0,0,0,.469-.657c-.021-4.241,1.263-4.9,1.287-8.174C121.286,267.7,121.126,269.264,118.4,269.377Z" transform="translate(-115.513 -266.085)" fill="#a7a9ac"/>
      <g id="Grupo_29278" data-name="Grupo 29278" transform="translate(0.318 0.856)">
        <path id="Trazado_19389" data-name="Trazado 19389" d="M115.749,268.873a12.992,12.992,0,0,1,.664,4.327.722.722,0,0,0,.418.582,2.255,2.255,0,0,0,2.009,0,.718.718,0,0,0,.414-.585,12.862,12.862,0,0,1,.668-4.323Z" transform="translate(-115.264 -264.372)" fill="#7a4100"/>
        <path id="Trazado_19390" data-name="Trazado 19390" d="M117.407,269.957l-.1,0a2.144,2.144,0,0,0-1.061.253,1.155,1.155,0,0,0-.3.25.781.781,0,0,0,.017.247C116.219,270.009,117.407,269.957,117.407,269.957Z" transform="translate(-114.796 -261.753)" fill="#0d0d0d" opacity="0.3"/>
        <path id="Trazado_19391" data-name="Trazado 19391" d="M120.746,268.013c0-.106-.144,1.287-2.567,1.39-2.427-.1-2.571-1.5-2.571-1.39a9.749,9.749,0,0,0,.483,2.957h0a1.164,1.164,0,0,0,.6.692,3.264,3.264,0,0,0,2.978,0,1.148,1.148,0,0,0,.6-.692h0A9.856,9.856,0,0,0,120.746,268.013Z" transform="translate(-115.605 -266.47)" fill="#d1d3d4"/>
        <path id="Trazado_19392" data-name="Trazado 19392" d="M119.995,267.992a4.024,4.024,0,0,0-3.635,0,1.11,1.11,0,0,0,0,2.1,4.025,4.025,0,0,0,3.635,0A1.108,1.108,0,0,0,119.995,267.992Z" transform="translate(-115.607 -267.558)" fill="#fff"/>
      </g>
      <path id="Trazado_19393" data-name="Trazado 19393" d="M120.333,270.08a4.236,4.236,0,0,1-3.858,0,1.173,1.173,0,0,1,0-2.225,4.236,4.236,0,0,1,3.858,0A1.174,1.174,0,0,1,120.333,270.08Zm.11-2.287a4.532,4.532,0,0,0-4.08,0,1.244,1.244,0,0,0,0,2.359,4.51,4.51,0,0,0,4.08,0A1.243,1.243,0,0,0,120.442,267.794Z" transform="translate(-115.515 -267.308)" fill="#a7a9ac"/>
    </g>
    <g id="Grupo_29285" data-name="Grupo 29285" transform="translate(137.682 299.07)">
      <g id="Grupo_29280" data-name="Grupo 29280" transform="translate(0 3.891)">
        <path id="Trazado_19394" data-name="Trazado 19394" d="M123.974,279.088a12.487,12.487,0,0,1-11.286,0c-3.115-1.8-3.115-4.714,0-6.518a12.508,12.508,0,0,1,11.286,0C127.086,274.374,127.086,277.291,123.974,279.088Z" transform="translate(-110.352 -270.18)" fill="#0d0d0d" opacity="0.3"/>
        <path id="Trazado_19395" data-name="Trazado 19395" d="M126.307,272.258l-15.955.048v.377h0c0,1.181.777,2.355,2.335,3.259a12.508,12.508,0,0,0,11.286,0c1.554-.9,2.335-2.078,2.335-3.259h0Z" transform="translate(-110.35 -267.677)" fill="#bcbec0"/>
        <path id="Trazado_19396" data-name="Trazado 19396" d="M123.974,278.787a12.507,12.507,0,0,1-11.286,0c-3.115-1.8-3.115-4.717,0-6.514a12.444,12.444,0,0,1,11.286,0C127.086,274.07,127.086,276.983,123.974,278.787Z" transform="translate(-110.352 -270.92)" fill="#fff"/>
        <path id="Trazado_19397" data-name="Trazado 19397" d="M122.944,274.809a3.04,3.04,0,0,0-1.759-2.338,9.384,9.384,0,0,0-8.5,0,3.048,3.048,0,0,0-1.759,2.338,2.93,2.93,0,0,1,1.759-2.564,9.4,9.4,0,0,1,8.5,0A2.917,2.917,0,0,1,122.944,274.809Z" transform="translate(-108.959 -270.166)" fill="#bcbec0"/>
        <path id="Trazado_19398" data-name="Trazado 19398" d="M122.942,274.651a3.052,3.052,0,0,1-1.759,2.341,9.4,9.4,0,0,1-8.5,0,2.435,2.435,0,0,1,0-4.679,9.384,9.384,0,0,1,8.5,0A3.04,3.04,0,0,1,122.942,274.651Z" transform="translate(-108.957 -270.008)" fill="#fff"/>
      </g>
      <g id="Grupo_29281" data-name="Grupo 29281" transform="translate(6.133 3.856)">
        <path id="Trazado_19399" data-name="Trazado 19399" d="M119.818,275.026c.048-.818-.462-1.243-1.075-1.174-1.972.195-4.426-2.393-4.45-2.413-1.078-1.284-3.16-.041-1.575,1.708a10.6,10.6,0,0,0,2.7,2.153C118.572,276.864,119.746,275.861,119.818,275.026Z" transform="translate(-112.143 -270.91)" fill="#cc521d"/>
        <path id="Trazado_19400" data-name="Trazado 19400" d="M112.748,271.557c.01.116,1.2-.1,1.171-.178A2.524,2.524,0,0,0,112.748,271.557Z" transform="translate(-110.677 -269.82)" fill="#ff8059"/>
        <path id="Trazado_19401" data-name="Trazado 19401" d="M112.51,271.357c.007.113,1.2-.106,1.171-.181S112.5,271.245,112.51,271.357Z" transform="translate(-111.254 -270.309)" fill="#ff8059"/>
        <path id="Trazado_19402" data-name="Trazado 19402" d="M112.994,271.822c.014.11,1.191-.2,1.157-.267S112.97,271.709,112.994,271.822Z" transform="translate(-110.081 -269.38)" fill="#ff8059"/>
        <path id="Trazado_19403" data-name="Trazado 19403" d="M113.286,271.97c.017.109,1.191-.2,1.157-.271S113.266,271.85,113.286,271.97Z" transform="translate(-109.374 -269.027)" fill="#ff8059"/>
        <path id="Trazado_19404" data-name="Trazado 19404" d="M113.608,272.059c.017.113,1.191-.192,1.157-.264A2.618,2.618,0,0,0,113.608,272.059Z" transform="translate(-108.593 -268.792)" fill="#ff8059"/>
      </g>
      <g id="Grupo_29282" data-name="Grupo 29282" transform="translate(4.136 5.209)">
        <path id="Trazado_19405" data-name="Trazado 19405" d="M119.236,275.427c.048-.822-.462-1.243-1.075-1.178-1.975.2-4.426-2.389-4.45-2.417-1.078-1.284-3.16-.038-1.578,1.715a10.67,10.67,0,0,0,2.7,2.153C117.986,277.262,119.164,276.262,119.236,275.427Z" transform="translate(-111.56 -271.305)" fill="#ad4618"/>
        <path id="Trazado_19406" data-name="Trazado 19406" d="M112.165,271.955c.007.113,1.2-.109,1.167-.178S112.155,271.839,112.165,271.955Z" transform="translate(-110.093 -270.212)" fill="#ff8059"/>
        <path id="Trazado_19407" data-name="Trazado 19407" d="M111.927,271.752c.007.116,1.2-.11,1.171-.178S111.917,271.639,111.927,271.752Z" transform="translate(-110.67 -270.701)" fill="#ff8059"/>
        <path id="Trazado_19408" data-name="Trazado 19408" d="M112.41,272.217c.017.113,1.195-.2,1.157-.267S112.393,272.1,112.41,272.217Z" transform="translate(-109.499 -269.772)" fill="#ff8059"/>
        <path id="Trazado_19409" data-name="Trazado 19409" d="M112.7,272.36c.017.113,1.195-.2,1.16-.263S112.685,272.248,112.7,272.36Z" transform="translate(-108.792 -269.419)" fill="#ff8059"/>
        <path id="Trazado_19410" data-name="Trazado 19410" d="M113.025,272.459c.017.113,1.191-.2,1.157-.264S113,272.342,113.025,272.459Z" transform="translate(-108.009 -269.182)" fill="#ff8059"/>
      </g>
      <g id="Grupo_29283" data-name="Grupo 29283" transform="translate(2.146 6.613)">
        <path id="Trazado_19411" data-name="Trazado 19411" d="M118.652,275.837c.051-.822-.462-1.239-1.071-1.177-1.975.2-4.426-2.389-4.45-2.417-1.082-1.284-3.16-.038-1.578,1.715a10.747,10.747,0,0,0,2.7,2.153C117.409,277.675,118.583,276.672,118.652,275.837Z" transform="translate(-110.979 -271.715)" fill="#cc521d"/>
        <path id="Trazado_19412" data-name="Trazado 19412" d="M111.583,272.367c.01.113,1.2-.11,1.171-.181S111.576,272.25,111.583,272.367Z" transform="translate(-109.514 -270.623)" fill="#ff8059"/>
        <path id="Trazado_19413" data-name="Trazado 19413" d="M111.346,272.162c.007.113,1.2-.11,1.171-.178S111.336,272.049,111.346,272.162Z" transform="translate(-110.088 -271.11)" fill="#ff8059"/>
        <path id="Trazado_19414" data-name="Trazado 19414" d="M111.829,272.629c.017.11,1.191-.2,1.157-.267S111.809,272.516,111.829,272.629Z" transform="translate(-108.918 -270.18)" fill="#ff8059"/>
        <path id="Trazado_19415" data-name="Trazado 19415" d="M112.122,272.77c.017.113,1.191-.2,1.154-.264S112.1,272.657,112.122,272.77Z" transform="translate(-108.208 -269.829)" fill="#ff8059"/>
        <path id="Trazado_19416" data-name="Trazado 19416" d="M112.444,272.87c.017.11,1.191-.2,1.157-.267S112.424,272.757,112.444,272.87Z" transform="translate(-107.428 -269.593)" fill="#ff8059"/>
      </g>
      <g id="Grupo_29284" data-name="Grupo 29284" transform="translate(7.512)">
        <path id="Trazado_19417" data-name="Trazado 19417" d="M113.378,275.047s.038-1.345-.007-1.445-.034-.24-.082-.311l.01-.031-.092-.051h0a.187.187,0,0,0-.144-.024v-2.458l-.216.123V273.3a1.191,1.191,0,0,0-.3.777v1.342l.092.051.038-.784a.778.778,0,0,1,.281-.668c.181-.11.332.031.332.3v.667Z" transform="translate(-112.546 -267.495)" fill="#fff"/>
        <path id="Trazado_19418" data-name="Trazado 19418" d="M113.09,273.2v-2.461l-.212.127v2.458a1.16,1.16,0,0,0-.3.777v1.339l.079-.045v-.671a.857.857,0,0,1,.332-.685c.181-.106.329.031.329.3v.668l.082-.044v-1.345C113.395,273.339,113.268,273.171,113.09,273.2Z" transform="translate(-112.481 -267.462)" fill="#bfbfbf"/>
        <path id="Trazado_19419" data-name="Trazado 19419" d="M113.375,270.331c0-.3-.181-.548-.4-.548s-.411.243-.411.548v2.639a.492.492,0,0,0,.411.544c.223,0,.4-.243.4-.544Z" transform="translate(-112.512 -269.783)" fill="#603913"/>
      </g>
    </g>
  </g>
</svg>
