<svg xmlns="http://www.w3.org/2000/svg" xmlns:xlink="http://www.w3.org/1999/xlink" width="109.839" height="99.127" viewBox="0 0 109.839 99.127">
  <defs>
    <radialGradient id="radial-gradient" cx="0.463" cy="0.286" r="0.503" gradientTransform="matrix(0.896, 0.199, -0.182, 0.98, 7.66, -4.621)" gradientUnits="objectBoundingBox">
      <stop offset="0" stop-color="#a0db07"/>
      <stop offset="1" stop-color="#296704"/>
    </radialGradient>
    <clipPath id="clip-path">
      <path id="Trazado_33832" data-name="Trazado 33832" d="M227.706,410.3l7.959-4.625a3.854,3.854,0,0,0-1.747-3.029l-7.958,4.626A3.852,3.852,0,0,1,227.706,410.3Z" fill="#c62b27"/>
    </clipPath>
  </defs>
  <g id="Grupo_31673" data-name="Grupo 31673" transform="translate(-188.6 -344.145)">
    <ellipse id="Elipse_254" data-name="Elipse 254" cx="51.086" cy="20.926" rx="51.086" ry="20.926" transform="translate(188.6 403.13) rotate(-16.433)" fill="#c5dde2" style="mix-blend-mode: multiply;isolation: isolate"/>
    <g id="Grupo_31672" data-name="Grupo 31672">
      <g id="Grupo_31440" data-name="Grupo 31440">
        <g id="Grupo_31435" data-name="Grupo 31435">
          <path id="Trazado_33658" data-name="Trazado 33658" d="M259.022,389.412a10.624,10.624,0,0,1,1.277-.093c.157,0,.419,0,.73.014s.611.046.732.062a9.031,9.031,0,0,1,1.306.255,4.786,4.786,0,0,1,1.053.423,5.886,5.886,0,0,0-2.927-.323,2.1,2.1,0,0,0-1.068-.1c-.4.054-.559.186-.365.3a2.1,2.1,0,0,0,1.068.1c.4-.054.559-.186.365-.3a5.886,5.886,0,0,1,2.927.323c.076.046.178.106.249.159a2.261,2.261,0,0,1,.262.226,1.359,1.359,0,0,1,.161.21,1.1,1.1,0,0,1,.089.208c.134.486-.79.966-2.461,1.191-2.191.294-4.838.038-5.913-.572-.36-.2-.5-.423-.439-.634a1.3,1.3,0,0,1,.109-.237,1.288,1.288,0,0,1,.2-.234,2.172,2.172,0,0,1,.254-.2,3.106,3.106,0,0,1,.47-.262,5.488,5.488,0,0,1,.842-.3A8.391,8.391,0,0,1,259.022,389.412Z" fill="#062d45"/>
        </g>
        <g id="Grupo_31437" data-name="Grupo 31437">
          <g id="Grupo_31436" data-name="Grupo 31436">
            <path id="Trazado_33659" data-name="Trazado 33659" d="M259.678,389.845l.01-34.582c0,.032.026.066.082.1a2.1,2.1,0,0,0,1.068.1c.282-.037.447-.116.447-.2l-.01,34.582c0,.082-.164.161-.447.2a2.1,2.1,0,0,1-1.068-.1C259.7,389.911,259.678,389.878,259.678,389.845Z" fill="#212428"/>
          </g>
        </g>
        <g id="Grupo_31438" data-name="Grupo 31438">
          <path id="Trazado_33660" data-name="Trazado 33660" d="M254.086,355.156l1.956-9.845c-.04.206.1.417.451.615,1.086.617,3.763.876,5.979.578,1.659-.223,2.59-.7,2.5-1.178q.959,4.926,1.919,9.852c.135.692-1.2,1.369-3.579,1.689-3.178.427-7.017.056-8.576-.829C254.232,355.753,254.028,355.451,254.086,355.156Z" fill="#fea311"/>
        </g>
        <g id="Grupo_31439" data-name="Grupo 31439">
          <path id="Trazado_33661" data-name="Trazado 33661" d="M264.517,344.847c1.086.617.171,1.359-2.045,1.657s-4.893.039-5.979-.578-.171-1.359,2.045-1.657S263.43,344.23,264.517,344.847Z" fill="#ffb700"/>
        </g>
      </g>
      <g id="Grupo_31471" data-name="Grupo 31471">
        <g id="Grupo_31443" data-name="Grupo 31443">
          <g id="Grupo_31441" data-name="Grupo 31441">
            <path id="Trazado_33662" data-name="Trazado 33662" d="M287.572,388.575c4.937,2.971,4.767,7.7-.378,10.574s-13.317,2.786-18.253-.185-4.767-7.7.378-10.574S282.636,385.6,287.572,388.575Z" fill="#c7100a"/>
            <path id="Trazado_33663" data-name="Trazado 33663" d="M278.216,399.7a16.952,16.952,0,0,1-8.48-2.062c-1.859-1.119-2.87-2.5-2.847-3.9.024-1.435,1.184-2.9,3.181-4.011a17.211,17.211,0,0,1,8.227-1.9,16.957,16.957,0,0,1,8.48,2.062c1.859,1.119,2.87,2.5,2.847,3.895-.024,1.435-1.183,2.9-3.181,4.011A17.2,17.2,0,0,1,278.216,399.7Z" fill="#4a2400"/>
          </g>
          <g id="Grupo_31442" data-name="Grupo 31442">
            <path id="Trazado_33664" data-name="Trazado 33664" d="M271.676,404.619c-.434-.268-.992-.659-1.4-.97a10.074,10.074,0,0,1-.941-.823,18.007,18.007,0,0,1-1.227-1.364,15.126,15.126,0,0,1-.988-1.459,12.076,12.076,0,0,1-.712-1.409c-.227-.549-.476-1.3-.644-1.874a12.6,12.6,0,0,1-.3-1.505c-.055-.362-.093-.848-.113-1.213.085,1.792,1.277,3.571,3.589,4.962,4.936,2.971,13.108,3.053,18.253.185,2.561-1.428,3.889-3.318,3.969-5.222a8.545,8.545,0,0,1-.082,1.021c-.036.3-.094.705-.159,1-.1.46-.261,1.069-.4,1.521a9.771,9.771,0,0,1-.341.926c-.175.411-.437.948-.645,1.344-.134.254-.336.579-.493.819a12.831,12.831,0,0,1-1.531,1.925,13.032,13.032,0,0,1-3.05,2.35c-.2.114-.475.256-.684.356-.239.114-.56.261-.807.356-.379.145-.892.315-1.279.436-.2.06-.463.122-.664.167-.178.04-.416.088-.6.119s-.419.067-.6.09c-.528.068-.958.084-1.142.091-.2.008-.622.017-1.125-.012-.664-.036-1.139-.113-1.143-.114-.179-.029-.416-.067-.594-.1s-.424-.089-.6-.134c-.2-.049-.453-.118-.644-.176s-.453-.146-.644-.215c-.221-.079-.512-.2-.727-.289s-.481-.223-.686-.321C272.262,404.962,271.923,404.772,271.676,404.619Z" fill="#ff7101"/>
          </g>
        </g>
        <g id="Grupo_31444" data-name="Grupo 31444">
          <path id="Trazado_33665" data-name="Trazado 33665" d="M291.766,388.584c-.04-.579-.676-.9-1.135-1.258a10.862,10.862,0,0,0-.025-1.467,5.946,5.946,0,0,0,.634-1.272c.085-.582-.34-.885-.816-1.049a.9.9,0,0,0-.788-1.368q-.211-.464-.463-.91a1.869,1.869,0,0,0-.632-1.006c-.141-.2-.286-.4-.439-.592a1.263,1.263,0,0,0-.738-1.475c-.788-.426-1.369-.563-1.861-1.417a3.19,3.19,0,0,0-1.119-1.312c-.582-.358-1.126.271-1.73.182-.108-.043-.217-.084-.327-.124-.012-.008-.023-.012-.035-.02a7.963,7.963,0,0,0-1.856-1.125c-.7-.244-1.289.551-2.015.261-.476-.19-.612-.95-1.174-1.006a2.278,2.278,0,0,0-1.536.332c-.3.221-.518.42-.814.663-.731.6-1.05-.141-1.621-.175-1.586-.1-2.381,1.81-3.432,2.7l-.074.056c-.487.367-1.122.3-1.423.948-.121.26-.241.5-.366.719a11.073,11.073,0,0,0-1.022,1.374c-.082.085-.168.17-.259.257a2.552,2.552,0,0,0-.9,2.216c-.1.318-.187.645-.26.976a1.176,1.176,0,0,0-1.272.842,1.5,1.5,0,0,0,.752,1.677,5.966,5.966,0,0,0-.529,1.436.205.205,0,0,0,.156.237c.586.194.716.045.575.493a3.435,3.435,0,0,0-.149,1.419.842.842,0,0,0,.881.759c-.081,1.13-.1,2.624,1.228,2.275-.028.523-.038,1.224.323,1.552.444.4.982,0,1.16.556.44,1.378,1.192,1.9,2.219,1.067.548,1.177,1.443,2.2,2.572,1.386.464.845,1.018,1.009,2.076.635.954-.337,1.592.853,2.561.787a2.974,2.974,0,0,0,1.619-.719c.093-.009.187-.017.279-.028a1.426,1.426,0,0,0,1.666-.039,4.343,4.343,0,0,1,2.426-.568,1.634,1.634,0,0,0,1.292-.61c.438-.5.018-.93,1.016-1.059a3.886,3.886,0,0,0,1.449-.632,1.014,1.014,0,0,0,.392-1.547c.039-.049.076-.1.114-.148,1.167-.5,2.458-1.523,1.9-2.318.55-.357.895-.814.6-1.443C291.324,389.471,291.8,389.143,291.766,388.584Z" fill="#3f8f0a"/>
          <path id="Trazado_33666" data-name="Trazado 33666" d="M291.766,388.584c-.04-.579-.676-.9-1.135-1.258a10.862,10.862,0,0,0-.025-1.467,5.946,5.946,0,0,0,.634-1.272c.085-.582-.34-.885-.816-1.049a.9.9,0,0,0-.788-1.368q-.211-.464-.463-.91a1.869,1.869,0,0,0-.632-1.006c-.141-.2-.286-.4-.439-.592a1.263,1.263,0,0,0-.738-1.475c-.788-.426-1.369-.563-1.861-1.417a3.19,3.19,0,0,0-1.119-1.312c-.582-.358-1.126.271-1.73.182-.108-.043-.217-.084-.327-.124-.012-.008-.023-.012-.035-.02a7.963,7.963,0,0,0-1.856-1.125c-.7-.244-1.289.551-2.015.261-.476-.19-.612-.95-1.174-1.006a2.278,2.278,0,0,0-1.536.332c-.3.221-.518.42-.814.663-.731.6-1.05-.141-1.621-.175-1.586-.1-2.381,1.81-3.432,2.7l-.074.056c-.487.367-1.122.3-1.423.948-.121.26-.241.5-.366.719a11.073,11.073,0,0,0-1.022,1.374c-.082.085-.168.17-.259.257a2.552,2.552,0,0,0-.9,2.216c-.1.318-.187.645-.26.976a1.176,1.176,0,0,0-1.272.842,1.5,1.5,0,0,0,.752,1.677,5.966,5.966,0,0,0-.529,1.436.205.205,0,0,0,.156.237c.586.194.716.045.575.493a3.435,3.435,0,0,0-.149,1.419.842.842,0,0,0,.881.759c-.081,1.13-.1,2.624,1.228,2.275-.028.523-.038,1.224.323,1.552.444.4.982,0,1.16.556.44,1.378,1.192,1.9,2.219,1.067.548,1.177,1.443,2.2,2.572,1.386.464.845,1.018,1.009,2.076.635.954-.337,1.592.853,2.561.787a2.974,2.974,0,0,0,1.619-.719c.093-.009.187-.017.279-.028a1.426,1.426,0,0,0,1.666-.039,4.343,4.343,0,0,1,2.426-.568,1.634,1.634,0,0,0,1.292-.61c.438-.5.018-.93,1.016-1.059a3.886,3.886,0,0,0,1.449-.632,1.014,1.014,0,0,0,.392-1.547c.039-.049.076-.1.114-.148,1.167-.5,2.458-1.523,1.9-2.318.55-.357.895-.814.6-1.443C291.324,389.471,291.8,389.143,291.766,388.584Z" fill="url(#radial-gradient)"/>
          <path id="Trazado_33667" data-name="Trazado 33667" d="M273.789,383.454a.075.075,0,0,0-.1-.024c-.105.068-.14.208-.2.313a1.157,1.157,0,0,1-.373.37.6.6,0,0,1-.862-.084.088.088,0,0,0-.077-.072.08.08,0,0,0-.129.062c-.3.3-.552.555-1.022.428a.615.615,0,0,1-.392-.333.778.778,0,0,1-.007-.47.425.425,0,0,0,.058-.089.057.057,0,0,0-.052-.082c-.009,0-.018,0-.027,0a.072.072,0,0,0-.068.008,3.628,3.628,0,0,0-.416.139,1.1,1.1,0,0,1-.547.024.326.326,0,0,1-.286-.273c-.014-.17.123-.3.134-.462a.057.057,0,0,0-.073-.052.463.463,0,0,0-.138.079c-.146,0-.312.088-.459.09a.512.512,0,0,1-.419-.216.526.526,0,0,1-.068-.418.416.416,0,0,1,.138-.216c.04-.015.079-.029.115-.044a.084.084,0,0,0,.038-.13c0-.005.009-.009.012-.015a.057.057,0,0,0-.053-.082.328.328,0,0,0-.236.108,1.1,1.1,0,0,1-.782.021c-.194-.1-.085-.391-.017-.535a2.037,2.037,0,0,1,1.253-1.026c.061-.016.045-.119-.018-.11a1.955,1.955,0,0,0-1.468,1.233.492.492,0,0,0,.136.587.976.976,0,0,0,.721.077c-.01.022-.02.044-.027.064a.7.7,0,0,0,.05.567.715.715,0,0,0,.507.348,1.034,1.034,0,0,0,.428-.018.622.622,0,0,0,.256.592,1.289,1.289,0,0,0,1.05.021.875.875,0,0,0,.529.812,1.08,1.08,0,0,0,1.271-.383.794.794,0,0,0,.9.161C273.33,384.325,274.019,383.808,273.789,383.454Z" fill="#4b9800" opacity="0.3" style="mix-blend-mode: multiply;isolation: isolate"/>
          <path id="Trazado_33668" data-name="Trazado 33668" d="M287.631,382.8a.423.423,0,0,0-.44-.316.072.072,0,0,0-.045.091c.044.115.157.175.225.275a.284.284,0,0,1-.03.316.684.684,0,0,1-.6.239.512.512,0,0,0-.068-.105.106.106,0,0,0-.176.086.844.844,0,0,1-.084.715.554.554,0,0,1-.286.2.509.509,0,0,1-.315-.043.221.221,0,0,0-.113-.112.075.075,0,0,0-.1.033c-.058.12.009.243.013.372a.688.688,0,0,1-.167.432c-.221.278-.514.217-.809.139-.009-.009-.012-.019-.022-.027-.043-.036-.131-.021-.137.045-.01.135.059.253.006.388a.511.511,0,0,1-.351.26.961.961,0,0,1-.9-.261.063.063,0,0,0-.1.067h0c-.081.153-.046.34-.122.5a.334.334,0,0,1-.383.18,1.216,1.216,0,0,1-.779-.777.036.036,0,0,0-.068.023,1.156,1.156,0,0,0,.889.938c.334.043.619-.317.617-.644a1.106,1.106,0,0,0,.959.161.719.719,0,0,0,.5-.629.759.759,0,0,0,.8-.141.929.929,0,0,0,.3-.537.94.94,0,0,0,.014-.169.722.722,0,0,0,.681-.173.9.9,0,0,0,.255-.74.738.738,0,0,0,.758-.317A.548.548,0,0,0,287.631,382.8Z" fill="#4b9800" opacity="0.3" style="mix-blend-mode: multiply;isolation: isolate"/>
          <path id="Trazado_33669" data-name="Trazado 33669" d="M281.022,389.046a.176.176,0,0,0-.3.131,2.562,2.562,0,0,1,0,.447.69.69,0,0,1-.245.357c-.366.282-.608-.074-.817-.345a.1.1,0,0,0-.174.078c0,.011.007.02.009.031a.167.167,0,0,0-.042.1.943.943,0,0,1-.335.72c-.265.188-.468-.14-.6-.351a.149.149,0,0,0-.278-.061,1.785,1.785,0,0,1-.5.759c-.319.227-.489-.075-.637-.319,0-.028,0-.057,0-.085a.134.134,0,0,0-.264-.027c-.07.314-.137.712-.556.586-.3-.09-.444-.39-.566-.656a.749.749,0,0,0-.009-.134c-.022-.117-.172-.079-.2.006-.108.28-.144.728-.55.511a.977.977,0,0,1-.313-.294c-.079-.11-.1-.285-.2-.369a.087.087,0,0,0-.039-.014.157.157,0,0,0-.046-.134.14.14,0,0,0-.206,0c-.089.093-.092.251-.178.353a.366.366,0,0,1-.288.108.818.818,0,0,1-.6-.325.981.981,0,0,1-.083-.228c.009-.029.02-.056.026-.085a.122.122,0,0,0-.224-.087h0a.153.153,0,0,0-.071.12c-.136.228-.3.456-.6.3s-.341-.5-.441-.794a.1.1,0,0,0-.185-.018c-.119.068-.18.224-.282.32a.454.454,0,0,1-.476.093c-.379-.153-.352-.594-.333-.926a.1.1,0,0,0-.189-.046c0,.009-.006.02-.01.029-.126.041-.2.152-.308.235a.552.552,0,0,1-.435.113c-.4-.075-.386-.6-.334-.9a.1.1,0,0,0-.186-.045l0,.007c-.005,0-.009,0-.013,0-.22.128-.4.311-.679.242-.092-.023-.214-.161-.184-.261a1,1,0,0,1,.1-.2c.1-.169.2-.33.306-.5.025-.04.183-.249.05-.27s-.287.29-.348.382a1.836,1.836,0,0,0-.312.568c-.05.247.21.459.423.494a.885.885,0,0,0,.594-.153.811.811,0,0,0,.413.826.705.705,0,0,0,.559,0,1.081,1.081,0,0,0,.285-.166.91.91,0,0,0,.509.821.709.709,0,0,0,.617-.042,1,1,0,0,0,.251-.2,1.07,1.07,0,0,0,.554.665.63.63,0,0,0,.741-.2,1.079,1.079,0,0,0,.39.384.769.769,0,0,0,1.1-.214,1.207,1.207,0,0,0,.134.269,1.026,1.026,0,0,0,.5.422.529.529,0,0,0,.674-.285,1.1,1.1,0,0,0,.676.548.611.611,0,0,0,.712-.4.6.6,0,0,0,.643.3,1.293,1.293,0,0,0,.772-.71.639.639,0,0,0,.731.317.928.928,0,0,0,.538-.725.765.765,0,0,0,.923.162C281,390.106,281.374,389.4,281.022,389.046Z" fill="#4b9800" opacity="0.3" style="mix-blend-mode: multiply;isolation: isolate"/>
          <path id="Trazado_33670" data-name="Trazado 33670" d="M289.2,390.126a.593.593,0,0,0,.611-.371.5.5,0,0,0-.166-.613.634.634,0,0,0,.428-.639.686.686,0,0,0-.247-.509c-.016-.014-.035-.027-.054-.041a.728.728,0,0,0,.52-.547.618.618,0,0,0-.573-.691.118.118,0,0,0-.07.216c.2.111.445.187.384.469-.05.227-.291.359-.492.443a.276.276,0,0,0-.273.045.065.065,0,0,0-.005.092c.09.1.25.1.363.174a.5.5,0,0,1,.185.334c.059.313-.218.5-.493.531a.059.059,0,0,0-.055.073.111.111,0,0,0,.065.162c.2.074.335.205.254.426a.535.535,0,0,1-.5.278.073.073,0,0,0-.057.04.055.055,0,0,0-.047.06,1.8,1.8,0,0,1,.034.845.663.663,0,0,1-.795.417.106.106,0,0,0-.12.1.216.216,0,0,0-.08.007.063.063,0,0,0-.046.072c.041.2.384.3.223.537-.122.177-.384.152-.582.11a.8.8,0,0,0-.167-.081c-.123-.04-.181.118-.092.192.186.155.534.347.187.532a1.612,1.612,0,0,1-.941.049c-.062-.006-.086.049-.074.1h0a.09.09,0,0,0-.091.108c.019.138.148.2.186.335.031.11-.086.188-.166.232a1.528,1.528,0,0,1-.733.128.352.352,0,0,0-.119-.1.1.1,0,0,0-.159.081c-.013.127.14.358.039.467s-.3.1-.434.1a2.585,2.585,0,0,0-.786,0,.1.1,0,0,0-.055.036c-.085.114-.043.265-.082.4a.317.317,0,0,1-.229.212,1.091,1.091,0,0,1-.732-.2c-.055-.027-.135.021-.1.088a.578.578,0,0,0,.046.064,1.38,1.38,0,0,0-.064.191.574.574,0,0,1-.211.287c-.215.144-.444-.066-.6-.2a.063.063,0,0,0-.071-.007.266.266,0,0,0-.137-.1.124.124,0,0,0-.155.079c-.052.138.031.282-.021.426a.553.553,0,0,1-.318.272c-.374.164-.641-.065-.792-.389a.1.1,0,0,0-.163-.017.142.142,0,0,0-.13.122c-.039.267-.167.522-.471.492a.85.85,0,0,1-.513-.354.138.138,0,0,0-.063-.117.15.15,0,0,0-.113-.021.147.147,0,0,0-.108.1c-.066.245-.188.454-.467.466a.733.733,0,0,1-.547-.3.128.128,0,0,0-.248-.055.43.43,0,0,1-.438.319c-.179-.013-.281-.169-.365-.314l.01-.017a.126.126,0,0,0-.21-.138,1.4,1.4,0,0,1-.694.531c-.414.124-.612-.175-.727-.522-.031-.094-.192-.1-.186.016v.011a.749.749,0,0,0-.209.152.84.84,0,0,1-.367.149.334.334,0,0,1-.3-.085c-.106-.109-.06-.292-.1-.425a.055.055,0,0,0-.09-.026l0-.011a.051.051,0,0,0-.055-.026c-.125.015-.184.147-.269.226a.572.572,0,0,1-.4.153c-.3,0-.367-.271-.368-.518a.107.107,0,0,0,.01-.018.065.065,0,0,0-.009-.065c0-.03,0-.06.007-.088.009-.087-.114-.1-.143-.026a.627.627,0,0,0-.025.084,2.214,2.214,0,0,0-.407.186.647.647,0,0,1-.384.075c-.076-.021-.038-.167-.027-.217.045-.2.2-.373.2-.574a.057.057,0,0,0-.081-.052,1.012,1.012,0,0,0-.347.622.384.384,0,0,0,.105.411.545.545,0,0,0,.472.019,2,2,0,0,0,.45-.174.6.6,0,0,0,.437.534.7.7,0,0,0,.525-.086.926.926,0,0,0,.218-.168.559.559,0,0,0,.423.494.853.853,0,0,0,.518-.079,1.012,1.012,0,0,0,.287-.186c.239.669,1.167.568,1.614.041a.615.615,0,0,0,1.084.073.792.792,0,0,0,.681.356.726.726,0,0,0,.651-.447.84.84,0,0,0,.649.367.623.623,0,0,0,.594-.446.852.852,0,0,0,.967.293.905.905,0,0,0,.561-.458.691.691,0,0,0,.063-.262.606.606,0,0,0,.67.193.657.657,0,0,0,.334-.317,1.15,1.15,0,0,0,.1-.229.837.837,0,0,0,.691.092.7.7,0,0,0,.415-.681c.065.024.132.041.181.054a1.86,1.86,0,0,0,.709.035.571.571,0,0,0,.478-.313.562.562,0,0,0,.009-.341,1.055,1.055,0,0,0,.894-.157.43.43,0,0,0,.188-.419.682.682,0,0,0-.108-.248,1.222,1.222,0,0,0,1.02-.152.363.363,0,0,0,.079-.552.681.681,0,0,0,.517-.23.432.432,0,0,0,.055-.435.572.572,0,0,0-.118-.185.8.8,0,0,0,.915-.4A.952.952,0,0,0,289.2,390.126Z" fill="#4b9800" opacity="0.3" style="mix-blend-mode: multiply;isolation: isolate"/>
          <path id="Trazado_33671" data-name="Trazado 33671" d="M280.388,378.6a.745.745,0,0,0-.4-.483,1.3,1.3,0,0,0,.466-1.67,1,1,0,0,0-.861-.5,1.637,1.637,0,0,0-.525.1,1.242,1.242,0,0,0-.682-.979c-.381-.218-1.418-.323-1.378.275a1.739,1.739,0,0,1,1.171.031c.352.19.389,1.041.4,1.142a.132.132,0,0,0,.119.106c.295.047.526-.241.826-.273a.519.519,0,0,1,.514.328c.272.557-.12,1.048-.565,1.437-.065.056-.028.131.038.166.006.018.32.236.349.4a.412.412,0,0,1-.145.347.758.758,0,0,1-.971,0c-.113-.067-.279.013-.228.132a1.646,1.646,0,0,1-.313.605.679.679,0,0,1-.579.214c-.522-.04-.735-.463-1.046-.742a.122.122,0,0,0-.12-.014h0c-.356.122-.685.736-1.089.789a1.131,1.131,0,0,1-.9-.387,1.054,1.054,0,0,1-.327-.7c0-.084.11-.267.067-.367a.1.1,0,0,0-.066-.145c-.436-.137-1.569.156-1.448-.554a.974.974,0,0,1,.461-.573,2.364,2.364,0,0,1,.819-.284c.117.02.447-.02.381-.168-.128-.291-1.09-.228-.878-.712.18-.409.849-.493,1.289-.4.066.014.1-.074.035-.094a1.4,1.4,0,0,0-1.587.4.509.509,0,0,0,.06.605,1.006,1.006,0,0,0,.254.2,1.582,1.582,0,0,0-1.2,1.065.665.665,0,0,0,.394.668,2.007,2.007,0,0,0,1.089.173.91.91,0,0,0-.057.274,1.391,1.391,0,0,0,.515.94,1.584,1.584,0,0,0,1.139.418,1.705,1.705,0,0,0,1.082-.665,1.561,1.561,0,0,0,1.126.656,1.188,1.188,0,0,0,.849-.243.963.963,0,0,0,.388-.6,1.191,1.191,0,0,0,1.257-.214A.765.765,0,0,0,280.388,378.6Z" fill="#4b9800" opacity="0.3" style="mix-blend-mode: multiply;isolation: isolate"/>
          <path id="Trazado_33672" data-name="Trazado 33672" d="M284.329,380.043c-.045-.122-.139-.328-.292-.313a.076.076,0,0,0-.065.057c-.026.084.017.128.059.2a.726.726,0,0,1,.123.319c.01.1-.024.306-.136.318a.239.239,0,0,1-.144-.046.424.424,0,0,0-.039-.08.063.063,0,0,0-.1,0c-.071-.01-.133.083-.067.134.017.013.032.027.048.041a1.073,1.073,0,0,1-.012.276.506.506,0,0,1-.243.306c-.3.183-.653-.048-.844-.276a.051.051,0,0,0-.085.057.8.8,0,0,0,.971.4.737.737,0,0,0,.412-.615.271.271,0,0,0,.078.02c.21.012.3-.1.357-.294A.744.744,0,0,0,284.329,380.043Z" fill="#4b9800" opacity="0.3" style="mix-blend-mode: multiply;isolation: isolate"/>
          <path id="Trazado_33673" data-name="Trazado 33673" d="M286.231,389.87c-.009-.13-.043-.354-.194-.382a.073.073,0,0,0-.078.037c-.048.073-.02.127,0,.206a.726.726,0,0,1,.03.34c-.018.1-.108.287-.219.267a.236.236,0,0,1-.126-.084.43.43,0,0,0-.015-.087.063.063,0,0,0-.1-.026c-.065-.029-.15.043-.1.11.012.017.023.035.035.053a1.107,1.107,0,0,1-.088.262.509.509,0,0,1-.319.227c-.338.092-.614-.228-.734-.5a.051.051,0,0,0-.1.031.8.8,0,0,0,.823.65.733.733,0,0,0,.566-.477.243.243,0,0,0,.07.041c.2.07.312-.016.424-.183A.747.747,0,0,0,286.231,389.87Z" fill="#4b9800" opacity="0.3" style="mix-blend-mode: multiply;isolation: isolate"/>
          <path id="Trazado_33674" data-name="Trazado 33674" d="M270.543,393.531c-.174.109-.292.3-.513.322-.24.019-.242-.309-.27-.464-.011-.056-.1-.1-.127-.026a.627.627,0,0,0-.031.149c-.128.081-.255.325-.393.149a.773.773,0,0,1-.076-.637c.016-.063-.086-.1-.109-.038a.808.808,0,0,0,.081.828.3.3,0,0,0,.308.08.466.466,0,0,0,.212-.14.438.438,0,0,0,.3.306.613.613,0,0,0,.688-.478A.05.05,0,0,0,270.543,393.531Z" fill="#4b9800" opacity="0.3" style="mix-blend-mode: multiply;isolation: isolate"/>
        </g>
        <g id="Grupo_31446" data-name="Grupo 31446">
          <g id="Grupo_31445" data-name="Grupo 31445">
            <path id="Trazado_33675" data-name="Trazado 33675" d="M266.924,390.693a1.141,1.141,0,0,0,.792.593c.249,0,.3-.266.108-.593a1.14,1.14,0,0,0-.793-.594C266.783,390.1,266.735,390.365,266.924,390.693Z" fill="#fff4de"/>
            <path id="Trazado_33676" data-name="Trazado 33676" d="M267.918,390.733c-.189.164-.141.471.107.687a.64.64,0,0,0,.793.093c.189-.164.141-.471-.108-.687A.639.639,0,0,0,267.918,390.733Z" fill="#fff4de"/>
            <path id="Trazado_33677" data-name="Trazado 33677" d="M268.865,391.594c-.378-.164-.685-.122-.685.093s.307.523.685.687.685.122.685-.093S269.243,391.758,268.865,391.594Z" fill="#fff4de"/>
            <path id="Trazado_33678" data-name="Trazado 33678" d="M268.818,392.414a1.141,1.141,0,0,0-.793-.593c-.248,0-.3.266-.107.593a1.14,1.14,0,0,0,.792.594C268.959,393.008,269.007,392.742,268.818,392.414Z" fill="#fff4de"/>
            <path id="Trazado_33679" data-name="Trazado 33679" d="M267.824,392.374c.189-.164.141-.471-.108-.687a.639.639,0,0,0-.792-.093c-.189.164-.141.471.107.687A.64.64,0,0,0,267.824,392.374Z" fill="#fff4de"/>
            <path id="Trazado_33680" data-name="Trazado 33680" d="M266.877,391.513c.378.164.685.122.685-.093s-.307-.523-.685-.687-.685-.122-.685.093S266.5,391.349,266.877,391.513Z" fill="#fff4de"/>
          </g>
          <path id="Trazado_33681" data-name="Trazado 33681" d="M267.368,391.554a1.041,1.041,0,0,0,.793.5c.278,0,.374-.225.213-.5a1.044,1.044,0,0,0-.794-.5C267.3,391.05,267.207,391.276,267.368,391.554Z" fill="#f8be3b"/>
        </g>
        <g id="Grupo_31448" data-name="Grupo 31448">
          <g id="Grupo_31447" data-name="Grupo 31447">
            <ellipse id="Elipse_255" data-name="Elipse 255" cx="0.627" cy="0.826" rx="0.627" ry="0.826" transform="translate(275.461 383.833)" fill="#fff4de"/>
            <path id="Trazado_33682" data-name="Trazado 33682" d="M275.362,384.716a.65.65,0,1,1-1.028.129A.747.747,0,0,1,275.362,384.716Z" fill="#fff4de"/>
            <path id="Trazado_33683" data-name="Trazado 33683" d="M274.736,385.915a.65.65,0,1,1-.4.956A.748.748,0,0,1,274.736,385.915Z" fill="#fff4de"/>
            <ellipse id="Elipse_256" data-name="Elipse 256" cx="0.627" cy="0.826" rx="0.627" ry="0.826" transform="translate(275.461 386.231)" fill="#fff4de"/>
            <path id="Trazado_33684" data-name="Trazado 33684" d="M276.812,387a.651.651,0,1,1,1.029-.129A.747.747,0,0,1,276.812,387Z" fill="#fff4de"/>
            <path id="Trazado_33685" data-name="Trazado 33685" d="M277.439,385.8a.651.651,0,1,1,.4-.956A.748.748,0,0,1,277.439,385.8Z" fill="#fff4de"/>
          </g>
          <path id="Trazado_33686" data-name="Trazado 33686" d="M276.788,385.858a.7.7,0,1,1-.7-.7A.7.7,0,0,1,276.788,385.858Z" fill="#f8be3b"/>
        </g>
        <g id="Grupo_31457" data-name="Grupo 31457">
          <g id="Grupo_31455" data-name="Grupo 31455" style="isolation: isolate">
            <g id="Grupo_31449" data-name="Grupo 31449">
              <path id="Trazado_33687" data-name="Trazado 33687" d="M276.683,394.885a.612.612,0,0,1,.254.261.441.441,0,0,1,.026.071.337.337,0,0,1-.074.313,1.132,1.132,0,0,0-.691.067.712.712,0,0,0-.1-.071,1.225,1.225,0,0,0-.33-.123.48.48,0,0,1-.04-.069c-.119-.256.055-.505.388-.557A.893.893,0,0,1,276.683,394.885Z" fill="#fff4de"/>
            </g>
            <g id="Grupo_31450" data-name="Grupo 31450">
              <path id="Trazado_33688" data-name="Trazado 33688" d="M278.073,395.081c.246.142.184.408-.138.6a1.032,1.032,0,0,1-.093.049,1.54,1.54,0,0,0-.54.043.465.465,0,0,0-.162-.145.9.9,0,0,0-.251-.093.337.337,0,0,0,.074-.313.914.914,0,0,1,.083-.054A1.154,1.154,0,0,1,278.073,395.081Z" fill="#fff4de"/>
            </g>
            <g id="Grupo_31451" data-name="Grupo 31451">
              <path id="Trazado_33689" data-name="Trazado 33689" d="M277.14,395.623a.465.465,0,0,1,.162.145c.094.145.041.314-.159.43-.016.009-.032.018-.049.026a1.123,1.123,0,0,1-.691.067.881.881,0,0,1-.251-.093.4.4,0,0,1-.2-.221c-.036-.125.028-.257.193-.353l.05-.027a1.132,1.132,0,0,1,.691-.067A.9.9,0,0,1,277.14,395.623Z" fill="#f8be3b"/>
            </g>
            <g id="Grupo_31452" data-name="Grupo 31452">
              <path id="Trazado_33690" data-name="Trazado 33690" d="M278.416,395.886c.162.094.24.214.188.328-.088.194-.518.3-.959.227-.041-.006-.081-.014-.12-.023a1.246,1.246,0,0,1-.331-.123.678.678,0,0,1-.1-.071c.017-.008.033-.017.049-.026.2-.116.253-.285.159-.43a1.54,1.54,0,0,1,.54-.043c.04,0,.082.008.123.014A1.335,1.335,0,0,1,278.416,395.886Z" fill="#fff4de"/>
            </g>
            <g id="Grupo_31453" data-name="Grupo 31453">
              <path id="Trazado_33691" data-name="Trazado 33691" d="M275.955,395.977a.4.4,0,0,0,.2.221.881.881,0,0,0,.251.093.337.337,0,0,0-.074.313c-.026.018-.053.036-.083.054a1.154,1.154,0,0,1-1.027.082c-.246-.142-.184-.408.138-.6a1.028,1.028,0,0,1,.093-.049A1.361,1.361,0,0,1,275.955,395.977Z" fill="#fff4de"/>
            </g>
            <g id="Grupo_31454" data-name="Grupo 31454">
              <path id="Trazado_33692" data-name="Trazado 33692" d="M277.525,396.418a.486.486,0,0,1,.04.07c.119.255-.055.5-.388.555a.886.886,0,0,1-.568-.107.618.618,0,0,1-.254-.261.434.434,0,0,1-.026-.071.337.337,0,0,1,.074-.313,1.123,1.123,0,0,0,.691-.067.678.678,0,0,0,.1.071A1.246,1.246,0,0,0,277.525,396.418Z" fill="#fff4de"/>
            </g>
          </g>
          <g id="Grupo_31456" data-name="Grupo 31456">
            <path id="Trazado_33693" data-name="Trazado 33693" d="M276.1,395.526a.712.712,0,0,1,.1.071l-.05.027c-.165.1-.229.228-.193.353a1.361,1.361,0,0,0-.5.119q-.062,0-.123-.015a1.313,1.313,0,0,1-.451-.146c-.162-.094-.24-.214-.188-.328.089-.193.518-.295.959-.227.042.007.082.014.12.023A1.225,1.225,0,0,1,276.1,395.526Z" fill="#fff4de"/>
          </g>
        </g>
        <g id="Grupo_31466" data-name="Grupo 31466">
          <g id="Grupo_31464" data-name="Grupo 31464" style="isolation: isolate">
            <g id="Grupo_31458" data-name="Grupo 31458">
              <path id="Trazado_33694" data-name="Trazado 33694" d="M270.828,378.016a.547.547,0,0,1,.3.063.2.2,0,0,1,.041.033.164.164,0,0,1,0,.213,1.729,1.729,0,0,0-.628.29.771.771,0,0,0-.111-.005,1.661,1.661,0,0,0-.336.046.328.328,0,0,1-.053-.027c-.171-.109-.066-.32.232-.471A1.324,1.324,0,0,1,270.828,378.016Z" fill="#fff4de"/>
            </g>
            <g id="Grupo_31459" data-name="Grupo 31459">
              <path id="Trazado_33695" data-name="Trazado 33695" d="M272.169,377.629c.262-.005.266.176.01.4-.024.021-.05.042-.076.062a2.4,2.4,0,0,0-.493.222.449.449,0,0,0-.185-.027,1.212,1.212,0,0,0-.255.035.164.164,0,0,0,0-.213c.02-.02.041-.041.065-.063A1.748,1.748,0,0,1,272.169,377.629Z" fill="#fff4de"/>
            </g>
            <g id="Grupo_31460" data-name="Grupo 31460">
              <path id="Trazado_33696" data-name="Trazado 33696" d="M271.425,378.29a.449.449,0,0,1,.185.027c.121.052.111.172-.049.313l-.04.034a1.73,1.73,0,0,1-.628.29,1.217,1.217,0,0,1-.256.035.333.333,0,0,1-.234-.059c-.063-.061-.034-.164.1-.281l.041-.034a1.729,1.729,0,0,1,.628-.29A1.212,1.212,0,0,1,271.425,378.29Z" fill="#f8be3b"/>
            </g>
            <g id="Grupo_31461" data-name="Grupo 31461">
              <path id="Trazado_33697" data-name="Trazado 33697" d="M272.675,377.983c.173,0,.273.041.251.128-.037.147-.414.363-.84.482l-.118.03a1.732,1.732,0,0,1-.337.046.753.753,0,0,1-.11-.005l.04-.034c.16-.141.17-.261.049-.313a2.4,2.4,0,0,1,.493-.222l.118-.036A1.883,1.883,0,0,1,272.675,377.983Z" fill="#fff4de"/>
            </g>
            <g id="Grupo_31462" data-name="Grupo 31462">
              <path id="Trazado_33698" data-name="Trazado 33698" d="M270.4,378.93a.333.333,0,0,0,.234.059,1.217,1.217,0,0,0,.256-.035.164.164,0,0,0,0,.213c-.019.02-.041.041-.065.062a1.747,1.747,0,0,1-.938.421c-.262.005-.266-.176-.009-.4.024-.021.049-.042.076-.063A1.994,1.994,0,0,1,270.4,378.93Z" fill="#fff4de"/>
            </g>
            <g id="Grupo_31463" data-name="Grupo 31463">
              <path id="Trazado_33699" data-name="Trazado 33699" d="M271.968,378.623a.228.228,0,0,1,.054.027c.17.108.065.32-.234.471a1.316,1.316,0,0,1-.554.142.549.549,0,0,1-.3-.063.2.2,0,0,1-.041-.033.164.164,0,0,1,0-.213,1.73,1.73,0,0,0,.628-.29.753.753,0,0,0,.11.005A1.732,1.732,0,0,0,271.968,378.623Z" fill="#fff4de"/>
            </g>
          </g>
          <g id="Grupo_31465" data-name="Grupo 31465">
            <path id="Trazado_33700" data-name="Trazado 33700" d="M270.431,378.61a.771.771,0,0,1,.111.005l-.041.034c-.132.117-.161.22-.1.281a1.994,1.994,0,0,0-.443.253c-.039.013-.079.025-.119.036a1.926,1.926,0,0,1-.453.077c-.174,0-.274-.041-.252-.128.038-.147.415-.363.842-.482l.117-.03A1.661,1.661,0,0,1,270.431,378.61Z" fill="#fff4de"/>
          </g>
        </g>
        <g id="Grupo_31468" data-name="Grupo 31468">
          <g id="Grupo_31467" data-name="Grupo 31467">
            <path id="Trazado_33701" data-name="Trazado 33701" d="M286.745,390.479a1.422,1.422,0,0,1-.989.74c-.31,0-.371-.331-.135-.74a1.425,1.425,0,0,1,.99-.741C286.921,389.738,286.981,390.07,286.745,390.479Z" fill="#fff4de"/>
            <path id="Trazado_33702" data-name="Trazado 33702" d="M285.5,390.53c.236.2.176.588-.134.856a.8.8,0,0,1-.989.117c-.236-.2-.176-.588.134-.857A.8.8,0,0,1,285.5,390.53Z" fill="#fff4de"/>
            <path id="Trazado_33703" data-name="Trazado 33703" d="M284.322,391.6c.472-.2.855-.152.855.117s-.383.652-.855.856-.855.153-.855-.116S283.85,391.809,284.322,391.6Z" fill="#fff4de"/>
            <path id="Trazado_33704" data-name="Trazado 33704" d="M284.381,392.628a1.422,1.422,0,0,1,.989-.74c.31,0,.37.331.134.74a1.424,1.424,0,0,1-.989.741C284.2,393.369,284.145,393.037,284.381,392.628Z" fill="#fff4de"/>
            <path id="Trazado_33705" data-name="Trazado 33705" d="M285.621,392.577c-.236-.2-.175-.588.135-.856a.8.8,0,0,1,.989-.117c.236.2.176.588-.134.857A.8.8,0,0,1,285.621,392.577Z" fill="#fff4de"/>
            <path id="Trazado_33706" data-name="Trazado 33706" d="M286.8,391.5c-.473.2-.855.152-.855-.117s.382-.652.855-.856.855-.153.855.116S287.276,391.3,286.8,391.5Z" fill="#fff4de"/>
          </g>
          <path id="Trazado_33707" data-name="Trazado 33707" d="M286.191,391.554a1.3,1.3,0,0,1-.991.628c-.347,0-.466-.282-.265-.628a1.3,1.3,0,0,1,.99-.629C286.272,390.925,286.391,391.207,286.191,391.554Z" fill="#f8be3b"/>
        </g>
        <g id="Grupo_31470" data-name="Grupo 31470">
          <g id="Grupo_31469" data-name="Grupo 31469">
            <path id="Trazado_33708" data-name="Trazado 33708" d="M284.133,378.369a1.423,1.423,0,0,1-.989.741c-.311,0-.371-.332-.135-.741a1.423,1.423,0,0,1,.99-.74C284.309,377.629,284.369,377.96,284.133,378.369Z" fill="#fff4de"/>
            <path id="Trazado_33709" data-name="Trazado 33709" d="M282.892,378.42c.236.2.176.588-.134.856a.8.8,0,0,1-.989.117c-.236-.205-.176-.588.134-.857A.8.8,0,0,1,282.892,378.42Z" fill="#fff4de"/>
            <path id="Trazado_33710" data-name="Trazado 33710" d="M281.71,379.494c.472-.2.855-.152.855.117s-.383.652-.855.857-.855.152-.855-.117S281.238,379.7,281.71,379.494Z" fill="#fff4de"/>
            <path id="Trazado_33711" data-name="Trazado 33711" d="M281.769,380.518a1.422,1.422,0,0,1,.989-.74c.31,0,.37.331.134.74a1.424,1.424,0,0,1-.989.741C281.593,381.259,281.533,380.927,281.769,380.518Z" fill="#fff4de"/>
            <path id="Trazado_33712" data-name="Trazado 33712" d="M283.009,380.468c-.236-.2-.176-.589.135-.857a.8.8,0,0,1,.989-.117c.236.205.176.589-.134.857A.8.8,0,0,1,283.009,380.468Z" fill="#fff4de"/>
            <path id="Trazado_33713" data-name="Trazado 33713" d="M284.192,379.393c-.473.2-.855.152-.855-.117s.382-.652.855-.856.855-.153.855.116S284.664,379.188,284.192,379.393Z" fill="#fff4de"/>
          </g>
          <path id="Trazado_33714" data-name="Trazado 33714" d="M283.579,379.444a1.3,1.3,0,0,1-.991.628c-.347,0-.466-.282-.265-.628a1.3,1.3,0,0,1,.99-.628C283.66,378.816,283.779,379.1,283.579,379.444Z" fill="#f8be3b"/>
        </g>
      </g>
      <g id="Grupo_31520" data-name="Grupo 31520">
        <g id="Grupo_31497" data-name="Grupo 31497">
          <g id="Grupo_31496" data-name="Grupo 31496">
            <g id="Grupo_31476" data-name="Grupo 31476">
              <g id="Grupo_31475" data-name="Grupo 31475" style="isolation: isolate">
                <path id="Trazado_33715" data-name="Trazado 33715" d="M241.522,372.191l5.437-3.152a1.234,1.234,0,0,1,.689-.157l-5.437,3.152a1.253,1.253,0,0,0-.689.157Z" fill="#edc7af"/>
                <g id="Grupo_31473" data-name="Grupo 31473" style="isolation: isolate">
                  <g id="Grupo_31472" data-name="Grupo 31472" style="isolation: isolate">
                    <path id="Trazado_33716" data-name="Trazado 33716" d="M267.553,380.132,248.611,369.2a2,2,0,0,0-.186-.1,2.026,2.026,0,0,0-.777-.216l-5.437,3.152a2.069,2.069,0,0,1,.778.217c.06.029.122.064.185.1l18.944,10.937a5.147,5.147,0,0,1,2.085,2.7l5.434-3.153A5.14,5.14,0,0,0,267.553,380.132Z" fill="#b9cc12"/>
                    <path id="Trazado_33717" data-name="Trazado 33717" d="M269.86,383.852a4.172,4.172,0,0,0-.223-1.014l-5.434,3.153a4.4,4.4,0,0,1,.221,1.016c.008.1.013.2.013.3l-.041,18.923a1.628,1.628,0,0,1-.68,1.489l5.436-3.152a1.629,1.629,0,0,0,.68-1.492l.041-18.921C269.873,384.053,269.87,383.954,269.86,383.852Z" fill="#a1b400"/>
                  </g>
                </g>
                <g id="Grupo_31474" data-name="Grupo 31474">
                  <path id="Trazado_33718" data-name="Trazado 33718" d="M262.118,383.287a5.129,5.129,0,0,1,2.319,4.016l-.041,18.923c0,1.472-1.055,2.068-2.334,1.33L243.119,396.62A5.121,5.121,0,0,1,240.8,392.6l.039-18.922c.006-1.472,1.054-2.071,2.333-1.331Z" fill="#5d750e"/>
                </g>
              </g>
            </g>
            <g id="Grupo_31487" data-name="Grupo 31487">
              <g id="Grupo_31486" data-name="Grupo 31486" style="isolation: isolate">
                <g id="Grupo_31478" data-name="Grupo 31478">
                  <g id="Grupo_31477" data-name="Grupo 31477" style="isolation: isolate">
                    <path id="Trazado_33719" data-name="Trazado 33719" d="M244.732,363.982l-3.287-1.912a1.877,1.877,0,0,1,1.881-.179l3.287,1.909a1.869,1.869,0,0,0-1.881.182Z" fill="#fff9f5"/>
                  </g>
                </g>
                <g id="Grupo_31480" data-name="Grupo 31480" style="isolation: isolate">
                  <g id="Grupo_31479" data-name="Grupo 31479" style="isolation: isolate">
                    <path id="Trazado_33720" data-name="Trazado 33720" d="M222.15,398.426l-3.288-1.914a1.851,1.851,0,0,1-.776-1.694l3.289,1.911a1.855,1.855,0,0,0,.775,1.7Z" fill="#7295aa"/>
                  </g>
                </g>
                <g id="Grupo_31481" data-name="Grupo 31481">
                  <path id="Trazado_33721" data-name="Trazado 33721" d="M221.375,396.729l-3.288-1.911-.045-16.27,3.286,1.911Z" fill="#82940d"/>
                </g>
                <g id="Grupo_31482" data-name="Grupo 31482">
                  <path id="Trazado_33722" data-name="Trazado 33722" d="M223.966,375.89l-3.286-1.911,20.765-11.909,3.288,1.911Z" fill="#b9cc12"/>
                </g>
                <g id="Grupo_31484" data-name="Grupo 31484">
                  <g id="Grupo_31483" data-name="Grupo 31483" style="isolation: isolate">
                    <path id="Trazado_33723" data-name="Trazado 33723" d="M221.327,380.459l-3.286-1.911a5.843,5.843,0,0,1,2.638-4.569l3.287,1.911a5.843,5.843,0,0,0-2.639,4.569Z" fill="#b9cc12"/>
                  </g>
                </g>
                <g id="Grupo_31485" data-name="Grupo 31485">
                  <path id="Trazado_33724" data-name="Trazado 33724" d="M244.732,363.982c1.455-.84,2.649-.16,2.656,1.513l.045,19.371c0,1.675-1.183.63-2.639,1.47l-20.765,11.906c-1.455.842-2.649.161-2.654-1.513l-.048-16.27a5.843,5.843,0,0,1,2.639-4.569Z" fill="#a1b400"/>
                </g>
              </g>
            </g>
            <g id="Grupo_31492" data-name="Grupo 31492">
              <g id="Grupo_31491" data-name="Grupo 31491" style="isolation: isolate">
                <g id="Grupo_31489" data-name="Grupo 31489">
                  <g id="Grupo_31488" data-name="Grupo 31488" style="isolation: isolate">
                    <path id="Trazado_33725" data-name="Trazado 33725" d="M227.07,403.2l-.017,5.568a1.638,1.638,0,0,1-.963-1.352l.016-5.568a1.634,1.634,0,0,0,.964,1.352Z" fill="#edc7af"/>
                  </g>
                </g>
                <g id="Grupo_31490" data-name="Grupo 31490">
                  <path id="Trazado_33726" data-name="Trazado 33726" d="M242.333,412.015l-.015,5.57-15.265-8.815.017-5.568Z" fill="#edc7af"/>
                </g>
                <path id="Trazado_33727" data-name="Trazado 33727" d="M263.989,401.989l-17.021,10.026a5.129,5.129,0,0,1-4.635,0l-.015,5.57a4.489,4.489,0,0,0,1.822.524l-.723,1.557,20.557-12.11a1.623,1.623,0,0,0,.949-1.332l.017-5.57A1.636,1.636,0,0,1,263.989,401.989Z" fill="#82940d"/>
              </g>
            </g>
            <g id="Grupo_31495" data-name="Grupo 31495">
              <g id="Grupo_31494" data-name="Grupo 31494" style="isolation: isolate">
                <path id="Trazado_33728" data-name="Trazado 33728" d="M264.9,400.424c0-.042.021-.086.021-.128l.017-5.565a1.633,1.633,0,0,1-.951,1.332l-2.8,1.631-12.473-7.2a5.111,5.111,0,0,0-4.637,0l-14.217,8.393-2.788-1.61a1.637,1.637,0,0,1-.964-1.352l-.016,5.567a1.135,1.135,0,0,0,.038.232,1.551,1.551,0,0,0,.942,1.478l15.263,8.813a5.129,5.129,0,0,0,4.635,0l17.021-10.026A1.5,1.5,0,0,0,264.9,400.424Z" fill="#a1b400"/>
                <g id="Grupo_31493" data-name="Grupo 31493">
                  <path id="Trazado_33729" data-name="Trazado 33729" d="M263.976,393.379c1.278.738,1.286,1.946.013,2.684L246.968,406.09a5.141,5.141,0,0,1-4.635,0l-15.263-8.813c-1.279-.738-1.287-1.947-.016-2.687l17.021-10.024a5.133,5.133,0,0,1,4.637,0Z" fill="#82940d"/>
                </g>
              </g>
            </g>
          </g>
        </g>
        <g id="Grupo_31519" data-name="Grupo 31519">
          <g id="Grupo_31518" data-name="Grupo 31518">
            <path id="Trazado_33730" data-name="Trazado 33730" d="M248.213,363.027c-.206-.479-.952-1.361-1.689-1.277-.2.022-.4.166-.327.351a1.975,1.975,0,0,1,.272,1.087c-.125.438-.493.811-.532,1.277-.076.926,1.6,1.346,2.015.544A2.343,2.343,0,0,0,248.213,363.027Z" fill="#61351c"/>
            <path id="Trazado_33731" data-name="Trazado 33731" d="M258.45,412.558s-3.244-.786-2.364,2.85c.035.137.352.952,1.623.758a2.7,2.7,0,0,1,1.881.8,5.742,5.742,0,0,0,4.386.886c.622-.091.93-.3,1.017-.57a2.225,2.225,0,0,0,.024-.731c-.272-.9-2-1.816-3.2-2.382C259.915,413.272,258.45,412.558,258.45,412.558Z" fill="#fff"/>
            <path id="Trazado_33732" data-name="Trazado 33732" d="M258.45,412s-3.342-.72-2.461,2.917c.033.139.449.886,1.72.689a2.716,2.716,0,0,1,1.881.806,5.74,5.74,0,0,0,4.386.884c2.631-.38-.337-2.821-2.157-3.683C259.915,412.715,258.45,412,258.45,412Z" fill="#b01720"/>
            <path id="Trazado_33733" data-name="Trazado 33733" d="M255.6,415.406s-3.243-.787-2.363,2.848c.032.139.35.954,1.622.76a2.685,2.685,0,0,1,1.88.8,5.751,5.751,0,0,0,4.386.886c.624-.091.933-.3,1.016-.57a2.2,2.2,0,0,0,.026-.731c-.272-.9-2-1.817-3.2-2.384C257.067,416.122,255.6,415.406,255.6,415.406Z" fill="#fff"/>
            <path id="Trazado_33734" data-name="Trazado 33734" d="M255.6,414.849s-3.344-.72-2.462,2.916c.034.14.449.884,1.721.69a2.711,2.711,0,0,1,1.88.8,5.742,5.742,0,0,0,4.386.886c2.63-.38-.336-2.821-2.157-3.683C257.067,415.563,255.6,414.849,255.6,414.849Z" fill="#b01720"/>
            <path id="Trazado_33735" data-name="Trazado 33735" d="M260.855,396.583c-.15-1.128-10.179-7.649-10.74-7.294-1.54.975-3.333,1.726-4.4,3.312.073.553,10.246,6.323,10.258,7.253.038,2.859.621,9.087,0,13.977,1.1,1.767,5.243-.193,5.245-.84C261.223,411.54,261.549,399.838,260.855,396.583Z" fill="#103357"/>
            <path id="Trazado_33736" data-name="Trazado 33736" d="M254.748,399.49c.055.13-7.75-6.885-7.53-7.129,1.472-1.635,3.106-3.121,2.6-3.233-.217-.258-.2-.453-.3-.382-3.327,2.335-11.2.923-11.232,1.2-.321,2.439-.964,5.161,1.094,7.565.914,1.067,7.937,3.424,9.561,4.186.109.051,4.224,14.891,4.24,15.225.061,1.3,5.594,1.684,5.594-1.2C258.769,415.594,254.766,399.686,254.748,399.49Z" fill="#133c66"/>
            <g id="Grupo_31515" data-name="Grupo 31515">
              <path id="Trazado_33737" data-name="Trazado 33737" d="M248.35,383.908a1.845,1.845,0,0,0,2.33,1.18h0a1.847,1.847,0,0,0,1.182-2.33l-3.516-10.729a1.849,1.849,0,0,0-2.331-1.181h0a1.85,1.85,0,0,0-1.181,2.333Z" fill="#e5bd99"/>
              <path id="Trazado_33738" data-name="Trazado 33738" d="M249.435,382.609a1.906,1.906,0,0,1,2.66.494l4.441,8.426a4.11,4.11,0,0,1,.868,2.6c-.336,1.621-1.023,1.573-1.689,1.327-.921-.341-1.592-2.863-2.331-4.016l-4.458-6.16A1.924,1.924,0,0,1,249.435,382.609Z" fill="#e5bd99"/>
              <path id="Trazado_33739" data-name="Trazado 33739" d="M245.863,374.994v-4.38c-1.006-.058-2.13-.053-2.555-.053-1.692,0-6.738,2.662-6.738,4.354s6.559,6.936,8.254,6.936c1.214,0,1.684-3.983,1.852-6.857Z" fill="#e5bd99"/>
              <path id="Trazado_33740" data-name="Trazado 33740" d="M246.384,371.5a2.639,2.639,0,0,0-.2-.738,2.109,2.109,0,0,1,2.3,1.428l1.9,5.785c-.223.1-.451.187-.672.289-.827.366-1.617.793-2.406,1.237-.245.137-.485.284-.726.426l-.955-2.912A14.09,14.09,0,0,0,246.384,371.5Z" fill="#419dc9"/>
              <path id="Trazado_33741" data-name="Trazado 33741" d="M237.881,393.761c-.467-.568-1.665-14.389-1.665-14.389.109-.88.027-4.684.559-5.6s2.547-1.8,3.61-2.256c0,0,2.749,1.891,3.752,1.527.85-.309,1.384-2.446,1.384-2.446.951,0,1.318.025,1.539.2,1.365,1.089,1.538,4.331,1.6,5.473.2,3.544.941,6.794,2.065,12.46C251.582,393.048,240.053,396.386,237.881,393.761Z" fill="#fff"/>
              <g id="Grupo_31514" data-name="Grupo 31514">
                <g id="Grupo_31498" data-name="Grupo 31498">
                  <path id="Trazado_33742" data-name="Trazado 33742" d="M246.016,377.054a1.59,1.59,0,0,0,.189-.316l.763.212a.261.261,0,0,0-.022.027,1.45,1.45,0,0,0-.191.283Z" fill="#d1dce6"/>
                </g>
                <g id="Grupo_31499" data-name="Grupo 31499">
                  <path id="Trazado_33743" data-name="Trazado 33743" d="M247.481,376.584a.453.453,0,0,1,.456.044.31.31,0,0,1,.068.084.469.469,0,0,1,.051.245,1.236,1.236,0,0,1-.313.727,1.551,1.551,0,0,1-.342.3,1.014,1.014,0,0,1-.193.1.617.617,0,0,1-.1.028.406.406,0,0,1-.356-.07c-.167-.15-.157-.462,0-.773a1.45,1.45,0,0,1,.191-.283.261.261,0,0,1,.022-.027A1.3,1.3,0,0,1,247.481,376.584Z" fill="#09455f"/>
                </g>
                <g id="Grupo_31500" data-name="Grupo 31500">
                  <path id="Trazado_33744" data-name="Trazado 33744" d="M247.208,378.075a1.014,1.014,0,0,0,.193-.1l-.194,1.065a.51.51,0,0,0-.185.04.642.642,0,0,0-.1.041l.189-1.023A.617.617,0,0,0,247.208,378.075Z" fill="#d1dce6"/>
                </g>
                <g id="Grupo_31501" data-name="Grupo 31501">
                  <path id="Trazado_33745" data-name="Trazado 33745" d="M247.022,379.085a.51.51,0,0,1,.185-.04.356.356,0,0,1,.27.081.5.5,0,0,1,.1.511,1.329,1.329,0,0,1-.131.318,1.646,1.646,0,0,1-.159.225,1.307,1.307,0,0,1-.535.394.452.452,0,0,1-.455-.044.256.256,0,0,1-.054-.065.433.433,0,0,1-.068-.238,1.212,1.212,0,0,1,.316-.751,1.35,1.35,0,0,1,.432-.35A.642.642,0,0,1,247.022,379.085Z" fill="#fcc20b"/>
                </g>
                <g id="Grupo_31502" data-name="Grupo 31502">
                  <path id="Trazado_33746" data-name="Trazado 33746" d="M241.681,377.039a.443.443,0,0,1,.455.044c.188.168.153.534-.065.879a2.177,2.177,0,0,1-.128.177c-.036.042-.073.081-.112.119a1.272,1.272,0,0,1-.424.272.446.446,0,0,1-.455-.044c-.22-.2-.134-.665.2-1.054A1.289,1.289,0,0,1,241.681,377.039Z" fill="#fa5846"/>
                </g>
                <g id="Grupo_31503" data-name="Grupo 31503">
                  <path id="Trazado_33747" data-name="Trazado 33747" d="M242.071,377.962l.7.283-.01.011a1.673,1.673,0,0,0-.2.3l-.733-.294c.039-.038.076-.077.112-.119A2.177,2.177,0,0,0,242.071,377.962Z" fill="#d1dce6"/>
                </g>
                <g id="Grupo_31504" data-name="Grupo 31504">
                  <path id="Trazado_33748" data-name="Trazado 33748" d="M244.087,382.429a.493.493,0,0,0,.264-.015l-.41.912a.472.472,0,0,0-.248-.022Z" fill="#d1dce6"/>
                </g>
                <g id="Grupo_31505" data-name="Grupo 31505">
                  <path id="Trazado_33749" data-name="Trazado 33749" d="M242.919,380.465a.693.693,0,0,1,.2-.039.355.355,0,0,1,.255.084.562.562,0,0,1,.062.623,1.293,1.293,0,0,1-.17.32,1.088,1.088,0,0,1-.086.11,1.265,1.265,0,0,1-.535.394.442.442,0,0,1-.454-.045c-.22-.194-.132-.667.194-1.053a1.373,1.373,0,0,1,.448-.358C242.863,380.487,242.891,380.476,242.919,380.465Z" fill="#fcc20b"/>
                </g>
                <g id="Grupo_31506" data-name="Grupo 31506">
                  <path id="Trazado_33750" data-name="Trazado 33750" d="M243.266,381.453a1.293,1.293,0,0,0,.17-.32l.684.19a1.484,1.484,0,0,0-.2.311Z" fill="#d1dce6"/>
                </g>
                <g id="Grupo_31507" data-name="Grupo 31507">
                  <path id="Trazado_33751" data-name="Trazado 33751" d="M244.671,380.909a.444.444,0,0,1,.455.045.347.347,0,0,1,.078.1.544.544,0,0,1,.043.257,1.246,1.246,0,0,1-.315.695,1.291,1.291,0,0,1-.536.394l-.045.013a.493.493,0,0,1-.264.015.341.341,0,0,1-.146-.073c-.159-.141-.157-.428-.02-.722a1.484,1.484,0,0,1,.2-.311l.015-.02A1.31,1.31,0,0,1,244.671,380.909Z" fill="#fa5846"/>
                </g>
                <g id="Grupo_31508" data-name="Grupo 31508">
                  <path id="Trazado_33752" data-name="Trazado 33752" d="M245.2,381.055l.966-.828a.433.433,0,0,0,.068.238l-.991.847A.544.544,0,0,0,245.2,381.055Z" fill="#d1dce6"/>
                </g>
                <g id="Grupo_31509" data-name="Grupo 31509">
                  <path id="Trazado_33753" data-name="Trazado 33753" d="M243.3,377.863a.456.456,0,0,1,.455.042.388.388,0,0,1,.1.172.639.639,0,0,1,0,.29,1.366,1.366,0,0,1-.3.6,1.631,1.631,0,0,1-.207.2,1.079,1.079,0,0,1-.306.181.068.068,0,0,1-.022.009.452.452,0,0,1-.456-.042c-.167-.148-.158-.453,0-.76a1.673,1.673,0,0,1,.2-.3l.01-.011A1.286,1.286,0,0,1,243.3,377.863Z" fill="#09455f"/>
                </g>
                <g id="Grupo_31510" data-name="Grupo 31510">
                  <path id="Trazado_33754" data-name="Trazado 33754" d="M243.856,378.077l1.011-.868a.381.381,0,0,0,.09.218l-1.1.94A.639.639,0,0,0,243.856,378.077Z" fill="#d1dce6"/>
                </g>
                <g id="Grupo_31511" data-name="Grupo 31511">
                  <path id="Trazado_33755" data-name="Trazado 33755" d="M242.833,380.5l.213-1.156a1.079,1.079,0,0,0,.306-.181l-.233,1.262a.693.693,0,0,0-.2.039C242.891,380.476,242.863,380.487,242.833,380.5Z" fill="#d1dce6"/>
                </g>
                <g id="Grupo_31512" data-name="Grupo 31512">
                  <path id="Trazado_33756" data-name="Trazado 33756" d="M245.713,376.009a.446.446,0,0,1,.455.042.605.605,0,0,1,.037.687,1.59,1.59,0,0,1-.189.316c-.013.018-.028.033-.042.051a1.292,1.292,0,0,1-.536.395.448.448,0,0,1-.454-.046.344.344,0,0,1-.027-.027.381.381,0,0,1-.09-.218,1.147,1.147,0,0,1,.311-.809A1.3,1.3,0,0,1,245.713,376.009Z" fill="#fa5846"/>
                </g>
                <g id="Grupo_31513" data-name="Grupo 31513">
                  <path id="Trazado_33757" data-name="Trazado 33757" d="M243.57,383.337a.779.779,0,0,1,.123-.033.472.472,0,0,1,.248.022.275.275,0,0,1,.084.056c.221.192.133.665-.194,1.051a1.338,1.338,0,0,1-.536.4.444.444,0,0,1-.455-.045c-.221-.2-.133-.669.194-1.056A1.3,1.3,0,0,1,243.57,383.337Z" fill="#fa5846"/>
                </g>
              </g>
              <path id="Trazado_33758" data-name="Trazado 33758" d="M243.818,372.616a2.367,2.367,0,0,1-2.629-1.191l-.034-2.216,3.269-.338.116,2.731A1.19,1.19,0,0,1,243.818,372.616Z" fill="#e5bd99"/>
            </g>
            <g id="Grupo_31516" data-name="Grupo 31516">
              <path id="Trazado_33759" data-name="Trazado 33759" d="M235.863,387.789a1.948,1.948,0,0,0,1.893,2h0a1.951,1.951,0,0,0,1.994-1.9l.3-11.94a1.95,1.95,0,0,0-1.894-2h0a1.952,1.952,0,0,0-1.993,1.9Z" fill="#e5bd99"/>
              <path id="Trazado_33760" data-name="Trazado 33760" d="M235.863,387.789a1.948,1.948,0,0,0,1.893,2h0a1.951,1.951,0,0,0,1.994-1.9l.3-11.94a1.95,1.95,0,0,0-1.894-2h0a1.952,1.952,0,0,0-1.993,1.9Z" fill="#e5bd99"/>
              <path id="Trazado_33761" data-name="Trazado 33761" d="M236.263,386.687a1.908,1.908,0,0,1,2.687-.338l7.889,7.061h0a11.521,11.521,0,0,1,1.369.574c.938.553,1.781,1.145,1.982,1.927.424,1.663-.289,2.136-1.032,2.207-1.123.11-3.709-2.746-3.709-2.746l-8.857-5.988A1.925,1.925,0,0,1,236.263,386.687Z" fill="#e5bd99"/>
            </g>
            <path id="Trazado_33762" data-name="Trazado 33762" d="M239.9,381.884l-.013.6-.138,5.4a1.945,1.945,0,0,1-1.951,1.9h-.044a1.954,1.954,0,0,1-1.893-2.008l.139-5.371.013-.645a6.243,6.243,0,0,1,1.923-.2A6.049,6.049,0,0,1,239.9,381.884Z" fill="#e5bd99"/>
            <g id="Grupo_31517" data-name="Grupo 31517">
              <path id="Trazado_33763" data-name="Trazado 33763" d="M239.547,366.659a10.66,10.66,0,0,0,1.914,3.727c1.14,1.019,3.4,1.538,4.614.634,1.616-1.208,1.589-4.116,1.448-7.072s-2.421-3.4-4.28-2.052S238.95,363.761,239.547,366.659Z" fill="#efd0b4"/>
              <path id="Trazado_33764" data-name="Trazado 33764" d="M245.789,359.373a5.87,5.87,0,0,0-4.393-.032,4.642,4.642,0,0,0-1.135.6,4.868,4.868,0,0,0-2,3.333.154.154,0,0,0,0,.031,5.246,5.246,0,0,0-.054,1.057,7.708,7.708,0,0,0,.914,3.176,4.368,4.368,0,0,0,.643.909c.054.09.109.181.164.275a5.356,5.356,0,0,0,1.611,1.718,6.429,6.429,0,0,0,3.577,1.753c1.215.012,2.056-.687,1.964-1.731a11.954,11.954,0,0,0,.263-1.653c-.024.038-.137.036-.19-.005a1.251,1.251,0,0,0-.871-.26.517.517,0,0,0-.209.091c-.415-.161-.909.352-1.162.612a1.615,1.615,0,0,0-.567,1,6.347,6.347,0,0,1-1.955-.772c-1-.525-1.448-2.495-.795-2.3a.264.264,0,0,0,.212-.024,1.643,1.643,0,0,0,.49-.891,18.428,18.428,0,0,1,.766-2.25,1.219,1.219,0,0,1,1.068-.557,10.143,10.143,0,0,1,1.9.357c.8.212,2.081.186,2.211-.9A3.431,3.431,0,0,0,245.789,359.373Zm-.608,10.932a.652.652,0,0,1,.085-.15,3.366,3.366,0,0,1,.363-.453,4.167,4.167,0,0,0,.528-.566,6.85,6.85,0,0,0,.743.323,2.24,2.24,0,0,1-.965.85,2.949,2.949,0,0,1-.773.044C245.169,370.338,245.174,370.322,245.181,370.3Z" fill="#78401f"/>
            </g>
          </g>
          <path id="Trazado_33765" data-name="Trazado 33765" d="M235.6,382.036l.463-7.229a2.166,2.166,0,1,1,4.331.111l-.14,7.218Z" fill="#419dc9"/>
        </g>
      </g>
      <path id="Trazado_33766" data-name="Trazado 33766" d="M241.688,366.748c.379.5.438,1.092.132,1.325s-.862.018-1.242-.48-.439-1.092-.132-1.325S241.308,366.25,241.688,366.748Z" fill="#efd0b4"/>
      <g id="Grupo_31525" data-name="Grupo 31525">
        <g id="Grupo_31524" data-name="Grupo 31524" style="isolation: isolate">
          <g id="Grupo_31522" data-name="Grupo 31522" style="isolation: isolate">
            <g id="Grupo_31521" data-name="Grupo 31521" style="isolation: isolate">
              <path id="Trazado_33767" data-name="Trazado 33767" d="M243.019,394.522l-18.943-10.934a1.856,1.856,0,0,0-.185-.1,2.034,2.034,0,0,0-.777-.216,1.235,1.235,0,0,0-.69.157l-5.437,3.152a1.263,1.263,0,0,1,.69-.157,2.038,2.038,0,0,1,.777.217c.061.029.124.064.186.1l18.943,10.937a5.137,5.137,0,0,1,2.085,2.7l5.435-3.155A5.143,5.143,0,0,0,243.019,394.522Z" fill="#b9cc12"/>
              <path id="Trazado_33768" data-name="Trazado 33768" d="M245.326,398.242a4.258,4.258,0,0,0-.223-1.016l-5.435,3.155a4.457,4.457,0,0,1,.222,1.016c.007.1.012.2.012.3l-.041,18.923a1.625,1.625,0,0,1-.68,1.489l5.436-3.153a1.623,1.623,0,0,0,.681-1.491l.041-18.921C245.339,398.443,245.335,398.344,245.326,398.242Z" fill="#a1b400"/>
            </g>
          </g>
          <g id="Grupo_31523" data-name="Grupo 31523">
            <path id="Trazado_33769" data-name="Trazado 33769" d="M237.583,397.677a5.126,5.126,0,0,1,2.319,4.016l-.041,18.923c0,1.471-1.054,2.068-2.334,1.33L218.584,411.01a5.127,5.127,0,0,1-2.317-4.017l.039-18.923c.005-1.469,1.054-2.07,2.334-1.33Z" fill="#5d750e"/>
          </g>
        </g>
      </g>
      <g id="Grupo_31571" data-name="Grupo 31571">
        <g id="Grupo_31541" data-name="Grupo 31541">
          <g id="Grupo_31532" data-name="Grupo 31532">
            <g id="Grupo_31531" data-name="Grupo 31531" style="isolation: isolate">
              <g id="Grupo_31528" data-name="Grupo 31528" style="isolation: isolate">
                <g id="Grupo_31527" data-name="Grupo 31527" style="isolation: isolate">
                  <g id="Grupo_31526" data-name="Grupo 31526">
                    <path id="Trazado_33770" data-name="Trazado 33770" d="M223.656,401.319l-.209-.12-1.118-.653-14.594-8.486-1.118-.653-.334-.193c-.967-.559-1.766-.1-1.766,1.008l-.032,12.347a3.893,3.893,0,0,0,1.756,3.046l.376.22,1.118.647,14.594,8.491,1.118.648.167.1c.972.559,1.771.105,1.776-1.013l.006-4.839.02-7.5A3.881,3.881,0,0,0,223.656,401.319Zm1.175,10.147,0,4.577c-.005,1.061-.758,1.489-1.677.961l-.162-.094-1.056-.611-13.8-8.036-1.055-.611-.361-.209a3.688,3.688,0,0,1-1.656-2.879l.026-11.678c0-1.055.758-1.484,1.672-.956l.319.183,1.055.616,13.8,8.031,1.056.616.2.116a3.67,3.67,0,0,1,1.667,2.879Z" fill="#3d1e0c"/>
                  </g>
                  <path id="Trazado_33771" data-name="Trazado 33771" d="M224.708,403.505l-2.106,1.254-.48.287-1.6.956a3.892,3.892,0,0,0-1.584-2.048l-15.92-9.264-1.453-.841c-.047-.026-.089-.052-.135-.073a.785.785,0,0,0-.1-.042,1.409,1.409,0,0,0-.5-.125.894.894,0,0,0-.522.12l.089-.052,2.4-1.333.527-.3,1.683-.935h.01a1.44,1.44,0,0,1,.288.047l.01.005c1.506.678,17.864,10.288,17.864,10.288A3.463,3.463,0,0,1,224.708,403.505Z" fill="#643114"/>
                  <path id="Trazado_33772" data-name="Trazado 33772" d="M224.887,404.5l-.031,12.341a1.224,1.224,0,0,1-.517,1.129l-1.7,1.013-.523.314-1.964,1.175a1.252,1.252,0,0,0,.517-1.134l.026-12.341a1.7,1.7,0,0,0-.005-.224,3.544,3.544,0,0,0-.173-.774l1.6-.956.481-.287,2.106-1.255a3.532,3.532,0,0,1,.167.774C224.882,404.346,224.887,404.424,224.887,404.5Z" fill="#643114"/>
                </g>
              </g>
              <g id="Grupo_31529" data-name="Grupo 31529">
                <path id="Trazado_33773" data-name="Trazado 33773" d="M220.7,406.995l-.021,7.5,0,4.838c-.005,1.119-.805,1.573-1.777,1.014l-.167-.1-1.118-.648-14.593-8.491-1.118-.647-.377-.22a3.892,3.892,0,0,1-1.755-3.046l.031-12.347c0-1.113.8-1.567,1.766-1.008l.335.193,1.118.653,14.593,8.485,1.118.654.209.12A3.885,3.885,0,0,1,220.7,406.995Z" fill="#3d1e0c"/>
              </g>
              <g id="Grupo_31530" data-name="Grupo 31530">
                <path id="Trazado_33774" data-name="Trazado 33774" d="M220.131,407l-.02,7.1,0,4.577c-.005,1.057-.761,1.487-1.68.958l-.158-.093-1.058-.614-13.8-8.031-1.058-.613-.356-.207a3.684,3.684,0,0,1-1.66-2.882l.029-11.679c0-1.053.756-1.482,1.671-.954l.316.183,1.058.618,13.8,8.027,1.058.617.2.114A3.674,3.674,0,0,1,220.131,407Z" fill="#552a11"/>
              </g>
            </g>
          </g>
          <g id="Grupo_31534" data-name="Grupo 31534">
            <g id="Grupo_31533" data-name="Grupo 31533">
              <path id="Trazado_33775" data-name="Trazado 33775" d="M222.67,405.36l-.031,13.621-.523.314.032-13.941a1.678,1.678,0,0,0-.026-.308v-.005a3.506,3.506,0,0,0-1.521-2.362l-17.336-10.063-.465-.272.527-.3.46.267,17.075,9.917a4.045,4.045,0,0,1,1.74,2.523v.006A2.645,2.645,0,0,1,222.67,405.36Z" fill="#3d1e0c"/>
            </g>
          </g>
          <g id="Grupo_31540" data-name="Grupo 31540">
            <g id="Grupo_31539" data-name="Grupo 31539" style="isolation: isolate">
              <g id="Grupo_31535" data-name="Grupo 31535">
                <path id="Trazado_33776" data-name="Trazado 33776" d="M210.731,395.473l.736-.428-.005,1.806-.737.428Z" fill="#2f1709"/>
              </g>
              <g id="Grupo_31536" data-name="Grupo 31536">
                <path id="Trazado_33777" data-name="Trazado 33777" d="M214.3,396.683l.736-.428-.008,2.657-.736.428Z" fill="#2f1709"/>
              </g>
              <g id="Grupo_31537" data-name="Grupo 31537">
                <path id="Trazado_33778" data-name="Trazado 33778" d="M209.992,394.194l.737-.428,4.31,2.488-.736.428Z" fill="#351a0a"/>
              </g>
              <g id="Grupo_31538" data-name="Grupo 31538">
                <path id="Trazado_33779" data-name="Trazado 33779" d="M214.3,396.683l-.008,2.657-.741-.427.005-1.806-2.829-1.633-.005,1.806-.741-.428.008-2.657Z" fill="#211006"/>
              </g>
            </g>
          </g>
        </g>
        <g id="Grupo_31549" data-name="Grupo 31549">
          <g id="Grupo_31546" data-name="Grupo 31546">
            <g id="Grupo_31545" data-name="Grupo 31545" style="isolation: isolate">
              <g id="Grupo_31542" data-name="Grupo 31542">
                <path id="Trazado_33780" data-name="Trazado 33780" d="M203.915,395.567l.3-.172-.029,15.9-.3.172Z" fill="#2a1508"/>
              </g>
              <g id="Grupo_31543" data-name="Grupo 31543">
                <path id="Trazado_33781" data-name="Trazado 33781" d="M202.664,394.845l.3-.172,1.251.722-.3.172Z" fill="#271308"/>
              </g>
              <g id="Grupo_31544" data-name="Grupo 31544">
                <path id="Trazado_33782" data-name="Trazado 33782" d="M203.915,395.567l-.029,15.9-1.251-.722.029-15.9Z" fill="#371b0b"/>
              </g>
            </g>
          </g>
          <path id="Trazado_33783" data-name="Trazado 33783" d="M203.691,396.672a.916.916,0,0,0-.416-.72c-.23-.133-.416-.026-.416.24a.919.919,0,0,0,.416.72C203.505,397.044,203.691,396.937,203.691,396.672Z" fill="#ffb700"/>
          <path id="Trazado_33784" data-name="Trazado 33784" d="M203.453,398.407a.392.392,0,0,0-.178-.307c-.1-.057-.178-.011-.178.1a.393.393,0,0,0,.178.308C203.373,398.567,203.453,398.521,203.453,398.407Z" fill="#2a1508"/>
          <path id="Trazado_33785" data-name="Trazado 33785" d="M203.453,399.911a.392.392,0,0,0-.178-.307c-.1-.057-.178-.011-.178.1a.393.393,0,0,0,.178.308C203.373,400.071,203.453,400.025,203.453,399.911Z" fill="#2a1508"/>
          <path id="Trazado_33786" data-name="Trazado 33786" d="M203.453,401.615a.392.392,0,0,0-.178-.307c-.1-.057-.178-.011-.178.1a.393.393,0,0,0,.178.308C203.373,401.775,203.453,401.729,203.453,401.615Z" fill="#2a1508"/>
          <path id="Trazado_33787" data-name="Trazado 33787" d="M203.453,403.12a.393.393,0,0,0-.178-.308c-.1-.057-.178-.011-.178.1a.393.393,0,0,0,.178.307C203.373,403.279,203.453,403.233,203.453,403.12Z" fill="#2a1508"/>
          <path id="Trazado_33788" data-name="Trazado 33788" d="M203.453,404.8a.393.393,0,0,0-.178-.307c-.1-.057-.178-.011-.178.1a.393.393,0,0,0,.178.308C203.373,404.965,203.453,404.919,203.453,404.8Z" fill="#2a1508"/>
          <path id="Trazado_33789" data-name="Trazado 33789" d="M203.453,406.309a.393.393,0,0,0-.178-.307c-.1-.057-.178-.011-.178.1a.393.393,0,0,0,.178.308C203.373,406.469,203.453,406.423,203.453,406.309Z" fill="#2a1508"/>
          <path id="Trazado_33790" data-name="Trazado 33790" d="M203.453,408.029a.393.393,0,0,0-.178-.308c-.1-.056-.178-.011-.178.1a.392.392,0,0,0,.178.307C203.373,408.188,203.453,408.142,203.453,408.029Z" fill="#2a1508"/>
          <path id="Trazado_33791" data-name="Trazado 33791" d="M203.691,409.688a.917.917,0,0,0-.416-.72c-.23-.133-.416-.026-.416.24a.916.916,0,0,0,.416.719C203.505,410.06,203.691,409.953,203.691,409.688Z" fill="#ffb700"/>
          <g id="Grupo_31547" data-name="Grupo 31547">
            <path id="Trazado_33792" data-name="Trazado 33792" d="M204.273,407.632a.653.653,0,0,1-.324-.1h0l-1.418-.819a1.294,1.294,0,0,1-.594-1.028v-1.44a.5.5,0,0,1,.8-.464l1.418.819a1.3,1.3,0,0,1,.594,1.029v1.44a.547.547,0,0,1-.248.5A.451.451,0,0,1,204.273,407.632Zm-.115-.457c.078.045.124.042.137.034s.039-.046.039-.135v-1.44a.88.88,0,0,0-.385-.667l-1.418-.819c-.078-.044-.124-.042-.137-.034s-.039.046-.039.136v1.44a.878.878,0,0,0,.385.666l1.418.819Z" fill="#8d999f"/>
          </g>
          <g id="Grupo_31548" data-name="Grupo 31548">
            <path id="Trazado_33793" data-name="Trazado 33793" d="M203.275,404.912a.21.21,0,0,1-.209-.209v-1.314a.209.209,0,0,1,.418,0V404.7A.21.21,0,0,1,203.275,404.912Z" fill="#657377"/>
          </g>
        </g>
        <g id="Grupo_31557" data-name="Grupo 31557">
          <g id="Grupo_31554" data-name="Grupo 31554">
            <g id="Grupo_31553" data-name="Grupo 31553" style="isolation: isolate">
              <g id="Grupo_31550" data-name="Grupo 31550">
                <path id="Trazado_33794" data-name="Trazado 33794" d="M217.038,403.31l.3-.172-.029,15.9-.3.172Z" fill="#2a1508"/>
              </g>
              <g id="Grupo_31551" data-name="Grupo 31551">
                <path id="Trazado_33795" data-name="Trazado 33795" d="M215.787,402.588l.3-.172,1.251.722-.3.172Z" fill="#271308"/>
              </g>
              <g id="Grupo_31552" data-name="Grupo 31552">
                <path id="Trazado_33796" data-name="Trazado 33796" d="M217.038,403.31l-.029,15.9-1.251-.722.029-15.9Z" fill="#371b0b"/>
              </g>
            </g>
          </g>
          <path id="Trazado_33797" data-name="Trazado 33797" d="M216.814,404.415a.916.916,0,0,0-.416-.72c-.23-.133-.416-.025-.416.24a.919.919,0,0,0,.416.72C216.628,404.787,216.814,404.68,216.814,404.415Z" fill="#ffb700"/>
          <path id="Trazado_33798" data-name="Trazado 33798" d="M216.576,406.15a.392.392,0,0,0-.178-.307c-.1-.057-.178-.011-.178.1a.393.393,0,0,0,.178.308C216.5,406.31,216.576,406.264,216.576,406.15Z" fill="#2a1508"/>
          <path id="Trazado_33799" data-name="Trazado 33799" d="M216.576,407.655a.393.393,0,0,0-.178-.308c-.1-.057-.178-.011-.178.1a.393.393,0,0,0,.178.307C216.5,407.814,216.576,407.768,216.576,407.655Z" fill="#2a1508"/>
          <path id="Trazado_33800" data-name="Trazado 33800" d="M216.576,409.359a.393.393,0,0,0-.178-.308c-.1-.057-.178-.011-.178.1a.392.392,0,0,0,.178.307C216.5,409.518,216.576,409.472,216.576,409.359Z" fill="#2a1508"/>
          <path id="Trazado_33801" data-name="Trazado 33801" d="M216.576,410.863a.393.393,0,0,0-.178-.308c-.1-.057-.178-.011-.178.1a.393.393,0,0,0,.178.307C216.5,411.022,216.576,410.976,216.576,410.863Z" fill="#2a1508"/>
          <path id="Trazado_33802" data-name="Trazado 33802" d="M216.576,412.549a.393.393,0,0,0-.178-.308c-.1-.057-.178-.011-.178.1a.393.393,0,0,0,.178.307C216.5,412.708,216.576,412.662,216.576,412.549Z" fill="#2a1508"/>
          <path id="Trazado_33803" data-name="Trazado 33803" d="M216.576,414.053a.393.393,0,0,0-.178-.308c-.1-.057-.178-.011-.178.1a.392.392,0,0,0,.178.307C216.5,414.212,216.576,414.166,216.576,414.053Z" fill="#2a1508"/>
          <path id="Trazado_33804" data-name="Trazado 33804" d="M216.576,415.772a.4.4,0,0,0-.178-.308c-.1-.056-.178-.01-.178.1a.392.392,0,0,0,.178.307C216.5,415.931,216.576,415.885,216.576,415.772Z" fill="#2a1508"/>
          <path id="Trazado_33805" data-name="Trazado 33805" d="M216.814,417.431a.916.916,0,0,0-.416-.72c-.23-.133-.416-.025-.416.24a.919.919,0,0,0,.416.72C216.628,417.8,216.814,417.7,216.814,417.431Z" fill="#ffb700"/>
          <g id="Grupo_31555" data-name="Grupo 31555">
            <path id="Trazado_33806" data-name="Trazado 33806" d="M217.4,415.375a.653.653,0,0,1-.324-.1h0l-1.418-.819a1.294,1.294,0,0,1-.594-1.028v-1.44a.5.5,0,0,1,.8-.463l1.418.818a1.3,1.3,0,0,1,.594,1.029v1.44a.549.549,0,0,1-.248.5A.46.46,0,0,1,217.4,415.375Zm-.115-.457c.078.045.124.042.137.034s.039-.046.039-.135v-1.44a.88.88,0,0,0-.385-.667l-1.418-.819c-.078-.044-.124-.041-.137-.034s-.039.046-.039.136v1.44a.877.877,0,0,0,.385.666l1.418.819Z" fill="#8d999f"/>
          </g>
          <g id="Grupo_31556" data-name="Grupo 31556">
            <path id="Trazado_33807" data-name="Trazado 33807" d="M216.4,412.655a.21.21,0,0,1-.209-.209v-1.313a.209.209,0,0,1,.418,0v1.313A.21.21,0,0,1,216.4,412.655Z" fill="#657377"/>
          </g>
        </g>
        <g id="Grupo_31558" data-name="Grupo 31558">
          <path id="Trazado_33808" data-name="Trazado 33808" d="M218.89,403.949l-.209-.12-1.118-.654L202.97,394.69l-1.119-.653-.334-.193c-.967-.559-1.766-.1-1.766,1.008L199.72,407.2a3.892,3.892,0,0,0,1.755,3.046l.376.219,1.119.648,14.593,8.491,1.118.648.167.1c.972.559,1.771.1,1.777-1.014l.005-4.838.021-7.5A3.885,3.885,0,0,0,218.89,403.949Zm1.176,10.147-.006,4.577c-.005,1.06-.757,1.489-1.677.961l-.162-.094-1.055-.611-13.805-8.036-1.055-.612-.361-.208a3.691,3.691,0,0,1-1.656-2.88l.026-11.677c0-1.056.758-1.484,1.672-.957l.319.183,1.055.617,13.805,8.031,1.055.616.2.115A3.672,3.672,0,0,1,220.086,407Z" fill="#3d1e0c"/>
        </g>
        <g id="Grupo_31559" data-name="Grupo 31559">
          <rect id="Rectngulo_4663" data-name="Rectngulo 4663" width="5.754" height="0.523" transform="matrix(0.865, -0.502, 0.502, 0.865, 219.995, 405.971)" fill="#3d1e0c"/>
        </g>
        <g id="Grupo_31560" data-name="Grupo 31560">
          <path id="Trazado_33809" data-name="Trazado 33809" d="M205.671,391.216l-1.883,1.1-.522.3-1.933,1.118-.773.449-.261-.449.016-.005.089-.052,2.4-1.333.528-.3,1.682-.935.12-.068Z" fill="#3d1e0c"/>
        </g>
        <g id="Grupo_31565" data-name="Grupo 31565">
          <g id="Grupo_31564" data-name="Grupo 31564" style="isolation: isolate">
            <g id="Grupo_31561" data-name="Grupo 31561">
              <path id="Trazado_33810" data-name="Trazado 33810" d="M205.044,394.334l-.873-.507.152-.3.779.457Z" fill="#ffd000"/>
            </g>
            <g id="Grupo_31562" data-name="Grupo 31562">
              <path id="Trazado_33811" data-name="Trazado 33811" d="M205.1,393.983l-.779-.457,1.232-.711a.16.16,0,0,1,.16,0l.7.41Z" fill="#ffb700"/>
            </g>
            <g id="Grupo_31563" data-name="Grupo 31563">
              <path id="Trazado_33812" data-name="Trazado 33812" d="M206.414,393.226l.093.2a.054.054,0,0,1-.013.083l-1.416.818a.038.038,0,0,1-.053-.048l.077-.3Z" fill="#fea311"/>
            </g>
          </g>
        </g>
        <g id="Grupo_31570" data-name="Grupo 31570">
          <g id="Grupo_31569" data-name="Grupo 31569" style="isolation: isolate">
            <g id="Grupo_31566" data-name="Grupo 31566">
              <path id="Trazado_33813" data-name="Trazado 33813" d="M219.313,402.51,218.44,402l.152-.3.779.457Z" fill="#ffd000"/>
            </g>
            <g id="Grupo_31567" data-name="Grupo 31567">
              <path id="Trazado_33814" data-name="Trazado 33814" d="M219.371,402.16l-.779-.457,1.232-.711a.156.156,0,0,1,.16,0l.7.409Z" fill="#ffb700"/>
            </g>
            <g id="Grupo_31568" data-name="Grupo 31568">
              <path id="Trazado_33815" data-name="Trazado 33815" d="M220.683,401.4l.093.206a.054.054,0,0,1-.013.083l-1.416.818a.038.038,0,0,1-.053-.048l.077-.3Z" fill="#fea311"/>
            </g>
          </g>
        </g>
      </g>
      <g id="Grupo_31623" data-name="Grupo 31623">
        <g id="Grupo_31573" data-name="Grupo 31573">
          <path id="Trazado_33816" data-name="Trazado 33816" d="M215.5,426.829l-1-.6a.869.869,0,0,1-.37-.8,2.411,2.411,0,0,1,.222-.955l1,.6a2.373,2.373,0,0,0-.224.947.885.885,0,0,0,.37.8Z" fill="#2b3336"/>
          <path id="Trazado_33817" data-name="Trazado 33817" d="M215.5,426.829l-1-.6a.869.869,0,0,1-.37-.8,2.766,2.766,0,0,1,1.262-2.172l1,.6a2.759,2.759,0,0,0-1.263,2.167A.885.885,0,0,0,215.5,426.829Z" fill="#2b3336"/>
          <g id="Grupo_31572" data-name="Grupo 31572">
            <path id="Trazado_33818" data-name="Trazado 33818" d="M216.389,423.858c.7-.4,1.267-.084,1.27.716a2.755,2.755,0,0,1-1.26,2.162c-.7.4-1.269.081-1.273-.711A2.759,2.759,0,0,1,216.389,423.858Z" fill="#353f43"/>
          </g>
        </g>
        <g id="Grupo_31575" data-name="Grupo 31575">
          <path id="Trazado_33819" data-name="Trazado 33819" d="M224.649,432.076l-1-.6a.869.869,0,0,1-.37-.8,2.387,2.387,0,0,1,.223-.954l1,.6a2.4,2.4,0,0,0-.224.948.887.887,0,0,0,.371.8Z" fill="#2b3336"/>
          <path id="Trazado_33820" data-name="Trazado 33820" d="M224.649,432.076l-1-.6a.869.869,0,0,1-.37-.8,2.764,2.764,0,0,1,1.263-2.171l1,.6a2.762,2.762,0,0,0-1.263,2.168A.887.887,0,0,0,224.649,432.076Z" fill="#2b3336"/>
          <g id="Grupo_31574" data-name="Grupo 31574">
            <path id="Trazado_33821" data-name="Trazado 33821" d="M225.541,429.1c.7-.4,1.267-.084,1.27.716a2.754,2.754,0,0,1-1.26,2.163c-.7.4-1.268.081-1.273-.711A2.762,2.762,0,0,1,225.541,429.1Z" fill="#353f43"/>
          </g>
        </g>
        <g id="Grupo_31577" data-name="Grupo 31577">
          <path id="Trazado_33822" data-name="Trazado 33822" d="M233.249,427.66l-1-.6a.871.871,0,0,1-.371-.8,2.409,2.409,0,0,1,.223-.955l1,.6a2.382,2.382,0,0,0-.224.948.887.887,0,0,0,.37.8Z" fill="#2b3336"/>
          <path id="Trazado_33823" data-name="Trazado 33823" d="M233.249,427.66l-1-.6a.871.871,0,0,1-.371-.8,2.767,2.767,0,0,1,1.263-2.172l1,.6a2.756,2.756,0,0,0-1.263,2.167A.887.887,0,0,0,233.249,427.66Z" fill="#2b3336"/>
          <g id="Grupo_31576" data-name="Grupo 31576">
            <path id="Trazado_33824" data-name="Trazado 33824" d="M234.142,424.689c.7-.4,1.267-.085,1.27.715a2.757,2.757,0,0,1-1.26,2.163c-.7.4-1.269.081-1.273-.711A2.756,2.756,0,0,1,234.142,424.689Z" fill="#353f43"/>
          </g>
        </g>
        <g id="Grupo_31584" data-name="Grupo 31584">
          <g id="Grupo_31583" data-name="Grupo 31583" style="isolation: isolate">
            <path id="Trazado_33825" data-name="Trazado 33825" d="M222.369,395.983l-7.32,4.257-.638.368a1.447,1.447,0,0,0-.943-.226.277.277,0,0,0-.089.015.881.881,0,0,0-.22.088l.24-.137.776-.457h0l.132-.078,6.805-3.953a.9.9,0,0,1,.221-.088A1.4,1.4,0,0,1,222.369,395.983Z" fill="#841d1a"/>
            <path id="Trazado_33826" data-name="Trazado 33826" d="M235.664,405.68l-.054,19.884a1.237,1.237,0,0,1-.51,1.124l-7.016,4.075-.53.31-.418.24a1.216,1.216,0,0,0,.516-1.114v-.01l.054-19.884.535-.31Z" fill="#731314"/>
            <path id="Trazado_33827" data-name="Trazado 33827" d="M227.709,425.916h-.047l-.012,4.272a1.23,1.23,0,0,1-.511,1.125l.57-.332Z" fill="#fff"/>
            <g id="Grupo_31578" data-name="Grupo 31578">
              <path id="Trazado_33828" data-name="Trazado 33828" d="M225.96,407.277l7.959-4.625-11.551-6.669-7.959,4.625Z" fill="#c62b27"/>
            </g>
            <g id="Grupo_31581" data-name="Grupo 31581">
              <path id="Trazado_33829" data-name="Trazado 33829" d="M227.706,410.3l7.959-4.625a3.854,3.854,0,0,0-1.747-3.029l-7.958,4.626A3.852,3.852,0,0,1,227.706,410.3Z" fill="#c62b27"/>
              <g id="Grupo_31580" data-name="Grupo 31580" clip-path="url(#clip-path)">
                <g id="Grupo_31579" data-name="Grupo 31579" style="isolation: isolate">
                  <path id="Trazado_33830" data-name="Trazado 33830" d="M227.706,410.3l7.959-4.625a3.523,3.523,0,0,0-.464-1.642l-7.959,4.625a3.5,3.5,0,0,1,.464,1.642Z" fill="#a62421"/>
                  <path id="Trazado_33831" data-name="Trazado 33831" d="M227.242,408.663l7.959-4.625a3.626,3.626,0,0,0-1.283-1.387l-7.958,4.626a3.613,3.613,0,0,1,1.282,1.386Z" fill="#c62b27"/>
                </g>
              </g>
            </g>
            <g id="Grupo_31582" data-name="Grupo 31582">
              <path id="Trazado_33833" data-name="Trazado 33833" d="M214.408,400.608c-.968-.56-1.758-.11-1.761,1l-.056,19.883a3.852,3.852,0,0,0,1.75,3.027l11.551,6.669c.968.559,1.755.111,1.758-1l.056-19.883a3.852,3.852,0,0,0-1.746-3.028Z" fill="#871618"/>
            </g>
          </g>
        </g>
        <g id="Grupo_31586" data-name="Grupo 31586">
          <g id="Grupo_31585" data-name="Grupo 31585">
            <path id="Trazado_33834" data-name="Trazado 33834" d="M228.2,429.506a3.37,3.37,0,0,1-.113,1.257l-.53.31.1-.624v-.26l-.044-20.051a3.676,3.676,0,0,0-1.635-2.838l-4.718-2.74.073-.687,4.964,2.872a4.3,4.3,0,0,1,1.949,3.25,1.462,1.462,0,0,1,.005.148Z" fill="#fff"/>
          </g>
        </g>
        <g id="Grupo_31588" data-name="Grupo 31588">
          <g id="Grupo_31587" data-name="Grupo 31587">
            <path id="Trazado_33835" data-name="Trazado 33835" d="M226.562,406.927l-.6.348-11.547-6.667a1.447,1.447,0,0,0-.943-.226.277.277,0,0,0-.089.015.881.881,0,0,0-.22.088l.24-.137.776-.457h0a3.277,3.277,0,0,1,.869.349l.451.26,10.792,6.245A2.413,2.413,0,0,1,226.562,406.927Z" fill="#fff"/>
          </g>
        </g>
        <g id="Grupo_31594" data-name="Grupo 31594">
          <path id="Trazado_33836" data-name="Trazado 33836" d="M224.353,398.75a.344.344,0,0,1-.344-.344v-10.22a.343.343,0,0,1,.515-.3l4.04,2.332a.343.343,0,1,1-.343.6l-3.525-2.035v9.625A.344.344,0,0,1,224.353,398.75Z" fill="#8d999f"/>
          <g id="Grupo_31593" data-name="Grupo 31593">
            <g id="Grupo_31592" data-name="Grupo 31592" style="isolation: isolate">
              <g id="Grupo_31589" data-name="Grupo 31589">
                <path id="Trazado_33837" data-name="Trazado 33837" d="M227.976,391.227l.692-.4,0-1.088-.692.4Z" fill="#121315"/>
              </g>
              <g id="Grupo_31590" data-name="Grupo 31590">
                <path id="Trazado_33838" data-name="Trazado 33838" d="M227.979,390.139l.692-.4-3.088-1.783-.692.4Z" fill="#1c1f22"/>
              </g>
              <g id="Grupo_31591" data-name="Grupo 31591">
                <path id="Trazado_33839" data-name="Trazado 33839" d="M224.892,388.357l0,1.088,3.087,1.783,0-1.088Z" fill="#1a1c1f"/>
              </g>
            </g>
          </g>
          <path id="Trazado_33840" data-name="Trazado 33840" d="M229.5,401.719a.343.343,0,0,1-.344-.343V391.354l-.932-.538a.344.344,0,1,1,.345-.6l1.1.637a.343.343,0,0,1,.171.3v10.22A.342.342,0,0,1,229.5,401.719Z" fill="#8d999f"/>
        </g>
        <g id="Grupo_31599" data-name="Grupo 31599">
          <g id="Grupo_31598" data-name="Grupo 31598" style="isolation: isolate">
            <g id="Grupo_31595" data-name="Grupo 31595">
              <path id="Trazado_33841" data-name="Trazado 33841" d="M232.131,425.264l-.449-.261-.036-12.7.449.261Z" fill="#0f1112"/>
            </g>
            <g id="Grupo_31596" data-name="Grupo 31596">
              <path id="Trazado_33842" data-name="Trazado 33842" d="M232.095,412.559l-.449-.261.985-.569.449.261Z" fill="#181b1d"/>
            </g>
            <g id="Grupo_31597" data-name="Grupo 31597">
              <path id="Trazado_33843" data-name="Trazado 33843" d="M233.08,411.99l.036,12.7-.985.569-.036-12.7Z" fill="#16181a"/>
            </g>
          </g>
        </g>
        <g id="Grupo_31610" data-name="Grupo 31610">
          <g id="Grupo_31609" data-name="Grupo 31609" style="isolation: isolate">
            <g id="Grupo_31601" data-name="Grupo 31601" style="isolation: isolate">
              <g id="Grupo_31600" data-name="Grupo 31600">
                <path id="Trazado_33844" data-name="Trazado 33844" d="M213.758,402.046l.346-.2a.421.421,0,0,1,.425.041l-.346.2a.421.421,0,0,0-.425-.041Z" fill="#731314"/>
              </g>
            </g>
            <g id="Grupo_31603" data-name="Grupo 31603" style="isolation: isolate">
              <g id="Grupo_31602" data-name="Grupo 31602">
                <path id="Trazado_33845" data-name="Trazado 33845" d="M225.792,413.819l.346-.2a.417.417,0,0,1-.175.383l-.346.2a.417.417,0,0,0,.175-.383Z" fill="#731314"/>
              </g>
            </g>
            <g id="Grupo_31604" data-name="Grupo 31604">
              <path id="Trazado_33846" data-name="Trazado 33846" d="M225.8,409.486l.346-.2-.012,4.333-.346.2Z" fill="#731314"/>
            </g>
            <g id="Grupo_31605" data-name="Grupo 31605">
              <path id="Trazado_33847" data-name="Trazado 33847" d="M214.183,402.087l.346-.2,11.025,6.365-.346.2Z" fill="#731314"/>
            </g>
            <g id="Grupo_31607" data-name="Grupo 31607" style="isolation: isolate">
              <g id="Grupo_31606" data-name="Grupo 31606">
                <path id="Trazado_33848" data-name="Trazado 33848" d="M225.208,408.452l.346-.2a1.32,1.32,0,0,1,.6,1.033l-.346.2a1.32,1.32,0,0,0-.6-1.034Z" fill="#731314"/>
              </g>
            </g>
            <g id="Grupo_31608" data-name="Grupo 31608">
              <path id="Trazado_33849" data-name="Trazado 33849" d="M225.208,408.452a1.32,1.32,0,0,1,.6,1.034l-.012,4.333c0,.378-.271.532-.6.342L214.167,407.8a1.321,1.321,0,0,1-.6-1.034l.012-4.333c0-.378.272-.532.6-.342Z" fill="#bb2925"/>
            </g>
          </g>
        </g>
        <g id="Grupo_31622" data-name="Grupo 31622">
          <g id="Grupo_31621" data-name="Grupo 31621" style="isolation: isolate">
            <g id="Grupo_31612" data-name="Grupo 31612" style="isolation: isolate">
              <g id="Grupo_31611" data-name="Grupo 31611">
                <path id="Trazado_33850" data-name="Trazado 33850" d="M225.78,429.6l.346-.2a.419.419,0,0,1-.176.383l-.346.2a.419.419,0,0,0,.176-.383Z" fill="#731314"/>
              </g>
            </g>
            <g id="Grupo_31614" data-name="Grupo 31614" style="isolation: isolate">
              <g id="Grupo_31613" data-name="Grupo 31613">
                <path id="Trazado_33851" data-name="Trazado 33851" d="M213.77,408.991l.346-.2a.422.422,0,0,1,.426.04l-.346.2a.422.422,0,0,0-.426-.04Z" fill="#731314"/>
              </g>
            </g>
            <g id="Grupo_31615" data-name="Grupo 31615">
              <path id="Trazado_33852" data-name="Trazado 33852" d="M225.817,416.43l.346-.2-.037,13.165-.346.2Z" fill="#731314"/>
            </g>
            <g id="Grupo_31616" data-name="Grupo 31616">
              <path id="Trazado_33853" data-name="Trazado 33853" d="M214.2,409.031l.346-.2,11.025,6.365-.346.2Z" fill="#731314"/>
            </g>
            <g id="Grupo_31618" data-name="Grupo 31618" style="isolation: isolate">
              <g id="Grupo_31617" data-name="Grupo 31617">
                <path id="Trazado_33854" data-name="Trazado 33854" d="M225.22,415.4l.346-.2a1.322,1.322,0,0,1,.6,1.034l-.346.2a1.322,1.322,0,0,0-.6-1.034Z" fill="#731314"/>
              </g>
            </g>
            <g id="Grupo_31619" data-name="Grupo 31619">
              <path id="Trazado_33855" data-name="Trazado 33855" d="M225.22,415.4a1.322,1.322,0,0,1,.6,1.034L225.78,429.6c0,.378-.272.532-.6.342l-11.025-6.365a1.32,1.32,0,0,1-.6-1.033l.037-13.165c0-.378.271-.533.6-.343Z" fill="#bb2925"/>
            </g>
            <g id="Grupo_31620" data-name="Grupo 31620">
              <path id="Trazado_33856" data-name="Trazado 33856" d="M224.5,416.337a1.152,1.152,0,0,1,.52.9l-.01,3.779c0,.33-.237.465-.524.3l-9.616-5.552a1.149,1.149,0,0,1-.52-.9l.011-3.779c0-.33.237-.465.524-.3Z" fill="#731314"/>
            </g>
          </g>
        </g>
      </g>
      <g id="Grupo_31671" data-name="Grupo 31671">
        <g id="Grupo_31646" data-name="Grupo 31646">
          <g id="Grupo_31625" data-name="Grupo 31625">
            <path id="Trazado_33857" data-name="Trazado 33857" d="M195.649,420.982l-.9-.535a.776.776,0,0,1-.331-.713,2.152,2.152,0,0,1,.2-.854l.9.536a2.131,2.131,0,0,0-.2.847.8.8,0,0,0,.331.719Z" fill="#c3ced1"/>
            <path id="Trazado_33858" data-name="Trazado 33858" d="M195.649,420.982l-.9-.535a.776.776,0,0,1-.331-.713,2.472,2.472,0,0,1,1.129-1.942l.9.533a2.469,2.469,0,0,0-1.129,1.938A.8.8,0,0,0,195.649,420.982Z" fill="#c3ced1"/>
            <g id="Grupo_31624" data-name="Grupo 31624">
              <path id="Trazado_33859" data-name="Trazado 33859" d="M196.447,418.325c.627-.357,1.133-.075,1.136.64a2.464,2.464,0,0,1-1.126,1.934c-.626.361-1.135.072-1.139-.636A2.469,2.469,0,0,1,196.447,418.325Z" fill="#fff"/>
            </g>
          </g>
          <g id="Grupo_31627" data-name="Grupo 31627">
            <path id="Trazado_33860" data-name="Trazado 33860" d="M203.833,425.673l-.9-.535a.778.778,0,0,1-.331-.714,2.151,2.151,0,0,1,.2-.853l.9.536a2.131,2.131,0,0,0-.2.847.793.793,0,0,0,.332.719Z" fill="#c3ced1"/>
            <path id="Trazado_33861" data-name="Trazado 33861" d="M203.833,425.673l-.9-.535a.778.778,0,0,1-.331-.714,2.475,2.475,0,0,1,1.129-1.941l.9.533a2.468,2.468,0,0,0-1.13,1.938A.793.793,0,0,0,203.833,425.673Z" fill="#c3ced1"/>
            <g id="Grupo_31626" data-name="Grupo 31626">
              <path id="Trazado_33862" data-name="Trazado 33862" d="M204.631,423.016c.626-.357,1.132-.075,1.135.64a2.464,2.464,0,0,1-1.126,1.934c-.626.361-1.135.072-1.139-.636A2.468,2.468,0,0,1,204.631,423.016Z" fill="#fff"/>
            </g>
          </g>
          <g id="Grupo_31629" data-name="Grupo 31629">
            <path id="Trazado_33863" data-name="Trazado 33863" d="M209.622,422.54l-.9-.534a.776.776,0,0,1-.331-.714,2.135,2.135,0,0,1,.2-.853l.9.536a2.125,2.125,0,0,0-.2.847.791.791,0,0,0,.331.718Z" fill="#c3ced1"/>
            <path id="Trazado_33864" data-name="Trazado 33864" d="M209.622,422.54l-.9-.534a.776.776,0,0,1-.331-.714,2.469,2.469,0,0,1,1.129-1.941l.9.533a2.467,2.467,0,0,0-1.129,1.938A.791.791,0,0,0,209.622,422.54Z" fill="#c3ced1"/>
            <g id="Grupo_31628" data-name="Grupo 31628">
              <path id="Trazado_33865" data-name="Trazado 33865" d="M210.42,419.884c.627-.357,1.133-.075,1.136.64a2.463,2.463,0,0,1-1.127,1.933c-.625.362-1.134.073-1.138-.635A2.467,2.467,0,0,1,210.42,419.884Z" fill="#fff"/>
            </g>
          </g>
          <g id="Grupo_31639" data-name="Grupo 31639">
            <g id="Grupo_31638" data-name="Grupo 31638" style="isolation: isolate">
              <g id="Grupo_31631" data-name="Grupo 31631" style="isolation: isolate">
                <g id="Grupo_31630" data-name="Grupo 31630">
                  <path id="Trazado_33866" data-name="Trazado 33866" d="M206.213,423.487l5.537-3.217a1.073,1.073,0,0,1-.447.983l-5.537,3.217a1.073,1.073,0,0,0,.447-.983Z" fill="#ffd000"/>
                </g>
              </g>
              <g id="Grupo_31632" data-name="Grupo 31632">
                <path id="Trazado_33867" data-name="Trazado 33867" d="M206.239,414.555l5.536-3.217-.025,8.933-5.536,3.217Z" fill="#ffd000"/>
              </g>
              <g id="Grupo_31634" data-name="Grupo 31634" style="isolation: isolate">
                <g id="Grupo_31633" data-name="Grupo 31633">
                  <path id="Trazado_33868" data-name="Trazado 33868" d="M195.886,403.672l5.536-3.218c1.1-.642,2.632-.556,4.311.413l-5.537,3.218c-1.678-.969-3.206-1.055-4.31-.413Z" fill="#ffd000"/>
                </g>
              </g>
              <g id="Grupo_31636" data-name="Grupo 31636" style="isolation: isolate">
                <g id="Grupo_31635" data-name="Grupo 31635">
                  <path id="Trazado_33869" data-name="Trazado 33869" d="M200.2,404.085l5.537-3.218a13.375,13.375,0,0,1,6.042,10.47l-5.536,3.218a13.374,13.374,0,0,0-6.043-10.47Z" fill="#ffd000"/>
                </g>
              </g>
              <g id="Grupo_31637" data-name="Grupo 31637">
                <path id="Trazado_33870" data-name="Trazado 33870" d="M200.2,404.085a13.374,13.374,0,0,1,6.043,10.47l-.026,8.932c0,.973-.691,1.365-1.537.877l-9.062-5.232a3.367,3.367,0,0,1-1.528-2.647l.025-8.933C194.122,403.72,196.861,402.159,200.2,404.085Z" fill="#ffb700"/>
              </g>
            </g>
          </g>
          <g id="Grupo_31645" data-name="Grupo 31645">
            <path id="Trazado_33871" data-name="Trazado 33871" d="M202.869,401.268a.344.344,0,0,1-.344-.344v-5.712a.344.344,0,0,1,.516-.3l2.973,1.716a.344.344,0,0,1-.344.6l-2.457-1.419v5.117A.344.344,0,0,1,202.869,401.268Z" fill="#8d999f"/>
            <g id="Grupo_31644" data-name="Grupo 31644">
              <g id="Grupo_31643" data-name="Grupo 31643" style="isolation: isolate">
                <g id="Grupo_31640" data-name="Grupo 31640">
                  <path id="Trazado_33872" data-name="Trazado 33872" d="M205.536,397.45l.509-.3,0-.8-.509.3Z" fill="#121315"/>
                </g>
                <g id="Grupo_31641" data-name="Grupo 31641">
                  <path id="Trazado_33873" data-name="Trazado 33873" d="M205.538,396.65l.509-.3-2.272-1.312-.509.3Z" fill="#1c1f22"/>
                </g>
                <g id="Grupo_31642" data-name="Grupo 31642">
                  <path id="Trazado_33874" data-name="Trazado 33874" d="M203.266,395.337l0,.8,2.273,1.312,0-.8Z" fill="#1a1c1f"/>
                </g>
              </g>
            </g>
            <path id="Trazado_33875" data-name="Trazado 33875" d="M206.654,403.453a.344.344,0,0,1-.344-.344V397.6l-.64-.37a.344.344,0,0,1,.344-.6l.812.469a.346.346,0,0,1,.172.3v5.712A.344.344,0,0,1,206.654,403.453Z" fill="#8d999f"/>
          </g>
        </g>
        <g id="Grupo_31654" data-name="Grupo 31654">
          <g id="Grupo_31653" data-name="Grupo 31653" style="isolation: isolate">
            <g id="Grupo_31647" data-name="Grupo 31647">
              <path id="Trazado_33876" data-name="Trazado 33876" d="M203.392,412.712l.41-.238,0,1-.41.239Z" fill="#aa780b"/>
            </g>
            <g id="Grupo_31649" data-name="Grupo 31649" style="isolation: isolate">
              <g id="Grupo_31648" data-name="Grupo 31648" style="isolation: isolate">
                <path id="Trazado_33877" data-name="Trazado 33877" d="M196.447,405.414l.411-.239a2.865,2.865,0,0,1,2.89.276l-.411.239a2.861,2.861,0,0,0-2.89-.276Z" fill="#a9770b"/>
              </g>
            </g>
            <g id="Grupo_31651" data-name="Grupo 31651" style="isolation: isolate">
              <g id="Grupo_31650" data-name="Grupo 31650" style="isolation: isolate">
                <path id="Trazado_33878" data-name="Trazado 33878" d="M199.337,405.69l.411-.239a8.973,8.973,0,0,1,4.054,7.023l-.41.238a8.969,8.969,0,0,0-4.055-7.022Z" fill="#a9770b"/>
              </g>
            </g>
            <g id="Grupo_31652" data-name="Grupo 31652">
              <path id="Trazado_33879" data-name="Trazado 33879" d="M199.337,405.69a8.969,8.969,0,0,1,4.055,7.022l0,1-8.135-4.7,0-1C195.264,405.447,197.1,404.4,199.337,405.69Z" fill="#fea311"/>
            </g>
          </g>
        </g>
        <g id="Grupo_31665" data-name="Grupo 31665">
          <g id="Grupo_31664" data-name="Grupo 31664" style="isolation: isolate">
            <g id="Grupo_31656" data-name="Grupo 31656" style="isolation: isolate">
              <g id="Grupo_31655" data-name="Grupo 31655" style="isolation: isolate">
                <path id="Trazado_33880" data-name="Trazado 33880" d="M195.287,411.565l.346-.2a.494.494,0,0,1,.5.048l-.346.2a.494.494,0,0,0-.5-.048Z" fill="#a96d0b"/>
              </g>
            </g>
            <g id="Grupo_31658" data-name="Grupo 31658" style="isolation: isolate">
              <g id="Grupo_31657" data-name="Grupo 31657" style="isolation: isolate">
                <path id="Trazado_33881" data-name="Trazado 33881" d="M204.066,421.854l.346-.2a.484.484,0,0,1-.2.444l-.346.2a.484.484,0,0,0,.2-.444Z" fill="#a96d0b"/>
              </g>
            </g>
            <g id="Grupo_31659" data-name="Grupo 31659">
              <path id="Trazado_33882" data-name="Trazado 33882" d="M204.08,417.2l.346-.2-.013,4.65-.346.2Z" fill="#aa6d0b"/>
            </g>
            <g id="Grupo_31660" data-name="Grupo 31660">
              <path id="Trazado_33883" data-name="Trazado 33883" d="M195.785,411.613l.346-.2,7.6,4.387-.346.2Z" fill="#895809"/>
            </g>
            <g id="Grupo_31662" data-name="Grupo 31662" style="isolation: isolate">
              <g id="Grupo_31661" data-name="Grupo 31661" style="isolation: isolate">
                <path id="Trazado_33884" data-name="Trazado 33884" d="M203.383,416l.346-.2a1.54,1.54,0,0,1,.7,1.2l-.346.2a1.54,1.54,0,0,0-.7-1.2Z" fill="#a96d0b"/>
              </g>
            </g>
            <g id="Grupo_31663" data-name="Grupo 31663">
              <path id="Trazado_33885" data-name="Trazado 33885" d="M203.383,416a1.54,1.54,0,0,1,.7,1.2l-.014,4.651c0,.439-.315.618-.7.4l-7.6-4.387a1.537,1.537,0,0,1-.7-1.2l.013-4.65c0-.439.316-.618.7-.4Z" fill="#f09a10"/>
            </g>
          </g>
        </g>
        <g id="Grupo_31670" data-name="Grupo 31670">
          <g id="Grupo_31669" data-name="Grupo 31669" style="isolation: isolate">
            <g id="Grupo_31666" data-name="Grupo 31666">
              <path id="Trazado_33886" data-name="Trazado 33886" d="M208.694,421.873l-.54-.314-.043-9.088.54.314Z" fill="#0f1112"/>
            </g>
            <g id="Grupo_31667" data-name="Grupo 31667">
              <path id="Trazado_33887" data-name="Trazado 33887" d="M208.651,412.785l-.54-.314,1.183-.683.54.314Z" fill="#181b1d"/>
            </g>
            <g id="Grupo_31668" data-name="Grupo 31668">
              <path id="Trazado_33888" data-name="Trazado 33888" d="M209.834,412.1l.043,9.088-1.183.683-.043-9.087Z" fill="#16181a"/>
            </g>
          </g>
        </g>
      </g>
    </g>
  </g>
</svg>
