<svg xmlns="http://www.w3.org/2000/svg" xmlns:xlink="http://www.w3.org/1999/xlink" width="505" height="365.194" viewBox="0 0 505 365.194">
  <defs>
    <linearGradient id="linear-gradient" y1="0.5" x2="1" y2="0.5" gradientUnits="objectBoundingBox">
      <stop offset="0" stop-color="#fed747"/>
      <stop offset="1" stop-color="#f94e43"/>
    </linearGradient>
    <linearGradient id="linear-gradient-6" x1="1" y1="0.5" x2="0" y2="0.5" xlink:href="#linear-gradient"/>
  </defs>
  <g id="Grupo_53373" data-name="Grupo 53373" transform="translate(-1195.585 -213.539)">
    <g id="Grupo_25788" data-name="Grupo 25788" transform="translate(1195.585 213.539)">
      <g id="Grupo_25787" data-name="Grupo 25787" transform="translate(0 24.084)">
        <g id="Grupo_25786" data-name="Grupo 25786">
          <path id="Trazado_1061" data-name="Trazado 1061" d="M1231.812,660.152s-59.779-81.066-10.11-168.83c44.069-77.871,95.451-72.548,133.148-40.948,16.056,13.459,62.346,1.659,101.745-77.578,53.73-108.057,239.976-42.52,206.018,123.729-16.434,80.453,50.014,83.377,16.156,163.8Z" transform="translate(-1200.528 -319.903)" fill="#fff1db"/>
          <path id="Rectángulo_2669" data-name="Rectángulo 2669" d="M.691,0H504.308A.691.691,0,0,1,505,.691v0a.691.691,0,0,1-.691.691H.691A.691.691,0,0,1,0,.692v0A.691.691,0,0,1,.691,0Z" transform="translate(0 339.728)" fill="#4a2c6a"/>
        </g>
      </g>
      <ellipse id="Elipse_193" data-name="Elipse 193" cx="61.314" cy="44.146" rx="61.314" ry="44.146" transform="matrix(0.747, -0.665, 0.665, 0.747, 93.178, 81.507)" fill="#fff1db"/>
      <ellipse id="Elipse_194" data-name="Elipse 194" cx="13.638" cy="18.941" rx="13.638" ry="18.941" transform="translate(57.105 94.041) rotate(-41.657)" fill="#fff1db"/>
      <path id="Trazado_1062" data-name="Trazado 1062" d="M3214.129,478.238c-2.3-10.2,1.784-19.821,9.131-21.48s15.17,5.268,17.474,15.473-1.784,19.821-9.131,21.48S3216.433,488.442,3214.129,478.238Z" transform="translate(-2756.583 -401.498)" fill="#fff1db"/>
    </g>
    <g id="Grupo_25831" data-name="Grupo 25831" transform="translate(1224.819 369.732)">
      <g id="Grupo_25797" data-name="Grupo 25797" transform="translate(0 64.524)">
        <g id="Grupo_25789" data-name="Grupo 25789" transform="translate(28.11 6.268)">
          <path id="Trazado_1063" data-name="Trazado 1063" d="M1524.115,1383.228c-2.021-1.176-3.025-2.121-4.5-2.334s-4.133-.378-4.5-.938c-.911-1.373-1.867-4.055-1.2-3.88s3.191,1.911,3.984,1.64-1.208-.912-.727-1.31c.5-.416,2.685.589,3.19,1.713.177.393,6.441,2.341,6.441,2.341Z" transform="translate(-1499.008 -1339.827)" fill="#ffb792"/>
          <path id="Trazado_1064" data-name="Trazado 1064" d="M1607.088,1662.346a1.172,1.172,0,0,1-.67,1.081.009.009,0,0,1-.006,0,7.8,7.8,0,0,1-3.634.407c-.19-.008-.362-.013-.514-.013h-.211c-1.472.036-1.317.477-4.115.716-3.189.272-4.364-.7-4.552-1.148-.158-.377,1.21-.8,2.739-1.293l.223-.071c.2-.064.408-.132.612-.2,1.821-.605,3.613-1.323,4.06-3.166.474-1.954-.952-7.408-.952-7.408l5.054-.545s.487,5.7.8,7.478a19.609,19.609,0,0,0,.853,2.515q.027.086.051.171A5.589,5.589,0,0,1,1607.088,1662.346Z" transform="translate(-1560.647 -1552.286)" fill="#f3b395"/>
          <path id="Trazado_1065" data-name="Trazado 1065" d="M1607.088,1696.489a1.171,1.171,0,0,1-.67,1.081.009.009,0,0,1-.006,0,9.025,9.025,0,0,1-3.631.4c-.19-.005-.361-.007-.517,0h-.211c-1.472.036-1.317.477-4.115.717-3.189.272-4.364-.7-4.552-1.148-.158-.377,1.21-.8,2.739-1.293a9.452,9.452,0,0,0,4.893.417c2.128-.4,4.241-1.459,5.761-1.813q.027.086.051.171A5.589,5.589,0,0,1,1607.088,1696.489Z" transform="translate(-1560.647 -1586.428)" fill="#89e0f1"/>
          <path id="Trazado_1066" data-name="Trazado 1066" d="M1462.487,1640.122c-.281,1.4-2.281,1.169-4.517.623s-1.7.1-4.885-.249-4.145-1.538-4.242-2.012c-.087-.42,1.485-.568,3.171-.762.212-.024.425-.05.638-.076,1.9-.239,3.3-1.467,5.027-2.476,1.638-.955,4.082-4.849,4.082-4.849l4.363.346s-2.289,3.477-3.175,4.989a5.274,5.274,0,0,0-.428,2.973A5.594,5.594,0,0,1,1462.487,1640.122Z" transform="translate(-1448.84 -1536.512)" fill="#f3b395"/>
          <path id="Trazado_1067" data-name="Trazado 1067" d="M1457.97,1666.03c-2.235-.546-1.7.1-4.885-.249s-4.145-1.538-4.242-2.012c-.087-.42,1.485-.568,3.171-.762l.016.032a8.97,8.97,0,0,0,4.556,1.416c2.158.053,4.444-.566,5.934-.542a5.593,5.593,0,0,1-.033,1.492C1462.206,1666.811,1460.206,1666.577,1457.97,1666.03Z" transform="translate(-1448.84 -1561.797)" fill="#89e0f1"/>
          <path id="Trazado_1068" data-name="Trazado 1068" d="M1582.95,1526.508l9.4,25.3a8.6,8.6,0,0,0,2.829-.259,12.173,12.173,0,0,0,2.734-1.332s-2.332-24.3-6.608-29.349S1582.95,1526.508,1582.95,1526.508Z" transform="translate(-1552.584 -1450.795)" fill="#6139bc"/>
          <path id="Trazado_1069" data-name="Trazado 1069" d="M1551.911,1479.694s-27.017-9.135-33.042-7.191-24.117,37.937-24.117,37.937a3.492,3.492,0,0,0,1.523.961,14.366,14.366,0,0,0,3.546.364s16.327-13.994,18.271-18.076,2.721-7.969,4.665-7.58,25.073,9.524,30.322,4.082a15.15,15.15,0,0,0,3.875-12.513Z" transform="translate(-1484.356 -1414.218)" fill="#6e49c1"/>
          <path id="Trazado_1070" data-name="Trazado 1070" d="M1665.534,1238.992a15.354,15.354,0,0,1-1.15-5.293,16.238,16.238,0,0,0,1.89,5.851c5.619,3.689,16.388,16.006,16.175,18.34,0,0,3.794-6.434,3.859-6.472,0,0,7-8.9-1.3-14-4.215-2.59-4.194-5.915-4.018-8.8s-1.15-15.321-9.593-12.067a5.5,5.5,0,0,0-1.962-.512,1.662,1.662,0,0,1,.748.355,6.553,6.553,0,0,0-3.546.678C1663.546,1218.833,1660.777,1234.613,1665.534,1238.992Z" transform="translate(-1614.49 -1216.013)" fill="#ff4a1e"/>
          <path id="Trazado_1071" data-name="Trazado 1071" d="M1679.015,1292.351c-.028.012,2.713,1.436,4.775.872,1.939-.529,3.207-3.043,3.18-3.049-.821-.163-1.058-1.292-1.041-6.142l-.371.073-6.243,1.237s.142,1.964.146,3.815C1679.465,1290.711,1679.371,1292.185,1679.015,1292.351Z" transform="translate(-1626.898 -1268.631)" fill="#ffb792"/>
          <path id="Trazado_1072" data-name="Trazado 1072" d="M1680.339,1285.59s.142,1.964.146,3.815c3.493-.1,5.34-3.285,6.1-5.052Z" transform="translate(-1627.922 -1268.88)" fill="#f3b092"/>
          <path id="Trazado_1073" data-name="Trazado 1073" d="M1665.781,1249.905s8.266.136,8.271-5.012,1.076-8.6-4.2-8.9-6.3,1.659-6.724,3.377S1663.631,1249.737,1665.781,1249.905Z" transform="translate(-1614.531 -1231.442)" fill="#ffb792"/>
          <path id="Trazado_1074" data-name="Trazado 1074" d="M1676.538,1231.964s2.263,6.04,5.736,6.933,4.98-.037,4.98-.037a9.836,9.836,0,0,1-3.217-5.81S1678.245,1229.09,1676.538,1231.964Z" transform="translate(-1624.982 -1227.543)" fill="#ff4a1e"/>
          <path id="Trazado_1075" data-name="Trazado 1075" d="M1664.717,1234.34a7.3,7.3,0,0,0-2.1,2.66c-.412,1.311-.6,4.01-1.384,3.918,0,0-1.705-4.106.211-6.428C1663.473,1232.028,1664.717,1234.34,1664.717,1234.34Z" transform="translate(-1612.599 -1229.429)" fill="#ff4a1e"/>
          <path id="Trazado_1076" data-name="Trazado 1076" d="M1593.082,1335.556c.815-3.419-1.958-10.052-4.853-15.544-2.627-4.977-5.353-9.015-5.6-8.87-6.928,4.112-7.554.693-7.554.693s-6.292.836-8.074,3.9c-2.465,4.242-5.148,16.969-7.786,16.781-1.21-.087-13.391-4.665-13.391-4.665s-2.029,1.9-1.64,4.234a127.226,127.226,0,0,0,11.1,6.6c2.69,1.359,5.121,2.311,6.264,2.041,2.317-.546,5.937-5.917,7.892-9.079l.013-.021c2.5,14.128-.9,17.346.82,18.835,1.814,1.573,4.406-.749,10.108,1.722,3.74,1.622,8.93,3.968,12.423,4.376,1.832.215,3.2-.1,3.645-1.341C1597.747,1351.624,1591.527,1342.073,1593.082,1335.556Z" transform="translate(-1522.559 -1289.6)" fill="#eaeaea"/>
          <path id="Trazado_1077" data-name="Trazado 1077" d="M1672.688,1282.342s-.154.654-1.781.553c0,0-1.366-.084-1.324-.8A4.4,4.4,0,0,1,1672.688,1282.342Z" transform="translate(-1619.6 -1267)" fill="#eaeaea"/>
          <path id="Trazado_1078" data-name="Trazado 1078" d="M1719.175,1404.608c-.446,1.237-1.813,1.557-3.645,1.342-2.418-1.053-12.864-5.1-12.748-7.843.174-4.06,2.009-4.19.713-9.2-1.041-4.024,6.033-12.3,7.573-13.923,2.895,5.492,5.553,6.543,4.738,9.962C1714.251,1391.462,1720.471,1401.013,1719.175,1404.608Z" transform="translate(-1645.283 -1338.989)" fill="#c8d1ce"/>
          <path id="Trazado_1079" data-name="Trazado 1079" d="M1607.534,1399.332c-1.955,3.162-5.575,8.533-7.892,9.079-1.143.269-3.574-.682-6.264-2.041a16.272,16.272,0,0,0,5.724.314c2.009-.194,2.592-2.657,5.766-6.35C1606.928,1397.939,1607.433,1398.541,1607.534,1399.332Z" transform="translate(-1560.651 -1357.284)" fill="#c8d1ce"/>
          <path id="Trazado_1080" data-name="Trazado 1080" d="M1678.813,1432.333a4.983,4.983,0,0,0-3.4-1.037c-1.652.324-2.462,1.458-2.4,1.976a2.948,2.948,0,0,0,2.2,2.106,23.857,23.857,0,0,0,4.86-.777Z" transform="translate(-1622.252 -1382.513)" fill="#ffb792"/>
          <path id="Trazado_1081" data-name="Trazado 1081" d="M1699.9,1311.156s6.737.415,9.069,3.668c3.283,4.579,8.984,23.272,7.429,27.548l-20.5-.086s-.5-2.322.194-3.445,11.922-2.937,12.44-3.456-6.479-10.108-6.479-11.663S1699.9,1311.156,1699.9,1311.156Z" transform="translate(-1639.827 -1289.613)" fill="#eaeaea"/>
        </g>
        <g id="Grupo_25791" data-name="Grupo 25791" transform="translate(108.039)">
          <path id="Trazado_1082" data-name="Trazado 1082" d="M1808.422,1439.427a7.737,7.737,0,0,0-2.775-.435,12.942,12.942,0,0,0-3.771,1.777,1.027,1.027,0,0,0,0,.483h6.547s1.464-.284,1.713-1.147S1808.422,1439.427,1808.422,1439.427Z" transform="translate(-1801.848 -1382.209)" fill="#ffb792"/>
          <path id="Trazado_1083" data-name="Trazado 1083" d="M1888.467,1762.32a1.255,1.255,0,0,1-.819,1.087.011.011,0,0,1-.008,0,8.345,8.345,0,0,1-3.914.082c-.2-.026-.384-.049-.547-.063l-.127-.01-.1-.008c-1.573-.1-1.45.381-4.456.366-3.427-.018-4.586-1.172-4.743-1.665-.132-.417,1.369-.741,3.046-1.114l.245-.054c.223-.05.448-.1.671-.152,2-.469,3.98-1.062,4.635-2.983.694-2.038.53-8.085.53-8.085h6.069s-1.593,6.681-1.426,8.606c.091,1.028.582,1.321.772,2.211.014.063.026.125.037.187A5.973,5.973,0,0,1,1888.467,1762.32Z" transform="translate(-1857.467 -1622.611)" fill="#ff4a1e"/>
          <g id="Grupo_25790" data-name="Grupo 25790" transform="translate(21.95 52.518)">
            <path id="Trazado_1084" data-name="Trazado 1084" d="M1914.9,1442.106c-.512,2.876-1.243,5.847-1.878,8.938a46.272,46.272,0,0,0-1,15.933,19.741,19.741,0,0,1,.168,2.407c.153,10.047-4.336,28.254-4.336,28.254a7.928,7.928,0,0,1-3.263.425,10.363,10.363,0,0,1-2.666-.731s-.425-11.289-.45-26.471c-.019-11-2.179-25.494-2.616-34.008a109.054,109.054,0,0,1,.309-12.017s8.948-7.2,12.163-3.514C1914.506,1424.961,1916.819,1431.349,1914.9,1442.106Z" transform="translate(-1898.789 -1420.274)" fill="#643dbd"/>
          </g>
          <path id="Trazado_1085" data-name="Trazado 1085" d="M1929.847,1529.249a19.816,19.816,0,0,1,.168,2.407c-6.7-9.71-8.184-30.883-8.184-30.883l7.361,3.573s.807,3.97,1.657,8.97A46.267,46.267,0,0,0,1929.847,1529.249Z" transform="translate(-1894.664 -1430.028)" fill="#4a2c76"/>
          <path id="Trazado_1086" data-name="Trazado 1086" d="M1973.975,1761.033a1.255,1.255,0,0,1-.819,1.087.009.009,0,0,1-.007,0,8.343,8.343,0,0,1-3.914.082c-.2-.026-.384-.049-.547-.063l-.127-.01-.1-.007c-1.573-.1-1.45.381-4.456.366-3.427-.018-4.586-1.172-4.743-1.664-.132-.417,1.368-.741,3.046-1.114l.245-.054c.223-.049.448-.1.671-.152,2-.469,3.981-1.062,4.636-2.983.694-2.038-.3-7.992-.3-7.992l5.623-.47s-.349,6.784-.182,8.709a16.62,16.62,0,0,0,.8,2.484c.014.063.026.125.037.187A5.987,5.987,0,0,1,1973.975,1761.033Z" transform="translate(-1923.614 -1621.323)" fill="#ff4a1e"/>
          <path id="Trazado_1087" data-name="Trazado 1087" d="M1939.115,1523.543a13.661,13.661,0,0,1-2.486.892,11.933,11.933,0,0,1-3.2-.2,146.633,146.633,0,0,0-3.057-18.922,177.065,177.065,0,0,0-9.148-28.99c-.888-2.1-4.551-12.034-5.173-14.541-1.88-7.576.007-6.76.007-6.76l16.431-1.928s2.024,1.04,2.957,11.738c.279,3.2.313,17.037.734,19.659a29.361,29.361,0,0,0,1.411,5.89C1940.641,1497.874,1939.115,1523.543,1939.115,1523.543Z" transform="translate(-1889.546 -1393.146)" fill="#643dbd"/>
          <path id="Trazado_1088" data-name="Trazado 1088" d="M1973.975,1799.274a1.255,1.255,0,0,1-.819,1.088.009.009,0,0,1-.007,0,9.666,9.666,0,0,1-3.91.073c-.2-.024-.385-.042-.551-.054l-.127-.01-.1-.007c-1.573-.1-1.45.381-4.456.366-3.427-.018-4.586-1.172-4.743-1.664-.132-.417,1.368-.741,3.046-1.114a10.119,10.119,0,0,0,5.177.918c2.308-.221,4.664-1.146,6.319-1.376q.021.094.037.187A5.991,5.991,0,0,1,1973.975,1799.274Z" transform="translate(-1923.614 -1659.565)" fill="#82def0"/>
          <path id="Trazado_1089" data-name="Trazado 1089" d="M1888.467,1799.274a1.255,1.255,0,0,1-.819,1.088.012.012,0,0,1-.008,0,9.664,9.664,0,0,1-3.91.073c-.2-.024-.385-.042-.551-.054l-.127-.01-.1-.007c-1.573-.1-1.45.381-4.456.366-3.427-.018-4.586-1.172-4.743-1.664-.132-.417,1.369-.741,3.046-1.114a10.119,10.119,0,0,0,5.177.918c2.307-.221,4.664-1.146,6.319-1.376.014.063.026.125.037.187A5.975,5.975,0,0,1,1888.467,1799.274Z" transform="translate(-1857.467 -1659.565)" fill="#82def0"/>
          <path id="Trazado_1090" data-name="Trazado 1090" d="M1903.89,1199.081c-.555-4.533.86-11.785,9.907-10.626s11.9,10.049,10.073,14,2.626,4.906,4.023,9.157c1.2,3.652,1.619,8.186,3.562,10.221,6.262,6.561-6.013,16.65-13.412,14.522-13.479-3.875-15.214-4.453-14.736-15.044.245-5.426,4.467-7.528,1.786-9.1C1898.617,1208.423,1905.146,1209.337,1903.89,1199.081Z" transform="translate(-1879.462 -1188.331)" fill="#4a2c76"/>
          <path id="Trazado_1091" data-name="Trazado 1091" d="M1932.384,1260.3l-2.489,6.438-5.383.265-2.682-4.018a7.96,7.96,0,0,0,2.785-5.891,14.058,14.058,0,0,0,.013-1.946c-.01-.159-.022-.3-.035-.424,0-.049-.01-.1-.014-.137-.022-.211-.042-.348-.047-.395a.057.057,0,0,1,0-.017l.064-.02,2.6-.792,4.065-1.238c.007.15.014.3.022.444.078,1.569.169,2.822.267,3.817.015.14.027.272.042.4C1931.954,1260.213,1932.384,1260.3,1932.384,1260.3Z" transform="translate(-1894.663 -1237.677)" fill="#ffb792"/>
          <path id="Trazado_1092" data-name="Trazado 1092" d="M1933.844,1258.615a14.055,14.055,0,0,0,.012-1.946c-.01-.159-.022-.3-.035-.424,0-.049-.01-.1-.014-.137-.022-.211-.042-.348-.047-.395l.059-.037a4.767,4.767,0,0,1,1.809-.694c.255-.027.52-.059.792-.1,1.892-.265,3.991-.772,4.084-.792C1940.373,1254.22,1936.659,1257.787,1933.844,1258.615Z" transform="translate(-1903.893 -1239.203)" fill="#f3b092"/>
          <path id="Trazado_1093" data-name="Trazado 1093" d="M1902.419,1286.242c.346,0,6.221-1.2,16.142,1.343,0,0-5.434,24.894-3.588,29.586a49.556,49.556,0,0,1,2.547,8.856l-20.024.248s.28-16.1-.643-21.8S1902.419,1286.242,1902.419,1286.242Z" transform="translate(-1875.273 -1263.855)" fill="#ffb792"/>
          <path id="Trazado_1094" data-name="Trazado 1094" d="M1913.608,1314.971c.293,3.3,3.372,10.825,2.706,12.429a4.626,4.626,0,0,1-3.789,3.025,39.158,39.158,0,0,1-6.316.641c-6.033.3-12.5-.458-13.377-3.326-.422-1.376-.259-6.7-.036-9.161.462-5.088-.506-12.389-.648-17.113-.117-3.94,2.26-12.908,2.26-12.908a15.021,15.021,0,0,1,4.437-1.354s.354,4.658,2.785,5.059c4.2.693,7.59-3.157,8.579-4.707,0,0,4.827,1.219,6.244,2.833,1.342,1.529-.494,12.858-.9,13.944-.353.933-.686,1.843-.975,2.757A19.231,19.231,0,0,0,1913.608,1314.971Z" transform="translate(-1871.698 -1264.816)" fill="#eaeaea"/>
          <path id="Trazado_1095" data-name="Trazado 1095" d="M2056.918,1439.511a7.81,7.81,0,0,1,2.776-.431,12.99,12.99,0,0,1,3.771,1.761,1.006,1.006,0,0,1,0,.478h-6.547s-1.463-.282-1.713-1.137S2056.918,1439.511,2056.918,1439.511Z" transform="translate(-1997.822 -1382.278)" fill="#ffb792"/>
          <path id="Trazado_1096" data-name="Trazado 1096" d="M1921.2,1217.754s8.057,1.619,8.988-3.415,2.6-8.214-2.508-9.46-6.463.49-7.182,2.094S1919.127,1217.2,1921.2,1217.754Z" transform="translate(-1893.094 -1200.803)" fill="#ffb792"/>
          <path id="Trazado_1097" data-name="Trazado 1097" d="M1943.362,1200.032s-.141,1.707,2.509,4.6,2.134,8.755,2.134,8.755,4.351-9.088,1.968-11.769S1943.362,1200.032,1943.362,1200.032Z" transform="translate(-1911.318 -1197.213)" fill="#4a2c76"/>
          <path id="Trazado_1098" data-name="Trazado 1098" d="M1926.113,1190.214s-4.006-1.341-7.981,2.577c-1.713,1.687-1.454,5-.537,6.93,0,0,1.409-4.125,3.973-5.024S1926.113,1190.214,1926.113,1190.214Z" transform="translate(-1890.83 -1189.616)" fill="#4a2c76"/>
          <path id="Trazado_1099" data-name="Trazado 1099" d="M1927.167,1250.1s-.216.6-1.733.326c0,0-1.274-.228-1.156-.9A4.155,4.155,0,0,1,1927.167,1250.1Z" transform="translate(-1896.551 -1235.622)" fill="#eaeaea"/>
          <path id="Trazado_1100" data-name="Trazado 1100" d="M1950.7,1311.095c-3.048-11.763-4.72-18.479-7.218-20.512-2.209-1.8-6.972-1.962-6.972-1.962a24.359,24.359,0,0,0,.167,4.24l-5.859,11.165a49.082,49.082,0,0,0-4.069,12.436c-1.223,7.448-.477,15.629.522,16.428,1.87,1.5,17.859,1.928,18.14.964s-5.8-16.924-4.956-20.384c.269-1.107.625-3.631.983-6.551,1.927,3.694,3.738,6.289,4,6.895.6,1.4,9.691,10.279,9.691,10.279a4.761,4.761,0,0,0,1.319-.465,2.85,2.85,0,0,0,.9-.8C1955.74,1319.5,1950.7,1311.095,1950.7,1311.095Z" transform="translate(-1897.977 -1265.913)" fill="#ff7042"/>
          <path id="Trazado_1101" data-name="Trazado 1101" d="M1952.266,1288.474l-5.376,15.438,5.375-5.082-.407-1.58a3.768,3.768,0,0,0,1.737-.214c.5-.324,1.669-8.217,1.669-8.217s-1.143-.184-1.516-.227S1952.266,1288.474,1952.266,1288.474Z" transform="translate(-1914.049 -1265.799)" fill="#ff4a1e"/>
          <path id="Trazado_1102" data-name="Trazado 1102" d="M1850.547,1302.929a67.592,67.592,0,0,1-.994-7.311,27.964,27.964,0,0,0,.964-8.415l-.369.021c-1.157.081-4.764.449-6.6,1.958-2.5,2.051-3.058,11.055-7.218,20.693,0,0-5.041,8.476-6.645,11.838a2.857,2.857,0,0,0,.9.806,4.741,4.741,0,0,0,1.318.469s9.093-8.955,9.691-10.371c.2-.465,1.3-2.1,2.663-4.5h0s.471,16.628-.838,20.151c0,0,5.16,3.707,9.477,3.333C1853.465,1331.553,1850.547,1302.929,1850.547,1302.929Z" transform="translate(-1823.38 -1264.816)" fill="#ff7042"/>
          <path id="Trazado_1103" data-name="Trazado 1103" d="M1910.035,1287.2s-1.132,12.2.03,15.726c0,0-3.326-5.267-2.7-6.358l1.205-.795s-2.328-.3-1.891-1.639,2.378-6.86,2.378-6.86Z" transform="translate(-1882.898 -1264.816)" fill="#ff4a1e"/>
        </g>
        <g id="Grupo_25792" data-name="Grupo 25792" transform="translate(17.899 66.977)">
          <path id="Trazado_1104" data-name="Trazado 1104" d="M1403.747,1675.344h184.212v-42.1l-184.212-.42Z" transform="translate(-1403.747 -1599.16)" fill="#4a2c6a"/>
          <rect id="Rectángulo_2670" data-name="Rectángulo 2670" width="184.212" height="11.009" fill="#4a2c6a"/>
        </g>
        <path id="Rectángulo_2671" data-name="Rectángulo 2671" d="M3.967,0H209.73A3.967,3.967,0,0,1,213.7,3.967v0a3.967,3.967,0,0,1-3.967,3.967H3.967A3.967,3.967,0,0,1,0,3.968v0A3.967,3.967,0,0,1,3.967,0Z" transform="translate(0 59.042)" fill="#6e49c1"/>
        <path id="Trazado_1105" data-name="Trazado 1105" d="M1508.367,1449.227l-.058.033.018-.033Z" transform="translate(-1466.734 -1390.154)" fill="#4ac6f0"/>
        <g id="Grupo_25793" data-name="Grupo 25793" transform="translate(79.9 36.71)">
          <path id="Trazado_1106" data-name="Trazado 1106" d="M1682.053,1353.821l-4.09-.583a.456.456,0,0,1-.387-.516l.266-1.871a.457.457,0,0,1,.517-.388l4.09.583a.457.457,0,0,1,.388.517l-.267,1.871A.457.457,0,0,1,1682.053,1353.821Z" transform="translate(-1677.571 -1350.458)" fill="#4a2c76"/>
          <rect id="Rectángulo_2672" data-name="Rectángulo 2672" width="1.321" height="1.771" transform="translate(0.881 0.515) rotate(8.12)" fill="#ffdd71"/>
          <path id="Trazado_1107" data-name="Trazado 1107" d="M1690.937,1354.646l-1.628-.232a.222.222,0,0,1-.188-.25h0a.222.222,0,0,1,.25-.188l1.628.232a.222.222,0,0,1,.188.25h0A.221.221,0,0,1,1690.937,1354.646Z" transform="translate(-1686.503 -1353.177)" fill="#ffdd71"/>
          <path id="Trazado_1108" data-name="Trazado 1108" d="M1690.63,1358.205l-1.9-.271a.084.084,0,0,1-.072-.1h0a.084.084,0,0,1,.1-.071l1.9.27a.085.085,0,0,1,.072.1h0A.085.085,0,0,1,1690.63,1358.205Z" transform="translate(-1686.148 -1356.112)" fill="#ffdd71"/>
          <path id="Trazado_1109" data-name="Trazado 1109" d="M1690.459,1359.4l-1.9-.271a.085.085,0,0,1-.072-.1h0a.085.085,0,0,1,.1-.072l1.9.271a.085.085,0,0,1,.072.1h0A.085.085,0,0,1,1690.459,1359.4Z" transform="translate(-1686.016 -1357.038)" fill="#ffdd71"/>
        </g>
        <g id="Grupo_25794" data-name="Grupo 25794" transform="translate(145.148 35.008)">
          <path id="Rectángulo_2673" data-name="Rectángulo 2673" d="M1.28,0H3.326a1.28,1.28,0,0,1,1.28,1.28v0a1.28,1.28,0,0,1-1.28,1.28H1.279A1.279,1.279,0,0,1,0,1.28v0A1.28,1.28,0,0,1,1.28,0Z" transform="matrix(0.998, 0.061, -0.061, 0.998, 0.157, 0)" fill="#4a2c76"/>
          <rect id="Rectángulo_2674" data-name="Rectángulo 2674" width="1.206" height="1.617" transform="translate(0.695 0.483) rotate(3.521)" fill="#ffdd71"/>
          <path id="Trazado_1110" data-name="Trazado 1110" d="M1977.627,1346.07l-1.5-.093a.2.2,0,0,1-.189-.214h0a.2.2,0,0,1,.214-.19l1.5.093a.2.2,0,0,1,.19.214h0A.2.2,0,0,1,1977.627,1346.07Z" transform="translate(-1973.629 -1344.978)" fill="#ffdd71"/>
          <path id="Trazado_1111" data-name="Trazado 1111" d="M1977.575,1349.368l-1.749-.108a.077.077,0,0,1-.072-.081h0a.077.077,0,0,1,.082-.072l1.749.108a.078.078,0,0,1,.072.081h0A.078.078,0,0,1,1977.575,1349.368Z" transform="translate(-1973.487 -1347.711)" fill="#ffdd71"/>
          <path id="Trazado_1112" data-name="Trazado 1112" d="M1977.508,1350.471l-1.749-.108a.077.077,0,0,1-.072-.081h0a.077.077,0,0,1,.081-.072l1.749.108a.078.078,0,0,1,.072.082h0A.077.077,0,0,1,1977.508,1350.471Z" transform="translate(-1973.435 -1348.564)" fill="#ffdd71"/>
        </g>
        <path id="Trazado_1113" data-name="Trazado 1113" d="M1932.177,1412.093a.581.581,0,1,1,.58.581A.58.58,0,0,1,1932.177,1412.093Z" transform="translate(-1794.628 -1360.979)" fill="#fff"/>
        <path id="Trazado_1114" data-name="Trazado 1114" d="M1932.177,1428.182a.581.581,0,1,1,.58.58A.58.58,0,0,1,1932.177,1428.182Z" transform="translate(-1794.628 -1373.425)" fill="#fff"/>
        <path id="Trazado_1115" data-name="Trazado 1115" d="M1403.747,1555.412l184.212.42v-23.079H1403.747Z" transform="translate(-1385.847 -1454.767)" fill="#56309e" opacity="0.9"/>
        <g id="Grupo_25795" data-name="Grupo 25795" transform="translate(185.372 39.955)">
          <path id="Trazado_1116" data-name="Trazado 1116" d="M2147.5,1364.791l-4.109,19.087H2159.4l3.581-19.087Z" transform="translate(-2143.387 -1364.791)" fill="#ff4a1e"/>
          <path id="Trazado_1117" data-name="Trazado 1117" d="M2151.285,1367.475l-3.711,17.24h14.462l3.235-17.24Z" transform="translate(-2146.626 -1366.867)" fill="#eaeaea"/>
        </g>
        <path id="Trazado_1118" data-name="Trazado 1118" d="M2178.489,1374.325h-11.007a.37.37,0,0,1-.369-.369h0a.37.37,0,0,1,.369-.369h11.007a.37.37,0,0,1,.369.369h0A.37.37,0,0,1,2178.489,1374.325Z" transform="translate(-1976.369 -1331.641)" fill="#4a2c6a"/>
        <path id="Trazado_1119" data-name="Trazado 1119" d="M2176.008,1382H2165a.37.37,0,0,1-.368-.369h0a.369.369,0,0,1,.368-.369h11.008a.37.37,0,0,1,.369.369h0A.37.37,0,0,1,2176.008,1382Z" transform="translate(-1974.449 -1337.58)" fill="#4a2c6a"/>
        <path id="Trazado_1120" data-name="Trazado 1120" d="M2174.457,1389.368H2163.45a.37.37,0,0,1-.369-.369h0a.37.37,0,0,1,.369-.369h11.007a.369.369,0,0,1,.369.369h0A.37.37,0,0,1,2174.457,1389.368Z" transform="translate(-1973.25 -1343.278)" fill="#4a2c6a"/>
        <path id="Trazado_1121" data-name="Trazado 1121" d="M2172.209,1404.556H2161.2a.37.37,0,0,1-.369-.369h0a.37.37,0,0,1,.369-.369h11.007a.37.37,0,0,1,.369.369h0A.37.37,0,0,1,2172.209,1404.556Z" transform="translate(-1971.51 -1355.026)" fill="#4a2c6a"/>
        <path id="Trazado_1122" data-name="Trazado 1122" d="M2169.728,1412.232h-11.008a.369.369,0,0,1-.369-.369h0a.37.37,0,0,1,.369-.369h11.008a.37.37,0,0,1,.369.369h0A.37.37,0,0,1,2169.728,1412.232Z" transform="translate(-1969.591 -1360.964)" fill="#4a2c6a"/>
        <path id="Trazado_1123" data-name="Trazado 1123" d="M2168.177,1419.6H2157.17a.37.37,0,0,1-.369-.369h0a.37.37,0,0,1,.369-.369h11.007a.37.37,0,0,1,.369.369h0A.37.37,0,0,1,2168.177,1419.6Z" transform="translate(-1968.391 -1366.663)" fill="#4a2c6a"/>
        <path id="Trazado_1124" data-name="Trazado 1124" d="M2120.07,1417.908a11.375,11.375,0,0,1-.139-4.405c.22-1.322.155-2.1-.195-2.3-.283-.165-.627.106-.641.119l.033.041-.243-.073-2.156,7.146a1.57,1.57,0,0,0-1.518,1.306h3.192a1.356,1.356,0,0,0-.055-.236c.172.014.361.024.551.024.572,0,1.147-.089,1.267-.427A2.672,2.672,0,0,0,2120.07,1417.908Zm0,1.158c-.134.376-1.046.39-1.762.329a1.58,1.58,0,0,0-1.111-.919l2.129-7.056-.13-.039c.08-.055.311-.194.492-.088.211.124.408.6.144,2.192a11.465,11.465,0,0,0,.14,4.443A2.658,2.658,0,0,1,2120.066,1419.066Z" transform="translate(-1936.218 -1360.698)" fill="#eaeaea"/>
        <g id="Grupo_25796" data-name="Grupo 25796" transform="translate(151.659 69.368)">
          <path id="Trazado_1125" data-name="Trazado 1125" d="M1997.533,1494.692l.94,1.9,2.1.305-1.52,1.481.359,2.092-1.879-.988-1.878.988.359-2.092-1.52-1.481,2.1-.305Z" transform="translate(-1994.493 -1494.692)" fill="url(#linear-gradient)"/>
          <path id="Trazado_1126" data-name="Trazado 1126" d="M2034.741,1494.692l.939,1.9,2.1.305-1.52,1.481.359,2.092-1.878-.988-1.879.988.359-2.092-1.52-1.481,2.1-.305Z" transform="translate(-2023.276 -1494.692)" fill="url(#linear-gradient)"/>
          <path id="Trazado_1127" data-name="Trazado 1127" d="M2074.071,1494.692l.94,1.9,2.1.305-1.52,1.481.359,2.092-1.879-.988-1.879.988.359-2.092-1.52-1.481,2.1-.305Z" transform="translate(-2053.701 -1494.692)" fill="url(#linear-gradient)"/>
          <path id="Trazado_1128" data-name="Trazado 1128" d="M2113.54,1494.692l.939,1.9,2.1.305-1.52,1.481.359,2.092-1.879-.988-1.879.988.358-2.092-1.52-1.481,2.1-.305Z" transform="translate(-2084.233 -1494.692)" fill="url(#linear-gradient)"/>
          <path id="Trazado_1129" data-name="Trazado 1129" d="M2147.778,1494.692l.939,1.9,2.1.305-1.52,1.481.359,2.092-1.879-.988-1.879.988.359-2.092-1.52-1.481,2.1-.305Z" transform="translate(-2110.719 -1494.692)" fill="url(#linear-gradient)"/>
        </g>
      </g>
      <g id="Grupo_25810" data-name="Grupo 25810" transform="translate(238.902)">
        <rect id="Rectángulo_2675" data-name="Rectángulo 2675" width="152.738" height="179.056" transform="translate(3.174 28.526)" fill="url(#linear-gradient-6)"/>
        <g id="Grupo_25802" data-name="Grupo 25802" transform="translate(36.547 28.526)">
          <g id="Grupo_25798" data-name="Grupo 25798">
            <rect id="Rectángulo_2676" data-name="Rectángulo 2676" width="0.567" height="179.583" fill="#8f76bf"/>
          </g>
          <g id="Grupo_25799" data-name="Grupo 25799" transform="translate(30.56)">
            <rect id="Rectángulo_2677" data-name="Rectángulo 2677" width="0.567" height="179.583" fill="#8f76bf"/>
          </g>
          <g id="Grupo_25800" data-name="Grupo 25800" transform="translate(58.066)">
            <rect id="Rectángulo_2678" data-name="Rectángulo 2678" width="0.567" height="179.583" fill="#8f76bf"/>
          </g>
          <g id="Grupo_25801" data-name="Grupo 25801" transform="translate(85.424)">
            <rect id="Rectángulo_2679" data-name="Rectángulo 2679" width="0.567" height="179.583" fill="#8f76bf"/>
          </g>
        </g>
        <g id="Grupo_25805" data-name="Grupo 25805" transform="translate(169.113 83.162)">
          <path id="Rectángulo_2680" data-name="Rectángulo 2680" d="M7.333,0h6.155a7.333,7.333,0,0,1,7.333,7.333V23.974a7.333,7.333,0,0,1-7.333,7.333H7.332A7.332,7.332,0,0,1,0,23.975V7.333A7.333,7.333,0,0,1,7.333,0Z" fill="#7c409c"/>
          <g id="Grupo_25803" data-name="Grupo 25803" transform="translate(6.9 17.325)">
            <path id="Trazado_1130" data-name="Trazado 1130" d="M3163.907,1350.544a3.2,3.2,0,0,1-.52,1.766,3.256,3.256,0,0,1-2.846,1.62,3.387,3.387,0,0,1-3.385-3.385,3.335,3.335,0,0,1,1.953-3.053,3.031,3.031,0,0,1,1.433-.333A3.37,3.37,0,0,1,3163.907,1350.544Z" transform="translate(-3157.156 -1347.158)" fill="#ff4a1e"/>
            <path id="Trazado_1131" data-name="Trazado 1131" d="M3168.8,1350.544a3.2,3.2,0,0,1-.519,1.766,3.008,3.008,0,0,1-1.412.332,3.369,3.369,0,0,1-3.386-3.365,3.27,3.27,0,0,1,.52-1.786,3.032,3.032,0,0,1,1.433-.333A3.369,3.369,0,0,1,3168.8,1350.544Z" transform="translate(-3162.052 -1347.158)" fill="#ff7042"/>
          </g>
          <g id="Grupo_25804" data-name="Grupo 25804" transform="translate(6.9 5.962)">
            <path id="Trazado_1132" data-name="Trazado 1132" d="M3163.907,1300.361a3.206,3.206,0,0,1-.52,1.766,3.257,3.257,0,0,1-2.846,1.62,3.387,3.387,0,0,1-3.385-3.385,3.336,3.336,0,0,1,1.953-3.054,3.031,3.031,0,0,1,1.433-.332A3.369,3.369,0,0,1,3163.907,1300.361Z" transform="translate(-3157.156 -1296.975)" fill="#ff4a1e"/>
            <path id="Trazado_1133" data-name="Trazado 1133" d="M3168.8,1300.361a3.206,3.206,0,0,1-.519,1.766,3.012,3.012,0,0,1-1.412.332,3.369,3.369,0,0,1-3.386-3.365,3.273,3.273,0,0,1,.52-1.786,3.032,3.032,0,0,1,1.433-.332A3.369,3.369,0,0,1,3168.8,1300.361Z" transform="translate(-3162.052 -1296.975)" fill="#ff7042"/>
          </g>
        </g>
        <rect id="Rectángulo_2681" data-name="Rectángulo 2681" width="8.954" height="180.259" transform="translate(146.958 27.46)" fill="#ee8914"/>
        <rect id="Rectángulo_2682" data-name="Rectángulo 2682" width="8.954" height="180.259" transform="translate(3.173 27.46)" fill="#ee8914"/>
        <g id="Grupo_25809" data-name="Grupo 25809" transform="translate(55.405)">
          <rect id="Rectángulo_2683" data-name="Rectángulo 2683" width="49.637" height="17.716" rx="8.858" fill="#7c409c"/>
          <path id="Trazado_1134" data-name="Trazado 1134" d="M2780.206,935.049h-6.655a.885.885,0,0,1-.774-1.3l.774-1.413V932.3l2.4-4.392a.843.843,0,0,1,1.451-.039l3.366,5.514.193.31A.885.885,0,0,1,2780.206,935.049Z" transform="translate(-2739.123 -922.016)" fill="#ff4a1e"/>
          <path id="Trazado_1135" data-name="Trazado 1135" d="M2783.7,933.384h-6.365a.876.876,0,0,1-.851-1.045V932.3l2.4-4.392a.843.843,0,0,1,1.451-.039Z" transform="translate(-2742.051 -922.016)" fill="url(#linear-gradient)"/>
          <g id="Grupo_25808" data-name="Grupo 25808" transform="translate(13.007 4.643)">
            <g id="Grupo_25806" data-name="Grupo 25806" transform="translate(6.043)">
              <path id="Trazado_1136" data-name="Trazado 1136" d="M2712.605,927.725a2.06,2.06,0,0,0,.932-1.777,1.935,1.935,0,0,0-.627-1.505,2.245,2.245,0,0,0-1.573-.574,2.793,2.793,0,0,0-1.287.3,2.137,2.137,0,0,0-.958.9,1.429,1.429,0,0,0-.187.689.839.839,0,0,0,.172.512.516.516,0,0,0,.438.233.509.509,0,0,0,.51-.389,1.576,1.576,0,0,1,.409-.722,1.179,1.179,0,0,1,.8-.243.891.891,0,0,1,.653.238.873.873,0,0,1,.243.65,1.066,1.066,0,0,1-.419.965c-.006.008-.271.108-.794.3a.586.586,0,0,0-.42.568c0,.364.241.566.723.609q1.279.123,1.278,1.214a1.548,1.548,0,0,1-.154.732,1.184,1.184,0,0,1-1.111.579,1.237,1.237,0,0,1-.944-.389,8.273,8.273,0,0,1-.479-.712.694.694,0,0,0-.543-.389.579.579,0,0,0-.456.2.689.689,0,0,0-.179.479,1.976,1.976,0,0,0,1.022,1.654,2.724,2.724,0,0,0,1.557.435,2.844,2.844,0,0,0,1.943-.668,2.323,2.323,0,0,0,.812-1.854A2.016,2.016,0,0,0,2712.605,927.725Z" transform="translate(-2708.626 -923.869)" fill="#ff4a1e"/>
            </g>
            <g id="Grupo_25807" data-name="Grupo 25807">
              <path id="Trazado_1137" data-name="Trazado 1137" d="M2685.859,930.941h-.778v-6.2a1.708,1.708,0,0,0-.092-.73c-.062-.095-.21-.143-.448-.143s-.566.018-.968.046a3.959,3.959,0,0,0-.876.138c-.361.115-.54.31-.54.584,0,.384.231.573.688.573h.755v5.73h-.893c-.512,0-.768.223-.768.666a.593.593,0,0,0,.226.5.849.849,0,0,0,.555.179h3.139c.5,0,.755-.231.755-.689C2686.614,931.159,2686.363,930.941,2685.859,930.941Z" transform="translate(-2681.939 -923.869)" fill="#ff4a1e"/>
            </g>
          </g>
        </g>
        <rect id="Rectángulo_2684" data-name="Rectángulo 2684" width="153.48" height="3.173" transform="translate(3.173 25.353)" fill="#ff4a1e"/>
        <rect id="Rectángulo_2685" data-name="Rectángulo 2685" width="182.169" height="3.173" transform="translate(3.173 25.353) rotate(90)" fill="#ff4a1e"/>
        <rect id="Rectángulo_2686" data-name="Rectángulo 2686" width="182.169" height="3.173" transform="translate(159.085 25.353) rotate(90)" fill="#ff4a1e"/>
      </g>
      <g id="Grupo_25820" data-name="Grupo 25820" transform="translate(213.456 55.4)">
        <g id="Grupo_25817" data-name="Grupo 25817" transform="translate(0 69.386)">
          <path id="Trazado_1138" data-name="Trazado 1138" d="M2285.211,1758.727a3.089,3.089,0,1,0-3.088,3.088h1.216l.247-.368A3.088,3.088,0,0,0,2285.211,1758.727Z" transform="translate(-2276.403 -1687.449)" fill="#7c409c"/>
          <path id="Trazado_1139" data-name="Trazado 1139" d="M2290.58,1758.727a3.089,3.089,0,1,1-3.089-3.088A3.089,3.089,0,0,1,2290.58,1758.727Z" transform="translate(-2280.557 -1687.449)" fill="#6139bc"/>
          <g id="Grupo_25811" data-name="Grupo 25811" transform="translate(23.207 76.521)">
            <path id="Trazado_1140" data-name="Trazado 1140" d="M2376.086,1795.522a3.088,3.088,0,1,1-3.088-3.088A3.088,3.088,0,0,1,2376.086,1795.522Z" transform="translate(-2369.909 -1792.434)" fill="#7c409c"/>
            <path id="Trazado_1141" data-name="Trazado 1141" d="M2381.455,1795.522a3.088,3.088,0,1,1-3.088-3.088A3.088,3.088,0,0,1,2381.455,1795.522Z" transform="translate(-2374.063 -1792.434)" fill="#6139bc"/>
          </g>
          <path id="Trazado_1142" data-name="Trazado 1142" d="M2281.96,1754.491l3.417,3.178a3.974,3.974,0,0,0,1.181.76l23.01,9.569,4.275-3.076Z" transform="translate(-2278.667 -1686.561)" fill="#7c409c"/>
          <g id="Grupo_25812" data-name="Grupo 25812" transform="translate(35.13)">
            <path id="Trazado_1143" data-name="Trazado 1143" d="M2439.177,1487.909l-1.1-.757c5.044-7.3,14.8-21.685,15.6-23.865a4,4,0,0,0,.01-3.409,4.361,4.361,0,0,0-2.688-1.81l-.07-.017-5.109-1.578c-5.852-2.332-8.354,2.262-8.458,2.459l-.035.059-13.655,20.632-1.111-.735,13.642-20.611c.291-.515,3.421-5.689,10.085-3.05l5,1.543a5.628,5.628,0,0,1,3.552,2.446,5.249,5.249,0,0,1,.085,4.533C2453.869,1466.628,2439.777,1487.041,2439.177,1487.909Z" transform="translate(-2422.565 -1454.48)" fill="#7c409c"/>
          </g>
          <path id="Trazado_1144" data-name="Trazado 1144" d="M2404.868,1579.2l11.306,7.762s2.978,3.009-.441,9.021c-3.008,5.29-19.114,35.3-19.114,35.3s-3.353,6.244-16.411-1.57Z" transform="translate(-2354.669 -1550.959)" fill="#4a2c76"/>
          <path id="Trazado_1145" data-name="Trazado 1145" d="M2320.8,1567.305l-18.272,33.509a8.586,8.586,0,0,1-10.866,3.8l-11.5-4.836-.285-.119-7.2-3.028a8.6,8.6,0,0,1-1.968-1.153c-.138-.107-.271-.218-.4-.332a8.578,8.578,0,0,1-1.584-10.982l19.509-31.194a8.589,8.589,0,0,1,9.891-3.626l2.109.673.5.161h0l.422.135,7.048,2.25.865.276,6.8,2.172a8.577,8.577,0,0,1,2.825,1.528c.052.043.106.087.157.133l.322.291A8.588,8.588,0,0,1,2320.8,1567.305Z" transform="translate(-2267.417 -1527.552)" fill="#744da5"/>
          <path id="Trazado_1146" data-name="Trazado 1146" d="M2299.56,1730a8.581,8.581,0,0,1-7.833.6l-11.5-4.835-.285-.119-7.2-3.028a8.619,8.619,0,0,1-1.968-1.153c-.138-.107-.271-.218-.4-.332-2.133-1.888-3.711-6.124-2.386-9.334,0,0,24.392,10.062,29.127,13.014C2299.56,1726.337,2299.56,1728.5,2299.56,1730Z" transform="translate(-2267.484 -1653.536)" fill="#6139bc"/>
          <g id="Grupo_25816" data-name="Grupo 25816" transform="translate(2.269 22.469)">
            <g id="Grupo_25813" data-name="Grupo 25813">
              <path id="Trazado_1147" data-name="Trazado 1147" d="M2308.912,1554.008c-.064.01-6.769.974-8.686,3.522-1.971,2.619-21.367,34.671-21.562,34.995a8.6,8.6,0,0,0,.125,6.891l-.327-.243c-.138-.107-.271-.218-.4-.332a7.719,7.719,0,0,1,.2-6.558c.8-1.323,19.605-32.4,21.589-35.035,1.739-2.311,6.59-3.28,8.137-3.537l.5.161h0Z" transform="translate(-2277.438 -1553.712)" fill="#eaeaea"/>
            </g>
            <g id="Grupo_25814" data-name="Grupo 25814" transform="translate(10.051 2.546)">
              <path id="Trazado_1148" data-name="Trazado 1148" d="M2351.163,1565.232a11.263,11.263,0,0,0-7.233,4.991c-2.787,4.493-20.578,38.178-20.757,38.517l-.013.025-.017.02a4.225,4.225,0,0,0-.6,3.508l-.288-.121-.285-.119a4.061,4.061,0,0,1,.8-3.554c.55-1.041,18-34.065,20.762-38.522a11.708,11.708,0,0,1,6.768-5.02Z" transform="translate(-2321.828 -1564.956)" fill="#eaeaea"/>
            </g>
            <g id="Grupo_25815" data-name="Grupo 25815" transform="translate(20.798 6.523)">
              <path id="Trazado_1149" data-name="Trazado 1149" d="M2397.986,1582.943a9.764,9.764,0,0,0-2.814.828,10.721,10.721,0,0,0-4.522,4.089c-2.786,4.491-19.936,38.313-20.109,38.652l-.013.027-.019.021a5.753,5.753,0,0,0-.4,3.884l-.724-.3a6.119,6.119,0,0,1,.746-3.864c.548-1.081,17.352-34.208,20.116-38.665a10.733,10.733,0,0,1,7.256-5.092c.053.044.106.087.158.133Z" transform="translate(-2369.292 -1582.519)" fill="#eaeaea"/>
            </g>
          </g>
        </g>
        <g id="man" transform="translate(55.676)">
          <path id="Trazado_1150" data-name="Trazado 1150" d="M2738.624,1435.584s4.232,1.621,4.785,2.209c.917.976,2.676,4.291,1.758,5.007-.333.26-1.381-1.154-2.224-1.772a16.347,16.347,0,0,0-2.16-.9c-.156.488,2.495,1.761,2.214,2.14s-2.139-.6-3.08-.821-1.412-1.563-1.882-2.554a12.888,12.888,0,0,1-.731-2.873Z" transform="translate(-2686.584 -1370.476)" fill="#ffb792"/>
          <g id="Grupo_25818" data-name="Grupo 25818" transform="translate(0 68.731)">
            <path id="Trazado_1151" data-name="Trazado 1151" d="M2515.343,1764.721s-2.453,2.273-1.974,3.889,2.692,2.693,2.991,4.667,1.5,3.051,2.573,3.051h5.135s.793-1.39-1.122-1.808-2.637-2.739-2.517-4.893a38.556,38.556,0,0,0-.179-5.025l-4.069-.957Z" transform="translate(-2513.307 -1692.987)" fill="#4a2c76"/>
            <path id="Trazado_1152" data-name="Trazado 1152" d="M2654.642,1788.935s-.6,4.786.479,5.325,13.94.359,13.94.359,0-1.615-2.214-1.974-6.1-1.676-6.761-4.607S2654.642,1788.935,2654.642,1788.935Z" transform="translate(-2622.512 -1711.002)" fill="#4a2c76"/>
            <path id="Trazado_1153" data-name="Trazado 1153" d="M2637.207,1468.7s-.726,9.07-1.581,19.971c-1.161,14.809-2.558,33-2.7,36.447-.239,5.984-1.2,15.556-1.2,15.556s-2.272,2.274-6.82,1.316a156.571,156.571,0,0,1-5.211-28.122q-.027-.356-.053-.715c-1.077-14.718-2.751-45.709-2.751-45.709Z" transform="translate(-2593.442 -1463.851)" fill="#74daee"/>
            <path id="Trazado_1154" data-name="Trazado 1154" d="M2637.207,1468.7s-.726,9.07-1.581,19.971l-15.924,25.2q-.027-.356-.053-.715c-1.077-14.718-2.751-45.709-2.751-45.709Z" transform="translate(-2593.442 -1463.851)" fill="#41b8e1"/>
            <path id="Trazado_1155" data-name="Trazado 1155" d="M2560.711,1457.51s-13.1,32.846-21.718,48.281-11.307,19.744-11.307,19.744-4.936-1.974-5.385-3.321c0,0,3.294-29.8,9.064-37.064,3.26-4.105,7.09-16.423,7.269-20.73s1.167-12.833,1.167-12.833Z" transform="translate(-2520.264 -1451.587)" fill="#74daee"/>
          </g>
          <path id="Trazado_1156" data-name="Trazado 1156" d="M2632.142,1219.63c-5.121,1.615-13.285-3-13.285-3s2.616-2.229,3.548-7.36a15.558,15.558,0,0,0,.231-3.292l3.51,2.826,3.139,2.53s-.007.939-.194,2.622c-.09.794-.22,1.754-.407,2.857A12.218,12.218,0,0,1,2632.142,1219.63Z" transform="translate(-2594.958 -1192.857)" fill="#ffb792"/>
          <path id="Trazado_1157" data-name="Trazado 1157" d="M2644.746,1310.436a3.047,3.047,0,0,0,1.037-2.194s-8.676-12.415-9.457-13.653-6.617-21.1-6.617-21.1l-14.757-2.99s12.318,25.413,14.358,28.511c3.373,5.12,13.123,12.022,13.123,12.022A2.71,2.71,0,0,0,2644.746,1310.436Z" transform="translate(-2591.937 -1242.775)" fill="#c8d1ce"/>
          <path id="Trazado_1158" data-name="Trazado 1158" d="M2620.969,1297.5a.827.827,0,0,1-.538.205c-1.923-.026-7.53,1.042-12.274.555a35.34,35.34,0,0,1-11.341-3.273c-.5-.226-1.667-.847-1.641-1.411.017-.618.078-1.514.156-2.642a141.268,141.268,0,0,0,.28-18.459c-.082-1.45-.125-2.888-.13-4.3-.039-10.553,2.054-19.834,6.258-22.976.359-.257,2.564.82,4.59,1.819a8.384,8.384,0,0,0,5.512.668l1.768,1.564a17.673,17.673,0,0,1,5.539,8.845c.872,3.512,1.384,9.846,1.667,16.41.128,2.974.232,5.974.257,8.821v.1c.024.282.024.59.024.873C2621.2,1291.6,2621.1,1297.393,2620.969,1297.5Z" transform="translate(-2576.638 -1223.164)" fill="#eaeaea"/>
          <path id="Trazado_1159" data-name="Trazado 1159" d="M2595.865,1344.515a141.386,141.386,0,0,0,.281-18.459c-.082-1.45-.125-2.888-.131-4.3,1.752-4.249,3.183-7.33,3.183-7.33h4.415S2606.85,1336.53,2595.865,1344.515Z" transform="translate(-2577.172 -1276.748)" fill="#c8d1ce"/>
          <g id="Grupo_25819" data-name="Grupo 25819" transform="translate(3.724 22.73)">
            <path id="Trazado_1160" data-name="Trazado 1160" d="M2536.531,1443.862s.384,4.268-.342,4.993-4.694,1.195-5.633.6,1.085-1.414,1.17-2.14-1.431.34-1.925.188,3.016-3.34,3.23-3.937S2536.531,1443.862,2536.531,1443.862Z" transform="translate(-2529.755 -1399.22)" fill="#ffb792"/>
            <path id="Trazado_1161" data-name="Trazado 1161" d="M2540.65,1295.229a14.462,14.462,0,0,0,3.313.184s4.72-14.58,5.328-15.912,14.019-17.1,14.019-17.1l-5.587-13.983s-14.506,24.231-15.979,27.636c-2.434,5.626-3.279,18.241-3.279,18.241A6.075,6.075,0,0,0,2540.65,1295.229Z" transform="translate(-2536.492 -1248.423)" fill="#eaeaea"/>
          </g>
          <path id="Trazado_1162" data-name="Trazado 1162" d="M2641.406,1220.988s-.007.939-.194,2.621c-3.208-.3-6.686-4.685-6.686-4.685l3.741-.466Z" transform="translate(-2607.079 -1202.513)" fill="#f3b092"/>
          <path id="Trazado_1163" data-name="Trazado 1163" d="M2637.265,1181.294s-8.457,1.4-9.251-3.875-2.42-8.655,2.946-9.775,6.72.736,7.414,2.434S2639.445,1180.792,2637.265,1181.294Z" transform="translate(-2601.373 -1162.94)" fill="#ffb792"/>
          <path id="Trazado_1164" data-name="Trazado 1164" d="M2615.474,1165.971c-2.259-2.259-6.114-10.059-4.9-13.16s5.313-4.894,10.625-4.766,5.99,3.7,4.713,4.766-1.654,1.571-3.216,1.571-2.361,4.1-3.786,4.353-2.9-.242-2.257,1.671c.572,1.711-.524,3.649-.762,4.039a.567.567,0,0,0-.066.159C2615.753,1164.921,2615.492,1165.988,2615.474,1165.971Z" transform="translate(-2588.373 -1148.038)" fill="#4a2c76"/>
        </g>
      </g>
      <g id="Grupo_25823" data-name="Grupo 25823" transform="translate(2.166 69.502)">
        <g id="Grupo_25822" data-name="Grupo 25822">
          <path id="Trazado_1165" data-name="Trazado 1165" d="M1524.723,1440.27h-7.92l-.058.033.018-.033.86-1.638s.26-.131.649-.292c.833-.346,2.254-.834,2.98-.494C1522.243,1438.313,1524.435,1439.4,1524.723,1440.27Z" transform="translate(-1475.425 -1386.238)" fill="#ffb792"/>
          <path id="Trazado_1166" data-name="Trazado 1166" d="M1454.449,1342.326a3.466,3.466,0,0,1-1.485,1.912l-.058.033.018-.033h-13.791a9.669,9.669,0,0,1-1.83-2.257,12.44,12.44,0,0,1-.648-1.221,16.664,16.664,0,0,1-1.425-5.915c-.33-4.847-.675-12.839-.864-17.52-.091-2.252-.146-3.736-.146-3.736h0c.083.054,5.455,3.607,6.573,14.569,0,0,.281,8.815,1.266,9.509s11.426,3.519,12.372,4.638A.168.168,0,0,1,1454.449,1342.326Z" transform="translate(-1411.587 -1290.206)" fill="#ff4a1e"/>
          <g id="Grupo_25821" data-name="Grupo 25821">
            <path id="Trazado_1167" data-name="Trazado 1167" d="M1401.627,1301.034s5.151.932,7.061,2.843,6.417,7.545,3.582,26.333a6.718,6.718,0,0,1-6.595,6.208C1399.308,1336.964,1401.627,1301.034,1401.627,1301.034Z" transform="translate(-1386.055 -1280.493)" fill="#ff7042"/>
            <path id="Trazado_1168" data-name="Trazado 1168" d="M1350.6,1463.363c.886,6.165,6.828,22.19,6.655,27.729-.137,4.365-.065,14.448.511,21.146a41.177,41.177,0,0,0,.583,4.523c.511,2.47,1.167,5.315,1.519,7.108.785,4.026.375,6.374,1.016,8.535.706,2.362,8.808,1.931,6.367.5a7.166,7.166,0,0,1-2.766-3c-2.276-5.1.915-27.088,1.866-35.565.122-1.059.209-1.9.245-2.477.317-5.236,3.911-40.119,3.911-40.119C1361.78,1446.882,1349.722,1457.2,1350.6,1463.363Z" transform="translate(-1346.865 -1396.099)" fill="#f2ac8c"/>
            <path id="Trazado_1169" data-name="Trazado 1169" d="M1350.6,1463.322c.886,6.165,6.828,22.19,6.655,27.729-.137,4.365-.065,14.448.511,21.146l8.585-17.905c.122-1.058.209-1.9.245-2.478.317-5.236,4-40.132,4-40.132C1361.871,1446.828,1349.723,1457.157,1350.6,1463.322Z" transform="translate(-1346.866 -1396.058)" fill="#e2a188"/>
            <path id="Trazado_1170" data-name="Trazado 1170" d="M1365.269,1452.315s-7.5,34.462-8.349,39.636-7.679,29.536-6.191,35.641c.878,3.6,2.408,4.666,2.408,4.666.36.66-5.57,1.972-6.048-.555-.608-3.208-.736-7.712-1.627-15.346-1.534-13.145,1.509-20.625,2.246-26.119s-2.476-22.956-.692-28.923C1350.136,1450.872,1357.087,1446.59,1365.269,1452.315Z" transform="translate(-1342.595 -1395.544)" fill="#f2ac8c"/>
            <path id="Trazado_1171" data-name="Trazado 1171" d="M1365.937,1483.175a22.314,22.314,0,0,1-4.311,1.244l-.012,0a37.947,37.947,0,0,1-4.58.57,57.9,57.9,0,0,1-6.187.063l-.547-6.382-.576,2.311-.986,3.956c-.912-.063-1.732-.138-2.426-.21-1.49-.153-2.4-.294-2.4-.294-1.679-13.844.333-22.571,2.609-27.727h0a23.581,23.581,0,0,1,2.133-3.874c.358-.519.691-.949.983-1.3.238-.284.45-.511.624-.691a6.131,6.131,0,0,1,.539-.5c.777.3,1.542.55,2.288.761q.8.227,1.569.392l.025.005q.528.115,1.039.2c.127.022.252.044.377.064q.6.1,1.174.161a25.642,25.642,0,0,0,5.43.054,17.428,17.428,0,0,0,2.186-.342l.091-.022.01.353.183,6.019Z" transform="translate(-1341.246 -1395.997)" fill="#ff7042"/>
            <path id="Trazado_1172" data-name="Trazado 1172" d="M1338.839,1776.577c.245-.616,2.46-1.962,2.46-1.962s1.589,8.339,2.527,8.575a12.77,12.77,0,0,0,4.488.214s1.626.789,1.171,1.587c-.18.315-6.662.293-6.865.068-.558-.62-1.376-4.137-1.988-4.819-.039-.044-.082-.1-.128-.152l-.06,5.016s-.63.09-.63,0a56.08,56.08,0,0,0-.444-6.806A3.009,3.009,0,0,1,1338.839,1776.577Z" transform="translate(-1337.78 -1646.844)" fill="#ff4a1e"/>
            <path id="Trazado_1173" data-name="Trazado 1173" d="M1380.72,1776.577c.245-.616,2.46-1.962,2.46-1.962s1.589,8.339,2.527,8.575a12.77,12.77,0,0,0,4.488.214s1.626.789,1.17,1.587c-.18.315-6.662.293-6.865.068-.552-.613-1.358-4.057-1.967-4.792l-.059,4.837s-.63.09-.63,0a60.927,60.927,0,0,0-.381-6.415C1380.981,1777.84,1380.581,1776.927,1380.72,1776.577Z" transform="translate(-1370.178 -1646.844)" fill="#ff4a1e"/>
            <path id="Trazado_1174" data-name="Trazado 1174" d="M1387.414,1332.058c-.237,1.3-.478,2.417-.683,3.294-.015.063-.029.124-.043.184-.287,1.212-.492,1.911-.492,1.911l-.107.035-.049.017-.091.029q-.731.235-1.432.409a19.2,19.2,0,0,1-6.856.486,17.279,17.279,0,0,1-2.8-.556c-.187-.053-.367-.108-.54-.165l-.025-.007c-.447-.146-.846-.3-1.2-.445a10.6,10.6,0,0,1-1.74-.895l0,0a4.611,4.611,0,0,0,.232-.815,15.973,15.973,0,0,0,.25-2.29c.081-1.57.056-3.534-.029-5.692,0-.063-.005-.126-.007-.189-.11-2.706-.312-5.708-.521-8.622-.161-2.238-.325-4.424-.456-6.385-.04-.6-.078-1.182-.11-1.735-.183-3.094-.232-5.375.042-5.974.417-.909,1.712-1.46,3.09-1.794.2-.048.4-.092.595-.131.027-.006-.059-.223-.031-.229.191-.036.494.142.68.113.08-.013.159-.026.237-.036a22.757,22.757,0,0,1,2.57-.229l.064,0a17.032,17.032,0,0,1,2.112,1.3c.094.067,1.308-.722,1.406-.65a10.884,10.884,0,0,1,3.869,5.44c1.058,3.436,2.613,5.136,2.937,8.527A56.969,56.969,0,0,1,1387.414,1332.058Z" transform="translate(-1362.345 -1281.504)" fill="#eaeaea"/>
            <path id="Trazado_1175" data-name="Trazado 1175" d="M1353.513,1338.593a23.94,23.94,0,0,0,9.961-.626,10.836,10.836,0,0,0,2.643-1.088c2.787-1.714,4.141-14.4,3.659-19.209s-8.556-14.648-8.556-14.648c-1.981,1.469-2.853,4.888-4.041,9.376C1354.319,1323.194,1353.513,1338.593,1353.513,1338.593Z" transform="translate(-1349.153 -1282.031)" fill="#ff7042"/>
            <path id="Trazado_1176" data-name="Trazado 1176" d="M1353.513,1370.625a23.932,23.932,0,0,0,9.961-.626,15.8,15.8,0,0,0,2.55-6.043c1.419-7-4.178-14.6-8.845-19.526C1354.319,1355.226,1353.513,1370.625,1353.513,1370.625Z" transform="translate(-1349.153 -1314.063)" fill="#ff4a1e"/>
            <path id="Trazado_1177" data-name="Trazado 1177" d="M1358.28,1404.514l6.211,4.483a1.728,1.728,0,0,0,2.405-.389l6.927-9.6a1.728,1.728,0,0,0-.388-2.406l-6.211-4.483a1.728,1.728,0,0,0-2.405.389l-6.927,9.6A1.728,1.728,0,0,0,1358.28,1404.514Z" transform="translate(-1352.289 -1350.706)" fill="#4a2c76"/>
            <path id="Trazado_1178" data-name="Trazado 1178" d="M1396.81,1433.946s3.036-.307,3.411.2a2.055,2.055,0,0,1-1.672,2.695,6.318,6.318,0,0,1-3.65-1.194Z" transform="translate(-1381.17 -1383.24)" fill="#f2ac8c"/>
            <path id="Trazado_1179" data-name="Trazado 1179" d="M1346.325,1303.022s-5.4.636-7.737,5.5-4.862,17.376-4.231,18.546,8.193,7.472,14.4,8.283a5.884,5.884,0,0,0,1.26-3.241s-8.373-5.222-9.093-6.662,6.392-13.414,6.3-15.485S1346.325,1303.022,1346.325,1303.022Z" transform="translate(-1334.258 -1282.031)" fill="#ff7042"/>
            <path id="Trazado_1180" data-name="Trazado 1180" d="M1394.622,1283.058a11.823,11.823,0,0,1-.265-2.326c0-.074,0-.15,0-.221,0-.446.024-.831.049-1.128.037-.4.078-.645.078-.645l-.078-.022-3.4-1.037-2.934-.895c0,.052-.005.1-.007.152-.015.341-.032.669-.052.978,0,.093-.01.184-.014.274-.066,1.128-.14,2.057-.218,2.819-.015.135-.027.265-.042.39-.059.522-.118.959-.176,1.324v0a25.542,25.542,0,0,0,3.091,1.152c2.26.657,3.24.395,3.665,0A.981.981,0,0,0,1394.622,1283.058Z" transform="translate(-1375.489 -1261.735)" fill="#ffb792"/>
            <path id="Trazado_1181" data-name="Trazado 1181" d="M1396.06,1282.439c-.026.3-.049.684-.049,1.129,0,.072,0,.146,0,.22-4.428.141-6.423-2.949-6.312-2.962a28.425,28.425,0,0,1,2.956-.091l3.4,1.037.077.023S1396.1,1282.035,1396.06,1282.439Z" transform="translate(-1377.144 -1264.792)" fill="#f3b092"/>
            <path id="Trazado_1182" data-name="Trazado 1182" d="M1372.9,1217.48s-.711-10.133-13.869-6.3c-2.986.871-2.6,9.885,4.633,13.317Z" transform="translate(-1352.066 -1210.317)" fill="#4a2c76"/>
            <path id="Trazado_1183" data-name="Trazado 1183" d="M1390.724,1244.029s-7.68,1.542-8.567-3.255-2.475-7.829,2.391-9.017,6.16.466,6.845,2S1392.7,1243.5,1390.724,1244.029Z" transform="translate(-1370.56 -1226.59)" fill="#ffb792"/>
            <path id="Trazado_1184" data-name="Trazado 1184" d="M1379.34,1224.971a10.928,10.928,0,0,0-1.463.11,6.534,6.534,0,0,0-7.475,2.261c-3.653,4.586,4.232,12.28,4.232,12.28-1.053-1.4-1.357-6.373,2.6-8.86,2.456-1.542,2.555-3.173,2.275-4.19l.109.032a4.019,4.019,0,0,1,3.345,4.042S1384.353,1224.854,1379.34,1224.971Z" transform="translate(-1361.471 -1221.45)" fill="#4a2c76"/>
          </g>
        </g>
      </g>
      <g id="Grupo_25830" data-name="Grupo 25830" transform="translate(379.847 132.888)">
        <g id="Grupo_25825" data-name="Grupo 25825" transform="translate(39.8 29.725)">
          <path id="Trazado_1185" data-name="Trazado 1185" d="M3208.694,1634.141s-5.208-6.077-.321-9.936c0,0,3.57-2.162,6.481-1.986,0,0-4.125,6.917-2.791,7.6s4.041-8.039,4.041-8.039,8.124-.788,10.738.469c0,0-6.945,5.683-5.482,6.021s8.965-5.24,8.965-5.24,7.561,1.286,7.158,5.9-3.009,6.037-4.154,5.914-7.844-2.68-7.99-1.741,3.886,4,6.71,4.148c0,0-5.331,5.879-8.874,4.182s-3.846-4.386-6.054-5.395-4.094-1.006-3.181.023,4.908,2.029,6.171,4.263,2.4,3.741-1.269,3.189-9.624-3.234-9.885-6.305Z" transform="translate(-3199.89 -1621.541)" fill="#4a2c6a"/>
          <g id="Grupo_25824" data-name="Grupo 25824" transform="translate(0 7.482)">
            <path id="Trazado_1186" data-name="Trazado 1186" d="M3226.395,1654.622s-20.537-.791-25.073,5.082a14.855,14.855,0,0,1-4.09,5.739l-.481,1.311s3.559-3.752,4.832-3.979C3201.583,1662.776,3199.592,1655.5,3226.395,1654.622Z" transform="translate(-3192.518 -1654.586)" fill="#4a2c6a"/>
            <path id="Trazado_1187" data-name="Trazado 1187" d="M3182.77,1700.771a12.9,12.9,0,0,0-4.714,9.085l.8.072s1.408-6.023,3.953-8.378S3182.77,1700.771,3182.77,1700.771Z" transform="translate(-3178.056 -1689.914)" fill="#4a2c6a"/>
          </g>
        </g>
        <g id="Grupo_25827" data-name="Grupo 25827" transform="translate(0 13.227)">
          <path id="Trazado_1188" data-name="Trazado 1188" d="M3032.673,1570.132s8.286-4.64,4.419-10.937c0,0-3.093-3.867-6.408-4.861,0,0,1.768,9.39,0,9.611s-1.215-10.606-1.215-10.606-8.727-4.2-12.152-3.867c0,0,5.413,9.169,3.645,8.949s-7.843-9.5-7.843-9.5-8.949-1.657-10.385,3.645.884,7.954,2.209,8.286,9.833.221,9.611,1.325-5.965,2.873-9.169,1.879c0,0,3.535,8.727,8.176,8.285s6.076-3.314,8.948-3.535,4.971.552,3.535,1.326-6.3.253-8.617,2.226-4.2,3.187.11,4.071,12.042.332,13.589-2.983Z" transform="translate(-3002.281 -1548.675)" fill="#7c409c"/>
          <g id="Grupo_25826" data-name="Grupo 25826" transform="translate(4.541 5.548)">
            <path id="Trazado_1189" data-name="Trazado 1189" d="M3022.334,1573.178s23.2,7.512,25.852,15.908a17.625,17.625,0,0,0,2.21,8.065v1.657s-2.431-5.635-3.757-6.408C3046.639,1592.4,3051.831,1585.109,3022.334,1573.178Z" transform="translate(-3022.334 -1573.178)" fill="#4a2c6a"/>
            <path id="Trazado_1190" data-name="Trazado 1190" d="M3142.478,1675.532a15.3,15.3,0,0,1,1.538,12.047l-.921-.248s.894-7.284-.978-10.948S3142.478,1675.532,3142.478,1675.532Z" transform="translate(-3114.417 -1651.559)" fill="#4a2c6a"/>
          </g>
        </g>
        <g id="Grupo_25829" data-name="Grupo 25829" transform="translate(36.394)">
          <path id="Trazado_1191" data-name="Trazado 1191" d="M3170.193,1518.544s-10.922-6.117-5.825-14.417c0,0,4.077-5.1,8.447-6.407,0,0-2.33,12.378,0,12.67s1.6-13.98,1.6-13.98,11.5-5.534,16.02-5.1c0,0-7.136,12.087-4.806,11.8s10.34-12.524,10.34-12.524,11.8-2.185,13.689,4.806-1.165,10.485-2.913,10.922-12.961.292-12.669,1.748,7.863,3.786,12.087,2.475c0,0-4.66,11.5-10.777,10.922s-8.009-4.369-11.8-4.66-6.554.728-4.66,1.747,8.3.334,11.358,2.934,5.534,4.2-.146,5.367-15.874.437-17.912-3.932Z" transform="translate(-3163.012 -1490.261)" fill="#7c409c"/>
          <g id="Grupo_25828" data-name="Grupo 25828" transform="translate(1.412 7.313)">
            <path id="Trazado_1192" data-name="Trazado 1192" d="M3218.851,1522.56s-30.582,9.9-34.077,20.97a23.241,23.241,0,0,1-2.913,10.631v2.184s3.2-7.427,4.951-8.446C3186.812,1547.9,3179.968,1538.288,3218.851,1522.56Z" transform="translate(-3179.005 -1522.56)" fill="#4a2c6a"/>
            <path id="Trazado_1193" data-name="Trazado 1193" d="M3172.1,1657.481a20.17,20.17,0,0,0-2.028,15.88l1.214-.326s-1.178-9.6,1.289-14.431S3172.1,1657.481,3172.1,1657.481Z" transform="translate(-3169.248 -1625.88)" fill="#4a2c6a"/>
          </g>
        </g>
        <path id="Trazado_1194" data-name="Trazado 1194" d="M3120,1742.66a21.4,21.4,0,0,0,21.394-21.395H3098.61A21.4,21.4,0,0,0,3120,1742.66Z" transform="translate(-3076.799 -1668.96)" fill="#ee8914"/>
        <path id="Trazado_1195" data-name="Trazado 1195" d="M3134.179,1742.5a21.407,21.407,0,0,1-24.052-21.231h5.315A21.4,21.4,0,0,0,3134.179,1742.5Z" transform="translate(-3085.708 -1668.96)" fill="#ffe697"/>
        <path id="Trazado_1196" data-name="Trazado 1196" d="M3140.685,1811.544H3097.3a2.64,2.64,0,0,1,2.64-2.64h38.1a2.64,2.64,0,0,1,2.639,2.64Z" transform="translate(-3075.789 -1736.755)" fill="#ee8914"/>
        <rect id="Rectángulo_2687" data-name="Rectángulo 2687" width="43.979" height="0.656" transform="translate(21.108 52.305)" fill="#ee8914"/>
      </g>
    </g>
  </g>
</svg>
