<svg id="procedimiento" xmlns="http://www.w3.org/2000/svg" width="100.663" height="88" viewBox="0 0 100.663 88">
  <g id="Grupo_26389" data-name="Grupo 26389" transform="translate(0 0)">
    <path id="Trazado_2774" data-name="Trazado 2774" d="M434.6,393.682a5.919,5.919,0,1,0,5.919,5.919A5.925,5.925,0,0,0,434.6,393.682Zm0,8.889a2.97,2.97,0,1,1,2.97-2.97A2.973,2.973,0,0,1,434.6,402.571Z" transform="translate(-344.401 -322.613)" fill="#111e61"/>
    <path id="Trazado_2775" data-name="Trazado 2775" d="M91.676,98.837V79.769l4.557-6.337a1.475,1.475,0,0,0-1.2-2.336h-3.36V53.251a10.461,10.461,0,1,0-11.715-12.5H75.08V34.588A2.386,2.386,0,0,0,72.7,32.2H27.6a2.386,2.386,0,0,0-2.383,2.383v6.166H15a6.024,6.024,0,0,0-6.017,6.017v20.4a10.46,10.46,0,0,0,0,20.71v5.4L4.425,99.621a1.475,1.475,0,0,0,1.2,2.336H8.98v3.682A6.024,6.024,0,0,0,15,111.656H25.221v6.166A2.386,2.386,0,0,0,27.6,120.2h6.212a1.475,1.475,0,1,0,0-2.949H28.171V101.792h43.96v15.464H40.7a1.475,1.475,0,1,0,0,2.949h32a2.386,2.386,0,0,0,2.383-2.383v-6.166h4.955A10.461,10.461,0,1,0,91.676,98.837Zm.483-24.792L90.2,76.768l-1.958-2.723ZM90.2,35.383A7.513,7.513,0,1,1,82.688,42.9,7.521,7.521,0,0,1,90.2,35.383ZM8.5,99.007l1.958-2.723,1.958,2.723Zm40.178-.165H27.6a2.386,2.386,0,0,0-2.383,2.383v7.481H15a3.072,3.072,0,0,1-3.068-3.068v-3.682h3.361a1.475,1.475,0,0,0,1.2-2.336L11.93,93.281V87.887a10.389,10.389,0,0,0,7.933-5.768,1.475,1.475,0,1,0-2.649-1.3,7.514,7.514,0,1,1,.348-5.751,1.475,1.475,0,0,0,2.787-.964,10.467,10.467,0,0,0-8.42-6.938v-20.4A3.072,3.072,0,0,1,15,43.7H25.221v7.481A2.386,2.386,0,0,0,27.6,53.567H48.676v9.16H27.6a2.386,2.386,0,0,0-2.383,2.383V87.844A2.386,2.386,0,0,0,27.6,90.227H48.676ZM72.131,65.677v21.6H28.171v-21.6Zm7.621,43.03H75.08v-7.481A2.386,2.386,0,0,0,72.7,98.843H51.625V90.227H72.7a2.386,2.386,0,0,0,2.383-2.383V65.111A2.386,2.386,0,0,0,72.7,62.728H51.625v-9.16h9.127a1.475,1.475,0,1,0,0-2.949H28.171V35.154h43.96V50.618h-4.5a1.475,1.475,0,0,0,0,2.949H72.7a2.386,2.386,0,0,0,2.383-2.383V43.7h4.694a10.478,10.478,0,0,0,8.953,9.548V71.1h-3.36a1.475,1.475,0,0,0-1.2,2.336l4.557,6.337V98.837A10.477,10.477,0,0,0,79.752,108.707Zm10.45,8a7.513,7.513,0,1,1,7.513-7.513A7.521,7.521,0,0,1,90.2,116.706Z" transform="translate(0 -32.205)" fill="#111e61"/>
    <path id="Trazado_2776" data-name="Trazado 2776" d="M434.6,68.312a5.919,5.919,0,1,0-5.919-5.919A5.926,5.926,0,0,0,434.6,68.312Zm0-8.889a2.97,2.97,0,1,1-2.97,2.97A2.973,2.973,0,0,1,434.6,59.423Z" transform="translate(-344.401 -51.703)" fill="#111e61"/>
    <path id="Trazado_2777" data-name="Trazado 2777" d="M29.025,232.618a5.919,5.919,0,1,0,5.919,5.919A5.926,5.926,0,0,0,29.025,232.618Zm0,8.889a2.97,2.97,0,1,1,2.97-2.97A2.973,2.973,0,0,1,29.025,241.507Z" transform="translate(-18.563 -193.215)" fill="#111e61"/>
    <path id="Trazado_2778" data-name="Trazado 2778" d="M165.181,224.7h32.981a1.475,1.475,0,0,0,0-2.949H165.181a1.475,1.475,0,1,0,0,2.949Z" transform="translate(-131.52 -184.481)" fill="#111e61"/>
    <path id="Trazado_2779" data-name="Trazado 2779" d="M165.181,252.835h32.981a1.475,1.475,0,0,0,0-2.949H165.181a1.475,1.475,0,1,0,0,2.949Z" transform="translate(-131.52 -207.088)" fill="#111e61"/>
    <path id="Trazado_2780" data-name="Trazado 2780" d="M220.033,278.026H201.226a1.475,1.475,0,1,0,0,2.949h18.807a1.475,1.475,0,1,0,0-2.949Z" transform="translate(-160.478 -229.696)" fill="#111e61"/>
    <path id="Trazado_2781" data-name="Trazado 2781" d="M199.635,65.6a1.474,1.474,0,0,0-1.475-1.475H165.18a1.475,1.475,0,1,0,0,2.949H198.16A1.474,1.474,0,0,0,199.635,65.6Z" transform="translate(-131.519 -57.847)" fill="#111e61"/>
    <path id="Trazado_2782" data-name="Trazado 2782" d="M221.483,92.262H203.616a1.475,1.475,0,0,0,0,2.949h17.868a1.475,1.475,0,1,0,0-2.949Z" transform="translate(-162.398 -80.454)" fill="#111e61"/>
    <path id="Trazado_2783" data-name="Trazado 2783" d="M172.9,406.468v-7.115a2.067,2.067,0,0,0-2.064-2.064h-7.115a2.067,2.067,0,0,0-2.064,2.064v7.115a2.067,2.067,0,0,0,2.064,2.064h7.115A2.067,2.067,0,0,0,172.9,406.468Zm-2.949-.885h-5.345v-5.345h5.345Z" transform="translate(-129.876 -325.511)" fill="#111e61"/>
    <path id="Trazado_2784" data-name="Trazado 2784" d="M235.164,407.44h19.624a1.475,1.475,0,1,0,0-2.949H235.164a1.475,1.475,0,0,0,0,2.949Z" transform="translate(-187.744 -331.297)" fill="#111e61"/>
    <path id="Trazado_2785" data-name="Trazado 2785" d="M235.164,433.165h19.624a1.475,1.475,0,1,0,0-2.949H235.164a1.475,1.475,0,1,0,0,2.949Z" transform="translate(-187.744 -351.964)" fill="#111e61"/>
  </g>
</svg>
