<svg id="vinculo-de-retroceso" xmlns="http://www.w3.org/2000/svg" width="87.529" height="87.529" viewBox="0 0 87.529 87.529">
  <path id="Trazado_2786" data-name="Trazado 2786" d="M84.85,22.755a25.155,25.155,0,0,0-2.615-6.3l1.738-3.474-7.43-7.43L73.07,7.294a25.26,25.26,0,0,0-6.3-2.615L65.547,1h-10.5L53.814,4.679a25.154,25.154,0,0,0-6.3,2.615L44.043,5.556l-7.43,7.43,1.738,3.474a25.26,25.26,0,0,0-2.615,6.3l-3.678,1.225v10.5l3.025,1.026-7.573,7.573a13.392,13.392,0,0,0-1.868,2.358,13.448,13.448,0,0,0-2.325,1.837L4.922,65.67A13.391,13.391,0,0,0,23.859,84.607L42.253,66.213a13.392,13.392,0,0,0,1.868-2.358,13.448,13.448,0,0,0,2.325-1.837l7.542-7.542,1.079,2.993H65.547l1.227-3.679a25.154,25.154,0,0,0,6.3-2.615l3.474,1.738,7.43-7.43L82.237,42.01a25.26,25.26,0,0,0,2.615-6.3l3.678-1.225v-10.5ZM31.648,64.84,17.869,78.619a4.92,4.92,0,1,1-6.957-6.959L24.688,57.884A13.286,13.286,0,0,0,31.648,64.84Zm8.61-.624-18.4,18.4A10.568,10.568,0,0,1,6.918,67.666L23.7,50.882a13.631,13.631,0,0,0-.114,1.669,13.782,13.782,0,0,0,.188,2.252L8.914,69.664A7.744,7.744,0,0,0,19.865,80.615l18.4-18.4a7.742,7.742,0,0,0-4.728-13.182l2.359-2.359a10.538,10.538,0,0,1,4.367,17.537ZM32.125,51.873a4.805,4.805,0,0,1,5.514,5.548,4.805,4.805,0,0,1-5.514-5.548Zm5.992-7.419L51.9,30.675a4.92,4.92,0,1,1,6.957,6.959L45.077,51.41a13.286,13.286,0,0,0-6.96-6.956Zm7.945,13.958a13.632,13.632,0,0,0,.114-1.669,13.782,13.782,0,0,0-.188-2.252L60.85,39.63A7.744,7.744,0,0,0,49.9,28.679l-18.4,18.4a7.742,7.742,0,0,0,4.728,13.182l-2.359,2.359a10.537,10.537,0,0,1-4.367-17.537L47.9,26.684A10.568,10.568,0,1,1,62.847,41.628ZM43.5,27.088A16.933,16.933,0,1,1,62.441,46.025l2.4-2.4A13.391,13.391,0,1,0,45.905,24.687Zm42.2,5.365-3.239,1.08-.178.774a22.405,22.405,0,0,1-2.86,6.891l-.421.673,1.53,3.059-4.552,4.552-3.059-1.53-.673.421a22.405,22.405,0,0,1-6.891,2.86l-.774.178-1.079,3.237h-6.46L56.2,52.271l3.3-3.3c.265.01.528.031.8.031A19.765,19.765,0,1,0,40.529,29.235c0,.268.02.531.03.8l-3.248,3.248-2.428-.823V26.016l3.239-1.08.178-.774a22.405,22.405,0,0,1,2.86-6.891l.421-.673-1.53-3.056L44.6,8.991l3.059,1.53.673-.421a22.405,22.405,0,0,1,6.891-2.86L56,7.062l1.079-3.239h6.436l1.08,3.239.774.178a22.405,22.405,0,0,1,6.891,2.86l.673.421,3.059-1.53,4.552,4.552L79.011,16.6l.421.673a22.405,22.405,0,0,1,2.86,6.891l.178.774,3.236,1.079Z" transform="translate(-1 -1)" fill="#111e61"/>
  <path id="Trazado_2787" data-name="Trazado 2787" d="M56.529,41A15.529,15.529,0,1,0,72.059,56.529,15.548,15.548,0,0,0,56.529,41Zm0,28.235A12.706,12.706,0,1,1,69.235,56.529,12.72,12.72,0,0,1,56.529,69.235Z" transform="translate(15.471 15.47)" fill="#111e61"/>
  <path id="Trazado_2788" data-name="Trazado 2788" d="M51.526,58.589l-3.237-3.237-2,2,5.233,5.233L63.819,50.289l-2-2Z" transform="translate(17.65 18.473)" fill="#111e61"/>
  <path id="Trazado_2789" data-name="Trazado 2789" d="M7.818,41.641h2.824v-24H8.4l5.063-5.063,5.063,5.063H16.288v24h2.824V20.465h6.232L13.465,8.586,1.586,20.465H7.818Z" transform="translate(-0.759 2.124)" fill="#111e61"/>
  <path id="Trazado_2790" data-name="Trazado 2790" d="M46.136,11.349A14.25,14.25,0,0,0,43,11v2.824a11.347,11.347,0,0,1,2.512.28Z" transform="translate(16.294 3.118)" fill="#111e61"/>
  <path id="Trazado_2791" data-name="Trazado 2791" d="M52.784,24.66h2.824a14.077,14.077,0,0,0-7.643-12.549l-1.3,2.509A11.264,11.264,0,0,1,52.784,24.66Z" transform="translate(17.804 3.575)" fill="#111e61"/>
</svg>
