<svg id="Grupo_53397" data-name="Grupo 53397" xmlns="http://www.w3.org/2000/svg" width="88" height="88" viewBox="0 0 88 88">
  <g id="objetivo_1_" data-name="objetivo (1)" transform="translate(0 0)">
    <path id="Trazado_2753" data-name="Trazado 2753" d="M381.15,54.358a1.719,1.719,0,0,0-1.719-1.719h-.01a1.719,1.719,0,1,0,1.729,1.719Z" transform="translate(-312.789 -43.592)" fill="#111e61"/>
    <path id="Trazado_2754" data-name="Trazado 2754" d="M435.122,54.358a1.719,1.719,0,0,0-1.719-1.719h-.01a1.719,1.719,0,1,0,1.729,1.719Z" transform="translate(-357.484 -43.592)" fill="#111e61"/>
    <path id="Trazado_2755" data-name="Trazado 2755" d="M327.18,54.358a1.719,1.719,0,0,0-1.719-1.719h-.01a1.719,1.719,0,1,0,1.729,1.719Z" transform="translate(-268.096 -43.592)" fill="#111e61"/>
    <path id="Trazado_2756" data-name="Trazado 2756" d="M60.263,54.358a1.719,1.719,0,0,0,1.719,1.719H87.808a1.719,1.719,0,1,0,0-3.437H61.982A1.719,1.719,0,0,0,60.263,54.358Z" transform="translate(-49.905 -43.592)" fill="#111e61"/>
    <path id="Trazado_2757" data-name="Trazado 2757" d="M82.486,0h-53.8a1.719,1.719,0,1,0,0,3.437h53.8a2.079,2.079,0,0,1,2.076,2.076V18.1H3.437V5.514A2.079,2.079,0,0,1,5.514,3.437h7.732a1.719,1.719,0,1,0,0-3.437H5.514A5.52,5.52,0,0,0,0,5.514V69.156A5.52,5.52,0,0,0,5.514,74.67H27a24.672,24.672,0,0,0,15.281,6.716v4.895a1.719,1.719,0,1,0,3.437,0V81.386A24.678,24.678,0,0,0,61,74.67H82.486A5.52,5.52,0,0,0,88,69.156V5.514A5.52,5.52,0,0,0,82.486,0ZM22.746,58.4h5.615A15.762,15.762,0,0,0,42.279,72.325V77.94A21.357,21.357,0,0,1,22.746,58.4Zm36.892-3.437A15.762,15.762,0,0,0,45.716,41.048V35.433A21.357,21.357,0,0,1,65.254,54.965ZM44,68.982a12.3,12.3,0,1,1,12.3-12.3A12.309,12.309,0,0,1,44,68.982ZM42.279,41.048A15.759,15.759,0,0,0,28.361,54.965H22.746A21.355,21.355,0,0,1,42.279,35.433v5.615Zm3.437,31.277A15.764,15.764,0,0,0,59.639,58.4h5.615A21.36,21.36,0,0,1,45.716,77.94Zm36.77-1.092H64.023A24.62,24.62,0,0,0,68.7,58.4h4.895a1.719,1.719,0,1,0,0-3.437H68.7A24.8,24.8,0,0,0,45.716,31.987V27.092a1.719,1.719,0,0,0-3.437,0v4.895A24.8,24.8,0,0,0,19.3,54.965H14.405a1.719,1.719,0,1,0,0,3.437H19.3a24.623,24.623,0,0,0,4.676,12.83H5.514a2.079,2.079,0,0,1-2.077-2.076V21.537H84.562v47.62a2.079,2.079,0,0,1-2.076,2.076Z" transform="translate(0 0)" fill="#111e61"/>
    <path id="Trazado_2758" data-name="Trazado 2758" d="M230.41,298.345a1.719,1.719,0,0,0-2.421.214l-5.185,6.188-2.024-1.714a1.719,1.719,0,1,0-2.222,2.623l3.342,2.831a1.719,1.719,0,0,0,1.111.407,1.765,1.765,0,0,0,1.318-.615l6.295-7.512a1.719,1.719,0,0,0-.214-2.421Z" transform="translate(-180.491 -246.735)" fill="#111e61"/>
    <path id="Trazado_2759" data-name="Trazado 2759" d="M113.714,3.437h0a1.719,1.719,0,1,0-1.724-1.719A1.717,1.717,0,0,0,113.719,3.437Z" transform="translate(-92.746 0)" fill="#111e61"/>
  </g>
</svg>
