<svg id="impacto" xmlns="http://www.w3.org/2000/svg" width="83.674" height="87.529" viewBox="0 0 83.674 87.529">
  <g id="Grupo_26381" data-name="Grupo 26381" transform="translate(39.74 8.461)">
    <path id="Trazado_2767" data-name="Trazado 2767" d="M248.174,116.587a1.281,1.281,0,0,1-1.2-1.729l12.247-32.685a4.133,4.133,0,0,0-5.79-5.111l-7.824,4.1a1.28,1.28,0,0,1-1.793-1.583l7.89-21.056a1.28,1.28,0,0,1,2.3-.2l2.543,4.358a.129.129,0,0,0,.176.046l5.6-3.266a.128.128,0,0,0,.046-.176l-4.6-7.875a1.28,1.28,0,0,1,2.211-1.29l4.6,7.875a2.689,2.689,0,0,1-.966,3.677l-5.6,3.266a2.692,2.692,0,0,1-3.677-.967l-1.185-2.03L247.39,77.342l4.854-2.546a6.693,6.693,0,0,1,9.376,8.276l-12.247,32.685a1.281,1.281,0,0,1-1.2.831Z" transform="translate(-243.735 -49.493)" fill="#111e61"/>
  </g>
  <g id="Grupo_26382" data-name="Grupo 26382" transform="translate(24.916 0)">
    <path id="Trazado_2768" data-name="Trazado 2768" d="M170.468,87.529a3.2,3.2,0,0,1-1.124-.205l-6.226-2.333a3.2,3.2,0,0,1-1.873-4.118L171.67,53.052,166.815,55.6a6.693,6.693,0,0,1-9.378-8.27l11.614-30.992-2.234.754A2.692,2.692,0,0,1,163.41,15.4l-2.071-6.139a2.692,2.692,0,0,1,1.688-3.407L179.878.169a3.264,3.264,0,0,1,3.848,1.442L185.2,4.133a1.28,1.28,0,0,1-2.211,1.291L181.515,2.9a.7.7,0,0,0-.819-.307L163.845,8.28a.129.129,0,0,0-.081.163l2.071,6.139a.129.129,0,0,0,.163.081l4.787-1.615a1.28,1.28,0,0,1,1.608,1.662L159.835,48.224a4.133,4.133,0,0,0,5.792,5.106l7.823-4.1a1.28,1.28,0,0,1,1.793,1.583l-11.6,30.961a.639.639,0,0,0,.374.823l6.226,2.333a.639.639,0,0,0,.823-.375l2.063-5.505a1.28,1.28,0,0,1,2.4.9l-2.063,5.505a3.215,3.215,0,0,1-2.995,2.079Z" transform="translate(-157.019 0)" fill="#111e61"/>
  </g>
  <g id="Grupo_26383" data-name="Grupo 26383" transform="translate(53.433 60.801)">
    <path id="Trazado_2769" data-name="Trazado 2769" d="M336.544,378.864a2.124,2.124,0,0,1-1.655-.787l-3.246-3.992h-3.458a4.357,4.357,0,0,1-4.352-4.352V360a4.357,4.357,0,0,1,4.352-4.352H344.9A4.357,4.357,0,0,1,349.256,360v9.729a4.357,4.357,0,0,1-4.352,4.352h-3.458l-3.246,3.992a2.126,2.126,0,0,1-1.656.787Zm-8.36-20.652A1.794,1.794,0,0,0,326.393,360v9.729a1.794,1.794,0,0,0,1.792,1.792h3.742a1.954,1.954,0,0,1,1.523.724l3.095,3.806,3.095-3.806a1.955,1.955,0,0,1,1.523-.724H344.9a1.794,1.794,0,0,0,1.792-1.792V360a1.794,1.794,0,0,0-1.792-1.792Z" transform="translate(-323.833 -355.652)" fill="#111e61"/>
  </g>
  <g id="Grupo_26385" data-name="Grupo 26385" transform="translate(0 27.766)">
    <g id="Grupo_26384" data-name="Grupo 26384">
      <path id="Trazado_2770" data-name="Trazado 2770" d="M23.728,182.877a1.855,1.855,0,0,1-1.487-.75,20.029,20.029,0,0,0-2.826-3.091,18.613,18.613,0,0,0-4.289-3.016,7.214,7.214,0,0,1-1.536-11.681,1.28,1.28,0,1,1,1.74,1.877,4.654,4.654,0,0,0,.991,7.539,20.772,20.772,0,0,1,4.136,2.783l.656.582a22.624,22.624,0,0,1,2.614,2.743,22.586,22.586,0,0,1,2.615-2.743l.656-.581a20.791,20.791,0,0,1,4.136-2.783,4.658,4.658,0,1,0-6.083-6.646,1.57,1.57,0,0,1-1.323.721h0a1.57,1.57,0,0,1-1.323-.721,4.7,4.7,0,0,0-2.261-1.831,1.28,1.28,0,0,1,.909-2.393,7.269,7.269,0,0,1,2.672,1.782,7.218,7.218,0,1,1,8.6,11.351,18.6,18.6,0,0,0-4.289,3.016,20.038,20.038,0,0,0-2.826,3.091,1.855,1.855,0,0,1-1.486.751s0,0,0,0Z" transform="translate(-11.275 -162.417)" fill="#111e61"/>
    </g>
  </g>
  <g id="Grupo_26388" data-name="Grupo 26388" transform="translate(61.009 66.325)">
    <g id="Grupo_26386" data-name="Grupo 26386">
      <path id="Trazado_2771" data-name="Trazado 2771" d="M377.136,390.529h-7.712a1.28,1.28,0,1,1,0-2.56h7.712a1.28,1.28,0,1,1,0,2.56Z" transform="translate(-368.144 -387.969)" fill="#111e61"/>
    </g>
    <g id="Grupo_26387" data-name="Grupo 26387" transform="translate(0 5.256)">
      <path id="Trazado_2772" data-name="Trazado 2772" d="M377.136,421.273h-7.712a1.28,1.28,0,0,1,0-2.56h7.712a1.28,1.28,0,0,1,0,2.56Z" transform="translate(-368.144 -418.713)" fill="#111e61"/>
    </g>
  </g>
  <path id="Trazado_2773" data-name="Trazado 2773" d="M388.571,88.036l-2.991-4.478a.888.888,0,0,1-.084-.818,7.8,7.8,0,0,0,.541-2.868,8.021,8.021,0,0,0-6.729-7.906V70.443a1.28,1.28,0,1,0-2.56,0v1.524a8.021,8.021,0,0,0-6.729,7.906,7.807,7.807,0,0,0,.541,2.868.887.887,0,0,1-.083.817l-2.992,4.478a5.418,5.418,0,0,0-.916,3.019,1.621,1.621,0,0,0,1.589,1.815h5.814c0,.038,0,.076,0,.114a4.06,4.06,0,0,0,8.12,0c0-.038,0-.076,0-.114H387.9a1.621,1.621,0,0,0,1.589-1.815,5.419,5.419,0,0,0-.916-3.019ZM378.027,74.423a5.456,5.456,0,0,1,5.45,5.45,5.257,5.257,0,0,1-.363,1.931,3.451,3.451,0,0,0,.238,3.019H372.7a3.45,3.45,0,0,0,.238-3.019,5.25,5.25,0,0,1-.363-1.931,5.456,5.456,0,0,1,5.45-5.45Zm1.5,18.561a1.5,1.5,0,0,1-3,0c0-.038,0-.076.006-.114h2.988C379.524,92.908,379.527,92.946,379.527,92.984Zm-10.3-2.674a2.87,2.87,0,0,1,.387-.853L371,87.382h14.056l1.387,2.076a2.873,2.873,0,0,1,.387.853Z" transform="translate(-305.821 -57.339)" fill="#111e61"/>
</svg>
