<svg xmlns="http://www.w3.org/2000/svg" width="500" height="331.66" viewBox="0 0 500 331.66">
  <g id="Grupo_26682" data-name="Grupo 26682" transform="translate(-231.151 -137.85)">
    <path id="Trazado_3402" data-name="Trazado 3402" d="M309.97,468.6s-59.531-61.058-21.62-132.856,88.784-35.667,86.351-119.251,117.057-90.723,155.082-66.475S567.57,203.451,646.09,193.82s93.492,70.88,73.051,111.9c-29,58.2,80.422,48.641,11.435,163.017Z" transform="translate(-35.872 0)" fill="#ebf3fa"/>
    <path id="Trazado_3403" data-name="Trazado 3403" d="M1543.084,397.469a97.332,97.332,0,0,1-1.562,17.413,96.7,96.7,0,0,1-183.531,21.724,95.1,95.1,0,0,1-4.924-13.9,97.354,97.354,0,0,1-1.138-45.807c.014-.077.033-.15.048-.227a96.932,96.932,0,0,1,37.734-57.51q2.98-2.163,6.134-4.1a96.156,96.156,0,0,1,50.566-14.269q3.689,0,7.306.275a96.02,96.02,0,0,1,47.88,17.018h.005a97.05,97.05,0,0,1,26.518,27.69q2.221,3.508,4.147,7.209a96.229,96.229,0,0,1,10.817,44.485Z" transform="translate(-900.276 -131.141)" fill="#dce8ff"/>
    <path id="Trazado_3404" data-name="Trazado 3404" d="M1422.615,413.039c-3.858,6.11,1.611,16.719-9.963,13.826s-18.648-4.181-19.289,2.247,8.68,6.433,8.68,13.184-4.181,8.984-10.609,5.777-8.28-7.87-15.754-4.977-11.815.965-13.5-4.822a8.459,8.459,0,0,0-1.2-2.532c.015-.077.034-.15.048-.227A96.932,96.932,0,0,1,1398.76,378q2.98-2.163,6.134-4.1a12.716,12.716,0,0,1,9.688,5.054c6.751,8.362,11.25,4.181,9.645,13.825s.964,10.932,6.428,10.609,11.9-.323,12.538,3.858S1426.473,406.929,1422.615,413.039Z" transform="translate(-909.325 -189.986)" fill="#9fbdff" opacity="0.7"/>
    <path id="Trazado_3405" data-name="Trazado 3405" d="M1677.047,794.463s-8.52,2.732-10.77-3.215.321-7.233-7.234-9-8.2-6.912-13.02-6.269-2.411,2.572-8.037,6.751-10.77,2.25-10.609,9.966,8.52,8.921,10.207,13.985-1.206,7.233,2.411,11.091,10.368,2.17,7.233,7.474-7.957,9.4-5.546,17.6.723,8.68,4.823,14.467,12.056,7.716,13.261,3.858-5.546-8.921-3.376-12.779,5.786-1.206,7.233-6.992,7.314-5.787,7.8-9.805-7.073-10.127-4.18-12.7,8.68,4.661,13.181-1.768,1.447-11.574,6.108-17.682S1680.262,790.926,1677.047,794.463Z" transform="translate(-1123.731 -513.543)" fill="#9fbdff" opacity="0.7"/>
    <path id="Trazado_3406" data-name="Trazado 3406" d="M2032.814,628.1a97.331,97.331,0,0,1-1.562,17.413,96.145,96.145,0,0,1-15.258,37.088,11.036,11.036,0,0,1-7.73-.208c-12.056-4.822-3.135-17.842,1.688-24.352s-7.475-3.617-16.4-9.645.965-22.182-8.2-19.53-20.253,6.028-25.558-2.893,4.822-10.368.241-17.843,2.652-11.815,11.814-12.538,7.957-7.233,19.29-8.2,11.091,13.5,23.629,12.538,11.973,1.929,11.973,1.929a5.843,5.843,0,0,1,2.619.55A96.867,96.867,0,0,1,2032.814,628.1Z" transform="translate(-1390.007 -361.775)" fill="#9fbdff" opacity="0.7"/>
    <path id="Trazado_3407" data-name="Trazado 3407" d="M2043.346,424.288c-10.425,5.073-14.612-8.724-23.523-4.576-8.984,4.181-7.412-3.858-14.481-9s-21.218,4.181-20.576-3.858,11.25-5.787,13.5-12.215,12.538-4.822,12.538-4.822a6.962,6.962,0,0,1,1.871-.424s0,0,.005,0a97.042,97.042,0,0,1,26.518,27.69Q2041.42,420.587,2043.346,424.288Z" transform="translate(-1411.356 -202.446)" fill="#9fbdff" opacity="0.7"/>
    <path id="Trazado_3408" data-name="Trazado 3408" d="M1729.941,380.374s5.465-7.885-3.214-10.212-8.52.719-15.271,0-9.4,4.505-4.34,10.212,9.162,16.657,13.744,10.82S1724.556,380.936,1729.941,380.374Z" transform="translate(-1185.787 -186.255)" fill="#9fbdff" opacity="0.7"/>
    <path id="Trazado_3409" data-name="Trazado 3409" d="M2249.713,1466.231c3.844-12.256-15.874-20.253-15.874-20.253s-23.651,10.638-27.412,8.849,18.446-13.044,18.446-13.044c-6.332-4.963-28.811-7.675-28.811-7.675s-12.537,22.028-15.742,19.368,12.1-18.938,12.1-18.938c-7.782-2.212-18.743,1.513-18.743,1.513-15.544,7.542-9.568,34.652-19.561,40.222h0a29.9,29.9,0,0,0-4.783,2.9l1.78,1.137c.451-.384.906-.743,1.366-1.073a.015.015,0,0,1,.008-.006l.02-.014c.3-.2.723-.477,1.247-.814h0s0,0,0,0c1.224-.717,2.093-1.27,2.688-1.689l.006,0c3.764-2.3,11.092-5.439,11.043-5.07-1.123,8.477,13.419,19.3,23.021,22.979s7.43-1.077,5.342-7.883-12.322-11.9-14.178-15.23,3.252-2.213,8.635,1.837,4.6,11.518,13.183,18.228,26.536-6.037,26.536-6.037c-7.564-2.073-16.659-12.786-15.7-15.241s17.577,8.469,20.606,9.484S2245.869,1478.487,2249.713,1466.231Z" transform="translate(-1543.819 -1043.056)" fill="#dfebfd"/>
    <path id="Trazado_3410" data-name="Trazado 3410" d="M357.6,1312.564c1.835-16.375,29.118-15.55,29.118-15.55s22.25,24.733,27.591,24.58-14.894-24.861-14.894-24.861c10-2.546,37.789,5.911,37.789,5.911s3.308,32.345,8.447,30.883-4.39-28.491-4.39-28.491c10.278,1.434,21.214,11.483,21.214,11.483,14.339,16.9-6.715,45.624,2.13,57.336h0a38.35,38.35,0,0,1,4.111,5.884l-2.678.413q-.494-1.027-1.047-1.967a.017.017,0,0,0-.007-.011l-.016-.027c-.247-.385-.6-.934-1.041-1.6l0,0s0,0,0,0c-1.065-1.476-1.8-2.574-2.282-3.374l0-.008c-3.227-4.651-10.2-12.129-10.336-11.669-3.071,10.531-25.742,15.7-38.918,15.049s-8.163-5.112-2.187-12.018,20.623-7.585,24.527-10.534-2.671-4.282-11.085-2.315-11.359,11.137-24.911,14.566-28.018-20.827-28.018-20.827c9.951,1.484,26.173-6.38,26.323-9.755s-25.015.837-29.1.46S355.765,1328.939,357.6,1312.564Z" transform="translate(-101.556 -932.327)" fill="#dfebfd"/>
    <g id="Grupo_26647" data-name="Grupo 26647" transform="translate(629.664 352.592)">
      <path id="Trazado_3411" data-name="Trazado 3411" d="M2287.161,1277.356s7.068-25.209,22.618-38.488a2.907,2.907,0,0,1,4.738,2.729c-.008.045-.016.09-.025.135C2313.608,1246.289,2295.86,1263.322,2287.161,1277.356Z" transform="translate(-2284.416 -1238.169)" fill="#c5ddff" opacity="0.5"/>
      <path id="Trazado_3412" data-name="Trazado 3412" d="M2273.1,1306.141s18.117-30.063,42.731-40.773a3.085,3.085,0,0,1,4.01,1.425c.461.961.518,2.359-.482,4.373C2316.692,1276.535,2288.746,1291.651,2273.1,1306.141Z" transform="translate(-2273.096 -1259.85)" fill="#c5ddff" opacity="0.5"/>
    </g>
    <g id="Grupo_26648" data-name="Grupo 26648" transform="translate(287.938 324.991)">
      <path id="Trazado_3413" data-name="Trazado 3413" d="M636.181,1135.931s-7.067-25.209-22.617-38.488a2.907,2.907,0,0,0-4.738,2.729q.012.067.025.135C609.735,1104.863,627.483,1121.9,636.181,1135.931Z" transform="translate(-591.866 -1096.743)" fill="#c5ddff" opacity="0.5"/>
      <path id="Trazado_3414" data-name="Trazado 3414" d="M569.183,1164.716s-18.117-30.063-42.731-40.773a3.084,3.084,0,0,0-4.01,1.425c-.461.961-.518,2.359.481,4.372C525.588,1135.109,553.534,1150.226,569.183,1164.716Z" transform="translate(-522.123 -1118.424)" fill="#c5ddff" opacity="0.5"/>
    </g>
    <path id="Trazado_3415" data-name="Trazado 3415" d="M1249.324,573.12l-.076,220.515a13.116,13.116,0,0,1-13.119,13.112l-115.273-.04a13.116,13.116,0,0,1-13.112-13.122l.076-220.515a13.116,13.116,0,0,1,13.121-13.11l115.274.04A13.116,13.116,0,0,1,1249.324,573.12Z" transform="translate(-705.513 -339.73)" fill="#c2cfff"/>
    <path id="Trazado_3416" data-name="Trazado 3416" d="M1229.336,801.6l-115.274-.04a14.779,14.779,0,0,1-14.757-14.768l.076-220.515a14.779,14.779,0,0,1,14.767-14.758l115.274.04a14.779,14.779,0,0,1,14.757,14.768l-.076,220.515A14.779,14.779,0,0,1,1229.336,801.6ZM1114.147,554.814a11.483,11.483,0,0,0-11.474,11.466l-.076,220.515a11.483,11.483,0,0,0,11.466,11.474l115.274.039a11.482,11.482,0,0,0,11.474-11.466l.076-220.515a11.483,11.483,0,0,0-11.466-11.474Z" transform="translate(-698.722 -332.937)" fill="#163560"/>
    <g id="Grupo_26652" data-name="Grupo 26652" transform="translate(411.903 230.355)">
      <path id="Trazado_3417" data-name="Trazado 3417" d="M1202.317,663.2l-1.938,1.39-1.948-1.376a2.385,2.385,0,0,1,3.886-.014Z" transform="translate(-1190.405 -652.375)" fill="#fff"/>
      <g id="Grupo_26649" data-name="Grupo 26649" transform="translate(5.26 6.442)">
        <path id="Trazado_3418" data-name="Trazado 3418" d="M1188.975,644.841a5.76,5.76,0,0,0-4.716,2.448l1.23.864a4.26,4.26,0,0,1,6.949-.023l1.225-.878A5.764,5.764,0,0,0,1188.975,644.841Z" transform="translate(-1184.259 -644.841)" fill="#fff"/>
      </g>
      <g id="Grupo_26650" data-name="Grupo 26650" transform="translate(0 0)">
        <path id="Trazado_3419" data-name="Trazado 3419" d="M1167.283,611.833a12.187,12.187,0,0,0-9.978,5.178l1.23.864a10.7,10.7,0,0,1,17.448-.059l1.22-.878A12.189,12.189,0,0,0,1167.283,611.833Z" transform="translate(-1157.305 -611.833)" fill="#fff"/>
      </g>
      <g id="Grupo_26651" data-name="Grupo 26651" transform="translate(2.861 3.525)">
        <path id="Trazado_3420" data-name="Trazado 3420" d="M1179.081,629.894a8.718,8.718,0,0,0-7.116,3.673l1.23.864a7.227,7.227,0,0,1,11.738-.041l1.22-.873A8.716,8.716,0,0,0,1179.081,629.894Z" transform="translate(-1171.965 -629.894)" fill="#fff"/>
      </g>
    </g>
    <g id="Grupo_26653" data-name="Grupo 26653" transform="translate(382.21 167.022)">
      <path id="Trazado_3421" data-name="Trazado 3421" d="M1261.566,423.725a32.97,32.97,0,0,0-19.267-1.82s12.423-.849,19.789,7.036c0,0,5.151-7.9,13.667-9.711C1275.754,419.23,1269.409,418.474,1261.566,423.725Z" transform="translate(-1196.019 -393.456)" fill="#9fc1f4"/>
      <path id="Trazado_3422" data-name="Trazado 3422" d="M1158.221,408.712a25.5,25.5,0,0,0-14.893-1.495s9.612-.6,15.273,5.531c0,0,4.02-6.086,10.614-7.448C1169.215,405.3,1164.311,404.686,1158.221,408.712Z" transform="translate(-1116.363 -382.248)" fill="#9fc1f4"/>
      <path id="Trazado_3423" data-name="Trazado 3423" d="M1056.387,393.567a23.215,23.215,0,0,0-13.6-.786s8.72-.916,14.105,4.443c0,0,3.422-5.691,9.367-7.184C1066.255,390.039,1061.771,389.67,1056.387,393.567Z" transform="translate(-1035.441 -369.985)" fill="#9fc1f4"/>
      <path id="Trazado_3424" data-name="Trazado 3424" d="M1014.387,364.788a15.721,15.721,0,0,0-9.223.328s5.822-1.168,9.792,2.106c0,0,1.948-4.053,5.863-5.435A10.924,10.924,0,0,0,1014.387,364.788Z" transform="translate(-1005.164 -347.254)" fill="#9fc1f4"/>
      <path id="Trazado_3425" data-name="Trazado 3425" d="M1229.4,289.985a15.722,15.722,0,0,0-9.228-.153s5.875-.863,9.669,2.614c0,0,2.157-3.946,6.139-5.122A10.923,10.923,0,0,0,1229.4,289.985Z" transform="translate(-1178.213 -287.323)" fill="#9fc1f4"/>
      <path id="Trazado_3426" data-name="Trazado 3426" d="M1317.069,362.1a22.906,22.906,0,0,0-13.359-1.521s8.641-.424,13.653,5.151c0,0,3.683-5.419,9.622-6.564C1326.985,359.166,1322.587,358.557,1317.069,362.1Z" transform="translate(-1245.445 -345.113)" fill="#9fc1f4"/>
      <path id="Trazado_3427" data-name="Trazado 3427" d="M1279.721,315.314a21.178,21.178,0,0,0-12.395-.939s7.968-.693,12.792,4.282c0,0,3.214-5.135,8.661-6.4C1288.779,312.257,1284.7,311.847,1279.721,315.314Z" transform="translate(-1216.162 -307.379)" fill="#9fc1f4"/>
    </g>
    <g id="Grupo_26654" data-name="Grupo 26654" transform="translate(597.191 240.132)">
      <path id="Trazado_3428" data-name="Trazado 3428" d="M2106.708,679.44c0,9.669,16.283,25.125,16.283,25.125s16.282-15.456,16.282-25.125-7.29-17.51-16.282-17.51S2106.708,669.771,2106.708,679.44Zm6.689-1.027a9.594,9.594,0,1,1,9.594,9.594A9.611,9.611,0,0,1,2113.4,678.413Z" transform="translate(-2106.708 -661.93)" fill="#f78e48"/>
    </g>
    <g id="Grupo_26655" data-name="Grupo 26655" transform="translate(541.592 179.279)">
      <path id="Trazado_3429" data-name="Trazado 3429" d="M1821.823,366.946c0,9.288,15.639,24.133,15.639,24.133s15.64-14.846,15.64-24.133-7-16.819-15.64-16.819S1821.823,357.658,1821.823,366.946Zm6.424-.986a9.215,9.215,0,1,1,9.215,9.215A9.231,9.231,0,0,1,1828.247,365.96Z" transform="translate(-1821.823 -350.127)" fill="#f78e48"/>
    </g>
    <g id="Grupo_26657" data-name="Grupo 26657" transform="translate(591.951 378.19)">
      <path id="Rectángulo_4584" data-name="Rectángulo 4584" d="M0,0H51.472a0,0,0,0,1,0,0V.57a7,7,0,0,1-7,7H7.573A7.573,7.573,0,0,1,0,0V0A0,0,0,0,1,0,0Z" transform="translate(1.766 76.53)" fill="#163560"/>
      <path id="Trazado_3430" data-name="Trazado 3430" d="M2134.862,1395.532v61.428a9.758,9.758,0,0,1-.24,2.157h-7.2a5.657,5.657,0,0,0-5.653,5.659v1.915h-28.226v-1.915a5.648,5.648,0,0,0-5.653-5.659H2080.1a9.773,9.773,0,0,1-.24-2.157v-61.428a9.724,9.724,0,0,1,9.721-9.729h35.561A9.724,9.724,0,0,1,2134.862,1395.532Z" transform="translate(-2079.858 -1382.587)" fill="#f78248"/>
      <g id="Grupo_26656" data-name="Grupo 26656" transform="translate(15.686)">
        <path id="Trazado_3431" data-name="Trazado 3431" d="M2182.4,1372.51c-12.739-5.022-21.625-.079-21.713-.029l-.459-.8a20.194,20.194,0,0,1,6.291-1.994,30.48,30.48,0,0,1,16.219,1.965Z" transform="translate(-2160.23 -1369.327)" fill="#163560"/>
      </g>
      <rect id="Rectángulo_4585" data-name="Rectángulo 4585" width="3.726" height="5.075" transform="translate(5.243 81.259)" fill="#163560"/>
      <path id="Trazado_3432" data-name="Trazado 3432" d="M2102.685,1804.691a2.651,2.651,0,1,1,2.65,2.653A2.652,2.652,0,0,1,2102.685,1804.691Z" transform="translate(-2098.23 -1717.589)" fill="#1f4777"/>
      <path id="Trazado_3433" data-name="Trazado 3433" d="M2108.022,1808.99a1.609,1.609,0,1,1,1.609,1.611A1.609,1.609,0,0,1,2108.022,1808.99Z" transform="translate(-2102.526 -1721.887)" fill="#163560"/>
      <rect id="Rectángulo_4586" data-name="Rectángulo 4586" width="3.726" height="5.075" transform="translate(43.558 81.259)" fill="#163560"/>
      <path id="Trazado_3434" data-name="Trazado 3434" d="M2299.012,1804.691a2.651,2.651,0,1,1,2.65,2.653A2.652,2.652,0,0,1,2299.012,1804.691Z" transform="translate(-2256.241 -1717.589)" fill="#1f4777"/>
      <path id="Trazado_3435" data-name="Trazado 3435" d="M2304.348,1808.99a1.609,1.609,0,1,1,1.609,1.611A1.61,1.61,0,0,1,2304.348,1808.99Z" transform="translate(-2260.535 -1721.887)" fill="#163560"/>
      <path id="Trazado_3436" data-name="Trazado 3436" d="M2131.087,1385.8v74.246a5.634,5.634,0,0,0-1.417-.673V1385.8Z" transform="translate(-2119.948 -1382.587)" fill="#e06832"/>
      <rect id="Rectángulo_4587" data-name="Rectángulo 4587" width="1.417" height="80.887" transform="translate(21.065 3.215)" fill="#e06832"/>
      <rect id="Rectángulo_4588" data-name="Rectángulo 4588" width="1.417" height="80.887" transform="translate(31.651 3.215)" fill="#e06832"/>
      <path id="Trazado_3437" data-name="Trazado 3437" d="M2302.13,1385.8V1460a5.588,5.588,0,0,0-1.417,1.29V1385.8Z" transform="translate(-2257.61 -1382.587)" fill="#e06832"/>
    </g>
    <g id="Grupo_26659" data-name="Grupo 26659" transform="translate(555.6 303.083)">
      <path id="Trazado_3438" data-name="Trazado 3438" d="M1920.639,1207.563c0-.106,1.551-3.314,1.057-3.56s-1.377-.21-1.48.352A19.626,19.626,0,0,0,1920.639,1207.563Z" transform="translate(-1915.011 -1161.045)" fill="#ffb27d"/>
      <path id="Trazado_3439" data-name="Trazado 3439" d="M1899.812,1198.227c0-.315-.363-5.117-1.173-6.073s-2.464-2.315-2.984-2.274-2.555,2.745-1.943,4.817,3.193,4.875,3.193,4.875Z" transform="translate(-1893.598 -1149.795)" fill="#ffb27d"/>
      <g id="Grupo_26658" data-name="Grupo 26658" transform="translate(0.56 33.043)">
        <path id="Trazado_3440" data-name="Trazado 3440" d="M1909.126,1163.367l-4.716,1.413a.3.3,0,0,1-.369-.2l-2.695-8.992a.3.3,0,0,1,.2-.368l4.716-1.413a.3.3,0,0,1,.368.2l2.695,8.992A.3.3,0,0,1,1909.126,1163.367Z" transform="translate(-1900.384 -1153.797)" fill="#f1a34f"/>
        <path id="Trazado_3441" data-name="Trazado 3441" d="M1903.982,1165.209l-4.277,1.282a.525.525,0,0,1-.654-.352l-2.563-8.554a.524.524,0,0,1,.352-.653l4.277-1.282a.525.525,0,0,1,.653.352l2.563,8.554A.524.524,0,0,1,1903.982,1165.209Z" transform="translate(-1896.466 -1155.271)" fill="#d86713"/>
      </g>
      <path id="Trazado_3442" data-name="Trazado 3442" d="M1901.642,1179.88s1.964-3.021,2.444-2.853c.685.24-1.78,4.074-1.78,4.074s1.827-2.865,2.112-2.65c.65.491-.385,2.291-1.411,3.671,0,0,1.837-1.682,1.9-1.379.21,1.061-2.017,3.633-2.017,3.633l-1.244-2.842Z" transform="translate(-1900.072 -1139.445)" fill="#ffb27d"/>
      <path id="Trazado_3443" data-name="Trazado 3443" d="M1894.094,1177.4c.095-.37.574-7.585.78-6.9s.693,4.468.693,4.468Z" transform="translate(-1893.997 -1134.162)" fill="#ffb27d"/>
      <path id="Trazado_3444" data-name="Trazado 3444" d="M1937.85,1153.132a53.461,53.461,0,0,1-2.468,14.176c-1.787,5-4.857,9.055-10.124,7.558q-.808-.23-1.566-.495l-.007,0c-10.7-3.727-14.163-12.26-14.163-12.26.8-1.314,3.105-1.8,3.105-1.8,2.155.116,11.624,4.137,12.229,4.26,2.19.44,3.959-11.6,5.384-15.766s7.249-6.036,7.249-6.036Z" transform="translate(-1906.414 -1111.878)" fill="#739af0"/>
      <path id="Trazado_3445" data-name="Trazado 3445" d="M1994.02,1239.511l-.206,5.652c-1.787,5-4.857,9.056-10.124,7.558q-.808-.23-1.566-.495c.169.022,3.392.458,4.742-.891,1.386-1.388,1.241-5.988,3.8-9.054S1994.02,1239.511,1994.02,1239.511Z" transform="translate(-1964.847 -1189.734)" fill="#5283db"/>
      <path id="Trazado_3446" data-name="Trazado 3446" d="M2005.246,1764.548s2.634,2.4,2.12,4.111-2.89,2.846-3.212,4.933-1.606,3.225-2.762,3.225h-5.512s-.851-1.468,1.2-1.912,2.83-2.9,2.7-5.172a40.081,40.081,0,0,1,.193-5.313l4.367-1.012Z" transform="translate(-1975.778 -1611.392)" fill="#133054"/>
      <path id="Trazado_3447" data-name="Trazado 3447" d="M1895.917,1778.376h16.229a1.175,1.175,0,0,0,1.177-1.14,8.278,8.278,0,0,0-.58-3.5c-.866-1.921-1.414-2.257,2.246-7.846-1.1,1.133-4.067.614-6.57.278-.307.5-4.951,7.672-5.976,8.408C1901.311,1775.389,1896.266,1775.1,1895.917,1778.376Z" transform="translate(-1895.465 -1613.388)" fill="#163560"/>
      <path id="Trazado_3448" data-name="Trazado 3448" d="M1962.647,1361.464s-11.768,22.2-14.965,34.431c-2.482,9.49,12.666,46.209,12.666,46.209a12.128,12.128,0,0,0,3.258-.876,5.286,5.286,0,0,0,2.738-2.87s-.9-26.255-3.964-38.957c-.688-2.851,3.334-12.048,10.123-17.085s9.616-21.243,5.575-22.338S1962.647,1361.464,1962.647,1361.464Z" transform="translate(-1936.906 -1286.478)" fill="#163560"/>
      <path id="Trazado_3449" data-name="Trazado 3449" d="M1970.6,1336.407s-12.371,45.348-16.124,55.531-9.7,31.8-9.7,31.8a15.682,15.682,0,0,0,8.581.931s18.089-26.5,18.876-38.212c.364-5.413,18.559-26.875,16.531-40.87Z" transform="translate(-1934.789 -1267.725)" fill="#1c468a"/>
      <path id="Trazado_3450" data-name="Trazado 3450" d="M2040.695,1188.414a21.538,21.538,0,0,1-7.286,1.717h0c-5.328.447-13.309-.338-23.028-5.749,0,0-2.711-2.234.62-11.734,2.521-7.192,3.75-22.356,6.826-36.175,0,0,9.982-3.132,17.991-.425,6.119,2.069,5.51,11.461,6.64,21.239.1.913.226,1.829.368,2.742C2044.492,1170.734,2040.695,1188.414,2040.695,1188.414Z" transform="translate(-1986.748 -1105.582)" fill="#739af0"/>
      <path id="Trazado_3451" data-name="Trazado 3451" d="M2034.787,1009.013s6.813-11.09,12.089-5.383c0,0,3.449.881,5.425,6.252,2.016,5.479-1.124,10.317-3.22,9.536-1.344-.5-1.974,1.816-1.974,1.816Z" transform="translate(-2007.232 -998.58)" fill="#233862"/>
      <path id="Trazado_3452" data-name="Trazado 3452" d="M2091.377,988.662s.469-4.592,7.178-4.145c0,0-3.173.057-3.854,1.38,0,0,2.307-1.487,3.99-.763s2.4,3.872,2.3,4.875-1.383,4.135-2.514,4.3a5.257,5.257,0,0,1-2.613-.637Z" transform="translate(-2052.777 -984.486)" fill="#233862"/>
      <path id="Trazado_3453" data-name="Trazado 3453" d="M2069.531,1102.836a30.935,30.935,0,0,1-2.322-8.807l-.4.141-6.772,2.385s.474,2.171.777,4.237c.124.845.212,2.352.27,3.669.059,1.346,1.383,1.473,2.729,1.411C2067.391,1105.708,2069.365,1104.372,2069.531,1102.836Z" transform="translate(-2027.552 -1072.65)" fill="#ffb27d"/>
      <path id="Trazado_3454" data-name="Trazado 3454" d="M2060.034,1097.139s.474,2.171.777,4.237c3.885-.672,5.434-4.528,5.995-6.622Z" transform="translate(-2027.552 -1073.234)" fill="#e8945b"/>
      <path id="Trazado_3455" data-name="Trazado 3455" d="M2043.031,1033.347a20.715,20.715,0,0,0,1.672-6.358c.066-2.023-1.992-9.187-9.186-7.076a10.08,10.08,0,0,0-3.913,2.161c-1.44,1.307-3.406,3.964.087,9.971l.979,2.058Z" transform="translate(-2003.166 -1012.689)" fill="#233862"/>
      <path id="Trazado_3456" data-name="Trazado 3456" d="M2035.542,1051s9.252-1.178,8.43-6.929-.182-9.775-6.124-9.266-6.773,2.867-6.966,4.853S2033.114,1051.161,2035.542,1051Z" transform="translate(-2004.081 -1024.952)" fill="#ffb27d"/>
      <path id="Trazado_3457" data-name="Trazado 3457" d="M2044.973,1030.988s3.5,6.381,7.522,6.819,5.555-.843,5.555-.843a11.1,11.1,0,0,1-4.528-5.97S2046.416,1027.5,2044.973,1030.988Z" transform="translate(-2015.43 -1020.667)" fill="#233862"/>
      <path id="Trazado_3458" data-name="Trazado 3458" d="M2031.046,1036.086a8.239,8.239,0,0,0-1.919,3.308c-.249,1.53-.021,4.574-.915,4.6,0,0-2.565-4.31-.8-7.212C2029.285,1033.7,2031.046,1036.086,2031.046,1036.086Z" transform="translate(-2000.798 -1025.307)" fill="#233862"/>
      <path id="Trazado_3459" data-name="Trazado 3459" d="M2046.959,1033.079s2.818,6.8,8.039,8.361c0,0-5.52-3.634-6.607-8.237S2046.959,1033.079,2046.959,1033.079Z" transform="translate(-2017.029 -1022.023)" fill="#233862"/>
      <path id="Trazado_3460" data-name="Trazado 3460" d="M2133.454,1277.405a21.53,21.53,0,0,1-7.286,1.717h0a8.158,8.158,0,0,1,.443-10.166c4.266-5.372-.333-15.284,2.952-20.676,2.287-3.752,4.511-2.878,5.654-2q.158,1.37.368,2.742C2137.251,1259.725,2133.454,1277.405,2133.454,1277.405Z" transform="translate(-2079.507 -1194.573)" fill="#5283db"/>
      <path id="Trazado_3461" data-name="Trazado 3461" d="M2244.466,1368.084s.567,1.321,1.359,1.409a16.617,16.617,0,0,1,4.144,1.458c1.049.622.978,3.407-.071,3.669s-1.573-2.075-4.849-2.7c-1.111-.212-2.73.556-3.385-2.107Z" transform="translate(-2173.734 -1293.22)" fill="#ffb27d"/>
      <path id="Trazado_3462" data-name="Trazado 3462" d="M2136.892,1140.283c9.527,3.5,9.879,20.381,14.126,27.813,4.38,7.665,8.646,17.754,8.646,17.754s-.077.3-1.71.77a6.83,6.83,0,0,1-2.351.19s-9-8.142-11.446-11.354-8.211-18.113-8.211-18.113S2133.111,1138.892,2136.892,1140.283Z" transform="translate(-2087.827 -1109.817)" fill="#739af0"/>
      <path id="Trazado_3463" data-name="Trazado 3463" d="M2242.869,1380.32a3.606,3.606,0,0,0,1.636,2.052c1.4.917,2.531,1.834,2.667,1.267s-.782-1.179-1-2.228S2242.869,1380.32,2242.869,1380.32Z" transform="translate(-2174.704 -1303.068)" fill="#ffb27d"/>
    </g>
    <rect id="Rectángulo_4589" data-name="Rectángulo 4589" width="138.249" height="100.079" transform="translate(403.876 324.133)" fill="#f78e48"/>
    <path id="Trazado_3464" data-name="Trazado 3464" d="M1361.021,1698.144v13.5c0,.166,0,.332-.01.495h-69.133c-.007-.163-.01-.329-.01-.495v-13.5c0-6.158,3.975-11.2,8.834-11.2h51.486C1357.046,1686.946,1361.021,1691.985,1361.021,1698.144Z" transform="translate(-853.704 -1246.769)" fill="#f78248"/>
    <g id="Grupo_26662" data-name="Grupo 26662" transform="translate(464.524 444.59)">
      <g id="Grupo_26660" data-name="Grupo 26660" transform="translate(3.698 4.269)">
        <path id="Trazado_3465" data-name="Trazado 3465" d="M1450.329,1739.926l-4.45-3.984,1.25-1.4,2.874,2.573,3.978-5.69,1.537,1.074Z" transform="translate(-1445.879 -1731.428)" fill="#ffe3ca"/>
      </g>
      <g id="Grupo_26661" data-name="Grupo 26661" transform="translate(0 0)">
        <path id="Trazado_3466" data-name="Trazado 3466" d="M1435.448,1726.591a8.518,8.518,0,1,1,8.518-8.518A8.528,8.528,0,0,1,1435.448,1726.591Zm0-16.6a8.08,8.08,0,1,0,8.079,8.079A8.089,8.089,0,0,0,1435.448,1709.994Z" transform="translate(-1426.93 -1709.556)" fill="#ffe3ca"/>
      </g>
    </g>
    <path id="Trazado_3467" data-name="Trazado 3467" d="M1179.61,708.752s3.2-7.128,10.856-6.336c0,0,11.114-11.881,22.965-1.584,0,0,12.6-2.551,21.928,2.209,6.22,3.174,8.275,6.5,8.275,6.5Z" transform="translate(-763.354 -449.729)" fill="#ebf3fa"/>
    <path id="Trazado_3468" data-name="Trazado 3468" d="M1403.02,658.384l.12,0a1.985,1.985,0,0,0,1.311-.51c1.609-1.471,6.514-5.132,11.8-.927a1.916,1.916,0,0,0,1.47.389c2.04-.3,7.369-.781,11.542,1.454.113.061.225.122.333.183a1.929,1.929,0,0,1-.984,3.6l-25.53-.332A1.93,1.93,0,0,1,1403.02,658.384Z" transform="translate(-941.675 -416.21)" fill="#ebf3fa"/>
    <g id="Grupo_26663" data-name="Grupo 26663" transform="translate(489.09 334.405)">
      <path id="Trazado_3469" data-name="Trazado 3469" d="M1588.831,1220.1h-27.443a8.6,8.6,0,0,1-8.585-8.585v-57.954a8.6,8.6,0,0,1,8.585-8.585h27.443a8.6,8.6,0,0,1,8.585,8.585v57.954A8.6,8.6,0,0,1,1588.831,1220.1Zm-27.443-74.249a7.718,7.718,0,0,0-7.709,7.709v57.954a7.718,7.718,0,0,0,7.709,7.709h27.443a7.718,7.718,0,0,0,7.709-7.709v-57.954a7.718,7.718,0,0,0-7.709-7.709Z" transform="translate(-1552.804 -1144.977)" fill="#ffe3ca"/>
    </g>
    <path id="Rectángulo_4590" data-name="Rectángulo 4590" d="M18.669,0H33.611A18.669,18.669,0,0,1,52.28,18.669v0A18.669,18.669,0,0,1,33.611,37.338H18.669A18.669,18.669,0,0,1,0,18.67v0A18.669,18.669,0,0,1,18.669,0Z" transform="translate(430.68 334.843)" fill="#ffe3ca"/>
    <g id="Grupo_26664" data-name="Grupo 26664" transform="translate(430.242 377.902)">
      <path id="Trazado_3470" data-name="Trazado 3470" d="M1298.262,1399.481h-40.816a6.177,6.177,0,0,1-6.171-6.17v-19.287a6.177,6.177,0,0,1,6.171-6.17h40.816a6.177,6.177,0,0,1,6.171,6.17v19.287A6.177,6.177,0,0,1,1298.262,1399.481Zm-40.816-30.751a5.3,5.3,0,0,0-5.294,5.294v19.287a5.3,5.3,0,0,0,5.294,5.294h40.816a5.3,5.3,0,0,0,5.294-5.294v-19.287a5.3,5.3,0,0,0-5.294-5.294Z" transform="translate(-1251.276 -1367.853)" fill="#ffe3ca"/>
    </g>
    <g id="Grupo_26665" data-name="Grupo 26665" transform="translate(499.988 343.355)">
      <path id="Trazado_3471" data-name="Trazado 3471" d="M1608.644,1203.1c0,6.775,11.408,17.6,11.408,17.6s11.409-10.829,11.409-17.6-5.108-12.269-11.409-12.269S1608.644,1196.33,1608.644,1203.1Zm4.686-.72a6.722,6.722,0,1,1,6.722,6.722A6.734,6.734,0,0,1,1613.33,1202.385Z" transform="translate(-1608.644 -1190.836)" fill="#ffe3ca"/>
    </g>
    <path id="Trazado_3472" data-name="Trazado 3472" d="M1402.4,1244.14l-.54,0a.233.233,0,0,0-.055.008l-4.142,1.131a.22.22,0,0,1-.152-.014l-5.82-2.241c-.149-.072.751-.511.885-.609,1.455-1.059,6.071-3.64,7.806-4.787a.379.379,0,0,0-.123-.685.826.826,0,0,0-.47.028l-8.478,3.078-1.14-.722a.356.356,0,0,0-.491.11l-.558.884a.357.357,0,0,0,.1.486l-1.092.4a.219.219,0,0,1-.16,0l-5.218-2.225a2.17,2.17,0,0,0-1.46-.087l-.6.176a.741.741,0,0,0-.49.951l.069.2a2.313,2.313,0,0,0,1.374,1.417l4.23,1.592a.218.218,0,0,1,.142.2l.038,1.829-.242-.154a.357.357,0,0,0-.491.111l-.559.884a.357.357,0,0,0,.111.491l1.224.776.059,2.853a1.168,1.168,0,0,0,.209.643c.168.241.345.508.407.48a58.3,58.3,0,0,0,2.77-6.212c.037-.1.868.211.966.248l5.768,1.764a.218.218,0,0,1,.139.172l.256,1.683a.838.838,0,0,0,.261.491l.005,0a.219.219,0,0,0,.331-.041l1.341-2.055a.219.219,0,0,1,.176-.1l.62-.019a.219.219,0,0,0,.145-.376l-.151-.146,3.13-2.221A.219.219,0,0,0,1402.4,1244.14Z" transform="translate(-924.768 -884.576)" fill="#f78e48"/>
    <g id="Grupo_26668" data-name="Grupo 26668" transform="translate(460.79 385.182)">
      <g id="Grupo_26666" data-name="Grupo 26666" transform="translate(0 0)">
        <path id="Trazado_3473" data-name="Trazado 3473" d="M1416.332,1422.223a8.533,8.533,0,1,1,8.533-8.533A8.543,8.543,0,0,1,1416.332,1422.223Zm0-16.131a7.6,7.6,0,1,0,7.6,7.6A7.607,7.607,0,0,0,1416.332,1406.092Z" transform="translate(-1407.799 -1405.157)" fill="#ffe3ca"/>
      </g>
      <g id="Grupo_26667" data-name="Grupo 26667" transform="translate(8.012 4.332)">
        <path id="Rectángulo_4591" data-name="Rectángulo 4591" d="M.355,0h0A.355.355,0,0,1,.71.355V4.992a.355.355,0,0,1-.355.355h0A.355.355,0,0,1,0,4.992V.355A.355.355,0,0,1,.355,0Z" transform="translate(0.112)" fill="#ffe3ca"/>
        <path id="Trazado_3474" data-name="Trazado 3474" d="M1450.474,1433.151l-.01-.01a.17.17,0,0,1,0-.241l4.744-4.744a.171.171,0,0,1,.241,0l.01.01a.171.171,0,0,1,0,.241l-4.744,4.744A.171.171,0,0,1,1450.474,1433.151Z" transform="translate(-1450.109 -1427.959)" fill="#ffe3ca"/>
        <path id="Trazado_3475" data-name="Trazado 3475" d="M1448.85,1451.154a.466.466,0,1,1,.466.467A.466.466,0,0,1,1448.85,1451.154Z" transform="translate(-1448.85 -1446.134)" fill="#ffe3ca"/>
      </g>
    </g>
    <g id="Grupo_26669" data-name="Grupo 26669" transform="translate(436.307 383.495)">
      <rect id="Rectángulo_4592" data-name="Rectángulo 4592" width="18.761" height="1.946" transform="translate(0)" fill="#ffe3ca"/>
      <rect id="Rectángulo_4593" data-name="Rectángulo 4593" width="18.761" height="1.959" transform="translate(0 4.442)" fill="#ffe3ca"/>
      <rect id="Rectángulo_4594" data-name="Rectángulo 4594" width="11.25" height="1.959" transform="translate(0 8.897)" fill="#ffe3ca"/>
    </g>
    <g id="Grupo_26670" data-name="Grupo 26670" transform="translate(502.015 383.578)">
      <rect id="Rectángulo_4595" data-name="Rectángulo 4595" width="18.761" height="1.946" transform="translate(0 0)" fill="#ffe3ca"/>
      <rect id="Rectángulo_4596" data-name="Rectángulo 4596" width="18.761" height="1.959" transform="translate(0 4.442)" fill="#ffe3ca"/>
      <rect id="Rectángulo_4597" data-name="Rectángulo 4597" width="11.25" height="1.959" transform="translate(0 8.897)" fill="#ffe3ca"/>
    </g>
    <g id="Grupo_26671" data-name="Grupo 26671" transform="translate(437.471 343.431)">
      <rect id="Rectángulo_4598" data-name="Rectángulo 4598" width="18.761" height="1.946" transform="translate(0 0)" fill="#f78e48"/>
      <rect id="Rectángulo_4599" data-name="Rectángulo 4599" width="18.761" height="1.959" transform="translate(0 4.442)" fill="#f78e48"/>
      <rect id="Rectángulo_4600" data-name="Rectángulo 4600" width="11.25" height="1.959" transform="translate(0 8.897)" fill="#f78e48"/>
    </g>
    <g id="Grupo_26672" data-name="Grupo 26672" transform="translate(558.693 152.339)">
      <path id="Trazado_3476" data-name="Trazado 3476" d="M1964.228,295.958a.439.439,0,0,1-.436-.4c0-.008-.071-.773-.215-2.127a.438.438,0,0,1,.871-.093c.145,1.361.216,2.132.217,2.14a.438.438,0,0,1-.4.476Zm-.45-4.249a.437.437,0,0,1-.434-.389c-.073-.64-.155-1.345-.247-2.108a.438.438,0,1,1,.87-.1c.092.765.175,1.471.248,2.113a.438.438,0,0,1-.386.485Zm-.507-4.218a.438.438,0,0,1-.434-.383q-.127-1-.271-2.1a.438.438,0,1,1,.868-.114q.145,1.1.272,2.107a.437.437,0,0,1-.379.489A.415.415,0,0,1,1963.271,287.491Zm-.555-4.206a.439.439,0,0,1-.434-.378q-.14-1.019-.294-2.1a.438.438,0,1,1,.867-.124q.155,1.08.295,2.1a.438.438,0,0,1-.374.494A.452.452,0,0,1,1962.716,283.285Zm-.6-4.2a.438.438,0,0,1-.433-.374q-.153-1.026-.317-2.093a.438.438,0,1,1,.866-.134q.165,1.069.318,2.1a.438.438,0,0,1-.369.5A.459.459,0,0,1,1962.115,279.087Zm-.648-4.189a.438.438,0,0,1-.432-.369q-.165-1.03-.341-2.088a.438.438,0,0,1,.864-.144q.176,1.061.342,2.094a.438.438,0,0,1-.363.5A.429.429,0,0,1,1961.467,274.9Zm-.7-4.18a.438.438,0,0,1-.431-.364q-.178-1.032-.366-2.084a.438.438,0,1,1,.862-.154q.189,1.055.367,2.089a.439.439,0,0,1-.357.506A.453.453,0,0,1,1960.772,270.718Zm-.747-4.171a.438.438,0,0,1-.43-.358q-.192-1.032-.393-2.078a.438.438,0,0,1,.861-.166q.2,1.049.394,2.084a.438.438,0,0,1-.431.518Zm-.8-4.16a.438.438,0,0,1-.429-.352q-.206-1.032-.422-2.072a.438.438,0,1,1,.857-.178q.216,1.043.424,2.079a.438.438,0,0,1-.344.515A.43.43,0,0,1,1959.225,262.387Zm-.861-4.148a.438.438,0,0,1-.428-.346q-.221-1.028-.453-2.06a.438.438,0,0,1,.855-.192q.232,1.035.454,2.067a.438.438,0,0,1-.336.521A.447.447,0,0,1,1958.364,258.239Zm-.926-4.128a.438.438,0,0,1-.427-.338q-.24-1.032-.491-2.062a.438.438,0,0,1,.851-.207q.251,1.034.493,2.07a.438.438,0,0,1-.327.526A.431.431,0,0,1,1957.438,254.111Zm-1-4.121a.438.438,0,0,1-.424-.33q-.261-1.026-.531-2.046a.438.438,0,0,1,.847-.224q.271,1.024.532,2.055a.438.438,0,0,1-.425.546Zm-1.085-4.095a.438.438,0,0,1-.422-.321q-.283-1.022-.576-2.033a.438.438,0,1,1,.841-.244q.294,1.016.579,2.043a.438.438,0,0,1-.423.555Zm-1.18-4.068a.438.438,0,0,1-.419-.311c-.206-.676-.418-1.354-.63-2.015a.438.438,0,0,1,.835-.267c.213.666.426,1.348.633,2.027a.438.438,0,0,1-.291.547A.443.443,0,0,1,1954.171,241.827Zm-1.294-4.033a.439.439,0,0,1-.415-.3c-.226-.671-.46-1.341-.694-1.993a.438.438,0,0,1,.825-.3c.235.657.47,1.332.7,2.007a.438.438,0,0,1-.415.578Zm-42.991-1.409a.438.438,0,0,1-.407-.6q.227-.58.454-1.141a.438.438,0,1,1,.812.329q-.226.557-.45,1.132A.439.439,0,0,1,1909.885,236.384Zm41.561-2.577a.439.439,0,0,1-.409-.282c-.254-.667-.513-1.327-.771-1.962a.438.438,0,1,1,.812-.33c.26.641.522,1.307.778,1.98a.439.439,0,0,1-.41.594Zm-40.3-.511a.438.438,0,0,1-.4-.611c.284-.661.574-1.315.861-1.942a.438.438,0,1,1,.8.365c-.284.621-.571,1.268-.853,1.923A.438.438,0,0,1,1911.151,233.3Zm38.7-3.412a.439.439,0,0,1-.4-.263c-.287-.658-.579-1.3-.868-1.917a.438.438,0,1,1,.792-.373c.293.621.588,1.274.879,1.94a.438.438,0,0,1-.4.613Zm-36.937-.43a.433.433,0,0,1-.193-.045.438.438,0,0,1-.2-.586c.319-.649.644-1.286.967-1.895a.438.438,0,1,1,.774.411c-.319.6-.64,1.23-.954,1.871A.438.438,0,0,1,1912.914,229.454Zm35.131-3.4a.437.437,0,0,1-.39-.238c-.326-.636-.66-1.258-.993-1.85a.438.438,0,0,1,.764-.43c.338.6.678,1.234,1.009,1.88a.438.438,0,0,1-.389.638Zm-33.148-.333a.438.438,0,0,1-.378-.657c.362-.629.733-1.243,1.1-1.825a.438.438,0,1,1,.74.469c-.362.572-.726,1.175-1.083,1.794A.437.437,0,0,1,1914.9,225.721Zm31.067-3.352a.438.438,0,0,1-.372-.206c-.38-.607-.77-1.192-1.159-1.739a.438.438,0,0,1,.715-.507c.4.561.8,1.16,1.187,1.781a.438.438,0,0,1-.371.671Zm-28.8-.215a.438.438,0,0,1-.357-.69c.422-.6.852-1.175,1.28-1.713a.438.438,0,0,1,.686.545c-.417.525-.838,1.087-1.249,1.672A.439.439,0,0,1,1917.162,222.154Zm26.348-3.226a.438.438,0,0,1-.339-.16c-.455-.553-.92-1.072-1.383-1.542a.438.438,0,1,1,.624-.615c.481.488.964,1.027,1.435,1.6a.438.438,0,0,1-.338.716Zm-23.713-.075a.438.438,0,0,1-.323-.734c.5-.543,1.007-1.055,1.516-1.524a.438.438,0,0,1,.594.644c-.491.452-.983.947-1.463,1.472A.437.437,0,0,1,1919.8,218.853Zm3.113-2.85a.438.438,0,0,1-.263-.789,17.716,17.716,0,0,1,1.808-1.191.438.438,0,1,1,.435.76,16.9,16.9,0,0,0-1.719,1.132A.436.436,0,0,1,1922.91,216Zm17.633-.063a.437.437,0,0,1-.275-.1,13.987,13.987,0,0,0-1.669-1.163.438.438,0,1,1,.445-.755,14.854,14.854,0,0,1,1.774,1.236.438.438,0,0,1-.276.779Zm-13.969-2.016a.438.438,0,0,1-.162-.845,14.081,14.081,0,0,1,2.081-.644.438.438,0,1,1,.193.854,13.264,13.264,0,0,0-1.951.6A.439.439,0,0,1,1926.574,213.924Zm10.353-.084a.435.435,0,0,1-.15-.027,9.694,9.694,0,0,0-.985-.3c-.336-.083-.669-.157-.992-.221a.438.438,0,0,1,.169-.859c.336.066.684.144,1.033.23a10.59,10.59,0,0,1,1.074.328.438.438,0,0,1-.15.85Zm-4.135-.83h-.034a14.435,14.435,0,0,0-2.05-.013.438.438,0,0,1-.058-.874,15.314,15.314,0,0,1,2.175.014.438.438,0,0,1-.032.875Z" transform="translate(-1909.447 -212.09)" fill="#f78e48"/>
    </g>
    <path id="Trazado_3477" data-name="Trazado 3477" d="M730.543,1830.237l-498.784-.172a.61.61,0,0,1-.608-.608v-.311a.61.61,0,0,1,.608-.608l498.784.172a.61.61,0,0,1,.608.608v.312A.609.609,0,0,1,730.543,1830.237Z" transform="translate(0 -1360.727)" fill="#2e3552"/>
    <path id="Trazado_3478" data-name="Trazado 3478" d="M1116.234,865.54s5.969-.413,7.269,4.269c0,0,4.6-9.364,14.3-8.593s11.5,6.481,11.5,6.481,5.562-1.911,10.181.637a8.1,8.1,0,0,1,4.322,7.218s4.235-5.944,12.748-3.821c0,0-1.7-8.595,8.539-10.56s14.584,1.432,14.584,1.432,11.594-7.466,21.857,1.893c0,0,7.52-1.46,11.2,3.172,0,0,7.534-9.1,21.706-7.5V905.17H1116.175Z" transform="translate(-712.299 -581.037)" fill="#d7e2ff"/>
    <path id="Trazado_3479" data-name="Trazado 3479" d="M1116.232,1002.137s10.038-2.539,19,3.374c0,0,2.184-2.6,7.872-1.958a8.791,8.791,0,0,1,7.254,5.9s19.9-6.572,29.753,9.855h-63.934Z" transform="translate(-712.299 -695.173)" fill="#ebf3fa"/>
    <path id="Trazado_3480" data-name="Trazado 3480" d="M1506.517,941.917a13.982,13.982,0,0,1,11.025-12.481s-5.446-2.409-2.7-8.4,9.414-6.424,9.414-6.424.7-10.83,19.606-8.96c5.309.525,10.929,3.7,11.807,9.252a7.172,7.172,0,0,1,6.3-3.147s.526-6.158,6.634-6.1v36.26Z" transform="translate(-1026.461 -617.784)" fill="#ebf3fa"/>
    <g id="Grupo_26675" data-name="Grupo 26675" transform="translate(360.715 236.018)">
      <path id="Trazado_3481" data-name="Trazado 3481" d="M1633.564,647.837l-7.936,27.5-.25-.03-27.117-3.294s12.559-2.612,13.865-4.119c1.229-1.42,14.271-18.27,18.085-20.07a1.282,1.282,0,0,1,.593-.154Z" transform="translate(-1461.014 -646.334)" fill="#739af0"/>
      <path id="Trazado_3482" data-name="Trazado 3482" d="M1625.377,675.943l-27.117-3.294s12.559-2.612,13.865-4.119c1.229-1.42,14.271-18.27,18.085-20.07-3.377,4.9-11.205,16.69-10.873,20.117C1619.653,671.84,1623.472,674.706,1625.377,675.943Z" transform="translate(-1461.014 -646.975)" fill="#2b478b"/>
      <path id="Trazado_3483" data-name="Trazado 3483" d="M1245.749,755.986c-.925.317-3.692,1.188-7.487,2.293-10.913,3.174-30.324,8.27-38.89,7.64-7.684-.564-48.323-3.667-76.434-6.131,6.8-11.945,15.283-18.545,23.044-22.163,32.751,2.683,75.582,6.309,81.031,7.362,8.965,1.733,20.857,3.142,20.857,3.142s.081.364.157.941C1248.28,750.943,1248.493,755.042,1245.749,755.986Z" transform="translate(-1078.457 -718.739)" fill="#e58638"/>
      <path id="Trazado_3484" data-name="Trazado 3484" d="M1064.733,737.945c0,.067,0,.138,0,.207a5.68,5.68,0,0,1-1.381,4.112c-.035.033-.073.065-.11.1a2.877,2.877,0,0,1-.235.173h0v0l-.126.079c-.041.024-.085.049-.13.073h0c-.043.023-.089.045-.136.067s-.094.043-.144.063-.1.038-.148.055a.392.392,0,0,1-.045.014v0a.392.392,0,0,0-.047.016l-.049.015v0c-.018,0-.035.01-.053.016v0a.284.284,0,0,0-.055.018l-.057.018h0v0c-.02.006-.039.012-.059.02l-.063.02h0l-.065.022-.067.022-.144.047h0l-.073.024h0v0l-.077.024-.057.018c-.2.067-.434.14-.684.219l-.142.043c-.656.207-1.452.453-2.369.729l-.287.087q-.24.074-.491.148c-.035.01-.071.022-.108.032l-.154.047-.156.046-.158.047-.159.047-.16.047-.163.049-.163.047a0,0,0,0,0,0,0l-.165.047-.12.038a.219.219,0,0,0-.047.014l-.17.047q-.425.127-.87.254c-.17.052-.343.1-.518.152l-.453.13-.344.1-1.387.394-.286.081c-.165.047-.331.093-.5.14-.15.043-.3.085-.455.128l-.51.142c-5.672,1.574-12.548,3.339-18.923,4.622l-.67.134-.331.065c-.223.043-.443.085-.664.126-.66.126-1.314.246-1.958.359-.215.037-.428.075-.64.11l-.317.053-.631.1c-.208.034-.417.065-.624.1s-.41.063-.615.092-.408.061-.607.089l-.6.083-.591.077-.292.035c-.386.047-.768.091-1.141.13-.095.01-.187.02-.28.028l-.549.053c-.363.031-.717.061-1.064.083-.26.02-.516.034-.766.045-.168.01-.333.016-.5.022-.245.01-.485.016-.717.018-.313.006-.617,0-.908,0-.148,0-.292-.008-.433-.014-.071,0-.14,0-.211-.01-.14-.006-.276-.014-.41-.024l-.15-.012-.035,0c-.031,0-.065-.006-.1-.008-.126-.01-.258-.018-.4-.03l-.115-.008-.144-.012c-.073,0-.15-.01-.227-.016l-.124-.01c-.042,0-.085-.006-.126-.01-.087-.006-.173-.012-.262-.02l-.272-.02-.142-.01-.357-.028c-.057,0-.114-.008-.171-.014-.12-.008-.244-.018-.371-.028-.053,0-.106-.006-.161-.012l-.476-.036-1.44-.108-.189-.016-.386-.028c-.193-.016-.392-.03-.595-.045-.083-.008-.166-.014-.246-.02l-.581-.043c-.071-.006-.144-.012-.215-.016-.134-.012-.27-.022-.408-.032l-.449-.035-.24-.018-.225-.018c-.12-.008-.24-.017-.362-.027l-2.183-.165c-.11-.01-.219-.018-.331-.026-.167-.014-.337-.028-.508-.04-.394-.031-.8-.061-1.206-.092-.031,0-.063-.006-.094-.008l-1.076-.083a.468.468,0,0,0-.051,0l-6.963-.54-.374-.029-1.511-.116-.961-.077a.52.52,0,0,1-.053,0q-.549-.041-1.109-.087c-.045,0-.091-.008-.138-.01-.652-.051-1.314-.1-1.982-.156l-.514-.041-.157-.012-1.767-.14c-.26-.02-.518-.039-.778-.061-.173-.014-.345-.028-.518-.039-.351-.029-.7-.057-1.054-.085q-.792-.062-1.59-.126c-.047,0-.095-.008-.142-.01-.22-.02-.439-.035-.658-.053l-.047,0c-.654-.051-1.31-.1-1.972-.156l-.055-.006-.2-.016c-.388-.029-.778-.061-1.168-.093-.293-.024-.589-.045-.885-.071-.183-.014-.366-.028-.55-.043-.766-.059-1.535-.122-2.307-.183l-.02,0q-1.918-.156-3.857-.311c-.177-.014-.353-.028-.53-.043l-.037,0-1.7-.138c-.176-.014-.349-.028-.524-.043l-1.466-.118q-1.489-.124-2.981-.244l-1.884-.154c-.394-.034-.788-.067-1.18-.1l-2.809-.231-.134-.012-1.755-.146-2.488-.209-.991-.083-.3-.025c-.668-.055-1.33-.112-1.99-.168l-.292-.024-1.353-.116q-2.858-.242-5.605-.481c-.22-.018-.439-.037-.66-.057-.134-.012-.268-.024-.4-.033-.179-.018-.357-.032-.536-.047-.355-.031-.709-.061-1.06-.092-6.815-.6-12.895-1.159-17.587-1.635-.479-.047-.944-.094-1.391-.142-1.115-.116-2.135-.227-3.054-.333-2.6-.293-4.372-.54-5.075-.717a52.546,52.546,0,0,1-14.011-6.092c-2.34-1.578-3.788-3.191-3.251-4.521a7.011,7.011,0,0,1,3.694-3.466c1.322-.654,2.674-1.1,3.558-1.615l.15-.089a3.082,3.082,0,0,0,.43-.319c.02-.02.039-.036.063-.059a22.27,22.27,0,0,1,1.732-1.452,21.122,21.122,0,0,1,1.98-1.316.049.049,0,0,0,.012-.008c3.4-1.988,9.076-4.092,17.729-3.467,0,0,16.935,1.338,38.063,3.069h0c2.106.172,4.253.349,6.428.528h0q1.088.089,2.185.179l3.308.274h0l5.57.463c.372.031.747.063,1.121.092q1.12.095,2.24.187l4.488.378q1.117.095,2.234.187c2.659.225,5.3.449,7.912.674h.012c7.532.646,14.756,1.277,21.163,1.858h0l1.009.091c3.761.343,7.222.666,10.274.962,1.46.144,2.827.28,4.088.408,4.567.465,7.752.839,9,1.08,3.229.625,6.838,1.208,10.132,1.7q.408.062.808.118a.275.275,0,0,0,.041.006c.408.061.81.118,1.206.175l.036.006,1.34.189c.636.089,1.247.171,1.825.25l.731.1c2.845.378,4.738.6,4.738.6s.012.051.03.146l.006.024c0,.026.01.053.016.085.01.061.024.132.036.213.018.106.037.229.055.366a0,0,0,0,0,0,0c0,.033.01.069.014.1.016.114.031.236.045.368.01.091.02.187.03.284,0,.053.01.108.014.163s.01.122.014.183q.009.133.018.272c0,.038,0,.075,0,.112,0,.065.006.132.007.2,0,.036,0,.069,0,.1,0,.067,0,.136,0,.2C1064.731,737.874,1064.731,737.91,1064.733,737.945Z" transform="translate(-895.022 -705.625)" fill="#d7e2ff"/>
      <path id="Trazado_3485" data-name="Trazado 3485" d="M1410.922,763.284c0,.067,0,.138,0,.207a5.679,5.679,0,0,1-1.381,4.112c-.036.033-.073.065-.11.1-.075.061-.154.12-.235.173h0v0l-.126.079c-.041.024-.085.049-.13.073h0c-.043.024-.089.045-.136.067s-.095.043-.144.063-.1.037-.148.055l-.045.014v0a.455.455,0,0,0-.047.016l-.049.016v0a.512.512,0,0,0-.053.016v0a.277.277,0,0,0-.055.018l-.057.018h0v0c-.02.006-.039.012-.059.02l-.063.02h0l-.065.022-.067.022-.144.047h0l-.073.024h0v0l-.077.024-.057.018c-.205.067-.434.14-.684.219l-.141.043c-.656.207-1.452.453-2.368.729l-.288.087q-.24.074-.49.148c-.036.01-.071.022-.109.032l-.154.047-.156.046-.158.047-.159.047-.16.047-.163.049-.164.047a0,0,0,0,0,0,0l-.165.047c-.039.012-.079.023-.12.038a.222.222,0,0,0-.047.014l-.169.047q-.426.127-.871.254c-.17.051-.343.1-.518.152l-.453.13-.344.1-1.387.394-.286.081c-.165.047-.331.093-.5.14-.15.043-.3.085-.455.128l-.51.142c-5.672,1.574-12.548,3.339-18.923,4.622l-.67.134-.331.065c-.222.043-.443.085-.664.126q-.99.189-1.958.359c-.215.037-.428.075-.64.11l-.317.053-.631.1c-.208.034-.417.065-.624.1s-.41.063-.615.093-.408.061-.607.089l-.6.083-.591.077-.292.035c-.386.047-.768.091-1.141.13-.095.01-.187.02-.28.028l-.55.053c-.363.031-.717.061-1.064.083-.26.02-.516.034-.766.045-.168.01-.333.016-.5.022-.244.01-.485.016-.717.018-.313.006-.616,0-.908,0-.148,0-.292-.008-.433-.014-.071,0-.14,0-.211-.01-.14-.006-.276-.014-.41-.024l-.15-.012-.035,0c-.032,0-.065-.006-.1-.008-.126-.01-.258-.018-.4-.03l-.115-.008-.144-.012c-.073,0-.15-.01-.227-.016l-.124-.01c-.042,0-.085-.006-.126-.01-.087-.006-.173-.012-.262-.02l-.272-.02-.142-.01-.356-.028c-.057,0-.114-.008-.172-.014-.12-.008-.244-.018-.37-.028-.053,0-.106-.006-.162-.012l-.477-.036-1.44-.108-.189-.016c-.126-.008-.254-.018-.386-.027-.193-.016-.392-.03-.6-.046-.083-.008-.166-.014-.246-.02l-.581-.043c-.071-.006-.144-.012-.215-.016-.134-.012-.27-.022-.408-.031l-.449-.036-.24-.018-.224-.018c-.12-.008-.24-.017-.362-.028l-2.183-.166c-.111-.01-.219-.018-.331-.026-.168-.014-.337-.028-.508-.039-.394-.031-.8-.061-1.206-.092-.031,0-.063-.006-.095-.008l-1.076-.083a.5.5,0,0,0-.051,0l-6.962-.54-.374-.029-1.511-.116-.961-.077c-.018,0-.036,0-.053,0-.366-.028-.737-.057-1.109-.087-.045,0-.091-.008-.138-.01-.652-.051-1.314-.1-1.982-.156l-.514-.041-.158-.012-1.767-.14c-.26-.02-.518-.039-.778-.061-.173-.014-.345-.028-.518-.039-.351-.03-.7-.057-1.054-.085q-.792-.062-1.59-.126c-.047,0-.094-.008-.142-.01-.22-.02-.439-.035-.658-.053l-.047,0-1.972-.156-.055-.006-.205-.016a42.166,42.166,0,0,0,19.067-22.467h.012c7.532.646,14.756,1.277,21.163,1.858h0l1.009.09c3.761.343,7.222.666,10.274.962,1.46.144,2.827.28,4.088.408,4.567.465,7.752.839,9,1.08,3.229.624,6.838,1.208,10.132,1.7q.408.062.808.118a.332.332,0,0,0,.041.006c.408.061.81.118,1.206.175l.035.006,1.34.189c.636.089,1.247.171,1.825.25l.73.1c2.845.378,4.738.6,4.738.6s.012.051.03.146c0,.008,0,.016.006.024,0,.026.01.053.016.085.01.061.024.132.036.213.018.106.037.228.055.366,0,0,0,0,0,0,0,.033.009.069.014.1.016.114.031.236.045.368.01.091.02.187.03.284,0,.053.01.108.014.163s.01.122.014.183c.006.089.012.179.018.272,0,.037,0,.075,0,.112,0,.065.006.132.008.2,0,.036,0,.069,0,.1,0,.067,0,.136,0,.2C1410.919,763.213,1410.919,763.249,1410.922,763.284Z" transform="translate(-1241.211 -730.964)" fill="#f99746"/>
      <path id="Trazado_3486" data-name="Trazado 3486" d="M1699.272,803.18c-.925.318-3.692,1.189-7.487,2.293a12.086,12.086,0,0,0-5.351-7.52l15.117-1.689C1701.8,798.137,1702.016,802.238,1699.272,803.18Z" transform="translate(-1531.979 -765.934)" fill="#e27727" opacity="0.5"/>
      <g id="Grupo_26673" data-name="Grupo 26673" transform="translate(29.074 22.227)">
        <path id="Trazado_3487" data-name="Trazado 3487" d="M1334.706,783.133h0a.958.958,0,0,1-.807-1.083l.1-1.065a.968.968,0,0,1,.989-.928h0a.958.958,0,0,1,.806,1.083l-.1,1.065A.968.968,0,0,1,1334.706,783.133Z" transform="translate(-1277.317 -775.113)" fill="#2b478b"/>
        <path id="Trazado_3488" data-name="Trazado 3488" d="M1310.98,781.083h0a.958.958,0,0,1-.807-1.083l.1-1.065a.967.967,0,0,1,.989-.928h0a.958.958,0,0,1,.806,1.083l-.1,1.065A.968.968,0,0,1,1310.98,781.083Z" transform="translate(-1258.222 -773.464)" fill="#2b478b"/>
        <path id="Trazado_3489" data-name="Trazado 3489" d="M1287.255,779.034h0a.958.958,0,0,1-.807-1.083l.1-1.065a.968.968,0,0,1,.989-.928h0a.958.958,0,0,1,.807,1.083l-.1,1.065A.968.968,0,0,1,1287.255,779.034Z" transform="translate(-1239.127 -771.815)" fill="#2b478b"/>
        <path id="Trazado_3490" data-name="Trazado 3490" d="M1263.529,776.985h0a.958.958,0,0,1-.807-1.083l.1-1.065a.968.968,0,0,1,.989-.928h0a.958.958,0,0,1,.807,1.084l-.1,1.065A.968.968,0,0,1,1263.529,776.985Z" transform="translate(-1220.032 -770.166)" fill="#2b478b"/>
        <path id="Trazado_3491" data-name="Trazado 3491" d="M1239.8,774.937h0a.958.958,0,0,1-.807-1.083l.1-1.065a.968.968,0,0,1,.989-.928h0a.958.958,0,0,1,.807,1.083l-.1,1.065A.968.968,0,0,1,1239.8,774.937Z" transform="translate(-1200.937 -768.517)" fill="#2b478b"/>
        <path id="Trazado_3492" data-name="Trazado 3492" d="M1216.079,772.888h0a.958.958,0,0,1-.807-1.083l.1-1.065a.967.967,0,0,1,.989-.928h0a.958.958,0,0,1,.806,1.083l-.1,1.065A.968.968,0,0,1,1216.079,772.888Z" transform="translate(-1181.842 -766.868)" fill="#2b478b"/>
        <path id="Trazado_3493" data-name="Trazado 3493" d="M1192.353,770.84h0a.958.958,0,0,1-.807-1.084l.1-1.065a.968.968,0,0,1,.989-.928h0a.958.958,0,0,1,.806,1.083l-.1,1.065A.968.968,0,0,1,1192.353,770.84Z" transform="translate(-1162.747 -765.219)" fill="#2b478b"/>
        <path id="Trazado_3494" data-name="Trazado 3494" d="M1168.628,768.791h0a.959.959,0,0,1-.807-1.084l.1-1.065a.968.968,0,0,1,.989-.929h0a.958.958,0,0,1,.806,1.083l-.1,1.065A.968.968,0,0,1,1168.628,768.791Z" transform="translate(-1143.652 -763.57)" fill="#2b478b"/>
        <path id="Trazado_3495" data-name="Trazado 3495" d="M1144.9,766.742h0a.958.958,0,0,1-.807-1.083l.1-1.065a.968.968,0,0,1,.989-.928h0a.958.958,0,0,1,.807,1.083l-.1,1.065A.968.968,0,0,1,1144.9,766.742Z" transform="translate(-1124.557 -761.922)" fill="#2b478b"/>
        <path id="Trazado_3496" data-name="Trazado 3496" d="M1121.651,764.734h0a.958.958,0,0,1-.807-1.083l.1-1.065a.968.968,0,0,1,.989-.928h0a.958.958,0,0,1,.806,1.084l-.1,1.065A.968.968,0,0,1,1121.651,764.734Z" transform="translate(-1105.843 -760.305)" fill="#2b478b"/>
        <path id="Trazado_3497" data-name="Trazado 3497" d="M1097.926,762.686h0a.958.958,0,0,1-.807-1.083l.1-1.065a.968.968,0,0,1,.989-.928h0a.958.958,0,0,1,.807,1.083l-.1,1.065A.968.968,0,0,1,1097.926,762.686Z" transform="translate(-1086.748 -758.657)" fill="#2b478b"/>
        <path id="Trazado_3498" data-name="Trazado 3498" d="M1074.2,760.636h0a.958.958,0,0,1-.806-1.083l.1-1.065a.968.968,0,0,1,.989-.928h0a.958.958,0,0,1,.806,1.083l-.1,1.065A.968.968,0,0,1,1074.2,760.636Z" transform="translate(-1067.653 -757.008)" fill="#2b478b"/>
        <path id="Trazado_3499" data-name="Trazado 3499" d="M1044.809,757.822h0a.958.958,0,0,1-.807-1.083l.1-1.065a.968.968,0,0,1,.989-.928h0a.958.958,0,0,1,.807,1.083l-.1,1.065A.968.968,0,0,1,1044.809,757.822Z" transform="translate(-1043.997 -754.743)" fill="#2b478b"/>
      </g>
      <g id="Grupo_26674" data-name="Grupo 26674" transform="translate(126.912 31.269)">
        <path id="Trazado_3500" data-name="Trazado 3500" d="M1593.569,808.252h0a.959.959,0,0,1-.807-1.083l.1-1.065a.968.968,0,0,1,.989-.928h0a.958.958,0,0,1,.807,1.083l-.1,1.065A.968.968,0,0,1,1593.569,808.252Z" transform="translate(-1583.497 -804.373)" fill="#2b478b"/>
        <path id="Trazado_3501" data-name="Trazado 3501" d="M1569.845,806.2h0a.958.958,0,0,1-.807-1.083l.1-1.065a.968.968,0,0,1,.989-.928h0a.958.958,0,0,1,.806,1.083l-.1,1.065A.968.968,0,0,1,1569.845,806.2Z" transform="translate(-1564.403 -802.724)" fill="#2b478b"/>
        <path id="Trazado_3502" data-name="Trazado 3502" d="M1546.118,804.155h0a.959.959,0,0,1-.807-1.083l.1-1.065a.968.968,0,0,1,.989-.928h0a.958.958,0,0,1,.806,1.083l-.1,1.065A.968.968,0,0,1,1546.118,804.155Z" transform="translate(-1545.307 -801.075)" fill="#2b478b"/>
      </g>
      <path id="Trazado_3503" data-name="Trazado 3503" d="M938.56,739.727l-3.157,2.978-1.884.122a3.036,3.036,0,0,0,.43-.319c.021-.019.04-.036.063-.059A22.02,22.02,0,0,1,935.743,741a21.214,21.214,0,0,1,1.981-1.317l.012-.007Z" transform="translate(-926.006 -720.388)" fill="#2b478b"/>
      <path id="Trazado_3504" data-name="Trazado 3504" d="M950.162,740.5l-3.083,3.007,3.5.742,1.1-3.432Z" transform="translate(-936.92 -721.054)" fill="#2b478b"/>
      <path id="Trazado_3505" data-name="Trazado 3505" d="M969.007,742.673l-.813,3.224,2.594-.738.167-2.246Z" transform="translate(-953.913 -722.802)" fill="#2b478b"/>
      <path id="Trazado_3506" data-name="Trazado 3506" d="M1270.949,844.206a2.539,2.539,0,0,0,.591-3.914,7.7,7.7,0,0,0-4.4-2.16c-3.561-.258-2.115,6.991-.934,7.141A14.328,14.328,0,0,0,1270.949,844.206Z" transform="translate(-1192.708 -799.625)" fill="#2b478b"/>
      <path id="Trazado_3507" data-name="Trazado 3507" d="M1683.823,784.6c.143-.193,13.395-4.561,22.056-2.661l-8.341,5.252-13.41-1.153A.889.889,0,0,1,1683.823,784.6Z" transform="translate(-1529.673 -754.022)" fill="#355daf"/>
      <path id="Trazado_3508" data-name="Trazado 3508" d="M1326.932,640.854s-8.87,19.6-10.559,22.579a14.806,14.806,0,0,1-5.38,4.875l-.022.008-23.5,9.549s-29.316-2.313-35.7-3.016h0c-.578-.064-.969-.116-1.13-.15-1.939-.413-2.846-1.312-2.473-2.019s45.444-6.112,50.435-6.668l.142-.016c4.857-.573,5.309-2.225,5.309-2.225l18.6-21.313a2.551,2.551,0,0,1,1.078-.914A8.716,8.716,0,0,1,1326.932,640.854Z" transform="translate(-1179.181 -640.854)" fill="#d7e2ff"/>
      <path id="Trazado_3509" data-name="Trazado 3509" d="M1323.728,644.382c-5,6.074-18.846,22.824-20.16,23.964-1.414,1.227-41.859,7.728-51.8,9.342h0c-.578-.064-.969-.116-1.13-.15-1.939-.413-2.846-1.312-2.473-2.019s45.444-6.112,50.435-6.668,5.451-2.241,5.451-2.241l18.6-21.313A2.549,2.549,0,0,1,1323.728,644.382Z" transform="translate(-1179.181 -643.694)" fill="#739af0"/>
      <path id="Trazado_3510" data-name="Trazado 3510" d="M1535.846,640.854s-8.87,19.6-10.559,22.579a14.809,14.809,0,0,1-5.38,4.875l-.022.008A39.089,39.089,0,0,1,1507.659,666c4.857-.573,5.309-2.225,5.309-2.225l18.6-21.313a2.55,2.55,0,0,1,1.078-.914A8.718,8.718,0,0,1,1535.846,640.854Z" transform="translate(-1388.095 -640.854)" fill="#d7e2ff"/>
      <path id="Trazado_3511" data-name="Trazado 3511" d="M1201.479,818.777l-.892,9.888a26.921,26.921,0,0,1-9.687,1.045,21,21,0,0,1-7.351-1.572,7.794,7.794,0,0,1-1.244-.66l.935-10.366a3.4,3.4,0,0,1,1.36-.633c4.671-1.2,16.155,1.9,16.155,1.9Z" transform="translate(-1126.238 -781.982)" fill="#e9f0ff"/>
      <path id="Trazado_3512" data-name="Trazado 3512" d="M1184.6,817.615l-1.052,11.659a7.794,7.794,0,0,1-1.244-.66l.935-10.366A3.4,3.4,0,0,1,1184.6,817.615Z" transform="translate(-1126.238 -783.118)" fill="#ff9843"/>
    </g>
    <g id="Grupo_26676" data-name="Grupo 26676" transform="translate(318.879 281.902)">
      <path id="Trazado_3513" data-name="Trazado 3513" d="M722.821,1044.791l69.442-18.536c1.47-.392,2.446-1.566,2.169-2.608L755.5,877.268c-.277-1.042-1.707-1.573-3.177-1.181l-69.443,18.536c-1.47.392-2.446,1.566-2.169,2.608l38.936,146.379C719.921,1044.652,721.351,1045.184,722.821,1044.791Z" transform="translate(-680.661 -875.958)" fill="#ffe3ca"/>
      <path id="Trazado_3514" data-name="Trazado 3514" d="M722.821,1115.48l5.709-1.524L688.587,963.788l-5.709,1.524c-1.47.392-2.446,1.566-2.169,2.608L719.644,1114.3C719.921,1115.341,721.351,1115.872,722.821,1115.48Z" transform="translate(-680.661 -946.647)" fill="#f2be8f"/>
      <rect id="Rectángulo_4601" data-name="Rectángulo 4601" width="45.47" height="9.223" transform="matrix(0.257, 0.966, -0.966, 0.257, 50.8, 22.394)" fill="#eabc92" opacity="0.5"/>
      <rect id="Rectángulo_4602" data-name="Rectángulo 4602" width="64.72" height="9.223" transform="translate(70.566 17.118) rotate(75.105)" fill="#eabc92" opacity="0.5"/>
      <rect id="Rectángulo_4603" data-name="Rectángulo 4603" width="32.36" height="2.056" transform="matrix(0.257, 0.966, -0.966, 0.257, 59.387, 20.098)" fill="#f2be8f"/>
      <rect id="Rectángulo_4604" data-name="Rectángulo 4604" width="32.36" height="2.056" transform="translate(39.752 25.339) rotate(75.105)" fill="#f2be8f"/>
      <path id="Trazado_3515" data-name="Trazado 3515" d="M778.312,1022.058l.186.513a.209.209,0,0,0,.026.05l2.468,3.567a.223.223,0,0,1,.038.15l-.182,6.3c-.018.166-.739-.544-.877-.639-1.5-1.031-5.505-4.563-7.18-5.831a.383.383,0,0,0-.612.347.835.835,0,0,0,.185.439l5.778,7.045-.306,1.328a.361.361,0,0,0,.27.431l1.029.235a.361.361,0,0,0,.429-.26l.744.908a.221.221,0,0,1,.05.154l-.37,5.718a2.191,2.191,0,0,0,.407,1.42l.37.513a.749.749,0,0,0,1.071.148l.168-.132a2.339,2.339,0,0,0,.889-1.785l.1-4.565a.221.221,0,0,1,.143-.2l1.73-.65-.065.282a.36.36,0,0,0,.27.431l1.03.235a.361.361,0,0,0,.432-.27l.328-1.427,2.7-1.014a1.183,1.183,0,0,0,.543-.415c.173-.241.368-.5.321-.549a58.954,58.954,0,0,0-6.848-.554c-.106,0-.09-.9-.088-1l-.255-6.087a.221.221,0,0,1,.117-.191l1.517-.809a.847.847,0,0,0,.38-.413l0-.007a.22.22,0,0,0-.15-.3l-2.408-.588a.221.221,0,0,1-.153-.134l-.226-.584a.221.221,0,0,0-.407-.011l-.088.193-3.166-2.237A.221.221,0,0,0,778.312,1022.058Z" transform="translate(-754.316 -993.306)" fill="#f2be8f"/>
    </g>
    <g id="Grupo_26681" data-name="Grupo 26681" transform="translate(319.639 341.543)">
      <rect id="Rectángulo_4605" data-name="Rectángulo 4605" width="97.736" height="126.355" rx="7" transform="translate(0)" fill="#739af0"/>
      <g id="Grupo_26677" data-name="Grupo 26677" transform="translate(12.469 9.145)">
        <path id="Trazado_3516" data-name="Trazado 3516" d="M750.3,1235.851v3.958h-1.851v-10.652h4.075a4.981,4.981,0,0,1,1.65.252,3.5,3.5,0,0,1,1.218.706,3.009,3.009,0,0,1,.757,1.076,3.478,3.478,0,0,1,.26,1.354,3.54,3.54,0,0,1-.26,1.39,2.75,2.75,0,0,1-.757,1.039,3.443,3.443,0,0,1-1.218.651,5.5,5.5,0,0,1-1.65.227Zm0-1.485h2.224a2.835,2.835,0,0,0,.918-.132,1.666,1.666,0,0,0,.633-.373,1.435,1.435,0,0,0,.362-.574,2.241,2.241,0,0,0,.113-.728,2.271,2.271,0,0,0-.113-.717,1.646,1.646,0,0,0-.362-.611,1.762,1.762,0,0,0-.633-.424,2.421,2.421,0,0,0-.918-.157H750.3Z" transform="translate(-748.446 -1229.01)" fill="#aec3ff"/>
        <path id="Trazado_3517" data-name="Trazado 3517" d="M792.885,1237.329h-4.126l-.863,2.48h-1.924l4.024-10.652h1.661l4.031,10.652h-1.931Zm-3.607-1.493h3.087l-1.544-4.419Z" transform="translate(-778.648 -1229.01)" fill="#aec3ff"/>
        <path id="Trazado_3518" data-name="Trazado 3518" d="M845.274,1236.462a1.623,1.623,0,0,0-.1-.574,1.135,1.135,0,0,0-.347-.464,2.9,2.9,0,0,0-.695-.406,10.8,10.8,0,0,0-1.138-.406,10.919,10.919,0,0,1-1.4-.519,4.846,4.846,0,0,1-1.108-.68,2.909,2.909,0,0,1-.728-.893,2.463,2.463,0,0,1-.263-1.156,2.585,2.585,0,0,1,.274-1.185,2.808,2.808,0,0,1,.772-.936,3.667,3.667,0,0,1,1.193-.615,5.078,5.078,0,0,1,1.536-.22,4.733,4.733,0,0,1,1.617.26,3.621,3.621,0,0,1,1.211.706,3.079,3.079,0,0,1,.757,1.035,3.041,3.041,0,0,1,.263,1.255h-1.843a2.033,2.033,0,0,0-.121-.713,1.48,1.48,0,0,0-.37-.563,1.7,1.7,0,0,0-.629-.37,2.753,2.753,0,0,0-.9-.132,2.911,2.911,0,0,0-.849.11,1.693,1.693,0,0,0-.6.307,1.209,1.209,0,0,0-.351.468,1.5,1.5,0,0,0-.113.585,1.174,1.174,0,0,0,.56.988,5.961,5.961,0,0,0,1.708.732,9.966,9.966,0,0,1,1.558.585,4.467,4.467,0,0,1,1.094.728,2.636,2.636,0,0,1,.648.914,2.953,2.953,0,0,1,.212,1.145,2.688,2.688,0,0,1-.267,1.211,2.587,2.587,0,0,1-.761.914,3.568,3.568,0,0,1-1.2.578,5.674,5.674,0,0,1-1.566.2,5.6,5.6,0,0,1-1.514-.209,4.276,4.276,0,0,1-1.339-.629,3.277,3.277,0,0,1-.955-1.05,2.911,2.911,0,0,1-.362-1.478h1.851a1.936,1.936,0,0,0,.179.867,1.613,1.613,0,0,0,.49.593,2.053,2.053,0,0,0,.735.336,3.744,3.744,0,0,0,.914.106,2.282,2.282,0,0,0,1.452-.391A1.262,1.262,0,0,0,845.274,1236.462Z" transform="translate(-821.46 -1228.407)" fill="#aec3ff"/>
        <path id="Trazado_3519" data-name="Trazado 3519" d="M891.607,1236.462a1.62,1.62,0,0,0-.1-.574,1.13,1.13,0,0,0-.347-.464,2.9,2.9,0,0,0-.695-.406,10.777,10.777,0,0,0-1.138-.406,10.942,10.942,0,0,1-1.405-.519,4.846,4.846,0,0,1-1.108-.68,2.916,2.916,0,0,1-.728-.893,2.462,2.462,0,0,1-.263-1.156,2.584,2.584,0,0,1,.274-1.185,2.81,2.81,0,0,1,.772-.936,3.668,3.668,0,0,1,1.193-.615,5.077,5.077,0,0,1,1.536-.22,4.731,4.731,0,0,1,1.617.26,3.622,3.622,0,0,1,1.211.706,3.074,3.074,0,0,1,.757,1.035,3.04,3.04,0,0,1,.263,1.255h-1.844a2.041,2.041,0,0,0-.12-.713,1.486,1.486,0,0,0-.369-.563,1.7,1.7,0,0,0-.629-.37,2.755,2.755,0,0,0-.9-.132,2.911,2.911,0,0,0-.849.11,1.7,1.7,0,0,0-.6.307,1.213,1.213,0,0,0-.351.468,1.5,1.5,0,0,0-.113.585,1.173,1.173,0,0,0,.56.988,5.957,5.957,0,0,0,1.708.732,9.975,9.975,0,0,1,1.558.585,4.458,4.458,0,0,1,1.094.728,2.637,2.637,0,0,1,.648.914,2.952,2.952,0,0,1,.212,1.145,2.685,2.685,0,0,1-.267,1.211,2.587,2.587,0,0,1-.761.914,3.568,3.568,0,0,1-1.2.578,5.673,5.673,0,0,1-1.566.2,5.6,5.6,0,0,1-1.514-.209,4.278,4.278,0,0,1-1.339-.629,3.275,3.275,0,0,1-.955-1.05,2.911,2.911,0,0,1-.362-1.478h1.851a1.93,1.93,0,0,0,.18.867,1.612,1.612,0,0,0,.49.593,2.05,2.05,0,0,0,.735.336,3.744,3.744,0,0,0,.914.106,2.284,2.284,0,0,0,1.453-.391A1.263,1.263,0,0,0,891.607,1236.462Z" transform="translate(-858.75 -1228.407)" fill="#aec3ff"/>
        <path id="Trazado_3520" data-name="Trazado 3520" d="M936.456,1235.851v3.958h-1.851v-10.652h4.075a4.982,4.982,0,0,1,1.65.252,3.507,3.507,0,0,1,1.218.706,3.009,3.009,0,0,1,.757,1.076,3.475,3.475,0,0,1,.26,1.354,3.537,3.537,0,0,1-.26,1.39,2.75,2.75,0,0,1-.757,1.039,3.446,3.446,0,0,1-1.218.651,5.5,5.5,0,0,1-1.65.227Zm0-1.485h2.224a2.838,2.838,0,0,0,.918-.132,1.669,1.669,0,0,0,.633-.373,1.438,1.438,0,0,0,.362-.574,2.249,2.249,0,0,0,.113-.728,2.279,2.279,0,0,0-.113-.717,1.649,1.649,0,0,0-.362-.611,1.766,1.766,0,0,0-.633-.424,2.423,2.423,0,0,0-.918-.157h-2.224Z" transform="translate(-898.274 -1229.01)" fill="#aec3ff"/>
        <path id="Trazado_3521" data-name="Trazado 3521" d="M990.789,1234.158a6.918,6.918,0,0,1-.318,2.177,4.743,4.743,0,0,1-.9,1.631,3.883,3.883,0,0,1-1.39,1.028,4.678,4.678,0,0,1-3.592,0,3.99,3.99,0,0,1-1.4-1.028,4.732,4.732,0,0,1-.915-1.631,6.767,6.767,0,0,1-.326-2.177v-.541a6.8,6.8,0,0,1,.326-2.18,4.839,4.839,0,0,1,.907-1.639,3.9,3.9,0,0,1,1.394-1.031,4.389,4.389,0,0,1,1.792-.358,4.434,4.434,0,0,1,1.8.358,3.894,3.894,0,0,1,1.4,1.031,4.747,4.747,0,0,1,.9,1.639,6.953,6.953,0,0,1,.318,2.18Zm-1.851-.556a6.508,6.508,0,0,0-.172-1.577,3.368,3.368,0,0,0-.5-1.145,2.173,2.173,0,0,0-.808-.7,2.409,2.409,0,0,0-1.087-.238,2.353,2.353,0,0,0-1.068.238,2.206,2.206,0,0,0-.808.7,3.412,3.412,0,0,0-.512,1.145,6.249,6.249,0,0,0-.179,1.577v.556a6.291,6.291,0,0,0,.179,1.58,3.41,3.41,0,0,0,.516,1.152,2.213,2.213,0,0,0,.816.7,2.377,2.377,0,0,0,1.072.238,2.177,2.177,0,0,0,1.891-.937,4.72,4.72,0,0,0,.662-2.736Z" transform="translate(-936.379 -1228.407)" fill="#aec3ff"/>
        <path id="Trazado_3522" data-name="Trazado 3522" d="M1040.6,1235.7h-2.063v4.1h-1.851v-10.652h3.746a5.834,5.834,0,0,1,1.632.209,3.358,3.358,0,0,1,1.211.614,2.611,2.611,0,0,1,.75,1.006,3.519,3.519,0,0,1,.256,1.39,2.993,2.993,0,0,1-.516,1.789,3.283,3.283,0,0,1-1.438,1.109l2.392,4.441v.095h-1.982Zm-2.063-1.485h1.9a2.609,2.609,0,0,0,.87-.132,1.732,1.732,0,0,0,.622-.366,1.488,1.488,0,0,0,.373-.556,1.953,1.953,0,0,0,.124-.709,2.231,2.231,0,0,0-.117-.743,1.476,1.476,0,0,0-.359-.57,1.6,1.6,0,0,0-.618-.366,2.829,2.829,0,0,0-.9-.128h-1.895Z" transform="translate(-980.429 -1229.01)" fill="#aec3ff"/>
        <path id="Trazado_3523" data-name="Trazado 3523" d="M1087.3,1230.65h-3.322v9.159h-1.836v-9.159h-3.292v-1.493h8.45Z" transform="translate(-1014.371 -1229.01)" fill="#aec3ff"/>
      </g>
      <g id="Grupo_26678" data-name="Grupo 26678" transform="translate(30.27 111.083)">
        <path id="Trazado_3524" data-name="Trazado 3524" d="M908.825,1752.44H894.137a.857.857,0,0,1-.857-.857h0a.856.856,0,0,1,.857-.856h14.688a.856.856,0,0,1,.857.856h0A.857.857,0,0,1,908.825,1752.44Z" transform="translate(-882.814 -1750.727)" fill="#aec3ff"/>
        <path id="Trazado_3525" data-name="Trazado 3525" d="M876.131,1773.361H840.512a.857.857,0,0,1-.857-.856h0a.857.857,0,0,1,.857-.857h35.619a.857.857,0,0,1,.856.857h0A.856.856,0,0,1,876.131,1773.361Z" transform="translate(-839.655 -1767.565)" fill="#aec3ff"/>
      </g>
      <g id="Grupo_26679" data-name="Grupo 26679" transform="translate(14.097 30.636)">
        <path id="Trazado_3526" data-name="Trazado 3526" d="M791.627,1408.2a34.839,34.839,0,1,1,24.635-10.2A34.612,34.612,0,0,1,791.627,1408.2Zm0-69.295A34.455,34.455,0,1,0,815.991,1349,34.23,34.23,0,0,0,791.627,1338.91Z" transform="translate(-756.788 -1338.527)" fill="#aec3ff"/>
      </g>
      <path id="Trazado_3527" data-name="Trazado 3527" d="M848.031,1401.839a28.114,28.114,0,0,1-.451,5.032,27.943,27.943,0,0,1-53.032,6.277,27.467,27.467,0,0,1-1.423-4.017,28.135,28.135,0,0,1-.329-13.236c0-.022.01-.043.014-.065a28.011,28.011,0,0,1,10.9-16.618q.861-.625,1.772-1.184A27.784,27.784,0,0,1,820.1,1373.9q1.066,0,2.111.079a27.748,27.748,0,0,1,13.835,4.918h0a28.038,28.038,0,0,1,7.662,8q.642,1.014,1.2,2.083a27.808,27.808,0,0,1,3.125,12.854Z" transform="translate(-771.161 -1336.364)" fill="#aec3ff"/>
      <g id="Grupo_26680" data-name="Grupo 26680" transform="translate(21.635 41.402)">
        <path id="Trazado_3528" data-name="Trazado 3528" d="M813.221,1406.338c-1.115,1.765.466,4.831-2.879,3.995s-5.388-1.208-5.574.649,2.508,1.859,2.508,3.809-1.208,2.6-3.065,1.669-2.393-2.274-4.552-1.438-3.414.279-3.9-1.394a2.449,2.449,0,0,0-.347-.731c0-.022.01-.043.014-.065a28.012,28.012,0,0,1,10.9-16.618q.861-.625,1.772-1.185a3.675,3.675,0,0,1,2.8,1.46c1.951,2.416,3.251,1.208,2.787,3.995s.278,3.159,1.857,3.066,3.437-.094,3.623,1.115S814.336,1404.572,813.221,1406.338Z" transform="translate(-795.41 -1394.769)" fill="#94b0ed"/>
        <path id="Trazado_3529" data-name="Trazado 3529" d="M886.741,1516.553s-2.462.789-3.112-.929.093-2.09-2.09-2.6-2.369-2-3.762-1.812-.7.743-2.322,1.951-3.112.65-3.065,2.88,2.462,2.578,2.949,4.041-.348,2.09.7,3.205,3,.627,2.09,2.16-2.3,2.717-1.6,5.086.209,2.508,1.393,4.18,3.484,2.229,3.832,1.115-1.6-2.578-.975-3.693,1.672-.348,2.09-2.02,2.113-1.672,2.252-2.833-2.043-2.926-1.207-3.67,2.508,1.347,3.809-.511.418-3.344,1.765-5.109S887.67,1515.531,886.741,1516.553Z" transform="translate(-857.364 -1488.262)" fill="#94b0ed"/>
        <path id="Trazado_3530" data-name="Trazado 3530" d="M989.541,1468.482a28.108,28.108,0,0,1-.452,5.032,27.779,27.779,0,0,1-4.409,10.717,3.192,3.192,0,0,1-2.233-.06c-3.484-1.394-.906-5.156.488-7.037s-2.16-1.045-4.738-2.787.279-6.41-2.369-5.643-5.852,1.742-7.385-.836,1.393-3,.07-5.156.766-3.414,3.414-3.623,2.3-2.091,5.574-2.369,3.2,3.9,6.828,3.623,3.46.557,3.46.557a1.692,1.692,0,0,1,.757.159A27.984,27.984,0,0,1,989.541,1468.482Z" transform="translate(-934.306 -1444.408)" fill="#94b0ed"/>
        <path id="Trazado_3531" data-name="Trazado 3531" d="M992.585,1409.589c-3.013,1.466-4.222-2.521-6.8-1.322-2.6,1.208-2.142-1.115-4.184-2.6s-6.131,1.208-5.946-1.115,3.25-1.672,3.9-3.53,3.623-1.393,3.623-1.393a2.014,2.014,0,0,1,.541-.123s0,0,0,0a28.035,28.035,0,0,1,7.662,8Q992.028,1408.52,992.585,1409.589Z" transform="translate(-940.475 -1398.37)" fill="#94b0ed"/>
        <path id="Trazado_3532" data-name="Trazado 3532" d="M902.025,1396.9s1.579-2.278-.929-2.951-2.462.208-4.412,0-2.717,1.3-1.254,2.951,2.647,4.813,3.971,3.127S900.469,1397.062,902.025,1396.9Z" transform="translate(-875.295 -1393.691)" fill="#94b0ed"/>
      </g>
    </g>
  </g>
</svg>
