<svg xmlns="http://www.w3.org/2000/svg" width="393.978" height="310.718" viewBox="0 0 393.978 310.718">
  <g id="Grupo_53874" data-name="Grupo 53874" transform="translate(-180 -3578)">
    <g id="Image_Place_Holder" data-name="Image Place Holder" transform="translate(180 3622.025)" opacity="0.1">
      <rect id="Image_Place_Holder-2" data-name="Image Place Holder" width="393.978" height="266.693" rx="10" fill="#ff9800"/>
    </g>
    <g id="Grupo_26801" data-name="Grupo 26801" transform="translate(162.348 3542.568)">
      <path id="Trazado_3533" data-name="Trazado 3533" d="M293.48,279.881c-4.491-6.542-12.024-9.852-18.65-14.061-10.487-6.66-33.733-17.191-46.653-23.148a134.948,134.948,0,0,0-48.491-12.33c-14.664-1-35.218.168-48.542,7.8-11.438,6.554-12.02,18.763-4.516,27.286,4.785,5.436,10.739,10.287,16.443,14.759q8.892,6.972,18.431,13.109a241.084,241.084,0,0,0,41.485,21.211c14.826,5.863,30.706,10.778,46.634,12.661,13.883,1.64,29.062-.38,39.558-10.178A28.829,28.829,0,0,0,293.48,279.881Z" transform="translate(0 8.416)" fill="#8e5347"/>
      <path id="Trazado_3534" data-name="Trazado 3534" d="M253.488,300.311c-4.981,4.64-.922,8.176,7.121,10.551s17.006-3.735,12.888-10.081S260.61,293.679,253.488,300.311Z" transform="translate(5.607 11.254)" fill="#753d37"/>
      <path id="Trazado_3535" data-name="Trazado 3535" d="M187.358,288.272c-4.381,3.75,2.26,7.538,7.495,9.566s11.935-1.344,13.662-4.287c1.613-2.746.549-5.261-5.454-8.169C196.4,282.155,191.371,284.837,187.358,288.272Z" transform="translate(2.78 10.747)" fill="#753d37"/>
      <path id="Trazado_3536" data-name="Trazado 3536" d="M214.187,283.77c-3.781,2.225-2.1,5.182,1.246,8.305s7.448,3.383,16.742-.462,17.12-9.524,12.947-13.662-10.6-4.781-15.993-2.177S216.766,282.252,214.187,283.77Z" transform="translate(3.908 10.327)" fill="#753d37"/>
      <path id="Trazado_3537" data-name="Trazado 3537" d="M137.186,260.072l27.577,15.922,27.577-15.922L164.763,244.15Z" transform="translate(0.672 9.026)" fill="#753d37"/>
      <g id="Grupo_26718" data-name="Grupo 26718" transform="translate(245.299 230.812)">
        <g id="Grupo_26717" data-name="Grupo 26717" transform="translate(8.583 2.436)">
          <g id="Grupo_26714" data-name="Grupo 26714" transform="translate(1.173 2.907)">
            <g id="Grupo_26712" data-name="Grupo 26712" transform="translate(0 1.098)">
              <path id="Trazado_3538" data-name="Trazado 3538" d="M252.253,229.808c-.006-.005-1.295-.84-1.3-.845l-.022-.015v0a.531.531,0,0,0-.56.033,2.02,2.02,0,0,0-.844,1.612.766.766,0,0,0,.269.665v0l1.476.961Z" transform="translate(-249.525 -228.887)" fill="#442d2c"/>
            </g>
            <g id="Grupo_26713" data-name="Grupo 26713" transform="translate(1.33 1.688)">
              <path id="Trazado_3539" data-name="Trazado 3539" d="M252.83,229.77l.03-.068-.193-.132-.025-.018-.028-.019,0,0a.684.684,0,0,0-.723.044,2.607,2.607,0,0,0-1.089,2.081.988.988,0,0,0,.347.857v0l.333.216.062-.136a.908.908,0,0,0,.348-.118,2.611,2.611,0,0,0,1.089-2.081A1.271,1.271,0,0,0,252.83,229.77Z" transform="translate(-250.8 -229.453)" fill="#d6c3c1"/>
              <path id="Trazado_3540" data-name="Trazado 3540" d="M251.1,231.856c0,.8.487,1.171,1.089.823a2.607,2.607,0,0,0,1.089-2.08c0-.8-.487-1.17-1.089-.823A2.6,2.6,0,0,0,251.1,231.856Z" transform="translate(-250.787 -229.445)" fill="#eddcda"/>
            </g>
            <path id="Trazado_3541" data-name="Trazado 3541" d="M256.73,228.717l-1.389-.771a.49.49,0,0,0-.061-.034h0a.676.676,0,0,0-.7.047l-3.589,2.072a2.581,2.581,0,0,0-1.072,2.05v1.953c0,.508.2.836.5.915l1.267.722,1.534-2.116,1.356-.782a2.579,2.579,0,0,0,1.073-2.05V230.2Z" transform="translate(-249.508 -227.834)" fill="#543b39"/>
            <path id="Trazado_3542" data-name="Trazado 3542" d="M255.971,233.544l-3.589,2.072c-.591.341-1.072-.024-1.072-.811v-1.952a2.578,2.578,0,0,1,1.072-2.05l3.589-2.072c.589-.34,1.073.024,1.073.811v1.953A2.578,2.578,0,0,1,255.971,233.544Z" transform="translate(-249.448 -227.801)" fill="#634745"/>
            <path id="Trazado_3543" data-name="Trazado 3543" d="M255.229,230.134c0,.153.093.223.209.158a.5.5,0,0,0,.208-.4c0-.153-.093-.223-.208-.158A.5.5,0,0,0,255.229,230.134Z" transform="translate(-249.278 -227.753)" fill="#543b39"/>
            <path id="Trazado_3544" data-name="Trazado 3544" d="M255.821,229.786c0,.153.093.223.208.158a.5.5,0,0,0,.209-.4c0-.153-.093-.223-.209-.158A.5.5,0,0,0,255.821,229.786Z" transform="translate(-249.253 -227.768)" fill="#543b39"/>
            <path id="Trazado_3545" data-name="Trazado 3545" d="M255.541,232.3c0,.27.164.394.367.278a.878.878,0,0,0,.366-.7c0-.27-.164-.394-.366-.278A.877.877,0,0,0,255.541,232.3Z" transform="translate(-249.265 -227.674)" fill="#543b39"/>
            <path id="Trazado_3546" data-name="Trazado 3546" d="M251.956,235.069l3.164-1.827v-3.289l-3.164,1.827Z" transform="translate(-249.42 -227.743)" fill="#442d2c"/>
          </g>
          <path id="Trazado_3547" data-name="Trazado 3547" d="M256.882,229.585s-1.8.7-1.68,1.59,1.51-.036,2.072.3a7.584,7.584,0,0,0,1.965,1.15c.637.2,1.434-.164,2.117.2,1.756.923,4.331,4.9,4.435,4.466.2-.824-3.689-7.23-3.689-7.23a41.837,41.837,0,0,0-5.22-2.452,7.9,7.9,0,0,0-1.824.318S256.8,228.753,256.882,229.585Z" transform="translate(-248.113 -224.937)" fill="#ffb9a4"/>
          <path id="Trazado_3548" data-name="Trazado 3548" d="M249.982,232.683a2.882,2.882,0,0,0,.37.923c.286.367,1.16,0,1.529-.266.674-.487,1.052-.411,1.2-.025s-.651,1-1,1.5a5.383,5.383,0,0,0-.086,3.355,40.946,40.946,0,0,1,1.089,6.594,3.982,3.982,0,0,0,1.98,3.421s1.034,1.633.072,1.466a11.627,11.627,0,0,0-3.024-.144c-1.365,0-2.058-.217-2.536-1.111a8.581,8.581,0,0,1-1.091-4.754c.056-1.511,1.049-4.943.975-6.618a4.586,4.586,0,0,0-.655-1.993c-.8-1.623-.025-4.3,1.512-4.3A5.2,5.2,0,0,0,249.982,232.683Z" transform="translate(-248.397 -224.801)" fill="#ffc9b6"/>
          <g id="Grupo_26715" data-name="Grupo 26715" transform="translate(11.036 31.267)">
            <path id="Trazado_3549" data-name="Trazado 3549" d="M270.864,266.527c4.56-4.834.217-9.94-1.979-11.509-1.159,1.432-8.066,4.265-8.107,4.44-.835,3.551-.072,7.268.98,10.707.655,2.143,1.222,5.762,2.745,11.631-.709,2.919.095,7.34.39,10.645.206,2.3,1.119,8.345,1.263,8.862-.415-.127-1.108-.744-2.047-1.068a4.363,4.363,0,0,0-2.5-.123c-1.563.619-2.009,1.182-1.589,2.184.62,1.475,2.582,1.948,3.976,2.237,2.1.436,3.287,3.782,5.532,1.468.576-.593.069-2.154-.129-2.973a66.159,66.159,0,0,1,.514-9.509c.777-4.656,1.182-9.876-1.543-12.6C271.428,273.129,271.32,268.91,270.864,266.527Z" transform="translate(-258.941 -255.018)" fill="#f9bba7"/>
            <path id="Trazado_3550" data-name="Trazado 3550" d="M269.455,300.924s-1.313.473-2.16.741a4.656,4.656,0,0,1-4.426-1.127c-.6-.584-1.037-1.322-.825-1.738.4-.784,2.1-.391,2.1-.391s-2.927-2.031-4.567-.69c-.763.624-.946,1.867.328,3.19a25.96,25.96,0,0,0,4.918,3.226c1.257.673,3.295,2.008,4.688.662S269.455,300.924,269.455,300.924Z" transform="translate(-258.979 -253.191)" fill="#5ab5ff"/>
          </g>
          <g id="Grupo_26716" data-name="Grupo 26716" transform="translate(6.252 34.707)">
            <path id="Trazado_3551" data-name="Trazado 3551" d="M266.279,269.826c4.559-4.835.217-9.941-1.98-11.51-1.159,1.433-8.066,4.265-8.107,4.44-.835,3.551-.071,7.268.98,10.708.655,2.142,1.222,5.762,2.745,11.63-.709,2.919.095,7.341.39,10.645.207,2.3,1.119,8.346,1.263,8.862-.415-.127-1.107-.744-2.047-1.067a4.355,4.355,0,0,0-2.5-.124c-1.563.62-2.009,1.182-1.589,2.184.62,1.475,2.583,1.948,3.976,2.237,2.1.436,3.287,3.782,5.532,1.469.576-.594.069-2.155-.129-2.974a66.155,66.155,0,0,1,.514-9.509c.777-4.656,1.183-9.876-1.542-12.6C266.843,276.427,266.734,272.208,266.279,269.826Z" transform="translate(-254.355 -258.316)" fill="#ffc9b6"/>
            <path id="Trazado_3552" data-name="Trazado 3552" d="M264.869,304.222s-1.313.473-2.159.741a4.658,4.658,0,0,1-4.427-1.127c-.6-.584-1.036-1.322-.824-1.738.4-.785,2.1-.39,2.1-.39s-2.926-2.031-4.567-.69c-.762.623-.946,1.866.328,3.189a25.959,25.959,0,0,0,4.918,3.226c1.257.673,3.294,2.008,4.689.662S264.869,304.222,264.869,304.222Z" transform="translate(-254.393 -256.489)" fill="#5ab5ff"/>
          </g>
          <path id="Trazado_3553" data-name="Trazado 3553" d="M271,235.042c-2.033-.728-4.507.43-4.608,2.516-1.121,1.9-.022,4.683,1.728,5.954,2.034,1.478,5.177-.017,5.853-2.3A5.2,5.2,0,0,0,271,235.042Z" transform="translate(-247.642 -224.625)" fill="#eddcda"/>
          <path id="Trazado_3554" data-name="Trazado 3554" d="M271.031,238.532a.492.492,0,0,0-.347-.348c-2.4-.661-2.957-1.957-3.374-4.129a.493.493,0,0,0-.719-.292,15.15,15.15,0,0,1-4.017,1.749c1.345,4.014-1.091,4.872-2.149,6.467-.267.4,2.51,2.422,3.995,2.213a9.194,9.194,0,0,0,3.653-1.286C269.286,242.134,271.383,240.181,271.031,238.532Z" transform="translate(-247.881 -224.673)" fill="#ffc9b6"/>
          <path id="Trazado_3555" data-name="Trazado 3555" d="M267.677,229.7c-.224-2.066-1.917-4.818-4.236-4.643-2.362.178-3.968,3.684-4.151,5.316-.313,2.773-.069,8,4.31,6.324C267.01,235.388,268.01,232.782,267.677,229.7Z" transform="translate(-247.934 -225.047)" fill="#ffc9b6"/>
          <path id="Trazado_3556" data-name="Trazado 3556" d="M272.538,246.66c1.517-4.693.59-7.812-.75-9.346-.552-.631-1.86-1.932-3.29-.645.464,2.138-3.225,2.822-5.9,2.822-2.025,1.511-3.841,2.566-5,4.611-1.225,2.165-1.811,4.364.8,5.942-.8,2.373.461,4.832-.236,10.9,2.439,1.938,7.137,1.918,9.733.343,2.028-1.23,3.107-2.6,3-4.083-.673-1.444-1.656-1.781-1.581-3.575C269.416,251.364,271.842,248.81,272.538,246.66Z" transform="translate(-248.047 -224.569)" fill="#5ab5ff"/>
          <path id="Trazado_3557" data-name="Trazado 3557" d="M261.928,240.825c-2.466-2.153-6.462.235-8.105,2.421-1.193.3-.164,5.484,1.1,6.009,2.02,2.19,5,2.19,7.349.13C264.551,247.385,264.118,242.737,261.928,240.825Z" transform="translate(-248.189 -224.402)" fill="#eddcda"/>
          <path id="Trazado_3558" data-name="Trazado 3558" d="M253.869,243.111l-.978.5a3.776,3.776,0,0,0-.657,2.7,3.124,3.124,0,0,0,1.246,2.634l1.489.175a8.994,8.994,0,0,1-1.46-3.041A5.3,5.3,0,0,1,253.869,243.111Z" transform="translate(-248.235 -224.266)" fill="#5ab5ff"/>
          <path id="Trazado_3559" data-name="Trazado 3559" d="M258.117,257.912c-1.164,1.51-2.364,3.581-4.6,7.137-1.664,2.652-4.987,10.468-4.987,10.468s-.828,2.895,1.632,4.3,2.612,1.763,3.542,4.133c.827,2.108,3.929,2.836,6.018.859,2.705-2.559,6,2.236,9.586,1.154,2.049-.619,3.5-4.214,4.385-4.686,2.487-1.332,3.429.959,5.929-1.106a20.15,20.15,0,0,0,4.035-4.658s-7.057-14.793-9.964-17.343-4.385-4.113-4.385-4.113S260.282,255.1,258.117,257.912Z" transform="translate(-248.4 -223.793)" fill="#5ab5ff"/>
          <path id="Trazado_3560" data-name="Trazado 3560" d="M259.683,263.025c-3.393,4.353-4.511,10.985-5.4,16.288a.323.323,0,0,0,.622.171c1.953-5.3,3.426-10.921,4.946-16.36C259.88,263.033,259.749,262.941,259.683,263.025Z" transform="translate(-248.146 -223.406)" fill="#3688d8"/>
          <path id="Trazado_3561" data-name="Trazado 3561" d="M260.98,266.79a.079.079,0,0,0-.153-.021,69.165,69.165,0,0,0-1.99,13.94.3.3,0,0,0,.595.08A48.194,48.194,0,0,0,260.98,266.79Z" transform="translate(-247.949 -223.245)" fill="#3688d8"/>
          <path id="Trazado_3562" data-name="Trazado 3562" d="M266.938,264.636c-.041-.1-.2-.066-.169.046,1.343,4.848,1.464,9.86,2.618,14.7.1.427.667.283.709-.1C270.652,274.443,268.741,269.039,266.938,264.636Z" transform="translate(-247.606 -223.338)" fill="#3688d8"/>
          <path id="Trazado_3563" data-name="Trazado 3563" d="M272.145,264.24c-.145-.124-.413.043-.285.219a22.82,22.82,0,0,1,2.929,4.938,48.054,48.054,0,0,1,1.347,5.052.446.446,0,0,0,.872-.119C277.2,270.669,274.846,266.568,272.145,264.24Z" transform="translate(-247.387 -223.354)" fill="#3688d8"/>
          <path id="Trazado_3564" data-name="Trazado 3564" d="M258.322,255.565l-.608,2.339s3.959,2.817,8.283,1.553c4.414-1.291,5.194-3.187,5.194-3.187l-1.7-2.039A10.463,10.463,0,0,1,258.322,255.565Z" transform="translate(-247.998 -223.785)" fill="#3688d8"/>
        </g>
        <path id="Trazado_3565" data-name="Trazado 3565" d="M271.167,228c-.473-1.545-1.237-2.188-2.329-2.3-.554-.969-1.007-1.706-4.112-1.62-.713.02-3.874.333-4.914-.006.3.686.328,1.022.975,1.48-.974.225-1.685.39-2.6.612.333,1.865,2.795,4.61,4.319,4.49a6.915,6.915,0,0,0,.861,3.275,5.01,5.01,0,0,0,3.868,3.138c1.2-2.027,2.732-3.7,3.313-5.2C270.922,230.9,271.562,229.286,271.167,228Z" transform="translate(-239.394 -222.654)" fill="#3f2a28"/>
        <path id="Trazado_3566" data-name="Trazado 3566" d="M261.837,230.41s1.753-1.2,2.03.506a2.12,2.12,0,0,1-1.389,2.3Z" transform="translate(-239.236 -222.398)" fill="#ffc9b6"/>
        <path id="Trazado_3567" data-name="Trazado 3567" d="M264.692,256.446c-1.248.029-2.791-.839-4.5-1.826s-2.276-.971-3.041-.777-1.107.728-.974,2.038c-.616.97-3.06,3.77-3.562,5.792s.158,3.135,4.087,5.366,5.833,2.333,8.261,1.458,2.759-3.032,2.225-5.107a44.54,44.54,0,0,1-.954-4.551C266.078,257.685,265.5,256.428,264.692,256.446Z" transform="translate(-239.642 -221.371)" fill="#543b39"/>
        <path id="Trazado_3568" data-name="Trazado 3568" d="M256.954,254.841a15.352,15.352,0,0,0,3.392,2.167,8.7,8.7,0,0,0,2.917.823l1.528-.563a21.848,21.848,0,0,1-3.918-1.337,7.7,7.7,0,0,1-2.48-1.7Z" transform="translate(-239.448 -221.35)" fill="#47302f"/>
        <path id="Trazado_3569" data-name="Trazado 3569" d="M260.336,240.243s1.613.734,2.6,4.255.184,13.957.184,13.957l1.528-.563s.734-10.12-.221-13.965-2.64-4.117-2.64-4.117Z" transform="translate(-239.301 -221.973)" fill="#3f2a28"/>
        <path id="Trazado_3570" data-name="Trazado 3570" d="M256.954,249.354v5.7l1.438-.61.148-4.971Z" transform="translate(-239.448 -221.561)" fill="#3f2a28"/>
        <path id="Trazado_3571" data-name="Trazado 3571" d="M264.648,258.316l-1.164.28s-.067,4.513-.13,6.649.372,2.453,1.635,1.833,1.1-1.882.625-4.066S264.648,258.316,264.648,258.316Z" transform="translate(-239.171 -221.173)" fill="#47302f"/>
        <path id="Trazado_3572" data-name="Trazado 3572" d="M256.075,255.793s-2.705,3.737-.42,6.114,4.975,2.524,6.151.146a10.72,10.72,0,0,0,1.247-3.628,18.892,18.892,0,0,1-2.084,3.676c-.946,1.067-3.572.8-4.683-.516a3.1,3.1,0,0,1-.826-3.366C255.741,257.125,256.075,255.793,256.075,255.793Z" transform="translate(-239.543 -221.282)" fill="#47302f"/>
        <circle id="Elipse_240" data-name="Elipse 240" cx="0.421" cy="0.421" r="0.421" transform="translate(16.979 39.461)" fill="#fcbd0d"/>
        <path id="Trazado_3573" data-name="Trazado 3573" d="M250.6,227.412l-4.459-4.7.728,3.294-4.915-1.29,2.731,3.019-4.513.456,8.589,2.47-1.352-2.152h1.84l-.38-1.1Z" transform="translate(-240.173 -222.713)" fill="#eddcda"/>
      </g>
      <g id="Grupo_26792" data-name="Grupo 26792" transform="translate(141.477 35.432)">
        <g id="Grupo_26723" data-name="Grupo 26723" transform="translate(0 183.465)">
          <path id="Trazado_3574" data-name="Trazado 3574" d="M140.655,225.123l23.958,13.832,23.958-13.832-23.958-13.832Z" transform="translate(-140.655 -211.291)" fill="#dd995b"/>
          <path id="Trazado_3575" data-name="Trazado 3575" d="M187.577,224.55v36.076L163.62,274.458V238.382Z" transform="translate(-139.662 -210.718)" fill="#c68246"/>
          <path id="Trazado_3576" data-name="Trazado 3576" d="M140.655,224.55v36.076l23.958,13.832V238.382Z" transform="translate(-140.655 -210.718)" fill="#cc8c4c"/>
          <g id="Grupo_26719" data-name="Grupo 26719" transform="translate(3.529 23.361)">
            <path id="Trazado_3577" data-name="Trazado 3577" d="M145.279,245.182V234.943a1.489,1.489,0,0,0-.621-1.185c-.341-.2-.621.014-.621.468V244.6Q144.664,244.881,145.279,245.182Z" transform="translate(-144.038 -233.684)" fill="#bc743f"/>
            <path id="Trazado_3578" data-name="Trazado 3578" d="M148.2,246.678V236.627a1.492,1.492,0,0,0-.622-1.186c-.341-.2-.621.015-.621.469v10.113Q147.575,246.349,148.2,246.678Z" transform="translate(-143.912 -233.611)" fill="#bc743f"/>
            <path id="Trazado_3579" data-name="Trazado 3579" d="M151.112,248.137v-9.825a1.494,1.494,0,0,0-.621-1.186c-.342-.2-.621.015-.621.469v9.94Q150.488,247.846,151.112,248.137Z" transform="translate(-143.786 -233.538)" fill="#bc743f"/>
            <path id="Trazado_3580" data-name="Trazado 3580" d="M154.028,249.4v-9.41a1.492,1.492,0,0,0-.621-1.185c-.341-.2-.621.014-.621.468v9.584Q153.411,249.129,154.028,249.4Z" transform="translate(-143.66 -233.466)" fill="#bc743f"/>
            <path id="Trazado_3581" data-name="Trazado 3581" d="M156.944,250.887v-9.209a1.494,1.494,0,0,0-.621-1.186c-.341-.2-.621.015-.621.469v9.233Q156.337,250.521,156.944,250.887Z" transform="translate(-143.534 -233.393)" fill="#bc743f"/>
            <path id="Trazado_3582" data-name="Trazado 3582" d="M159.86,252.571v-9.209a1.489,1.489,0,0,0-.621-1.186c-.341-.2-.621.014-.621.469v9.233Q159.253,252.2,159.86,252.571Z" transform="translate(-143.407 -233.32)" fill="#bc743f"/>
          </g>
          <g id="Grupo_26720" data-name="Grupo 26720" transform="translate(27.933 38.786)">
            <path id="Trazado_3583" data-name="Trazado 3583" d="M182.011,259.968V249.729a1.494,1.494,0,0,1,.621-1.186c.341-.2.621.015.621.469v10.374Q182.628,259.667,182.011,259.968Z" transform="translate(-166.799 -248.469)" fill="#bc743f"/>
            <path id="Trazado_3584" data-name="Trazado 3584" d="M179.095,261.463v-10.05a1.489,1.489,0,0,1,.621-1.186c.341-.2.621.014.621.469v10.112Q179.715,261.134,179.095,261.463Z" transform="translate(-166.926 -248.396)" fill="#bc743f"/>
            <path id="Trazado_3585" data-name="Trazado 3585" d="M176.179,262.923V253.1a1.491,1.491,0,0,1,.621-1.186c.341-.2.621.015.621.469v9.941Q176.8,262.63,176.179,262.923Z" transform="translate(-167.052 -248.324)" fill="#bc743f"/>
            <path id="Trazado_3586" data-name="Trazado 3586" d="M173.262,264.189V254.78a1.494,1.494,0,0,1,.621-1.186c.342-.2.621.015.621.469v9.584Q173.881,263.915,173.262,264.189Z" transform="translate(-167.178 -248.251)" fill="#bc743f"/>
            <path id="Trazado_3587" data-name="Trazado 3587" d="M170.346,265.673v-9.209a1.492,1.492,0,0,1,.621-1.186c.341-.2.621.014.621.47v9.232Q170.954,265.306,170.346,265.673Z" transform="translate(-167.304 -248.178)" fill="#bc743f"/>
            <path id="Trazado_3588" data-name="Trazado 3588" d="M167.43,267.356v-9.209a1.494,1.494,0,0,1,.621-1.186c.341-.2.621.015.621.47v9.233Q168.038,266.99,167.43,267.356Z" transform="translate(-167.43 -248.105)" fill="#bc743f"/>
          </g>
          <path id="Trazado_3589" data-name="Trazado 3589" d="M187.577,255.571v3.714L163.62,273.116V269.4Z" transform="translate(-139.662 -209.376)" fill="#a56234"/>
          <path id="Trazado_3590" data-name="Trazado 3590" d="M140.655,240.706v3.714l23.958,13.832v-3.714Z" transform="translate(-140.655 -210.019)" fill="#af6837"/>
          <g id="Grupo_26721" data-name="Grupo 26721" transform="translate(3.529 38.786)">
            <path id="Trazado_3591" data-name="Trazado 3591" d="M145.279,259.968V249.729a1.491,1.491,0,0,0-.621-1.186c-.341-.2-.621.015-.621.469v10.374Q144.664,259.667,145.279,259.968Z" transform="translate(-144.038 -248.469)" fill="#bc743f"/>
            <path id="Trazado_3592" data-name="Trazado 3592" d="M148.2,261.463v-10.05a1.49,1.49,0,0,0-.622-1.186c-.341-.2-.621.014-.621.469v10.112Q147.575,261.134,148.2,261.463Z" transform="translate(-143.912 -248.396)" fill="#bc743f"/>
            <path id="Trazado_3593" data-name="Trazado 3593" d="M151.112,262.923V253.1a1.494,1.494,0,0,0-.621-1.186c-.342-.2-.621.015-.621.469v9.941Q150.488,262.63,151.112,262.923Z" transform="translate(-143.786 -248.324)" fill="#bc743f"/>
            <path id="Trazado_3594" data-name="Trazado 3594" d="M154.028,264.189V254.78a1.494,1.494,0,0,0-.621-1.186c-.341-.2-.621.015-.621.469v9.584Q153.411,263.915,154.028,264.189Z" transform="translate(-143.66 -248.251)" fill="#bc743f"/>
            <path id="Trazado_3595" data-name="Trazado 3595" d="M156.944,265.673v-9.209a1.492,1.492,0,0,0-.621-1.186c-.341-.2-.621.014-.621.47v9.232Q156.337,265.306,156.944,265.673Z" transform="translate(-143.534 -248.178)" fill="#bc743f"/>
            <path id="Trazado_3596" data-name="Trazado 3596" d="M159.86,267.356v-9.209a1.491,1.491,0,0,0-.621-1.186c-.341-.2-.621.015-.621.47v9.233Q159.253,266.99,159.86,267.356Z" transform="translate(-143.407 -248.105)" fill="#bc743f"/>
          </g>
          <path id="Trazado_3597" data-name="Trazado 3597" d="M140.655,255.492v3.714l23.958,13.832v-3.714Z" transform="translate(-140.655 -209.38)" fill="#af6837"/>
          <g id="Grupo_26722" data-name="Grupo 26722" transform="translate(27.933 23.361)">
            <path id="Trazado_3598" data-name="Trazado 3598" d="M182.011,245.182V234.943a1.492,1.492,0,0,1,.621-1.185c.341-.2.621.014.621.468V244.6Q182.628,244.881,182.011,245.182Z" transform="translate(-166.799 -233.684)" fill="#bc743f"/>
            <path id="Trazado_3599" data-name="Trazado 3599" d="M179.095,246.678V236.627a1.491,1.491,0,0,1,.621-1.186c.341-.2.621.015.621.469v10.113Q179.715,246.349,179.095,246.678Z" transform="translate(-166.926 -233.611)" fill="#bc743f"/>
            <path id="Trazado_3600" data-name="Trazado 3600" d="M176.179,248.137v-9.825a1.491,1.491,0,0,1,.621-1.186c.341-.2.621.015.621.469v9.94Q176.8,247.846,176.179,248.137Z" transform="translate(-167.052 -233.538)" fill="#bc743f"/>
            <path id="Trazado_3601" data-name="Trazado 3601" d="M173.262,249.4v-9.41a1.492,1.492,0,0,1,.621-1.185c.342-.2.621.014.621.468v9.584Q173.881,249.129,173.262,249.4Z" transform="translate(-167.178 -233.466)" fill="#bc743f"/>
            <path id="Trazado_3602" data-name="Trazado 3602" d="M170.346,250.887v-9.209a1.494,1.494,0,0,1,.621-1.186c.341-.2.621.015.621.469v9.233Q170.954,250.521,170.346,250.887Z" transform="translate(-167.304 -233.393)" fill="#bc743f"/>
            <path id="Trazado_3603" data-name="Trazado 3603" d="M167.43,252.571v-9.209a1.492,1.492,0,0,1,.621-1.186c.341-.2.621.014.621.469v9.233Q168.038,252.2,167.43,252.571Z" transform="translate(-167.43 -233.32)" fill="#bc743f"/>
          </g>
          <path id="Trazado_3604" data-name="Trazado 3604" d="M187.577,240.706v3.714L163.62,258.252v-3.714Z" transform="translate(-139.662 -210.019)" fill="#a56234"/>
          <path id="Trazado_3605" data-name="Trazado 3605" d="M187.577,224.572v3.714L163.62,242.118V238.4Z" transform="translate(-139.662 -210.717)" fill="#a56234"/>
          <path id="Trazado_3606" data-name="Trazado 3606" d="M140.655,224.572v3.714l23.958,13.832V238.4Z" transform="translate(-140.655 -210.717)" fill="#af6837"/>
        </g>
        <g id="Grupo_26731" data-name="Grupo 26731" transform="translate(2.585 98.736)">
          <g id="Grupo_26724" data-name="Grupo 26724" transform="translate(0 1.547)">
            <path id="Trazado_3607" data-name="Trazado 3607" d="M143.133,143.9l21.372,12.339L185.878,143.9l-21.372-12.339Z" transform="translate(-143.133 -131.558)" fill="#dd995b"/>
            <path id="Trazado_3608" data-name="Trazado 3608" d="M184.992,143.386V227.7L163.62,240.038V155.725Z" transform="translate(-142.247 -131.046)" fill="#bc743f"/>
            <path id="Trazado_3609" data-name="Trazado 3609" d="M143.133,143.386V227.7l21.372,12.339V155.725Z" transform="translate(-143.133 -131.046)" fill="#c68246"/>
            <path id="Trazado_3610" data-name="Trazado 3610" d="M184.992,166.311v4.335L163.62,182.986v-4.335Z" transform="translate(-142.247 -130.055)" fill="#a56234"/>
            <path id="Trazado_3611" data-name="Trazado 3611" d="M143.133,166.311v4.335l21.372,12.339v-4.335Z" transform="translate(-143.133 -130.055)" fill="#bc743f"/>
            <path id="Trazado_3612" data-name="Trazado 3612" d="M184.992,192.869V197.2L163.62,209.544v-4.335Z" transform="translate(-142.247 -128.906)" fill="#a56234"/>
            <path id="Trazado_3613" data-name="Trazado 3613" d="M143.133,192.869V197.2l21.372,12.339v-4.335Z" transform="translate(-143.133 -128.906)" fill="#bc743f"/>
          </g>
          <g id="Grupo_26725" data-name="Grupo 26725" transform="translate(3.658 20.064)">
            <path id="Trazado_3614" data-name="Trazado 3614" d="M147.881,170.59V150.566a1.494,1.494,0,0,0-.621-1.186c-.342-.2-.621.015-.621.469v20.024Z" transform="translate(-146.64 -149.307)" fill="#bc743f"/>
            <path id="Trazado_3615" data-name="Trazado 3615" d="M150.8,172.274V152.25a1.494,1.494,0,0,0-.621-1.186c-.341-.2-.621.015-.621.469v20.024Z" transform="translate(-146.514 -149.234)" fill="#bc743f"/>
            <path id="Trazado_3616" data-name="Trazado 3616" d="M153.713,173.958V153.934a1.492,1.492,0,0,0-.621-1.186c-.341-.2-.621.014-.621.47v20.024Z" transform="translate(-146.388 -149.161)" fill="#bc743f"/>
            <path id="Trazado_3617" data-name="Trazado 3617" d="M156.629,175.641V155.617a1.49,1.49,0,0,0-.621-1.185c-.341-.2-.621.014-.621.468v20.024Z" transform="translate(-146.262 -149.088)" fill="#bc743f"/>
            <path id="Trazado_3618" data-name="Trazado 3618" d="M159.545,177.325V157.3a1.491,1.491,0,0,0-.621-1.186c-.341-.2-.621.015-.621.469v20.024Z" transform="translate(-146.136 -149.015)" fill="#bc743f"/>
          </g>
          <g id="Grupo_26726" data-name="Grupo 26726" transform="translate(3.658 47.434)">
            <path id="Trazado_3619" data-name="Trazado 3619" d="M147.881,196.826V176.8a1.494,1.494,0,0,0-.621-1.186c-.342-.2-.621.015-.621.469V196.11Z" transform="translate(-146.64 -175.542)" fill="#bc743f"/>
            <path id="Trazado_3620" data-name="Trazado 3620" d="M150.8,198.509V178.486a1.492,1.492,0,0,0-.621-1.186c-.341-.2-.621.014-.621.469v20.023Z" transform="translate(-146.514 -175.469)" fill="#bc743f"/>
            <path id="Trazado_3621" data-name="Trazado 3621" d="M153.713,200.193V180.169a1.494,1.494,0,0,0-.621-1.186c-.341-.2-.621.015-.621.469v20.024Z" transform="translate(-146.388 -175.397)" fill="#bc743f"/>
            <path id="Trazado_3622" data-name="Trazado 3622" d="M156.629,201.877V181.853a1.494,1.494,0,0,0-.621-1.186c-.341-.2-.621.015-.621.469v20.024Z" transform="translate(-146.262 -175.324)" fill="#bc743f"/>
            <path id="Trazado_3623" data-name="Trazado 3623" d="M159.545,203.561V183.537a1.489,1.489,0,0,0-.621-1.186c-.341-.2-.621.014-.621.469v20.023Z" transform="translate(-146.136 -175.251)" fill="#bc743f"/>
          </g>
          <path id="Trazado_3624" data-name="Trazado 3624" d="M184.992,220.005v4.335L163.62,236.68v-4.335Z" transform="translate(-142.247 -126.186)" fill="#a56234"/>
          <path id="Trazado_3625" data-name="Trazado 3625" d="M143.133,220.005v4.335l21.372,12.339v-4.335Z" transform="translate(-143.133 -126.186)" fill="#bc743f"/>
          <g id="Grupo_26727" data-name="Grupo 26727" transform="translate(3.658 75.743)">
            <path id="Trazado_3626" data-name="Trazado 3626" d="M147.881,223.962V203.938a1.494,1.494,0,0,0-.621-1.186c-.342-.2-.621.015-.621.469v20.024Z" transform="translate(-146.64 -202.678)" fill="#bc743f"/>
            <path id="Trazado_3627" data-name="Trazado 3627" d="M150.8,225.646V205.622a1.492,1.492,0,0,0-.621-1.186c-.341-.2-.621.014-.621.47V224.93Z" transform="translate(-146.514 -202.605)" fill="#bc743f"/>
            <path id="Trazado_3628" data-name="Trazado 3628" d="M153.713,227.329V207.305a1.492,1.492,0,0,0-.621-1.185c-.341-.2-.621.014-.621.468v20.024Z" transform="translate(-146.388 -202.533)" fill="#bc743f"/>
            <path id="Trazado_3629" data-name="Trazado 3629" d="M156.629,229.013V208.989a1.494,1.494,0,0,0-.621-1.186c-.341-.2-.621.015-.621.469V228.3Z" transform="translate(-146.262 -202.46)" fill="#bc743f"/>
            <path id="Trazado_3630" data-name="Trazado 3630" d="M159.545,230.7V210.673a1.489,1.489,0,0,0-.621-1.186c-.341-.2-.621.014-.621.469v20.024Z" transform="translate(-146.136 -202.387)" fill="#bc743f"/>
          </g>
          <g id="Grupo_26728" data-name="Grupo 26728" transform="translate(25.353 20.064)">
            <path id="Trazado_3631" data-name="Trazado 3631" d="M179.1,170.59V150.566a1.494,1.494,0,0,1,.621-1.186c.341-.2.621.015.621.469v20.024Z" transform="translate(-166.931 -149.307)" fill="#a56234"/>
            <path id="Trazado_3632" data-name="Trazado 3632" d="M176.184,172.274V152.25a1.494,1.494,0,0,1,.621-1.186c.341-.2.621.015.621.469v20.024Z" transform="translate(-167.057 -149.234)" fill="#a56234"/>
            <path id="Trazado_3633" data-name="Trazado 3633" d="M173.268,173.958V153.934a1.492,1.492,0,0,1,.621-1.186c.341-.2.621.014.621.47v20.024Z" transform="translate(-167.183 -149.161)" fill="#a56234"/>
            <path id="Trazado_3634" data-name="Trazado 3634" d="M170.352,175.641V155.617a1.487,1.487,0,0,1,.621-1.185c.341-.2.621.014.621.468v20.024Z" transform="translate(-167.309 -149.088)" fill="#a56234"/>
            <path id="Trazado_3635" data-name="Trazado 3635" d="M167.435,177.325V157.3a1.494,1.494,0,0,1,.621-1.186c.342-.2.621.015.621.469v20.024Z" transform="translate(-167.435 -149.015)" fill="#a56234"/>
          </g>
          <g id="Grupo_26729" data-name="Grupo 26729" transform="translate(25.353 75.743)">
            <path id="Trazado_3636" data-name="Trazado 3636" d="M179.1,223.962V203.938a1.494,1.494,0,0,1,.621-1.186c.341-.2.621.015.621.469v20.024Z" transform="translate(-166.931 -202.678)" fill="#a56234"/>
            <path id="Trazado_3637" data-name="Trazado 3637" d="M176.184,225.646V205.622a1.492,1.492,0,0,1,.621-1.186c.341-.2.621.014.621.47V224.93Z" transform="translate(-167.057 -202.605)" fill="#a56234"/>
            <path id="Trazado_3638" data-name="Trazado 3638" d="M173.268,227.329V207.305a1.492,1.492,0,0,1,.621-1.185c.341-.2.621.014.621.468v20.024Z" transform="translate(-167.183 -202.533)" fill="#a56234"/>
            <path id="Trazado_3639" data-name="Trazado 3639" d="M170.352,229.013V208.989a1.491,1.491,0,0,1,.621-1.186c.341-.2.621.015.621.469V228.3Z" transform="translate(-167.309 -202.46)" fill="#a56234"/>
            <path id="Trazado_3640" data-name="Trazado 3640" d="M167.435,230.7V210.673a1.492,1.492,0,0,1,.621-1.186c.342-.2.621.014.621.469v20.024Z" transform="translate(-167.435 -202.387)" fill="#a56234"/>
          </g>
          <path id="Trazado_3641" data-name="Trazado 3641" d="M144.4,229l-1.267-.732V130.075l1.267.732Z" transform="translate(-143.133 -130.075)" fill="#af6837"/>
          <path id="Trazado_3642" data-name="Trazado 3642" d="M163.672,240.09l-1.267-.731V141.166l1.267.732Z" transform="translate(-142.3 -129.595)" fill="#af6837"/>
          <path id="Trazado_3643" data-name="Trazado 3643" d="M182.892,229l1.267-.732V130.075l-1.267.732Z" transform="translate(-141.414 -130.075)" fill="#a56234"/>
          <path id="Trazado_3644" data-name="Trazado 3644" d="M163.62,240.09l1.267-.731V141.166l-1.267.732Z" transform="translate(-142.247 -129.595)" fill="#a56234"/>
          <g id="Grupo_26730" data-name="Grupo 26730" transform="translate(25.353 47.434)">
            <path id="Trazado_3645" data-name="Trazado 3645" d="M179.1,196.826V176.8a1.494,1.494,0,0,1,.621-1.186c.341-.2.621.015.621.469V196.11Z" transform="translate(-166.931 -175.542)" fill="#a56234"/>
            <path id="Trazado_3646" data-name="Trazado 3646" d="M176.184,198.509V178.486a1.492,1.492,0,0,1,.621-1.186c.341-.2.621.014.621.469v20.023Z" transform="translate(-167.057 -175.469)" fill="#a56234"/>
            <path id="Trazado_3647" data-name="Trazado 3647" d="M173.268,200.193V180.169a1.494,1.494,0,0,1,.621-1.186c.341-.2.621.015.621.469v20.024Z" transform="translate(-167.183 -175.397)" fill="#a56234"/>
            <path id="Trazado_3648" data-name="Trazado 3648" d="M170.352,201.877V181.853a1.491,1.491,0,0,1,.621-1.186c.341-.2.621.015.621.469v20.024Z" transform="translate(-167.309 -175.324)" fill="#a56234"/>
            <path id="Trazado_3649" data-name="Trazado 3649" d="M167.435,203.561V183.537a1.492,1.492,0,0,1,.621-1.186c.342-.2.621.014.621.469v20.023Z" transform="translate(-167.435 -175.251)" fill="#a56234"/>
          </g>
        </g>
        <g id="Grupo_26751" data-name="Grupo 26751" transform="translate(0.511 41.074)">
          <g id="Grupo_26732" data-name="Grupo 26732" transform="translate(0 23.069)">
            <path id="Trazado_3650" data-name="Trazado 3650" d="M141.145,110.453l23.447,13.537,23.447-13.537L164.592,96.916Z" transform="translate(-141.145 -96.916)" fill="#dd995b"/>
            <path id="Trazado_3651" data-name="Trazado 3651" d="M187.067,109.892V145.2L163.62,158.736V123.429Z" transform="translate(-140.173 -96.355)" fill="#c68246"/>
            <path id="Trazado_3652" data-name="Trazado 3652" d="M141.145,109.892V145.2l23.447,13.537V123.429Z" transform="translate(-141.145 -96.355)" fill="#cc8c4c"/>
            <path id="Trazado_3653" data-name="Trazado 3653" d="M143.547,114.9v27.758L161.981,153.3V125.54Z" transform="translate(-141.041 -96.138)" fill="#eddcda"/>
            <path id="Trazado_3654" data-name="Trazado 3654" d="M144.536,116.956v24.653l16.372,9.452V126.408Z" transform="translate(-140.998 -96.049)" fill="#d8c4c3"/>
            <path id="Trazado_3655" data-name="Trazado 3655" d="M184.456,114.9v27.758L166.022,153.3V125.54Z" transform="translate(-140.069 -96.138)" fill="#d8c4c3"/>
            <path id="Trazado_3656" data-name="Trazado 3656" d="M183.382,116.956v24.653l-16.372,9.452V126.408Z" transform="translate(-140.026 -96.049)" fill="#c6afaf"/>
          </g>
          <path id="Trazado_3657" data-name="Trazado 3657" d="M146.763,101.857l17.585,10.153,17.585-10.153L164.349,91.7Z" transform="translate(-140.901 -74.072)" fill="#dd995b"/>
          <path id="Trazado_3658" data-name="Trazado 3658" d="M153.494,92.711l10.563,6.1,10.563-6.1-10.563-6.1Z" transform="translate(-140.61 -74.292)" fill="#eddcda"/>
          <path id="Trazado_3659" data-name="Trazado 3659" d="M153.494,80.9,164.057,87l10.563-6.1-10.563-6.1Z" transform="translate(-140.61 -74.803)" fill="#c6afaf"/>
          <g id="Grupo_26740" data-name="Grupo 26740" transform="translate(25.382 49.197)">
            <ellipse id="Elipse_241" data-name="Elipse 241" cx="10.452" cy="5.913" rx="10.452" ry="5.913" transform="matrix(0.392, -0.92, 0.92, 0.392, 0, 19.235)" fill="#fff"/>
            <path id="Trazado_3660" data-name="Trazado 3660" d="M175.345,133.048a2.026,2.026,0,0,1-.847,1.617c-.467.27-.846-.017-.846-.639a2.028,2.028,0,0,1,.846-1.618C174.966,132.137,175.345,132.424,175.345,133.048Z" transform="translate(-165.12 -121.514)" fill="#844141"/>
            <g id="Grupo_26733" data-name="Grupo 26733" transform="translate(9.378 3.672)">
              <path id="Trazado_3661" data-name="Trazado 3661" d="M174.774,128.092l-.311.179V125.66l.311-.179Z" transform="translate(-174.463 -125.481)" fill="#844141"/>
              <path id="Trazado_3662" data-name="Trazado 3662" d="M174.774,141.254l-.311.179v-2.612l.311-.179Z" transform="translate(-174.463 -124.911)" fill="#844141"/>
            </g>
            <g id="Grupo_26734" data-name="Grupo 26734" transform="translate(3.405 8.187)">
              <path id="Trazado_3663" data-name="Trazado 3663" d="M178.609,131.354v-.414l1.959-1.131v.414Z" transform="translate(-168.311 -129.809)" fill="#844141"/>
              <path id="Trazado_3664" data-name="Trazado 3664" d="M168.738,137.053v-.414l1.959-1.131v.414Z" transform="translate(-168.738 -129.563)" fill="#844141"/>
            </g>
            <g id="Grupo_26735" data-name="Grupo 26735" transform="translate(6.357 3.058)">
              <path id="Trazado_3665" data-name="Trazado 3665" d="M176.736,127.771l-.27-.05.972-2.829.27.05Z" transform="translate(-171.355 -124.892)" fill="#844141"/>
              <path id="Trazado_3666" data-name="Trazado 3666" d="M171.837,142.026l-.27-.05.972-2.829.27.05Z" transform="translate(-171.567 -124.276)" fill="#844141"/>
            </g>
            <g id="Grupo_26736" data-name="Grupo 26736" transform="translate(4.191 4.576)">
              <path id="Trazado_3667" data-name="Trazado 3667" d="M178.127,128.92l-.159-.264,1.682-2.309.159.264Z" transform="translate(-169.124 -126.347)" fill="#844141"/>
              <path id="Trazado_3668" data-name="Trazado 3668" d="M169.65,140.558l-.159-.264,1.682-2.309.159.264Z" transform="translate(-169.491 -125.844)" fill="#844141"/>
            </g>
            <g id="Grupo_26737" data-name="Grupo 26737" transform="translate(6.512 6.325)">
              <path id="Trazado_3669" data-name="Trazado 3669" d="M172.688,130.091l.27-.361-.972-1.706-.27.361Z" transform="translate(-171.716 -128.024)" fill="#844141"/>
              <path id="Trazado_3670" data-name="Trazado 3670" d="M177.588,138.688l.27-.361-.972-1.706-.27.361Z" transform="translate(-171.504 -127.652)" fill="#844141"/>
            </g>
            <g id="Grupo_26738" data-name="Grupo 26738" transform="translate(4.31 10.579)">
              <path id="Trazado_3671" data-name="Trazado 3671" d="M171.3,132.882l.156-.448-1.694-.332-.156.448Z" transform="translate(-169.605 -132.101)" fill="#844141"/>
              <path id="Trazado_3672" data-name="Trazado 3672" d="M179.838,134.557l.156-.448-1.694-.333-.156.448Z" transform="translate(-169.236 -132.029)" fill="#844141"/>
            </g>
            <g id="Grupo_26739" data-name="Grupo 26739" transform="translate(9.197 7.376)">
              <path id="Trazado_3673" data-name="Trazado 3673" d="M176.708,135.468l-2.418-1.61,1.655-4.827.389.107-1.541,4.5,2.112,1.438Z" transform="translate(-174.29 -129.031)" fill="#844141"/>
            </g>
          </g>
          <g id="Grupo_26748" data-name="Grupo 26748" transform="translate(1.911 49.197)">
            <ellipse id="Elipse_242" data-name="Elipse 242" cx="5.913" cy="10.452" rx="5.913" ry="10.452" transform="translate(0 4.631) rotate(-23.051)" fill="#fff"/>
            <path id="Trazado_3674" data-name="Trazado 3674" d="M152.848,133.853c0,.623-.38.91-.847.64a2.028,2.028,0,0,1-.846-1.617c0-.624.379-.911.846-.641A2.029,2.029,0,0,1,152.848,133.853Z" transform="translate(-142.623 -121.521)" fill="#844141"/>
            <g id="Grupo_26741" data-name="Grupo 26741" transform="translate(9.378 3.672)">
              <path id="Trazado_3675" data-name="Trazado 3675" d="M152.277,128.272l-.311-.179v-2.612l.311.179Z" transform="translate(-151.966 -125.481)" fill="#844141"/>
              <path id="Trazado_3676" data-name="Trazado 3676" d="M152.277,141.434l-.311-.179v-2.612l.311.179Z" transform="translate(-151.966 -124.911)" fill="#844141"/>
            </g>
            <g id="Grupo_26742" data-name="Grupo 26742" transform="translate(3.405 8.187)">
              <path id="Trazado_3677" data-name="Trazado 3677" d="M156.112,135.922v-.414l1.959,1.131v.414Z" transform="translate(-145.813 -129.563)" fill="#844141"/>
              <path id="Trazado_3678" data-name="Trazado 3678" d="M146.24,130.223v-.414l1.959,1.131v.414Z" transform="translate(-146.24 -129.809)" fill="#844141"/>
            </g>
            <g id="Grupo_26743" data-name="Grupo 26743" transform="translate(6.357 6.415)">
              <path id="Trazado_3679" data-name="Trazado 3679" d="M154.239,130.177l-.27-.361.972-1.706.27.361Z" transform="translate(-148.858 -128.11)" fill="#844141"/>
              <path id="Trazado_3680" data-name="Trazado 3680" d="M149.34,138.774l-.27-.361.972-1.706.27.361Z" transform="translate(-149.07 -127.738)" fill="#844141"/>
            </g>
            <g id="Grupo_26744" data-name="Grupo 26744" transform="translate(4.191 10.561)">
              <path id="Trazado_3681" data-name="Trazado 3681" d="M155.63,132.9l-.159-.448,1.682-.367.159.447Z" transform="translate(-146.627 -132.084)" fill="#844141"/>
              <path id="Trazado_3682" data-name="Trazado 3682" d="M147.153,134.748l-.159-.447,1.682-.367.159.447Z" transform="translate(-146.994 -132.004)" fill="#844141"/>
            </g>
            <g id="Grupo_26745" data-name="Grupo 26745" transform="translate(6.512 3.148)">
              <path id="Trazado_3683" data-name="Trazado 3683" d="M150.191,127.857l.27-.05-.972-2.829-.27.05Z" transform="translate(-149.219 -124.978)" fill="#844141"/>
              <path id="Trazado_3684" data-name="Trazado 3684" d="M155.091,142.112l.27-.05-.972-2.829-.27.05Z" transform="translate(-149.007 -124.362)" fill="#844141"/>
            </g>
            <g id="Grupo_26746" data-name="Grupo 26746" transform="translate(4.31 4.727)">
              <path id="Trazado_3685" data-name="Trazado 3685" d="M148.8,129.049l.156-.268-1.694-2.289-.156.268Z" transform="translate(-147.108 -126.492)" fill="#844141"/>
              <path id="Trazado_3686" data-name="Trazado 3686" d="M157.34,140.584l.156-.268-1.694-2.289-.156.268Z" transform="translate(-146.739 -125.993)" fill="#844141"/>
            </g>
            <g id="Grupo_26747" data-name="Grupo 26747" transform="translate(9.05 8.898)">
              <path id="Trazado_3687" data-name="Trazado 3687" d="M154.07,137.926l-2.418-4.4,1.8-3.034.249.332-1.541,2.72,2.253,4.1Z" transform="translate(-151.651 -130.49)" fill="#844141"/>
            </g>
          </g>
          <g id="Grupo_26749" data-name="Grupo 26749" transform="translate(5.861 27.786)">
            <path id="Trazado_3688" data-name="Trazado 3688" d="M164.349,111.59l-17.586-10.153v8.123l2.289,1.321v-5.445c0-.408.25-.6.556-.42a1.337,1.337,0,0,1,.556,1.062v5.446l1.613.931v-5.445c0-.408.25-.6.556-.42a1.337,1.337,0,0,1,.556,1.062V113.1l1.613.931v-5.445c0-.408.249-.6.556-.42a1.336,1.336,0,0,1,.555,1.062v5.446l1.614.931v-5.445c0-.408.249-.6.555-.42a1.333,1.333,0,0,1,.556,1.062v5.446l1.613.931v-5.445c0-.408.25-.6.556-.42a1.336,1.336,0,0,1,.556,1.062v5.446l3.286,1.9Z" transform="translate(-146.763 -101.437)" fill="#c68246"/>
            <path id="Trazado_3689" data-name="Trazado 3689" d="M149.513,104.87c-.306-.176-.556.013-.556.42v5.445l1.112.643v-5.446A1.337,1.337,0,0,0,149.513,104.87Z" transform="translate(-146.668 -101.291)" fill="#bc743f"/>
            <path id="Trazado_3690" data-name="Trazado 3690" d="M152.125,106.378c-.306-.176-.556.013-.556.42v5.445l1.112.643V107.44A1.337,1.337,0,0,0,152.125,106.378Z" transform="translate(-146.555 -101.226)" fill="#bc743f"/>
            <path id="Trazado_3691" data-name="Trazado 3691" d="M154.737,107.886c-.307-.176-.556.013-.556.42v5.445l1.111.643v-5.446A1.336,1.336,0,0,0,154.737,107.886Z" transform="translate(-146.442 -101.161)" fill="#bc743f"/>
            <path id="Trazado_3692" data-name="Trazado 3692" d="M157.348,109.394c-.306-.176-.555.013-.555.42v5.445l1.111.643v-5.446A1.333,1.333,0,0,0,157.348,109.394Z" transform="translate(-146.329 -101.096)" fill="#bc743f"/>
            <path id="Trazado_3693" data-name="Trazado 3693" d="M159.96,110.9c-.306-.176-.556.013-.556.42v5.445l1.112.643v-5.446A1.336,1.336,0,0,0,159.96,110.9Z" transform="translate(-146.216 -101.031)" fill="#bc743f"/>
          </g>
          <g id="Grupo_26750" data-name="Grupo 26750" transform="translate(23.447 27.786)">
            <path id="Trazado_3694" data-name="Trazado 3694" d="M181.2,101.437,163.62,111.59v8.123l3.077-1.777V112.37a1.333,1.333,0,0,1,.556-1.062c.306-.176.556.013.556.42v5.566l1.613-.932V110.8a1.335,1.335,0,0,1,.555-1.062c.307-.176.556.013.556.42v5.566l1.613-.932v-5.566a1.337,1.337,0,0,1,.556-1.062c.307-.176.556.013.556.42v5.566l1.613-.932v-5.566a1.337,1.337,0,0,1,.556-1.062c.306-.176.556.013.556.42v5.566l1.613-.932v-5.566a1.337,1.337,0,0,1,.556-1.062c.306-.176.556.013.556.42V111l2.5-1.442Z" transform="translate(-163.62 -101.437)" fill="#bc743f"/>
            <path id="Trazado_3695" data-name="Trazado 3695" d="M177.572,104.87a1.337,1.337,0,0,0-.556,1.062V111.5l1.112-.642V105.29C178.128,104.882,177.878,104.693,177.572,104.87Z" transform="translate(-163.041 -101.291)" fill="#a56234"/>
            <path id="Trazado_3696" data-name="Trazado 3696" d="M174.96,106.378a1.337,1.337,0,0,0-.556,1.062v5.566l1.112-.642V106.8C175.516,106.39,175.266,106.2,174.96,106.378Z" transform="translate(-163.154 -101.226)" fill="#a56234"/>
            <path id="Trazado_3697" data-name="Trazado 3697" d="M172.348,107.886a1.337,1.337,0,0,0-.556,1.062v5.566l1.112-.642v-5.566C172.9,107.9,172.655,107.709,172.348,107.886Z" transform="translate(-163.267 -101.161)" fill="#a56234"/>
            <path id="Trazado_3698" data-name="Trazado 3698" d="M169.736,109.394a1.335,1.335,0,0,0-.555,1.062v5.566l1.111-.642v-5.566C170.292,109.406,170.043,109.217,169.736,109.394Z" transform="translate(-163.38 -101.096)" fill="#a56234"/>
            <path id="Trazado_3699" data-name="Trazado 3699" d="M167.125,110.9a1.333,1.333,0,0,0-.556,1.062v5.566l1.112-.642v-5.566C167.681,110.914,167.431,110.725,167.125,110.9Z" transform="translate(-163.492 -101.031)" fill="#a56234"/>
          </g>
        </g>
        <path id="Trazado_3700" data-name="Trazado 3700" d="M153.786,92.459l-7.022,9.366,17.585,10.153V98.554Z" transform="translate(-140.391 -32.966)" fill="#d8c4c3"/>
        <path id="Trazado_3701" data-name="Trazado 3701" d="M174.183,92.459l-10.563,6.1v13.423L181.2,101.825Z" transform="translate(-139.662 -32.966)" fill="#c6afaf"/>
        <g id="Grupo_26759" data-name="Grupo 26759" transform="translate(9.856 62.347)">
          <g id="Grupo_26752" data-name="Grupo 26752" transform="translate(0 3.212)">
            <path id="Trazado_3702" data-name="Trazado 3702" d="M151.847,98.282a5.864,5.864,0,0,0-1.479.339l.835,3.6a31.986,31.986,0,0,0,1.064-3.274A.538.538,0,0,0,151.847,98.282Z" transform="translate(-150.09 -98.274)" fill="#b59e9e"/>
            <path id="Trazado_3703" data-name="Trazado 3703" d="M150.658,98.665c-.306-.177-.556.013-.556.419v2.48l1.112.642V99.727A1.336,1.336,0,0,0,150.658,98.665Z" transform="translate(-150.102 -98.26)" fill="#c6afaf"/>
            <path id="Trazado_3704" data-name="Trazado 3704" d="M150.669,98.941c-.193-.112-.351.007-.351.265v2.161l.7.406V99.61A.84.84,0,0,0,150.669,98.941Z" transform="translate(-150.093 -98.247)" fill="#b59e9e"/>
          </g>
          <g id="Grupo_26753" data-name="Grupo 26753" transform="translate(3.426 5.185)">
            <path id="Trazado_3705" data-name="Trazado 3705" d="M155.131,100.173a5.874,5.874,0,0,0-1.48.339l.836,3.6a31.992,31.992,0,0,0,1.064-3.274A.539.539,0,0,0,155.131,100.173Z" transform="translate(-153.375 -100.165)" fill="#b59e9e"/>
            <path id="Trazado_3706" data-name="Trazado 3706" d="M153.942,100.556c-.306-.177-.556.013-.556.419v2.48l1.112.642v-2.479A1.336,1.336,0,0,0,153.942,100.556Z" transform="translate(-153.386 -100.151)" fill="#c6afaf"/>
            <path id="Trazado_3707" data-name="Trazado 3707" d="M153.953,100.832c-.193-.112-.351.007-.351.265v2.161l.7.406V101.5A.842.842,0,0,0,153.953,100.832Z" transform="translate(-153.377 -100.138)" fill="#b59e9e"/>
          </g>
          <g id="Grupo_26754" data-name="Grupo 26754" transform="translate(6.852 7.158)">
            <path id="Trazado_3708" data-name="Trazado 3708" d="M158.415,102.064a5.874,5.874,0,0,0-1.48.339l.836,3.6a32.059,32.059,0,0,0,1.063-3.274A.537.537,0,0,0,158.415,102.064Z" transform="translate(-156.659 -102.056)" fill="#b59e9e"/>
            <path id="Trazado_3709" data-name="Trazado 3709" d="M157.226,102.447c-.306-.177-.556.013-.556.419v2.48l1.112.642v-2.479A1.336,1.336,0,0,0,157.226,102.447Z" transform="translate(-156.67 -102.042)" fill="#c6afaf"/>
            <path id="Trazado_3710" data-name="Trazado 3710" d="M157.237,102.723c-.193-.112-.351.007-.351.265v2.161l.7.406v-2.162A.842.842,0,0,0,157.237,102.723Z" transform="translate(-156.661 -102.029)" fill="#b59e9e"/>
          </g>
          <g id="Grupo_26755" data-name="Grupo 26755" transform="translate(10.278 9.131)">
            <path id="Trazado_3711" data-name="Trazado 3711" d="M161.7,103.955a5.864,5.864,0,0,0-1.48.339l.836,3.6a32.054,32.054,0,0,0,1.063-3.274A.538.538,0,0,0,161.7,103.955Z" transform="translate(-159.943 -103.947)" fill="#b59e9e"/>
            <path id="Trazado_3712" data-name="Trazado 3712" d="M160.51,104.338c-.307-.177-.556.013-.556.419v2.48l1.112.642V105.4A1.335,1.335,0,0,0,160.51,104.338Z" transform="translate(-159.954 -103.933)" fill="#c6afaf"/>
            <path id="Trazado_3713" data-name="Trazado 3713" d="M160.521,104.614c-.193-.112-.352.007-.352.265v2.161l.7.406v-2.162A.842.842,0,0,0,160.521,104.614Z" transform="translate(-159.945 -103.92)" fill="#b59e9e"/>
          </g>
          <g id="Grupo_26756" data-name="Grupo 26756" transform="translate(6.689 1.973)">
            <path id="Trazado_3714" data-name="Trazado 3714" d="M158.258,97.094a5.82,5.82,0,0,0-1.479.339l.835,3.6a32.068,32.068,0,0,0,1.064-3.274A.538.538,0,0,0,158.258,97.094Z" transform="translate(-156.503 -97.086)" fill="#b59e9e"/>
            <path id="Trazado_3715" data-name="Trazado 3715" d="M157.07,97.476c-.307-.176-.556.013-.556.42v2.48l1.111.642v-2.48A1.336,1.336,0,0,0,157.07,97.476Z" transform="translate(-156.514 -97.072)" fill="#c6afaf"/>
            <path id="Trazado_3716" data-name="Trazado 3716" d="M157.081,97.752c-.193-.112-.352.008-.352.265v2.162l.7.4V98.423A.843.843,0,0,0,157.081,97.752Z" transform="translate(-156.505 -97.059)" fill="#b59e9e"/>
          </g>
          <g id="Grupo_26757" data-name="Grupo 26757" transform="translate(10.114 3.946)">
            <path id="Trazado_3717" data-name="Trazado 3717" d="M161.542,98.985a5.818,5.818,0,0,0-1.479.339l.835,3.6a32.068,32.068,0,0,0,1.064-3.274A.538.538,0,0,0,161.542,98.985Z" transform="translate(-159.786 -98.977)" fill="#b59e9e"/>
            <path id="Trazado_3718" data-name="Trazado 3718" d="M160.353,99.367c-.306-.176-.556.013-.556.42v2.48l1.112.642v-2.48A1.337,1.337,0,0,0,160.353,99.367Z" transform="translate(-159.797 -98.963)" fill="#c6afaf"/>
            <path id="Trazado_3719" data-name="Trazado 3719" d="M160.364,99.643c-.193-.112-.351.008-.351.265v2.162l.7.4v-2.161A.844.844,0,0,0,160.364,99.643Z" transform="translate(-159.788 -98.95)" fill="#b59e9e"/>
          </g>
          <g id="Grupo_26758" data-name="Grupo 26758" transform="translate(3.263)">
            <path id="Trazado_3720" data-name="Trazado 3720" d="M154.975,95.2a5.829,5.829,0,0,0-1.48.339l.836,3.6a32.134,32.134,0,0,0,1.063-3.274A.538.538,0,0,0,154.975,95.2Z" transform="translate(-153.219 -95.195)" fill="#b59e9e"/>
            <path id="Trazado_3721" data-name="Trazado 3721" d="M153.786,95.585c-.306-.176-.556.012-.556.42v2.48l1.112.642v-2.48A1.337,1.337,0,0,0,153.786,95.585Z" transform="translate(-153.23 -95.181)" fill="#c6afaf"/>
            <path id="Trazado_3722" data-name="Trazado 3722" d="M153.8,95.861c-.193-.112-.352.008-.352.265v2.162l.7.4V96.532A.844.844,0,0,0,153.8,95.861Z" transform="translate(-153.221 -95.168)" fill="#b59e9e"/>
          </g>
        </g>
        <g id="Grupo_26767" data-name="Grupo 26767" transform="translate(26.027 62.347)">
          <g id="Grupo_26760" data-name="Grupo 26760" transform="translate(10.277 3.212)">
            <path id="Trazado_3723" data-name="Trazado 3723" d="M175.885,98.282a5.874,5.874,0,0,1,1.48.339l-.836,3.6a31.982,31.982,0,0,1-1.064-3.274A.539.539,0,0,1,175.885,98.282Z" transform="translate(-175.454 -98.274)" fill="#a08585"/>
            <path id="Trazado_3724" data-name="Trazado 3724" d="M177.041,98.665c.306-.177.556.013.556.419v2.48l-1.112.642V99.727A1.336,1.336,0,0,1,177.041,98.665Z" transform="translate(-175.41 -98.26)" fill="#b59e9e"/>
            <path id="Trazado_3725" data-name="Trazado 3725" d="M177.014,98.941c.193-.112.351.007.351.265v2.161l-.7.406V99.61A.842.842,0,0,1,177.014,98.941Z" transform="translate(-175.402 -98.247)" fill="#a08585"/>
          </g>
          <g id="Grupo_26761" data-name="Grupo 26761" transform="translate(6.852 5.185)">
            <path id="Trazado_3726" data-name="Trazado 3726" d="M172.6,100.173a5.874,5.874,0,0,1,1.48.339l-.836,3.6a31.773,31.773,0,0,1-1.063-3.274A.537.537,0,0,1,172.6,100.173Z" transform="translate(-172.171 -100.165)" fill="#a08585"/>
            <path id="Trazado_3727" data-name="Trazado 3727" d="M173.757,100.556c.306-.177.556.013.556.419v2.48l-1.112.642v-2.479A1.336,1.336,0,0,1,173.757,100.556Z" transform="translate(-172.126 -100.151)" fill="#b59e9e"/>
            <path id="Trazado_3728" data-name="Trazado 3728" d="M173.73,100.832c.193-.112.351.007.351.265v2.161l-.7.406V101.5A.842.842,0,0,1,173.73,100.832Z" transform="translate(-172.118 -100.138)" fill="#a08585"/>
          </g>
          <g id="Grupo_26762" data-name="Grupo 26762" transform="translate(3.426 7.158)">
            <path id="Trazado_3729" data-name="Trazado 3729" d="M169.317,102.064a5.874,5.874,0,0,1,1.48.339l-.836,3.6a32.054,32.054,0,0,1-1.063-3.274A.538.538,0,0,1,169.317,102.064Z" transform="translate(-168.887 -102.056)" fill="#a08585"/>
            <path id="Trazado_3730" data-name="Trazado 3730" d="M170.473,102.447c.306-.177.556.013.556.419v2.48l-1.112.642v-2.479A1.336,1.336,0,0,1,170.473,102.447Z" transform="translate(-168.842 -102.042)" fill="#b59e9e"/>
            <path id="Trazado_3731" data-name="Trazado 3731" d="M170.446,102.723c.193-.112.352.007.352.265v2.161l-.7.406v-2.162A.842.842,0,0,1,170.446,102.723Z" transform="translate(-168.834 -102.029)" fill="#a08585"/>
          </g>
          <g id="Grupo_26763" data-name="Grupo 26763" transform="translate(0 9.131)">
            <path id="Trazado_3732" data-name="Trazado 3732" d="M166.034,103.955a5.865,5.865,0,0,1,1.479.339l-.835,3.6a31.986,31.986,0,0,1-1.064-3.274A.538.538,0,0,1,166.034,103.955Z" transform="translate(-165.603 -103.947)" fill="#a08585"/>
            <path id="Trazado_3733" data-name="Trazado 3733" d="M167.19,104.338c.306-.177.556.013.556.419v2.48l-1.112.642V105.4A1.336,1.336,0,0,1,167.19,104.338Z" transform="translate(-165.558 -103.933)" fill="#b59e9e"/>
            <path id="Trazado_3734" data-name="Trazado 3734" d="M167.162,104.614c.194-.112.352.007.352.265v2.161l-.7.406v-2.162A.842.842,0,0,1,167.162,104.614Z" transform="translate(-165.55 -103.92)" fill="#a08585"/>
          </g>
          <g id="Grupo_26764" data-name="Grupo 26764" transform="translate(3.589 1.973)">
            <path id="Trazado_3735" data-name="Trazado 3735" d="M169.474,97.094a5.82,5.82,0,0,1,1.479.339l-.835,3.6a32.07,32.07,0,0,1-1.064-3.274A.538.538,0,0,1,169.474,97.094Z" transform="translate(-169.043 -97.086)" fill="#a08585"/>
            <path id="Trazado_3736" data-name="Trazado 3736" d="M170.63,97.476c.306-.176.556.013.556.42v2.48l-1.112.642v-2.48A1.337,1.337,0,0,1,170.63,97.476Z" transform="translate(-168.998 -97.072)" fill="#b59e9e"/>
            <path id="Trazado_3737" data-name="Trazado 3737" d="M170.6,97.752c.193-.112.351.008.351.265v2.162l-.7.4V98.423A.844.844,0,0,1,170.6,97.752Z" transform="translate(-168.99 -97.059)" fill="#a08585"/>
          </g>
          <g id="Grupo_26765" data-name="Grupo 26765" transform="translate(0.163 3.946)">
            <path id="Trazado_3738" data-name="Trazado 3738" d="M166.19,98.985a5.828,5.828,0,0,1,1.48.339l-.836,3.6a32.062,32.062,0,0,1-1.064-3.274A.538.538,0,0,1,166.19,98.985Z" transform="translate(-165.759 -98.977)" fill="#a08585"/>
            <path id="Trazado_3739" data-name="Trazado 3739" d="M167.346,99.367c.306-.176.556.013.556.42v2.48l-1.112.642v-2.48A1.337,1.337,0,0,1,167.346,99.367Z" transform="translate(-165.714 -98.963)" fill="#b59e9e"/>
            <path id="Trazado_3740" data-name="Trazado 3740" d="M167.319,99.643c.193-.112.351.008.351.265v2.162l-.7.4v-2.161A.844.844,0,0,1,167.319,99.643Z" transform="translate(-165.707 -98.95)" fill="#a08585"/>
          </g>
          <g id="Grupo_26766" data-name="Grupo 26766" transform="translate(7.015)">
            <path id="Trazado_3741" data-name="Trazado 3741" d="M172.757,95.2a5.818,5.818,0,0,1,1.48.339l-.835,3.6a32.072,32.072,0,0,1-1.064-3.274A.538.538,0,0,1,172.757,95.2Z" transform="translate(-172.327 -95.195)" fill="#a08585"/>
            <path id="Trazado_3742" data-name="Trazado 3742" d="M173.913,95.585c.307-.176.556.012.556.42v2.48l-1.112.642v-2.48A1.337,1.337,0,0,1,173.913,95.585Z" transform="translate(-172.282 -95.181)" fill="#b59e9e"/>
            <path id="Trazado_3743" data-name="Trazado 3743" d="M173.886,95.861c.193-.112.352.008.352.265v2.162l-.7.4V96.532A.844.844,0,0,1,173.886,95.861Z" transform="translate(-172.274 -95.168)" fill="#a08585"/>
          </g>
        </g>
        <path id="Trazado_3744" data-name="Trazado 3744" d="M153.494,80.649v12.32l10.563,6.1V86.747Z" transform="translate(-140.1 -33.477)" fill="#c68246"/>
        <path id="Trazado_3745" data-name="Trazado 3745" d="M153.876,81.57V92.348l9.665,5.578V87.15Z" transform="translate(-140.083 -33.437)" fill="#dd995b"/>
        <path id="Trazado_3746" data-name="Trazado 3746" d="M174.183,80.649v12.32l-10.563,6.1V86.747Z" transform="translate(-139.662 -33.477)" fill="#bc743f"/>
        <path id="Trazado_3747" data-name="Trazado 3747" d="M173.715,81.57V92.348l-9.665,5.578V87.15Z" transform="translate(-139.643 -33.437)" fill="#c68246"/>
        <g id="Grupo_26768" data-name="Grupo 26768" transform="translate(15.345 50.651)">
          <path id="Trazado_3748" data-name="Trazado 3748" d="M155.92,84.05c-.306-.177-.556.013-.556.42v7.541l1.112.642V85.112A1.336,1.336,0,0,0,155.92,84.05Z" transform="translate(-155.364 -83.983)" fill="#bc743f"/>
          <path id="Trazado_3749" data-name="Trazado 3749" d="M158.532,85.558c-.306-.177-.556.013-.556.42v7.541l1.112.642V86.62A1.336,1.336,0,0,0,158.532,85.558Z" transform="translate(-155.251 -83.918)" fill="#bc743f"/>
          <path id="Trazado_3750" data-name="Trazado 3750" d="M161.126,87.066c-.306-.177-.556.013-.556.419v7.542l1.112.642V88.128A1.336,1.336,0,0,0,161.126,87.066Z" transform="translate(-155.139 -83.853)" fill="#bc743f"/>
        </g>
        <g id="Grupo_26769" data-name="Grupo 26769" transform="translate(26.181 50.651)">
          <path id="Trazado_3751" data-name="Trazado 3751" d="M171.513,84.05c.306-.177.556.013.556.42v7.541l-1.112.642V85.112A1.336,1.336,0,0,1,171.513,84.05Z" transform="translate(-165.526 -83.983)" fill="#a56234"/>
          <path id="Trazado_3752" data-name="Trazado 3752" d="M168.9,85.558c.306-.177.556.013.556.42v7.541l-1.112.642V86.62A1.336,1.336,0,0,1,168.9,85.558Z" transform="translate(-165.639 -83.918)" fill="#a56234"/>
          <path id="Trazado_3753" data-name="Trazado 3753" d="M166.306,87.066c.307-.177.556.013.556.419v7.542l-1.111.642V88.128A1.335,1.335,0,0,1,166.306,87.066Z" transform="translate(-165.751 -83.853)" fill="#a56234"/>
        </g>
        <path id="Trazado_3754" data-name="Trazado 3754" d="M153.494,82.106l10.563-35.147V88.2Z" transform="translate(-140.1 -34.934)" fill="#d8c4c3"/>
        <path id="Trazado_3755" data-name="Trazado 3755" d="M163.62,46.958l10.563,35.147L163.62,88.2Z" transform="translate(-139.662 -34.934)" fill="#c6afaf"/>
        <g id="Grupo_26775" data-name="Grupo 26775" transform="translate(15.925 27.545)">
          <g id="Grupo_26770" data-name="Grupo 26770" transform="translate(0 14.231)">
            <path id="Trazado_3756" data-name="Trazado 3756" d="M157.665,75.484a5.829,5.829,0,0,0-1.48.339l.836,3.6a32.073,32.073,0,0,0,1.064-3.274A.539.539,0,0,0,157.665,75.484Z" transform="translate(-155.909 -75.476)" fill="#b59e9e"/>
            <path id="Trazado_3757" data-name="Trazado 3757" d="M156.476,75.866c-.306-.176-.556.014-.556.42v2.48l1.112.642V76.929A1.339,1.339,0,0,0,156.476,75.866Z" transform="translate(-155.92 -75.462)" fill="#c6afaf"/>
            <path id="Trazado_3758" data-name="Trazado 3758" d="M156.487,76.142c-.193-.111-.351.008-.351.266v2.161l.7.406V76.813A.846.846,0,0,0,156.487,76.142Z" transform="translate(-155.911 -75.449)" fill="#b59e9e"/>
          </g>
          <g id="Grupo_26771" data-name="Grupo 26771" transform="translate(3.426 16.204)">
            <path id="Trazado_3759" data-name="Trazado 3759" d="M160.949,77.375a5.829,5.829,0,0,0-1.48.339l.836,3.6a32.141,32.141,0,0,0,1.063-3.274A.538.538,0,0,0,160.949,77.375Z" transform="translate(-159.193 -77.367)" fill="#b59e9e"/>
            <path id="Trazado_3760" data-name="Trazado 3760" d="M159.76,77.757c-.306-.176-.556.014-.556.42v2.48l1.112.642V78.82A1.339,1.339,0,0,0,159.76,77.757Z" transform="translate(-159.204 -77.353)" fill="#c6afaf"/>
            <path id="Trazado_3761" data-name="Trazado 3761" d="M159.771,78.033c-.193-.111-.352.008-.352.266v2.161l.7.406V78.7A.845.845,0,0,0,159.771,78.033Z" transform="translate(-159.195 -77.34)" fill="#b59e9e"/>
          </g>
          <g id="Grupo_26772" data-name="Grupo 26772" transform="translate(4.314)">
            <path id="Trazado_3762" data-name="Trazado 3762" d="M161.342,61.844c-.27-.072-1.022.291-1.022.291l.836,3.6a23.7,23.7,0,0,0,.579-2.721C161.8,62.542,161.782,61.96,161.342,61.844Z" transform="translate(-160.044 -61.835)" fill="#b59e9e"/>
            <path id="Trazado_3763" data-name="Trazado 3763" d="M160.611,62.181c-.306-.176-.556.013-.556.42V65.08l1.112.643v-2.48A1.336,1.336,0,0,0,160.611,62.181Z" transform="translate(-160.055 -61.823)" fill="#c6afaf"/>
            <path id="Trazado_3764" data-name="Trazado 3764" d="M160.622,62.457c-.193-.112-.351.007-.351.265v2.162l.7.4V63.128A.843.843,0,0,0,160.622,62.457Z" transform="translate(-160.046 -61.81)" fill="#b59e9e"/>
          </g>
          <g id="Grupo_26773" data-name="Grupo 26773" transform="translate(1.892 6.989)">
            <path id="Trazado_3765" data-name="Trazado 3765" d="M159.021,68.543a2.6,2.6,0,0,0-1.022.292l.836,3.6a23.7,23.7,0,0,0,.579-2.721C159.475,69.242,159.461,68.66,159.021,68.543Z" transform="translate(-157.723 -68.534)" fill="#b59e9e"/>
            <path id="Trazado_3766" data-name="Trazado 3766" d="M158.29,68.881c-.306-.177-.556.013-.556.419v2.48l1.112.642V69.943A1.336,1.336,0,0,0,158.29,68.881Z" transform="translate(-157.734 -68.522)" fill="#c6afaf"/>
            <path id="Trazado_3767" data-name="Trazado 3767" d="M158.3,69.157c-.193-.112-.351.007-.351.265v2.161l.7.406V69.826A.842.842,0,0,0,158.3,69.157Z" transform="translate(-157.725 -68.509)" fill="#b59e9e"/>
          </g>
          <g id="Grupo_26774" data-name="Grupo 26774" transform="translate(4.567 8.323)">
            <path id="Trazado_3768" data-name="Trazado 3768" d="M161.585,69.822c-.27-.072-1.022.291-1.022.291l.836,3.6a23.82,23.82,0,0,0,.578-2.721C162.039,70.52,162.025,69.938,161.585,69.822Z" transform="translate(-160.287 -69.813)" fill="#b59e9e"/>
            <path id="Trazado_3769" data-name="Trazado 3769" d="M160.854,70.159c-.306-.176-.556.013-.556.42v2.479l1.112.642V71.221A1.335,1.335,0,0,0,160.854,70.159Z" transform="translate(-160.298 -69.801)" fill="#c6afaf"/>
            <path id="Trazado_3770" data-name="Trazado 3770" d="M160.865,70.435c-.193-.112-.352.007-.352.265V72.86l.7.406V71.106A.844.844,0,0,0,160.865,70.435Z" transform="translate(-160.289 -69.788)" fill="#b59e9e"/>
          </g>
        </g>
        <g id="Grupo_26781" data-name="Grupo 26781" transform="translate(25.235 27.545)">
          <g id="Grupo_26776" data-name="Grupo 26776" transform="translate(4.097 14.231)">
            <path id="Trazado_3771" data-name="Trazado 3771" d="M169.2,75.484a5.829,5.829,0,0,1,1.48.339l-.836,3.6a32.079,32.079,0,0,1-1.064-3.274A.539.539,0,0,1,169.2,75.484Z" transform="translate(-168.771 -75.476)" fill="#a08585"/>
            <path id="Trazado_3772" data-name="Trazado 3772" d="M170.358,75.866c.306-.176.556.014.556.42v2.48l-1.112.642V76.929A1.339,1.339,0,0,1,170.358,75.866Z" transform="translate(-168.727 -75.462)" fill="#b59e9e"/>
            <path id="Trazado_3773" data-name="Trazado 3773" d="M170.331,76.142c.193-.111.351.008.351.266v2.161l-.7.406V76.813A.846.846,0,0,1,170.331,76.142Z" transform="translate(-168.719 -75.449)" fill="#a08585"/>
          </g>
          <g id="Grupo_26777" data-name="Grupo 26777" transform="translate(0.672 16.204)">
            <path id="Trazado_3774" data-name="Trazado 3774" d="M165.918,77.375a5.829,5.829,0,0,1,1.48.339l-.836,3.6a32.142,32.142,0,0,1-1.063-3.274A.537.537,0,0,1,165.918,77.375Z" transform="translate(-165.488 -77.367)" fill="#a08585"/>
            <path id="Trazado_3775" data-name="Trazado 3775" d="M167.074,77.757c.306-.176.556.014.556.42v2.48l-1.112.642V78.82A1.339,1.339,0,0,1,167.074,77.757Z" transform="translate(-165.443 -77.353)" fill="#b59e9e"/>
            <path id="Trazado_3776" data-name="Trazado 3776" d="M167.047,78.033c.193-.111.351.008.351.266v2.161l-.7.406V78.7A.845.845,0,0,1,167.047,78.033Z" transform="translate(-165.435 -77.34)" fill="#a08585"/>
          </g>
          <g id="Grupo_26778" data-name="Grupo 26778" transform="translate(0.253)">
            <path id="Trazado_3777" data-name="Trazado 3777" d="M165.5,61.844c.27-.072,1.023.291,1.023.291l-.836,3.6a23.7,23.7,0,0,1-.579-2.721C165.052,62.542,165.066,61.96,165.5,61.844Z" transform="translate(-165.087 -61.835)" fill="#a08585"/>
            <path id="Trazado_3778" data-name="Trazado 3778" d="M166.223,62.181c.306-.176.556.013.556.42V65.08l-1.112.643v-2.48A1.336,1.336,0,0,1,166.223,62.181Z" transform="translate(-165.062 -61.823)" fill="#b59e9e"/>
            <path id="Trazado_3779" data-name="Trazado 3779" d="M166.2,62.457c.193-.112.351.007.351.265v2.162l-.7.4V63.128A.845.845,0,0,1,166.2,62.457Z" transform="translate(-165.054 -61.81)" fill="#a08585"/>
          </g>
          <g id="Grupo_26779" data-name="Grupo 26779" transform="translate(2.675 6.989)">
            <path id="Trazado_3780" data-name="Trazado 3780" d="M167.825,68.543a2.6,2.6,0,0,1,1.023.292l-.836,3.6a23.706,23.706,0,0,1-.579-2.721C167.373,69.242,167.387,68.66,167.825,68.543Z" transform="translate(-167.408 -68.534)" fill="#a08585"/>
            <path id="Trazado_3781" data-name="Trazado 3781" d="M168.544,68.881c.306-.177.556.013.556.419v2.48l-1.112.642V69.943A1.336,1.336,0,0,1,168.544,68.881Z" transform="translate(-167.383 -68.522)" fill="#b59e9e"/>
            <path id="Trazado_3782" data-name="Trazado 3782" d="M168.517,69.157c.193-.112.351.007.351.265v2.161l-.7.406V69.826A.842.842,0,0,1,168.517,69.157Z" transform="translate(-167.375 -68.509)" fill="#a08585"/>
          </g>
          <g id="Grupo_26780" data-name="Grupo 26780" transform="translate(0 8.323)">
            <path id="Trazado_3783" data-name="Trazado 3783" d="M165.262,69.822c.27-.072,1.022.291,1.022.291l-.836,3.6a23.707,23.707,0,0,1-.579-2.721C164.809,70.52,164.823,69.938,165.262,69.822Z" transform="translate(-164.844 -69.813)" fill="#a08585"/>
            <path id="Trazado_3784" data-name="Trazado 3784" d="M165.98,70.159c.306-.176.556.013.556.42v2.479l-1.112.642V71.221A1.336,1.336,0,0,1,165.98,70.159Z" transform="translate(-164.819 -69.801)" fill="#b59e9e"/>
            <path id="Trazado_3785" data-name="Trazado 3785" d="M165.953,70.435c.193-.112.352.007.352.265V72.86l-.7.406V71.106A.843.843,0,0,1,165.953,70.435Z" transform="translate(-164.811 -69.788)" fill="#a08585"/>
          </g>
        </g>
        <path id="Trazado_3786" data-name="Trazado 3786" d="M141.922,261.251l-1.267-.732V224.413l1.267.731Z" transform="translate(-140.655 -27.259)" fill="#af6837"/>
        <path id="Trazado_3787" data-name="Trazado 3787" d="M163.672,273.916l-1.267-.731V237.078l1.267.732Z" transform="translate(-139.714 -26.711)" fill="#af6837"/>
        <path id="Trazado_3788" data-name="Trazado 3788" d="M185.37,261.251l1.267-.732V224.413l-1.267.731Z" transform="translate(-138.721 -27.259)" fill="#a56234"/>
        <path id="Trazado_3789" data-name="Trazado 3789" d="M163.62,273.916l1.267-.731V237.078l-1.267.732Z" transform="translate(-139.662 -26.711)" fill="#a56234"/>
        <g id="Grupo_26782" data-name="Grupo 26782" transform="translate(0.636 71.594)">
          <path id="Trazado_3790" data-name="Trazado 3790" d="M141.884,104.493v5.731c0,.115.175.208.391.208s.391-.093.391-.208v-5.731Z" transform="translate(-141.238 -104.039)" fill="#d8c4c3"/>
          <path id="Trazado_3791" data-name="Trazado 3791" d="M143.338,105.094a1.036,1.036,0,1,1-1.036-1.036A1.037,1.037,0,0,1,143.338,105.094Z" transform="translate(-141.265 -104.058)" fill="#c6afaf"/>
        </g>
        <g id="Grupo_26783" data-name="Grupo 26783" transform="translate(22.921 83.939)">
          <path id="Trazado_3792" data-name="Trazado 3792" d="M163.245,116.327v5.73c0,.115.175.209.391.209s.391-.094.391-.209v-5.73Z" transform="translate(-162.599 -115.872)" fill="#d8c4c3"/>
          <path id="Trazado_3793" data-name="Trazado 3793" d="M164.7,116.928a1.036,1.036,0,1,1-1.036-1.037A1.037,1.037,0,0,1,164.7,116.928Z" transform="translate(-162.626 -115.891)" fill="#c6afaf"/>
        </g>
        <g id="Grupo_26784" data-name="Grupo 26784" transform="translate(45.101 71.594)">
          <path id="Trazado_3794" data-name="Trazado 3794" d="M184.505,104.493v5.731c0,.115.175.208.391.208s.391-.093.391-.208v-5.731Z" transform="translate(-183.859 -104.039)" fill="#d8c4c3"/>
          <path id="Trazado_3795" data-name="Trazado 3795" d="M185.959,105.094a1.036,1.036,0,1,1-1.036-1.036A1.036,1.036,0,0,1,185.959,105.094Z" transform="translate(-183.886 -104.058)" fill="#c6afaf"/>
        </g>
        <g id="Grupo_26785" data-name="Grupo 26785" transform="translate(39.694 62.363)">
          <path id="Trazado_3796" data-name="Trazado 3796" d="M179.321,95.646v5.731c0,.115.175.208.391.208s.391-.093.391-.208V95.646Z" transform="translate(-178.676 -95.191)" fill="#c6afaf"/>
          <path id="Trazado_3797" data-name="Trazado 3797" d="M180.776,96.247a1.036,1.036,0,1,1-1.037-1.037A1.037,1.037,0,0,1,180.776,96.247Z" transform="translate(-178.703 -95.21)" fill="#a08585"/>
        </g>
        <g id="Grupo_26786" data-name="Grupo 26786" transform="translate(33.08 40.89)">
          <path id="Trazado_3798" data-name="Trazado 3798" d="M172.983,75.063v5.729c0,.116.174.209.39.209s.391-.093.391-.209V75.063Z" transform="translate(-172.337 -74.608)" fill="#c6afaf"/>
          <path id="Trazado_3799" data-name="Trazado 3799" d="M174.437,75.664a1.036,1.036,0,1,1-1.037-1.037A1.037,1.037,0,0,1,174.437,75.664Z" transform="translate(-172.364 -74.627)" fill="#a08585"/>
        </g>
        <g id="Grupo_26787" data-name="Grupo 26787" transform="translate(22.921)">
          <path id="Trazado_3800" data-name="Trazado 3800" d="M163.245,36.759V48.718c0,.116.175.209.391.209s.391-.093.391-.209V36.759Z" transform="translate(-162.599 -35.375)" fill="#c6afaf"/>
          <path id="Trazado_3801" data-name="Trazado 3801" d="M164.7,36.468a1.036,1.036,0,1,1-1.036-1.036A1.037,1.037,0,0,1,164.7,36.468Z" transform="translate(-162.626 -35.432)" fill="#a08585"/>
        </g>
        <g id="Grupo_26788" data-name="Grupo 26788" transform="translate(12.801 40.89)">
          <path id="Trazado_3802" data-name="Trazado 3802" d="M153.544,75.063v5.729c0,.116.175.209.391.209s.391-.093.391-.209V75.063Z" transform="translate(-152.898 -74.608)" fill="#d8c4c3"/>
          <path id="Trazado_3803" data-name="Trazado 3803" d="M155,75.664a1.037,1.037,0,1,1-1.037-1.037A1.037,1.037,0,0,1,155,75.664Z" transform="translate(-152.925 -74.627)" fill="#a08585"/>
        </g>
        <g id="Grupo_26789" data-name="Grupo 26789" transform="translate(6.372 62.363)">
          <path id="Trazado_3804" data-name="Trazado 3804" d="M147.382,95.646v5.731c0,.115.175.208.391.208s.391-.093.391-.208V95.646Z" transform="translate(-146.736 -95.191)" fill="#d8c4c3"/>
          <path id="Trazado_3805" data-name="Trazado 3805" d="M148.837,96.247A1.037,1.037,0,1,1,147.8,95.21,1.037,1.037,0,0,1,148.837,96.247Z" transform="translate(-146.763 -95.21)" fill="#c6afaf"/>
        </g>
        <g id="Grupo_26790" data-name="Grupo 26790" transform="translate(22.921 71.82)">
          <path id="Trazado_3806" data-name="Trazado 3806" d="M163.245,104.711v5.731c0,.115.175.208.391.208s.391-.093.391-.208v-5.731Z" transform="translate(-162.599 -104.256)" fill="#b59e9e"/>
          <path id="Trazado_3807" data-name="Trazado 3807" d="M164.7,105.312a1.036,1.036,0,1,1-1.036-1.037A1.037,1.037,0,0,1,164.7,105.312Z" transform="translate(-162.626 -104.275)" fill="#a08585"/>
        </g>
        <g id="Grupo_26791" data-name="Grupo 26791" transform="translate(22.921 46.291)">
          <path id="Trazado_3808" data-name="Trazado 3808" d="M163.245,80.24V85.97c0,.115.175.209.391.209s.391-.094.391-.209V80.24Z" transform="translate(-162.599 -79.785)" fill="#b59e9e"/>
          <path id="Trazado_3809" data-name="Trazado 3809" d="M164.7,80.841a1.036,1.036,0,1,1-1.036-1.037A1.037,1.037,0,0,1,164.7,80.841Z" transform="translate(-162.626 -79.804)" fill="#a08585"/>
        </g>
      </g>
      <g id="Grupo_26799" data-name="Grupo 26799" transform="translate(187.301 203.399)">
        <g id="Grupo_26794" data-name="Grupo 26794" transform="translate(27.061)">
          <path id="Trazado_3810" data-name="Trazado 3810" d="M243.069,214.453a16.978,16.978,0,0,1-2.535,3.044,52.418,52.418,0,0,0-3.975,4.123s-1.566-3.169-2.4-4.354-4.051-6.244-4.051-6.244l-1.664,7.319a29.176,29.176,0,0,0,1.9,4.611c.74,1.337,2.551,3.482,3.814,3.808a4.391,4.391,0,0,0,2.181.246,7.911,7.911,0,0,0,3.873-2.9,42.574,42.574,0,0,0,4.023-7.084C243.467,216.346,243.6,215.348,243.069,214.453Z" transform="translate(-209.743 -195.806)" fill="#ffc9b6"/>
          <path id="Trazado_3811" data-name="Trazado 3811" d="M246.962,209.916a10.232,10.232,0,0,0-2.419,2.39,9.825,9.825,0,0,1,.853-2.477c.244-.471.4-.9.143-1.172-.457-.491-1.31,1.308-2.093,3.439a23.6,23.6,0,0,1-2.291,4.273,7.194,7.194,0,0,0,1.729,1.619,10.927,10.927,0,0,1,1.47-.455c.948-.066,1.338-1.106,2.032-2.657a1.327,1.327,0,0,0-.705-1.673,6.909,6.909,0,0,1,1.281-1.984C247.6,210.436,247.887,209.512,246.962,209.916Z" transform="translate(-209.194 -195.911)" fill="#ffc9b6"/>
          <path id="Trazado_3812" data-name="Trazado 3812" d="M222.347,207.411s-6.924,1.334-8.36,3.075-.225,4.575-.225,4.575-6.277,11.964-1.368,17.979c3.93,4.814,17.385.555,17.385.555l-1.612-25.289Z" transform="translate(-210.518 -195.962)" fill="#844141"/>
          <path id="Trazado_3813" data-name="Trazado 3813" d="M234.206,215.571c-1.066-1.576-1.558-3.188-3.02-5.395-2.45-3.7-5.314-1.122-5.314-1.122s1.732,5.051,3.376,9.872A11.7,11.7,0,0,0,234.206,215.571Z" transform="translate(-209.855 -195.928)" fill="#e83a3a"/>
          <path id="Trazado_3814" data-name="Trazado 3814" d="M228.89,254.892c-.191.957.522,2.962.7,4.894.288,3.176,2.59,10.727,2.484,13.994-.062,1.888,4.146,1.64,4.517.058-.33-2.432.3-6.908.413-8.621a64.756,64.756,0,0,0-.112-11.039A9.147,9.147,0,0,1,228.89,254.892Z" transform="translate(-209.725 -193.939)" fill="#ffc9b6"/>
          <path id="Trazado_3815" data-name="Trazado 3815" d="M228.913,260.24c2.864.7,6.741.91,8.953-.585-.033-.266.219-4.727,0-6.729-.485-4.438-2.6-9.341-3.128-12.85s-3.924-12.175-3.924-12.175l-8.172,4.619s-1.1,4.831.518,8.73,5.052,13.139,5.052,13.139A24.363,24.363,0,0,0,228.913,260.24Z" transform="translate(-210.01 -195.076)" fill="#baa3a2"/>
          <path id="Trazado_3816" data-name="Trazado 3816" d="M231.842,272.518a10.431,10.431,0,0,1-.394,1.816,7.063,7.063,0,0,0,.2,3,1.573,1.573,0,0,0,1.249.87,3.924,3.924,0,0,0,1.706-.041,12.568,12.568,0,0,0,2.139,1.978,11.47,11.47,0,0,0,4.612,1.413c1.589.013,2.337-1.133,2.246-1.722s-1.577-2.368-2.486-3.347c-2.476-2.667-3.894-4.082-4.535-4.333-.48-.188-1.667.942-2.56,1.244C232.961,273.75,232.729,272.953,231.842,272.518Z" transform="translate(-209.618 -193.163)" fill="#f95555"/>
          <path id="Trazado_3817" data-name="Trazado 3817" d="M216.167,258.338a40.374,40.374,0,0,0-1.047,11.215c.147,3.369.221,8.383.4,10.435s-.491,2.678-.491,2.678a2.314,2.314,0,0,0,2.106,1.45,3.758,3.758,0,0,0,2.727-.933,3.925,3.925,0,0,1-.472-3c.915-4.386,3.829-13.08,4.607-15.36.629-1.841.419-4.439.629-5.411C221.853,260.68,218.42,260.718,216.167,258.338Z" transform="translate(-210.324 -193.759)" fill="#ffc9b6"/>
          <path id="Trazado_3818" data-name="Trazado 3818" d="M229.58,233.886c-1.39-4.463-10.625-2.526-10.625-2.526a25.828,25.828,0,0,0-2.99,6.492c-.932,2.91-.78,9.889-.78,9.889s-.24,6.872.2,9.248a16.1,16.1,0,0,1,.406,2.857s-.77,4.576-.77,5.8c.3,1.536,1.143,2.065,3.155,2.357,2.148.313,4.757.482,6.2-.548.237-1.359.906-7.6.906-7.6l2.188-16.016S231.8,241.012,229.58,233.886Z" transform="translate(-210.324 -194.944)" fill="#d8c4c3"/>
          <path id="Trazado_3819" data-name="Trazado 3819" d="M222.4,210.179c.9-.282,4.416-1.421,4.767-1.247,2.519,1.25,5.369,6.142,5.737,9.455.152,1.371-.112,7.608-.927,9.8a1.387,1.387,0,0,1,.478,2.283c.485.661.82.783,1.077,1.423.5,1.231-.166,1.815-1.023,2.742-1.254,1.353-3.44,2.447-7.025,2.944-4.151.575-6.522-1.132-8.669-1.046-1.685.068-.961-2-.052-2.581-.693-2.1-.454-7.4-1.131-9.929-1.019-3.8-2.022-8.314.177-11.182C216.77,211.586,220.443,210.823,222.4,210.179Z" transform="translate(-210.347 -195.897)" fill="#f95555"/>
          <path id="Trazado_3820" data-name="Trazado 3820" d="M226.9,209.719a11.919,11.919,0,0,1,2.633,3.123,53.856,53.856,0,0,1,2.875,6.61,9.553,9.553,0,0,0-1.5-6.61c-2.2-3.671-2.9-3.929-2.9-3.929Z" transform="translate(-209.81 -195.897)" fill="#3f2a28"/>
          <path id="Trazado_3821" data-name="Trazado 3821" d="M227.485,210.6a5.508,5.508,0,0,1,.9,2.988,27.321,27.321,0,0,1-.449,4.179,24.5,24.5,0,0,1-6.178-2.779c-2.89-2.192-3.381-3.688-3.381-3.688a25.245,25.245,0,0,1,3.857-1.167A29.11,29.11,0,0,1,227.485,210.6Z" transform="translate(-210.179 -195.846)" fill="#e83a3a"/>
          <path id="Trazado_3822" data-name="Trazado 3822" d="M222.3,205.554s3.372,2.535,4.461,4.255.89,2.892.317,6.863c-3.085-1.076-6.593-3.563-7.326-5.7C220.822,210.386,222.3,205.554,222.3,205.554Z" transform="translate(-210.119 -196.042)" fill="#ffb9a4"/>
          <path id="Trazado_3823" data-name="Trazado 3823" d="M229.947,204.491c-.061-1.465-.378-3.306-1.5-4.351s-3.026-1.135-4.471-1.034c-2.241.157-3.818,2.635-3.422,5.5.366,2.648,2.134,6.727,5.086,7.28,1.5.282,2.668-.846,3.355-2.29A11.885,11.885,0,0,0,229.947,204.491Z" transform="translate(-210.087 -196.322)" fill="#ffc9b6"/>
          <path id="Trazado_3824" data-name="Trazado 3824" d="M218.846,203.122c-.047-2.028.851-4.594,2.993-5.409,1.171-.445,3.867-.831,5.087.127.091-.124,1.586,6.341-.217,5.422a4.166,4.166,0,0,1-3.881,3.355c-.4.955-1.124,2.17-2.269,2.382C220.25,207.192,218.841,205.132,218.846,203.122Z" transform="translate(-210.158 -196.401)" fill="#3f2a28"/>
          <path id="Trazado_3825" data-name="Trazado 3825" d="M222.785,206.308s-.543-1.165-1.465-.526.732,2.582.732,2.582Z" transform="translate(-210.063 -196.041)" fill="#ffc9b6"/>
          <path id="Trazado_3826" data-name="Trazado 3826" d="M231.048,230.065a7.076,7.076,0,0,1-3.4,2.3,10.056,10.056,0,0,1-3.949.4s1.425-.475,2.559-.841S230.134,230.1,231.048,230.065Z" transform="translate(-209.949 -194.982)" fill="#e83a3a"/>
          <path id="Trazado_3827" data-name="Trazado 3827" d="M228.9,228.487a5.752,5.752,0,0,1-3,2.414,6.67,6.67,0,0,1-3.29.344s2.23-.71,3.108-1.112S228.9,228.487,228.9,228.487Z" transform="translate(-209.996 -195.05)" fill="#e83a3a"/>
          <path id="Trazado_3828" data-name="Trazado 3828" d="M219.4,280.9s-1.4.389-2.445.769-1.535-1.224-1.535-1.224a6.552,6.552,0,0,0-1.313,3.057c-.285,1.87-.329,2.351.31,3.108s1.914.418,1.914.418a12.1,12.1,0,0,0,2.748,4.194,4.324,4.324,0,0,0,5.928,0c1.125-1.108-2.232-4.519-3.589-6.99C220.4,282.376,219.4,280.9,219.4,280.9Z" transform="translate(-210.372 -192.803)" fill="#f95555"/>
          <path id="Trazado_3829" data-name="Trazado 3829" d="M220.058,282.045a14.48,14.48,0,0,0-3,1.045c-.689.479-.323,1.356.993.918s2.613-.9,2.613-.9Z" transform="translate(-210.25 -192.734)" fill="#723737"/>
          <path id="Trazado_3830" data-name="Trazado 3830" d="M221.39,284.324a14.413,14.413,0,0,0-3,1.045c-.689.479-.323,1.356.993.917s2.674-.921,2.674-.921Z" transform="translate(-210.193 -192.636)" fill="#723737"/>
          <path id="Trazado_3831" data-name="Trazado 3831" d="M237.557,272.975a12.061,12.061,0,0,0-1.85,1.323c-.549.558-.1,1.38.915.722s1.774-1.246,1.774-1.246Z" transform="translate(-209.439 -193.126)" fill="#723737"/>
          <path id="Trazado_3832" data-name="Trazado 3832" d="M239.13,274.559s-1.187.882-1.61,1.252c-.748.658.007,1.656,1.1.842.75-.56,1.438-1.129,1.438-1.129Z" transform="translate(-209.364 -193.058)" fill="#723737"/>
          <path id="Trazado_3833" data-name="Trazado 3833" d="M215.169,262.927a.941.941,0,0,0-.777.441,6.407,6.407,0,0,0-.11,2.524c.049,2,.862,2.852,4.782,3.218s4.311-.157,5.018-1.5a11.023,11.023,0,0,0,.987-2.341c.169-1.037-.413-1.169-.413-1.169l-.377,1.342s-.841.676-4.582.509-4.639-1.685-4.639-1.685Z" transform="translate(-210.358 -193.561)" fill="#baa3a2"/>
          <path id="Trazado_3834" data-name="Trazado 3834" d="M228.192,256.662a3.124,3.124,0,0,0-.481.982,4.417,4.417,0,0,0,.4,2.229c.7,1.874,1.47,2.4,5.359,1.79,4.165-.656,4.558-1.681,4.787-3.181a10.85,10.85,0,0,0,.239-2.45c-.181-1.035-.771-1.058-.771-1.058l-.091,1.424s-.473.883-4.062,1.949-4.936-.075-4.936-.075Z" transform="translate(-209.777 -193.905)" fill="#aa8f8f"/>
          <path id="Trazado_3835" data-name="Trazado 3835" d="M234.713,241.294l-3.373,1.4s.9,2.56,1.632,4.973,3.761.8,3.761.8S234.9,242.134,234.713,241.294Z" transform="translate(-209.618 -194.496)" fill="#aa8f8f"/>
          <path id="Trazado_3836" data-name="Trazado 3836" d="M221.324,236.237a7.257,7.257,0,0,1-1.788,3.114,8.311,8.311,0,0,1-2.4,1.589l.292,1.19a6.007,6.007,0,0,0,4.291-2.584c1.658-2.438,1.561-3.24,1.561-3.24Z" transform="translate(-210.233 -194.715)" fill="#baa3a2"/>
          <path id="Trazado_3837" data-name="Trazado 3837" d="M215.18,247.045a23.685,23.685,0,0,0,3.335.811c1.8.292,2.895.365,2.895.365s-.219,5-1.023,6.266-5.181.6-5.228-.81S215.18,247.045,215.18,247.045Z" transform="translate(-210.319 -194.248)" fill="#baa3a2"/>
          <path id="Trazado_3838" data-name="Trazado 3838" d="M216.453,259.74a3.511,3.511,0,0,0,1.766,1.317,2.051,2.051,0,0,0,1.542,0s-.566-.335-1.542-.829A4.311,4.311,0,0,0,216.453,259.74Z" transform="translate(-210.262 -193.699)" fill="#baa3a2"/>
          <path id="Trazado_3839" data-name="Trazado 3839" d="M228.638,253.816a3.762,3.762,0,0,0,1.988.39c1.122-.1,1.415-.39,1.415-.39a11.706,11.706,0,0,0-1.7-.292A5.224,5.224,0,0,0,228.638,253.816Z" transform="translate(-209.735 -193.968)" fill="#aa8f8f"/>
          <path id="Trazado_3840" data-name="Trazado 3840" d="M212.317,221.126s.529,5.207.731,6.483a15.63,15.63,0,0,0,1.975,5.147c.507.748.761,1.015,1.831.732a7.022,7.022,0,0,0,3.021-1.34c.777-.861-.5-2.908-1.334-6.181a32.7,32.7,0,0,1-.445-5.009C217.861,217.947,212.317,221.126,212.317,221.126Z" transform="translate(-210.441 -195.432)" fill="#ffc9b6"/>
          <path id="Trazado_3841" data-name="Trazado 3841" d="M219.172,224.621a20.09,20.09,0,0,0-1.787-10.3c-.92-1.558-1.439-1.644-1.439-1.644s-3.658.5-4.267,3.943a40.693,40.693,0,0,0-.268,8.976C215.187,226.317,217.874,225.65,219.172,224.621Z" transform="translate(-210.486 -195.734)" fill="#e83a3a"/>
          <path id="Trazado_3842" data-name="Trazado 3842" d="M217.131,211.755a19.969,19.969,0,0,1,2.687,6.1c.885,3.177-.618,10.768-.618,10.768l1.284-1.013a16.509,16.509,0,0,0,1.008-9.557c-1.106-5.066-3.064-6.805-3.064-6.805Z" transform="translate(-210.233 -195.796)" fill="#3f2a28"/>
          <path id="Trazado_3843" data-name="Trazado 3843" d="M225.032,214.738a10.256,10.256,0,0,0-1.381,3.108,9.809,9.809,0,0,1-.108-2.617c.055-.527.041-.982-.294-1.142-.605-.291-.743,1.7-.695,3.965a23.558,23.558,0,0,1-.576,4.814,7.232,7.232,0,0,0,2.2.877c.31-.174.7-.721,1.2-.96.86-.407.843-1.517.923-3.215a1.324,1.324,0,0,0-1.265-1.3,6.854,6.854,0,0,1,.469-2.315C225.818,214.99,225.745,214.025,225.032,214.738Z" transform="translate(-210.023 -195.674)" fill="#ffc9b6"/>
          <path id="Trazado_3844" data-name="Trazado 3844" d="M224.446,219.949a29.272,29.272,0,0,0-2.164,2.661c-.643.989-4.515,4.332-5.541,5.587a14.586,14.586,0,0,0-1.831,3.441s.224,1.84,1.831,1.838a6.251,6.251,0,0,0,4.935-3.253,71.11,71.11,0,0,0,3.215-7.768Z" transform="translate(-210.329 -195.42)" fill="#ffc9b6"/>
          <g id="Grupo_26793" data-name="Grupo 26793" transform="translate(8.249)">
            <path id="Trazado_3845" data-name="Trazado 3845" d="M229.641,203.554s2.3,1.121,3.32-.2C229.889,202.237,229.641,203.554,229.641,203.554Z" transform="translate(-217.941 -196.157)" fill="#d83232"/>
            <path id="Trazado_3846" data-name="Trazado 3846" d="M228.619,198.275c-1.365-1.865-5.036-2.538-7.782-.945-2.626,1.524-2.7,4.359-2.109,7.11,4.189,1.777,8.025.376,11.374-1.064A7.709,7.709,0,0,0,228.619,198.275Z" transform="translate(-218.426 -196.436)" fill="#f95555"/>
            <path id="Trazado_3847" data-name="Trazado 3847" d="M220.731,204.869a12.2,12.2,0,0,0,4.275,1.432c2.489.341,3.7-.878,5.02-1.9a5.936,5.936,0,0,1,3.32-.975s-3.139-1.43-4.359-1.919-4.07.8-5.334,1.772A12.849,12.849,0,0,1,220.731,204.869Z" transform="translate(-218.326 -196.222)" fill="#e83a3a"/>
            <path id="Trazado_3848" data-name="Trazado 3848" d="M223.67,196.91c.053.29-.308.6-.806.69s-.945-.069-1-.358.308-.6.806-.69S223.617,196.621,223.67,196.91Z" transform="translate(-218.277 -196.433)" fill="#e83a3a"/>
          </g>
        </g>
        <g id="Grupo_26798" data-name="Grupo 26798" transform="translate(0 22.084)">
          <path id="Trazado_3849" data-name="Trazado 3849" d="M232.861,239.256c-.98.24-2.441.563-2.536.614.15-.365,1.405-1.445,1.681-1.834.377-.531,0-.988-.758-.531A33.62,33.62,0,0,0,225.6,242.3c-1.5-.418-8.991-2.236-10.759-2.167a22.371,22.371,0,0,0-7.389-4.18,17.746,17.746,0,0,0-4.019-4.625c-4.224-2.831-5.472,2.287-4.413,4.387,1.294,2.567,4.8,4.9,8.432,6.248,2.186.81,4.608.937,6.078,1.445,2.506,2.366,9.222,1.9,11.533,1.537,1.564.508,1.733,1.582,4.712-1.172.413-.381.36-1.227-.409-2.454.726-.809,2.306-.178,3.772-1.216C233.557,239.8,233.346,239.137,232.861,239.256Z" transform="translate(-183.971 -217.048)" fill="#ffb9a4"/>
          <path id="Trazado_3850" data-name="Trazado 3850" d="M204.451,235.249c-.61-1.7-3.426-2.892-5.005-3.261s-3.7-.689-5.183-.118a22.694,22.694,0,0,0-5.111,3.1,2.607,2.607,0,0,0-1.3,2.007c.046.9.818,1.087,1.567,1.325-3.107,3.948-7.332,9.019-2.966,13.391,1.584,1.586,3.906,3.353,6.251,3.279s3.985-1.954,5.347-3.673a31.7,31.7,0,0,0,4.578-7.947C203.423,241.358,205.236,237.431,204.451,235.249Z" transform="translate(-184.58 -217.001)" fill="#6c9925"/>
          <g id="Grupo_26795" data-name="Grupo 26795" transform="translate(11.949 69.271)">
            <path id="Trazado_3851" data-name="Trazado 3851" d="M198.86,289.778a5.061,5.061,0,0,0,5.222,2.664c1.134-.332,2.361-1.332,3.22-1.322-.518-1.054-2.432-2-3.457-2.909a41.852,41.852,0,0,1-3.295-3.4l-2.3-.805a6.421,6.421,0,0,0-1.884,2.21A10.679,10.679,0,0,1,198.86,289.778Z" transform="translate(-196.019 -284.004)" fill="#8dba36"/>
            <path id="Trazado_3852" data-name="Trazado 3852" d="M197.808,290.316c1.542,1.523,6.143,4.386,8.75,2.541.919-.65,1.043-1.254.76-1.828-.86-.01-2.086.99-3.22,1.322a5.061,5.061,0,0,1-5.223-2.664,10.679,10.679,0,0,0-2.5-3.565C195.558,287.637,196.266,288.793,197.808,290.316Z" transform="translate(-196.033 -283.912)" fill="#3f2a28"/>
          </g>
          <path id="Trazado_3853" data-name="Trazado 3853" d="M201.712,286.136a7.313,7.313,0,0,0-2.293,1.079c-.564.576-.027.831,1.011.421s1.949-.808,1.949-.808Z" transform="translate(-183.948 -214.641)" fill="#3f2a28"/>
          <path id="Trazado_3854" data-name="Trazado 3854" d="M203.348,287.767a7.594,7.594,0,0,0-2.4,1.08c-.563.575-.026.83,1.012.421s2.168-.842,2.168-.842Z" transform="translate(-183.882 -214.571)" fill="#3f2a28"/>
          <g id="Grupo_26796" data-name="Grupo 26796" transform="translate(4.621 72.143)">
            <path id="Trazado_3855" data-name="Trazado 3855" d="M191.838,292.531a5.059,5.059,0,0,0,5.223,2.664c1.133-.332,2.361-1.331,3.22-1.322-.518-1.054-2.433-2-3.457-2.909a41.48,41.48,0,0,1-3.295-3.4l-2.3-.805a6.434,6.434,0,0,0-1.884,2.21A10.674,10.674,0,0,1,191.838,292.531Z" transform="translate(-188.995 -286.757)" fill="#8dba36"/>
            <path id="Trazado_3856" data-name="Trazado 3856" d="M190.785,293.069c1.542,1.523,6.142,4.386,8.75,2.541.919-.65,1.042-1.254.761-1.828-.86-.009-2.087.99-3.22,1.322a5.059,5.059,0,0,1-5.223-2.664,10.674,10.674,0,0,0-2.5-3.565C188.534,290.39,189.243,291.546,190.785,293.069Z" transform="translate(-189.009 -286.665)" fill="#3f2a28"/>
          </g>
          <path id="Trazado_3857" data-name="Trazado 3857" d="M195.062,273.014a13.463,13.463,0,0,0-3.107,3.549c-1.114,2.908-.893,7.552-1.328,11.1.016.341.936,2.246,2.4,1.684,1.144-.441,1.812-2.339,2.422-3.321,1.66-2.669,3.665-6.554,5.325-9.223C200.949,276.519,196.589,274.341,195.062,273.014Z" transform="translate(-184.318 -215.209)" fill="#ffc9b6"/>
          <path id="Trazado_3858" data-name="Trazado 3858" d="M204.866,270.355c-1.548.01-3.4,2.287-3.817,3.381-1.114,2.908-2.936,7.226-2.83,10.41-.188,1.277,1.882,3.382,2.967,2.063.779-.946,6.32-9.522,7.979-12.191C209.343,273.73,204.841,270.214,204.866,270.355Z" transform="translate(-183.99 -215.324)" fill="#ffb9a4"/>
          <path id="Trazado_3859" data-name="Trazado 3859" d="M209.4,268.448a78.782,78.782,0,0,0-5.381-9.059c-.129-.172.2-3.483-1.668-6.317-1.672-2.759-5.346-1.512-6.833-.978-1.4.5-2.49.977-2.7,2.566-.4,3,1.5,7.785,3.687,9.826,1.146,1.07,2.527,4.492,5.848,5.862a6.758,6.758,0,0,0,1.87,3.309c.74.921,4.209,2.409,5.18,1.181C211.173,272.594,210.586,270.872,209.4,268.448Z" transform="translate(-184.226 -216.146)" fill="#52362b"/>
          <path id="Trazado_3860" data-name="Trazado 3860" d="M199.348,269.438a17.858,17.858,0,0,0-1.668-7c1.668-.838,2.747-5.261,2.042-9.062-.2-1.1-2.27-2.089-4.331-2.844-2.207-.811-5.056-1.8-6.4.984-3.4,7.069-5.029,11.313-.879,15.6-.384,3.941,3.166,6.77,4.458,7.244a6.6,6.6,0,0,0,1.681,4.123c1.209,1.5,3.221,1.673,5.093,1.039a3.738,3.738,0,0,0,2.38-3.494C201.776,273.869,200.485,271.219,199.348,269.438Z" transform="translate(-184.534 -216.218)" fill="#634035"/>
          <path id="Trazado_3861" data-name="Trazado 3861" d="M205.274,235.835c-1.289-3.266-4.821-5.086-9.283-1.859a32.59,32.59,0,0,0-3.863,2.7c-2.538,2.769-1.388,5.165-1.537,7.47a20.806,20.806,0,0,1-1.734,8.119c1.225,2.754,4.733,5.274,7.521,5.284,4.474.018,5.108-2.16,6.142-3.654-.565-2.438.765-3.9,1.869-5.437,0,0,4.816-1.917,3.879-5.553C207.236,238.9,206.4,238.682,205.274,235.835Z" transform="translate(-184.395 -216.97)" fill="#8dba36"/>
          <path id="Trazado_3862" data-name="Trazado 3862" d="M203.043,233.97a27.713,27.713,0,0,1,2.455,3.665,12.968,12.968,0,0,0-1.227-4.369C203.351,231.818,203.043,233.97,203.043,233.97Z" transform="translate(-183.781 -216.949)" fill="#3f2a28"/>
          <path id="Trazado_3863" data-name="Trazado 3863" d="M208.222,220.349a3.244,3.244,0,0,0-.159-1.461,2.144,2.144,0,0,0-2.02-1.283,2.836,2.836,0,0,0-2.318,1.128,1.917,1.917,0,0,0-.317.994,2.266,2.266,0,0,0-1.028,2.623,2.4,2.4,0,0,0,2.532,1.624,3.081,3.081,0,0,0,2.917-.307C208.775,222.974,209.188,221.11,208.222,220.349Z" transform="translate(-183.814 -217.605)" fill="#2c1d1b"/>
          <path id="Trazado_3864" data-name="Trazado 3864" d="M205,221.234c1.691.715,2.1,2.471,1.077,3.028s-3.37-2.1-3.37-2.1A1.647,1.647,0,0,1,205,221.234Z" transform="translate(-183.796 -217.456)" fill="#8dba36"/>
          <g id="Grupo_26797" data-name="Grupo 26797" transform="translate(11.983 3.944)">
            <path id="Trazado_3865" data-name="Trazado 3865" d="M202.978,235.447a36.2,36.2,0,0,0-4.41-6.414c.039,2.641-1.33,4.868-1.613,6,1.744,1.823,3.845,6.143,6.068,5.291C204.586,239.722,204.165,238.809,202.978,235.447Z" transform="translate(-196.027 -221.055)" fill="#ffb9a4"/>
            <path id="Trazado_3866" data-name="Trazado 3866" d="M206.073,225.653c-2.339-.525-3.561-.622-5.638.219a11.571,11.571,0,0,0-3.321,1.527.293.293,0,0,0-.129.265c.534,3.08,1.568,6.346,5.025,7.714,2.843,1.125,4.438-2,4.933-4.086C207.52,228.854,207.693,226.017,206.073,225.653Z" transform="translate(-196.026 -221.218)" fill="#ffc9b6"/>
            <path id="Trazado_3867" data-name="Trazado 3867" d="M205.2,222.364a5.339,5.339,0,0,0-6.589.337c-3.59,2.906-2.976,5.28-.627,10.119l2.427-4.03a5.393,5.393,0,0,0,4.622-2,3.511,3.511,0,0,0,2.365.968C208.126,225.65,206.822,223.686,205.2,222.364Z" transform="translate(-196.066 -221.385)" fill="#3f2a28"/>
            <path id="Trazado_3868" data-name="Trazado 3868" d="M200.734,229.9s-.559-1.891-1.792-.921.513,2.888.513,2.888Z" transform="translate(-195.96 -221.069)" fill="#ffc9b6"/>
          </g>
          <path id="Trazado_3869" data-name="Trazado 3869" d="M194.987,226.729s1.53,1.264,2.406.3,1.335-3.425-.407-3.733S194.987,226.729,194.987,226.729Z" transform="translate(-184.13 -217.36)" fill="#8dba36"/>
          <path id="Trazado_3870" data-name="Trazado 3870" d="M197.059,225a2.206,2.206,0,0,0,.061-2.575c-.26-.4-.75-.838-1.27-.659a.437.437,0,0,0-.047.028,2.81,2.81,0,0,0-1.411-.69,2.892,2.892,0,0,0-2.808,1.264c-1.266,1.853.433,5.327,2.7,4.851a1.015,1.015,0,0,0,.462.529,1.6,1.6,0,0,0,1.866-.387,2.186,2.186,0,0,0,.447-2.362Z" transform="translate(-184.296 -217.455)" fill="#2c1d1b"/>
          <path id="Trazado_3871" data-name="Trazado 3871" d="M192.761,252.853a4.675,4.675,0,0,0,3.914,1.768c2.432-.231,3.19-1.23,3.19-1.23a10.511,10.511,0,0,1-7.1-.538Z" transform="translate(-184.226 -216.081)" fill="#6c9925"/>
          <path id="Trazado_3872" data-name="Trazado 3872" d="M196.74,248.064a14.193,14.193,0,0,0,4.256-.178c1.393-.461,3.276-1.013,3.276-1.013a5.655,5.655,0,0,1-2.805,2.233C199.392,249.961,196.74,248.064,196.74,248.064Z" transform="translate(-184.054 -216.339)" fill="#6c9925"/>
          <path id="Trazado_3873" data-name="Trazado 3873" d="M194.3,234.989a7.268,7.268,0,0,1,2.081,5.211c-.127,3.151-1.719,8.812-2.828,10.137s-4,.026-4,.026l-.692,1.813s3.706,2.753,6.4-1.839,3.291-9.521,2.082-12.6-2.082-3.361-2.082-3.361Z" transform="translate(-184.395 -216.879)" fill="#3f2a28"/>
          <path id="Trazado_3874" data-name="Trazado 3874" d="M225.347,245.26c-.98.241-2.441.563-2.536.614.15-.365,1.405-1.445,1.681-1.834.377-.531,0-.988-.758-.531a33.528,33.528,0,0,0-5.649,4.793c-1.5-.418-8.991-2.235-10.759-2.167a22.383,22.383,0,0,0-7.389-4.18,17.725,17.725,0,0,0-4.019-4.624c-4.225-2.832-5.473,2.286-4.414,4.386,1.295,2.567,4.8,4.9,8.433,6.249,2.185.809,4.607.936,6.077,1.444,2.507,2.367,9.222,1.9,11.533,1.538,1.565.507,1.733,1.581,4.713-1.173.412-.381.359-1.227-.409-2.454.725-.807,2.306-.178,3.771-1.216C226.043,245.808,225.831,245.141,225.347,245.26Z" transform="translate(-184.296 -216.788)" fill="#ffc9b6"/>
          <path id="Trazado_3875" data-name="Trazado 3875" d="M191.734,288.657s.033-1.744,1.535-1.9.944,1.691.944,1.691A2.688,2.688,0,0,1,191.734,288.657Z" transform="translate(-184.27 -214.615)" fill="#3f2a28"/>
          <path id="Trazado_3876" data-name="Trazado 3876" d="M198.719,285.913s.033-1.745,1.535-1.9.944,1.691.944,1.691A2.688,2.688,0,0,1,198.719,285.913Z" transform="translate(-183.968 -214.733)" fill="#3f2a28"/>
          <path id="Trazado_3877" data-name="Trazado 3877" d="M194.688,288.888a7.335,7.335,0,0,0-2.294,1.08c-.563.576-.026.831,1.012.421s1.949-.807,1.949-.807Z" transform="translate(-184.252 -214.522)" fill="#3f2a28"/>
          <path id="Trazado_3878" data-name="Trazado 3878" d="M196.324,290.52a7.581,7.581,0,0,0-2.4,1.08c-.563.575-.026.83,1.012.421s2.167-.842,2.167-.842Z" transform="translate(-184.186 -214.452)" fill="#3f2a28"/>
        </g>
      </g>
      <g id="Grupo_26800" data-name="Grupo 26800" transform="translate(134.358 257.356)">
        <ellipse id="Elipse_243" data-name="Elipse 243" cx="1.17" cy="0.694" rx="1.17" ry="0.694" transform="translate(154.786 40.969)" fill="#b56861"/>
        <path id="Trazado_3879" data-name="Trazado 3879" d="M280.174,293.66c0,.552-.754,1-1.685,1s-1.685-.448-1.685-1,.754-1,1.685-1S280.174,293.11,280.174,293.66Z" transform="translate(-127.648 -246.231)" fill="#b56861"/>
        <path id="Trazado_3880" data-name="Trazado 3880" d="M251.28,317.641c0,.552-.754,1-1.685,1s-1.685-.448-1.685-1,.754-1,1.685-1S251.28,317.09,251.28,317.641Z" transform="translate(-128.897 -245.194)" fill="#b56861"/>
        <path id="Trazado_3881" data-name="Trazado 3881" d="M187.4,280.485c0,.552-.754,1-1.685,1s-1.684-.448-1.684-1,.754-1,1.684-1S187.4,279.934,187.4,280.485Z" transform="translate(-131.66 -246.801)" fill="#b56861"/>
        <path id="Trazado_3882" data-name="Trazado 3882" d="M152.816,274.113c0,.552-.754,1-1.685,1s-1.685-.447-1.685-1,.754-1,1.685-1S152.816,273.562,152.816,274.113Z" transform="translate(-133.156 -247.077)" fill="#b56861"/>
        <path id="Trazado_3883" data-name="Trazado 3883" d="M244.855,268.418c0,.552-.754,1-1.685,1s-1.684-.447-1.684-1,.754-1,1.684-1S244.855,267.866,244.855,268.418Z" transform="translate(-129.175 -247.323)" fill="#b56861"/>
        <ellipse id="Elipse_244" data-name="Elipse 244" cx="1.17" cy="0.694" rx="1.17" ry="0.694" transform="translate(95.568 59.954)" fill="#b56861"/>
        <path id="Trazado_3884" data-name="Trazado 3884" d="M244.8,257.179c0,.383-.524.694-1.17.694s-1.169-.311-1.169-.694.524-.695,1.169-.695S244.8,256.795,244.8,257.179Z" transform="translate(-129.133 -247.796)" fill="#b56861"/>
        <ellipse id="Elipse_245" data-name="Elipse 245" cx="1.17" cy="0.694" rx="1.17" ry="0.694" transform="translate(121.946 48.874)" fill="#b56861"/>
        <ellipse id="Elipse_246" data-name="Elipse 246" cx="1.17" cy="0.694" rx="1.17" ry="0.694" transform="translate(22.561 31.991)" fill="#b56861"/>
        <ellipse id="Elipse_247" data-name="Elipse 247" cx="1.17" cy="0.694" rx="1.17" ry="0.694" transform="translate(90.697 50.153)" fill="#b56861"/>
        <ellipse id="Elipse_248" data-name="Elipse 248" cx="1.17" cy="0.694" rx="1.17" ry="0.694" transform="translate(128.864 68.047)" fill="#b56861"/>
        <ellipse id="Elipse_249" data-name="Elipse 249" cx="1.17" cy="0.694" rx="1.17" ry="0.694" transform="translate(48.445 35.702)" fill="#b56861"/>
        <path id="Trazado_3885" data-name="Trazado 3885" d="M180.314,270.729c0,.384-.525.695-1.171.695s-1.17-.311-1.17-.695.524-.694,1.17-.694S180.314,270.346,180.314,270.729Z" transform="translate(-131.922 -247.21)" fill="#b56861"/>
        <ellipse id="Elipse_250" data-name="Elipse 250" cx="1.17" cy="0.694" rx="1.17" ry="0.694" transform="translate(62.986 54.67)" fill="#b56861"/>
        <path id="Trazado_3886" data-name="Trazado 3886" d="M136.171,248.85c0,.384-.524.694-1.171.694s-1.169-.31-1.169-.694.524-.694,1.169-.694S136.171,248.467,136.171,248.85Z" transform="translate(-133.831 -248.156)" fill="#b56861"/>
        <path id="Trazado_3887" data-name="Trazado 3887" d="M217.993,297.894c0,.552-.754,1-1.685,1s-1.685-.448-1.685-1,.754-1,1.685-1S217.993,297.343,217.993,297.894Z" transform="translate(-130.337 -246.048)" fill="#b56861"/>
      </g>
    </g>
  </g>
</svg>
