<svg xmlns="http://www.w3.org/2000/svg" width="393.978" height="310.717" viewBox="0 0 393.978 310.717">
  <g id="Grupo_53877" data-name="Grupo 53877" transform="translate(-1014.021 -3578.001)">
    <g id="Image_Place_Holder" data-name="Image Place Holder" transform="translate(1014.021 3622.025)" opacity="0.1">
      <rect id="Image_Place_Holder-2" data-name="Image Place Holder" width="393.978" height="266.693" rx="10" fill="#ff9800"/>
    </g>
    <g id="Grupo_26824" data-name="Grupo 26824" transform="translate(820.763 3451.374)">
      <g id="Grupo_26802" data-name="Grupo 26802" transform="translate(513.604 317.864)">
        <path id="Trazado_3889" data-name="Trazado 3889" d="M329.554,186.4c2.954-.189,2.64,2.576,2.387,4.8-.019.17-.035.342-.054.506l-.336.144q.024-.25.058-.509c.25-2.227.538-4.746-2.2-4.57Z" transform="translate(-329.407 -186.388)" fill="#931818"/>
      </g>
      <path id="Trazado_3890" data-name="Trazado 3890" d="M333.09,186.591l-3.146,1.713v5.617l3.146-1.714Z" transform="translate(185.379 131.922)" fill="#931818"/>
      <path id="Trazado_3891" data-name="Trazado 3891" d="M345.473,203.967,331.2,195.662l8.58,11.119Z" transform="translate(188.135 151.878)" fill="#a51c1c"/>
      <path id="Trazado_3892" data-name="Trazado 3892" d="M264.371,199.073,285.16,184.88l-19.222-10.431L259.217,187.9Z" transform="translate(29.776 105.21)" fill="#a51c1c"/>
      <path id="Trazado_3893" data-name="Trazado 3893" d="M311.044,226.012l20.791-14.191-19.221-10.433-6.727,13.453Z" transform="translate(132.454 164.477)" fill="#a51c1c"/>
      <path id="Trazado_3894" data-name="Trazado 3894" d="M249.2,161.134l57.034-32.944s4.122-3.088,7.619-.413l-59.713,36.24Z" transform="translate(7.738 0.129)" fill="#ff5050"/>
      <path id="Trazado_3895" data-name="Trazado 3895" d="M348.123,218.542c0-7.4-5.223-16.407-11.671-20.131s-11.67-.739-11.67,6.656,5.226,16.41,11.67,20.132S348.123,225.937,348.123,218.542Z" transform="translate(174.022 154.404)" fill="#604349"/>
      <path id="Trazado_3896" data-name="Trazado 3896" d="M518.519,247.126l-209.568-120.5-58.625,33.709L461.943,282.882Z" transform="translate(10.215)" fill="#ef4743"/>
      <path id="Trazado_3897" data-name="Trazado 3897" d="M303.1,127.678l-52.775,30.347,52.775,30.56Z" transform="translate(10.215 2.311)" fill="#f94e4e"/>
      <g id="Grupo_26803" data-name="Grupo 26803" transform="translate(386.871 165.555)">
        <path id="Trazado_3898" data-name="Trazado 3898" d="M324.929,158.989v35.558l29.461-18.618Z" transform="translate(-212.527 -94.357)" fill="#f94e4e"/>
        <path id="Trazado_3899" data-name="Trazado 3899" d="M349.372,173.045,289.8,138.792v67.939l59.568,34.495Z" transform="translate(-289.803 -138.792)" fill="#f94e4e"/>
      </g>
      <path id="Trazado_3900" data-name="Trazado 3900" d="M251.812,136.635l-1.274.843,208.51,121,2.653-.019Z" transform="translate(10.684 22.018)" fill="#ff5050"/>
      <path id="Trazado_3901" data-name="Trazado 3901" d="M374.284,164.238,315.82,198.283l3.014,62.256,2.369,52.644,53.02-31.092.274-13.523-17.984-10.09V239.054l20.387-12.18Z" transform="translate(154.306 82.745)" fill="#b52824"/>
      <path id="Trazado_3902" data-name="Trazado 3902" d="M333.175,199.813l-.2,13.594s9.591-3.584,9.783-11.12C342.958,194.437,333.175,199.813,333.175,199.813Z" transform="translate(192.051 157.059)" fill="#a51c1c"/>
      <path id="Trazado_3903" data-name="Trazado 3903" d="M337.636,203.2a3.95,3.95,0,0,0,.506-4.208c-.694-1.078-2.042-.941-3.011.307a3.974,3.974,0,0,0-.5,4.208C335.319,204.583,336.666,204.449,337.636,203.2Z" transform="translate(194.804 157.607)" fill="#4f2832"/>
      <path id="Trazado_3904" data-name="Trazado 3904" d="M331.787,217.523l-10.3-6.486,26.046-13.488,7.76,1.853Z" transform="translate(166.783 156.03)" fill="#d13f34"/>
      <path id="Trazado_3905" data-name="Trazado 3905" d="M328.137,205.584l-6.646-3.853,8.241,2.463Z" transform="translate(166.783 165.231)" fill="#ef4743"/>
      <path id="Trazado_3906" data-name="Trazado 3906" d="M357.476,196.8c-6.237,2.038-8.848.9-14.3,3.926-6.259,3.488-11.77,9.351-19.607,15.693v21.728c12.611-2.518,24.688-10.483,33.908-19.619Z" transform="translate(171.351 154.391)" fill="#b52824"/>
      <g id="Grupo_26804" data-name="Grupo 26804" transform="translate(295.411 292.922)">
        <path id="Trazado_3907" data-name="Trazado 3907" d="M290.421,198.7c.08-6.784-4.618-15.1-10.486-18.579-3.079-1.824-5.869-1.952-7.837-.691l-6.867,3.824c-2.4.845-3.962,3.36-4.007,7.194-.077,6.781,4.621,15.1,10.493,18.576,3.328,1.971,6.317,1.965,8.3.352l6.573-3.552C288.9,204.914,290.379,202.431,290.421,198.7Z" transform="translate(-261.223 -178.593)" fill="#493336"/>
        <path id="Trazado_3908" data-name="Trazado 3908" d="M284.965,198.7c.08-6.784-4.618-15.1-10.486-18.579s-10.7-.8-10.775,5.978,4.618,15.1,10.49,18.579S284.888,205.478,284.965,198.7Z" transform="translate(-255.767 -178.594)" fill="#493336"/>
        <path id="Trazado_3909" data-name="Trazado 3909" d="M282.485,200.055c.08-6.787-4.618-15.1-10.487-18.579s-10.695-.8-10.775,5.981,4.621,15.1,10.493,18.576S282.411,206.836,282.485,200.055Z" transform="translate(-261.223 -175.607)" fill="#493336"/>
        <path id="Trazado_3910" data-name="Trazado 3910" d="M266.744,194.115l8.494-4.592-6.219-3.717Z" transform="translate(-249.075 -162.725)" fill="#493336"/>
        <path id="Trazado_3911" data-name="Trazado 3911" d="M276.9,195.552a16.565,16.565,0,0,0-7.367-13.05c-4.125-2.445-7.514-.563-7.568,4.2a16.535,16.535,0,0,0,7.37,13.043C273.452,202.2,276.841,200.314,276.9,195.552Z" transform="translate(-259.601 -172.351)" fill="#af979b"/>
        <path id="Trazado_3912" data-name="Trazado 3912" d="M272.85,195.027a20.324,20.324,0,0,1,3.027,4.186,6.4,6.4,0,0,0,1.018-3.661,16.565,16.565,0,0,0-7.367-13.05c-4.125-2.445-7.514-.563-7.568,4.2a12.124,12.124,0,0,0,.285,2.653C265.618,189.539,269.605,191.543,272.85,195.027Z" transform="translate(-259.601 -172.351)" fill="#997f85"/>
        <path id="Trazado_3913" data-name="Trazado 3913" d="M271.746,191.028a9.815,9.815,0,0,0-4.365-7.725c-2.435-1.45-4.438-.336-4.467,2.486a9.815,9.815,0,0,0,4.362,7.722C269.718,194.958,271.717,193.844,271.746,191.028Z" transform="translate(-257.502 -169.632)" fill="#ceb2b8"/>
        <path id="Trazado_3914" data-name="Trazado 3914" d="M277.331,180.117c-3.078-1.824-5.869-1.952-7.837-.691l-6.867,3.824c-.077.029-.147.058-.221.09,5.494-2.739,22.755,11.815,16.218,25.38l5.367-2.9c2.3-.906,3.786-3.389,3.827-7.123C287.9,191.912,283.2,183.6,277.331,180.117Z" transform="translate(-258.619 -178.593)" fill="#382428"/>
      </g>
      <g id="Grupo_26805" data-name="Grupo 26805" transform="translate(445.311 377.343)">
        <path id="Trazado_3915" data-name="Trazado 3915" d="M337.267,225.076c.077-6.781-4.621-15.1-10.493-18.576-3.075-1.824-5.859-1.955-7.834-.691l-6.867,3.824c-2.406.838-3.962,3.357-4.006,7.19-.077,6.781,4.621,15.1,10.493,18.576,3.331,1.974,6.32,1.965,8.3.355l6.576-3.555C335.74,231.3,337.225,228.811,337.267,225.076Z" transform="translate(-308.066 -204.974)" fill="#493336"/>
        <path id="Trazado_3916" data-name="Trazado 3916" d="M331.809,225.077c.077-6.781-4.621-15.1-10.493-18.576s-10.694-.8-10.768,5.981,4.618,15.1,10.49,18.576S331.732,231.861,331.809,225.077Z" transform="translate(-302.607 -204.975)" fill="#493336"/>
        <path id="Trazado_3917" data-name="Trazado 3917" d="M329.331,226.44c.074-6.787-4.621-15.1-10.49-18.583s-10.7-.8-10.775,5.981,4.621,15.1,10.493,18.576S329.254,233.218,329.331,226.44Z" transform="translate(-308.066 -201.989)" fill="#493336"/>
        <path id="Trazado_3918" data-name="Trazado 3918" d="M313.587,220.494l8.5-4.589-6.218-3.717Z" transform="translate(-295.919 -189.106)" fill="#493336"/>
        <path id="Trazado_3919" data-name="Trazado 3919" d="M316.244,211.844l-7.249-1.984,8.436-4.7Z" transform="translate(-306.022 -204.573)" fill="#493336"/>
        <path id="Trazado_3920" data-name="Trazado 3920" d="M323.738,221.931a16.55,16.55,0,0,0-7.366-13.047c-4.125-2.445-7.514-.563-7.568,4.2a16.548,16.548,0,0,0,7.37,13.043C320.295,228.574,323.687,226.693,323.738,221.931Z" transform="translate(-306.444 -198.731)" fill="#af979b"/>
        <path id="Trazado_3921" data-name="Trazado 3921" d="M319.694,221.406a20.61,20.61,0,0,1,3.034,4.186,6.425,6.425,0,0,0,1.011-3.661,16.55,16.55,0,0,0-7.366-13.047c-4.125-2.445-7.514-.563-7.568,4.2a11.8,11.8,0,0,0,.285,2.653C312.461,215.921,316.452,217.925,319.694,221.406Z" transform="translate(-306.444 -198.731)" fill="#997f85"/>
        <path id="Trazado_3922" data-name="Trazado 3922" d="M318.587,217.408a9.826,9.826,0,0,0-4.362-7.725c-2.438-1.446-4.442-.333-4.467,2.487a9.8,9.8,0,0,0,4.362,7.725C316.555,221.34,318.555,220.227,318.587,217.408Z" transform="translate(-304.343 -196.013)" fill="#ceb2b8"/>
        <path id="Trazado_3923" data-name="Trazado 3923" d="M324.171,206.5c-3.075-1.824-5.859-1.955-7.834-.691l-6.867,3.824c-.074.022-.144.058-.221.086,5.495-2.736,22.756,11.815,16.218,25.38l5.37-2.9c2.3-.9,3.786-3.389,3.827-7.123C334.741,218.3,330.043,209.978,324.171,206.5Z" transform="translate(-305.462 -204.974)" fill="#382428"/>
        <path id="Trazado_3924" data-name="Trazado 3924" d="M313.608,212.3a7.313,7.313,0,0,1,2.941,3.92,4.182,4.182,0,0,0,.064-.627,7.37,7.37,0,0,0-3.267-5.786c-1.824-1.085-3.325-.25-3.344,1.862a5.859,5.859,0,0,0,.317,1.859C310.612,211.9,311.979,211.332,313.608,212.3Z" transform="translate(-303.808 -195.387)" fill="#e8cfd5"/>
      </g>
      <path id="Trazado_3925" data-name="Trazado 3925" d="M470.449,258.2,262.539,137.075c-17.763-3.248-16.65,54.407-16.65,116.328l48.157,27.776a21.967,21.967,0,0,1-.426-4.176c0-8.835,6.246-12.4,13.946-7.949s13.949,15.216,13.949,24.055a15.107,15.107,0,0,1-.422,3.674l121.3,69.966.362.022a24.763,24.763,0,0,1-.621-5.318c0-9.767,6.9-13.7,15.408-8.787,6.358,3.674,11.815,11.245,14.17,18.915l3.494,2.016Z" transform="translate(0.425 22.697)" fill="#d13f34"/>
      <path id="Trazado_3926" data-name="Trazado 3926" d="M322.206,290.89l-4.758-115.4-2.027-.953Z" transform="translate(153.425 105.403)" fill="#ef4743"/>
      <g id="Grupo_26806" data-name="Grupo 26806" transform="translate(246.127 239.094)">
        <path id="Trazado_3927" data-name="Trazado 3927" d="M474.413,296.586,245.821,162.741l.1-.969L474.415,295.612Z" transform="translate(-245.821 -161.773)" fill="#ef4743"/>
      </g>
      <g id="Grupo_26807" data-name="Grupo 26807" transform="translate(247.719 195.749)">
        <path id="Trazado_3928" data-name="Trazado 3928" d="M471.464,280.674,246.319,149.2l.106-.972L471.466,279.7Z" transform="translate(-246.319 -148.228)" fill="#ef4743"/>
      </g>
      <path id="Trazado_3929" data-name="Trazado 3929" d="M358.725,208.958l-2.141-3.422-86.6-47.382v19.108l88.737,50.8Z" transform="translate(53.472 69.358)" fill="#b52824"/>
      <path id="Trazado_3930" data-name="Trazado 3930" d="M473.511,282.574,245.683,151.038l0,5.181L473.755,287.9Z" transform="translate(0 53.705)" fill="#b52824"/>
      <path id="Trazado_3931" data-name="Trazado 3931" d="M347.635,226.87l-70.362-40.657.054,1.512,70.36,40.655Z" transform="translate(69.501 131.091)" fill="#ffb399"/>
      <path id="Trazado_3932" data-name="Trazado 3932" d="M388.845,252.748,269.719,183.972l.092,2.556,119.124,68.778Z" transform="translate(52.881 126.159)" fill="#ffb399"/>
      <path id="Trazado_3933" data-name="Trazado 3933" d="M438.7,247.91,258.823,143.637v18.7L438.7,266.187Z" transform="translate(28.908 37.422)" fill="#6d3d4a"/>
      <path id="Trazado_3934" data-name="Trazado 3934" d="M403.431,245.625,261.644,163.762v17.525l141.788,81.859Z" transform="translate(35.115 81.699)" fill="#6d3d4a"/>
      <path id="Trazado_3935" data-name="Trazado 3935" d="M336.227,205.256l-29.342-17.068v22.84l29.342,17.1Z" transform="translate(134.647 135.435)" fill="#6d3d4a"/>
      <path id="Trazado_3936" data-name="Trazado 3936" d="M473.1,281.813,245.747,150.685v5.178l227.6,131.268Z" transform="translate(0.141 52.926)" fill="#f9b653"/>
      <path id="Trazado_3937" data-name="Trazado 3937" d="M328.219,205.779l-6.727-4.048.164,21.759,6.527,3.5Z" transform="translate(166.783 165.231)" fill="#d13f34"/>
      <path id="Trazado_3938" data-name="Trazado 3938" d="M339.375,189.741,318.17,201.849l1.184,22.9,21.2-12.108Z" transform="translate(159.475 138.853)" fill="#4f2832"/>
      <path id="Trazado_3939" data-name="Trazado 3939" d="M374.746,181.3l-58.005,33.254.376,5.353,57.629-33.151Z" transform="translate(156.332 120.286)" fill="#ce9036"/>
      <path id="Trazado_3940" data-name="Trazado 3940" d="M332.476,203.171l-.2,18.842S317,233.162,317.247,225.587C317.5,217.7,332.476,203.171,332.476,203.171Z" transform="translate(157.438 168.399)" fill="#d13f34"/>
      <path id="Trazado_3941" data-name="Trazado 3941" d="M332.956,203.4l2.832,3.155-.618,17.072-2.234-1.389s-14.855,11-14.618,3.43C318.565,217.789,332.956,203.4,332.956,203.4Z" transform="translate(159.797 168.914)" fill="#b52824"/>
      <path id="Trazado_3942" data-name="Trazado 3942" d="M292.674,199.225,245.88,172.3v3.8l47.338,27.28A22.9,22.9,0,0,1,292.674,199.225Z" transform="translate(0.434 100.475)" fill="#ffdad4"/>
      <path id="Trazado_3943" data-name="Trazado 3943" d="M269.339,189.486,391.27,259.976l-.134-4.035-121.25-70A14.109,14.109,0,0,1,269.339,189.486Z" transform="translate(52.045 130.49)" fill="#ffdad4"/>
      <path id="Trazado_3944" data-name="Trazado 3944" d="M338.028,210.682V186.9l-12.354,7.31,1.133,12.454,2.159-1.287Z" transform="translate(175.984 132.602)" fill="#931818"/>
      <g id="Grupo_26808" data-name="Grupo 26808" transform="translate(501.658 320.462)">
        <path id="Trazado_3945" data-name="Trazado 3945" d="M336.4,187.2l-10.729,6.35.972,10.695,9.757-5.57Z" transform="translate(-325.674 -187.2)" fill="#4f2832"/>
      </g>
      <path id="Trazado_3946" data-name="Trazado 3946" d="M338.433,229.315l1.181-.6c-1.974-8.864-7.309-18.237-13.968-23.066-9.274-6.723-17.779-2.95-19,8.423-.288,2.688,1.155,7.549,1.667,10.458l1.142-.566a26.153,26.153,0,0,1-.138-6.285c1.085-10.125,8.765-12.823,17.015-6.845C331.489,214.576,336.266,222.5,338.433,229.315Z" transform="translate(134.041 166.524)" fill="#b52824"/>
      <path id="Trazado_3947" data-name="Trazado 3947" d="M337.554,227.874l1.779,1.037c-1.974-8.867-7.312-18.24-13.971-23.069-9.271-6.72-17.776-2.95-19,8.426a30.5,30.5,0,0,0,.374,8.474l2.432,1.418a26.346,26.346,0,0,1-.135-6.288c1.085-10.122,8.762-12.823,17.015-6.838C331.212,214.77,335.391,221.055,337.554,227.874Z" transform="translate(133.189 166.947)" fill="#e5504c"/>
      <path id="Trazado_3948" data-name="Trazado 3948" d="M262.941,194.006a18.243,18.243,0,0,1-.429-3.792c0-9.085,5.949-12.586,13.863-8.013,9.392,5.421,16.333,20.813,14.106,29.818l1.891-.579c2.189-10.5-2.2-25.876-14.967-32.877-9.207-5.05-17.347.093-17.347,10.528a21.286,21.286,0,0,0,1.133,5.946Z" transform="translate(31.626 109.95)" fill="#b52824"/>
      <path id="Trazado_3949" data-name="Trazado 3949" d="M262.164,194.633a22.4,22.4,0,0,1-.422-4.214c0-9.085,5.949-12.586,13.866-8.016,9.389,5.424,15.539,18.727,13.315,27.732l2.675,1.51c2.2-10.5-2.2-25.879-14.96-32.877-9.21-5.046-17.024-.013-17.024,10.423a25.489,25.489,0,0,0,.365,4.182Z" transform="translate(30.647 110.363)" fill="#e5504c"/>
      <path id="Trazado_3950" data-name="Trazado 3950" d="M367.281,167.532l-49.553,28.552.822,17.57L368.106,185.1Z" transform="translate(158.502 89.992)" fill="#4f2832"/>
      <path id="Trazado_3951" data-name="Trazado 3951" d="M344.691,178.725a1.334,1.334,0,0,0-2-1.094L324.4,188.171a1.81,1.81,0,0,0-.909,1.658l.394,8.442a1.238,1.238,0,0,0,1.853,1.014l18.247-10.512a2.173,2.173,0,0,0,1.085-1.984Z" transform="translate(171.176 111.814)" fill="#4f2832"/>
      <path id="Trazado_3952" data-name="Trazado 3952" d="M348.07,181.5a.5.5,0,0,0-.256-.413.491.491,0,0,0-.483.006l-23.792,13.831a.675.675,0,0,0-.339.618l.144,3.126a.471.471,0,0,0,.24.381.462.462,0,0,0,.451-.006l23.776-13.821a.808.808,0,0,0,.4-.736Z" transform="translate(170.539 119.677)" fill="#4f2832"/>
      <path id="Trazado_3953" data-name="Trazado 3953" d="M364.061,168.411l-45.774,26.376.685,14.281L364.748,182.7Z" transform="translate(159.733 91.925)" fill="#523e41"/>
      <path id="Trazado_3954" data-name="Trazado 3954" d="M321.492,221.657l15.65-15.749-1.133-11.946,2.159-1.287,23.877,13.216-13.785,3.621-1.854-.722Z" transform="translate(166.783 145.305)" fill="#a51c1c"/>
      <path id="Trazado_3955" data-name="Trazado 3955" d="M322.651,212.917a3.974,3.974,0,0,0,.5-4.208c-.691-1.078-2.039-.941-3.011.307a3.967,3.967,0,0,0-.5,4.208C320.331,214.3,321.675,214.162,322.651,212.917Z" transform="translate(161.82 178.983)" fill="#4f2832"/>
      <path id="Trazado_3956" data-name="Trazado 3956" d="M346.365,200.168c-3.7,1.085-5.242.189-8.47,1.978-3.712,2.054-6.976,5.747-11.619,9.651v14.627c7.472-1.107,14.627-5.9,20.09-11.626Z" transform="translate(177.306 161.792)" fill="#e2a3a3"/>
      <path id="Trazado_3957" data-name="Trazado 3957" d="M344.175,201.642a.832.832,0,0,0-.307-.65.841.841,0,0,0-.7-.17c-2.506.538-3.84.083-6.32,1.453-3.05,1.69-5.75,4.662-9.459,7.846a1.7,1.7,0,0,0-.589,1.286v11.232a.544.544,0,0,0,.2.419.553.553,0,0,0,.448.118c5.914-1.075,11.571-4.774,16.042-9.245a2.377,2.377,0,0,0,.691-1.674Z" transform="translate(178.459 163.195)" fill="#a51c1c"/>
      <path id="Trazado_3958" data-name="Trazado 3958" d="M356.818,206.91,269.847,157.3v19.108l86.971,49.613Z" transform="translate(53.163 67.48)" fill="#ffb399"/>
      <path id="Trazado_3959" data-name="Trazado 3959" d="M352.71,205.117,270.581,158.39V173.6l82.131,46.728Z" transform="translate(54.777 69.879)" fill="#b25757"/>
      <path id="Trazado_3960" data-name="Trazado 3960" d="M337.459,190.185l-18.913,11.121.947,20.748,19.032-10.82Z" transform="translate(160.303 139.829)" fill="#523e41"/>
      <g id="Grupo_26809" data-name="Grupo 26809" transform="translate(501.742 320.937)">
        <path id="Trazado_3961" data-name="Trazado 3961" d="M335.577,187.348,325.7,193.19l.9,9.843,8.981-5.128Z" transform="translate(-325.7 -187.348)" fill="#523e41"/>
      </g>
      <path id="Trazado_3962" data-name="Trazado 3962" d="M335.139,197.905l-9.24-5.162,9.24-5.395Z" transform="translate(176.479 133.588)" fill="#604b50"/>
      <path id="Trazado_3963" data-name="Trazado 3963" d="M340.575,194.868,318.2,207.84v1.443l22.375-12.972Z" transform="translate(159.54 150.132)" fill="#b52824"/>
      <path id="Trazado_3964" data-name="Trazado 3964" d="M322.182,212.142a3.2,3.2,0,0,0,.406-3.4c-.557-.867-1.645-.758-2.429.246a3.194,3.194,0,0,0-.406,3.392C320.31,213.259,321.4,213.15,322.182,212.142Z" transform="translate(162.247 179.38)" fill="#e2a3a3"/>
      <path id="Trazado_3965" data-name="Trazado 3965" d="M337.156,202.481a3.194,3.194,0,0,0,.41-3.4c-.56-.867-1.645-.755-2.429.25a3.2,3.2,0,0,0-.41,3.4C335.288,203.6,336.376,203.485,337.156,202.481Z" transform="translate(195.193 158.126)" fill="#e2a3a3"/>
      <path id="Trazado_3966" data-name="Trazado 3966" d="M341.657,182.705l-12.83-7.478,12.25-6.8Z" transform="translate(182.921 91.973)" fill="#604b50"/>
      <path id="Trazado_3967" data-name="Trazado 3967" d="M435.263,246.623,259.388,144.507v15.311l175.875,101.71Z" transform="translate(30.153 39.336)" fill="#7e676b"/>
      <path id="Trazado_3968" data-name="Trazado 3968" d="M320.363,180.027l-44.788-25.914,20.1,25.107,44.788,25.915Z" transform="translate(65.766 60.47)" fill="#968387" opacity="0.5"/>
      <path id="Trazado_3969" data-name="Trazado 3969" d="M308.938,173.043l-4.67-2.809V187.09l4.67,2.809Z" transform="translate(128.891 95.936)" fill="#6d3d4a"/>
      <path id="Trazado_3970" data-name="Trazado 3970" d="M299.43,167.637l-4.668-2.808v16.856l4.668,2.808Z" transform="translate(107.977 84.046)" fill="#6d3d4a"/>
      <path id="Trazado_3971" data-name="Trazado 3971" d="M289.922,161.976l-4.668-2.809v16.855l4.668,2.81Z" transform="translate(87.06 71.589)" fill="#6d3d4a"/>
      <path id="Trazado_3972" data-name="Trazado 3972" d="M280.415,156.634l-4.667-2.808v16.855l4.667,2.811Z" transform="translate(66.145 59.838)" fill="#6d3d4a"/>
      <path id="Trazado_3973" data-name="Trazado 3973" d="M270.906,151.1l-4.665-2.81V165.15l4.665,2.806Z" transform="translate(45.229 47.664)" fill="#6d3d4a"/>
      <path id="Trazado_3974" data-name="Trazado 3974" d="M306.427,171.322l-1.782-1.721v21.2l1.782,1.721Z" transform="translate(129.719 94.545)" fill="#d13f34"/>
      <path id="Trazado_3975" data-name="Trazado 3975" d="M296.9,165.872l-1.782-1.718v21.2l1.782,1.721Z" transform="translate(108.767 82.56)" fill="#d13f34"/>
      <path id="Trazado_3976" data-name="Trazado 3976" d="M287.426,160.469l-1.785-1.721v21.208l1.785,1.718Z" transform="translate(87.909 70.668)" fill="#d13f34"/>
      <path id="Trazado_3977" data-name="Trazado 3977" d="M277.9,154.936l-1.783-1.721v21.2l1.783,1.721Z" transform="translate(66.96 58.494)" fill="#d13f34"/>
      <path id="Trazado_3978" data-name="Trazado 3978" d="M268.464,149.487l-1.783-1.72v21.206l1.783,1.72Z" transform="translate(46.197 46.509)" fill="#d13f34"/>
      <path id="Trazado_3979" data-name="Trazado 3979" d="M328.755,171.712l-3.528,2.017.61,16.421,3.527-2.019Z" transform="translate(174.999 99.187)" fill="#4f2832"/>
      <path id="Trazado_3980" data-name="Trazado 3980" d="M325.481,170.3h1.647l1.132,26.87h-1.646Z" transform="translate(175.56 96.079)" fill="#b52824"/>
      <path id="Trazado_3981" data-name="Trazado 3981" d="M325.862,178.43h1.057l.728,16.19h-1.058Z" transform="translate(176.398 113.968)" fill="#b52824"/>
      <path id="Trazado_3982" data-name="Trazado 3982" d="M333.688,204.141,307.357,188.83v20.491l26.332,15.344Z" transform="translate(135.682 136.847)" fill="#7e676b"/>
      <path id="Trazado_3983" data-name="Trazado 3983" d="M314.031,191.608l-4.218-1.362v21.469l4.218,1.9Z" transform="translate(141.089 139.963)" fill="#6d3d4a"/>
      <path id="Trazado_3984" data-name="Trazado 3984" d="M311.775,191.385l-1.544-1.493v23.55l1.544,2.084Z" transform="translate(142.009 139.185)" fill="#d13f34"/>
      <path id="Trazado_3985" data-name="Trazado 3985" d="M400.91,244.77,262.047,164.54v14.171L400.91,258.943Z" transform="translate(36.003 83.409)" fill="#7e676b"/>
      <path id="Trazado_3986" data-name="Trazado 3986" d="M317.46,196.61,272.674,170.7l20.1,25.106,44.789,25.916Z" transform="translate(59.381 96.954)" fill="#968387" opacity="0.5"/>
      <path id="Trazado_3987" data-name="Trazado 3987" d="M299.493,185.721l-4.667-2.812v16.858l4.667,2.808Z" transform="translate(108.118 123.824)" fill="#6d3d4a"/>
      <path id="Trazado_3988" data-name="Trazado 3988" d="M296.968,183.954l-1.782-1.72v21.206l1.782,1.718Z" transform="translate(108.908 122.338)" fill="#d13f34"/>
      <path id="Trazado_3989" data-name="Trazado 3989" d="M288.747,179.541l-4.667-2.808v16.855l4.667,2.809Z" transform="translate(84.477 110.236)" fill="#6d3d4a"/>
      <path id="Trazado_3990" data-name="Trazado 3990" d="M286.223,177.776l-1.783-1.718v21.2l1.783,1.721Z" transform="translate(85.268 108.749)" fill="#d13f34"/>
      <path id="Trazado_3991" data-name="Trazado 3991" d="M278.387,173.685l-4.666-2.807v16.855l4.666,2.808Z" transform="translate(61.686 97.353)" fill="#6d3d4a"/>
      <path id="Trazado_3992" data-name="Trazado 3992" d="M275.865,171.922l-1.784-1.72v21.2l1.784,1.721Z" transform="translate(62.476 95.867)" fill="#d13f34"/>
      <g id="Grupo_26810" data-name="Grupo 26810" transform="translate(289.744 158.368)">
        <path id="Trazado_3993" data-name="Trazado 3993" d="M448.062,247.347,259.452,137.256l.416-.71,188.611,110.09Z" transform="translate(-259.452 -136.546)" fill="#ff5050"/>
      </g>
      <g id="Grupo_26811" data-name="Grupo 26811" transform="translate(305.667 149.719)">
        <rect id="Rectángulo_4642" data-name="Rectángulo 4642" width="0.823" height="218.392" transform="translate(0 0.711) rotate(-59.729)" fill="#ff5050"/>
      </g>
      <g id="Grupo_26812" data-name="Grupo 26812" transform="translate(318.434 141.894)">
        <path id="Trazado_3994" data-name="Trazado 3994" d="M457.027,242.2,268.417,132.109l.417-.711L457.443,241.491Z" transform="translate(-268.417 -131.398)" fill="#ff5050"/>
      </g>
      <path id="Trazado_3995" data-name="Trazado 3995" d="M331.418,200.736l-1.733,1.277V220.4l1.733-1.272Z" transform="translate(184.809 163.041)" fill="#e2a3a3"/>
      <path id="Trazado_3996" data-name="Trazado 3996" d="M329.631,201.739l1.033,2.539,1.1-3.705Z" transform="translate(184.689 162.683)" fill="#592e38"/>
      <path id="Trazado_3997" data-name="Trazado 3997" d="M318.144,195.022l-4.511,2.455v8.053l.85.151,4.323-10.4Z" transform="translate(149.494 150.471)" fill="#ffb399"/>
      <g id="Grupo_26813" data-name="Grupo 26813" transform="translate(465.324 340.77)">
        <path id="Trazado_3998" data-name="Trazado 3998" d="M314.381,200.532c-.528-3.965,2.451-5.485,4.848-6.707.186-.093.368-.189.547-.278l.192.365c-.182.09-.365.186-.554.278-2.4,1.226-5.114,2.611-4.627,6.288Z" transform="translate(-314.32 -193.546)" fill="#ffb399"/>
      </g>
      <path id="Trazado_3999" data-name="Trazado 3999" d="M318.563,198.831l-11.79-6.591v1.286l11.79,6.593Z" transform="translate(134.401 144.35)" fill="#e8423f"/>
      <path id="Trazado_4000" data-name="Trazado 4000" d="M318.432,200.218l-11.788-6.594v1.287l11.788,6.591Z" transform="translate(134.117 147.395)" fill="#e8423f"/>
      <g id="Grupo_26814" data-name="Grupo 26814" transform="translate(338.549 238.56)">
        <path id="Trazado_4001" data-name="Trazado 4001" d="M274.7,161.606l1.056.6v8.659l3.5,1.99v1.053l-4.56-2.6Z" transform="translate(-274.703 -161.606)" fill="#ffdad4"/>
        <path id="Trazado_4002" data-name="Trazado 4002" d="M283.69,170.436c0,3.341-1.715,4.138-3.808,2.947a8.221,8.221,0,0,1-3.686-7.021c0-3.082,1.616-4.179,3.808-2.934A8.162,8.162,0,0,1,283.69,170.436Zm-6.365-3.459c0,2.074.95,4.47,2.618,5.418s2.627-.336,2.627-2.538c0-1.93-.851-4.432-2.618-5.434C278.2,163.428,277.326,164.845,277.326,166.977Z" transform="translate(-271.418 -158.705)" fill="#ffdad4"/>
        <path id="Trazado_4003" data-name="Trazado 4003" d="M278.966,164.07a17.116,17.116,0,0,1,2.25,1.078,8.8,8.8,0,0,1,3.322,3.094,7.865,7.865,0,0,1,1.155,4.144c0,1.584-.413,2.646-1.181,3.1s-2.032.243-3.626-.662c-.755-.429-1.386-.832-1.92-1.206Zm1.056,9.187a9.647,9.647,0,0,0,1.072.678c2.262,1.286,3.491.486,3.491-2.134a6.259,6.259,0,0,0-3.322-5.632,6.616,6.616,0,0,0-1.242-.576Z" transform="translate(-265.324 -156.185)" fill="#ffdad4"/>
        <path id="Trazado_4004" data-name="Trazado 4004" d="M288.839,173.362c0,3.341-1.715,4.138-3.808,2.947a8.217,8.217,0,0,1-3.686-7.021c0-3.082,1.619-4.179,3.808-2.935A8.154,8.154,0,0,1,288.839,173.362Zm-6.362-3.459c0,2.074.947,4.47,2.615,5.418s2.627-.333,2.627-2.538c0-1.93-.851-4.432-2.614-5.434S282.477,167.772,282.477,169.9Z" transform="translate(-260.093 -152.267)" fill="#ffdad4"/>
        <path id="Trazado_4005" data-name="Trazado 4005" d="M284.114,176.665v-9.709l1.158.656,2.627,6.406c.608,1.482,1.082,2.774,1.472,3.99h.023c-.1-1.354-.122-2.547-.122-4.061v-4.061l1,.566v9.709l-1.072-.608-2.6-6.406c-.573-1.4-1.12-2.826-1.533-4.112l-.035-.006c.061,1.258.083,2.438.083,4.051v4.15Z" transform="translate(-253.998 -149.836)" fill="#ffdad4"/>
        <path id="Trazado_4006" data-name="Trazado 4006" d="M287.42,168.875a11.426,11.426,0,0,1,1.936.9,6.129,6.129,0,0,1,2.25,1.984,3.693,3.693,0,0,1,.682,2.1c0,.934-.525,1.459-1.389,1.341v.029a4.789,4.789,0,0,1,1.693,3.4,1.634,1.634,0,0,1-.694,1.552c-.573.294-1.5.058-2.835-.7a16.684,16.684,0,0,1-1.642-1.05Zm1.059,4.576.96.547c1.12.637,1.776.317,1.776-.618a3.047,3.047,0,0,0-1.8-2.608,5.006,5.006,0,0,0-.934-.445Zm0,4.653a8.063,8.063,0,0,0,.886.563c1.094.624,2.106.72,2.106-.691a3.738,3.738,0,0,0-2.115-3.075l-.877-.5Z" transform="translate(-246.725 -145.614)" fill="#ffdad4"/>
        <path id="Trazado_4007" data-name="Trazado 4007" d="M290.545,170.611v5.747c0,2.173.816,3.558,1.91,4.182,1.216.691,2,.182,2-1.962v-5.75l1.069.611V179.1c0,2.986-1.325,3.456-3.1,2.445-1.68-.954-2.944-2.81-2.944-5.821V170Z" transform="translate(-242.202 -143.132)" fill="#ffdad4"/>
        <path id="Trazado_4008" data-name="Trazado 4008" d="M292.075,178.976a6.935,6.935,0,0,0,1.9,1.712c1.082.614,1.715.3,1.715-.682,0-.906-.438-1.674-1.542-2.81-1.338-1.318-2.166-2.611-2.166-3.981,0-1.514,1.059-2.035,2.653-1.13a6.546,6.546,0,0,1,1.811,1.507l-.291.858a5.868,5.868,0,0,0-1.558-1.347c-1.117-.637-1.546-.086-1.546.579,0,.906.5,1.635,1.632,2.8,1.386,1.421,2.093,2.614,2.093,4.042,0,1.5-.938,2.262-2.874,1.162a7.545,7.545,0,0,1-2.09-1.808Z" transform="translate(-237.069 -139.529)" fill="#ffdad4"/>
      </g>
      <path id="Trazado_4009" data-name="Trazado 4009" d="M318.359,195.087l-4.511,2.455v8.053l4.511-2.456Z" transform="translate(149.967 150.614)" fill="#ea8c73"/>
      <path id="Trazado_4010" data-name="Trazado 4010" d="M325.417,183.816l-29.857-16.76V168.6l29.857,16.753Z" transform="translate(109.733 88.945)" fill="#e8423f"/>
      <path id="Trazado_4011" data-name="Trazado 4011" d="M318.379,198.254l-33.564-19.229v1.545L318.379,199.8Z" transform="translate(86.092 115.277)" fill="#e8423f"/>
      <path id="Trazado_4012" data-name="Trazado 4012" d="M315.734,178.4l-29.858-16.755v1.543l29.858,16.756Z" transform="translate(88.429 77.038)" fill="#e8423f"/>
      <path id="Trazado_4013" data-name="Trazado 4013" d="M344.132,173.446l-26.491,15.1v1.2l26.491-15.1Z" transform="translate(158.313 103.004)" fill="#b52824"/>
      <g id="Grupo_26815" data-name="Grupo 26815" transform="translate(506.479 371.955)">
        <rect id="Rectángulo_4643" data-name="Rectángulo 4643" width="0.5" height="14.726" fill="#e2a3a3"/>
      </g>
      <g id="Grupo_26816" data-name="Grupo 26816" transform="translate(508.036 370.505)">
        <rect id="Rectángulo_4644" data-name="Rectángulo 4644" width="0.5" height="15.968" fill="#e2a3a3"/>
      </g>
      <g id="Grupo_26817" data-name="Grupo 26817" transform="translate(509.591 369.19)">
        <rect id="Rectángulo_4645" data-name="Rectángulo 4645" width="0.5" height="16.659" fill="#e2a3a3"/>
      </g>
      <g id="Grupo_26818" data-name="Grupo 26818" transform="translate(511.146 367.946)">
        <rect id="Rectángulo_4646" data-name="Rectángulo 4646" width="0.5" height="17.073" fill="#e2a3a3"/>
      </g>
      <g id="Grupo_26819" data-name="Grupo 26819" transform="translate(512.704 366.285)">
        <rect id="Rectángulo_4647" data-name="Rectángulo 4647" width="0.5" height="17.907" fill="#e2a3a3"/>
      </g>
      <g id="Grupo_26820" data-name="Grupo 26820" transform="translate(516.712 363.175)">
        <rect id="Rectángulo_4648" data-name="Rectángulo 4648" width="0.5" height="18.529" fill="#e2a3a3"/>
      </g>
      <g id="Grupo_26821" data-name="Grupo 26821" transform="translate(518.268 363.449)">
        <rect id="Rectángulo_4649" data-name="Rectángulo 4649" width="0.5" height="17.076" fill="#e2a3a3"/>
      </g>
      <g id="Grupo_26822" data-name="Grupo 26822" transform="translate(519.826 363.106)">
        <rect id="Rectángulo_4650" data-name="Rectángulo 4650" width="0.5" height="16.315" fill="#e2a3a3"/>
      </g>
      <g id="Grupo_26823" data-name="Grupo 26823" transform="translate(521.379 363.106)">
        <rect id="Rectángulo_4651" data-name="Rectángulo 4651" width="0.5" height="15.073" fill="#e2a3a3"/>
      </g>
      <path id="Trazado_4014" data-name="Trazado 4014" d="M322.891,203.4V222.4l2.212,1.237.221-17.41Z" transform="translate(169.862 168.913)" fill="#a51c1c"/>
      <rect id="Rectángulo_4652" data-name="Rectángulo 4652" width="0.692" height="14.903" transform="translate(437.528 269.892)" fill="#e8423f"/>
      <path id="Trazado_4015" data-name="Trazado 4015" d="M314.989,176.621l-.725-.384.053,15.521.672.33Z" transform="translate(150.883 109.145)" fill="#e8423f"/>
      <path id="Trazado_4016" data-name="Trazado 4016" d="M333.809,188.274l-.091-.805L306.01,171.25l-.377.508Z" transform="translate(131.894 98.172)" fill="#e8423f"/>
      <path id="Trazado_4017" data-name="Trazado 4017" d="M334.039,193.016l-.069-.814-27.9-16.307-.436.525Z" transform="translate(131.902 108.389)" fill="#e8423f"/>
    </g>
  </g>
</svg>
