<svg id="seleccionar" xmlns="http://www.w3.org/2000/svg" width="88" height="88" viewBox="0 0 88 88">
  <path id="Trazado_2748" data-name="Trazado 2748" d="M10.677,54.713V36H7.839V54.713a4.258,4.258,0,1,0,2.839,0ZM9.258,60.129a1.419,1.419,0,1,1,1.419-1.419A1.42,1.42,0,0,1,9.258,60.129Z" transform="translate(0.677 13.677)" fill="#111e61"/>
  <path id="Trazado_2749" data-name="Trazado 2749" d="M15.258,36a4.248,4.248,0,0,0-1.419,8.255V62.968h2.839V44.255A4.248,4.248,0,0,0,15.258,36Zm0,5.677a1.419,1.419,0,1,1,1.419-1.419A1.42,1.42,0,0,1,15.258,41.677Z" transform="translate(3.194 13.677)" fill="#111e61"/>
  <path id="Trazado_2750" data-name="Trazado 2750" d="M54.677,54.713V36H51.839V54.713a4.258,4.258,0,1,0,2.839,0Zm-1.419,5.416a1.419,1.419,0,1,1,1.419-1.419A1.42,1.42,0,0,1,53.258,60.129Z" transform="translate(19.129 13.677)" fill="#111e61"/>
  <path id="Trazado_2751" data-name="Trazado 2751" d="M59.258,36a4.248,4.248,0,0,0-1.419,8.255V62.968h2.839V44.255A4.248,4.248,0,0,0,59.258,36Zm0,5.677a1.419,1.419,0,1,1,1.419-1.419A1.42,1.42,0,0,1,59.258,41.677Z" transform="translate(21.645 13.677)" fill="#111e61"/>
  <path id="Trazado_2752" data-name="Trazado 2752" d="M62.032,46.419a4.235,4.235,0,0,0-1.584.312,4.22,4.22,0,0,0-6.932-2.044,4.127,4.127,0,0,0-4.258-.846V31.628a15.665,15.665,0,0,0,11.17-12.716l6,3.3a13.934,13.934,0,1,0,2.884-1.655l-8.745-4.81a15.592,15.592,0,0,0-31.138,0l-8.745,4.809a14.353,14.353,0,1,0,2.883,1.654l6-3.3A15.657,15.657,0,0,0,40.743,31.63V57.793a4.257,4.257,0,0,1-.434,1.872l-1.191-5.953a9.174,9.174,0,0,0-8.97-7.354,3.6,3.6,0,0,0-2.993,5.594l1.461,2.191a6.332,6.332,0,0,1,1.011,2.717l.982,7.853A9.641,9.641,0,0,0,31.8,68.328l4.688,9.643v2.512H33.645V89H64.871V80.484H62.032V78.118L64.3,75.09a9.989,9.989,0,0,0,1.987-5.961V50.677a4.263,4.263,0,0,0-4.258-4.258ZM74.806,45A11.282,11.282,0,0,1,68,42.716a8.513,8.513,0,0,1,13.6,0A11.282,11.282,0,0,1,74.806,45ZM70.548,32.226a4.258,4.258,0,1,1,4.258,4.258A4.263,4.263,0,0,1,70.548,32.226Zm4.258-9.935a11.342,11.342,0,0,1,8.845,18.457,11.35,11.35,0,0,0-4.16-3.233,7.1,7.1,0,1,0-9.371,0,11.365,11.365,0,0,0-4.16,3.233A11.342,11.342,0,0,1,74.806,22.29ZM15.194,45a11.282,11.282,0,0,1-6.8-2.284,8.513,8.513,0,0,1,13.6,0A11.282,11.282,0,0,1,15.194,45ZM10.935,32.226a4.258,4.258,0,1,1,4.258,4.258A4.263,4.263,0,0,1,10.935,32.226Zm15.613,1.419a11.289,11.289,0,0,1-2.509,7.1,11.35,11.35,0,0,0-4.16-3.233,7.1,7.1,0,1,0-9.371,0,11.365,11.365,0,0,0-4.16,3.233,11.35,11.35,0,1,1,20.2-7.1Zm5.677-17.032a12.774,12.774,0,1,1,22.934,7.71A11.3,11.3,0,0,0,49.7,19.047a7.1,7.1,0,1,0-9.407,0,11.3,11.3,0,0,0-5.457,5.277,12.741,12.741,0,0,1-2.613-7.711Zm17.032-2.839A4.258,4.258,0,1,1,45,9.516,4.263,4.263,0,0,1,49.258,13.774ZM37,26.553a8.477,8.477,0,0,1,16,0,12.663,12.663,0,0,1-4.255,2.275,4.221,4.221,0,0,0-7.493,0A12.674,12.674,0,0,1,37,26.553ZM62.032,86.161H36.484V83.322H62.032Zm1.419-17.032a7.137,7.137,0,0,1-1.419,4.258l-2.839,3.785v3.311H39.323V77.319L34.3,67a7.009,7.009,0,0,1-.88-2.639l-.982-7.855a9.168,9.168,0,0,0-1.465-3.939l-1.462-2.193a.759.759,0,0,1,.632-1.181,6.328,6.328,0,0,1,6.187,5.071l1.825,9.122h3.46l1.212-2.426a7.135,7.135,0,0,0,.749-3.172V30.806a1.419,1.419,0,0,1,2.839,0v22.71h2.839V47.839a1.419,1.419,0,0,1,2.839,0v5.677h2.839V47.839a1.419,1.419,0,0,1,2.839,0v5.677h2.839V50.677a1.419,1.419,0,0,1,2.839,0Z" transform="translate(-1 -1)" fill="#111e61"/>
</svg>
